<svg width="283" height="308" viewBox="0 0 283 308" fill="none" xmlns="http://www.w3.org/2000/svg">
<path d="M132.482 255.979C132.081 254.176 130.478 253.892 129.727 253.976L102.68 222.421L141.998 177.593L137.741 129.76L220.134 95.2004L236.663 99.7083V103.214C236.746 104.55 236.863 107.321 236.663 107.722C236.462 108.123 237.581 108.557 238.165 108.724C238.082 109.308 238.065 110.828 238.666 112.23C239.267 113.632 239.417 111.646 239.417 110.477H241.671C241.755 111.312 242.072 113.232 242.673 114.233C243.424 115.486 244.176 116.237 244.176 117.239C244.176 118.24 244.176 119.743 245.678 120.745C247.181 121.747 246.179 122.999 245.678 123.5C245.278 123.9 246.68 125.169 247.431 125.754C247.348 126.421 247.331 127.807 247.932 128.007C248.684 128.258 252.44 129.26 253.191 129.76C253.792 130.161 254.944 131.263 255.445 131.764C254.944 132.014 253.642 132.615 252.44 133.016C250.937 133.517 251.939 134.769 252.44 137.023C252.941 139.277 253.442 139.277 253.943 138.275C254.343 137.474 255.111 138.609 255.445 139.277C255.779 138.693 256.497 137.424 256.697 137.023C256.948 136.522 258.951 135.52 260.204 134.769C261.205 134.168 262.29 134.519 262.708 134.769C263.71 135.437 265.713 137.524 265.713 140.529C265.713 143.534 266.548 143.451 266.965 143.034C267.633 142.366 269.219 140.93 270.221 140.529C271.223 140.128 271.974 141.197 272.224 141.781C272.475 142.866 272.976 145.187 272.976 145.788C272.976 146.389 273.477 147.04 273.727 147.291V149.795C273.727 150.546 273.727 151.548 272.976 153.301C272.375 154.704 272.725 155.555 272.976 155.806C273.226 155.388 273.927 154.654 274.729 155.054C275.731 155.555 274.729 156.557 274.729 157.308C274.729 158.059 276.231 158.059 277.233 159.312C278.235 160.564 277.984 161.315 276.231 161.315C274.478 161.315 275.23 161.566 274.729 161.315C274.228 161.065 272.976 161.315 272.976 162.066C272.976 162.818 274.478 164.07 274.729 165.322C274.979 166.574 273.727 166.574 273.727 167.826C273.727 169.079 275.48 169.329 276.231 169.329C276.983 169.329 277.734 170.581 277.984 171.583C278.235 172.585 278.485 174.588 278.736 175.339C278.936 175.94 280.656 177.092 281.491 177.593C281.073 178.011 280.038 178.846 279.237 178.846C278.235 178.846 273.727 182.101 272.976 182.352C272.224 182.602 268.969 182.352 267.967 182.853C266.965 183.353 267.967 184.606 266.965 185.607C265.964 186.609 265.713 188.112 264.211 189.113C263.008 189.915 262.708 191.785 262.708 192.619V195.374H265.713C266.381 195.458 267.967 195.775 268.969 196.376C270.221 197.127 268.969 199.381 268.969 200.133C268.969 200.884 270.471 201.385 270.972 203.138C271.473 204.891 269.971 207.896 268.969 208.898C267.967 209.899 265.713 214.658 265.713 215.91C265.713 217.162 263.459 222.672 262.708 224.174C261.957 225.677 261.456 226.178 261.456 228.682C261.456 231.186 261.456 232.439 258.951 234.192C256.447 235.945 260.454 237.447 261.456 239.952C262.457 242.456 260.454 243.959 258.951 244.96C257.749 245.762 256.113 246.797 255.445 247.214C254.444 247.882 252.14 249.518 250.937 250.72C249.435 252.223 249.184 253.976 246.43 255.979C243.675 257.983 239.918 255.979 237.664 253.976C235.41 251.972 232.656 251.472 230.903 250.72C229.15 249.969 227.897 249.218 225.894 249.218C223.89 249.218 222.889 253.976 221.136 253.976C219.383 253.976 215.877 251.472 212.37 249.218C208.864 246.964 209.115 247.966 206.861 247.214C204.607 246.463 203.605 249.218 202.353 249.218C201.101 249.218 196.843 253.976 195.09 253.976C193.337 253.976 192.837 258.484 188.078 261.239H185.824C184.823 261.906 182.469 263.543 181.066 264.745C179.313 266.247 177.56 264.745 175.056 264.745H173.052L170.548 266.748C169.379 267.499 166.791 269.002 165.79 269.002C164.788 269.002 162.2 267.499 161.031 266.748L157.776 269.002C156.941 268.251 154.42 267.199 151.014 269.002C149.511 269.253 149.01 268 147.257 266.748C145.855 265.746 145.337 266.331 145.254 266.748H141.998C140.996 266.414 138.743 265.546 137.741 264.745C136.489 263.743 136.238 262.992 134.736 261.239C133.269 259.528 132.995 258.294 132.517 256.14L132.482 255.979Z" fill="#F2F4F7" stroke="#CBCDD5"/>
<path d="M45.0799 193.371C46.282 193.371 47.5843 192.035 48.0852 191.367L54.346 207.145L79.8904 234.442H95.1669L104.433 222.421L140.746 183.854L196.593 135.52L208.614 126.505C209.783 126.922 212.32 127.907 213.122 128.508C214.124 129.26 214.124 128.508 216.127 128.508C218.13 128.508 217.63 128.759 218.631 128.508C219.433 128.308 220.301 127.089 220.635 126.505C220.802 126.004 221.386 124.902 222.388 124.501C223.64 124 222.638 126.004 224.141 126.505C225.644 127.006 224.892 126.004 225.393 125.002C225.894 124 225.393 121.997 225.393 121.496C225.393 120.995 225.894 119.994 225.894 118.741C225.894 117.489 225.894 117.489 225.393 117.74C224.892 117.99 224.141 118.491 223.39 118.741C222.638 118.992 222.638 117.489 222.638 116.237C222.638 114.985 221.136 113.733 221.136 112.981C221.136 112.23 220.134 112.48 219.383 112.23C218.631 111.98 218.631 111.228 219.383 108.974C220.134 108.724 221.136 106.971 220.635 105.218C220.134 103.465 221.887 103.465 221.136 101.461C220.134 100.96 221.136 99.7083 221.136 98.957C221.136 98.2057 222.638 98.957 224.141 98.957C225.644 98.957 225.393 98.4561 228.649 98.957C230.402 99.7083 230.402 100.71 233.407 99.7083C233.808 98.9069 235.577 99.3744 236.412 99.7083C235.995 98.6231 235.11 96.3024 234.91 95.7013C234.659 94.95 234.91 94.4492 233.908 94.4492C232.906 94.4492 232.405 94.4492 231.153 93.197C229.901 91.9448 231.153 90.1917 231.153 88.6892V86.4352C231.153 85.684 229.65 85.4335 229.65 84.4318C229.65 83.43 229.4 83.6805 229.65 82.9292C229.901 82.1778 230.652 80.6752 230.402 79.4231C230.151 78.1709 228.398 78.6718 226.896 78.6718C225.393 78.6718 225.894 77.9205 225.894 77.1692C225.894 76.4178 223.39 76.6683 222.638 77.1692C221.887 77.67 221.887 79.4231 221.136 79.4231C220.384 79.4231 220.134 78.4213 219.383 78.6718C218.631 78.9222 218.381 79.4231 217.63 79.4231H215.125C214.374 79.4231 214.124 75.917 214.124 75.1657C214.124 74.5646 213.456 73.5796 213.122 73.1622V70.157C213.122 69.4057 210.868 68.4039 210.367 67.6526C209.866 66.9012 207.612 65.1483 207.111 65.1483H204.607C203.355 65.1483 202.604 64.397 201.602 63.6457C200.6 62.8944 199.097 63.3952 198.597 63.6457C198.096 63.8961 196.844 63.8961 195.341 65.8996C195.09 66.6509 194.84 67.6526 194.339 68.4039C193.838 69.1553 192.837 69.4057 191.584 70.157C190.332 70.9083 191.835 73.9135 190.583 73.9135C189.33 73.9135 188.83 76.9187 186.826 79.4231C186.075 80.6752 185.073 80.4248 184.322 81.4265C183.57 82.4283 184.071 83.9309 183.32 84.4318C182.569 84.9326 181.817 87.1865 182.068 87.1865C182.318 87.1865 181.567 88.6892 177.81 90.1917C175.807 90.1917 176.809 91.6944 176.308 92.1952C175.807 92.6961 175.807 93.6979 175.557 94.4492C175.306 95.2005 174.805 95.4509 174.054 95.7013C173.303 95.9518 173.052 93.6979 173.052 92.1952C173.052 90.6926 174.054 90.1917 174.805 90.1917C175.557 90.1917 175.056 88.1885 174.805 87.1867L174.805 87.1865C174.555 86.1847 173.553 88.1883 173.052 88.1883C172.652 88.1883 172.217 87.0196 172.05 86.4352C171.633 85.7674 170.648 84.6321 170.047 85.4335C169.296 86.4353 169.546 86.6857 167.793 88.1883C166.791 88.1883 166.541 88.6892 165.79 90.1917C165.038 91.6943 162.784 88.6892 161.031 88.6892C159.278 88.6892 158.777 88.6892 155.021 94.4492C155.021 95.9518 151.515 94.4492 149.261 94.4492C147.007 94.4492 146.757 92.9466 146.005 90.1917C145.254 87.4369 145.254 88.4387 143.25 87.1865C141.247 85.9343 145.254 85.4335 146.005 84.4318C146.757 83.43 147.257 80.6752 147.257 78.1709V73.9135C147.925 72.5779 149.261 69.4557 149.261 67.6526C149.261 65.8494 150.763 65.7326 151.515 65.8996C151.932 64.8978 152.767 62.5938 152.767 61.3918C152.767 60.1897 154.27 56.8839 155.021 55.3812H152.767L149.261 53.6283V48.6196L147.257 46.8665C147.09 45.6978 146.857 42.8094 147.257 40.6056C147.758 37.8508 149.261 39.103 149.261 37.8509V33.5934H146.757L143.25 32.0909L145.254 29.336L146.757 25.5795L145.254 22.0734L143.25 18.0664V16.5638L141.998 11.5552H137.991H134.736V10.0525C135.821 9.38472 138.242 7.69849 139.243 6.296C140.245 4.89351 139.661 4.54293 139.243 4.54295L137.991 1.53773C136.823 0.869908 134.535 0.28556 134.736 3.29078C134.936 6.296 133.483 4.54295 132.732 3.29078C131.647 3.70817 129.326 4.89356 128.725 6.296C128.124 7.69843 127.306 6.88035 126.972 6.296L124.217 4.54295H122.715V10.0525V16.5638C122.715 17.816 120.21 16.5638 120.21 18.0664C120.21 19.569 120.21 20.8212 118.958 22.0734C117.957 23.0751 118.541 24.8282 118.958 25.5795C119.376 26.3308 120.711 28.1339 122.715 29.336C125.219 30.8386 122.715 32.0908 122.715 33.5934C122.715 35.096 121.463 35.3465 120.21 36.3482C119.209 37.1496 119.793 39.5204 120.21 40.6056C119.125 41.1899 116.805 42.559 116.203 43.3604C115.452 44.3621 115.703 45.8647 114.701 46.8665C113.699 47.8682 111.195 49.1204 109.943 50.1221C108.941 50.9235 107.355 51.9586 106.687 52.376V55.3812C105.435 56.4665 102.93 59.4884 102.93 62.8943C102.93 64.1465 103.181 65.8995 102.93 67.6526C102.73 69.055 105.351 70.9083 106.687 71.6596C107.271 71.5761 108.991 71.4593 111.195 71.6596C113.399 71.8599 112.113 73.2457 111.195 73.9135C111.362 74.8318 111.595 76.9688 111.195 78.1709C110.794 79.373 109.191 78.6718 108.44 78.1709C107.856 78.1709 106.236 79.0725 104.433 82.6787C104.433 84.9326 105.685 84.4318 106.687 85.4335C107.689 86.4353 108.44 87.1865 108.44 92.9466C107.188 95.7014 106.437 92.9466 104.433 94.4492C102.83 95.6513 103.765 97.6214 104.433 98.4561C103.682 98.957 101.879 99.9587 100.676 99.9587C99.4744 99.9587 99.0069 98.957 98.9235 98.4561L96.1687 96.9535C96.4191 96.2022 96.5694 94.6495 95.1669 94.4492C93.4139 94.1987 92.1617 93.6979 91.16 92.9466C90.1582 92.1953 90.4087 90.1917 86.6521 87.1865C84.6487 86.6856 82.1443 88.6891 82.1443 90.1917C82.1443 91.6943 82.6452 94.1987 82.1443 96.2022C81.6434 98.2056 80.8921 98.7065 79.8904 99.9587C78.8887 101.211 77.8869 100.96 75.633 102.213C73.3791 103.465 72.8782 104.467 70.8747 105.468C68.8713 106.47 70.3739 108.473 69.1217 108.473C68.1199 108.473 66.2 110.477 65.3652 111.479V115.736L63.3617 117.99C62.7773 117.656 61.3582 116.738 60.3565 115.736C59.1043 114.484 59.1043 113.983 60.3565 111.479C61.6086 108.974 59.6052 109.976 59.1043 108.473C58.6034 106.971 59.6052 106.47 52.8434 111.479C51.5912 114.484 48.0852 110.727 45.0799 109.976C42.6758 109.375 38.4017 108.724 36.5652 108.473L29.0521 120.494L32.8086 122.247C32.3078 122.999 31.6065 124.601 32.8086 125.002C34.0107 125.403 33.3095 126.672 32.8086 127.256C33.4764 128.174 34.4114 130.462 32.8086 132.265C31.306 132.265 30.8051 135.771 29.0521 137.524C27.2991 139.277 25.7964 137.774 20.5373 142.783C16.7808 144.786 20.5373 144.786 20.5373 147.291C20.5373 149.795 18.2834 150.546 16.0295 160.313C15.6288 162.718 14.8608 162.985 14.5269 162.818C13.3582 162.651 9.96895 163.118 5.76166 166.324C4.50948 168.578 6.51296 168.578 9.51818 172.585C11.9224 175.79 12.8573 177.927 13.0243 178.595C13.8591 178.428 16.5304 178.895 20.5373 182.101C24.2938 184.355 22.5408 184.856 24.2938 186.358C26.0469 187.861 26.5478 187.36 29.0521 189.614C31.5565 191.868 30.0538 191.367 36.5652 193.371C36.5652 194.973 38.0678 195.374 38.8191 195.374C40.4052 194.706 43.8779 193.371 45.0799 193.371Z" fill="#F2F4F7" stroke="#CBCDD5"/>
<path d="M48.0852 218.164C46.833 217.997 44.2785 218.164 44.0782 220.168C43.8278 222.672 44.0782 223.674 44.0782 227.681C44.0782 231.688 45.0799 235.695 41.5738 236.696C38.0678 237.698 30.3043 235.945 28.8017 239.201C27.2991 242.456 25.546 248.968 26.2973 251.472C27.0486 253.976 25.7964 257.733 28.8017 258.985C31.8069 260.237 36.3147 262.992 32.5582 263.994C28.8017 264.995 23.793 263.994 20.7877 263.994C17.7825 263.994 13.5251 262.491 8.266 266.749C3.00686 271.006 -1.25053 273.761 2.50599 278.519C6.26252 283.277 12.273 284.029 14.5269 284.279C16.7808 284.529 18.2834 285.782 19.5356 288.536C20.7877 291.291 25.0451 292.042 28.8017 294.296C32.5582 296.55 31.306 299.806 34.8121 301.559C38.3182 303.312 40.5721 302.811 48.0852 303.562C55.5982 304.314 72.3773 306.067 78.1374 306.317C83.8974 306.568 86.6521 305.566 88.6556 303.562C90.6591 301.559 89.9078 299.806 87.4034 297.051C84.8991 294.296 85.1495 293.044 86.9026 292.794C88.6556 292.543 90.4087 292.293 90.1582 291.041C89.9078 289.789 93.6643 289.789 95.1669 288.536C96.6695 287.284 96.6695 285.531 98.1721 284.279C99.6748 283.027 102.43 283.778 102.68 285.782C102.93 287.785 104.433 288.536 107.438 288.536C110.443 288.536 113.95 289.288 116.704 287.535C119.459 285.782 121.463 283.277 122.715 282.526C123.967 281.775 128.224 282.526 131.23 282.526C134.235 282.526 138.242 280.773 139.243 280.022C140.245 279.27 145.504 271.757 146.256 270.755C146.857 269.954 148.009 267.416 148.51 266.248" stroke="#7684FF" stroke-width="2"/>
<path d="M35.5633 212.404C34.1609 210.801 31.4729 208.23 30.3042 207.145C30.8051 206.31 32.0572 204.641 33.059 204.641C34.0607 204.641 33.4764 202.47 33.059 201.385C33.8938 199.966 36.0642 197.578 38.0677 199.382C40.0712 201.185 38.9025 198.63 38.0677 197.128C38.652 195.875 40.2715 193.371 42.0746 193.371C44.3286 193.371 45.0799 191.618 46.5825 191.618C48.0851 191.618 48.3355 190.366 49.5877 189.114C50.5894 188.112 51.3407 188.696 51.5912 189.114C52.1755 189.948 52.9936 191.969 51.5912 193.371C49.8381 195.124 53.3442 195.375 53.3442 197.128C53.3442 198.881 55.5981 199.382 57.1007 201.385C58.6034 203.388 59.6051 204.641 62.8607 207.145C66.1164 209.649 68.8712 210.401 74.1303 214.908C76.3842 217.413 76.1338 218.164 78.1373 219.166C80.1408 220.168 79.3895 224.175 85.3999 229.684C84.899 231.688 85.6503 233.19 87.1529 233.19C88.6556 233.19 89.4069 229.684 90.659 229.684H95.4173C97.4208 229.684 96.2521 229.016 95.4173 228.682L97.4208 225.928C99.3408 224.175 104.233 220.168 108.44 218.164C113.699 215.66 121.463 207.145 125.469 202.888C129.476 198.63 131.73 195.375 136.99 189.114C142.249 182.853 140.496 171.583 140.496 169.58C140.496 167.977 139.828 165.907 139.494 165.072C139.744 164.488 140.245 162.417 140.245 158.811C140.045 157.409 140.329 155.555 140.496 154.804L142.75 150.046L145.254 148.794C144.419 148.126 142.75 146.59 142.75 145.788C142.75 144.787 139.494 142.533 142.75 136.021C144.553 135.42 148.009 134.936 149.511 134.769C150.513 133.183 152.767 130.011 153.769 130.011C155.021 130.011 156.273 130.011 159.278 132.515C162.283 135.02 161.031 132.515 162.784 132.515C164.537 132.515 165.038 130.011 165.038 128.258C165.038 126.856 166.207 127.674 166.791 128.258L169.045 130.011H174.555H179.313C181.116 130.011 180.064 131.681 179.313 132.515C180.148 133.267 182.068 134.769 183.07 134.769H187.327C189.08 134.769 189.581 135.27 190.833 134.769C192.085 134.268 193.337 133.016 195.341 132.515C197.344 132.015 199.598 130.762 199.598 130.011C199.598 129.26 201.351 127.256 201.351 125.754C201.351 124.551 202.687 123.75 203.355 123.5C203.856 123.667 205.108 123.9 206.11 123.5C207.362 122.999 208.113 121.747 208.113 120.494C208.113 119.493 210.45 120.912 211.619 121.747C211.035 122.748 209.515 124.952 208.113 125.754C206.36 126.755 206.11 130.011 209.866 140.529C210.066 141.731 211.118 143.534 211.619 144.286V148.794C211.619 151.048 211.619 153.552 213.623 154.804C215.626 156.056 215.877 153.301 218.631 153.552C221.386 153.802 219.883 156.557 220.635 157.559C221.386 158.561 223.64 161.315 223.89 165.072C224.141 168.828 220.384 168.828 218.631 169.58C216.878 170.331 213.623 171.082 211.619 171.583C209.616 172.084 209.616 174.338 208.113 175.34C206.61 176.342 204.357 180.849 203.355 182.102C202.353 183.354 201.602 184.606 197.595 184.606C194.389 184.606 194.757 186.609 195.341 187.611C195.09 188.362 194.74 190.216 195.341 191.618C196.092 193.371 197.595 195.375 199.598 199.382C199.348 201.135 199.598 202.888 197.595 204.641C195.591 206.394 195.591 206.394 193.337 207.646C191.083 208.898 190.332 209.649 187.327 210.401C184.322 211.152 182.068 212.154 177.059 213.656C175.056 215.159 174.304 217.162 172.802 218.164C171.299 219.166 170.798 219.917 169.045 220.668C167.292 221.42 167.543 222.171 165.038 224.175C162.534 226.178 161.783 227.43 161.031 227.681C160.28 227.931 160.28 226.178 159.278 226.178C158.276 226.178 156.523 225.928 155.021 226.178C153.518 226.428 153.017 228.182 152.516 228.682C152.016 229.183 150.012 228.682 149.511 228.682C149.01 228.682 147.508 230.686 145.254 229.684C144.503 229.434 143.501 228.682 142.75 228.682H140.496C139.911 229.016 138.743 229.885 138.743 230.686C138.743 231.487 137.574 232.689 136.99 233.19L139.494 233.942C138.826 234.275 137.39 235.394 136.99 237.197C136.489 239.451 135.988 239.451 134.485 240.703C132.983 241.955 136.99 243.208 138.743 243.208C140.496 243.208 140.496 246.213 138.743 246.213C136.99 246.213 134.986 247.715 133.233 249.469C131.831 250.871 130.478 252.891 129.977 253.726C128.892 253.893 126.471 254.127 125.469 253.726C124.217 253.225 121.212 250.721 119.96 250.721C118.708 250.721 117.956 248.968 115.953 247.715C113.949 246.463 111.946 247.715 108.44 246.213C104.934 244.71 103.682 245.712 101.177 246.213C98.673 246.714 94.9164 247.215 92.9129 247.715C90.9095 248.216 87.1529 251.222 83.8973 250.721C80.6416 250.22 73.6295 244.46 71.8764 243.208C70.1234 241.955 69.1216 236.195 68.8712 234.943C68.6208 233.691 67.619 230.936 67.3686 229.684C67.1181 228.432 67.3686 227.18 65.1147 225.928C62.8607 224.675 63.1112 225.677 59.6051 224.675C56.099 223.674 55.5981 221.169 53.3442 219.166C51.0903 217.162 50.5894 219.166 46.5825 219.166C43.3769 219.166 42.2416 216.328 42.0746 214.908C40.4886 214.742 36.9658 214.007 35.5633 212.404Z" fill="#F2F4F7" stroke="#CBCDD5"/>
<path d="M132.983 260.488C132.181 259.486 131.981 257.232 131.981 256.23C131.952 255.479 129.477 254.978 128.475 254.978C127.473 254.978 127.974 254.978 127.223 254.728C126.471 254.477 126.722 254.227 125.97 253.726C125.219 253.225 124.468 253.475 123.466 253.475C122.464 253.475 122.464 252.223 121.963 251.472C121.463 250.721 120.21 249.719 118.958 248.717C117.706 247.715 116.955 247.966 116.203 247.966C115.452 247.966 114.45 248.717 113.449 248.717C112.447 248.717 112.197 247.966 111.445 247.465C110.694 246.964 109.191 246.714 108.69 246.463C108.19 246.213 106.437 246.463 105.184 246.463C103.932 246.463 103.682 245.462 102.68 245.462C101.678 245.462 101.428 246.213 100.426 246.714C99.4243 247.215 98.1722 246.463 97.4209 246.463C96.6695 246.463 97.1704 247.215 95.9182 247.465C94.6661 247.715 92.913 247.715 91.9113 247.966C90.9095 248.216 90.9095 249.218 90.6591 249.969C90.4087 250.721 89.1565 250.47 88.1548 250.47C87.153 250.47 86.1513 249.468 85.4 249.468C84.6487 249.468 84.6487 249.969 83.6469 249.969C82.6452 249.969 81.6434 249.468 80.8921 249.468C80.1409 249.468 79.64 249.468 79.64 248.717C79.64 247.966 78.6382 246.714 78.1374 246.463C77.6365 246.213 77.1356 246.714 76.3843 246.714C75.633 246.714 74.8817 246.463 74.3808 246.213C73.88 245.962 73.3791 244.961 72.8782 244.46C72.3774 243.959 70.6243 241.705 70.3739 241.204C70.1234 240.703 68.8713 238.95 68.3704 238.7C67.8695 238.449 67.8695 237.197 67.6191 236.446C67.4187 235.845 67.3687 234.025 67.3687 233.19C67.5356 233.524 68.0699 233.891 68.8713 232.689C69.873 231.187 70.8747 231.938 72.3774 232.689C73.88 233.441 73.3791 233.19 75.3826 232.689C77.3861 232.188 77.1356 231.437 77.8869 233.19C78.6382 234.943 80.3913 233.941 80.3913 233.19V229.935C80.3913 228.933 81.6434 228.682 81.6434 227.681C81.6434 226.879 80.3078 225.677 79.64 225.176C79.8904 224.592 80.3913 223.073 80.3913 221.67C80.3913 219.917 77.8869 219.416 77.1356 218.665C76.3843 217.914 76.1339 216.161 74.8817 215.409C73.6295 214.658 72.3773 212.404 73.3791 211.152C74.3808 209.9 76.1339 211.653 76.1339 211.152C76.1339 210.651 76.1339 209.148 77.1356 208.397C78.1373 207.646 77.8869 205.893 77.8869 205.392C77.8869 204.891 76.1339 202.888 76.1339 200.634C76.1339 198.38 77.6365 197.128 77.8869 195.625C78.1373 194.122 79.64 195.625 80.3913 195.625C81.1426 195.625 81.1426 194.623 81.6434 193.872C82.1443 193.121 83.6469 194.623 83.6469 193.872C83.6469 193.121 83.8974 191.868 83.6469 191.117C83.3965 190.366 84.6487 189.364 85.4 188.863C86.1513 188.362 85.9008 187.611 86.1513 186.359C86.4017 185.107 87.153 186.359 88.1548 185.107C89.1565 183.855 91.6608 183.354 93.6643 182.101C95.6678 180.849 95.9182 182.602 95.4174 183.103C94.9165 183.604 95.1669 185.107 95.9182 186.359C96.6695 187.611 97.6713 186.108 98.673 185.107C99.6748 184.105 99.6748 185.357 100.426 185.107C101.177 184.856 102.179 184.355 101.428 183.354C100.676 182.352 101.428 181.1 101.428 180.599C101.428 180.098 103.682 178.846 104.433 177.844C105.184 176.842 108.19 173.837 109.191 173.837C110.193 173.837 111.696 174.338 112.447 173.837C113.048 173.436 113.031 171.166 112.948 170.081C113.532 169.663 114.851 168.778 115.452 168.578C116.203 168.328 116.704 166.825 119.459 165.573C121.663 164.571 119.877 161.649 118.708 160.314C118.875 159.813 119.359 158.711 119.96 158.31C120.711 157.809 121.212 154.303 121.212 153.301C121.212 152.3 120.962 149.295 121.212 148.543C121.463 147.792 122.965 144.536 124.969 143.034C126.972 141.531 130.478 142.032 131.981 142.032C133.483 142.032 135.487 142.032 139.243 143.034C143 144.035 143.25 143.034 146.005 144.536C148.209 145.738 146.923 143.368 146.005 142.032C146.423 141.698 147.358 141.03 147.758 141.03H151.014C152.266 141.03 155.271 143.034 156.523 143.034C157.776 143.034 160.28 143.785 163.035 143.785C165.79 143.785 165.79 140.028 166.791 139.027C167.793 138.025 169.045 135.27 169.797 135.27C170.548 135.27 177.059 134.519 179.313 134.519C181.567 134.519 187.077 134.769 188.078 134.519C189.08 134.268 188.83 137.524 188.078 138.025C187.477 138.426 188.83 138.86 189.581 139.027C189.414 139.444 188.88 140.429 188.078 141.03C187.077 141.781 185.073 142.783 184.071 143.785C183.07 144.787 184.071 146.289 182.819 147.291C181.567 148.293 179.313 148.293 178.311 149.295C177.31 150.296 177.059 152.049 177.81 153.552C178.412 154.754 180.732 157.225 181.817 158.31L180.565 159.312C180.148 158.978 179.113 158.31 178.311 158.31C177.31 158.31 176.809 158.06 175.807 158.31C174.805 158.561 174.304 159.813 173.052 161.065C171.8 162.317 171.299 165.072 171.299 166.825V172.084C171.299 173.587 169.045 175.34 167.793 176.592C166.541 177.844 167.543 179.096 167.793 180.348C168.044 181.601 166.791 183.103 166.791 184.856C166.791 186.609 166.791 188.112 164.788 189.615C162.784 191.117 162.033 193.121 162.033 194.373C162.033 195.625 161.282 197.628 159.278 198.38C157.275 199.131 160.28 200.133 161.282 200.634C162.083 201.034 162.117 202.303 162.033 202.888C163.035 203.806 165.389 206.043 166.791 207.646C168.544 209.649 169.045 210.651 171.299 210.651C173.553 210.651 174.304 208.898 175.056 208.648C175.657 208.447 177.477 207.896 178.311 207.646C178.395 208.147 178.512 209.449 178.311 210.651C178.061 212.153 178.812 213.406 180.565 213.907C181.968 214.307 182.652 212.571 182.819 211.653H185.073C185.741 211.653 187.277 211.452 188.078 210.651C188.88 209.85 190.082 209.816 190.583 209.9L191.584 211.653L190.583 212.404C189.664 213.239 187.678 215.109 187.077 215.91C186.476 216.712 185.49 219.082 185.073 220.168C184.99 220.835 184.672 222.271 184.071 222.672C183.32 223.173 180.816 225.928 179.313 226.929C177.81 227.931 175.056 230.686 174.304 231.437C173.553 232.188 170.548 233.19 169.797 233.691C169.045 234.192 169.797 235.945 169.797 236.947C169.797 237.948 169.045 239.701 169.045 242.456C169.045 245.211 168.795 246.714 167.793 248.467C166.791 250.22 167.292 251.973 167.793 253.475C168.294 254.978 166.541 254.978 165.038 255.479C163.536 255.98 162.534 256.981 161.532 259.736C160.53 262.491 159.028 262.491 158.026 262.992C157.225 263.393 156.023 262.157 155.522 261.489C154.937 261.406 153.568 261.089 152.767 260.488C151.765 259.736 153.017 262.992 152.767 264.244C152.517 265.496 150.763 264.244 150.263 264.244C149.762 264.244 148.51 266.999 147.758 266.999C147.007 266.999 143.501 267.249 140.746 266.999C137.991 266.748 138.242 265.246 137.24 264.244C136.238 263.242 133.984 261.74 132.983 260.488Z" fill="#D8F0D4" fill-opacity="0.3" stroke="#76D33D" stroke-width="2" stroke-linecap="round"/>
<path d="M91.9113 226.679C90.7092 226.278 87.2365 224.174 85.6504 223.173C84.8991 221.42 91.9113 221.169 93.1635 221.169C94.4156 221.169 95.9182 221.169 96.6695 220.668C97.2706 220.268 98.4226 220.835 98.9235 221.169C99.5913 220.835 101.177 220.117 102.179 219.917C103.431 219.667 103.932 218.414 104.683 217.663C105.435 216.912 107.939 212.154 109.191 211.152C110.443 210.15 114.951 207.646 116.203 206.894C117.456 206.143 118.457 203.889 120.711 202.387C122.514 201.184 120.461 200.383 119.209 200.133C120.127 199.548 122.114 198.229 122.715 197.628C123.466 196.877 124.468 195.124 125.97 195.124C127.173 195.124 127.473 193.121 127.473 192.119C127.974 191.534 129.176 190.216 129.977 189.615C130.979 188.863 133.984 185.607 134.736 185.107C135.487 184.606 135.237 183.855 135.487 182.853C135.687 182.051 136.071 181.016 136.238 180.599C136.656 180.098 137.591 178.946 137.991 178.345C138.492 177.594 138.743 175.59 139.494 174.088C140.245 172.585 142.75 167.326 142.75 166.574C142.75 165.823 143.25 164.07 144.503 163.068C145.755 162.067 145.003 161.065 145.254 160.564C145.504 160.063 146.005 157.809 146.005 155.054C147.007 154.553 147.007 153.552 148.259 152.801C149.511 152.049 149.762 152.55 150.763 152.801C151.765 153.051 150.763 154.804 150.763 155.555C150.763 156.307 152.266 156.808 152.016 157.809C151.765 158.811 151.765 159.813 150.763 161.065C149.762 162.317 151.014 163.068 150.763 164.821C150.513 166.575 150.513 167.576 149.762 168.828C149.01 170.081 149.762 170.832 149.762 174.088C149.762 176.091 148.51 174.839 148.259 176.842C148.059 178.445 149.177 180.015 149.762 180.599C149.261 181.267 148.009 182.853 147.007 183.855C145.755 185.107 146.506 185.607 146.005 186.609C145.504 187.611 145.755 187.861 145.003 189.615C144.402 191.017 144.419 189.698 144.503 188.863C144.586 188.195 144.803 186.609 145.003 185.607C145.204 184.606 143.584 185.19 142.75 185.607C142.416 186.025 141.598 187.06 140.997 187.861C140.395 188.663 138.743 191.034 137.991 192.119L139.494 190.366H142.75C143.751 190.366 143.25 191.117 143.25 192.119C143.25 193.121 144.503 194.122 143.25 195.124C142.249 195.925 141.831 196.46 141.748 196.627C141.414 196.46 140.496 196.226 139.494 196.627C138.242 197.127 136.99 198.38 136.238 199.131C135.637 199.732 135.988 200.049 136.238 200.133V202.387C135.821 202.72 134.786 203.488 133.984 203.889C132.983 204.39 132.482 205.392 131.73 206.143C130.979 206.894 129.977 206.143 125.97 207.646C124.718 208.898 123.717 208.898 121.963 209.9C120.21 210.901 121.212 212.154 119.209 212.154C118.708 212.154 117.957 211.903 116.704 212.154C115.452 212.404 115.452 212.654 114.951 214.157C114.45 215.66 114.45 216.161 113.449 217.663C112.447 219.166 112.197 220.919 111.445 222.421C110.694 223.924 110.193 223.173 109.191 223.924C108.39 224.525 106.186 225.51 105.184 225.927C104.266 226.178 102.129 226.679 100.927 226.679C99.4243 226.679 99.1739 227.681 98.1722 227.681H95.9182C94.9165 227.681 93.4139 227.18 91.9113 226.679Z" fill="#96CDFF"/>
<path d="M236.412 99.7085C238.583 100.877 245.027 102.513 247.431 99.7085C255.445 92.6963 256.447 92.6963 260.955 92.1954C276.482 86.6859 275.981 88.1885 279.988 84.6824" stroke="#CBCDD5"/>
</svg>
