<svg width="285" height="157" viewBox="0 0 285 157" fill="none" xmlns="http://www.w3.org/2000/svg">
<path d="M87.9009 96.9206C88.7357 96.6701 90.8059 96.1693 92.4087 96.1693C94.4122 96.1693 96.1652 96.1693 96.9165 96.1693C97.5176 96.1693 98.6696 95.6684 99.1705 95.418" stroke="black"/>
<path d="M1 1.25415L21.5357 19.2855L27.0452 22.2907C30.5513 23.1255 38.2647 24.9954 41.0696 25.7968C44.5757 26.7985 56.5966 33.3098 59.6018 37.0663C62.607 40.8229 62.1061 40.322 63.6087 44.329C65.1114 48.3359 66.1131 49.5881 67.6157 52.8437C69.1183 56.0994 77.6331 63.362 80.3879 65.8664C83.1427 68.3707 82.8922 69.8733 82.8922 71.1255C82.8922 72.3777 84.1444 76.1342 85.1461 78.3881C85.9475 80.1912 91.8244 87.6542 94.6627 91.1603C94.4122 91.6612 93.8112 92.7631 93.4105 93.1638C92.9096 93.6646 90.1548 95.9185 89.1531 96.169C88.1514 96.4194 87.4001 97.1707 87.4001 98.1725C87.4001 99.1742 90.6557 100.426 92.4088 101.428C94.1618 102.43 98.4192 103.432 99.6714 103.432C100.673 103.432 101.758 102.096 102.176 101.428C103.094 101.428 105.181 101.428 106.183 101.428C107.435 101.428 110.19 100.426 110.691 99.6751C111.191 98.9237 112.193 98.6733 112.944 98.6733C113.696 98.6733 118.454 97.6716 120.958 97.1707C123.463 96.6699 126.969 93.4142 128.221 93.6646C129.223 93.865 130.976 98.256 131.727 100.426C133.397 101.595 137.287 104.083 139.491 104.684C142.245 105.435 142.997 106.186 146.252 106.186C149.508 106.186 153.264 104.684 155.018 104.684C156.771 104.684 156.019 104.684 159.776 104.684C163.532 104.684 161.278 105.936 167.539 104.684C173.8 103.432 179.059 98.1725 181.313 98.1725C183.116 98.1725 191.581 94.8333 195.588 93.1638C198.677 94.4994 205.555 97.1707 208.36 97.1707C211.866 97.1707 217.376 97.6716 220.631 98.6733C223.887 99.6751 233.654 101.428 239.164 101.428C244.673 101.428 247.678 99.4246 250.934 101.428C253.539 103.031 260.033 105.268 262.955 106.186L270.969 108.691H284.492" stroke="black"/>
<path d="M131.978 100.677C130.976 104.1 129.273 111.396 130.475 113.199C131.978 115.453 134.983 116.454 134.231 119.209C133.48 121.964 130.475 124.719 130.475 126.221C130.475 127.724 128.972 128.726 130.475 131.23C131.978 133.734 131.978 137.241 131.978 138.994C131.978 140.396 130.976 151.265 130.475 156.524" stroke="black"/>
<path d="M87.9009 96.9206C88.7357 96.6701 90.8059 96.1693 92.4087 96.1693C94.4122 96.1693 96.1652 96.1693 96.9165 96.1693C97.5176 96.1693 98.6696 95.6684 99.1705 95.418" stroke="white" stroke-dasharray="3 3"/>
<path d="M1 1.25415L21.5357 19.2855L27.0452 22.2907C30.5513 23.1255 38.2647 24.9954 41.0696 25.7968C44.5757 26.7985 56.5966 33.3098 59.6018 37.0663C62.607 40.8229 62.1061 40.322 63.6087 44.329C65.1114 48.3359 66.1131 49.5881 67.6157 52.8437C69.1183 56.0994 77.6331 63.362 80.3879 65.8664C83.1427 68.3707 82.8922 69.8733 82.8922 71.1255C82.8922 72.3777 84.1444 76.1342 85.1461 78.3881C85.9475 80.1912 91.8244 87.6542 94.6627 91.1603C94.4122 91.6612 93.8112 92.7631 93.4105 93.1638C92.9096 93.6646 90.1548 95.9185 89.1531 96.169C88.1514 96.4194 87.4001 97.1707 87.4001 98.1725C87.4001 99.1742 90.6557 100.426 92.4088 101.428C94.1618 102.43 98.4192 103.432 99.6714 103.432C100.673 103.432 101.758 102.096 102.176 101.428C103.094 101.428 105.181 101.428 106.183 101.428C107.435 101.428 110.19 100.426 110.691 99.6751C111.191 98.9237 112.193 98.6733 112.944 98.6733C113.696 98.6733 118.454 97.6716 120.958 97.1707C123.463 96.6699 126.969 93.4142 128.221 93.6646C129.223 93.865 130.976 98.256 131.727 100.426C133.397 101.595 137.287 104.083 139.491 104.684C142.245 105.435 142.997 106.186 146.252 106.186C149.508 106.186 153.264 104.684 155.018 104.684C156.771 104.684 156.019 104.684 159.776 104.684C163.532 104.684 161.278 105.936 167.539 104.684C173.8 103.432 179.059 98.1725 181.313 98.1725C183.116 98.1725 191.581 94.8333 195.588 93.1638C198.677 94.4994 205.555 97.1707 208.36 97.1707C211.866 97.1707 217.376 97.6716 220.631 98.6733C223.887 99.6751 233.654 101.428 239.164 101.428C244.673 101.428 247.678 99.4246 250.934 101.428C253.539 103.031 260.033 105.268 262.955 106.186L270.969 108.691H284.492" stroke="white" stroke-dasharray="3 3"/>
<path d="M131.978 100.677C130.976 104.1 129.273 111.396 130.475 113.199C131.978 115.453 134.983 116.454 134.231 119.209C133.48 121.964 130.475 124.719 130.475 126.221C130.475 127.724 128.972 128.726 130.475 131.23C131.978 133.734 131.978 137.241 131.978 138.994C131.978 140.396 130.976 151.265 130.475 156.524" stroke="white" stroke-dasharray="3 3"/>
</svg>
