<svg width="263" height="196" viewBox="0 0 263 196" fill="none" xmlns="http://www.w3.org/2000/svg">
<path d="M2.968 10.152V2.088H1.456V12H3.276L7.434 5.924C8.134 4.902 8.19 4.412 8.19 3.936H8.624V12H10.136V2.088H8.316L3.99 8.458C3.43 9.284 3.402 9.718 3.402 10.152H2.968ZM12.7978 4.944V14.856H14.2258V11.832C14.8978 12 15.5698 12.168 16.8298 12.168C20.0218 12.168 20.0218 9.984 20.0218 8.808V8.136C20.0218 6.792 20.0218 4.776 16.9978 4.776C15.3178 4.776 14.3938 5.476 14.0578 5.728L13.4698 4.944H12.7978ZM18.5098 8.472C18.5098 10.81 18.5098 10.824 16.2418 10.824C15.7378 10.824 14.8978 10.824 14.2258 10.656V6.624L16.2418 6.12H16.4798C18.5098 6.12 18.5098 6.204 18.5098 8.472ZM29.2346 5.336V4.944H27.6386C26.6306 6.288 26.0426 7.072 26.0426 7.8H23.5226V4.944H22.0946V12H23.5226V9.144H26.0426C26.0426 9.872 26.6306 10.656 27.6386 12H29.2346V11.608L26.8686 8.472L29.2346 5.336ZM33.3877 10.488C33.3877 9.984 33.3877 9.984 31.9457 6.204V4.944H30.4337C30.4337 6.414 30.4337 6.414 32.6737 11.664H34.0877L33.5837 13.008C33.3177 13.68 33.2057 13.68 32.4077 13.68H31.3017V15.024H32.0297C33.1217 15.024 34.2137 14.982 34.8437 13.456L37.1677 7.198C37.4897 6.414 37.4897 6.414 37.4897 5.224V4.944H36.0197V6.204C34.6897 10.012 34.7037 10.012 34.7037 10.488H33.3877ZM45.4855 4.944H38.4295V6.176H41.2155V12H42.6995V6.176H45.4855V4.944ZM50.2905 12.168C50.7945 12.168 51.8865 12.168 53.2305 11.832V10.488H52.8945L51.5365 10.824H50.7945C48.3585 10.824 48.3585 10.824 48.3585 8.472C48.3585 6.12 48.3585 6.12 50.2905 6.12C51.8865 6.12 51.8865 6.12 52.2225 7.464L53.5665 7.128C53.5665 6.456 53.5665 4.776 50.6265 4.776H49.9545C46.8465 4.776 46.8465 6.624 46.8465 8.136V8.808C46.8465 10.32 46.8465 12.168 50.2905 12.168ZM62.6077 5.336V4.944H61.0117C60.0037 6.288 59.4157 7.072 59.4157 7.8H56.8957V4.944H55.4677V12H56.8957V9.144H59.4157C59.4157 9.872 60.0037 10.656 61.0117 12H62.6077V11.608L60.2417 8.472L62.6077 5.336ZM70.2468 12.168L71.3108 11.37C70.8068 10.698 70.8068 10.698 70.8068 9.312V8.136C70.8068 6.456 70.8068 4.776 67.5308 4.776C67.0268 4.776 65.9348 4.776 64.5908 5.112V6.456H64.9268L66.2708 6.12H67.5308C69.3788 6.12 69.3788 6.12 69.3788 7.884H67.5308C64.0028 7.884 64.0028 9.06 64.0028 10.152C64.0028 10.824 64.0028 12.168 66.5228 12.168C68.2588 12.168 69.1968 11.468 69.5328 11.216L70.2468 12.168ZM65.5988 9.984C65.5988 8.976 65.5988 8.976 67.5308 8.976H69.3788V10.32L67.3628 10.824H66.6068C65.5988 10.824 65.5988 10.824 65.5988 9.984ZM79.5157 12V4.944H76.4917C74.3917 4.944 72.7117 4.944 72.7117 7.212C72.7117 8.444 73.1317 8.766 74.3077 9.648L72.8377 11.608V12H74.4337C74.9377 11.356 75.4837 10.684 75.4837 9.648H78.0877V12H79.5157ZM75.9037 8.472C74.3217 8.472 74.3077 8.472 74.3077 7.296C74.3077 6.134 74.3077 6.12 75.9037 6.12H78.0877V8.472H75.9037ZM2.38 25.472C2.38 23.12 2.38 23.05 4.564 23.05C6.748 23.05 6.748 23.12 6.748 25.472C6.748 27.824 6.748 27.894 4.564 27.894C2.38 27.894 2.38 27.824 2.38 25.472ZM0.868 25.808C0.868 27.152 0.868 29.168 4.228 29.168H4.9C8.26 29.168 8.26 27.152 8.26 25.808V25.136C8.26 23.792 8.26 21.776 4.9 21.776H4.228C0.868 21.776 0.868 23.792 0.868 25.136V25.808ZM15.0408 20.768C15.7968 20.586 16.5388 20.39 16.8048 19.34L16.8888 19.004L15.5448 18.668C15.3768 19.172 15.3908 19.172 14.7048 19.34L13.0248 19.76C10.1688 20.474 10.1688 22.364 10.1688 24.548V25.094C10.1688 27.446 10.1688 29.168 13.6128 29.168H14.2848C17.6448 29.168 17.6448 27.488 17.6448 26.228V25.472C17.6448 24.212 17.6448 22.532 14.6208 22.532C12.6048 22.532 11.9328 22.994 11.6248 23.372L11.3728 23.288C11.7928 21.608 11.7928 21.58 13.3608 21.188L15.0408 20.768ZM13.9488 23.778C16.1328 23.778 16.1328 24.086 16.1328 25.85C16.1328 27.614 16.1328 27.922 13.8368 27.922C11.7648 27.922 11.7648 27.614 11.7648 25.85C11.7648 24.086 11.7648 23.778 13.9488 23.778ZM24.9397 23.19V29H26.3677V21.944H20.6697C20.6277 23.4 20.5437 24.604 20.2917 26.424C20.1237 27.642 19.9837 27.88 18.7797 27.88V29.028C21.0477 29.028 21.2857 28.762 21.5657 26.676C21.7757 25.136 21.8737 24.058 21.9017 23.19H24.9397ZM34.6042 29.168L35.6682 28.37C35.1642 27.698 35.1642 27.698 35.1642 26.312V25.136C35.1642 23.456 35.1642 21.776 31.8882 21.776C31.3842 21.776 30.2922 21.776 28.9482 22.112V23.456H29.2842L30.6282 23.12H31.8882C33.7362 23.12 33.7362 23.12 33.7362 24.884H31.8882C28.3602 24.884 28.3602 26.06 28.3602 27.152C28.3602 27.824 28.3602 29.168 30.8802 29.168C32.6162 29.168 33.5542 28.468 33.8902 28.216L34.6042 29.168ZM29.9562 26.984C29.9562 25.976 29.9562 25.976 31.8882 25.976H33.7362V27.32L31.7202 27.824H30.9642C29.9562 27.824 29.9562 27.824 29.9562 26.984ZM40.5972 29.168C41.1012 29.168 42.1932 29.168 43.5372 28.832V27.488H43.2012L41.8432 27.824H41.1012C38.6652 27.824 38.6652 27.824 38.6652 25.472C38.6652 23.12 38.6652 23.12 40.5972 23.12C42.1932 23.12 42.1932 23.12 42.5292 24.464L43.8732 24.128C43.8732 23.456 43.8732 21.776 40.9332 21.776H40.2612C37.1532 21.776 37.1532 23.624 37.1532 25.136V25.808C37.1532 27.32 37.1532 29.168 40.5972 29.168ZM52.1163 21.944H45.0603V23.176H47.8463V29H49.3303V23.176H52.1163V21.944ZM57.1734 29C58.8534 29 60.3654 29 60.3654 26.648C60.3654 25.808 60.3654 24.128 57.3414 24.128C56.6694 24.128 55.9134 24.212 55.2414 24.38V21.944H53.8134V29H57.1734ZM57.3414 25.472C58.8534 25.472 58.8534 25.472 58.8534 26.648C58.8534 27.824 58.8534 27.824 57.3414 27.824H55.2414V25.472H57.3414Z" fill="#363636"/>
<path d="M158.672 53.088V58.128L156.656 58.632H156.068C153.548 58.632 153.548 58.632 153.548 56.112V53.088H152.036V56.112C152.036 58.128 152.036 60.144 155.228 60.144C156.32 60.144 157.328 59.892 158.672 59.556V63H160.184V53.088H158.672ZM164.787 63C168.441 58.142 168.441 57.89 168.441 57.148H168.805V63H170.233V55.944H168.301C164.647 60.802 164.647 61.054 164.647 61.796H164.269V55.944H162.841V63H164.787ZM178.985 55.944H171.929V57.176H174.715V63H176.199V57.176H178.985V55.944ZM182.629 63C186.283 58.142 186.283 57.89 186.283 57.148H186.647V63H188.075V55.944H186.143C182.489 60.802 182.489 61.054 182.489 61.796H182.111V55.944H180.683V63H182.629ZM196.029 55.944V58.786H191.913V55.944H190.485V63H191.913V60.018H196.029V63H197.457V55.944H196.029ZM202.972 63.168C203.476 63.168 204.568 63.168 205.912 62.832V61.488H205.576L204.218 61.824H203.476C201.04 61.824 201.04 61.824 201.04 59.472C201.04 57.12 201.04 57.12 202.972 57.12C204.568 57.12 204.568 57.12 204.904 58.464L206.248 58.128C206.248 57.456 206.248 55.776 203.308 55.776H202.636C199.528 55.776 199.528 57.624 199.528 59.136V59.808C199.528 61.32 199.528 63.168 202.972 63.168ZM215.289 56.336V55.944H213.693C212.685 57.288 212.097 58.072 212.097 58.8H209.577V55.944H208.149V63H209.577V60.144H212.097C212.097 60.872 212.685 61.656 213.693 63H215.289V62.608L212.923 59.472L215.289 56.336ZM222.928 63.168L223.992 62.37C223.488 61.698 223.488 61.698 223.488 60.312V59.136C223.488 57.456 223.488 55.776 220.212 55.776C219.708 55.776 218.616 55.776 217.272 56.112V57.456H217.608L218.952 57.12H220.212C222.06 57.12 222.06 57.12 222.06 58.884H220.212C216.684 58.884 216.684 60.06 216.684 61.152C216.684 61.824 216.684 63.168 219.204 63.168C220.94 63.168 221.878 62.468 222.214 62.216L222.928 63.168ZM218.28 60.984C218.28 59.976 218.28 59.976 220.212 59.976H222.06V61.32L220.044 61.824H219.288C218.28 61.824 218.28 61.824 218.28 60.984ZM232.197 63V55.944H229.173C227.073 55.944 225.393 55.944 225.393 58.212C225.393 59.444 225.813 59.766 226.989 60.648L225.519 62.608V63H227.115C227.619 62.356 228.165 61.684 228.165 60.648H230.769V63H232.197ZM228.585 59.472C227.003 59.472 226.989 59.472 226.989 58.296C226.989 57.134 226.989 57.12 228.585 57.12H230.769V59.472H228.585ZM153.38 76.472C153.38 74.12 153.38 74.05 155.564 74.05C157.748 74.05 157.748 74.12 157.748 76.472C157.748 78.824 157.748 78.894 155.564 78.894C153.38 78.894 153.38 78.824 153.38 76.472ZM151.868 76.808C151.868 78.152 151.868 80.168 155.228 80.168H155.9C159.26 80.168 159.26 78.152 159.26 76.808V76.136C159.26 74.792 159.26 72.776 155.9 72.776H155.228C151.868 72.776 151.868 74.792 151.868 76.136V76.808ZM166.041 71.768C166.797 71.586 167.539 71.39 167.805 70.34L167.889 70.004L166.545 69.668C166.377 70.172 166.391 70.172 165.705 70.34L164.025 70.76C161.169 71.474 161.169 73.364 161.169 75.548V76.094C161.169 78.446 161.169 80.168 164.613 80.168H165.285C168.645 80.168 168.645 78.488 168.645 77.228V76.472C168.645 75.212 168.645 73.532 165.621 73.532C163.605 73.532 162.933 73.994 162.625 74.372L162.373 74.288C162.793 72.608 162.793 72.58 164.361 72.188L166.041 71.768ZM164.949 74.778C167.133 74.778 167.133 75.086 167.133 76.85C167.133 78.614 167.133 78.922 164.837 78.922C162.765 78.922 162.765 78.614 162.765 76.85C162.765 75.086 162.765 74.778 164.949 74.778ZM175.94 74.19V80H177.368V72.944H171.67C171.628 74.4 171.544 75.604 171.292 77.424C171.124 78.642 170.984 78.88 169.78 78.88V80.028C172.048 80.028 172.286 79.762 172.566 77.676C172.776 76.136 172.874 75.058 172.902 74.19H175.94ZM185.604 80.168L186.668 79.37C186.164 78.698 186.164 78.698 186.164 77.312V76.136C186.164 74.456 186.164 72.776 182.888 72.776C182.384 72.776 181.292 72.776 179.948 73.112V74.456H180.284L181.628 74.12H182.888C184.736 74.12 184.736 74.12 184.736 75.884H182.888C179.36 75.884 179.36 77.06 179.36 78.152C179.36 78.824 179.36 80.168 181.88 80.168C183.616 80.168 184.554 79.468 184.89 79.216L185.604 80.168ZM180.956 77.984C180.956 76.976 180.956 76.976 182.888 76.976H184.736V78.32L182.72 78.824H181.964C180.956 78.824 180.956 78.824 180.956 77.984ZM191.597 80.168C192.101 80.168 193.193 80.168 194.537 79.832V78.488H194.201L192.843 78.824H192.101C189.665 78.824 189.665 78.824 189.665 76.472C189.665 74.12 189.665 74.12 191.597 74.12C193.193 74.12 193.193 74.12 193.529 75.464L194.873 75.128C194.873 74.456 194.873 72.776 191.933 72.776H191.261C188.153 72.776 188.153 74.624 188.153 76.136V76.808C188.153 78.32 188.153 80.168 191.597 80.168ZM203.116 72.944H196.06V74.176H198.846V80H200.33V74.176H203.116V72.944ZM208.173 80C209.853 80 211.365 80 211.365 77.648C211.365 76.808 211.365 75.128 208.341 75.128C207.669 75.128 206.913 75.212 206.241 75.38V72.944H204.813V80H208.173ZM208.341 76.472C209.853 76.472 209.853 76.472 209.853 77.648C209.853 78.824 209.853 78.824 208.341 78.824H206.241V76.472H208.341Z" fill="#363636"/>
<path d="M158.516 87.4852V92.5252L156.5 93.0292H155.912C153.392 93.0292 153.392 93.0292 153.392 90.5092V87.4852H151.88V90.5092C151.88 92.5252 151.88 94.5412 155.072 94.5412C156.164 94.5412 157.172 94.2892 158.516 93.9532V97.3972H160.028V87.4852H158.516ZM164.63 97.3972C168.284 92.5392 168.284 92.2872 168.284 91.5452H168.648V97.3972H170.076V90.3412H168.144C164.49 95.1992 164.49 95.4512 164.49 96.1932H164.112V90.3412H162.684V97.3972H164.63ZM178.829 90.3412H171.773V91.5732H174.559V97.3972H176.043V91.5732H178.829V90.3412ZM186.35 97.5652L187.414 96.7672C186.91 96.0952 186.91 96.0952 186.91 94.7092V93.5332C186.91 91.8532 186.91 90.1732 183.634 90.1732C183.13 90.1732 182.038 90.1732 180.694 90.5092V91.8532H181.03L182.374 91.5172H183.634C185.482 91.5172 185.482 91.5172 185.482 93.2812H183.634C180.106 93.2812 180.106 94.4572 180.106 95.5492C180.106 96.2212 180.106 97.5652 182.626 97.5652C184.362 97.5652 185.3 96.8652 185.636 96.6132L186.35 97.5652ZM181.702 95.3812C181.702 94.3732 181.702 94.3732 183.634 94.3732H185.482V95.7172L183.466 96.2212H182.71C181.702 96.2212 181.702 96.2212 181.702 95.3812Z" fill="#363636"/>
<path d="M91.4332 109.456C91.4332 108.784 91.4332 108.784 89.2072 103.996H87.7232V104.5L90.6632 110.674H92.6512L92.1612 111.724C91.7692 112.564 91.5872 112.564 90.5792 112.564H89.3052V113.908H90.2432C92.0212 113.908 92.8052 113.908 93.6732 111.892L96.8512 104.5V103.996H95.4092C93.3932 108.784 93.3932 108.784 93.4212 109.456H91.4332ZM102.903 108.098V113.908H104.331V106.852H98.6333C98.5913 108.308 98.5073 109.512 98.2553 111.332C98.0873 112.55 97.9473 112.788 96.7433 112.788V113.936C99.0113 113.936 99.2493 113.67 99.5293 111.584C99.7393 110.044 99.8373 108.966 99.8653 108.098H102.903ZM112.568 114.076L113.632 113.278C113.128 112.606 113.128 112.606 113.128 111.22V110.044C113.128 108.364 113.128 106.684 109.852 106.684C109.348 106.684 108.256 106.684 106.912 107.02V108.364H107.248L108.592 108.028H109.852C111.7 108.028 111.7 108.028 111.7 109.792H109.852C106.324 109.792 106.324 110.968 106.324 112.06C106.324 112.732 106.324 114.076 108.844 114.076C110.58 114.076 111.518 113.376 111.854 113.124L112.568 114.076ZM107.92 111.892C107.92 110.884 107.92 110.884 109.852 110.884H111.7V112.228L109.684 112.732H108.928C107.92 112.732 107.92 112.732 107.92 111.892ZM120.997 106.852V109.694H116.881V106.852H115.453V113.908H116.881V110.926H120.997V113.908H122.425V106.852H120.997ZM123.908 109.288V110.548H128.108V109.288H123.908ZM132.244 109.456C132.244 108.784 132.244 108.784 130.018 103.996H128.534V104.5L131.474 110.674H133.462L132.972 111.724C132.58 112.564 132.398 112.564 131.39 112.564H130.116V113.908H131.054C132.832 113.908 133.616 113.908 134.484 111.892L137.662 104.5V103.996H136.22C134.204 108.784 134.204 108.784 134.232 109.456H132.244ZM138.902 113.908H145.048V115.924H146.42V112.732H145.244V106.852H139.504V107.692C139.504 109.358 139.322 111.136 138.496 112.732H137.53V115.924H138.902V113.908ZM140.876 108.084H143.816V112.732H140.036C140.708 111.122 140.876 109.414 140.876 108.084ZM154.079 110.044C154.079 108.532 154.079 106.684 150.803 106.684H150.551C150.047 106.684 149.039 106.684 147.695 107.02V108.364H148.031L149.375 108.028H150.635C152.567 108.028 152.567 108.028 152.567 109.792H149.375V110.968H152.567C152.567 112.732 152.567 112.732 150.635 112.732H149.375L148.031 112.396H147.695V113.74C149.039 114.076 150.047 114.076 150.551 114.076H150.803C154.079 114.076 154.079 112.228 154.079 110.716V110.044Z" fill="#363636"/>
<path d="M90.4314 166.055C90.4314 165.383 90.4314 165.383 88.2054 160.595H86.7214V161.099L89.6614 167.273H91.6494L91.1594 168.323C90.7674 169.163 90.5854 169.163 89.5774 169.163H88.3034V170.507H89.2414C91.0194 170.507 91.8034 170.507 92.6714 168.491L95.8494 161.099V160.595H94.4074C92.3914 165.383 92.3914 165.383 92.4194 166.055H90.4314ZM101.902 164.697V170.507H103.33V163.451H97.6316C97.5896 164.907 97.5056 166.111 97.2536 167.931C97.0856 169.149 96.9456 169.387 95.7416 169.387V170.535C98.0096 170.535 98.2476 170.269 98.5276 168.183C98.7376 166.643 98.8356 165.565 98.8636 164.697H101.902ZM111.566 170.675L112.63 169.877C112.126 169.205 112.126 169.205 112.126 167.819V166.643C112.126 164.963 112.126 163.283 108.85 163.283C108.346 163.283 107.254 163.283 105.91 163.619V164.963H106.246L107.59 164.627H108.85C110.698 164.627 110.698 164.627 110.698 166.391H108.85C105.322 166.391 105.322 167.567 105.322 168.659C105.322 169.331 105.322 170.675 107.842 170.675C109.578 170.675 110.516 169.975 110.852 169.723L111.566 170.675ZM106.918 168.491C106.918 167.483 106.918 167.483 108.85 167.483H110.698V168.827L108.682 169.331H107.926C106.918 169.331 106.918 169.331 106.918 168.491ZM119.995 163.451V166.293H115.879V163.451H114.451V170.507H115.879V167.525H119.995V170.507H121.423V163.451H119.995ZM122.906 165.887V167.147H127.106V165.887H122.906ZM130.352 164.515V161.939H136.232V160.595H128.84V170.507H132.368C135.476 170.507 137.072 170.437 137.072 167.511C137.072 164.585 135.476 164.515 132.368 164.515H130.352ZM130.352 165.859H133.376C135.448 165.859 135.476 165.859 135.476 167.511C135.476 169.135 135.476 169.163 133.376 169.163H130.352V165.859ZM144.802 170.675L145.866 169.877C145.362 169.205 145.362 169.205 145.362 167.819V166.643C145.362 164.963 145.362 163.283 142.086 163.283C141.582 163.283 140.49 163.283 139.146 163.619V164.963H139.482L140.826 164.627H142.086C143.934 164.627 143.934 164.627 143.934 166.391H142.086C138.558 166.391 138.558 167.567 138.558 168.659C138.558 169.331 138.558 170.675 141.078 170.675C142.814 170.675 143.752 169.975 144.088 169.723L144.802 170.675ZM140.154 168.491C140.154 167.483 140.154 167.483 142.086 167.483H143.934V168.827L141.918 169.331H141.162C140.154 169.331 140.154 169.331 140.154 168.491ZM154.029 163.451H146.973V164.683H149.759V170.507H151.243V164.683H154.029V163.451ZM156.902 166.979C156.902 164.627 156.902 164.557 159.086 164.557C161.27 164.557 161.27 164.627 161.27 166.979C161.27 169.331 161.27 169.401 159.086 169.401C156.902 169.401 156.902 169.331 156.902 166.979ZM155.39 167.315C155.39 168.659 155.39 170.675 158.75 170.675H159.422C162.782 170.675 162.782 168.659 162.782 167.315V166.643C162.782 165.299 162.782 163.283 159.422 163.283H158.75C155.39 163.283 155.39 165.299 155.39 166.643V167.315ZM164.859 163.451V173.363H166.287V170.339C166.959 170.507 167.631 170.675 168.891 170.675C172.083 170.675 172.083 168.491 172.083 167.315V166.643C172.083 165.299 172.083 163.283 169.059 163.283C167.379 163.283 166.455 163.983 166.119 164.235L165.531 163.451H164.859ZM170.571 166.979C170.571 169.317 170.571 169.331 168.303 169.331C167.799 169.331 166.959 169.331 166.287 169.163V165.131L168.303 164.627H168.541C170.571 164.627 170.571 164.711 170.571 166.979Z" fill="#363636"/>
<path d="M47.6272 91.0412V82.9772H46.1152V92.8892H47.9352L52.0932 86.8132C52.7932 85.7912 52.8492 85.3012 52.8492 84.8252H53.2832V92.8892H54.7952V82.9772H52.9752L48.6492 89.3472C48.0892 90.1732 48.0612 90.6072 48.0612 91.0412H47.6272ZM57.4569 85.8332V95.7452H58.8849V92.7212C59.5569 92.8892 60.2289 93.0572 61.4889 93.0572C64.6809 93.0572 64.6809 90.8732 64.6809 89.6972V89.0252C64.6809 87.6812 64.6809 85.6652 61.6569 85.6652C59.9769 85.6652 59.0529 86.3652 58.7169 86.6172L58.1289 85.8332H57.4569ZM63.1689 89.3612C63.1689 91.6992 63.1689 91.7132 60.9009 91.7132C60.3969 91.7132 59.5569 91.7132 58.8849 91.5452V87.5132L60.9009 87.0092H61.1389C63.1689 87.0092 63.1689 87.0932 63.1689 89.3612ZM73.8938 86.2252V85.8332H72.2978C71.2898 87.1772 70.7018 87.9612 70.7018 88.6892H68.1818V85.8332H66.7538V92.8892H68.1818V90.0332H70.7018C70.7018 90.7612 71.2898 91.5452 72.2978 92.8892H73.8938V92.4972L71.5278 89.3612L73.8938 86.2252ZM78.0469 91.3772C78.0469 90.8732 78.0469 90.8732 76.6049 87.0932V85.8332H75.0929C75.0929 87.3032 75.0929 87.3032 77.3329 92.5532H78.7469L78.2429 93.8972C77.9769 94.5692 77.8649 94.5692 77.0669 94.5692H75.9609V95.9132H76.6889C77.7809 95.9132 78.8729 95.8712 79.5029 94.3452L81.8269 88.0872C82.1489 87.3032 82.1489 87.3032 82.1489 86.1132V85.8332H80.6789V87.0932C79.3489 90.9012 79.3629 90.9012 79.3629 91.3772H78.0469ZM90.1446 85.8332H83.0886V87.0652H85.8746V92.8892H87.3586V87.0652H90.1446V85.8332ZM94.9497 93.0572C95.4537 93.0572 96.5457 93.0572 97.8897 92.7212V91.3772H97.5537L96.1957 91.7132H95.4537C93.0177 91.7132 93.0177 91.7132 93.0177 89.3612C93.0177 87.0092 93.0177 87.0092 94.9497 87.0092C96.5457 87.0092 96.5457 87.0092 96.8817 88.3532L98.2257 88.0172C98.2257 87.3452 98.2257 85.6652 95.2857 85.6652H94.6137C91.5057 85.6652 91.5057 87.5132 91.5057 89.0252V89.6972C91.5057 91.2092 91.5057 93.0572 94.9497 93.0572ZM107.267 86.2252V85.8332H105.671C104.663 87.1772 104.075 87.9612 104.075 88.6892H101.555V85.8332H100.127V92.8892H101.555V90.0332H104.075C104.075 90.7612 104.663 91.5452 105.671 92.8892H107.267V92.4972L104.901 89.3612L107.267 86.2252Z" fill="#363636"/>
<path d="M120.968 20.432H123.908C126.064 20.432 126.092 20.432 126.092 22.532C126.092 24.604 126.092 24.632 123.908 24.632H120.968V20.432ZM119.456 29H120.968V25.976H122.9C126.092 25.976 127.688 25.976 127.688 22.532C127.688 19.088 126.092 19.088 122.9 19.088H119.456V29ZM132.621 27.824C130.689 27.824 130.689 27.824 130.689 26.06H132.621C134.637 26.06 134.973 26.06 135.729 25.892L136.065 25.808V25.136C136.065 23.792 136.065 21.776 132.957 21.776H132.285C129.177 21.776 129.177 23.792 129.177 25.136V25.808C129.177 27.32 129.177 29.168 132.621 29.168C133.209 29.168 134.217 29.168 135.561 28.832V27.488H135.225L133.881 27.824H132.621ZM130.689 24.968C130.689 23.12 130.689 23.12 132.621 23.12C134.553 23.12 134.553 23.12 134.553 24.968H130.689ZM141.248 29.168C141.752 29.168 142.844 29.168 144.188 28.832V27.488H143.852L142.494 27.824H141.752C139.316 27.824 139.316 27.824 139.316 25.472C139.316 23.12 139.316 23.12 141.248 23.12C142.844 23.12 142.844 23.12 143.18 24.464L144.524 24.128C144.524 23.456 144.524 21.776 141.584 21.776H140.912C137.804 21.776 137.804 23.624 137.804 25.136V25.808C137.804 27.32 137.804 29.168 141.248 29.168ZM151.969 21.944H146.425V29H147.853V23.176H151.969V29H153.397V21.944H151.969ZM158.142 27.488C158.142 26.984 158.142 26.984 156.7 23.204V21.944H155.188C155.188 23.414 155.188 23.414 157.428 28.664H158.842L158.338 30.008C158.072 30.68 157.96 30.68 157.162 30.68H156.056V32.024H156.784C157.876 32.024 158.968 31.982 159.598 30.456L161.922 24.198C162.244 23.414 162.244 23.414 162.244 22.224V21.944H160.774V23.204C159.444 27.012 159.458 27.012 159.458 27.488H158.142ZM168.601 20.768C169.357 20.586 170.099 20.39 170.365 19.34L170.449 19.004L169.105 18.668C168.937 19.172 168.951 19.172 168.265 19.34L166.585 19.76C163.729 20.474 163.729 22.364 163.729 24.548V25.094C163.729 27.446 163.729 29.168 167.173 29.168H167.845C171.205 29.168 171.205 27.488 171.205 26.228V25.472C171.205 24.212 171.205 22.532 168.181 22.532C166.165 22.532 165.493 22.994 165.185 23.372L164.933 23.288C165.353 21.608 165.353 21.58 166.921 21.188L168.601 20.768ZM167.509 23.778C169.693 23.778 169.693 24.086 169.693 25.85C169.693 27.614 169.693 27.922 167.397 27.922C165.325 27.922 165.325 27.614 165.325 25.85C165.325 24.086 165.325 23.778 167.509 23.778ZM178.5 23.19V29H179.928V21.944H174.23C174.188 23.4 174.104 24.604 173.852 26.424C173.684 27.642 173.544 27.88 172.34 27.88V29.028C174.608 29.028 174.846 28.762 175.126 26.676C175.336 25.136 175.434 24.058 175.462 23.19H178.5ZM184.287 29C187.941 24.142 187.941 23.89 187.941 23.148H188.305V29H189.733V21.944H187.801C184.147 26.802 184.147 27.054 184.147 27.796H183.769V21.944H182.341V29H184.287ZM199.283 22.336V21.944H197.687C196.679 23.288 196.091 24.072 196.091 24.8H193.571V21.944H192.143V29H193.571V26.144H196.091C196.091 26.872 196.679 27.656 197.687 29H199.283V28.608L196.917 25.472L199.283 22.336ZM206.923 29.168L207.987 28.37C207.483 27.698 207.483 27.698 207.483 26.312V25.136C207.483 23.456 207.483 21.776 204.207 21.776C203.703 21.776 202.611 21.776 201.267 22.112V23.456H201.603L202.947 23.12H204.207C206.055 23.12 206.055 23.12 206.055 24.884H204.207C200.679 24.884 200.679 26.06 200.679 27.152C200.679 27.824 200.679 29.168 203.199 29.168C204.935 29.168 205.873 28.468 206.209 28.216L206.923 29.168ZM202.275 26.984C202.275 25.976 202.275 25.976 204.207 25.976H206.055V27.32L204.039 27.824H203.283C202.275 27.824 202.275 27.824 202.275 26.984ZM120.968 40.008V37.432H126.848V36.088H119.456V46H122.984C126.092 46 127.688 45.93 127.688 43.004C127.688 40.078 126.092 40.008 122.984 40.008H120.968ZM120.968 41.352H123.992C126.064 41.352 126.092 41.352 126.092 43.004C126.092 44.628 126.092 44.656 123.992 44.656H120.968V41.352ZM131.933 44.488C131.933 43.984 131.933 43.984 130.491 40.204V38.944H128.979C128.979 40.414 128.979 40.414 131.219 45.664H132.633L132.129 47.008C131.863 47.68 131.751 47.68 130.953 47.68H129.847V49.024H130.575C131.667 49.024 132.759 48.982 133.389 47.456L135.713 41.198C136.035 40.414 136.035 40.414 136.035 39.224V38.944H134.565V40.204C133.235 44.012 133.249 44.012 133.249 44.488H131.933ZM137.688 38.944V48.856H139.116V45.832C139.788 46 140.46 46.168 141.72 46.168C144.912 46.168 144.912 43.984 144.912 42.808V42.136C144.912 40.792 144.912 38.776 141.888 38.776C140.208 38.776 139.284 39.476 138.948 39.728L138.36 38.944H137.688ZM143.4 42.472C143.4 44.81 143.4 44.824 141.132 44.824C140.628 44.824 139.788 44.824 139.116 44.656V40.624L141.132 40.12H141.37C143.4 40.12 143.4 40.204 143.4 42.472ZM153.369 46V38.944H150.345C148.245 38.944 146.565 38.944 146.565 41.212C146.565 42.444 146.985 42.766 148.161 43.648L146.691 45.608V46H148.287C148.791 45.356 149.337 44.684 149.337 43.648H151.941V46H153.369ZM149.757 42.472C148.175 42.472 148.161 42.472 148.161 41.296C148.161 40.134 148.161 40.12 149.757 40.12H151.941V42.472H149.757ZM162.118 38.944H155.062V40.176H157.848V46H159.332V40.176H162.118V38.944ZM165.761 46C169.415 41.142 169.415 40.89 169.415 40.148H169.779V46H171.207V38.944H169.275C165.621 43.802 165.621 44.054 165.621 44.796H165.243V38.944H163.815V46H165.761ZM180.002 46V38.944H176.978C174.878 38.944 173.198 38.944 173.198 41.212C173.198 42.444 173.618 42.766 174.794 43.648L173.324 45.608V46H174.92C175.424 45.356 175.97 44.684 175.97 43.648H178.574V46H180.002ZM176.39 42.472C174.808 42.472 174.794 42.472 174.794 41.296C174.794 40.134 174.794 40.12 176.39 40.12H178.574V42.472H176.39Z" fill="#363636"/>
<path d="M53.1369 181.473H56.0769C58.2329 181.473 58.2609 181.473 58.2609 183.573C58.2609 185.645 58.2609 185.673 56.0769 185.673H53.1369V181.473ZM51.6249 190.041H53.1369V187.017H55.0689C58.2609 187.017 59.8569 187.017 59.8569 183.573C59.8569 180.129 58.2609 180.129 55.0689 180.129H51.6249V190.041ZM64.7895 188.865C62.8575 188.865 62.8575 188.865 62.8575 187.101H64.7895C66.8055 187.101 67.1415 187.101 67.8975 186.933L68.2335 186.849V186.177C68.2335 184.833 68.2335 182.817 65.1255 182.817H64.4535C61.3455 182.817 61.3455 184.833 61.3455 186.177V186.849C61.3455 188.361 61.3455 190.209 64.7895 190.209C65.3775 190.209 66.3855 190.209 67.7295 189.873V188.529H67.3935L66.0495 188.865H64.7895ZM62.8575 186.009C62.8575 184.161 62.8575 184.161 64.7895 184.161C66.7215 184.161 66.7215 184.161 66.7215 186.009H62.8575ZM73.4165 190.209C73.9205 190.209 75.0125 190.209 76.3565 189.873V188.529H76.0205L74.6625 188.865H73.9205C71.4845 188.865 71.4845 188.865 71.4845 186.513C71.4845 184.161 71.4845 184.161 73.4165 184.161C75.0125 184.161 75.0125 184.161 75.3485 185.505L76.6925 185.169C76.6925 184.497 76.6925 182.817 73.7525 182.817H73.0805C69.9725 182.817 69.9725 184.665 69.9725 186.177V186.849C69.9725 188.361 69.9725 190.209 73.4165 190.209ZM84.1376 182.985H78.5936V190.041H80.0216V184.217H84.1376V190.041H85.5656V182.985H84.1376ZM90.3106 188.529C90.3106 188.025 90.3106 188.025 88.8686 184.245V182.985H87.3566C87.3566 184.455 87.3566 184.455 89.5966 189.705H91.0106L90.5066 191.049C90.2406 191.721 90.1286 191.721 89.3306 191.721H88.2246V193.065H88.9526C90.0446 193.065 91.1366 193.023 91.7666 191.497L94.0906 185.239C94.4126 184.455 94.4126 184.455 94.4126 183.265V182.985H92.9426V184.245C91.6126 188.053 91.6266 188.053 91.6266 188.529H90.3106ZM100.77 181.809C101.526 181.627 102.268 181.431 102.534 180.381L102.618 180.045L101.274 179.709C101.106 180.213 101.12 180.213 100.434 180.381L98.7543 180.801C95.8983 181.515 95.8983 183.405 95.8983 185.589V186.135C95.8983 188.487 95.8983 190.209 99.3423 190.209H100.014C103.374 190.209 103.374 188.529 103.374 187.269V186.513C103.374 185.253 103.374 183.573 100.35 183.573C98.3343 183.573 97.6623 184.035 97.3543 184.413L97.1023 184.329C97.5223 182.649 97.5223 182.621 99.0903 182.229L100.77 181.809ZM99.6783 184.819C101.862 184.819 101.862 185.127 101.862 186.891C101.862 188.655 101.862 188.963 99.5663 188.963C97.4943 188.963 97.4943 188.655 97.4943 186.891C97.4943 185.127 97.4943 184.819 99.6783 184.819ZM110.669 184.231V190.041H112.097V182.985H106.399C106.357 184.441 106.273 185.645 106.021 187.465C105.853 188.683 105.713 188.921 104.509 188.921V190.069C106.777 190.069 107.015 189.803 107.295 187.717C107.505 186.177 107.603 185.099 107.631 184.231H110.669ZM116.456 190.041C120.11 185.183 120.11 184.931 120.11 184.189H120.474V190.041H121.902V182.985H119.97C116.316 187.843 116.316 188.095 116.316 188.837H115.938V182.985H114.51V190.041H116.456ZM131.452 183.377V182.985H129.856C128.848 184.329 128.26 185.113 128.26 185.841H125.74V182.985H124.312V190.041H125.74V187.185H128.26C128.26 187.913 128.848 188.697 129.856 190.041H131.452V189.649L129.086 186.513L131.452 183.377ZM139.091 190.209L140.155 189.411C139.651 188.739 139.651 188.739 139.651 187.353V186.177C139.651 184.497 139.651 182.817 136.375 182.817C135.871 182.817 134.779 182.817 133.435 183.153V184.497H133.771L135.115 184.161H136.375C138.223 184.161 138.223 184.161 138.223 185.925H136.375C132.847 185.925 132.847 187.101 132.847 188.193C132.847 188.865 132.847 190.209 135.367 190.209C137.103 190.209 138.041 189.509 138.377 189.257L139.091 190.209ZM134.443 188.025C134.443 187.017 134.443 187.017 136.375 187.017H138.223V188.361L136.207 188.865H135.451C134.443 188.865 134.443 188.865 134.443 188.025ZM146.289 180.129V190.041H147.801V181.473H148.249C148.249 182.201 148.249 182.201 151.189 190.041H153.065C156.005 182.201 156.005 182.201 156.005 181.473H156.453V190.041H157.965V180.129H155.207C152.309 187.857 152.309 187.857 152.309 188.697H151.945C151.945 187.857 151.945 187.857 149.047 180.129H146.289ZM161.801 186.513C161.801 184.161 161.801 184.091 163.985 184.091C166.169 184.091 166.169 184.161 166.169 186.513C166.169 188.865 166.169 188.935 163.985 188.935C161.801 188.935 161.801 188.865 161.801 186.513ZM160.289 186.849C160.289 188.193 160.289 190.209 163.649 190.209H164.321C167.681 190.209 167.681 188.193 167.681 186.849V186.177C167.681 184.833 167.681 182.817 164.321 182.817H163.649C160.289 182.817 160.289 184.833 160.289 186.177V186.849ZM175.302 182.985V185.827H171.186V182.985H169.758V190.041H171.186V187.059H175.302V190.041H176.73V182.985H175.302ZM184.821 182.985H179.137V190.041H180.565V184.217H184.821V182.985ZM187.545 186.513C187.545 184.161 187.545 184.091 189.729 184.091C191.913 184.091 191.913 184.161 191.913 186.513C191.913 188.865 191.913 188.935 189.729 188.935C187.545 188.935 187.545 188.865 187.545 186.513ZM186.033 186.849C186.033 188.193 186.033 190.209 189.393 190.209H190.065C193.425 190.209 193.425 188.193 193.425 186.849V186.177C193.425 184.833 193.425 182.817 190.065 182.817H189.393C186.033 182.817 186.033 184.833 186.033 186.177V186.849ZM200.808 184.231V190.041H202.236V182.985H196.538C196.496 184.441 196.412 185.645 196.16 187.465C195.992 188.683 195.852 188.921 194.648 188.921V190.069C196.916 190.069 197.154 189.803 197.434 187.717C197.644 186.177 197.742 185.099 197.77 184.231H200.808ZM206.594 190.041C210.248 185.183 210.248 184.931 210.248 184.189H210.612V190.041H212.04V182.985H210.108C206.454 187.843 206.454 188.095 206.454 188.837H206.076V182.985H204.648V190.041H206.594ZM220.835 190.041V182.985H217.811C215.711 182.985 214.031 182.985 214.031 185.253C214.031 186.485 214.451 186.807 215.627 187.689L214.157 189.649V190.041H215.753C216.257 189.397 216.803 188.725 216.803 187.689H219.407V190.041H220.835ZM217.223 186.513C215.641 186.513 215.627 186.513 215.627 185.337C215.627 184.175 215.627 184.161 217.223 184.161H219.407V186.513H217.223Z" fill="#363636"/>
<path d="M65.5714 64.8187C65.5714 62.4667 65.5714 62.3967 67.7554 62.3967C69.9394 62.3967 69.9394 62.4667 69.9394 64.8187C69.9394 67.1707 69.9394 67.2407 67.7554 67.2407C65.5714 67.2407 65.5714 67.1707 65.5714 64.8187ZM64.0594 65.1547C64.0594 66.4987 64.0594 68.5147 67.4194 68.5147H68.0914C71.4514 68.5147 71.4514 66.4987 71.4514 65.1547V64.4827C71.4514 63.1387 71.4514 61.1227 68.0914 61.1227H67.4194C64.0594 61.1227 64.0594 63.1387 64.0594 64.4827V65.1547ZM74.7882 67.1707L73.4442 66.8347H73.1082V68.1787C74.4522 68.5147 75.5302 68.5147 76.0342 68.5147C79.2122 68.5147 79.3662 67.1707 79.3662 66.4987C79.3662 66.1627 79.3662 65.2387 78.0222 64.9027V64.7347C79.3662 64.3987 79.3662 63.4747 79.3662 63.1387C79.3662 62.4667 79.2262 61.1227 76.0342 61.1227C75.5302 61.1227 74.4522 61.1227 73.1082 61.4587V62.8027H73.4442L74.7882 62.4667H76.5102C77.7702 62.4667 77.7702 62.4667 77.7702 63.3627C77.7702 64.2307 77.7702 64.2307 76.5102 64.2307H74.7882V65.4067H76.5102C77.7702 65.4067 77.7702 65.4067 77.7702 66.2747C77.7702 67.1707 77.7702 67.1707 76.5102 67.1707H74.7882ZM82.1729 66.3307C81.3329 66.3307 81.3329 66.8347 81.3329 67.1707V67.5067C81.3329 67.8427 81.3329 68.3467 82.1729 68.3467H82.8449C83.6849 68.3467 83.6849 67.8427 83.6849 67.5067V67.1707C83.6849 66.8347 83.6849 66.3307 82.8449 66.3307H82.1729ZM91.9993 62.3547V59.7787H97.8793V58.4347H90.4873V68.3467H94.0153C97.1233 68.3467 98.7193 68.2767 98.7193 65.3507C98.7193 62.4247 97.1233 62.3547 94.0153 62.3547H91.9993ZM91.9993 63.6987H95.0233C97.0953 63.6987 97.1233 63.6987 97.1233 65.3507C97.1233 66.9747 97.1233 67.0027 95.0233 67.0027H91.9993V63.6987ZM106.45 68.5147L107.514 67.7167C107.01 67.0447 107.01 67.0447 107.01 65.6587V64.4827C107.01 62.8027 107.01 61.1227 103.734 61.1227C103.23 61.1227 102.138 61.1227 100.794 61.4587V62.8027H101.13L102.474 62.4667H103.734C105.582 62.4667 105.582 62.4667 105.582 64.2307H103.734C100.206 64.2307 100.206 65.4067 100.206 66.4987C100.206 67.1707 100.206 68.5147 102.726 68.5147C104.462 68.5147 105.4 67.8147 105.736 67.5627L106.45 68.5147ZM101.802 66.3307C101.802 65.3227 101.802 65.3227 103.734 65.3227H105.582V66.6667L103.566 67.1707H102.81C101.802 67.1707 101.802 67.1707 101.802 66.3307ZM113.493 60.2267C114.445 60.2267 115.117 60.2267 115.999 59.1907L114.991 58.4347C114.543 59.0507 114.529 59.0507 113.759 59.0507H112.443C111.687 59.0507 111.673 59.0507 111.211 58.4347L110.203 59.1907C111.085 60.2267 111.757 60.2267 112.709 60.2267H113.493ZM111.281 68.3467C114.935 63.4887 114.935 63.2367 114.935 62.4947H115.299V68.3467H116.727V61.2907H114.795C111.141 66.1487 111.141 66.4007 111.141 67.1427H110.763V61.2907H109.335V68.3467H111.281ZM126.278 61.6827V61.2907H124.682C123.674 62.6347 123.086 63.4187 123.086 64.1467H120.566V61.2907H119.138V68.3467H120.566V65.4907H123.086C123.086 66.2187 123.674 67.0027 124.682 68.3467H126.278V67.9547L123.912 64.8187L126.278 61.6827ZM133.917 68.5147L134.981 67.7167C134.477 67.0447 134.477 67.0447 134.477 65.6587V64.4827C134.477 62.8027 134.477 61.1227 131.201 61.1227C130.697 61.1227 129.605 61.1227 128.261 61.4587V62.8027H128.597L129.941 62.4667H131.201C133.049 62.4667 133.049 62.4667 133.049 64.2307H131.201C127.673 64.2307 127.673 65.4067 127.673 66.4987C127.673 67.1707 127.673 68.5147 130.193 68.5147C131.929 68.5147 132.867 67.8147 133.203 67.5627L133.917 68.5147ZM129.269 66.3307C129.269 65.3227 129.269 65.3227 131.201 65.3227H133.049V66.6667L131.033 67.1707H130.277C129.269 67.1707 129.269 67.1707 129.269 66.3307ZM142.108 62.5367V68.3467H143.536V61.2907H137.838C137.796 62.7467 137.712 63.9507 137.46 65.7707C137.292 66.9887 137.152 67.2267 135.948 67.2267V68.3747C138.216 68.3747 138.454 68.1087 138.734 66.0227C138.944 64.4827 139.042 63.4047 139.07 62.5367H142.108Z" fill="#4560EA"/>
</svg>
