<svg width="16" height="16" viewBox="0 0 16 16" fill="none" xmlns="http://www.w3.org/2000/svg">
<circle cx="8" cy="8" r="8" fill="url(#paint0_linear)"/>
<path fill-rule="evenodd" clip-rule="evenodd" d="M4.76908 12.5203L4 12.5146V13H8.57979C10.5603 13 12.0001 12.0228 12.0001 10.0634C12.0001 8.70616 10.5902 7.83569 9.40227 7.85707V7.71364C10.7788 7.53854 11.475 6.55752 11.475 5.22025C11.475 3.8745 10.2154 3.00101 8.53845 3.00101L4 3V3.5007L4.76887 3.49283L4.76908 12.5203ZM7.6086 12.5182L7.60049 8.00446L8.1261 7.99316C8.55863 7.99316 9.15735 8.30766 9.15735 9.19366V11.2876C9.15735 12.5204 8.44115 12.5188 8.15943 12.5182L8.14168 12.5182H7.6086ZM7.60843 3.4961V7.5055V7.5057H8.12592C8.50008 7.5057 8.90269 7.25757 8.90269 6.25779V4.67098C8.90269 3.48482 8.46111 3.49149 8.18657 3.49563C8.17097 3.49587 8.15591 3.4961 8.14151 3.4961H7.60843Z" fill="#273339"/>
<defs>
<linearGradient id="paint0_linear" x1="8" y1="0" x2="8" y2="16" gradientUnits="userSpaceOnUse">
<stop offset="0.161458" stop-color="#FFF6EB"/>
<stop offset="0.786458" stop-color="#FFE3C3"/>
</linearGradient>
</defs>
</svg>
