<svg width="32" height="32" viewBox="0 0 32 32" fill="none" xmlns="http://www.w3.org/2000/svg">
<g clip-path="url(#clip0)">
<rect width="32" height="32" fill="white"/>
<path d="M32 0H0V32H32V0Z" fill="#E21A1A"/>
<path d="M20.7902 11.9053V12.2766H23.9867C24.1995 12.2766 24.5209 12.2766 24.7292 12.4894C24.942 12.7022 24.942 13.0191 24.942 13.2364V16.4284C24.942 16.6412 24.942 16.9626 24.7292 17.1709C24.5164 17.3837 24.1949 17.3837 23.9867 17.3837H22.4428C22.1756 17.3837 21.8315 17.3837 21.6957 17.0894C21.5644 16.7996 21.75 16.5325 21.9085 16.3197L23.9867 13.5534H20.7902L19.5134 15.2557C19.3006 15.541 19.115 15.79 19.115 16.1069C19.115 16.4284 19.287 16.6593 19.5134 16.9581L19.8349 17.3837C20.1518 17.8093 20.4733 18.2349 20.8989 18.4477C21.3244 18.6605 21.8315 18.6605 22.5243 18.6605H23.9097C24.7065 18.6605 25.9064 18.6605 26.7032 17.8636C27.5001 17.0622 27.5001 15.8941 27.5001 15.4685V14.1918C27.5001 13.7662 27.5001 12.5935 26.7032 11.7967C25.9064 10.9998 24.7065 10.9998 23.9097 10.9998H21.7002C21.4874 10.9998 21.2203 10.9998 21.0075 11.2126C20.7902 11.4254 20.7902 11.6925 20.7902 11.9053Z" fill="white"/>
<path d="M16.9599 13.5578H20.1518L16.3215 18.6649H13.125L16.9599 13.5578Z" fill="white"/>
<path d="M4.5 14.459C4.5 14.2462 4.5 13.9791 4.7128 13.7663C4.92559 13.5535 5.19272 13.5535 5.40552 13.5535H10.7571C11.4498 13.5535 11.9569 13.5535 12.3825 13.7663C12.8081 13.9791 13.1296 14.4047 13.451 14.8302L13.7679 15.2558C13.9943 15.5592 14.1664 15.7901 14.1664 16.107C14.1664 16.4285 13.9807 16.673 13.7679 16.9582L12.4912 18.6606H9.2947L11.3729 15.8897C11.5313 15.6769 11.7215 15.4098 11.5857 15.1155C11.4498 14.8212 11.1057 14.8212 10.8386 14.8212H8.33939V21.2096H5.78583V14.8302H4.50906V14.459" fill="white"/>
</g>
<defs>
<clipPath id="clip0">
<rect width="32" height="32" fill="white"/>
</clipPath>
</defs>
</svg>
