<svg width="356" height="514" viewBox="0 0 356 514" fill="none" xmlns="http://www.w3.org/2000/svg">
<rect x="-71.0001" y="395" width="380" height="4" fill="#CBCDD5"/>
<rect x="-2" width="64" height="514" fill="url(#paint0_linear)"/>
<path d="M27.556 306.539L25.54 306.035H25.036V307.379C27.164 307.911 27.724 307.911 28.564 307.911C32.932 307.911 32.932 305.755 32.932 303.095V302.087C32.932 299.707 32.932 297.551 28.564 297.551C27.724 297.551 27.164 297.551 25.036 298.083V299.427H25.54L27.556 298.923H28.144C31.21 298.923 31.252 299.035 31.252 301.919H26.716V303.263H31.252C31.252 306.427 31.21 306.539 28.144 306.539H27.556ZM40.3948 301.877V307.687H41.8228V300.631H36.1248C36.0828 302.087 35.9988 303.291 35.7468 305.111C35.5788 306.329 35.4388 306.567 34.2348 306.567V307.715C36.5028 307.715 36.7408 307.449 37.0208 305.363C37.2308 303.823 37.3288 302.745 37.3568 301.877H40.3948ZM47.3433 306.511C45.4113 306.511 45.4113 306.511 45.4113 304.747H47.3433C49.3593 304.747 49.6953 304.747 50.4513 304.579L50.7873 304.495V303.823C50.7873 302.479 50.7873 300.463 47.6793 300.463H47.0073C43.8993 300.463 43.8993 302.479 43.8993 303.823V304.495C43.8993 306.007 43.8993 307.855 47.3433 307.855C47.9313 307.855 48.9393 307.855 50.2833 307.519V306.175H49.9473L48.6033 306.511H47.3433ZM45.4113 303.655C45.4113 301.807 45.4113 301.807 47.3433 301.807C49.2753 301.807 49.2753 301.807 49.2753 303.655H45.4113ZM60.0022 301.023V300.631H58.4062C57.3982 301.975 56.8102 302.759 56.8102 303.487H54.2902V300.631H52.8622V307.687H54.2902V304.831H56.8102C56.8102 305.559 57.3982 306.343 58.4062 307.687H60.0022V307.295L57.6362 304.159L60.0022 301.023ZM68.1593 300.631H61.1033V301.863H63.8893V307.687H65.3733V301.863H68.1593V300.631ZM69.8563 300.631V310.543H71.2843V307.519C71.9563 307.687 72.6283 307.855 73.8883 307.855C77.0803 307.855 77.0803 305.671 77.0803 304.495V303.823C77.0803 302.479 77.0803 300.463 74.0563 300.463C72.3763 300.463 71.4523 301.163 71.1163 301.415L70.5283 300.631H69.8563ZM75.5683 304.159C75.5683 306.497 75.5683 306.511 73.3003 306.511C72.7963 306.511 71.9563 306.511 71.2843 306.343V302.311L73.3003 301.807H73.5383C75.5683 301.807 75.5683 301.891 75.5683 304.159ZM81.0992 307.687C84.7532 302.829 84.7532 302.577 84.7532 301.835H85.1172V307.687H86.5452V300.631H84.6132C80.9592 305.489 80.9592 305.741 80.9592 306.483H80.5812V300.631H79.1532V307.687H81.0992ZM93.632 310.543H95.06V307.365C95.9 307.855 96.908 307.855 97.132 307.855C100.072 307.855 100.072 305.671 100.072 304.495V303.823C100.072 302.647 100.072 300.463 97.132 300.463C96.908 300.463 95.9 300.463 95.06 300.953V297.775H93.632V300.953C92.778 300.463 91.784 300.463 91.56 300.463C88.62 300.463 88.62 302.647 88.62 303.823V304.495C88.62 305.671 88.62 307.855 91.56 307.855C91.784 307.855 92.778 307.855 93.632 307.365V310.543ZM98.56 304.159C98.56 306.511 98.56 306.511 96.348 306.511L95.06 306.301V302.017L96.348 301.807C98.56 301.807 98.56 301.807 98.56 304.159ZM90.132 304.159C90.132 301.807 90.132 301.807 92.344 301.807L93.632 302.017V306.301L92.344 306.511C90.132 306.511 90.132 306.511 90.132 304.159ZM104.095 307.687C107.749 302.829 107.749 302.577 107.749 301.835H108.113V307.687H109.541V300.631H107.609C103.955 305.489 103.955 305.741 103.955 306.483H103.577V300.631H102.149V307.687H104.095ZM119.092 301.023V300.631H117.496C116.488 301.975 115.9 302.759 115.9 303.487H113.38V300.631H111.952V307.687H113.38V304.831H115.9C115.9 305.559 116.488 306.343 117.496 307.687H119.092V307.295L116.726 304.159L119.092 301.023ZM126.731 307.855L127.795 307.057C127.291 306.385 127.291 306.385 127.291 304.999V303.823C127.291 302.143 127.291 300.463 124.015 300.463C123.511 300.463 122.419 300.463 121.075 300.799V302.143H121.411L122.755 301.807H124.015C125.863 301.807 125.863 301.807 125.863 303.571H124.015C120.487 303.571 120.487 304.747 120.487 305.839C120.487 306.511 120.487 307.855 123.007 307.855C124.743 307.855 125.681 307.155 126.017 306.903L126.731 307.855ZM122.083 305.671C122.083 304.663 122.083 304.663 124.015 304.663H125.863V306.007L123.847 306.511H123.091C122.083 306.511 122.083 306.511 122.083 305.671ZM137.764 309.703V306.511H136.588V300.631H135.16V306.511H131.044V300.631H129.616V307.687H136.392V309.703H137.764ZM141.406 307.687C145.06 302.829 145.06 302.577 145.06 301.835H145.424V307.687H146.852V300.631H144.92C141.266 305.489 141.266 305.741 141.266 306.483H140.888V300.631H139.46V307.687H141.406ZM155.647 307.687V300.631H152.623C150.523 300.631 148.843 300.631 148.843 302.899C148.843 304.131 149.263 304.453 150.439 305.335L148.969 307.295V307.687H150.565C151.069 307.043 151.615 306.371 151.615 305.335H154.219V307.687H155.647ZM152.035 304.159C150.453 304.159 150.439 304.159 150.439 302.983C150.439 301.821 150.439 301.807 152.035 301.807H154.219V304.159H152.035ZM27.15 324.687C30.804 319.829 30.804 319.577 30.804 318.835H31.168V324.687H32.596V317.631H30.664C27.01 322.489 27.01 322.741 27.01 323.483H26.632V317.631H25.204V324.687H27.15ZM40.5507 317.631V320.473H36.4347V317.631H35.0067V324.687H36.4347V321.705H40.5507V324.687H41.9787V317.631H40.5507ZM49.0616 327.543H50.4896V324.365C51.3296 324.855 52.3376 324.855 52.5616 324.855C55.5016 324.855 55.5016 322.671 55.5016 321.495V320.823C55.5016 319.647 55.5016 317.463 52.5616 317.463C52.3376 317.463 51.3296 317.463 50.4896 317.953V314.775H49.0616V317.953C48.2076 317.463 47.2136 317.463 46.9896 317.463C44.0496 317.463 44.0496 319.647 44.0496 320.823V321.495C44.0496 322.671 44.0496 324.855 46.9896 324.855C47.2136 324.855 48.2076 324.855 49.0616 324.365V327.543ZM53.9896 321.159C53.9896 323.511 53.9896 323.511 51.7776 323.511L50.4896 323.301V319.017L51.7776 318.807C53.9896 318.807 53.9896 318.807 53.9896 321.159ZM45.5616 321.159C45.5616 318.807 45.5616 318.807 47.7736 318.807L49.0616 319.017V323.301L47.7736 323.511C45.5616 323.511 45.5616 323.511 45.5616 321.159ZM57.579 317.631V327.543H59.007V324.519C59.679 324.687 60.351 324.855 61.611 324.855C64.803 324.855 64.803 322.671 64.803 321.495V320.823C64.803 319.479 64.803 317.463 61.779 317.463C60.099 317.463 59.175 318.163 58.839 318.415L58.251 317.631H57.579ZM63.291 321.159C63.291 323.497 63.291 323.511 61.023 323.511C60.519 323.511 59.679 323.511 59.007 323.343V319.311L61.023 318.807H61.261C63.291 318.807 63.291 318.891 63.291 321.159ZM72.6999 324.855L73.7639 324.057C73.2599 323.385 73.2599 323.385 73.2599 321.999V320.823C73.2599 319.143 73.2599 317.463 69.9839 317.463C69.4799 317.463 68.3879 317.463 67.0439 317.799V319.143H67.3799L68.7239 318.807H69.9839C71.8319 318.807 71.8319 318.807 71.8319 320.571H69.9839C66.4559 320.571 66.4559 321.747 66.4559 322.839C66.4559 323.511 66.4559 324.855 68.9759 324.855C70.7119 324.855 71.6499 324.155 71.9859 323.903L72.6999 324.855ZM68.0519 322.671C68.0519 321.663 68.0519 321.663 69.9839 321.663H71.8319V323.007L69.8159 323.511H69.0599C68.0519 323.511 68.0519 323.511 68.0519 322.671ZM78.6929 324.855C79.1969 324.855 80.2889 324.855 81.6329 324.519V323.175H81.2969L79.9389 323.511H79.1969C76.7609 323.511 76.7609 323.511 76.7609 321.159C76.7609 318.807 76.7609 318.807 78.6929 318.807C80.2889 318.807 80.2889 318.807 80.6249 320.151L81.9689 319.815C81.9689 319.143 81.9689 317.463 79.0289 317.463H78.3569C75.2489 317.463 75.2489 319.311 75.2489 320.823V321.495C75.2489 323.007 75.2489 324.855 78.6929 324.855ZM90.212 317.631H83.156V318.863H85.942V324.687H87.426V318.863H90.212V317.631ZM91.9091 317.631V327.543H93.3371V324.519C94.0091 324.687 94.6811 324.855 95.9411 324.855C99.1331 324.855 99.1331 322.671 99.1331 321.495V320.823C99.1331 319.479 99.1331 317.463 96.1091 317.463C94.4291 317.463 93.5051 318.163 93.1691 318.415L92.5811 317.631H91.9091ZM97.6211 321.159C97.6211 323.497 97.6211 323.511 95.3531 323.511C94.8491 323.511 94.0091 323.511 93.3371 323.343V319.311L95.3531 318.807H95.5911C97.6211 318.807 97.6211 318.891 97.6211 321.159ZM103.462 323.175C103.462 322.671 103.462 322.671 102.02 318.891V317.631H100.508C100.508 319.101 100.508 319.101 102.748 324.351H104.162L103.658 325.695C103.392 326.367 103.28 326.367 102.482 326.367H101.376V327.711H102.104C103.196 327.711 104.288 327.669 104.918 326.143L107.242 319.885C107.564 319.101 107.564 319.101 107.564 317.911V317.631H106.094V318.891C104.764 322.699 104.778 322.699 104.778 323.175H103.462ZM116.358 318.023V317.631H114.762C113.754 318.975 113.166 319.759 113.166 320.487H110.646V317.631H109.218V324.687H110.646V321.831H113.166C113.166 322.559 113.754 323.343 114.762 324.687H116.358V324.295L113.992 321.159L116.358 318.023ZM124.515 317.631H117.459V318.863H120.245V324.687H121.729V318.863H124.515V317.631ZM128.55 323.175C128.55 322.671 128.55 322.671 127.108 318.891V317.631H125.596C125.596 319.101 125.596 319.101 127.836 324.351H129.25L128.746 325.695C128.48 326.367 128.368 326.367 127.57 326.367H126.464V327.711H127.192C128.284 327.711 129.376 327.669 130.006 326.143L132.33 319.885C132.652 319.101 132.652 319.101 132.652 317.911V317.631H131.182V318.891C129.852 322.699 129.866 322.699 129.866 323.175H128.55ZM134.306 317.631V327.543H135.734V324.519C136.406 324.687 137.078 324.855 138.338 324.855C141.53 324.855 141.53 322.671 141.53 321.495V320.823C141.53 319.479 141.53 317.463 138.506 317.463C136.826 317.463 135.902 318.163 135.566 318.415L134.978 317.631H134.306ZM140.018 321.159C140.018 323.497 140.018 323.511 137.75 323.511C137.246 323.511 136.406 323.511 135.734 323.343V319.311L137.75 318.807H137.988C140.018 318.807 140.018 318.891 140.018 321.159ZM151.33 317.631V324.687H152.758V317.631H151.33ZM143.602 324.687H146.626C148.39 324.687 149.902 324.687 149.902 322.335C149.902 321.495 149.902 319.815 146.962 319.815C146.374 319.815 145.702 319.899 145.03 320.067V317.631H143.602V324.687ZM146.794 321.159C148.39 321.159 148.39 321.159 148.39 322.335C148.39 323.511 148.39 323.511 146.794 323.511H145.03V321.159H146.794Z" fill="#E21A1A"/>
<path d="M139.227 379.868L137.211 379.364H136.707V380.708C138.835 381.24 139.395 381.24 140.235 381.24C144.603 381.24 144.603 379.084 144.603 376.424V375.416C144.603 373.036 144.603 370.88 140.235 370.88C139.395 370.88 138.835 370.88 136.707 371.412V372.756H137.211L139.227 372.252H139.815C142.881 372.252 142.923 372.364 142.923 375.248H138.387V376.592H142.923C142.923 379.756 142.881 379.868 139.815 379.868H139.227ZM152.066 375.206V381.016H153.494V373.96H147.796C147.754 375.416 147.67 376.62 147.418 378.44C147.25 379.658 147.11 379.896 145.906 379.896V381.044C148.174 381.044 148.412 380.778 148.692 378.692C148.902 377.152 149 376.074 149.028 375.206H152.066ZM159.015 379.84C157.083 379.84 157.083 379.84 157.083 378.076H159.015C161.031 378.076 161.367 378.076 162.123 377.908L162.459 377.824V377.152C162.459 375.808 162.459 373.792 159.351 373.792H158.679C155.571 373.792 155.571 375.808 155.571 377.152V377.824C155.571 379.336 155.571 381.184 159.015 381.184C159.603 381.184 160.611 381.184 161.955 380.848V379.504H161.619L160.275 379.84H159.015ZM157.083 376.984C157.083 375.136 157.083 375.136 159.015 375.136C160.947 375.136 160.947 375.136 160.947 376.984H157.083ZM171.673 374.352V373.96H170.077C169.069 375.304 168.481 376.088 168.481 376.816H165.961V373.96H164.533V381.016H165.961V378.16H168.481C168.481 378.888 169.069 379.672 170.077 381.016H171.673V380.624L169.307 377.488L171.673 374.352ZM179.831 373.96H172.775V375.192H175.561V381.016H177.045V375.192H179.831V373.96ZM181.528 373.96V383.872H182.956V380.848C183.628 381.016 184.3 381.184 185.56 381.184C188.752 381.184 188.752 379 188.752 377.824V377.152C188.752 375.808 188.752 373.792 185.728 373.792C184.048 373.792 183.124 374.492 182.788 374.744L182.2 373.96H181.528ZM187.24 377.488C187.24 379.826 187.24 379.84 184.972 379.84C184.468 379.84 183.628 379.84 182.956 379.672V375.64L184.972 375.136H185.21C187.24 375.136 187.24 375.22 187.24 377.488ZM192 377.488C192 375.136 192 375.066 194.184 375.066C196.368 375.066 196.368 375.136 196.368 377.488C196.368 379.84 196.368 379.91 194.184 379.91C192 379.91 192 379.84 192 377.488ZM190.488 377.824C190.488 379.168 190.488 381.184 193.848 381.184H194.52C197.88 381.184 197.88 379.168 197.88 377.824V377.152C197.88 375.808 197.88 373.792 194.52 373.792H193.848C190.488 373.792 190.488 375.808 190.488 377.152V377.824ZM199.957 381.016H203.219C204.899 381.016 206.593 381.016 206.593 379.252C206.593 378.664 206.453 377.908 205.109 377.572V377.404C206.453 377.068 206.453 376.312 206.453 375.724C206.453 373.96 204.899 373.96 203.219 373.96H199.957V381.016ZM203.737 377.992C204.983 377.992 204.997 377.992 204.997 378.916C204.997 379.826 204.997 379.84 203.737 379.84H201.385V377.992H203.737ZM203.597 375.136C204.843 375.136 204.857 375.136 204.857 376.06C204.857 376.97 204.857 376.984 203.597 376.984H201.385V375.136H203.597ZM209.842 377.488C209.842 375.136 209.842 375.066 212.026 375.066C214.21 375.066 214.21 375.136 214.21 377.488C214.21 379.84 214.21 379.91 212.026 379.91C209.842 379.91 209.842 379.84 209.842 377.488ZM208.33 377.824C208.33 379.168 208.33 381.184 211.69 381.184H212.362C215.722 381.184 215.722 379.168 215.722 377.824V377.152C215.722 375.808 215.722 373.792 212.362 373.792H211.69C208.33 373.792 208.33 375.808 208.33 377.152V377.824ZM219.059 379.84L217.715 379.504H217.379V380.848C218.723 381.184 219.801 381.184 220.305 381.184C223.483 381.184 223.637 379.84 223.637 379.168C223.637 378.832 223.637 377.908 222.293 377.572V377.404C223.637 377.068 223.637 376.144 223.637 375.808C223.637 375.136 223.497 373.792 220.305 373.792C219.801 373.792 218.723 373.792 217.379 374.128V375.472H217.715L219.059 375.136H220.781C222.041 375.136 222.041 375.136 222.041 376.032C222.041 376.9 222.041 376.9 220.781 376.9H219.059V378.076H220.781C222.041 378.076 222.041 378.076 222.041 378.944C222.041 379.84 222.041 379.84 220.781 379.84H219.059ZM233.416 373.96V381.016H234.844V373.96H233.416ZM225.688 381.016H228.712C230.476 381.016 231.988 381.016 231.988 378.664C231.988 377.824 231.988 376.144 229.048 376.144C228.46 376.144 227.788 376.228 227.116 376.396V373.96H225.688V381.016ZM228.88 377.488C230.476 377.488 230.476 377.488 230.476 378.664C230.476 379.84 230.476 379.84 228.88 379.84H227.116V377.488H228.88Z" fill="#E21A1A"/>
<path d="M193.404 248.864C189.036 248.864 189.036 251.44 189.036 253.624V254.464C189.036 256.648 189.036 259.224 193.404 259.224H194.132C198.5 259.224 198.5 256.648 198.5 254.464V253.624C198.5 251.44 198.5 248.864 194.132 248.864H193.404ZM190.716 253.876C190.716 250.362 190.716 250.236 193.768 250.236C196.806 250.236 196.82 250.348 196.82 253.876V254.212C196.82 257.726 196.82 257.852 193.768 257.852C190.73 257.852 190.716 257.74 190.716 254.212V253.876ZM200.323 251.944V254.128C200.323 255.136 200.323 256.816 203.095 256.816C203.851 256.816 204.859 256.564 205.531 256.396V259H206.959V251.944H205.531V255.22L204.523 255.472H203.515C201.835 255.472 201.835 255.472 201.835 254.128V251.944H200.323ZM211.316 259C214.97 254.142 214.97 253.89 214.97 253.148H215.334V259H216.762V251.944H214.83C211.176 256.802 211.176 257.054 211.176 257.796H210.798V251.944H209.37V259H211.316ZM222.281 259.168C222.785 259.168 223.877 259.168 225.221 258.832V257.488H224.885L223.527 257.824H222.785C220.349 257.824 220.349 257.824 220.349 255.472C220.349 253.12 220.349 253.12 222.281 253.12C223.877 253.12 223.877 253.12 224.213 254.464L225.557 254.128C225.557 253.456 225.557 251.776 222.617 251.776H221.945C218.837 251.776 218.837 253.624 218.837 255.136V255.808C218.837 257.32 218.837 259.168 222.281 259.168ZM233.8 251.944H226.744V253.176H229.53V259H231.014V253.176H233.8V251.944ZM241.041 251.944V254.786H236.925V251.944H235.497V259H236.925V256.018H241.041V259H242.469V251.944H241.041ZM252.604 251.944V259H254.032V251.944H252.604ZM244.876 259H247.9C249.664 259 251.176 259 251.176 256.648C251.176 255.808 251.176 254.128 248.236 254.128C247.648 254.128 246.976 254.212 246.304 254.38V251.944H244.876V259ZM248.068 255.472C249.664 255.472 249.664 255.472 249.664 256.648C249.664 257.824 249.664 257.824 248.068 257.824H246.304V255.472H248.068ZM259.55 257.824C257.618 257.824 257.618 257.824 257.618 256.06H259.55C261.566 256.06 261.902 256.06 262.658 255.892L262.994 255.808V255.136C262.994 253.792 262.994 251.776 259.886 251.776H259.214C256.106 251.776 256.106 253.792 256.106 255.136V255.808C256.106 257.32 256.106 259.168 259.55 259.168C260.138 259.168 261.146 259.168 262.49 258.832V257.488H262.154L260.81 257.824H259.55ZM257.618 254.968C257.618 253.12 257.618 253.12 259.55 253.12C261.482 253.12 261.482 253.12 261.482 254.968H257.618ZM192.312 276.168C192.816 276.168 193.908 276.168 195.252 275.832V274.488H194.916L193.558 274.824H192.816C190.38 274.824 190.38 274.824 190.38 272.472C190.38 270.12 190.38 270.12 192.312 270.12C193.908 270.12 193.908 270.12 194.244 271.464L195.588 271.128C195.588 270.456 195.588 268.776 192.648 268.776H191.976C188.868 268.776 188.868 270.624 188.868 272.136V272.808C188.868 274.32 188.868 276.168 192.312 276.168ZM198.665 272.472C198.665 270.12 198.665 270.05 200.849 270.05C203.033 270.05 203.033 270.12 203.033 272.472C203.033 274.824 203.033 274.894 200.849 274.894C198.665 274.894 198.665 274.824 198.665 272.472ZM197.153 272.808C197.153 274.152 197.153 276.168 200.513 276.168H201.185C204.545 276.168 204.545 274.152 204.545 272.808V272.136C204.545 270.792 204.545 268.776 201.185 268.776H200.513C197.153 268.776 197.153 270.792 197.153 272.136V272.808ZM207.798 272.472C207.798 270.12 207.798 270.05 209.982 270.05C212.166 270.05 212.166 270.12 212.166 272.472C212.166 274.824 212.166 274.894 209.982 274.894C207.798 274.894 207.798 274.824 207.798 272.472ZM206.286 272.808C206.286 274.152 206.286 276.168 209.646 276.168H210.318C213.678 276.168 213.678 274.152 213.678 272.808V272.136C213.678 270.792 213.678 268.776 210.318 268.776H209.646C206.286 268.776 206.286 270.792 206.286 272.136V272.808ZM215.755 268.944V278.856H217.183V275.832C217.855 276 218.527 276.168 219.787 276.168C222.979 276.168 222.979 273.984 222.979 272.808V272.136C222.979 270.792 222.979 268.776 219.955 268.776C218.275 268.776 217.351 269.476 217.015 269.728L216.427 268.944H215.755ZM221.467 272.472C221.467 274.81 221.467 274.824 219.199 274.824C218.695 274.824 217.855 274.824 217.183 274.656V270.624L219.199 270.12H219.437C221.467 270.12 221.467 270.204 221.467 272.472ZM227.308 274.488C227.308 273.984 227.308 273.984 225.866 270.204V268.944H224.354C224.354 270.414 224.354 270.414 226.594 275.664H228.008L227.504 277.008C227.238 277.68 227.126 277.68 226.328 277.68H225.222V279.024H225.95C227.042 279.024 228.134 278.982 228.764 277.456L231.088 271.198C231.41 270.414 231.41 270.414 231.41 269.224V268.944H229.94V270.204C228.61 274.012 228.624 274.012 228.624 274.488H227.308ZM237.571 268.944V271.8H235.667C235.667 271.072 235.079 270.288 234.071 268.944H232.475V269.336L234.827 272.472L232.475 275.608V276H234.071C235.079 274.656 235.667 273.872 235.667 273.144H237.571V276H238.999V273.144H240.903C240.903 273.872 241.491 274.656 242.499 276H244.095V275.608L241.729 272.472L244.095 269.336V268.944H242.499C241.491 270.288 240.903 271.072 240.903 271.8H238.999V268.944H237.571ZM248.941 274.824C247.009 274.824 247.009 274.824 247.009 273.06H248.941C250.957 273.06 251.293 273.06 252.049 272.892L252.385 272.808V272.136C252.385 270.792 252.385 268.776 249.277 268.776H248.605C245.497 268.776 245.497 270.792 245.497 272.136V272.808C245.497 274.32 245.497 276.168 248.941 276.168C249.529 276.168 250.537 276.168 251.881 275.832V274.488H251.545L250.201 274.824H248.941ZM247.009 271.968C247.009 270.12 247.009 270.12 248.941 270.12C250.873 270.12 250.873 270.12 250.873 271.968H247.009ZM260.004 268.944V271.786H255.888V268.944H254.46V276H255.888V273.018H260.004V276H261.432V268.944H260.004ZM265.785 276C269.439 271.142 269.439 270.89 269.439 270.148H269.803V276H271.231V268.944H269.299C265.645 273.802 265.645 274.054 265.645 274.796H265.267V268.944H263.839V276H265.785ZM280.026 276V268.944H277.002C274.902 268.944 273.222 268.944 273.222 271.212C273.222 272.444 273.642 272.766 274.818 273.648L273.348 275.608V276H274.944C275.448 275.356 275.994 274.684 275.994 273.648H278.598V276H280.026ZM276.414 272.472C274.832 272.472 274.818 272.472 274.818 271.296C274.818 270.134 274.818 270.12 276.414 270.12H278.598V272.472H276.414Z" fill="#E21A1A"/>
<defs>
<linearGradient id="paint0_linear" x1="-1.99999" y1="180.356" x2="62" y2="180.356" gradientUnits="userSpaceOnUse">
<stop offset="0.137615" stop-color="white"/>
<stop offset="0.954439" stop-color="white" stop-opacity="0"/>
</linearGradient>
</defs>
</svg>
