<svg width="127" height="57" viewBox="0 0 127 57" fill="none" xmlns="http://www.w3.org/2000/svg">
<g filter="url(#filter0_d)">
<path fill-rule="evenodd" clip-rule="evenodd" d="M123.147 44.4138C123.401 43.3407 123.939 40.5508 124.058 37.976C124.208 34.7574 122.822 29.8549 121.9 27.8637C121.163 26.2708 120.057 24.0346 119.596 23.1156L120.358 19.4366L115.913 19.442C115.147 19.1364 113.429 18.5255 112.694 18.5264L107.483 18.5327L106.868 17.0009L90.6232 17.0207L90.625 18.5532L89.5523 18.5545L89.551 17.4818L88.0184 17.4836L88.0165 15.9511C88.0158 15.3381 88.0152 14.8783 87.0957 14.8794L75.4483 14.8936C74.5288 14.8947 74.3763 15.5079 74.3768 15.9677L74.3787 17.5002L72.3864 17.5027L72.3832 14.8973L10.3149 14.9729C10.2065 14.973 10.0981 14.9716 9.99086 14.9702C9.03628 14.9576 8.16928 14.9461 8.17062 16.0483L8.18107 24.6306L2.20416 24.6379L2.19655 18.3544L1.27701 18.3556L1.2744 16.21C1.27384 15.7502 1.12023 15.4439 0.353945 15.4448L-45.1628 15.5002C-45.8776 15.8587 -47.3071 16.6063 -47.3069 16.7289C-47.3068 16.8515 -50.1676 16.7835 -51.5981 16.7341L-51.5971 17.5004L-62.7847 17.514L-62.7857 16.7477C-62.7862 16.288 -63.0933 15.8286 -63.7063 15.8293L-76.5798 15.845C-76.9156 15.8454 -77.0674 15.8456 -77.136 15.9213C-77.1926 15.9837 -77.1925 16.0976 -77.1922 16.3055L-77.1904 17.8381C-86.2834 17.9002 -104.623 18.0247 -105.236 18.0255C-105.849 18.0262 -109.069 16.3954 -110.603 15.5799L-111.676 15.5812L-111.667 22.3245L-113.047 22.3261L-113.025 40.4102C-113.024 40.87 -112.87 41.1763 -112.564 41.176L-111.644 41.1748L-111.64 45.0062L-99.5313 44.9915C-99.7296 45.5156 -99.8378 46.084 -99.8371 46.6777C-99.8339 49.3015 -97.7042 51.426 -95.0804 51.4228C-92.5078 51.4197 -90.4152 49.3724 -90.3375 46.8193L-89.109 46.8179C-89.1078 47.8336 -88.2834 48.6559 -87.2677 48.6547L-82.057 48.6484C-81.0413 48.6471 -80.219 47.8227 -80.2202 46.807L-79.6048 46.8062C-79.5208 49.3591 -77.4233 51.4013 -74.8507 51.3982C-72.2269 51.395 -70.1024 49.2653 -70.1056 46.6415C-70.1063 46.0478 -70.2159 45.4797 -70.4154 44.956L-68.7283 44.954L-68.7218 50.3179L-67.1892 50.316C-66.5762 50.3153 -66.1168 50.0082 -66.1173 49.5485L-66.1188 48.3224L-57.5366 48.312L-57.5409 44.7871L-46.2 44.7733C-45.6359 46.5606 -44.3544 50.135 -43.7414 50.1342L-42.0556 50.1322L-42.0621 44.7682L-40.6203 44.7665C-40.8573 45.3324 -40.9879 45.9539 -40.9871 46.606C-40.9839 49.2298 -38.8542 51.3543 -36.2304 51.3511C-33.6578 51.3479 -31.5652 49.3006 -31.4875 46.7476L-30.259 46.7462C-30.2578 47.7618 -29.4334 48.5842 -28.4177 48.583L-23.2071 48.5766C-22.1914 48.5754 -21.369 47.7509 -21.3702 46.7352L-20.7548 46.7345C-20.6708 49.2874 -18.5733 51.3296 -16.0007 51.3264C-13.3768 51.3232 -11.2524 49.1936 -11.2556 46.5697C-11.2564 45.9177 -11.3885 45.2965 -11.6268 44.7312L0.542829 44.7164L0.691438 40.8848L1.91747 40.8833C2.35671 40.8828 2.32368 40.7255 2.26944 40.4672C2.24798 40.365 2.22321 40.247 2.22305 40.1167L2.22282 39.9634L8.19973 39.9561L8.20029 40.4159C8.20088 40.9063 8.20102 41.0289 9.58031 41.0272L9.58497 44.8586L21.8467 44.8437C21.6485 45.3678 21.5402 45.9362 21.5409 46.5298C21.5441 49.1537 23.6738 51.2782 26.2976 51.275C28.8702 51.2718 30.9628 49.2245 31.0405 46.6715L31.656 46.6708C31.6572 47.6865 32.4816 48.5089 33.4973 48.5076L38.708 48.5013C39.7236 48.5 40.546 47.6756 40.5448 46.6599L41.7733 46.6584C41.8572 49.2113 43.9547 51.2535 46.5273 51.2503C49.1512 51.2471 51.2757 49.1175 51.2725 46.4936C51.2717 45.8469 51.1417 45.2306 50.907 44.6689L52.1035 44.6536L52.1102 50.1707C56.1811 50.1658 56.6726 44.8012 56.6726 44.8012L68.2817 44.7871L68.2853 47.699L76.1013 47.6894C76.2041 48.2002 76.5323 49.2828 77.023 49.5274C77.5137 49.772 78.6579 49.6276 79.1686 49.5248L79.1628 44.7739L80.6966 44.772C80.4984 45.2962 80.3902 45.8645 80.3909 46.4582C80.3941 49.082 82.5237 51.2065 85.1476 51.2033C87.7202 51.2002 89.8127 49.1528 89.8905 46.5998L90.5059 46.5991C90.5072 47.6148 91.3315 48.4372 92.3472 48.4359L97.5579 48.4296C98.5736 48.4283 99.396 47.6039 99.3947 46.5882L100.623 46.5867C100.707 49.1396 102.805 51.1818 105.377 51.1787C108.001 51.1755 110.126 49.0458 110.122 46.422C110.122 45.8283 110.012 45.2602 109.813 44.7365L115.178 44.73C116.047 44.9844 117.907 45.7075 118.398 46.5652C118.505 46.7514 118.607 46.9423 118.708 47.1306L118.709 47.1322C119.187 48.027 119.634 48.8625 120.394 48.8616C120.9 48.8609 121.127 49.0464 121.332 49.2132C121.499 49.3494 121.651 49.4731 121.927 49.4727L123.153 49.4712L123.151 48.0919L122.384 47.6331C122.604 46.7133 123.064 44.7817 123.147 44.4138ZM112.403 31.5534L118.84 31.5456C119.453 31.5448 120.218 30.7776 119.911 30.165C119.665 29.6749 118.272 26.9997 117.607 25.7234L112.09 25.7301C111.323 25.731 111.017 26.0379 111.018 26.4977L111.023 30.4823C111.023 30.9421 111.024 31.5551 112.403 31.5534ZM-119.143 40.571L-119.144 40.1112L-113.025 40.1037L-113.044 24.7782L-119.162 24.7857L-119.173 16.2034C-119.174 15.1012 -120.041 15.1148 -120.996 15.1297C-121.103 15.1314 -121.211 15.1331 -121.32 15.1332L-183.388 15.2088L-183.385 17.8141L-185.377 17.8166L-185.379 16.284C-185.379 15.8242 -185.533 15.2114 -186.453 15.2125L-198.1 15.2267C-199.02 15.2278 -199.019 15.6876 -199.019 16.3006L-199.017 17.8332L-200.549 17.835L-200.548 18.9078L-201.621 18.9091L-201.623 17.3766L-217.868 17.3964L-218.479 18.9297L-223.69 18.936C-224.425 18.9369 -226.141 19.552 -226.907 19.8594L-231.351 19.8649L-230.58 23.542C-231.039 24.4621 -232.14 26.701 -232.873 28.2958C-233.791 30.2892 -235.164 35.195 -235.007 38.4132C-234.881 40.9877 -234.336 43.7763 -234.079 44.8488C-233.996 45.2165 -233.531 47.147 -233.309 48.0662L-234.075 48.5269L-234.073 49.9062L-232.847 49.9047C-232.572 49.9044 -232.42 49.7804 -232.253 49.6438C-232.049 49.4765 -231.822 49.2905 -231.315 49.2898C-230.556 49.2889 -230.111 48.4524 -229.635 47.5564C-229.534 47.3674 -229.432 47.1756 -229.326 46.9886C-228.836 46.1298 -226.978 45.4021 -226.11 45.1456L-220.744 45.1391C-220.943 45.6632 -221.051 46.2316 -221.05 46.8252C-221.047 49.4491 -218.917 51.5736 -216.293 51.5704C-213.721 51.5672 -211.628 49.5199 -211.551 46.9669L-210.322 46.9654C-210.321 47.981 -209.497 48.8035 -208.481 48.8023L-203.27 48.7959C-202.254 48.7947 -201.432 47.9703 -201.433 46.9546L-200.818 46.9538C-200.734 49.5066 -198.636 51.5489 -196.064 51.5457C-193.44 51.5425 -191.316 49.4129 -191.319 46.789C-191.319 46.1954 -191.429 45.6273 -191.629 45.1036L-190.095 45.1018L-190.089 49.8527C-189.578 49.9542 -188.433 50.0959 -187.943 49.8501C-187.453 49.6043 -187.128 48.5209 -187.026 48.0099L-179.21 48.0004L-179.214 45.0885L-167.605 45.0744C-167.605 45.0744 -167.1 50.4377 -163.029 50.4327L-163.036 44.9156L-161.839 44.928C-162.072 45.4903 -162.201 46.1069 -162.2 46.7536C-162.197 49.3775 -160.067 51.502 -157.443 51.4988C-154.871 51.4956 -152.778 49.4483 -152.701 46.8952L-151.472 46.8937C-151.471 47.9094 -150.647 48.7319 -149.631 48.7307L-144.42 48.7243C-143.405 48.7231 -142.582 47.8987 -142.583 46.883L-141.968 46.8822C-141.884 49.435 -139.786 51.4773 -137.214 51.4741C-134.59 51.4709 -132.466 49.3413 -132.469 46.7174C-132.469 46.1238 -132.579 45.5557 -132.779 45.032L-120.517 45.0171L-120.522 41.1857C-119.142 41.184 -119.142 41.0614 -119.143 40.571ZM-229.804 31.9701L-223.367 31.9623C-221.988 31.9606 -221.989 31.3476 -221.989 30.8878L-221.994 26.9032C-221.995 26.4434 -222.301 26.1373 -223.068 26.1382L-228.585 26.145C-229.247 27.4229 -230.634 30.1014 -230.878 30.5922C-231.184 31.2056 -230.417 31.9709 -229.804 31.9701Z" fill="#D8F0D4"/>
<path fill-rule="evenodd" clip-rule="evenodd" d="M123.147 44.4138C123.401 43.3407 123.939 40.5508 124.058 37.976C124.208 34.7574 122.822 29.8549 121.9 27.8637C121.163 26.2708 120.057 24.0346 119.596 23.1156L120.358 19.4366L115.913 19.442C115.147 19.1364 113.429 18.5255 112.694 18.5264L107.483 18.5327L106.868 17.0009L90.6232 17.0207L90.625 18.5532L89.5523 18.5545L89.551 17.4818L88.0184 17.4836L88.0165 15.9511C88.0158 15.3381 88.0152 14.8783 87.0957 14.8794L75.4483 14.8936C74.5288 14.8947 74.3763 15.5079 74.3768 15.9677L74.3787 17.5002L72.3864 17.5027L72.3832 14.8973L10.3149 14.9729C10.2065 14.973 10.0981 14.9716 9.99086 14.9702C9.03628 14.9576 8.16928 14.9461 8.17062 16.0483L8.18107 24.6306L2.20416 24.6379L2.19655 18.3544L1.27701 18.3556L1.2744 16.21C1.27384 15.7502 1.12023 15.4439 0.353945 15.4448L-45.1628 15.5002C-45.8776 15.8587 -47.3071 16.6063 -47.3069 16.7289C-47.3068 16.8515 -50.1676 16.7835 -51.5981 16.7341L-51.5971 17.5004L-62.7847 17.514L-62.7857 16.7477C-62.7862 16.288 -63.0933 15.8286 -63.7063 15.8293L-76.5798 15.845C-76.9156 15.8454 -77.0674 15.8456 -77.136 15.9213C-77.1926 15.9837 -77.1925 16.0976 -77.1922 16.3055L-77.1904 17.8381C-86.2834 17.9002 -104.623 18.0247 -105.236 18.0255C-105.849 18.0262 -109.069 16.3954 -110.603 15.5799L-111.676 15.5812L-111.667 22.3245L-113.047 22.3261L-113.025 40.4102C-113.024 40.87 -112.87 41.1763 -112.564 41.176L-111.644 41.1748L-111.64 45.0062L-99.5313 44.9915C-99.7296 45.5156 -99.8378 46.084 -99.8371 46.6777C-99.8339 49.3015 -97.7042 51.426 -95.0804 51.4228C-92.5078 51.4197 -90.4152 49.3724 -90.3375 46.8193L-89.109 46.8179C-89.1078 47.8336 -88.2834 48.6559 -87.2677 48.6547L-82.057 48.6484C-81.0413 48.6471 -80.219 47.8227 -80.2202 46.807L-79.6048 46.8062C-79.5208 49.3591 -77.4233 51.4013 -74.8507 51.3982C-72.2269 51.395 -70.1024 49.2653 -70.1056 46.6415C-70.1063 46.0478 -70.2159 45.4797 -70.4154 44.956L-68.7283 44.954L-68.7218 50.3179L-67.1892 50.316C-66.5762 50.3153 -66.1168 50.0082 -66.1173 49.5485L-66.1188 48.3224L-57.5366 48.312L-57.5409 44.7871L-46.2 44.7733C-45.6359 46.5606 -44.3544 50.135 -43.7414 50.1342L-42.0556 50.1322L-42.0621 44.7682L-40.6203 44.7665C-40.8573 45.3324 -40.9879 45.9539 -40.9871 46.606C-40.9839 49.2298 -38.8542 51.3543 -36.2304 51.3511C-33.6578 51.3479 -31.5652 49.3006 -31.4875 46.7476L-30.259 46.7462C-30.2578 47.7618 -29.4334 48.5842 -28.4177 48.583L-23.2071 48.5766C-22.1914 48.5754 -21.369 47.7509 -21.3702 46.7352L-20.7548 46.7345C-20.6708 49.2874 -18.5733 51.3296 -16.0007 51.3264C-13.3768 51.3232 -11.2524 49.1936 -11.2556 46.5697C-11.2564 45.9177 -11.3885 45.2965 -11.6268 44.7312L0.542829 44.7164L0.691438 40.8848L1.91747 40.8833C2.35671 40.8828 2.32368 40.7255 2.26944 40.4672C2.24798 40.365 2.22321 40.247 2.22305 40.1167L2.22282 39.9634L8.19973 39.9561L8.20029 40.4159C8.20088 40.9063 8.20102 41.0289 9.58031 41.0272L9.58497 44.8586L21.8467 44.8437C21.6485 45.3678 21.5402 45.9362 21.5409 46.5298C21.5441 49.1537 23.6738 51.2782 26.2976 51.275C28.8702 51.2718 30.9628 49.2245 31.0405 46.6715L31.656 46.6708C31.6572 47.6865 32.4816 48.5089 33.4973 48.5076L38.708 48.5013C39.7236 48.5 40.546 47.6756 40.5448 46.6599L41.7733 46.6584C41.8572 49.2113 43.9547 51.2535 46.5273 51.2503C49.1512 51.2471 51.2757 49.1175 51.2725 46.4936C51.2717 45.8469 51.1417 45.2306 50.907 44.6689L52.1035 44.6536L52.1102 50.1707C56.1811 50.1658 56.6726 44.8012 56.6726 44.8012L68.2817 44.7871L68.2853 47.699L76.1013 47.6894C76.2041 48.2002 76.5323 49.2828 77.023 49.5274C77.5137 49.772 78.6579 49.6276 79.1686 49.5248L79.1628 44.7739L80.6966 44.772C80.4984 45.2962 80.3902 45.8645 80.3909 46.4582C80.3941 49.082 82.5237 51.2065 85.1476 51.2033C87.7202 51.2002 89.8127 49.1528 89.8905 46.5998L90.5059 46.5991C90.5072 47.6148 91.3315 48.4372 92.3472 48.4359L97.5579 48.4296C98.5736 48.4283 99.396 47.6039 99.3947 46.5882L100.623 46.5867C100.707 49.1396 102.805 51.1818 105.377 51.1787C108.001 51.1755 110.126 49.0458 110.122 46.422C110.122 45.8283 110.012 45.2602 109.813 44.7365L115.178 44.73C116.047 44.9844 117.907 45.7075 118.398 46.5652C118.505 46.7514 118.607 46.9423 118.708 47.1306L118.709 47.1322C119.187 48.027 119.634 48.8625 120.394 48.8616C120.9 48.8609 121.127 49.0464 121.332 49.2132C121.499 49.3494 121.651 49.4731 121.927 49.4727L123.153 49.4712L123.151 48.0919L122.384 47.6331C122.604 46.7133 123.064 44.7817 123.147 44.4138ZM112.403 31.5534L118.84 31.5456C119.453 31.5448 120.218 30.7776 119.911 30.165C119.665 29.6749 118.272 26.9997 117.607 25.7234L112.09 25.7301C111.323 25.731 111.017 26.0379 111.018 26.4977L111.023 30.4823C111.023 30.9421 111.024 31.5551 112.403 31.5534ZM-119.143 40.571L-119.144 40.1112L-113.025 40.1037L-113.044 24.7782L-119.162 24.7857L-119.173 16.2034C-119.174 15.1012 -120.041 15.1148 -120.996 15.1297C-121.103 15.1314 -121.211 15.1331 -121.32 15.1332L-183.388 15.2088L-183.385 17.8141L-185.377 17.8166L-185.379 16.284C-185.379 15.8242 -185.533 15.2114 -186.453 15.2125L-198.1 15.2267C-199.02 15.2278 -199.019 15.6876 -199.019 16.3006L-199.017 17.8332L-200.549 17.835L-200.548 18.9078L-201.621 18.9091L-201.623 17.3766L-217.868 17.3964L-218.479 18.9297L-223.69 18.936C-224.425 18.9369 -226.141 19.552 -226.907 19.8594L-231.351 19.8649L-230.58 23.542C-231.039 24.4621 -232.14 26.701 -232.873 28.2958C-233.791 30.2892 -235.164 35.195 -235.007 38.4132C-234.881 40.9877 -234.336 43.7763 -234.079 44.8488C-233.996 45.2165 -233.531 47.147 -233.309 48.0662L-234.075 48.5269L-234.073 49.9062L-232.847 49.9047C-232.572 49.9044 -232.42 49.7804 -232.253 49.6438C-232.049 49.4765 -231.822 49.2905 -231.315 49.2898C-230.556 49.2889 -230.111 48.4524 -229.635 47.5564C-229.534 47.3674 -229.432 47.1756 -229.326 46.9886C-228.836 46.1298 -226.978 45.4021 -226.11 45.1456L-220.744 45.1391C-220.943 45.6632 -221.051 46.2316 -221.05 46.8252C-221.047 49.4491 -218.917 51.5736 -216.293 51.5704C-213.721 51.5672 -211.628 49.5199 -211.551 46.9669L-210.322 46.9654C-210.321 47.981 -209.497 48.8035 -208.481 48.8023L-203.27 48.7959C-202.254 48.7947 -201.432 47.9703 -201.433 46.9546L-200.818 46.9538C-200.734 49.5066 -198.636 51.5489 -196.064 51.5457C-193.44 51.5425 -191.316 49.4129 -191.319 46.789C-191.319 46.1954 -191.429 45.6273 -191.629 45.1036L-190.095 45.1018L-190.089 49.8527C-189.578 49.9542 -188.433 50.0959 -187.943 49.8501C-187.453 49.6043 -187.128 48.5209 -187.026 48.0099L-179.21 48.0004L-179.214 45.0885L-167.605 45.0744C-167.605 45.0744 -167.1 50.4377 -163.029 50.4327L-163.036 44.9156L-161.839 44.928C-162.072 45.4903 -162.201 46.1069 -162.2 46.7536C-162.197 49.3775 -160.067 51.502 -157.443 51.4988C-154.871 51.4956 -152.778 49.4483 -152.701 46.8952L-151.472 46.8937C-151.471 47.9094 -150.647 48.7319 -149.631 48.7307L-144.42 48.7243C-143.405 48.7231 -142.582 47.8987 -142.583 46.883L-141.968 46.8822C-141.884 49.435 -139.786 51.4773 -137.214 51.4741C-134.59 51.4709 -132.466 49.3413 -132.469 46.7174C-132.469 46.1238 -132.579 45.5557 -132.779 45.032L-120.517 45.0171L-120.522 41.1857C-119.142 41.184 -119.142 41.0614 -119.143 40.571ZM-229.804 31.9701L-223.367 31.9623C-221.988 31.9606 -221.989 31.3476 -221.989 30.8878L-221.994 26.9032C-221.995 26.4434 -222.301 26.1373 -223.068 26.1382L-228.585 26.145C-229.247 27.4229 -230.634 30.1014 -230.878 30.5922C-231.184 31.2056 -230.417 31.9709 -229.804 31.9701Z" stroke="#3DD379" stroke-linecap="round"/>
</g>
<path d="M2.7052 25.4439L7.83541 25.4377L7.85285 39.7632L2.72264 39.7694L2.7052 25.4439Z" fill="#C7EAC1" stroke="#3DD379"/>
<path d="M95.9946 1.81421L84.5563 7.11787L96.5327 11.4991L107.693 7.11787L95.9946 1.81421Z" stroke="#76D33D" stroke-width="2" stroke-linejoin="round"/>
<path d="M96.5318 11.4991L92.089 16.8797H101.236L96.5318 11.4991Z" stroke="#76D33D"/>
<defs>
<filter id="filter0_d" x="-237.519" y="14.3794" width="364.089" height="41.691" filterUnits="userSpaceOnUse" color-interpolation-filters="sRGB">
<feFlood flood-opacity="0" result="BackgroundImageFix"/>
<feColorMatrix in="SourceAlpha" type="matrix" values="0 0 0 0 0 0 0 0 0 0 0 0 0 0 0 0 0 0 127 0"/>
<feOffset dy="2"/>
<feGaussianBlur stdDeviation="1"/>
<feColorMatrix type="matrix" values="0 0 0 0 0.475284 0 0 0 0 0.475284 0 0 0 0 0.475284 0 0 0 0.25 0"/>
<feBlend mode="normal" in2="BackgroundImageFix" result="effect1_dropShadow"/>
<feBlend mode="normal" in="SourceGraphic" in2="effect1_dropShadow" result="shape"/>
</filter>
</defs>
</svg>
