<svg width="320" height="159" viewBox="0 0 320 159" fill="none" xmlns="http://www.w3.org/2000/svg">
<path d="M430 158.34H-74V29.4173C10.1608 19.6311 15.5311 29.4173 100.116 29.4173H199.612C196.621 32.6794 189.662 39.8561 185.748 42.4658C180.854 45.728 187.175 58.1648 174.126 62.2424C163.687 65.5046 137.631 69.9221 139.262 72.6406H190.641H430V158.34Z" fill="#D5E2EE"/>
<path d="M430 158.34H-74V29.4173C10.1608 19.6311 15.5311 29.4173 100.116 29.4173H199.612C196.621 32.6794 189.662 39.8561 185.748 42.4658C180.854 45.728 187.175 58.1648 174.126 62.2424C163.687 65.5046 137.631 69.9221 139.262 72.6406H190.641H430V158.34Z" fill="url(#paint0_linear)"/>
<path d="M-29.9612 10.5241C-34.0388 10.5241 -70.3301 5.63086 -74 5.63086L-74 34.9901L319.087 32.9512L254.252 23.9804L211.437 19.0872H167.806H142.117H119.282C115.204 19.0872 85.8447 15.4173 82.5825 15.4173H60.5631H45.8835H31.2039C27.1262 15.4173 -25.8835 10.5241 -29.9612 10.5241Z" fill="#E6E8ED"/>
<path d="M-65.8447 13.3789L-74 17.0488L-74 34.9906H185.748L108.68 23.9808L84.2136 20.3109H81.3592L68.3107 17.0488L59.7476 20.3109L48.7379 17.0488L40.9903 23.9808C37.1845 21.6702 29.0835 17.0488 27.1262 17.0488H15.301L5.92233 15.8255L0.213593 20.3109L4.29126 28.4663L-15.2816 14.6022H-36.8932L-38.5243 17.0488L-43.0097 20.3109L-49.9417 13.3789H-65.8447Z" fill="#F2F4F7"/>
<g filter="url(#filter0_d)">
<path d="M120.505 68.4269H105.825V76.5822C137.223 75.6308 204.342 73.7279 221.631 73.7279C243.243 73.7279 251.806 76.1745 258.33 76.5822C263.55 76.9084 286.874 78.6211 297.884 79.4366H430L430 8.48516C422.932 10.9318 407.328 15.825 404.719 19.9026H374.952L361.495 24.7958L268.932 2.36865L218.777 6.44632C214.563 7.39778 205.81 13.623 204.505 14.6017C203.2 15.5803 186.835 37.5725 182.893 42.3298L161.282 53.3395C158.427 55.5143 152.066 60.19 149.457 61.4949C146.847 62.7997 129.068 66.6599 120.505 68.4269Z" fill="white"/>
</g>
<path d="M120.505 68.4269H105.825V76.5822L127.437 73.3201L140.078 68.4269L150.68 70.058L165.767 57.825L175.554 61.4949L211.437 42.3298L231.01 19.9026L259.961 33.3589L275.456 73.3201H430V8.48516C422.932 10.9318 407.328 15.825 404.719 19.9026H374.952L361.495 24.7958L268.932 2.36865L218.777 6.44632C214.563 7.39778 205.81 13.623 204.505 14.6017C203.2 15.5803 186.835 37.5725 182.893 42.3298L161.282 53.3395C158.427 55.5143 152.066 60.19 149.456 61.4949C146.847 62.7997 129.068 66.6599 120.505 68.4269Z" fill="#E2E4EB"/>
<path d="M120.505 68.4269H105.825V76.5822L127.437 73.3201L140.078 68.4269L150.68 70.058L165.767 57.825L175.554 61.4949L211.437 42.3298L231.01 19.9026L259.961 33.3589L275.456 73.3201H430V8.48516C422.932 10.9318 407.328 15.825 404.719 19.9026H374.952L361.495 24.7958L268.932 2.36865L218.777 6.44632C214.563 7.39778 205.81 13.623 204.505 14.6017C203.2 15.5803 186.835 37.5725 182.893 42.3298L161.282 53.3395C158.427 55.5143 152.066 60.19 149.456 61.4949C146.847 62.7997 129.068 66.6599 120.505 68.4269Z" fill="url(#paint1_linear)"/>
<path d="M105.825 68.4269H120.505C129.068 66.6599 146.847 62.7997 149.456 61.4949C152.066 60.19 158.427 55.5143 161.282 53.3395L182.893 42.3298C186.835 37.5725 203.2 15.5803 204.505 14.6017C205.81 13.623 214.563 7.39778 218.777 6.44632L268.932 2.36865L361.495 24.7958L374.952 19.9026H404.719C407.328 15.825 422.932 10.9318 430 8.48516V39.4754L404.719 24.7958L370.058 34.99L334.175 27.2424L311.34 42.3298L277.903 29.2813L264.855 10.524L232.233 14.6017H204.505L175.554 61.4949L165.767 57.825L150.68 70.058L137.223 68.4269L116.02 72.5046L105.825 68.4269Z" fill="#D6DBE3"/>
<g filter="url(#filter1_d)">
<path d="M17.3398 60.2716L14.0776 74.5435H25.4951L34.0582 76.9901H42.6213L60.9708 74.5435V47.2231L58.1165 37.8444L52.4077 28.8736L46.699 24.7959L42.6213 31.3202L37.3203 35.3978H28.3495L25.4951 47.2231L21.8252 51.3007L17.3398 60.2716Z" fill="#E4E5EC"/>
</g>
<g filter="url(#filter2_d)">
<path d="M102.971 57.4171L107.456 69.2423V76.9899H79.7283H43.0293L49.5536 69.2423L51.5924 57.4171L58.1167 49.6695L64.6409 47.6307L69.5341 43.9608L74.8351 37.4365L83.3982 41.1064L86.6604 47.6307H94.4079L98.4856 54.9705L102.971 57.4171Z" fill="#D6DBE3"/>
</g>
<defs>
<filter id="filter0_d" x="105.825" y="0.368652" width="324.175" height="79.068" filterUnits="userSpaceOnUse" color-interpolation-filters="sRGB">
<feFlood flood-opacity="0" result="BackgroundImageFix"/>
<feColorMatrix in="SourceAlpha" type="matrix" values="0 0 0 0 0 0 0 0 0 0 0 0 0 0 0 0 0 0 127 0"/>
<feOffset dy="-2"/>
<feColorMatrix type="matrix" values="0 0 0 0 1 0 0 0 0 1 0 0 0 0 1 0 0 0 1 0"/>
<feBlend mode="normal" in2="BackgroundImageFix" result="effect1_dropShadow"/>
<feBlend mode="normal" in="SourceGraphic" in2="effect1_dropShadow" result="shape"/>
</filter>
<filter id="filter1_d" x="14.0776" y="22.7959" width="46.8932" height="54.1942" filterUnits="userSpaceOnUse" color-interpolation-filters="sRGB">
<feFlood flood-opacity="0" result="BackgroundImageFix"/>
<feColorMatrix in="SourceAlpha" type="matrix" values="0 0 0 0 0 0 0 0 0 0 0 0 0 0 0 0 0 0 127 0"/>
<feOffset dy="-2"/>
<feColorMatrix type="matrix" values="0 0 0 0 1 0 0 0 0 1 0 0 0 0 1 0 0 0 1 0"/>
<feBlend mode="normal" in2="BackgroundImageFix" result="effect1_dropShadow"/>
<feBlend mode="normal" in="SourceGraphic" in2="effect1_dropShadow" result="shape"/>
</filter>
<filter id="filter2_d" x="43.0293" y="35.4365" width="64.4272" height="41.5534" filterUnits="userSpaceOnUse" color-interpolation-filters="sRGB">
<feFlood flood-opacity="0" result="BackgroundImageFix"/>
<feColorMatrix in="SourceAlpha" type="matrix" values="0 0 0 0 0 0 0 0 0 0 0 0 0 0 0 0 0 0 127 0"/>
<feOffset dy="-2"/>
<feColorMatrix type="matrix" values="0 0 0 0 1 0 0 0 0 1 0 0 0 0 1 0 0 0 1 0"/>
<feBlend mode="normal" in2="BackgroundImageFix" result="effect1_dropShadow"/>
<feBlend mode="normal" in="SourceGraphic" in2="effect1_dropShadow" result="shape"/>
</filter>
<linearGradient id="paint0_linear" x1="163.987" y1="32.799" x2="162.097" y2="179.34" gradientUnits="userSpaceOnUse">
<stop stop-color="#FEFEFF"/>
<stop offset="0.648982" stop-color="#D3E0FF" stop-opacity="0"/>
<stop offset="0.993861" stop-color="white" stop-opacity="0.26"/>
</linearGradient>
<linearGradient id="paint1_linear" x1="267.709" y1="2.36865" x2="267.709" y2="76.5822" gradientUnits="userSpaceOnUse">
<stop stop-color="white"/>
<stop offset="1" stop-color="white" stop-opacity="0"/>
</linearGradient>
</defs>
</svg>
