<svg width="311" height="61" viewBox="0 0 311 61" fill="none" xmlns="http://www.w3.org/2000/svg">
<g filter="url(#filter0_d)">
<path d="M20.7879 13.0937C18.2025 13.2022 15.9197 14.8131 14.9492 17.2107C13.5281 21.1921 12.8312 25.3967 12.8938 29.6222C12.9564 33.8791 15.0869 37.8397 18.6048 40.2393C18.7426 40.3145 18.8782 40.3875 19.0159 40.4584C19.9674 38.6993 19.861 36.5584 18.7405 34.9017C18.6508 34.7619 18.6862 34.5762 18.824 34.4844C18.9617 34.3905 19.1474 34.426 19.2434 34.5616C20.9691 37.1157 20.4683 40.5649 18.0852 42.5222C17.6637 42.8707 17.0836 42.9521 16.5807 42.7329C14.5733 41.8545 12.2258 42.6724 11.1993 44.6089C11.1513 44.7174 11.1116 44.8259 11.0782 44.9386C10.9176 45.4894 11.0031 46.0821 11.3119 46.5662C11.6208 47.0504 12.1216 47.38 12.6891 47.4677C15.2454 47.8662 17.8621 47.5804 20.2721 46.6392C23.9426 45.3851 27.277 43.3068 30.019 40.5649C30.8704 38.9457 30.9517 37.0321 30.2381 35.3482C30.1755 35.1938 30.2485 35.0185 30.4008 34.9538C30.5532 34.8891 30.7305 34.96 30.7973 35.1124C31.5944 36.9925 31.4901 39.1355 30.5135 40.9303C29.5808 41.8672 28.5812 42.7332 27.5191 43.5178C28.2035 43.6618 28.8942 43.7828 29.587 43.883C34.1256 44.1522 38.6747 43.5283 42.9734 42.0425C45.7759 41.1682 48.3592 39.7034 50.5483 37.746C51.335 37.0428 51.7169 35.9932 51.5645 34.9477C51.4143 33.9044 50.7507 33.005 49.7971 32.5543C46.8194 31.1437 43.7163 30.021 40.5277 29.1968C36.9428 28.7064 33.3871 28.0261 29.8753 27.158C29.1638 26.9807 28.5586 26.5112 28.2101 25.8664C27.8596 25.2195 27.8011 24.4579 28.0453 23.7651C28.953 21.1859 28.7318 18.3419 27.4339 15.9359C26.113 14.3208 24.1849 13.3213 22.1044 13.171C21.6704 13.1021 21.2301 13.0771 20.7919 13.0959L20.7879 13.0937ZM18.2714 15.076H18.2735C18.4634 15.0718 18.6491 15.147 18.7847 15.2826C18.9204 15.4162 18.9955 15.6019 18.9934 15.7918C18.9934 16.1841 18.6762 16.5012 18.2839 16.5012C17.8937 16.5012 17.5766 16.184 17.5766 15.7918C17.5724 15.4036 17.8833 15.0823 18.2735 15.076L18.2714 15.076ZM24.1892 16.447C24.3812 16.4428 24.5648 16.5179 24.7005 16.6515C24.8361 16.7871 24.9133 16.9707 24.9112 17.1606C24.9154 17.3526 24.8424 17.5362 24.7088 17.6719C24.5773 17.8096 24.3937 17.8868 24.2038 17.8868C24.0118 17.8868 23.8303 17.8096 23.6968 17.6719C23.5632 17.5362 23.4923 17.3526 23.4964 17.1606C23.4923 16.7725 23.8011 16.4553 24.1892 16.447L24.1892 16.447ZM20.5208 18.3355C20.9611 18.3313 21.3868 18.4815 21.7269 18.7591C21.8542 18.8655 21.923 19.0262 21.9126 19.191C21.9022 19.3559 21.8125 19.5061 21.6706 19.5937C21.441 19.7419 21.176 19.8233 20.9027 19.8358L20.8484 20.1885C20.838 20.2719 20.8526 20.3575 20.8901 20.4347H20.8776C21.0112 20.7435 21.2762 20.9751 21.5976 21.067C21.921 21.1609 22.2674 21.1045 22.5449 20.9167C22.6826 20.8249 22.8704 20.8604 22.9643 21.0002C23.0561 21.1379 23.0207 21.3236 22.885 21.4196C22.4906 21.6846 22.0065 21.7785 21.5433 21.6763C21.08 21.574 20.6773 21.2882 20.4311 20.8812C20.0722 21.1942 19.6006 21.3445 19.1248 21.2986C18.6511 21.2527 18.2171 21.0127 17.925 20.6371C17.8269 20.5056 17.8519 20.3178 17.9813 20.2156C18.1128 20.1154 18.2985 20.1363 18.4028 20.2657C18.6094 20.5307 18.9224 20.6893 19.2584 20.6997C19.5944 20.7101 19.9178 20.5703 20.139 20.3178C20.1953 20.2531 20.2329 20.1759 20.2454 20.0925L20.2996 19.7398C20.0451 19.6438 19.8176 19.4831 19.6423 19.2724C19.538 19.1451 19.5004 18.9761 19.5421 18.8154C19.5818 18.6547 19.6986 18.5253 19.851 18.4648C20.0638 18.3814 20.2892 18.3355 20.5166 18.3334L20.5208 18.3355Z" fill="#F2F4F7"/>
<path d="M10.8699 35.87C11.2706 34.9394 12.2054 34.353 13.2195 34.3968C13.6348 35.4631 14.1815 36.4731 14.8472 37.4038C13.8769 37.0031 12.8168 36.8779 11.7797 37.0428C11.4751 37.0908 11.1683 36.9697 10.9784 36.7256C10.7885 36.4814 10.7468 36.1538 10.8699 35.87L10.8699 35.87Z" fill="#F2F4F7"/>
<path d="M51.5709 37.479C52.56 35.9933 52.366 34.0171 51.1077 32.7505C52.2971 32.9967 53.4302 33.462 54.4485 34.1256C55.8361 34.4616 57.2613 34.616 58.6886 34.5784C59.444 34.833 59.8947 35.6093 59.7361 36.3918C59.5796 37.1742 58.866 37.7168 58.071 37.6605C55.9425 37.1325 53.7264 37.072 51.5709 37.481L51.5709 37.479Z" fill="#F2F4F7"/>
</g>
<path d="M275 17.2141C285.167 17.349 314.123 18.7115 330.716 20.6541C351.457 23.0823 365.399 25.3101 379.925 27.534C395.786 29.9623 402.292 32.7952 408.393 40.4846C413.405 46.8027 416.158 51.2311 418.127 60M275 16C283.54 16.6745 302.504 16.7484 310.178 17.2141C326.852 18.2259 377.458 24.4654 390.905 26.7246C406.563 29.3552 414.629 33.2673 421 38.6634" stroke="#E4E5EC" stroke-width="2"/>
<defs>
<filter id="filter0_d" x="0.800049" y="0.0898438" width="68.9678" height="54.5526" filterUnits="userSpaceOnUse" color-interpolation-filters="sRGB">
<feFlood flood-opacity="0" result="BackgroundImageFix"/>
<feColorMatrix in="SourceAlpha" type="matrix" values="0 0 0 0 0 0 0 0 0 0 0 0 0 0 0 0 0 0 127 0"/>
<feOffset dy="-3"/>
<feGaussianBlur stdDeviation="5"/>
<feColorMatrix type="matrix" values="0 0 0 0 0.574269 0 0 0 0 0.569878 0 0 0 0 0.604451 0 0 0 0.2 0"/>
<feBlend mode="normal" in2="BackgroundImageFix" result="effect1_dropShadow"/>
<feBlend mode="normal" in="SourceGraphic" in2="effect1_dropShadow" result="shape"/>
</filter>
</defs>
</svg>
