<svg width="202" height="127" viewBox="0 0 202 127" fill="none" xmlns="http://www.w3.org/2000/svg">
<rect x="17.2271" y="33.2482" width="6.63932" height="6.63932" fill="#D4F0DC" fill-opacity="0.4"/>
<rect x="16.7271" y="32.7482" width="7.63932" height="7.63932" stroke="#3DD3A6" stroke-opacity="0.2" stroke-linecap="round"/>
<rect x="17.2271" y="40.8359" width="6.63932" height="6.63932" fill="#D4F0DC" fill-opacity="0.4"/>
<rect x="16.7271" y="40.3359" width="7.63932" height="7.63932" stroke="#3DD3A6" stroke-opacity="0.2" stroke-linecap="round"/>
<rect x="24.8149" y="33.2481" width="6.63932" height="6.63932" fill="#D4F0DC" fill-opacity="0.4"/>
<rect x="24.3149" y="32.7481" width="7.63932" height="7.63932" stroke="#3DD3A6" stroke-opacity="0.2" stroke-linecap="round"/>
<rect x="24.8149" y="40.8359" width="6.63932" height="6.63932" fill="#D4F0DC" fill-opacity="0.4"/>
<rect x="24.3149" y="40.3359" width="7.63932" height="7.63932" stroke="#3DD3A6" stroke-opacity="0.2" stroke-linecap="round"/>
<rect x="32.4027" y="33.2481" width="6.63932" height="6.63932" fill="#D4F0DC" fill-opacity="0.4"/>
<rect x="31.9027" y="32.7481" width="7.63932" height="7.63932" stroke="#3DD3A6" stroke-opacity="0.2" stroke-linecap="round"/>
<rect x="32.4027" y="40.8359" width="6.63932" height="6.63932" fill="#D4F0DC" fill-opacity="0.4"/>
<rect x="31.9027" y="40.3359" width="7.63932" height="7.63932" stroke="#3DD3A6" stroke-opacity="0.2" stroke-linecap="round"/>
<rect x="39.9905" y="33.2481" width="6.63932" height="6.63932" fill="#D4F0DC" fill-opacity="0.4"/>
<rect x="39.4905" y="32.7481" width="7.63932" height="7.63932" stroke="#3DD3A6" stroke-opacity="0.2" stroke-linecap="round"/>
<rect x="39.9905" y="40.8359" width="6.63932" height="6.63932" fill="#D4F0DC" fill-opacity="0.4"/>
<rect x="39.4905" y="40.3359" width="7.63932" height="7.63932" stroke="#3DD3A6" stroke-opacity="0.2" stroke-linecap="round"/>
<rect x="47.5783" y="33.2481" width="6.63932" height="6.63932" fill="#D4F0DC" fill-opacity="0.4"/>
<rect x="47.0783" y="32.7481" width="7.63932" height="7.63932" stroke="#3DD3A6" stroke-opacity="0.2" stroke-linecap="round"/>
<rect x="47.5783" y="40.8359" width="6.63932" height="6.63932" fill="#D4F0DC" fill-opacity="0.4"/>
<rect x="47.0783" y="40.3359" width="7.63932" height="7.63932" stroke="#3DD3A6" stroke-opacity="0.2" stroke-linecap="round"/>
<rect x="17.2271" y="48.4237" width="6.63932" height="6.63932" fill="#D4F0DC" fill-opacity="0.4"/>
<rect x="16.7271" y="47.9237" width="7.63932" height="7.63932" stroke="#3DD3A6" stroke-opacity="0.2" stroke-linecap="round"/>
<rect x="17.2271" y="56.0115" width="6.63932" height="6.63932" fill="#D4F0DC" fill-opacity="0.4"/>
<rect x="16.7271" y="55.5115" width="7.63932" height="7.63932" stroke="#3DD3A6" stroke-opacity="0.2" stroke-linecap="round"/>
<rect x="24.8149" y="48.4237" width="6.63932" height="6.63932" fill="#D4F0DC" fill-opacity="0.4"/>
<rect x="24.3149" y="47.9237" width="7.63932" height="7.63932" stroke="#3DD3A6" stroke-opacity="0.2" stroke-linecap="round"/>
<rect x="24.8149" y="56.0115" width="6.63932" height="6.63932" fill="#D4F0DC" fill-opacity="0.4"/>
<rect x="24.3149" y="55.5115" width="7.63932" height="7.63932" stroke="#3DD3A6" stroke-opacity="0.2" stroke-linecap="round"/>
<rect x="32.4027" y="48.4237" width="6.63932" height="6.63932" fill="#D4F0DC" fill-opacity="0.4"/>
<rect x="31.9027" y="47.9237" width="7.63932" height="7.63932" stroke="#3DD3A6" stroke-opacity="0.2" stroke-linecap="round"/>
<rect x="32.4027" y="56.0115" width="6.63932" height="6.63932" fill="#D4F0DC" fill-opacity="0.4"/>
<rect x="31.9027" y="55.5115" width="7.63932" height="7.63932" stroke="#3DD3A6" stroke-opacity="0.2" stroke-linecap="round"/>
<rect x="39.9905" y="48.4237" width="6.63932" height="6.63932" fill="#D4F0DC" fill-opacity="0.4"/>
<rect x="39.4905" y="47.9237" width="7.63932" height="7.63932" stroke="#3DD3A6" stroke-opacity="0.2" stroke-linecap="round"/>
<rect x="39.9905" y="56.0115" width="6.63932" height="6.63932" fill="#D4F0DC" fill-opacity="0.4"/>
<rect x="39.4905" y="55.5115" width="7.63932" height="7.63932" stroke="#3DD3A6" stroke-opacity="0.2" stroke-linecap="round"/>
<rect x="47.5783" y="48.4237" width="6.63932" height="6.63932" fill="#D4F0DC" fill-opacity="0.4"/>
<rect x="47.0783" y="47.9237" width="7.63932" height="7.63932" stroke="#3DD3A6" stroke-opacity="0.2" stroke-linecap="round"/>
<rect x="47.5783" y="56.0115" width="6.63932" height="6.63932" fill="#D4F0DC" fill-opacity="0.4"/>
<rect x="47.0783" y="55.5115" width="7.63932" height="7.63932" stroke="#3DD3A6" stroke-opacity="0.2" stroke-linecap="round"/>
<rect x="17.2271" y="63.5993" width="6.63932" height="6.63932" fill="#D4F0DC" fill-opacity="0.4"/>
<rect x="16.7271" y="63.0993" width="7.63932" height="7.63932" stroke="#3DD3A6" stroke-opacity="0.2" stroke-linecap="round"/>
<rect x="17.2271" y="71.1871" width="6.63932" height="6.63932" fill="#D4F0DC" fill-opacity="0.4"/>
<rect x="16.7271" y="70.6871" width="7.63932" height="7.63932" stroke="#3DD3A6" stroke-opacity="0.2" stroke-linecap="round"/>
<rect x="24.8149" y="63.5993" width="6.63932" height="6.63932" fill="#D4F0DC" fill-opacity="0.4"/>
<rect x="24.3149" y="63.0993" width="7.63932" height="7.63932" stroke="#3DD3A6" stroke-opacity="0.2" stroke-linecap="round"/>
<rect x="24.8149" y="71.1871" width="6.63932" height="6.63932" fill="#D4F0DC" fill-opacity="0.4"/>
<rect x="24.3149" y="70.6871" width="7.63932" height="7.63932" stroke="#3DD3A6" stroke-opacity="0.2" stroke-linecap="round"/>
<rect x="32.4027" y="63.5993" width="6.63932" height="6.63932" fill="#D4F0DC" fill-opacity="0.4"/>
<rect x="31.9027" y="63.0993" width="7.63932" height="7.63932" stroke="#3DD3A6" stroke-opacity="0.2" stroke-linecap="round"/>
<rect x="32.4027" y="71.1871" width="6.63932" height="6.63932" fill="#D4F0DC" fill-opacity="0.4"/>
<rect x="31.9027" y="70.6871" width="7.63932" height="7.63932" stroke="#3DD3A6" stroke-opacity="0.2" stroke-linecap="round"/>
<rect x="39.9905" y="63.5993" width="6.63932" height="6.63932" fill="#D4F0DC" fill-opacity="0.4"/>
<rect x="39.4905" y="63.0993" width="7.63932" height="7.63932" stroke="#3DD3A6" stroke-opacity="0.2" stroke-linecap="round"/>
<rect x="39.9905" y="71.1871" width="6.63932" height="6.63932" fill="#D4F0DC" fill-opacity="0.4"/>
<rect x="39.4905" y="70.6871" width="7.63932" height="7.63932" stroke="#3DD3A6" stroke-opacity="0.2" stroke-linecap="round"/>
<rect x="47.5783" y="63.5993" width="6.63932" height="6.63932" fill="#D4F0DC" fill-opacity="0.4"/>
<rect x="47.0783" y="63.0993" width="7.63932" height="7.63932" stroke="#3DD3A6" stroke-opacity="0.2" stroke-linecap="round"/>
<rect x="47.5783" y="71.1871" width="6.63932" height="6.63932" fill="#D4F0DC" fill-opacity="0.4"/>
<rect x="47.0783" y="70.6871" width="7.63932" height="7.63932" stroke="#3DD3A6" stroke-opacity="0.2" stroke-linecap="round"/>
<rect x="17.2271" y="78.7749" width="6.63932" height="6.63932" fill="#D4F0DC" fill-opacity="0.4"/>
<rect x="16.7271" y="78.2749" width="7.63932" height="7.63932" stroke="#3DD3A6" stroke-opacity="0.2" stroke-linecap="round"/>
<rect x="17.2271" y="86.3627" width="6.63932" height="6.63932" fill="#D4F0DC" fill-opacity="0.4"/>
<rect x="16.7271" y="85.8627" width="7.63932" height="7.63932" stroke="#3DD3A6" stroke-opacity="0.2" stroke-linecap="round"/>
<rect x="24.8149" y="78.7749" width="6.63932" height="6.63932" fill="#D4F0DC" fill-opacity="0.4"/>
<rect x="24.3149" y="78.2749" width="7.63932" height="7.63932" stroke="#3DD3A6" stroke-opacity="0.2" stroke-linecap="round"/>
<rect x="24.8149" y="86.3627" width="6.63932" height="6.63932" fill="#D4F0DC" fill-opacity="0.4"/>
<rect x="24.3149" y="85.8627" width="7.63932" height="7.63932" stroke="#3DD3A6" stroke-opacity="0.2" stroke-linecap="round"/>
<rect x="32.4027" y="78.7749" width="6.63932" height="6.63932" fill="#D4F0DC" fill-opacity="0.4"/>
<rect x="31.9027" y="78.2749" width="7.63932" height="7.63932" stroke="#3DD3A6" stroke-opacity="0.2" stroke-linecap="round"/>
<rect x="32.4027" y="86.3627" width="6.63932" height="6.63932" fill="#D4F0DC" fill-opacity="0.4"/>
<rect x="31.9027" y="85.8627" width="7.63932" height="7.63932" stroke="#3DD3A6" stroke-opacity="0.2" stroke-linecap="round"/>
<rect x="39.9905" y="78.7749" width="6.63932" height="6.63932" fill="#D4F0DC" fill-opacity="0.4"/>
<rect x="39.4905" y="78.2749" width="7.63932" height="7.63932" stroke="#3DD3A6" stroke-opacity="0.2" stroke-linecap="round"/>
<rect x="39.9905" y="86.3627" width="6.63932" height="6.63932" fill="#D4F0DC" fill-opacity="0.4"/>
<rect x="39.4905" y="85.8627" width="7.63932" height="7.63932" stroke="#3DD3A6" stroke-opacity="0.2" stroke-linecap="round"/>
<rect x="47.5783" y="78.7749" width="6.63932" height="6.63932" fill="#D4F0DC" fill-opacity="0.4"/>
<rect x="47.0783" y="78.2749" width="7.63932" height="7.63932" stroke="#3DD3A6" stroke-opacity="0.2" stroke-linecap="round"/>
<rect x="47.5783" y="86.3627" width="6.63932" height="6.63932" fill="#D4F0DC" fill-opacity="0.4"/>
<rect x="47.0783" y="85.8627" width="7.63932" height="7.63932" stroke="#3DD3A6" stroke-opacity="0.2" stroke-linecap="round"/>
<rect x="17.2271" y="93.9505" width="6.63932" height="6.63932" fill="#D4F0DC" fill-opacity="0.4"/>
<rect x="16.7271" y="93.4505" width="7.63932" height="7.63932" stroke="#3DD3A6" stroke-opacity="0.2" stroke-linecap="round"/>
<rect x="17.2271" y="101.538" width="6.63932" height="6.63932" fill="#D4F0DC" fill-opacity="0.4"/>
<rect x="16.7271" y="101.038" width="7.63932" height="7.63932" stroke="#3DD3A6" stroke-opacity="0.2" stroke-linecap="round"/>
<rect x="24.8149" y="93.9505" width="6.63932" height="6.63932" fill="#D4F0DC" fill-opacity="0.4"/>
<rect x="24.3149" y="93.4505" width="7.63932" height="7.63932" stroke="#3DD3A6" stroke-opacity="0.2" stroke-linecap="round"/>
<rect x="24.8149" y="101.538" width="6.63932" height="6.63932" fill="#D4F0DC" fill-opacity="0.4"/>
<rect x="24.3149" y="101.038" width="7.63932" height="7.63932" stroke="#3DD3A6" stroke-opacity="0.2" stroke-linecap="round"/>
<rect x="32.4027" y="93.9505" width="6.63932" height="6.63932" fill="#D4F0DC" fill-opacity="0.4"/>
<rect x="31.9027" y="93.4505" width="7.63932" height="7.63932" stroke="#3DD3A6" stroke-opacity="0.2" stroke-linecap="round"/>
<rect x="32.4027" y="101.538" width="6.63932" height="6.63932" fill="#D4F0DC" fill-opacity="0.4"/>
<rect x="31.9027" y="101.038" width="7.63932" height="7.63932" stroke="#3DD3A6" stroke-opacity="0.2" stroke-linecap="round"/>
<rect x="39.9905" y="93.9505" width="6.63932" height="6.63932" fill="#D4F0DC" fill-opacity="0.4"/>
<rect x="39.4905" y="93.4505" width="7.63932" height="7.63932" stroke="#3DD3A6" stroke-opacity="0.2" stroke-linecap="round"/>
<rect x="39.9905" y="101.538" width="6.63932" height="6.63932" fill="#D4F0DC" fill-opacity="0.4"/>
<rect x="39.4905" y="101.038" width="7.63932" height="7.63932" stroke="#3DD3A6" stroke-opacity="0.2" stroke-linecap="round"/>
<rect x="47.5783" y="93.9505" width="6.63932" height="6.63932" fill="#D4F0DC" fill-opacity="0.4"/>
<rect x="47.0783" y="93.4505" width="7.63932" height="7.63932" stroke="#3DD3A6" stroke-opacity="0.2" stroke-linecap="round"/>
<rect x="47.5783" y="101.538" width="6.63932" height="6.63932" fill="#D4F0DC" fill-opacity="0.4"/>
<rect x="47.0783" y="101.038" width="7.63932" height="7.63932" stroke="#3DD3A6" stroke-opacity="0.2" stroke-linecap="round"/>
<rect x="105.435" y="33.2482" width="4.93693" height="7.81591" fill="#D4F0DC" fill-opacity="0.4"/>
<rect x="104.935" y="32.7482" width="5.93693" height="8.81591" stroke="#3DD3A6" stroke-opacity="0.2" stroke-linecap="round"/>
<rect x="105.435" y="42.1806" width="4.93693" height="7.81591" fill="#D4F0DC" fill-opacity="0.4"/>
<rect x="104.935" y="41.6806" width="5.93693" height="8.81591" stroke="#3DD3A6" stroke-opacity="0.2" stroke-linecap="round"/>
<rect x="111.078" y="33.2481" width="4.93693" height="7.81591" fill="#D4F0DC" fill-opacity="0.4"/>
<rect x="110.578" y="32.7481" width="5.93693" height="8.81591" stroke="#3DD3A6" stroke-opacity="0.2" stroke-linecap="round"/>
<rect x="111.078" y="42.1806" width="4.93693" height="7.81591" fill="#D4F0DC" fill-opacity="0.4"/>
<rect x="110.578" y="41.6806" width="5.93693" height="8.81591" stroke="#3DD3A6" stroke-opacity="0.2" stroke-linecap="round"/>
<rect x="116.72" y="33.2481" width="4.93693" height="7.81591" fill="#D4F0DC" fill-opacity="0.4"/>
<rect x="116.22" y="32.7481" width="5.93693" height="8.81591" stroke="#3DD3A6" stroke-opacity="0.2" stroke-linecap="round"/>
<rect x="116.72" y="42.1806" width="4.93693" height="7.81591" fill="#D4F0DC" fill-opacity="0.4"/>
<rect x="116.22" y="41.6806" width="5.93693" height="8.81591" stroke="#3DD3A6" stroke-opacity="0.2" stroke-linecap="round"/>
<rect x="122.362" y="33.2481" width="4.93693" height="7.81591" fill="#D4F0DC" fill-opacity="0.4"/>
<rect x="121.862" y="32.7481" width="5.93693" height="8.81591" stroke="#3DD3A6" stroke-opacity="0.2" stroke-linecap="round"/>
<rect x="122.362" y="42.1806" width="4.93693" height="7.81591" fill="#D4F0DC" fill-opacity="0.4"/>
<rect x="121.862" y="41.6806" width="5.93693" height="8.81591" stroke="#3DD3A6" stroke-opacity="0.2" stroke-linecap="round"/>
<rect x="128.004" y="33.2481" width="4.93693" height="7.81591" fill="#D4F0DC" fill-opacity="0.4"/>
<rect x="127.504" y="32.7481" width="5.93693" height="8.81591" stroke="#3DD3A6" stroke-opacity="0.2" stroke-linecap="round"/>
<rect x="128.004" y="42.1806" width="4.93693" height="7.81591" fill="#D4F0DC" fill-opacity="0.4"/>
<rect x="127.504" y="41.6806" width="5.93693" height="8.81591" stroke="#3DD3A6" stroke-opacity="0.2" stroke-linecap="round"/>
<rect x="105.435" y="51.1131" width="4.93693" height="7.81591" fill="#D4F0DC" fill-opacity="0.4"/>
<rect x="104.935" y="50.6131" width="5.93693" height="8.81591" stroke="#3DD3A6" stroke-opacity="0.2" stroke-linecap="round"/>
<rect x="105.435" y="60.0455" width="4.93693" height="7.81591" fill="#D4F0DC" fill-opacity="0.4"/>
<rect x="104.935" y="59.5455" width="5.93693" height="8.81591" stroke="#3DD3A6" stroke-opacity="0.2" stroke-linecap="round"/>
<rect x="111.078" y="51.1131" width="4.93693" height="7.81591" fill="#D4F0DC" fill-opacity="0.4"/>
<rect x="110.578" y="50.6131" width="5.93693" height="8.81591" stroke="#3DD3A6" stroke-opacity="0.2" stroke-linecap="round"/>
<rect x="111.078" y="60.0455" width="4.93693" height="7.81591" fill="#D4F0DC" fill-opacity="0.4"/>
<rect x="110.578" y="59.5455" width="5.93693" height="8.81591" stroke="#3DD3A6" stroke-opacity="0.2" stroke-linecap="round"/>
<rect x="116.72" y="51.1131" width="4.93693" height="7.81591" fill="#D4F0DC" fill-opacity="0.4"/>
<rect x="116.22" y="50.6131" width="5.93693" height="8.81591" stroke="#3DD3A6" stroke-opacity="0.2" stroke-linecap="round"/>
<rect x="116.72" y="60.0455" width="4.93693" height="7.81591" fill="#D4F0DC" fill-opacity="0.4"/>
<rect x="116.22" y="59.5455" width="5.93693" height="8.81591" stroke="#3DD3A6" stroke-opacity="0.2" stroke-linecap="round"/>
<rect x="122.362" y="51.1131" width="4.93693" height="7.81591" fill="#D4F0DC" fill-opacity="0.4"/>
<rect x="121.862" y="50.6131" width="5.93693" height="8.81591" stroke="#3DD3A6" stroke-opacity="0.2" stroke-linecap="round"/>
<rect x="122.362" y="60.0455" width="4.93693" height="7.81591" fill="#D4F0DC" fill-opacity="0.4"/>
<rect x="121.862" y="59.5455" width="5.93693" height="8.81591" stroke="#3DD3A6" stroke-opacity="0.2" stroke-linecap="round"/>
<rect x="128.004" y="51.1131" width="4.93693" height="7.81591" fill="#D4F0DC" fill-opacity="0.4"/>
<rect x="127.504" y="50.6131" width="5.93693" height="8.81591" stroke="#3DD3A6" stroke-opacity="0.2" stroke-linecap="round"/>
<rect x="128.004" y="60.0455" width="4.93693" height="7.81591" fill="#D4F0DC" fill-opacity="0.4"/>
<rect x="127.504" y="59.5455" width="5.93693" height="8.81591" stroke="#3DD3A6" stroke-opacity="0.2" stroke-linecap="round"/>
<rect x="105.435" y="68.9781" width="4.93693" height="7.81591" fill="#D4F0DC" fill-opacity="0.4"/>
<rect x="104.935" y="68.4781" width="5.93693" height="8.81591" stroke="#3DD3A6" stroke-opacity="0.2" stroke-linecap="round"/>
<rect x="105.435" y="77.9105" width="4.93693" height="7.81591" fill="#D4F0DC" fill-opacity="0.4"/>
<rect x="104.935" y="77.4105" width="5.93693" height="8.81591" stroke="#3DD3A6" stroke-opacity="0.2" stroke-linecap="round"/>
<rect x="111.078" y="68.9781" width="4.93693" height="7.81591" fill="#D4F0DC" fill-opacity="0.4"/>
<rect x="110.578" y="68.4781" width="5.93693" height="8.81591" stroke="#3DD3A6" stroke-opacity="0.2" stroke-linecap="round"/>
<rect x="111.078" y="77.9105" width="4.93693" height="7.81591" fill="#D4F0DC" fill-opacity="0.4"/>
<rect x="110.578" y="77.4105" width="5.93693" height="8.81591" stroke="#3DD3A6" stroke-opacity="0.2" stroke-linecap="round"/>
<rect x="116.72" y="68.9781" width="4.93693" height="7.81591" fill="#D4F0DC" fill-opacity="0.4"/>
<rect x="116.22" y="68.4781" width="5.93693" height="8.81591" stroke="#3DD3A6" stroke-opacity="0.2" stroke-linecap="round"/>
<rect x="116.72" y="77.9105" width="4.93693" height="7.81591" fill="#D4F0DC" fill-opacity="0.4"/>
<rect x="116.22" y="77.4105" width="5.93693" height="8.81591" stroke="#3DD3A6" stroke-opacity="0.2" stroke-linecap="round"/>
<rect x="122.362" y="68.9781" width="4.93693" height="7.81591" fill="#D4F0DC" fill-opacity="0.4"/>
<rect x="121.862" y="68.4781" width="5.93693" height="8.81591" stroke="#3DD3A6" stroke-opacity="0.2" stroke-linecap="round"/>
<rect x="122.362" y="77.9105" width="4.93693" height="7.81591" fill="#D4F0DC" fill-opacity="0.4"/>
<rect x="121.862" y="77.4105" width="5.93693" height="8.81591" stroke="#3DD3A6" stroke-opacity="0.2" stroke-linecap="round"/>
<rect x="128.004" y="68.9781" width="4.93693" height="7.81591" fill="#D4F0DC" fill-opacity="0.4"/>
<rect x="127.504" y="68.4781" width="5.93693" height="8.81591" stroke="#3DD3A6" stroke-opacity="0.2" stroke-linecap="round"/>
<rect x="128.004" y="77.9105" width="4.93693" height="7.81591" fill="#D4F0DC" fill-opacity="0.4"/>
<rect x="127.504" y="77.4105" width="5.93693" height="8.81591" stroke="#3DD3A6" stroke-opacity="0.2" stroke-linecap="round"/>
<rect x="105.435" y="86.843" width="4.93693" height="7.81591" fill="#D4F0DC" fill-opacity="0.4"/>
<rect x="104.935" y="86.343" width="5.93693" height="8.81591" stroke="#3DD3A6" stroke-opacity="0.2" stroke-linecap="round"/>
<rect x="105.435" y="95.7755" width="4.93693" height="7.81591" fill="#D4F0DC" fill-opacity="0.4"/>
<rect x="104.935" y="95.2755" width="5.93693" height="8.81591" stroke="#3DD3A6" stroke-opacity="0.2" stroke-linecap="round"/>
<rect x="111.078" y="86.843" width="4.93693" height="7.81591" fill="#D4F0DC" fill-opacity="0.4"/>
<rect x="110.578" y="86.343" width="5.93693" height="8.81591" stroke="#3DD3A6" stroke-opacity="0.2" stroke-linecap="round"/>
<rect x="111.078" y="95.7755" width="4.93693" height="7.81591" fill="#D4F0DC" fill-opacity="0.4"/>
<rect x="110.578" y="95.2755" width="5.93693" height="8.81591" stroke="#3DD3A6" stroke-opacity="0.2" stroke-linecap="round"/>
<rect x="116.72" y="86.843" width="4.93693" height="7.81591" fill="#D4F0DC" fill-opacity="0.4"/>
<rect x="116.22" y="86.343" width="5.93693" height="8.81591" stroke="#3DD3A6" stroke-opacity="0.2" stroke-linecap="round"/>
<rect x="116.72" y="95.7755" width="4.93693" height="7.81591" fill="#D4F0DC" fill-opacity="0.4"/>
<rect x="116.22" y="95.2755" width="5.93693" height="8.81591" stroke="#3DD3A6" stroke-opacity="0.2" stroke-linecap="round"/>
<rect x="122.362" y="86.843" width="4.93693" height="7.81591" fill="#D4F0DC" fill-opacity="0.4"/>
<rect x="121.862" y="86.343" width="5.93693" height="8.81591" stroke="#3DD3A6" stroke-opacity="0.2" stroke-linecap="round"/>
<rect x="122.362" y="95.7755" width="4.93693" height="7.81591" fill="#D4F0DC" fill-opacity="0.4"/>
<rect x="121.862" y="95.2755" width="5.93693" height="8.81591" stroke="#3DD3A6" stroke-opacity="0.2" stroke-linecap="round"/>
<rect x="128.004" y="86.843" width="4.93693" height="7.81591" fill="#D4F0DC" fill-opacity="0.4"/>
<rect x="127.504" y="86.343" width="5.93693" height="8.81591" stroke="#3DD3A6" stroke-opacity="0.2" stroke-linecap="round"/>
<rect x="128.004" y="95.7755" width="4.93693" height="7.81591" fill="#D4F0DC" fill-opacity="0.4"/>
<rect x="127.504" y="95.2755" width="5.93693" height="8.81591" stroke="#3DD3A6" stroke-opacity="0.2" stroke-linecap="round"/>
<rect x="105.435" y="104.708" width="4.93693" height="7.81591" fill="#D4F0DC" fill-opacity="0.4"/>
<rect x="104.935" y="104.208" width="5.93693" height="8.81591" stroke="#3DD3A6" stroke-opacity="0.2" stroke-linecap="round"/>
<rect x="105.435" y="113.64" width="4.93693" height="7.81591" fill="#D4F0DC" fill-opacity="0.4"/>
<rect x="104.935" y="113.14" width="5.93693" height="8.81591" stroke="#3DD3A6" stroke-opacity="0.2" stroke-linecap="round"/>
<rect x="111.078" y="104.708" width="4.93693" height="7.81591" fill="#D4F0DC" fill-opacity="0.4"/>
<rect x="110.578" y="104.208" width="5.93693" height="8.81591" stroke="#3DD3A6" stroke-opacity="0.2" stroke-linecap="round"/>
<rect x="111.078" y="113.64" width="4.93693" height="7.81591" fill="#D4F0DC" fill-opacity="0.4"/>
<rect x="110.578" y="113.14" width="5.93693" height="8.81591" stroke="#3DD3A6" stroke-opacity="0.2" stroke-linecap="round"/>
<rect x="116.72" y="104.708" width="4.93693" height="7.81591" fill="#D4F0DC" fill-opacity="0.4"/>
<rect x="116.22" y="104.208" width="5.93693" height="8.81591" stroke="#3DD3A6" stroke-opacity="0.2" stroke-linecap="round"/>
<rect x="116.72" y="113.64" width="4.93693" height="7.81591" fill="#D4F0DC" fill-opacity="0.4"/>
<rect x="116.22" y="113.14" width="5.93693" height="8.81591" stroke="#3DD3A6" stroke-opacity="0.2" stroke-linecap="round"/>
<rect x="122.362" y="104.708" width="4.93693" height="7.81591" fill="#D4F0DC" fill-opacity="0.4"/>
<rect x="121.862" y="104.208" width="5.93693" height="8.81591" stroke="#3DD3A6" stroke-opacity="0.2" stroke-linecap="round"/>
<rect x="122.362" y="113.64" width="4.93693" height="7.81591" fill="#D4F0DC" fill-opacity="0.4"/>
<rect x="121.862" y="113.14" width="5.93693" height="8.81591" stroke="#3DD3A6" stroke-opacity="0.2" stroke-linecap="round"/>
<rect x="128.004" y="104.708" width="4.93693" height="7.81591" fill="#D4F0DC" fill-opacity="0.4"/>
<rect x="127.504" y="104.208" width="5.93693" height="8.81591" stroke="#3DD3A6" stroke-opacity="0.2" stroke-linecap="round"/>
<rect x="128.004" y="113.64" width="4.93693" height="7.81591" fill="#D4F0DC" fill-opacity="0.4"/>
<rect x="127.504" y="113.14" width="5.93693" height="8.81591" stroke="#3DD3A6" stroke-opacity="0.2" stroke-linecap="round"/>
<rect x="68.4448" y="33.2482" width="4.93693" height="7.81591" fill="#D4F0DC" fill-opacity="0.4"/>
<rect x="67.9448" y="32.7482" width="5.93693" height="8.81591" stroke="#3DD3A6" stroke-opacity="0.2" stroke-linecap="round"/>
<rect x="68.4448" y="42.1806" width="4.93693" height="7.81591" fill="#D4F0DC" fill-opacity="0.4"/>
<rect x="67.9448" y="41.6806" width="5.93693" height="8.81591" stroke="#3DD3A6" stroke-opacity="0.2" stroke-linecap="round"/>
<rect x="74.087" y="33.2481" width="4.93693" height="7.81591" fill="#D4F0DC" fill-opacity="0.4"/>
<rect x="73.587" y="32.7481" width="5.93693" height="8.81591" stroke="#3DD3A6" stroke-opacity="0.2" stroke-linecap="round"/>
<rect x="74.087" y="42.1806" width="4.93693" height="7.81591" fill="#D4F0DC" fill-opacity="0.4"/>
<rect x="73.587" y="41.6806" width="5.93693" height="8.81591" stroke="#3DD3A6" stroke-opacity="0.2" stroke-linecap="round"/>
<rect x="79.7292" y="33.2481" width="4.93693" height="7.81591" fill="#D4F0DC" fill-opacity="0.4"/>
<rect x="79.2292" y="32.7481" width="5.93693" height="8.81591" stroke="#3DD3A6" stroke-opacity="0.2" stroke-linecap="round"/>
<rect x="79.7292" y="42.1806" width="4.93693" height="7.81591" fill="#D4F0DC" fill-opacity="0.4"/>
<rect x="79.2292" y="41.6806" width="5.93693" height="8.81591" stroke="#3DD3A6" stroke-opacity="0.2" stroke-linecap="round"/>
<rect x="85.3714" y="33.2481" width="4.93693" height="7.81591" fill="#D4F0DC" fill-opacity="0.4"/>
<rect x="84.8714" y="32.7481" width="5.93693" height="8.81591" stroke="#3DD3A6" stroke-opacity="0.2" stroke-linecap="round"/>
<rect x="85.3714" y="42.1806" width="4.93693" height="7.81591" fill="#D4F0DC" fill-opacity="0.4"/>
<rect x="84.8714" y="41.6806" width="5.93693" height="8.81591" stroke="#3DD3A6" stroke-opacity="0.2" stroke-linecap="round"/>
<rect x="91.0136" y="33.2481" width="4.93693" height="7.81591" fill="#D4F0DC" fill-opacity="0.4"/>
<rect x="90.5136" y="32.7481" width="5.93693" height="8.81591" stroke="#3DD3A6" stroke-opacity="0.2" stroke-linecap="round"/>
<rect x="91.0136" y="42.1806" width="4.93693" height="7.81591" fill="#D4F0DC" fill-opacity="0.4"/>
<rect x="90.5136" y="41.6806" width="5.93693" height="8.81591" stroke="#3DD3A6" stroke-opacity="0.2" stroke-linecap="round"/>
<rect x="68.4448" y="51.1131" width="4.93693" height="7.81591" fill="#D4F0DC" fill-opacity="0.4"/>
<rect x="67.9448" y="50.6131" width="5.93693" height="8.81591" stroke="#3DD3A6" stroke-opacity="0.2" stroke-linecap="round"/>
<rect x="68.4448" y="60.0455" width="4.93693" height="7.81591" fill="#D4F0DC" fill-opacity="0.4"/>
<rect x="67.9448" y="59.5455" width="5.93693" height="8.81591" stroke="#3DD3A6" stroke-opacity="0.2" stroke-linecap="round"/>
<rect x="74.087" y="51.1131" width="4.93693" height="7.81591" fill="#D4F0DC" fill-opacity="0.4"/>
<rect x="73.587" y="50.6131" width="5.93693" height="8.81591" stroke="#3DD3A6" stroke-opacity="0.2" stroke-linecap="round"/>
<rect x="74.087" y="60.0455" width="4.93693" height="7.81591" fill="#D4F0DC" fill-opacity="0.4"/>
<rect x="73.587" y="59.5455" width="5.93693" height="8.81591" stroke="#3DD3A6" stroke-opacity="0.2" stroke-linecap="round"/>
<rect x="79.7292" y="51.1131" width="4.93693" height="7.81591" fill="#D4F0DC" fill-opacity="0.4"/>
<rect x="79.2292" y="50.6131" width="5.93693" height="8.81591" stroke="#3DD3A6" stroke-opacity="0.2" stroke-linecap="round"/>
<rect x="79.7292" y="60.0455" width="4.93693" height="7.81591" fill="#D4F0DC" fill-opacity="0.4"/>
<rect x="79.2292" y="59.5455" width="5.93693" height="8.81591" stroke="#3DD3A6" stroke-opacity="0.2" stroke-linecap="round"/>
<rect x="85.3714" y="51.1131" width="4.93693" height="7.81591" fill="#D4F0DC" fill-opacity="0.4"/>
<rect x="84.8714" y="50.6131" width="5.93693" height="8.81591" stroke="#3DD3A6" stroke-opacity="0.2" stroke-linecap="round"/>
<rect x="85.3714" y="60.0455" width="4.93693" height="7.81591" fill="#D4F0DC" fill-opacity="0.4"/>
<rect x="84.8714" y="59.5455" width="5.93693" height="8.81591" stroke="#3DD3A6" stroke-opacity="0.2" stroke-linecap="round"/>
<rect x="91.0136" y="51.1131" width="4.93693" height="7.81591" fill="#D4F0DC" fill-opacity="0.4"/>
<rect x="90.5136" y="50.6131" width="5.93693" height="8.81591" stroke="#3DD3A6" stroke-opacity="0.2" stroke-linecap="round"/>
<rect x="91.0136" y="60.0455" width="4.93693" height="7.81591" fill="#D4F0DC" fill-opacity="0.4"/>
<rect x="90.5136" y="59.5455" width="5.93693" height="8.81591" stroke="#3DD3A6" stroke-opacity="0.2" stroke-linecap="round"/>
<rect x="68.4448" y="68.9781" width="4.93693" height="7.81591" fill="#D4F0DC" fill-opacity="0.4"/>
<rect x="67.9448" y="68.4781" width="5.93693" height="8.81591" stroke="#3DD3A6" stroke-opacity="0.2" stroke-linecap="round"/>
<rect x="68.4448" y="77.9105" width="4.93693" height="7.81591" fill="#D4F0DC" fill-opacity="0.4"/>
<rect x="67.9448" y="77.4105" width="5.93693" height="8.81591" stroke="#3DD3A6" stroke-opacity="0.2" stroke-linecap="round"/>
<rect x="74.087" y="68.9781" width="4.93693" height="7.81591" fill="#D4F0DC" fill-opacity="0.4"/>
<rect x="73.587" y="68.4781" width="5.93693" height="8.81591" stroke="#3DD3A6" stroke-opacity="0.2" stroke-linecap="round"/>
<rect x="74.087" y="77.9105" width="4.93693" height="7.81591" fill="#D4F0DC" fill-opacity="0.4"/>
<rect x="73.587" y="77.4105" width="5.93693" height="8.81591" stroke="#3DD3A6" stroke-opacity="0.2" stroke-linecap="round"/>
<rect x="79.7292" y="68.9781" width="4.93693" height="7.81591" fill="#D4F0DC" fill-opacity="0.4"/>
<rect x="79.2292" y="68.4781" width="5.93693" height="8.81591" stroke="#3DD3A6" stroke-opacity="0.2" stroke-linecap="round"/>
<rect x="79.7292" y="77.9105" width="4.93693" height="7.81591" fill="#D4F0DC" fill-opacity="0.4"/>
<rect x="79.2292" y="77.4105" width="5.93693" height="8.81591" stroke="#3DD3A6" stroke-opacity="0.2" stroke-linecap="round"/>
<rect x="85.3714" y="68.9781" width="4.93693" height="7.81591" fill="#D4F0DC" fill-opacity="0.4"/>
<rect x="84.8714" y="68.4781" width="5.93693" height="8.81591" stroke="#3DD3A6" stroke-opacity="0.2" stroke-linecap="round"/>
<rect x="85.3714" y="77.9105" width="4.93693" height="7.81591" fill="#D4F0DC" fill-opacity="0.4"/>
<rect x="84.8714" y="77.4105" width="5.93693" height="8.81591" stroke="#3DD3A6" stroke-opacity="0.2" stroke-linecap="round"/>
<rect x="91.0136" y="68.9781" width="4.93693" height="7.81591" fill="#D4F0DC" fill-opacity="0.4"/>
<rect x="90.5136" y="68.4781" width="5.93693" height="8.81591" stroke="#3DD3A6" stroke-opacity="0.2" stroke-linecap="round"/>
<rect x="91.0136" y="77.9105" width="4.93693" height="7.81591" fill="#D4F0DC" fill-opacity="0.4"/>
<rect x="90.5136" y="77.4105" width="5.93693" height="8.81591" stroke="#3DD3A6" stroke-opacity="0.2" stroke-linecap="round"/>
<rect x="68.4448" y="86.843" width="4.93693" height="7.81591" fill="#D4F0DC" fill-opacity="0.4"/>
<rect x="67.9448" y="86.343" width="5.93693" height="8.81591" stroke="#3DD3A6" stroke-opacity="0.2" stroke-linecap="round"/>
<rect x="68.4448" y="95.7755" width="4.93693" height="7.81591" fill="#D4F0DC" fill-opacity="0.4"/>
<rect x="67.9448" y="95.2755" width="5.93693" height="8.81591" stroke="#3DD3A6" stroke-opacity="0.2" stroke-linecap="round"/>
<rect x="74.087" y="86.843" width="4.93693" height="7.81591" fill="#D4F0DC" fill-opacity="0.4"/>
<rect x="73.587" y="86.343" width="5.93693" height="8.81591" stroke="#3DD3A6" stroke-opacity="0.2" stroke-linecap="round"/>
<rect x="74.087" y="95.7755" width="4.93693" height="7.81591" fill="#D4F0DC" fill-opacity="0.4"/>
<rect x="73.587" y="95.2755" width="5.93693" height="8.81591" stroke="#3DD3A6" stroke-opacity="0.2" stroke-linecap="round"/>
<rect x="79.7292" y="86.843" width="4.93693" height="7.81591" fill="#D4F0DC" fill-opacity="0.4"/>
<rect x="79.2292" y="86.343" width="5.93693" height="8.81591" stroke="#3DD3A6" stroke-opacity="0.2" stroke-linecap="round"/>
<rect x="79.7292" y="95.7755" width="4.93693" height="7.81591" fill="#D4F0DC" fill-opacity="0.4"/>
<rect x="79.2292" y="95.2755" width="5.93693" height="8.81591" stroke="#3DD3A6" stroke-opacity="0.2" stroke-linecap="round"/>
<rect x="85.3714" y="86.843" width="4.93693" height="7.81591" fill="#D4F0DC" fill-opacity="0.4"/>
<rect x="84.8714" y="86.343" width="5.93693" height="8.81591" stroke="#3DD3A6" stroke-opacity="0.2" stroke-linecap="round"/>
<rect x="85.3714" y="95.7755" width="4.93693" height="7.81591" fill="#D4F0DC" fill-opacity="0.4"/>
<rect x="84.8714" y="95.2755" width="5.93693" height="8.81591" stroke="#3DD3A6" stroke-opacity="0.2" stroke-linecap="round"/>
<rect x="91.0136" y="86.843" width="4.93693" height="7.81591" fill="#D4F0DC" fill-opacity="0.4"/>
<rect x="90.5136" y="86.343" width="5.93693" height="8.81591" stroke="#3DD3A6" stroke-opacity="0.2" stroke-linecap="round"/>
<rect x="91.0136" y="95.7755" width="4.93693" height="7.81591" fill="#D4F0DC" fill-opacity="0.4"/>
<rect x="90.5136" y="95.2755" width="5.93693" height="8.81591" stroke="#3DD3A6" stroke-opacity="0.2" stroke-linecap="round"/>
<rect x="68.4448" y="104.708" width="4.93693" height="7.81591" fill="#D4F0DC" fill-opacity="0.4"/>
<rect x="67.9448" y="104.208" width="5.93693" height="8.81591" stroke="#3DD3A6" stroke-opacity="0.2" stroke-linecap="round"/>
<rect x="68.4448" y="113.64" width="4.93693" height="7.81591" fill="#D4F0DC" fill-opacity="0.4"/>
<rect x="67.9448" y="113.14" width="5.93693" height="8.81591" stroke="#3DD3A6" stroke-opacity="0.2" stroke-linecap="round"/>
<rect x="74.087" y="104.708" width="4.93693" height="7.81591" fill="#D4F0DC" fill-opacity="0.4"/>
<rect x="73.587" y="104.208" width="5.93693" height="8.81591" stroke="#3DD3A6" stroke-opacity="0.2" stroke-linecap="round"/>
<rect x="74.087" y="113.64" width="4.93693" height="7.81591" fill="#D4F0DC" fill-opacity="0.4"/>
<rect x="73.587" y="113.14" width="5.93693" height="8.81591" stroke="#3DD3A6" stroke-opacity="0.2" stroke-linecap="round"/>
<rect x="79.7292" y="104.708" width="4.93693" height="7.81591" fill="#D4F0DC" fill-opacity="0.4"/>
<rect x="79.2292" y="104.208" width="5.93693" height="8.81591" stroke="#3DD3A6" stroke-opacity="0.2" stroke-linecap="round"/>
<rect x="79.7292" y="113.64" width="4.93693" height="7.81591" fill="#D4F0DC" fill-opacity="0.4"/>
<rect x="79.2292" y="113.14" width="5.93693" height="8.81591" stroke="#3DD3A6" stroke-opacity="0.2" stroke-linecap="round"/>
<rect x="85.3714" y="104.708" width="4.93693" height="7.81591" fill="#D4F0DC" fill-opacity="0.4"/>
<rect x="84.8714" y="104.208" width="5.93693" height="8.81591" stroke="#3DD3A6" stroke-opacity="0.2" stroke-linecap="round"/>
<rect x="85.3714" y="113.64" width="4.93693" height="7.81591" fill="#D4F0DC" fill-opacity="0.4"/>
<rect x="84.8714" y="113.14" width="5.93693" height="8.81591" stroke="#3DD3A6" stroke-opacity="0.2" stroke-linecap="round"/>
<rect x="91.0136" y="104.708" width="4.93693" height="7.81591" fill="#D4F0DC" fill-opacity="0.4"/>
<rect x="90.5136" y="104.208" width="5.93693" height="8.81591" stroke="#3DD3A6" stroke-opacity="0.2" stroke-linecap="round"/>
<rect x="91.0136" y="113.64" width="4.93693" height="7.81591" fill="#D4F0DC" fill-opacity="0.4"/>
<rect x="90.5136" y="113.14" width="5.93693" height="8.81591" stroke="#3DD3A6" stroke-opacity="0.2" stroke-linecap="round"/>
<rect x="147.168" y="33.2482" width="6.63932" height="6.63932" fill="#D4F0DC" fill-opacity="0.4"/>
<rect x="146.668" y="32.7482" width="7.63932" height="7.63932" stroke="#3DD3A6" stroke-opacity="0.2" stroke-linecap="round"/>
<rect x="147.168" y="40.8359" width="6.63932" height="6.63932" fill="#D4F0DC" fill-opacity="0.4"/>
<rect x="146.668" y="40.3359" width="7.63932" height="7.63932" stroke="#3DD3A6" stroke-opacity="0.2" stroke-linecap="round"/>
<rect x="154.756" y="33.2481" width="6.63932" height="6.63932" fill="#D4F0DC" fill-opacity="0.4"/>
<rect x="154.256" y="32.7481" width="7.63932" height="7.63932" stroke="#3DD3A6" stroke-opacity="0.2" stroke-linecap="round"/>
<rect x="154.756" y="40.8359" width="6.63932" height="6.63932" fill="#D4F0DC" fill-opacity="0.4"/>
<rect x="154.256" y="40.3359" width="7.63932" height="7.63932" stroke="#3DD3A6" stroke-opacity="0.2" stroke-linecap="round"/>
<rect x="162.344" y="33.2481" width="6.63932" height="6.63932" fill="#D4F0DC" fill-opacity="0.4"/>
<rect x="161.844" y="32.7481" width="7.63932" height="7.63932" stroke="#3DD3A6" stroke-opacity="0.2" stroke-linecap="round"/>
<rect x="162.344" y="40.8359" width="6.63932" height="6.63932" fill="#D4F0DC" fill-opacity="0.4"/>
<rect x="161.844" y="40.3359" width="7.63932" height="7.63932" stroke="#3DD3A6" stroke-opacity="0.2" stroke-linecap="round"/>
<rect x="169.932" y="33.2481" width="6.63932" height="6.63932" fill="#D4F0DC" fill-opacity="0.4"/>
<rect x="169.432" y="32.7481" width="7.63932" height="7.63932" stroke="#3DD3A6" stroke-opacity="0.2" stroke-linecap="round"/>
<rect x="169.932" y="40.8359" width="6.63932" height="6.63932" fill="#D4F0DC" fill-opacity="0.4"/>
<rect x="169.432" y="40.3359" width="7.63932" height="7.63932" stroke="#3DD3A6" stroke-opacity="0.2" stroke-linecap="round"/>
<rect x="177.519" y="33.2481" width="6.63932" height="6.63932" fill="#D4F0DC" fill-opacity="0.4"/>
<rect x="177.019" y="32.7481" width="7.63932" height="7.63932" stroke="#3DD3A6" stroke-opacity="0.2" stroke-linecap="round"/>
<rect x="177.519" y="40.8359" width="6.63932" height="6.63932" fill="#D4F0DC" fill-opacity="0.4"/>
<rect x="177.019" y="40.3359" width="7.63932" height="7.63932" stroke="#3DD3A6" stroke-opacity="0.2" stroke-linecap="round"/>
<rect x="147.168" y="48.4237" width="6.63932" height="6.63932" fill="#D4F0DC" fill-opacity="0.4"/>
<rect x="146.668" y="47.9237" width="7.63932" height="7.63932" stroke="#3DD3A6" stroke-opacity="0.2" stroke-linecap="round"/>
<rect x="147.168" y="56.0115" width="6.63932" height="6.63932" fill="#D4F0DC" fill-opacity="0.4"/>
<rect x="146.668" y="55.5115" width="7.63932" height="7.63932" stroke="#3DD3A6" stroke-opacity="0.2" stroke-linecap="round"/>
<rect x="154.756" y="48.4237" width="6.63932" height="6.63932" fill="#D4F0DC" fill-opacity="0.4"/>
<rect x="154.256" y="47.9237" width="7.63932" height="7.63932" stroke="#3DD3A6" stroke-opacity="0.2" stroke-linecap="round"/>
<rect x="154.756" y="56.0115" width="6.63932" height="6.63932" fill="#D4F0DC" fill-opacity="0.4"/>
<rect x="154.256" y="55.5115" width="7.63932" height="7.63932" stroke="#3DD3A6" stroke-opacity="0.2" stroke-linecap="round"/>
<rect x="162.344" y="48.4237" width="6.63932" height="6.63932" fill="#D4F0DC" fill-opacity="0.4"/>
<rect x="161.844" y="47.9237" width="7.63932" height="7.63932" stroke="#3DD3A6" stroke-opacity="0.2" stroke-linecap="round"/>
<rect x="162.344" y="56.0115" width="6.63932" height="6.63932" fill="#D4F0DC" fill-opacity="0.4"/>
<rect x="161.844" y="55.5115" width="7.63932" height="7.63932" stroke="#3DD3A6" stroke-opacity="0.2" stroke-linecap="round"/>
<rect x="169.932" y="48.4237" width="6.63932" height="6.63932" fill="#D4F0DC" fill-opacity="0.4"/>
<rect x="169.432" y="47.9237" width="7.63932" height="7.63932" stroke="#3DD3A6" stroke-opacity="0.2" stroke-linecap="round"/>
<rect x="169.932" y="56.0115" width="6.63932" height="6.63932" fill="#D4F0DC" fill-opacity="0.4"/>
<rect x="169.432" y="55.5115" width="7.63932" height="7.63932" stroke="#3DD3A6" stroke-opacity="0.2" stroke-linecap="round"/>
<rect x="177.519" y="48.4237" width="6.63932" height="6.63932" fill="#D4F0DC" fill-opacity="0.4"/>
<rect x="177.019" y="47.9237" width="7.63932" height="7.63932" stroke="#3DD3A6" stroke-opacity="0.2" stroke-linecap="round"/>
<rect x="177.519" y="56.0115" width="6.63932" height="6.63932" fill="#D4F0DC" fill-opacity="0.4"/>
<rect x="177.019" y="55.5115" width="7.63932" height="7.63932" stroke="#3DD3A6" stroke-opacity="0.2" stroke-linecap="round"/>
<rect x="147.168" y="63.5993" width="6.63932" height="6.63932" fill="#D4F0DC" fill-opacity="0.4"/>
<rect x="146.668" y="63.0993" width="7.63932" height="7.63932" stroke="#3DD3A6" stroke-opacity="0.2" stroke-linecap="round"/>
<rect x="147.168" y="71.1871" width="6.63932" height="6.63932" fill="#D4F0DC" fill-opacity="0.4"/>
<rect x="146.668" y="70.6871" width="7.63932" height="7.63932" stroke="#3DD3A6" stroke-opacity="0.2" stroke-linecap="round"/>
<rect x="154.756" y="63.5993" width="6.63932" height="6.63932" fill="#D4F0DC" fill-opacity="0.4"/>
<rect x="154.256" y="63.0993" width="7.63932" height="7.63932" stroke="#3DD3A6" stroke-opacity="0.2" stroke-linecap="round"/>
<rect x="154.756" y="71.1871" width="6.63932" height="6.63932" fill="#D4F0DC" fill-opacity="0.4"/>
<rect x="154.256" y="70.6871" width="7.63932" height="7.63932" stroke="#3DD3A6" stroke-opacity="0.2" stroke-linecap="round"/>
<rect x="162.344" y="63.5993" width="6.63932" height="6.63932" fill="#D4F0DC" fill-opacity="0.4"/>
<rect x="161.844" y="63.0993" width="7.63932" height="7.63932" stroke="#3DD3A6" stroke-opacity="0.2" stroke-linecap="round"/>
<rect x="162.344" y="71.1871" width="6.63932" height="6.63932" fill="#D4F0DC" fill-opacity="0.4"/>
<rect x="161.844" y="70.6871" width="7.63932" height="7.63932" stroke="#3DD3A6" stroke-opacity="0.2" stroke-linecap="round"/>
<rect x="169.932" y="63.5993" width="6.63932" height="6.63932" fill="#D4F0DC" fill-opacity="0.4"/>
<rect x="169.432" y="63.0993" width="7.63932" height="7.63932" stroke="#3DD3A6" stroke-opacity="0.2" stroke-linecap="round"/>
<rect x="169.932" y="71.1871" width="6.63932" height="6.63932" fill="#D4F0DC" fill-opacity="0.4"/>
<rect x="169.432" y="70.6871" width="7.63932" height="7.63932" stroke="#3DD3A6" stroke-opacity="0.2" stroke-linecap="round"/>
<rect x="177.519" y="63.5993" width="6.63932" height="6.63932" fill="#D4F0DC" fill-opacity="0.4"/>
<rect x="177.019" y="63.0993" width="7.63932" height="7.63932" stroke="#3DD3A6" stroke-opacity="0.2" stroke-linecap="round"/>
<rect x="177.519" y="71.1871" width="6.63932" height="6.63932" fill="#D4F0DC" fill-opacity="0.4"/>
<rect x="177.019" y="70.6871" width="7.63932" height="7.63932" stroke="#3DD3A6" stroke-opacity="0.2" stroke-linecap="round"/>
<rect x="147.168" y="78.7749" width="6.63932" height="6.63932" fill="#D4F0DC" fill-opacity="0.4"/>
<rect x="146.668" y="78.2749" width="7.63932" height="7.63932" stroke="#3DD3A6" stroke-opacity="0.2" stroke-linecap="round"/>
<rect x="147.168" y="86.3627" width="6.63932" height="6.63932" fill="#D4F0DC" fill-opacity="0.4"/>
<rect x="146.668" y="85.8627" width="7.63932" height="7.63932" stroke="#3DD3A6" stroke-opacity="0.2" stroke-linecap="round"/>
<rect x="154.756" y="78.7749" width="6.63932" height="6.63932" fill="#D4F0DC" fill-opacity="0.4"/>
<rect x="154.256" y="78.2749" width="7.63932" height="7.63932" stroke="#3DD3A6" stroke-opacity="0.2" stroke-linecap="round"/>
<rect x="154.756" y="86.3627" width="6.63932" height="6.63932" fill="#D4F0DC" fill-opacity="0.4"/>
<rect x="154.256" y="85.8627" width="7.63932" height="7.63932" stroke="#3DD3A6" stroke-opacity="0.2" stroke-linecap="round"/>
<rect x="162.344" y="78.7749" width="6.63932" height="6.63932" fill="#D4F0DC" fill-opacity="0.4"/>
<rect x="161.844" y="78.2749" width="7.63932" height="7.63932" stroke="#3DD3A6" stroke-opacity="0.2" stroke-linecap="round"/>
<rect x="162.344" y="86.3627" width="6.63932" height="6.63932" fill="#D4F0DC" fill-opacity="0.4"/>
<rect x="161.844" y="85.8627" width="7.63932" height="7.63932" stroke="#3DD3A6" stroke-opacity="0.2" stroke-linecap="round"/>
<rect x="169.932" y="78.7749" width="6.63932" height="6.63932" fill="#D4F0DC" fill-opacity="0.4"/>
<rect x="169.432" y="78.2749" width="7.63932" height="7.63932" stroke="#3DD3A6" stroke-opacity="0.2" stroke-linecap="round"/>
<rect x="169.932" y="86.3627" width="6.63932" height="6.63932" fill="#D4F0DC" fill-opacity="0.4"/>
<rect x="169.432" y="85.8627" width="7.63932" height="7.63932" stroke="#3DD3A6" stroke-opacity="0.2" stroke-linecap="round"/>
<rect x="177.519" y="78.7749" width="6.63932" height="6.63932" fill="#D4F0DC" fill-opacity="0.4"/>
<rect x="177.019" y="78.2749" width="7.63932" height="7.63932" stroke="#3DD3A6" stroke-opacity="0.2" stroke-linecap="round"/>
<rect x="177.519" y="86.3627" width="6.63932" height="6.63932" fill="#D4F0DC" fill-opacity="0.4"/>
<rect x="177.019" y="85.8627" width="7.63932" height="7.63932" stroke="#3DD3A6" stroke-opacity="0.2" stroke-linecap="round"/>
<rect x="147.168" y="93.9505" width="6.63932" height="6.63932" fill="#D4F0DC" fill-opacity="0.4"/>
<rect x="146.668" y="93.4505" width="7.63932" height="7.63932" stroke="#3DD3A6" stroke-opacity="0.2" stroke-linecap="round"/>
<rect x="147.168" y="101.538" width="6.63932" height="6.63932" fill="#D4F0DC" fill-opacity="0.4"/>
<rect x="146.668" y="101.038" width="7.63932" height="7.63932" stroke="#3DD3A6" stroke-opacity="0.2" stroke-linecap="round"/>
<rect x="154.756" y="93.9505" width="6.63932" height="6.63932" fill="#D4F0DC" fill-opacity="0.4"/>
<rect x="154.256" y="93.4505" width="7.63932" height="7.63932" stroke="#3DD3A6" stroke-opacity="0.2" stroke-linecap="round"/>
<rect x="154.756" y="101.538" width="6.63932" height="6.63932" fill="#D4F0DC" fill-opacity="0.4"/>
<rect x="154.256" y="101.038" width="7.63932" height="7.63932" stroke="#3DD3A6" stroke-opacity="0.2" stroke-linecap="round"/>
<rect x="162.344" y="93.9505" width="6.63932" height="6.63932" fill="#D4F0DC" fill-opacity="0.4"/>
<rect x="161.844" y="93.4505" width="7.63932" height="7.63932" stroke="#3DD3A6" stroke-opacity="0.2" stroke-linecap="round"/>
<rect x="162.344" y="101.538" width="6.63932" height="6.63932" fill="#D4F0DC" fill-opacity="0.4"/>
<rect x="161.844" y="101.038" width="7.63932" height="7.63932" stroke="#3DD3A6" stroke-opacity="0.2" stroke-linecap="round"/>
<rect x="169.932" y="93.9505" width="6.63932" height="6.63932" fill="#D4F0DC" fill-opacity="0.4"/>
<rect x="169.432" y="93.4505" width="7.63932" height="7.63932" stroke="#3DD3A6" stroke-opacity="0.2" stroke-linecap="round"/>
<rect x="169.932" y="101.538" width="6.63932" height="6.63932" fill="#D4F0DC" fill-opacity="0.4"/>
<rect x="169.432" y="101.038" width="7.63932" height="7.63932" stroke="#3DD3A6" stroke-opacity="0.2" stroke-linecap="round"/>
<rect x="177.519" y="93.9505" width="6.63932" height="6.63932" fill="#D4F0DC" fill-opacity="0.4"/>
<rect x="177.019" y="93.4505" width="7.63932" height="7.63932" stroke="#3DD3A6" stroke-opacity="0.2" stroke-linecap="round"/>
<rect x="177.519" y="101.538" width="6.63932" height="6.63932" fill="#D4F0DC" fill-opacity="0.4"/>
<rect x="177.019" y="101.038" width="7.63932" height="7.63932" stroke="#3DD3A6" stroke-opacity="0.2" stroke-linecap="round"/>
<g filter="url(#filter0_d)">
<mask id="path-401-outside-1" maskUnits="userSpaceOnUse" x="2" y="0" width="198" height="123" fill="black">
<rect fill="white" x="2" width="198" height="123"/>
<path fill-rule="evenodd" clip-rule="evenodd" d="M187.953 19.9695V1H16.2787V19.9695H3V121.456H67.4963V32.2997H95.9505V121.456H105.435V32.2997H133.89V121.456H198.386V19.9695H187.953ZM185.107 32.2997V109.126H146.22V32.2997H185.107ZM55.1661 32.2997V109.126H16.2787V32.2997H55.1661ZM174.674 9.53627H29.5573V19.9695H174.674V9.53627Z"/>
</mask>
<path fill-rule="evenodd" clip-rule="evenodd" d="M187.953 19.9695V1H16.2787V19.9695H3V121.456H67.4963V32.2997H95.9505V121.456H105.435V32.2997H133.89V121.456H198.386V19.9695H187.953ZM185.107 32.2997V109.126H146.22V32.2997H185.107ZM55.1661 32.2997V109.126H16.2787V32.2997H55.1661ZM174.674 9.53627H29.5573V19.9695H174.674V9.53627Z" fill="#D8F0D4"/>
<path d="M187.953 1H188.953V0H187.953V1ZM187.953 19.9695H186.953V20.9695H187.953V19.9695ZM16.2787 1V0H15.2787V1H16.2787ZM16.2787 19.9695V20.9695H17.2787V19.9695H16.2787ZM3 19.9695V18.9695H2V19.9695H3ZM3 121.456H2V122.456H3V121.456ZM67.4963 121.456V122.456H68.4963V121.456H67.4963ZM67.4963 32.2997V31.2997H66.4963V32.2997H67.4963ZM95.9505 32.2997H96.9505V31.2997H95.9505V32.2997ZM95.9505 121.456H94.9505V122.456H95.9505V121.456ZM105.435 121.456V122.456H106.435V121.456H105.435ZM105.435 32.2997V31.2997H104.435V32.2997H105.435ZM133.89 32.2997H134.89V31.2997H133.89V32.2997ZM133.89 121.456H132.89V122.456H133.89V121.456ZM198.386 121.456V122.456H199.386V121.456H198.386ZM198.386 19.9695H199.386V18.9695H198.386V19.9695ZM185.107 109.126V110.126H186.107V109.126H185.107ZM185.107 32.2997H186.107V31.2997H185.107V32.2997ZM146.22 109.126H145.22V110.126H146.22V109.126ZM146.22 32.2997V31.2997H145.22V32.2997H146.22ZM55.1661 109.126V110.126H56.1661V109.126H55.1661ZM55.1661 32.2997H56.1661V31.2997H55.1661V32.2997ZM16.2787 109.126H15.2787V110.126H16.2787V109.126ZM16.2787 32.2997V31.2997H15.2787V32.2997H16.2787ZM29.5573 9.53627V8.53627H28.5573V9.53627H29.5573ZM174.674 9.53627H175.674V8.53627H174.674V9.53627ZM29.5573 19.9695H28.5573V20.9695H29.5573V19.9695ZM174.674 19.9695V20.9695H175.674V19.9695H174.674ZM186.953 1V19.9695H188.953V1H186.953ZM16.2787 2H187.953V0H16.2787V2ZM17.2787 19.9695V1H15.2787V19.9695H17.2787ZM3 20.9695H16.2787V18.9695H3V20.9695ZM4 121.456V19.9695H2V121.456H4ZM67.4963 120.456H3V122.456H67.4963V120.456ZM66.4963 32.2997V121.456H68.4963V32.2997H66.4963ZM95.9505 31.2997H67.4963V33.2997H95.9505V31.2997ZM96.9505 121.456V32.2997H94.9505V121.456H96.9505ZM105.435 120.456H95.9505V122.456H105.435V120.456ZM104.435 32.2997V121.456H106.435V32.2997H104.435ZM133.89 31.2997H105.435V33.2997H133.89V31.2997ZM134.89 121.456V32.2997H132.89V121.456H134.89ZM198.386 120.456H133.89V122.456H198.386V120.456ZM197.386 19.9695V121.456H199.386V19.9695H197.386ZM187.953 20.9695H198.386V18.9695H187.953V20.9695ZM186.107 109.126V32.2997H184.107V109.126H186.107ZM146.22 110.126H185.107V108.126H146.22V110.126ZM145.22 32.2997V109.126H147.22V32.2997H145.22ZM185.107 31.2997H146.22V33.2997H185.107V31.2997ZM56.1661 109.126V32.2997H54.1661V109.126H56.1661ZM16.2787 110.126H55.1661V108.126H16.2787V110.126ZM15.2787 32.2997V109.126H17.2787V32.2997H15.2787ZM55.1661 31.2997H16.2787V33.2997H55.1661V31.2997ZM29.5573 10.5363H174.674V8.53627H29.5573V10.5363ZM30.5573 19.9695V9.53627H28.5573V19.9695H30.5573ZM174.674 18.9695H29.5573V20.9695H174.674V18.9695ZM173.674 9.53627V19.9695H175.674V9.53627H173.674Z" fill="#3DD379" mask="url(#path-401-outside-1)"/>
</g>
<defs>
<filter id="filter0_d" x="0" y="0" width="201.386" height="126.456" filterUnits="userSpaceOnUse" color-interpolation-filters="sRGB">
<feFlood flood-opacity="0" result="BackgroundImageFix"/>
<feColorMatrix in="SourceAlpha" type="matrix" values="0 0 0 0 0 0 0 0 0 0 0 0 0 0 0 0 0 0 127 0"/>
<feOffset dy="2"/>
<feGaussianBlur stdDeviation="1"/>
<feColorMatrix type="matrix" values="0 0 0 0 0.475284 0 0 0 0 0.475284 0 0 0 0 0.475284 0 0 0 0.25 0"/>
<feBlend mode="normal" in2="BackgroundImageFix" result="effect1_dropShadow"/>
<feBlend mode="normal" in="SourceGraphic" in2="effect1_dropShadow" result="shape"/>
</filter>
</defs>
</svg>
