<svg width="366" height="98" viewBox="0 0 366 98" fill="none" xmlns="http://www.w3.org/2000/svg">
<g filter="url(#filter0_d)">
<path fill-rule="evenodd" clip-rule="evenodd" d="M361.722 80.1737C362.195 78.1793 363.195 72.9941 363.417 68.2087C363.694 62.2268 361.12 53.1153 359.406 49.4145C358.036 46.4539 355.98 42.2979 355.123 40.5899L356.539 33.7522L348.279 33.7622C346.854 33.1943 343.662 32.0588 342.295 32.0605L332.611 32.0723L331.468 29.2253L301.276 29.2621L301.279 32.1104L299.285 32.1129L299.283 30.119L296.435 30.1225L296.431 27.2742C296.43 26.1348 296.429 25.2803 294.72 25.2824L273.072 25.3088C271.363 25.3109 271.08 26.4505 271.081 27.305L271.084 30.1534L267.382 30.1579L267.376 25.3157L152.018 25.4562C151.817 25.4564 151.615 25.4538 151.416 25.4511C149.642 25.4277 148.031 25.4064 148.033 27.4549L148.052 43.4056L136.944 43.4191L136.93 31.741L135.221 31.743L135.216 27.7554C135.215 26.9009 134.929 26.3316 133.505 26.3333L48.9098 26.4363C47.5814 27.1025 44.9246 28.4919 44.9249 28.7198C44.9252 28.9477 39.6081 28.8212 36.9495 28.7295L36.9513 30.1537L16.1585 30.179L16.1567 28.7548C16.1557 27.9003 15.585 27.0465 14.4456 27.0479L-9.48037 27.077C-10.1045 27.0778 -10.3867 27.0782 -10.5142 27.2188C-10.6194 27.3349 -10.6191 27.5465 -10.6187 27.9329L-10.6152 30.7813C-27.5152 30.8968 -61.6 31.1282 -62.7393 31.1296C-63.8787 31.131 -69.8639 28.1 -72.7141 26.5844L-74.7079 26.5868L-74.6926 39.1195L-77.2561 39.1226L-77.2152 72.7329C-77.2142 73.5874 -76.9286 74.1567 -76.359 74.156L-74.65 74.154L-74.6413 81.2748L-52.1371 81.2474C-52.5056 82.2216 -52.7067 83.2779 -52.7054 84.3813C-52.6994 89.2579 -48.7414 93.2063 -43.8648 93.2004C-39.0835 93.1946 -35.1943 89.3895 -35.0499 84.6445L-32.7667 84.6419C-32.7644 86.5296 -31.2322 88.058 -29.3445 88.0557L-19.6602 88.0439C-17.7725 88.0416 -16.244 86.5093 -16.2463 84.6216L-15.1026 84.6202C-14.9465 89.3648 -11.0482 93.1604 -6.26685 93.1546C-1.39024 93.1486 2.55816 89.1906 2.55222 84.314C2.55088 83.2106 2.34723 82.1548 1.97639 81.1815L5.11204 81.1777L5.12417 91.1469L7.9725 91.1434C9.11184 91.142 9.96567 90.5713 9.96463 89.7168L9.96186 87.4381L25.9125 87.4187L25.9045 80.8675L46.9822 80.8419C48.0306 84.1637 50.4123 90.8069 51.5516 90.8055L54.6848 90.8017L54.6727 80.8325L57.3524 80.8292C56.9119 81.8811 56.6692 83.0362 56.6707 84.248C56.6766 89.1246 60.6347 93.073 65.5113 93.0671C70.2926 93.0613 74.1817 89.2562 74.3262 84.5112L76.6093 84.5086C76.6116 86.3963 78.1437 87.9247 80.0315 87.9224L89.7158 87.9106C91.6035 87.9083 93.132 86.376 93.1297 84.4883L94.2735 84.4869C94.4296 89.2315 98.3279 93.0271 103.109 93.0213C107.986 93.0153 111.934 89.0573 111.928 84.1807C111.927 82.9689 111.681 81.8144 111.238 80.7636L133.856 80.7361L134.133 73.6149L136.411 73.6121C137.228 73.6112 137.166 73.3188 137.065 72.8387C137.025 72.6488 136.979 72.4295 136.979 72.1873L136.979 71.9025L148.087 71.8889L148.088 72.7434C148.089 73.6548 148.089 73.8827 150.653 73.8796L150.662 81.0004L173.451 80.9727C173.082 81.9468 172.881 83.0032 172.883 84.1065C172.888 88.9831 176.847 92.9316 181.723 92.9256C186.504 92.9198 190.394 89.1147 190.538 84.3697L191.682 84.3685C191.684 86.2562 193.216 87.7846 195.104 87.7823L204.788 87.7705C206.676 87.7682 208.205 86.236 208.202 84.3482L210.485 84.3455C210.641 89.0901 214.54 92.8857 219.321 92.8798C224.198 92.8739 228.146 88.9159 228.14 84.0393C228.139 82.8373 227.897 81.6918 227.461 80.6479L229.685 80.6194L229.697 90.8733C237.263 90.8641 238.177 80.8938 238.177 80.8938L259.753 80.8676L259.759 86.2794L274.286 86.2617C274.477 87.2109 275.087 89.223 275.999 89.6776C276.911 90.1323 279.038 89.8638 279.987 89.6728L279.976 80.843L282.827 80.8395C282.458 81.8137 282.257 82.87 282.258 83.9733C282.264 88.8499 286.222 92.7983 291.099 92.7924C295.88 92.7866 299.769 88.9815 299.914 84.2365L301.058 84.2353C301.06 86.123 302.592 87.6514 304.48 87.6491L314.164 87.6373C316.052 87.635 317.58 86.1027 317.578 84.215L319.861 84.2122C320.017 88.9569 323.916 92.7525 328.697 92.7466C333.574 92.7407 337.522 88.7826 337.516 83.9061C337.515 82.8027 337.311 81.7469 336.94 80.7736L346.912 80.7615C348.526 81.2342 351.984 82.5782 352.898 84.1722C353.096 84.5184 353.286 84.8732 353.473 85.2231L353.474 85.2261C354.364 86.8891 355.194 88.4419 356.606 88.4402C357.546 88.439 357.97 88.7838 358.35 89.0937C358.661 89.3468 358.943 89.5767 359.455 89.576L361.734 89.5733L361.731 87.0098L360.306 86.157C360.714 84.4475 361.569 80.8575 361.722 80.1737ZM341.755 56.272L353.718 56.2575C354.857 56.2561 356.28 54.8302 355.709 53.6915C355.252 52.7806 352.663 47.8087 351.426 45.4366L341.172 45.4491C339.748 45.4508 339.179 46.0212 339.18 46.8757L339.189 54.2813C339.19 55.1358 339.192 56.2752 341.755 56.272ZM-88.5866 73.0316L-88.5876 72.1771L-77.216 72.1632L-77.2507 43.6799L-88.6223 43.6938L-88.6417 27.7431C-88.6442 25.6947 -90.2555 25.7199 -92.0296 25.7476C-92.229 25.7508 -92.4304 25.7539 -92.6318 25.7542L-207.989 25.8946L-207.983 30.7368L-211.686 30.7413L-211.69 27.893C-211.691 27.0385 -211.977 25.8995 -213.686 25.9015L-235.333 25.9279C-237.042 25.93 -237.041 26.7845 -237.04 27.9238L-237.036 30.7722L-239.885 30.7756L-239.882 32.7695L-241.876 32.7719L-241.88 29.9235L-272.072 29.9603L-273.208 32.81L-282.892 32.8218C-284.259 32.8235 -287.448 33.9667 -288.872 34.5381L-297.132 34.5482L-295.699 41.3824C-296.552 43.0925 -298.597 47.2535 -299.961 50.2175C-301.665 53.9224 -304.218 63.0402 -303.926 69.0213C-303.692 73.8062 -302.679 78.989 -302.202 80.9822C-302.047 81.6656 -301.183 85.2535 -300.771 86.962L-302.194 87.8182L-302.191 90.3817L-299.912 90.379C-299.4 90.3783 -299.118 90.1478 -298.808 89.894C-298.428 89.5831 -298.006 89.2373 -297.065 89.2362C-295.654 89.2344 -294.827 87.6797 -293.942 86.0145C-293.755 85.6631 -293.566 85.3068 -293.368 84.9592C-292.458 83.363 -289.004 82.0106 -287.39 81.5339L-277.419 81.5217C-277.787 82.4959 -277.988 83.5522 -277.987 84.6556C-277.981 89.5321 -274.023 93.4806 -269.146 93.4746C-264.365 93.4688 -260.476 89.6638 -260.331 84.9187L-258.048 84.916C-258.046 86.8037 -256.514 88.3323 -254.626 88.33L-244.942 88.3182C-243.054 88.3159 -241.526 86.7837 -241.528 84.896L-240.384 84.8945C-240.228 89.6391 -236.33 93.4347 -231.548 93.4289C-226.672 93.4229 -222.723 89.4649 -222.729 84.5883C-222.731 83.4849 -222.934 82.4291 -223.305 81.4558L-220.454 81.4524L-220.444 90.2822C-219.494 90.4709 -217.367 90.7342 -216.456 90.2774C-215.545 89.8205 -214.94 87.8069 -214.751 86.8573L-200.225 86.8396L-200.231 81.4277L-178.655 81.4015C-178.655 81.4015 -177.717 91.3695 -170.151 91.3603L-170.164 81.1063L-167.94 81.1295C-168.373 82.1744 -168.612 83.3205 -168.611 84.5225C-168.605 89.3991 -164.647 93.3475 -159.77 93.3416C-154.989 93.3357 -151.1 89.5307 -150.955 84.7857L-148.672 84.7829C-148.67 86.6706 -147.138 88.1992 -145.25 88.1969L-135.566 88.1851C-133.678 88.1828 -132.15 86.6506 -132.152 84.7629L-131.008 84.7614C-130.852 89.506 -126.954 93.3016 -122.172 93.2958C-117.296 93.2898 -113.347 89.3318 -113.353 84.4552C-113.355 83.3518 -113.558 82.296 -113.929 81.3227L-91.14 81.2949L-91.1487 74.1741C-88.5852 74.171 -88.5855 73.9431 -88.5866 73.0316ZM-294.256 57.0465L-282.293 57.032C-279.729 57.0288 -279.731 55.8895 -279.732 55.035L-279.741 47.6293C-279.742 46.7748 -280.312 46.2059 -281.736 46.2076L-291.99 46.2201C-293.222 48.5952 -295.798 53.5734 -296.253 54.4855C-296.821 55.6255 -295.395 57.0479 -294.256 57.0465Z" fill="#D8F0D4"/>
<path fill-rule="evenodd" clip-rule="evenodd" d="M361.722 80.1737C362.195 78.1793 363.195 72.9941 363.417 68.2087C363.694 62.2268 361.12 53.1153 359.406 49.4145C358.036 46.4539 355.98 42.2979 355.123 40.5899L356.539 33.7522L348.279 33.7622C346.854 33.1943 343.662 32.0588 342.295 32.0605L332.611 32.0723L331.468 29.2253L301.276 29.2621L301.279 32.1104L299.285 32.1129L299.283 30.119L296.435 30.1225L296.431 27.2742C296.43 26.1348 296.429 25.2803 294.72 25.2824L273.072 25.3088C271.363 25.3109 271.08 26.4505 271.081 27.305L271.084 30.1534L267.382 30.1579L267.376 25.3157L152.018 25.4562C151.817 25.4564 151.615 25.4538 151.416 25.4511C149.642 25.4277 148.031 25.4064 148.033 27.4549L148.052 43.4056L136.944 43.4191L136.93 31.741L135.221 31.743L135.216 27.7554C135.215 26.9009 134.929 26.3316 133.505 26.3333L48.9098 26.4363C47.5814 27.1025 44.9246 28.4919 44.9249 28.7198C44.9252 28.9477 39.6081 28.8212 36.9495 28.7295L36.9513 30.1537L16.1585 30.179L16.1567 28.7548C16.1557 27.9003 15.585 27.0465 14.4456 27.0479L-9.48037 27.077C-10.1045 27.0778 -10.3867 27.0782 -10.5142 27.2188C-10.6194 27.3349 -10.6191 27.5465 -10.6187 27.9329L-10.6152 30.7813C-27.5152 30.8968 -61.6 31.1282 -62.7393 31.1296C-63.8787 31.131 -69.8639 28.1 -72.7141 26.5844L-74.7079 26.5868L-74.6926 39.1195L-77.2561 39.1226L-77.2152 72.7329C-77.2142 73.5874 -76.9286 74.1567 -76.359 74.156L-74.65 74.154L-74.6413 81.2748L-52.1371 81.2474C-52.5056 82.2216 -52.7067 83.2779 -52.7054 84.3813C-52.6994 89.2579 -48.7414 93.2063 -43.8648 93.2004C-39.0835 93.1946 -35.1943 89.3895 -35.0499 84.6445L-32.7667 84.6419C-32.7644 86.5296 -31.2322 88.058 -29.3445 88.0557L-19.6602 88.0439C-17.7725 88.0416 -16.244 86.5093 -16.2463 84.6216L-15.1026 84.6202C-14.9465 89.3648 -11.0482 93.1604 -6.26685 93.1546C-1.39024 93.1486 2.55816 89.1906 2.55222 84.314C2.55088 83.2106 2.34723 82.1548 1.97639 81.1815L5.11204 81.1777L5.12417 91.1469L7.9725 91.1434C9.11184 91.142 9.96567 90.5713 9.96463 89.7168L9.96186 87.4381L25.9125 87.4187L25.9045 80.8675L46.9822 80.8419C48.0306 84.1637 50.4123 90.8069 51.5516 90.8055L54.6848 90.8017L54.6727 80.8325L57.3524 80.8292C56.9119 81.8811 56.6692 83.0362 56.6707 84.248C56.6766 89.1246 60.6347 93.073 65.5113 93.0671C70.2926 93.0613 74.1817 89.2562 74.3262 84.5112L76.6093 84.5086C76.6116 86.3963 78.1437 87.9247 80.0315 87.9224L89.7158 87.9106C91.6035 87.9083 93.132 86.376 93.1297 84.4883L94.2735 84.4869C94.4296 89.2315 98.3279 93.0271 103.109 93.0213C107.986 93.0153 111.934 89.0573 111.928 84.1807C111.927 82.9689 111.681 81.8144 111.238 80.7636L133.856 80.7361L134.133 73.6149L136.411 73.6121C137.228 73.6112 137.166 73.3188 137.065 72.8387C137.025 72.6488 136.979 72.4295 136.979 72.1873L136.979 71.9025L148.087 71.8889L148.088 72.7434C148.089 73.6548 148.089 73.8827 150.653 73.8796L150.662 81.0004L173.451 80.9727C173.082 81.9468 172.881 83.0032 172.883 84.1065C172.888 88.9831 176.847 92.9316 181.723 92.9256C186.504 92.9198 190.394 89.1147 190.538 84.3697L191.682 84.3685C191.684 86.2562 193.216 87.7846 195.104 87.7823L204.788 87.7705C206.676 87.7682 208.205 86.236 208.202 84.3482L210.485 84.3455C210.641 89.0901 214.54 92.8857 219.321 92.8798C224.198 92.8739 228.146 88.9159 228.14 84.0393C228.139 82.8373 227.897 81.6918 227.461 80.6479L229.685 80.6194L229.697 90.8733C237.263 90.8641 238.177 80.8938 238.177 80.8938L259.753 80.8676L259.759 86.2794L274.286 86.2617C274.477 87.2109 275.087 89.223 275.999 89.6776C276.911 90.1323 279.038 89.8638 279.987 89.6728L279.976 80.843L282.827 80.8395C282.458 81.8137 282.257 82.87 282.258 83.9733C282.264 88.8499 286.222 92.7983 291.099 92.7924C295.88 92.7866 299.769 88.9815 299.914 84.2365L301.058 84.2353C301.06 86.123 302.592 87.6514 304.48 87.6491L314.164 87.6373C316.052 87.635 317.58 86.1027 317.578 84.215L319.861 84.2122C320.017 88.9569 323.916 92.7525 328.697 92.7466C333.574 92.7407 337.522 88.7826 337.516 83.9061C337.515 82.8027 337.311 81.7469 336.94 80.7736L346.912 80.7615C348.526 81.2342 351.984 82.5782 352.898 84.1722C353.096 84.5184 353.286 84.8732 353.473 85.2231L353.474 85.2261C354.364 86.8891 355.194 88.4419 356.606 88.4402C357.546 88.439 357.97 88.7838 358.35 89.0937C358.661 89.3468 358.943 89.5767 359.455 89.576L361.734 89.5733L361.731 87.0098L360.306 86.157C360.714 84.4475 361.569 80.8575 361.722 80.1737ZM341.755 56.272L353.718 56.2575C354.857 56.2561 356.28 54.8302 355.709 53.6915C355.252 52.7806 352.663 47.8087 351.426 45.4366L341.172 45.4491C339.748 45.4508 339.179 46.0212 339.18 46.8757L339.189 54.2813C339.19 55.1358 339.192 56.2752 341.755 56.272ZM-88.5866 73.0316L-88.5876 72.1771L-77.216 72.1632L-77.2507 43.6799L-88.6223 43.6938L-88.6417 27.7431C-88.6442 25.6947 -90.2555 25.7199 -92.0296 25.7476C-92.229 25.7508 -92.4304 25.7539 -92.6318 25.7542L-207.989 25.8946L-207.983 30.7368L-211.686 30.7413L-211.69 27.893C-211.691 27.0385 -211.977 25.8995 -213.686 25.9015L-235.333 25.9279C-237.042 25.93 -237.041 26.7845 -237.04 27.9238L-237.036 30.7722L-239.885 30.7756L-239.882 32.7695L-241.876 32.7719L-241.88 29.9235L-272.072 29.9603L-273.208 32.81L-282.892 32.8218C-284.259 32.8235 -287.448 33.9667 -288.872 34.5381L-297.132 34.5482L-295.699 41.3824C-296.552 43.0925 -298.597 47.2535 -299.961 50.2175C-301.665 53.9224 -304.218 63.0402 -303.926 69.0213C-303.692 73.8062 -302.679 78.989 -302.202 80.9822C-302.047 81.6656 -301.183 85.2535 -300.771 86.962L-302.194 87.8182L-302.191 90.3817L-299.912 90.379C-299.4 90.3783 -299.118 90.1478 -298.808 89.894C-298.428 89.5831 -298.006 89.2373 -297.065 89.2362C-295.654 89.2344 -294.827 87.6797 -293.942 86.0145C-293.755 85.6631 -293.566 85.3068 -293.368 84.9592C-292.458 83.363 -289.004 82.0106 -287.39 81.5339L-277.419 81.5217C-277.787 82.4959 -277.988 83.5522 -277.987 84.6556C-277.981 89.5321 -274.023 93.4806 -269.146 93.4746C-264.365 93.4688 -260.476 89.6638 -260.331 84.9187L-258.048 84.916C-258.046 86.8037 -256.514 88.3323 -254.626 88.33L-244.942 88.3182C-243.054 88.3159 -241.526 86.7837 -241.528 84.896L-240.384 84.8945C-240.228 89.6391 -236.33 93.4347 -231.548 93.4289C-226.672 93.4229 -222.723 89.4649 -222.729 84.5883C-222.731 83.4849 -222.934 82.4291 -223.305 81.4558L-220.454 81.4524L-220.444 90.2822C-219.494 90.4709 -217.367 90.7342 -216.456 90.2774C-215.545 89.8205 -214.94 87.8069 -214.751 86.8573L-200.225 86.8396L-200.231 81.4277L-178.655 81.4015C-178.655 81.4015 -177.717 91.3695 -170.151 91.3603L-170.164 81.1063L-167.94 81.1295C-168.373 82.1744 -168.612 83.3205 -168.611 84.5225C-168.605 89.3991 -164.647 93.3475 -159.77 93.3416C-154.989 93.3357 -151.1 89.5307 -150.955 84.7857L-148.672 84.7829C-148.67 86.6706 -147.138 88.1992 -145.25 88.1969L-135.566 88.1851C-133.678 88.1828 -132.15 86.6506 -132.152 84.7629L-131.008 84.7614C-130.852 89.506 -126.954 93.3016 -122.172 93.2958C-117.296 93.2898 -113.347 89.3318 -113.353 84.4552C-113.355 83.3518 -113.558 82.296 -113.929 81.3227L-91.14 81.2949L-91.1487 74.1741C-88.5852 74.171 -88.5855 73.9431 -88.5866 73.0316ZM-294.256 57.0465L-282.293 57.032C-279.729 57.0288 -279.731 55.8895 -279.732 55.035L-279.741 47.6293C-279.742 46.7748 -280.312 46.2059 -281.736 46.2076L-291.99 46.2201C-293.222 48.5952 -295.798 53.5734 -296.253 54.4855C-296.821 55.6255 -295.395 57.0479 -294.256 57.0465Z" stroke="#3DD379" stroke-linecap="round"/>
</g>
<path d="M137.445 44.4885L147.839 44.4758L147.872 71.9592L137.479 71.9718L137.445 44.4885Z" fill="#C7EAC1" stroke="#3DD379"/>
<path d="M311.259 1L290 10.8571L312.259 19L333 10.8571L311.259 1Z" stroke="#76D33D" stroke-width="2" stroke-linejoin="round"/>
<path d="M312.257 19L304 29H321L312.257 19Z" stroke="#76D33D"/>
<defs>
<filter id="filter0_d" x="-306.449" y="24.7824" width="672.386" height="73.1922" filterUnits="userSpaceOnUse" color-interpolation-filters="sRGB">
<feFlood flood-opacity="0" result="BackgroundImageFix"/>
<feColorMatrix in="SourceAlpha" type="matrix" values="0 0 0 0 0 0 0 0 0 0 0 0 0 0 0 0 0 0 127 0"/>
<feOffset dy="2"/>
<feGaussianBlur stdDeviation="1"/>
<feColorMatrix type="matrix" values="0 0 0 0 0.475284 0 0 0 0 0.475284 0 0 0 0 0.475284 0 0 0 0.25 0"/>
<feBlend mode="normal" in2="BackgroundImageFix" result="effect1_dropShadow"/>
<feBlend mode="normal" in="SourceGraphic" in2="effect1_dropShadow" result="shape"/>
</filter>
</defs>
</svg>
