<svg width="709" height="299" viewBox="0 0 709 299" fill="none" xmlns="http://www.w3.org/2000/svg">
<rect x="708" y="299" width="705" height="88.9999" transform="rotate(-180 708 299)" fill="url(#paint0_linear)"/>
<path d="M0 49.5556L202.145 39L451.621 54.3056L708 49.5556V229H0V49.5556Z" fill="url(#paint1_linear)"/>
<path d="M256.656 3.31436C367.064 10.9247 554.98 51.4178 600.538 60.0462C646.096 68.6747 684.061 85.2412 684.061 85.2412C684.061 85.2412 470.076 84.2058 348.588 60.0462C227.1 35.8866 1.38055 60.0462 1.38055 60.0462V10.9248C77.3301 3.31436 163.467 -3.10906 256.656 3.31436Z" fill="white"/>
<path d="M0 98.0056C0 98.0056 129.777 70.315 202.941 78.9835C270.105 90.4967 260.117 89.5212 313.384 85.3242C461.809 73.6369 476.289 85.3242 681.3 132.23C681.3 138.348 708 183.605 708 183.605H0V98.0056Z" fill="url(#paint2_linear)"/>
<path d="M0 157.486C0 157.486 51.8387 179.847 125 191C198.161 202.153 281 197.929 398 191C534 208.323 571 121.51 709 182C709 189.871 709 269 709 269H0V157.486Z" fill="url(#paint3_linear)"/>
<path d="M0 281C0 281 112 281 257 281C456 287 368 237.486 485 233.633C615 233.633 626 233.633 709 233.633C709 215 709 281 709 281L0 281Z" fill="url(#paint4_linear)"/>
<defs>
<linearGradient id="paint0_linear" x1="1060.5" y1="299" x2="1060.5" y2="388" gradientUnits="userSpaceOnUse">
<stop stop-color="#F3F7FC"/>
<stop offset="1" stop-color="white"/>
</linearGradient>
<linearGradient id="paint1_linear" x1="354" y1="69.2899" x2="354" y2="202.841" gradientUnits="userSpaceOnUse">
<stop stop-color="white"/>
<stop offset="1" stop-color="#D1E0E9" stop-opacity="0"/>
</linearGradient>
<linearGradient id="paint2_linear" x1="364.465" y1="181.412" x2="364.465" y2="101.071" gradientUnits="userSpaceOnUse">
<stop stop-color="white" stop-opacity="0"/>
<stop offset="1" stop-color="#F1F2F5"/>
</linearGradient>
<linearGradient id="paint3_linear" x1="364.001" y1="266.178" x2="364.001" y2="162.811" gradientUnits="userSpaceOnUse">
<stop stop-color="#DCDFE7" stop-opacity="0"/>
<stop offset="1" stop-color="#DCDFE7"/>
</linearGradient>
<linearGradient id="paint4_linear" x1="364.001" y1="279.431" x2="364.001" y2="221.961" gradientUnits="userSpaceOnUse">
<stop stop-color="white"/>
<stop offset="1" stop-color="#D6DBEB"/>
</linearGradient>
</defs>
</svg>
