<svg width="541" height="237" viewBox="0 0 541 237" fill="none" xmlns="http://www.w3.org/2000/svg">
<path d="M4.064 85.688L1.76 85.112H1.184V86.648C3.616 87.256 4.256 87.256 5.216 87.256C10.208 87.256 10.208 84.792 10.208 81.752V80.6C10.208 77.88 10.208 75.416 5.216 75.416C4.256 75.416 3.616 75.416 1.184 76.024V77.56H1.76L4.064 76.984H4.736C8.24 76.984 8.288 77.112 8.288 80.408H3.104V81.944H8.288C8.288 85.56 8.24 85.688 4.736 85.688H4.064ZM18.7369 80.36V87H20.3689V78.936H13.8569C13.8089 80.6 13.7129 81.976 13.4249 84.056C13.2329 85.448 13.0729 85.72 11.6969 85.72V87.032C14.2889 87.032 14.5609 86.728 14.8809 84.344C15.1209 82.584 15.2329 81.352 15.2649 80.36H18.7369ZM26.678 85.656C24.47 85.656 24.47 85.656 24.47 83.64H26.678C28.982 83.64 29.366 83.64 30.23 83.448L30.614 83.352V82.584C30.614 81.048 30.614 78.744 27.062 78.744H26.294C22.742 78.744 22.742 81.048 22.742 82.584V83.352C22.742 85.08 22.742 87.192 26.678 87.192C27.35 87.192 28.502 87.192 30.038 86.808V85.272H29.654L28.118 85.656H26.678ZM24.47 82.392C24.47 80.28 24.47 80.28 26.678 80.28C28.886 80.28 28.886 80.28 28.886 82.392H24.47ZM41.1454 79.384V78.936H39.3214C38.1694 80.472 37.4974 81.368 37.4974 82.2H34.6174V78.936H32.9854V87H34.6174V83.736H37.4974C37.4974 84.568 38.1694 85.464 39.3214 87H41.1454V86.552L38.4414 82.968L41.1454 79.384ZM50.4678 78.936H42.4038V80.344H45.5878V87H47.2838V80.344H50.4678V78.936ZM52.4073 78.936V90.264H54.0393V86.808C54.8073 87 55.5753 87.192 57.0153 87.192C60.6633 87.192 60.6633 84.696 60.6633 83.352V82.584C60.6633 81.048 60.6633 78.744 57.2073 78.744C55.2873 78.744 54.2313 79.544 53.8473 79.832L53.1753 78.936H52.4073ZM58.9353 82.968C58.9353 85.64 58.9353 85.656 56.3433 85.656C55.7673 85.656 54.8073 85.656 54.0393 85.464V80.856L56.3433 80.28H56.6153C58.9353 80.28 58.9353 80.376 58.9353 82.968ZM65.2563 87C69.4323 81.448 69.4323 81.16 69.4323 80.312H69.8483V87H71.4803V78.936H69.2723C65.0963 84.488 65.0963 84.776 65.0963 85.624H64.6643V78.936H63.0323V87H65.2563ZM79.5794 90.264H81.2114V86.632C82.1714 87.192 83.3234 87.192 83.5794 87.192C86.9394 87.192 86.9394 84.696 86.9394 83.352V82.584C86.9394 81.24 86.9394 78.744 83.5794 78.744C83.3234 78.744 82.1714 78.744 81.2114 79.304V75.672H79.5794V79.304C78.6034 78.744 77.4674 78.744 77.2114 78.744C73.8514 78.744 73.8514 81.24 73.8514 82.584V83.352C73.8514 84.696 73.8514 87.192 77.2114 87.192C77.4674 87.192 78.6034 87.192 79.5794 86.632V90.264ZM85.2114 82.968C85.2114 85.656 85.2114 85.656 82.6834 85.656L81.2114 85.416V80.52L82.6834 80.28C85.2114 80.28 85.2114 80.28 85.2114 82.968ZM75.5794 82.968C75.5794 80.28 75.5794 80.28 78.1074 80.28L79.5794 80.52V85.416L78.1074 85.656C75.5794 85.656 75.5794 85.656 75.5794 82.968ZM91.5375 87C95.7135 81.448 95.7135 81.16 95.7135 80.312H96.1295V87H97.7615V78.936H95.5535C91.3775 84.488 91.3775 84.776 91.3775 85.624H90.9455V78.936H89.3135V87H91.5375ZM108.677 79.384V78.936H106.853C105.701 80.472 105.029 81.368 105.029 82.2H102.149V78.936H100.517V87H102.149V83.736H105.029C105.029 84.568 105.701 85.464 106.853 87H108.677V86.552L105.973 82.968L108.677 79.384ZM117.407 87.192L118.623 86.28C118.047 85.512 118.047 85.512 118.047 83.928V82.584C118.047 80.664 118.047 78.744 114.303 78.744C113.727 78.744 112.479 78.744 110.943 79.128V80.664H111.327L112.863 80.28H114.303C116.415 80.28 116.415 80.28 116.415 82.296H114.303C110.271 82.296 110.271 83.64 110.271 84.888C110.271 85.656 110.271 87.192 113.151 87.192C115.135 87.192 116.207 86.392 116.591 86.104L117.407 87.192ZM112.095 84.696C112.095 83.544 112.095 83.544 114.303 83.544H116.415V85.08L114.111 85.656H113.247C112.095 85.656 112.095 85.656 112.095 84.696ZM130.016 89.304V85.656H128.672V78.936H127.04V85.656H122.336V78.936H120.704V87H128.448V89.304H130.016ZM134.178 87C138.354 81.448 138.354 81.16 138.354 80.312H138.77V87H140.402V78.936H138.194C134.018 84.488 134.018 84.776 134.018 85.624H133.586V78.936H131.954V87H134.178ZM150.453 87V78.936H146.997C144.597 78.936 142.677 78.936 142.677 81.528C142.677 82.936 143.157 83.304 144.501 84.312L142.821 86.552V87H144.645C145.221 86.264 145.845 85.496 145.845 84.312H148.821V87H150.453ZM146.325 82.968C144.517 82.968 144.501 82.968 144.501 81.624C144.501 80.296 144.501 80.28 146.325 80.28H148.821V82.968H146.325ZM3.6 106C7.776 100.448 7.776 100.16 7.776 99.312H8.192V106H9.824V97.936H7.616C3.44 103.488 3.44 103.776 3.44 104.624H3.008V97.936H1.376V106H3.6ZM18.9151 97.936V101.184H14.2111V97.936H12.5791V106H14.2111V102.592H18.9151V106H20.5471V97.936H18.9151ZM28.6419 109.264H30.2739V105.632C31.2339 106.192 32.3859 106.192 32.6419 106.192C36.0019 106.192 36.0019 103.696 36.0019 102.352V101.584C36.0019 100.24 36.0019 97.744 32.6419 97.744C32.3859 97.744 31.2339 97.744 30.2739 98.304V94.672H28.6419V98.304C27.6659 97.744 26.5299 97.744 26.2739 97.744C22.9139 97.744 22.9139 100.24 22.9139 101.584V102.352C22.9139 103.696 22.9139 106.192 26.2739 106.192C26.5299 106.192 27.6659 106.192 28.6419 105.632V109.264ZM34.2739 101.968C34.2739 104.656 34.2739 104.656 31.7459 104.656L30.2739 104.416V99.52L31.7459 99.28C34.2739 99.28 34.2739 99.28 34.2739 101.968ZM24.6419 101.968C24.6419 99.28 24.6419 99.28 27.1699 99.28L28.6419 99.52V104.416L27.1699 104.656C24.6419 104.656 24.6419 104.656 24.6419 101.968ZM38.376 97.936V109.264H40.008V105.808C40.776 106 41.544 106.192 42.984 106.192C46.632 106.192 46.632 103.696 46.632 102.352V101.584C46.632 100.048 46.632 97.744 43.176 97.744C41.256 97.744 40.2 98.544 39.816 98.832L39.144 97.936H38.376ZM44.904 101.968C44.904 104.64 44.904 104.656 42.312 104.656C41.736 104.656 40.776 104.656 40.008 104.464V99.856L42.312 99.28H42.584C44.904 99.28 44.904 99.376 44.904 101.968ZM55.657 106.192L56.873 105.28C56.297 104.512 56.297 104.512 56.297 102.928V101.584C56.297 99.664 56.297 97.744 52.553 97.744C51.977 97.744 50.729 97.744 49.193 98.128V99.664H49.577L51.113 99.28H52.553C54.665 99.28 54.665 99.28 54.665 101.296H52.553C48.521 101.296 48.521 102.64 48.521 103.888C48.521 104.656 48.521 106.192 51.401 106.192C53.385 106.192 54.457 105.392 54.841 105.104L55.657 106.192ZM50.345 103.696C50.345 102.544 50.345 102.544 52.553 102.544H54.665V104.08L52.361 104.656H51.497C50.345 104.656 50.345 104.656 50.345 103.696ZM62.5061 106.192C63.0821 106.192 64.3301 106.192 65.8661 105.808V104.272H65.4821L63.9301 104.656H63.0821C60.2981 104.656 60.2981 104.656 60.2981 101.968C60.2981 99.28 60.2981 99.28 62.5061 99.28C64.3301 99.28 64.3301 99.28 64.7141 100.816L66.2501 100.432C66.2501 99.664 66.2501 97.744 62.8901 97.744H62.1221C58.5701 97.744 58.5701 99.856 58.5701 101.584V102.352C58.5701 104.08 58.5701 106.192 62.5061 106.192ZM75.6709 97.936H67.6069V99.344H70.7909V106H72.4869V99.344H75.6709V97.936ZM77.6104 97.936V109.264H79.2424V105.808C80.0104 106 80.7784 106.192 82.2184 106.192C85.8664 106.192 85.8664 103.696 85.8664 102.352V101.584C85.8664 100.048 85.8664 97.744 82.4104 97.744C80.4904 97.744 79.4344 98.544 79.0504 98.832L78.3784 97.936H77.6104ZM84.1384 101.968C84.1384 104.64 84.1384 104.656 81.5464 104.656C80.9704 104.656 80.0104 104.656 79.2424 104.464V99.856L81.5464 99.28H81.8184C84.1384 99.28 84.1384 99.376 84.1384 101.968ZM90.8136 104.272C90.8136 103.696 90.8136 103.696 89.1656 99.376V97.936H87.4376C87.4376 99.616 87.4376 99.616 89.9976 105.616H91.6136L91.0376 107.152C90.7336 107.92 90.6056 107.92 89.6936 107.92H88.4296V109.456H89.2616C90.5096 109.456 91.7576 109.408 92.4776 107.664L95.1336 100.512C95.5016 99.616 95.5016 99.616 95.5016 98.256V97.936H93.8216V99.376C92.3016 103.728 92.3176 103.728 92.3176 104.272H90.8136ZM105.552 98.384V97.936H103.728C102.576 99.472 101.904 100.368 101.904 101.2H99.0236V97.936H97.3916V106H99.0236V102.736H101.904C101.904 103.568 102.576 104.464 103.728 106H105.552V105.552L102.848 101.968L105.552 98.384ZM114.874 97.936H106.81V99.344H109.994V106H111.69V99.344H114.874V97.936ZM119.486 104.272C119.486 103.696 119.486 103.696 117.838 99.376V97.936H116.11C116.11 99.616 116.11 99.616 118.67 105.616H120.286L119.71 107.152C119.406 107.92 119.278 107.92 118.366 107.92H117.102V109.456H117.934C119.182 109.456 120.43 109.408 121.15 107.664L123.806 100.512C124.174 99.616 124.174 99.616 124.174 98.256V97.936H122.494V99.376C120.974 103.728 120.99 103.728 120.99 104.272H119.486ZM126.064 97.936V109.264H127.696V105.808C128.464 106 129.232 106.192 130.672 106.192C134.32 106.192 134.32 103.696 134.32 102.352V101.584C134.32 100.048 134.32 97.744 130.864 97.744C128.944 97.744 127.888 98.544 127.504 98.832L126.832 97.936H126.064ZM132.592 101.968C132.592 104.64 132.592 104.656 130 104.656C129.424 104.656 128.464 104.656 127.696 104.464V99.856L130 99.28H130.272C132.592 99.28 132.592 99.376 132.592 101.968ZM145.521 97.936V106H147.153V97.936H145.521ZM136.689 106H140.145C142.161 106 143.889 106 143.889 103.312C143.889 102.352 143.889 100.432 140.529 100.432C139.857 100.432 139.089 100.528 138.321 100.72V97.936H136.689V106ZM140.337 101.968C142.161 101.968 142.161 101.968 142.161 103.312C142.161 104.656 142.161 104.656 140.337 104.656H138.321V101.968H140.337Z" fill="#E21A1A"/>
<path d="M246.064 230.688L243.76 230.112H243.184V231.648C245.616 232.256 246.256 232.256 247.216 232.256C252.208 232.256 252.208 229.792 252.208 226.752V225.6C252.208 222.88 252.208 220.416 247.216 220.416C246.256 220.416 245.616 220.416 243.184 221.024V222.56H243.76L246.064 221.984H246.736C250.24 221.984 250.288 222.112 250.288 225.408H245.104V226.944H250.288C250.288 230.56 250.24 230.688 246.736 230.688H246.064ZM260.737 225.36V232H262.369V223.936H255.857C255.809 225.6 255.713 226.976 255.425 229.056C255.233 230.448 255.073 230.72 253.697 230.72V232.032C256.289 232.032 256.561 231.728 256.881 229.344C257.121 227.584 257.233 226.352 257.265 225.36H260.737ZM268.678 230.656C266.47 230.656 266.47 230.656 266.47 228.64H268.678C270.982 228.64 271.366 228.64 272.23 228.448L272.614 228.352V227.584C272.614 226.048 272.614 223.744 269.062 223.744H268.294C264.742 223.744 264.742 226.048 264.742 227.584V228.352C264.742 230.08 264.742 232.192 268.678 232.192C269.35 232.192 270.502 232.192 272.038 231.808V230.272H271.654L270.118 230.656H268.678ZM266.47 227.392C266.47 225.28 266.47 225.28 268.678 225.28C270.886 225.28 270.886 225.28 270.886 227.392H266.47ZM283.145 224.384V223.936H281.321C280.169 225.472 279.497 226.368 279.497 227.2H276.617V223.936H274.985V232H276.617V228.736H279.497C279.497 229.568 280.169 230.464 281.321 232H283.145V231.552L280.441 227.968L283.145 224.384ZM292.468 223.936H284.404V225.344H287.588V232H289.284V225.344H292.468V223.936ZM294.407 223.936V235.264H296.039V231.808C296.807 232 297.575 232.192 299.015 232.192C302.663 232.192 302.663 229.696 302.663 228.352V227.584C302.663 226.048 302.663 223.744 299.207 223.744C297.287 223.744 296.231 224.544 295.847 224.832L295.175 223.936H294.407ZM300.935 227.968C300.935 230.64 300.935 230.656 298.343 230.656C297.767 230.656 296.807 230.656 296.039 230.464V225.856L298.343 225.28H298.615C300.935 225.28 300.935 225.376 300.935 227.968ZM306.376 227.968C306.376 225.28 306.376 225.2 308.872 225.2C311.368 225.2 311.368 225.28 311.368 227.968C311.368 230.656 311.368 230.736 308.872 230.736C306.376 230.736 306.376 230.656 306.376 227.968ZM304.648 228.352C304.648 229.888 304.648 232.192 308.488 232.192H309.256C313.096 232.192 313.096 229.888 313.096 228.352V227.584C313.096 226.048 313.096 223.744 309.256 223.744H308.488C304.648 223.744 304.648 226.048 304.648 227.584V228.352ZM315.47 232H319.198C321.118 232 323.054 232 323.054 229.984C323.054 229.312 322.894 228.448 321.358 228.064V227.872C322.894 227.488 322.894 226.624 322.894 225.952C322.894 223.936 321.118 223.936 319.198 223.936H315.47V232ZM319.79 228.544C321.214 228.544 321.23 228.544 321.23 229.6C321.23 230.64 321.23 230.656 319.79 230.656H317.102V228.544H319.79ZM319.63 225.28C321.054 225.28 321.07 225.28 321.07 226.336C321.07 227.376 321.07 227.392 319.63 227.392H317.102V225.28H319.63ZM326.767 227.968C326.767 225.28 326.767 225.2 329.263 225.2C331.759 225.2 331.759 225.28 331.759 227.968C331.759 230.656 331.759 230.736 329.263 230.736C326.767 230.736 326.767 230.656 326.767 227.968ZM325.039 228.352C325.039 229.888 325.039 232.192 328.879 232.192H329.647C333.487 232.192 333.487 229.888 333.487 228.352V227.584C333.487 226.048 333.487 223.744 329.647 223.744H328.879C325.039 223.744 325.039 226.048 325.039 227.584V228.352ZM337.3 230.656L335.764 230.272H335.38V231.808C336.916 232.192 338.148 232.192 338.724 232.192C342.356 232.192 342.532 230.656 342.532 229.888C342.532 229.504 342.532 228.448 340.996 228.064V227.872C342.532 227.488 342.532 226.432 342.532 226.048C342.532 225.28 342.372 223.744 338.724 223.744C338.148 223.744 336.916 223.744 335.38 224.128V225.664H335.764L337.3 225.28H339.268C340.708 225.28 340.708 225.28 340.708 226.304C340.708 227.296 340.708 227.296 339.268 227.296H337.3V228.64H339.268C340.708 228.64 340.708 228.64 340.708 229.632C340.708 230.656 340.708 230.656 339.268 230.656H337.3ZM353.708 223.936V232H355.34V223.936H353.708ZM344.876 232H348.332C350.348 232 352.076 232 352.076 229.312C352.076 228.352 352.076 226.432 348.716 226.432C348.044 226.432 347.276 226.528 346.508 226.72V223.936H344.876V232ZM348.524 227.968C350.348 227.968 350.348 227.968 350.348 229.312C350.348 230.656 350.348 230.656 348.524 230.656H346.508V227.968H348.524Z" fill="#E21A1A"/>
<path d="M364.176 2.416C359.184 2.416 359.184 5.36 359.184 7.856V8.816C359.184 11.312 359.184 14.256 364.176 14.256H365.008C370 14.256 370 11.312 370 8.816V7.856C370 5.36 370 2.416 365.008 2.416H364.176ZM361.104 8.144C361.104 4.128 361.104 3.984 364.592 3.984C368.064 3.984 368.08 4.112 368.08 8.144V8.528C368.08 12.544 368.08 12.688 364.592 12.688C361.12 12.688 361.104 12.56 361.104 8.528V8.144ZM372.084 5.936V8.432C372.084 9.584 372.084 11.504 375.252 11.504C376.116 11.504 377.268 11.216 378.036 11.024V14H379.668V5.936H378.036V9.68L376.884 9.968H375.732C373.812 9.968 373.812 9.968 373.812 8.432V5.936H372.084ZM384.647 14C388.823 8.448 388.823 8.16 388.823 7.312H389.239V14H390.871V5.936H388.663C384.487 11.488 384.487 11.776 384.487 12.624H384.055V5.936H382.423V14H384.647ZM397.178 14.192C397.754 14.192 399.002 14.192 400.538 13.808V12.272H400.154L398.602 12.656H397.754C394.97 12.656 394.97 12.656 394.97 9.968C394.97 7.28 394.97 7.28 397.178 7.28C399.002 7.28 399.002 7.28 399.386 8.816L400.922 8.432C400.922 7.664 400.922 5.744 397.562 5.744H396.794C393.242 5.744 393.242 7.856 393.242 9.584V10.352C393.242 12.08 393.242 14.192 397.178 14.192ZM410.343 5.936H402.279V7.344H405.463V14H407.159V7.344H410.343V5.936ZM418.618 5.936V9.184H413.914V5.936H412.282V14H413.914V10.592H418.618V14H420.25V5.936H418.618ZM431.833 5.936V14H433.465V5.936H431.833ZM423.001 14H426.457C428.473 14 430.201 14 430.201 11.312C430.201 10.352 430.201 8.432 426.841 8.432C426.169 8.432 425.401 8.528 424.633 8.72V5.936H423.001V14ZM426.649 9.968C428.473 9.968 428.473 9.968 428.473 11.312C428.473 12.656 428.473 12.656 426.649 12.656H424.633V9.968H426.649ZM439.772 12.656C437.564 12.656 437.564 12.656 437.564 10.64H439.772C442.076 10.64 442.46 10.64 443.324 10.448L443.708 10.352V9.584C443.708 8.048 443.708 5.744 440.156 5.744H439.388C435.836 5.744 435.836 8.048 435.836 9.584V10.352C435.836 12.08 435.836 14.192 439.772 14.192C440.444 14.192 441.596 14.192 443.132 13.808V12.272H442.748L441.212 12.656H439.772ZM437.564 9.392C437.564 7.28 437.564 7.28 439.772 7.28C441.98 7.28 441.98 7.28 441.98 9.392H437.564ZM362.928 33.192C363.504 33.192 364.752 33.192 366.288 32.808V31.272H365.904L364.352 31.656H363.504C360.72 31.656 360.72 31.656 360.72 28.968C360.72 26.28 360.72 26.28 362.928 26.28C364.752 26.28 364.752 26.28 365.136 27.816L366.672 27.432C366.672 26.664 366.672 24.744 363.312 24.744H362.544C358.992 24.744 358.992 26.856 358.992 28.584V29.352C358.992 31.08 358.992 33.192 362.928 33.192ZM370.189 28.968C370.189 26.28 370.189 26.2 372.685 26.2C375.181 26.2 375.181 26.28 375.181 28.968C375.181 31.656 375.181 31.736 372.685 31.736C370.189 31.736 370.189 31.656 370.189 28.968ZM368.461 29.352C368.461 30.888 368.461 33.192 372.301 33.192H373.069C376.909 33.192 376.909 30.888 376.909 29.352V28.584C376.909 27.048 376.909 24.744 373.069 24.744H372.301C368.461 24.744 368.461 27.048 368.461 28.584V29.352ZM380.626 28.968C380.626 26.28 380.626 26.2 383.122 26.2C385.618 26.2 385.618 26.28 385.618 28.968C385.618 31.656 385.618 31.736 383.122 31.736C380.626 31.736 380.626 31.656 380.626 28.968ZM378.898 29.352C378.898 30.888 378.898 33.192 382.738 33.192H383.506C387.346 33.192 387.346 30.888 387.346 29.352V28.584C387.346 27.048 387.346 24.744 383.506 24.744H382.738C378.898 24.744 378.898 27.048 378.898 28.584V29.352ZM389.72 24.936V36.264H391.352V32.808C392.12 33 392.888 33.192 394.328 33.192C397.976 33.192 397.976 30.696 397.976 29.352V28.584C397.976 27.048 397.976 24.744 394.52 24.744C392.6 24.744 391.544 25.544 391.16 25.832L390.488 24.936H389.72ZM396.248 28.968C396.248 31.64 396.248 31.656 393.656 31.656C393.08 31.656 392.12 31.656 391.352 31.464V26.856L393.656 26.28H393.928C396.248 26.28 396.248 26.376 396.248 28.968ZM402.923 31.272C402.923 30.696 402.923 30.696 401.275 26.376V24.936H399.547C399.547 26.616 399.547 26.616 402.107 32.616H403.723L403.147 34.152C402.843 34.92 402.715 34.92 401.803 34.92H400.539V36.456H401.371C402.619 36.456 403.867 36.408 404.587 34.664L407.243 27.512C407.611 26.616 407.611 26.616 407.611 25.256V24.936H405.931V26.376C404.411 30.728 404.427 30.728 404.427 31.272H402.923ZM414.653 24.936V28.2H412.477C412.477 27.368 411.805 26.472 410.653 24.936H408.829V25.384L411.517 28.968L408.829 32.552V33H410.653C411.805 31.464 412.477 30.568 412.477 29.736H414.653V33H416.285V29.736H418.461C418.461 30.568 419.133 31.464 420.285 33H422.109V32.552L419.405 28.968L422.109 25.384V24.936H420.285C419.133 26.472 418.461 27.368 418.461 28.2H416.285V24.936H414.653ZM427.647 31.656C425.439 31.656 425.439 31.656 425.439 29.64H427.647C429.951 29.64 430.335 29.64 431.199 29.448L431.583 29.352V28.584C431.583 27.048 431.583 24.744 428.031 24.744H427.263C423.711 24.744 423.711 27.048 423.711 28.584V29.352C423.711 31.08 423.711 33.192 427.647 33.192C428.319 33.192 429.471 33.192 431.007 32.808V31.272H430.623L429.087 31.656H427.647ZM425.439 28.392C425.439 26.28 425.439 26.28 427.647 26.28C429.855 26.28 429.855 26.28 429.855 28.392H425.439ZM440.29 24.936V28.184H435.586V24.936H433.954V33H435.586V29.592H440.29V33H441.922V24.936H440.29ZM446.897 33C451.073 27.448 451.073 27.16 451.073 26.312H451.489V33H453.121V24.936H450.913C446.737 30.488 446.737 30.776 446.737 31.624H446.305V24.936H444.673V33H446.897ZM463.172 33V24.936H459.716C457.316 24.936 455.396 24.936 455.396 27.528C455.396 28.936 455.876 29.304 457.22 30.312L455.54 32.552V33H457.364C457.94 32.264 458.564 31.496 458.564 30.312H461.54V33H463.172ZM459.044 28.968C457.236 28.968 457.22 28.968 457.22 27.624C457.22 26.296 457.22 26.28 459.044 26.28H461.54V28.968H459.044Z" fill="#E21A1A"/>
</svg>
