<svg width="134" height="151" viewBox="0 0 134 151" fill="none" xmlns="http://www.w3.org/2000/svg">
<path d="M13.4998 148.574C11.0998 147.774 4.1665 143.574 0.999837 141.574C-0.500163 138.074 13.4998 137.574 15.9998 137.574C18.4998 137.574 21.4998 137.574 22.9998 136.574C24.1998 135.774 26.4998 136.907 27.4998 137.574C28.8332 136.907 31.9998 135.474 33.9998 135.074C36.4998 134.574 37.4998 132.074 38.9998 130.574C40.4998 129.074 45.4998 119.574 47.9998 117.574C50.4998 115.574 59.4998 110.574 61.9998 109.074C64.4998 107.574 66.4998 103.074 70.9998 100.074C74.5998 97.6736 70.4998 96.0736 67.9998 95.5736C69.8332 94.407 73.7998 91.7737 74.9998 90.5737C76.4998 89.0737 78.4998 85.5738 81.4998 85.5738C83.8998 85.5738 84.4998 81.5738 84.4998 79.5738C85.4998 78.4071 87.8998 75.7738 89.4998 74.574C91.4998 73.0742 97.4998 66.5738 98.9998 65.5737C100.5 64.5737 99.9998 63.074 100.5 61.0737C100.9 59.4735 101.667 57.4071 102 56.574C102.833 55.5739 104.7 53.2737 105.5 52.0737C106.5 50.5737 107 46.5737 108.5 43.574C110 40.5742 115 30.0737 115 28.5737C115 27.0737 116 23.5737 118.5 21.5737C121 19.5737 119.5 17.574 120 16.5737C120.5 15.5735 121.5 11.074 121.5 5.57373C123.5 4.57349 123.5 2.57397 126 1.07397C128.5 -0.426032 129 0.573968 131 1.07397C133 1.57397 131 5.07397 131 6.57397C131 8.07397 134 9.07397 133.5 11.074C133 13.074 133 15.074 131 17.574C129 20.074 131.5 21.574 131 25.074C130.5 28.574 130.5 30.574 129 33.074C127.5 35.574 129 37.074 129 43.574C129 47.574 126.5 45.074 126 49.074C125.6 52.274 127.833 55.4073 129 56.574C128 57.9073 125.5 61.074 123.5 63.074C121 65.574 122.5 66.5738 121.5 68.574C120.5 70.5742 121 71.0738 119.5 74.574C118.3 77.3741 118.333 74.7407 118.5 73.074C118.667 71.7406 119.1 68.5738 119.5 66.5738C119.9 64.5738 116.667 65.7404 115 66.5738C114.333 67.4071 112.7 69.4738 111.5 71.0738C110.3 72.6738 107 77.4071 105.5 79.5738L108.5 76.0738H115C117 76.0738 116 77.5738 116 79.5738C116 81.5738 118.5 83.5738 116 85.5738C114 87.1738 113.167 88.2403 113 88.5736C112.333 88.2403 110.5 87.7736 108.5 88.5736C106 89.5736 103.5 92.0736 102 93.5736C100.8 94.7736 101.5 95.4069 102 95.5736V100.074C101.167 100.74 99.0998 102.274 97.4998 103.074C95.4998 104.074 94.4998 106.074 92.9998 107.574C91.4998 109.074 89.4998 107.574 81.4998 110.574C78.9998 113.074 76.9998 113.074 73.4998 115.074C69.9998 117.074 71.9998 119.574 67.9998 119.574C66.9998 119.574 65.4998 119.074 62.9998 119.574C60.4998 120.074 60.4998 120.574 59.4998 123.574C58.4998 126.574 58.4998 127.574 56.4998 130.574C54.4998 133.574 53.9998 137.074 52.4998 140.074C50.9998 143.074 49.9998 141.574 47.9998 143.074C46.3998 144.274 41.9998 146.24 39.9998 147.074C38.1665 147.574 33.8998 148.574 31.4998 148.574C28.4998 148.574 27.9998 150.574 25.9998 150.574H21.4998C19.4998 150.574 16.4998 149.574 13.4998 148.574Z" fill="#96CDFF"/>
</svg>
