<svg width="562" height="612" viewBox="0 0 562 612" fill="none" xmlns="http://www.w3.org/2000/svg">
<path d="M263.5 509.999C262.7 506.399 259.5 505.833 258 505.999L204 443L282.5 353.5L274 258L438.5 189L471.5 198V205C471.667 207.667 471.9 213.2 471.5 214C471.1 214.8 473.333 215.667 474.5 216C474.333 217.167 474.3 220.2 475.5 223C476.7 225.8 477 221.833 477 219.5H481.5C481.667 221.167 482.3 225 483.5 227C485 229.5 486.5 231 486.5 233C486.5 235 486.5 238 489.5 240C492.5 242 490.5 244.5 489.5 245.5C488.7 246.3 491.5 248.833 493 250C492.833 251.333 492.8 254.1 494 254.5C495.5 255 503 257 504.5 258C505.7 258.8 508 261 509 262C508 262.5 505.4 263.7 503 264.5C500 265.5 502 268 503 272.5C504 277 505 277 506 275C506.8 273.4 508.333 275.667 509 277C509.667 275.833 511.1 273.3 511.5 272.5C512 271.5 516 269.5 518.5 268C520.5 266.8 522.667 267.5 523.5 268C525.5 269.333 529.5 273.5 529.5 279.5C529.5 285.5 531.167 285.333 532 284.5C533.333 283.167 536.5 280.3 538.5 279.5C540.5 278.7 542 280.833 542.5 282C543 284.167 544 288.8 544 290C544 291.2 545 292.5 545.5 293V298C545.5 299.5 545.5 301.5 544 305C542.8 307.8 543.5 309.5 544 310C544.5 309.166 545.9 307.7 547.5 308.5C549.5 309.5 547.5 311.5 547.5 313C547.5 314.5 550.5 314.5 552.5 317C554.5 319.5 554 321 550.5 321C547 321 548.5 321.5 547.5 321C546.5 320.5 544 321 544 322.5C544 324 547 326.5 547.5 329C548 331.5 545.5 331.5 545.5 334C545.5 336.5 549 337 550.5 337C552 337 553.5 339.5 554 341.5C554.5 343.5 555 347.5 555.5 349C555.9 350.2 559.333 352.5 561 353.5C560.167 354.333 558.1 356 556.5 356C554.5 356 545.5 362.5 544 363C542.5 363.5 536 363 534 364C532 365 534 367.5 532 369.5C530 371.5 529.5 374.5 526.5 376.5C524.1 378.1 523.5 381.833 523.5 383.5V389H529.5C530.833 389.166 534 389.8 536 391C538.5 392.5 536 397 536 398.5C536 400 539 401 540 404.5C541 408 538 414 536 416C534 418 529.5 427.5 529.5 430C529.5 432.5 525 443.5 523.5 446.5C522 449.5 521 450.5 521 455.5C521 460.5 521 463 516 466.5C511 470 519 473 521 478C523 483 519 486 516 488C513.6 489.6 510.333 491.666 509 492.5C507 493.833 502.4 497.1 500 499.5C497 502.5 496.5 505.999 491 509.999C485.5 513.999 478 509.999 473.5 505.999C469 501.999 463.5 501 460 499.5C456.5 498 454 496.5 450 496.5C446 496.5 444 505.999 440.5 505.999C437 505.999 430 501 423 496.5C416 491.999 416.5 494 412 492.5C407.5 491 405.5 496.5 403 496.5C400.5 496.5 392 505.999 388.5 505.999C385 505.999 384 515 374.5 520.5H370C368 521.833 363.3 525.1 360.5 527.5C357 530.5 353.5 527.5 348.5 527.5H344.5L339.5 531.5C337.167 533 332 536 330 536C328 536 322.833 533 320.5 531.5L314 536C312.333 534.5 307.3 532.4 300.5 536C297.5 536.5 296.5 534 293 531.5C290.2 529.5 289.167 530.666 289 531.5H282.5C280.5 530.833 276 529.1 274 527.5C271.5 525.5 271 524 268 520.5C265.072 517.084 264.526 514.62 263.571 510.321L263.5 509.999Z" fill="#F2F4F7" stroke="#CBCDD5"/>
<path d="M89 384.999C91.4 384.999 94 382.333 95 380.999L107.5 412.5L158.5 467H189L207.5 443L280 366L391.5 269.5L415.5 251.5C417.833 252.333 422.9 254.3 424.5 255.5C426.5 257 426.5 255.5 430.5 255.5C434.5 255.5 433.5 256 435.5 255.5C437.1 255.1 438.833 252.667 439.5 251.5C439.833 250.5 441 248.3 443 247.5C445.5 246.5 443.5 250.5 446.5 251.5C449.5 252.5 448 250.5 449 248.5C450 246.5 449 242.5 449 241.5C449 240.5 450 238.5 450 236C450 233.5 450 233.5 449 234C448 234.5 446.5 235.5 445 236C443.5 236.5 443.5 233.5 443.5 231C443.5 228.5 440.5 226 440.5 224.5C440.5 223 438.5 223.5 437 223C435.5 222.5 435.5 221 437 216.5C438.5 216 440.5 212.5 439.5 209C438.5 205.5 442 205.5 440.5 201.5C438.5 200.5 440.5 198 440.5 196.5C440.5 195 443.5 196.5 446.5 196.5C449.5 196.5 449 195.5 455.5 196.5C459 198 459 200 465 198C465.8 196.4 469.333 197.333 471 198C470.167 195.833 468.4 191.2 468 190C467.5 188.5 468 187.5 466 187.5C464 187.5 463 187.5 460.5 185C458 182.5 460.5 179 460.5 176V171.5C460.5 170 457.5 169.5 457.5 167.5C457.5 165.5 457 166 457.5 164.5C458 163 459.5 160 459 157.5C458.5 155 455 156 452 156C449 156 450 154.5 450 153C450 151.5 445 152 443.5 153C442 154 442 157.5 440.5 157.5C439 157.5 438.5 155.5 437 156C435.5 156.5 435 157.5 433.5 157.5H428.5C427 157.5 426.5 150.5 426.5 149C426.5 147.8 425.167 145.833 424.5 145V139C424.5 137.5 420 135.5 419 134C418 132.5 413.5 129 412.5 129H407.5C405 129 403.5 127.5 401.5 126C399.5 124.5 396.5 125.5 395.5 126C394.5 126.5 392 126.5 389 130.5C388.5 132 388 134 387 135.5C386 137 384 137.5 381.5 139C379 140.5 382 146.5 379.5 146.5C377 146.5 376 152.5 372 157.5C370.5 160 368.5 159.5 367 161.5C365.5 163.5 366.5 166.5 365 167.5C363.5 168.5 362 173 362.5 173C363 173 361.5 176 354 179C350 179 352 182 351 183C350 184 350 186 349.5 187.5C349 189 348 189.5 346.5 190C345 190.5 344.5 186 344.5 183C344.5 180 346.5 179 348 179C349.5 179 348.5 175 348 173L348 173C347.5 171 345.5 175 344.5 175C343.7 175 342.833 172.667 342.5 171.5C341.667 170.167 339.7 167.9 338.5 169.5C337 171.5 337.5 172 334 175C332 175 331.5 176 330 179C328.5 182 324 176 320.5 176C317 176 316 176 308.5 187.5C308.5 190.5 301.5 187.5 297 187.5C292.5 187.5 292 184.5 290.5 179C289 173.5 289 175.5 285 173C281 170.5 289 169.5 290.5 167.5C292 165.5 293 160 293 155V146.5C294.333 143.833 297 137.6 297 134C297 130.4 300 130.167 301.5 130.5C302.333 128.5 304 123.9 304 121.5C304 119.1 307 112.5 308.5 109.5H304L297 106V96L293 92.4999C292.667 90.1665 292.2 84.3999 293 79.9999C294 74.4999 297 77 297 74.5V65.9999H292L285 63L289 57.4999L292 49.9999L289 42.9999L285 34.9999V31.9999L282.5 22H274.5H268V18.9999C270.167 17.6666 275 14.3 277 11.4999C279 8.69977 277.833 7.99983 277 7.99987L274.5 1.99987C272.167 0.666537 267.6 -0.500129 268 5.49987C268.4 11.4999 265.5 7.99987 264 5.49987C261.833 6.3332 257.2 8.69987 256 11.4999C254.8 14.2999 253.167 12.6665 252.5 11.4999L247 7.99987H244V18.9999V31.9999C244 34.4999 239 31.9999 239 34.9999C239 37.9999 239 40.4999 236.5 42.9999C234.5 44.9999 235.667 48.4999 236.5 49.9999C237.333 51.4999 240 55.0999 244 57.4999C249 60.4999 244 62.9999 244 65.9999C244 68.9999 241.5 69.4999 239 71.4999C237 73.0999 238.167 77.8332 239 79.9999C236.833 81.1665 232.2 83.8999 231 85.4999C229.5 87.4999 230 90.4999 228 92.4999C226 94.4999 221 96.9999 218.5 98.9999C216.5 100.6 213.333 102.667 212 103.5V109.5C209.5 111.667 204.5 117.7 204.5 124.5C204.5 127 205 130.5 204.5 134C204.1 136.8 209.333 140.5 212 142C213.167 141.833 216.6 141.6 221 142C225.4 142.4 222.833 145.167 221 146.5C221.333 148.333 221.8 152.6 221 155C220.2 157.4 217 156 215.5 155C214.333 155 211.1 156.8 207.5 164C207.5 168.5 210 167.5 212 169.5C214 171.5 215.5 173 215.5 184.5C213 190 211.5 184.5 207.5 187.5C204.3 189.9 206.167 193.833 207.5 195.5C206 196.5 202.4 198.5 200 198.5C197.6 198.5 196.667 196.5 196.5 195.5L191 192.5C191.5 191 191.8 187.9 189 187.5C185.5 187 183 186 181 184.5C179 183 179.5 179 172 173C168 172 163 176 163 179C163 182 164 187 163 191C162 195 160.5 196 158.5 198.5C156.5 201 154.5 200.5 150 203C145.5 205.5 144.5 207.5 140.5 209.5C136.5 211.5 139.5 215.5 137 215.5C135 215.5 131.167 219.5 129.5 221.5V230L125.5 234.5C124.333 233.833 121.5 232 119.5 230C117 227.5 117 226.5 119.5 221.5C122 216.499 118 218.5 117 215.5C116 212.5 118 211.5 104.5 221.5C102 227.5 95 220 89 218.5C84.2 217.3 75.6667 216 72 215.5L57 239.5L64.5 243C63.5 244.5 62.1 247.7 64.5 248.5C66.9 249.3 65.5 251.833 64.5 253C65.8333 254.833 67.7 259.4 64.5 263C61.5 263 60.5 270 57 273.5C53.5 277 50.5 274 40 284C32.5 288 40 288 40 293C40 298 35.5 299.5 31 319C30.2 323.8 28.6667 324.333 28 324C25.6667 323.666 18.9 324.6 10.5 331C8.00002 335.5 12 335.5 18 343.5C22.8 349.9 24.6667 354.166 25 355.499C26.6667 355.166 32 356.099 40 362.499C47.5 366.999 44 367.999 47.5 370.999C51 373.999 52 372.999 57 377.499C62 381.999 59 380.999 72 384.999C72 388.199 75 388.999 76.5 388.999C79.6667 387.666 86.6 384.999 89 384.999Z" fill="#F2F4F7" stroke="#CBCDD5"/>
<path d="M95 434.5C92.5 434.167 87.4 434.5 87 438.5C86.5 443.5 87 445.5 87 453.5C87 461.5 89 469.5 82 471.5C75 473.5 59.5 470 56.5 476.5C53.5 483 50 496 51.5 501C53 506 50.5 513.5 56.5 516C62.5 518.5 71.5 524 64 526C56.5 528 46.5 526 40.5 526C34.5 526 26 523 15.5 531.5C5 540 -3.5 545.5 4 555C11.5 564.5 23.5 566 28 566.5C32.5 567 35.5 569.5 38 575C40.5 580.5 49 582 56.5 586.5C64 591 61.5 597.5 68.5 601C75.5 604.5 80 603.5 95 605C110 606.5 143.5 610 155 610.5C166.5 611 172 609 176 605C180 601 178.5 597.5 173.5 592C168.5 586.5 169 584 172.5 583.5C176 583 179.5 582.5 179 580C178.5 577.5 186 577.5 189 575C192 572.5 192 569 195 566.5C198 564 203.5 565.5 204 569.5C204.5 573.5 207.5 575 213.5 575C219.5 575 226.5 576.5 232 573C237.5 569.5 241.5 564.5 244 563C246.5 561.5 255 563 261 563C267 563 275 559.5 277 558C279 556.5 289.5 541.5 291 539.5C292.2 537.9 294.5 532.833 295.5 530.5" stroke="#7684FF" stroke-width="2"/>
<path d="M70 423C67.2 419.8 61.8333 414.667 59.5 412.5C60.5 410.833 63 407.5 65 407.5C67 407.5 65.8333 403.167 65 401C66.6667 398.167 71 393.4 75 397C79 400.6 76.6667 395.5 75 392.5C76.1667 390 79.4 385 83 385C87.5 385 89 381.5 92 381.5C95 381.5 95.5 379 98 376.5C100 374.5 101.5 375.667 102 376.5C103.167 378.167 104.8 382.2 102 385C98.5 388.5 105.5 389 105.5 392.5C105.5 396 110 397 113 401C116 405 118 407.5 124.5 412.5C131 417.5 136.5 419 147 428C151.5 433 151 434.5 155 436.5C159 438.5 157.5 446.5 169.5 457.5C168.5 461.5 170 464.5 173 464.5C176 464.5 177.5 457.5 180 457.5H189.5C193.5 457.5 191.167 456.167 189.5 455.5L193.5 450C197.333 446.5 207.1 438.5 215.5 434.5C226 429.5 241.5 412.5 249.5 404C257.5 395.5 262 389 272.5 376.5C283 364 279.5 341.5 279.5 337.5C279.5 334.3 278.167 330.167 277.5 328.5C278 327.333 279 323.2 279 316C278.6 313.2 279.167 309.5 279.5 308L284 298.5L289 296C287.333 294.667 284 291.6 284 290C284 288 277.5 283.5 284 270.5C287.6 269.3 294.5 268.333 297.5 268C299.5 264.833 304 258.5 306 258.5C308.5 258.5 311 258.5 317 263.5C323 268.5 320.5 263.5 324 263.5C327.5 263.5 328.5 258.5 328.5 255C328.5 252.2 330.833 253.833 332 255L336.5 258.5H347.5H357C360.6 258.5 358.5 261.833 357 263.5C358.667 265 362.5 268 364.5 268H373C376.5 268 377.5 269 380 268C382.5 267 385 264.5 389 263.5C393 262.5 397.5 260 397.5 258.5C397.5 257 401 253 401 250C401 247.6 403.667 246 405 245.5C406 245.833 408.5 246.3 410.5 245.5C413 244.5 414.5 242 414.5 239.5C414.5 237.5 419.167 240.333 421.5 242C420.333 244 417.3 248.4 414.5 250C411 252 410.5 258.5 418 279.5C418.4 281.9 420.5 285.5 421.5 287V296C421.5 300.5 421.5 305.5 425.5 308C429.5 310.5 430 305 435.5 305.5C441 306 438 311.5 439.5 313.5C441 315.5 445.5 321 446 328.5C446.5 336 439 336 435.5 337.5C432 339 425.5 340.5 421.5 341.5C417.5 342.5 417.5 347 414.5 349C411.5 351 407 360 405 362.5C403 365 401.5 367.5 393.5 367.5C387.1 367.5 387.833 371.5 389 373.5C388.5 375 387.8 378.7 389 381.5C390.5 385 393.5 389 397.5 397C397 400.5 397.5 404 393.5 407.5C389.5 411 389.5 411 385 413.5C380.5 416 379 417.5 373 419C367 420.5 362.5 422.5 352.5 425.5C348.5 428.5 347 432.5 344 434.5C341 436.5 340 438 336.5 439.5C333 441 333.5 442.5 328.5 446.5C323.5 450.5 322 453 320.5 453.5C319 454 319 450.5 317 450.5C315 450.5 311.5 450 308.5 450.5C305.5 451 304.5 454.5 303.5 455.5C302.5 456.5 298.5 455.5 297.5 455.5C296.5 455.5 293.5 459.5 289 457.5C287.5 457 285.5 455.5 284 455.5H279.5C278.333 456.167 276 457.9 276 459.5C276 461.1 273.667 463.5 272.5 464.5L277.5 466C276.167 466.667 273.3 468.9 272.5 472.5C271.5 477 270.5 477 267.5 479.5C264.5 482 272.5 484.5 276 484.5C279.5 484.5 279.5 490.5 276 490.5C272.5 490.5 268.5 493.5 265 497C262.2 499.8 259.5 503.833 258.5 505.5C256.333 505.833 251.5 506.3 249.5 505.5C247 504.5 241 499.5 238.5 499.5C236 499.5 234.5 496 230.5 493.5C226.5 491 222.5 493.5 215.5 490.5C208.5 487.5 206 489.5 201 490.5C196 491.5 188.5 492.5 184.5 493.5C180.5 494.5 173 500.5 166.5 499.5C160 498.5 146 487 142.5 484.5C139 482 137 470.5 136.5 468C136 465.5 134 460 133.5 457.5C133 455 133.5 452.5 129 450C124.5 447.5 125 449.5 118 447.5C111 445.5 110 440.5 105.5 436.5C101 432.5 100 436.5 92 436.5C85.6 436.5 83.3333 430.833 83 428C79.8333 427.667 72.8 426.2 70 423Z" fill="#F2F4F7" stroke="#CBCDD5"/>
<path d="M264.5 519C262.9 517 262.5 512.5 262.5 510.5C262.443 509 257.5 508 255.5 508C253.5 508 254.5 508 253 507.5C251.5 507 252 506.5 250.5 505.5C249 504.5 247.5 505 245.5 505C243.5 505 243.5 502.5 242.5 501C241.5 499.5 239 497.5 236.5 495.5C234 493.5 232.5 494 231 494C229.5 494 227.5 495.5 225.5 495.5C223.5 495.5 223 494 221.5 493C220 492 217 491.5 216 491C215 490.5 211.5 491 209 491C206.5 491 206 489 204 489C202 489 201.5 490.5 199.5 491.5C197.5 492.5 195 491 193.5 491C192 491 193 492.5 190.5 493C188 493.5 184.5 493.5 182.5 494C180.5 494.5 180.5 496.5 180 498C179.5 499.5 177 499 175 499C173 499 171 497 169.5 497C168 497 168 498 166 498C164 498 162 497 160.5 497C159 497 158 497 158 495.5C158 494 156 491.5 155 491C154 490.5 153 491.5 151.5 491.5C150 491.5 148.5 491 147.5 490.5C146.5 490 145.5 488 144.5 487C143.5 486 140 481.5 139.5 480.5C139 479.5 136.5 476 135.5 475.5C134.5 475 134.5 472.5 134 471C133.6 469.8 133.5 466.167 133.5 464.5C133.833 465.167 134.9 465.9 136.5 463.5C138.5 460.5 140.5 462 143.5 463.5C146.5 465 145.5 464.5 149.5 463.5C153.5 462.5 153 461 154.5 464.5C156 468 159.5 466 159.5 464.5V458C159.5 456 162 455.5 162 453.5C162 451.9 159.333 449.5 158 448.5C158.5 447.333 159.5 444.3 159.5 441.5C159.5 438 154.5 437 153 435.5C151.5 434 151 430.5 148.5 429C146 427.5 143.5 423 145.5 420.5C147.5 418 151 421.5 151 420.5C151 419.5 151 416.5 153 415C155 413.5 154.5 410 154.5 409C154.5 408 151 404 151 399.5C151 395 154 392.5 154.5 389.5C155 386.5 158 389.5 159.5 389.5C161 389.5 161 387.5 162 386C163 384.5 166 387.5 166 386C166 384.5 166.5 382 166 380.5C165.5 379 168 377 169.5 376C171 375 170.5 373.5 171 371C171.5 368.5 173 371 175 368.5C177 366 182 365 186 362.5C190 360 190.5 363.5 189.5 364.5C188.5 365.5 189 368.5 190.5 371C192 373.5 194 370.5 196 368.5C198 366.5 198 369 199.5 368.5C201 368 203 367 201.5 365C200 363 201.5 360.5 201.5 359.5C201.5 358.5 206 356 207.5 354C209 352 215 346 217 346C219 346 222 347 223.5 346C224.7 345.2 224.667 340.667 224.5 338.5C225.667 337.667 228.3 335.9 229.5 335.5C231 335 232 332 237.5 329.5C241.9 327.5 238.333 321.667 236 319C236.333 318 237.3 315.8 238.5 315C240 314 241 307 241 305C241 303 240.5 297 241 295.5C241.5 294 244.5 287.5 248.5 284.5C252.5 281.5 259.5 282.5 262.5 282.5C265.5 282.5 269.5 282.5 277 284.5C284.5 286.5 285 284.5 290.5 287.5C294.9 289.9 292.333 285.167 290.5 282.5C291.333 281.833 293.2 280.5 294 280.5H300.5C303 280.5 309 284.5 311.5 284.5C314 284.5 319 286 324.5 286C330 286 330 278.5 332 276.5C334 274.5 336.5 269 338 269C339.5 269 352.5 267.5 357 267.5C361.5 267.5 372.5 268 374.5 267.5C376.5 267 376 273.5 374.5 274.5C373.3 275.3 376 276.167 377.5 276.5C377.167 277.333 376.1 279.3 374.5 280.5C372.5 282 368.5 284 366.5 286C364.5 288 366.5 291 364 293C361.5 295 357 295 355 297C353 299 352.5 302.5 354 305.5C355.2 307.9 359.833 312.833 362 315L359.5 317C358.667 316.333 356.6 315 355 315C353 315 352 314.5 350 315C348 315.5 347 318 344.5 320.5C342 323 341 328.5 341 332V342.5C341 345.5 336.5 349 334 351.5C331.5 354 333.5 356.5 334 359C334.5 361.5 332 364.5 332 368C332 371.5 332 374.5 328 377.5C324 380.5 322.5 384.5 322.5 387C322.5 389.5 321 393.5 317 395C313 396.5 319 398.5 321 399.5C322.6 400.3 322.667 402.833 322.5 404C324.5 405.833 329.2 410.3 332 413.5C335.5 417.5 336.5 419.5 341 419.5C345.5 419.5 347 416 348.5 415.5C349.7 415.1 353.333 414 355 413.5C355.167 414.5 355.4 417.1 355 419.5C354.5 422.5 356 425 359.5 426C362.3 426.8 363.667 423.333 364 421.5H368.5C369.833 421.5 372.9 421.1 374.5 419.5C376.1 417.9 378.5 417.833 379.5 418L381.5 421.5L379.5 423C377.667 424.667 373.7 428.4 372.5 430C371.3 431.6 369.333 436.333 368.5 438.5C368.333 439.833 367.7 442.7 366.5 443.5C365 444.5 360 450 357 452C354 454 348.5 459.5 347 461C345.5 462.5 339.5 464.5 338 465.5C336.5 466.5 338 470 338 472C338 474 336.5 477.5 336.5 483C336.5 488.5 336 491.5 334 495C332 498.5 333 502 334 505C335 508 331.5 508 328.5 509C325.5 510 323.5 512 321.5 517.5C319.5 523 316.5 523 314.5 524C312.9 524.8 310.5 522.333 309.5 521C308.333 520.833 305.6 520.2 304 519C302 517.5 304.5 524 304 526.5C303.5 529 300 526.5 299 526.5C298 526.5 295.5 532 294 532C292.5 532 285.5 532.5 280 532C274.5 531.5 275 528.5 273 526.5C271 524.5 266.5 521.5 264.5 519Z" fill="#D8F0D4" fill-opacity="0.3" stroke="#76D33D" stroke-width="2" stroke-linecap="round"/>
<path d="M182.5 451.5C180.1 450.7 173.167 446.5 170 444.5C168.5 441 182.5 440.5 185 440.5C187.5 440.5 190.5 440.5 192 439.5C193.2 438.7 195.5 439.833 196.5 440.5C197.833 439.833 201 438.4 203 438C205.5 437.5 206.5 435 208 433.5C209.5 432 214.5 422.5 217 420.5C219.5 418.5 228.5 413.5 231 412C233.5 410.5 235.5 406 240 403C243.6 400.6 239.5 399 237 398.5C238.833 397.333 242.8 394.7 244 393.5C245.5 392 247.5 388.5 250.5 388.5C252.9 388.5 253.5 384.5 253.5 382.5C254.5 381.333 256.9 378.7 258.5 377.5C260.5 376 266.5 369.5 268 368.5C269.5 367.5 269 366 269.5 364C269.9 362.4 270.667 360.333 271 359.5C271.833 358.5 273.7 356.2 274.5 355C275.5 353.5 276 349.5 277.5 346.5C279 343.5 284 333 284 331.5C284 330 285 326.5 287.5 324.5C290 322.5 288.5 320.5 289 319.5C289.5 318.5 290.5 314 290.5 308.5C292.5 307.5 292.5 305.5 295 304C297.5 302.5 298 303.5 300 304C302 304.5 300 308 300 309.5C300 311 303 312 302.5 314C302 316 302 318 300 320.5C298 323 300.5 324.5 300 328C299.5 331.5 299.5 333.5 298 336C296.5 338.5 298 340 298 346.5C298 350.5 295.5 348 295 352C294.6 355.2 296.833 358.334 298 359.5C297 360.834 294.5 364 292.5 366C290 368.5 291.5 369.5 290.5 371.5C289.5 373.5 290 374 288.5 377.5C287.3 380.3 287.333 377.667 287.5 376C287.667 374.667 288.1 371.5 288.5 369.5C288.9 367.5 285.667 368.667 284 369.5C283.333 370.333 281.7 372.4 280.5 374C279.3 375.6 276 380.333 274.5 382.5L277.5 379H284C286 379 285 380.5 285 382.5C285 384.5 287.5 386.5 285 388.5C283 390.1 282.167 391.167 282 391.5C281.333 391.167 279.5 390.7 277.5 391.5C275 392.5 272.5 395 271 396.5C269.8 397.7 270.5 398.333 271 398.5V403C270.167 403.667 268.1 405.2 266.5 406C264.5 407 263.5 409 262 410.5C260.5 412 258.5 410.5 250.5 413.5C248 416 246 416 242.5 418C239 420 241 422.5 237 422.5C236 422.5 234.5 422 232 422.5C229.5 423 229.5 423.5 228.5 426.5C227.5 429.5 227.5 430.5 225.5 433.5C223.5 436.5 223 440 221.5 443C220 446 219 444.5 217 446C215.4 447.2 211 449.167 209 450C207.167 450.5 202.9 451.5 200.5 451.5C197.5 451.5 197 453.5 195 453.5H190.5C188.5 453.5 185.5 452.5 182.5 451.5Z" fill="#96CDFF"/>
<path d="M471 198C475.333 200.333 488.2 203.6 493 198C509 184 511 184 520 183C551 172 550 175 558 168" stroke="#CBCDD5"/>
</svg>
