<svg width="567" height="312" viewBox="0 0 567 312" fill="none" xmlns="http://www.w3.org/2000/svg">
<path d="M174.5 192C176.167 191.5 180.3 190.5 183.5 190.5C187.5 190.5 191 190.5 192.5 190.5C193.7 190.5 196 189.5 197 189" stroke="black"/>
<path d="M1 1L42 37L53 43C60 44.6667 75.4 48.4 81 50C88 52 112 65 118 72.5C124 80 123 79 126 87C129 95 131 97.5 134 104C137 110.5 154 125 159.5 130C165 135 164.5 138 164.5 140.5C164.5 143 167 150.5 169 155C170.6 158.6 182.333 173.5 188 180.5C187.5 181.5 186.3 183.7 185.5 184.5C184.5 185.5 179 190 177 190.5C175 191 173.5 192.5 173.5 194.5C173.5 196.5 180 199 183.5 201C187 203 195.5 205 198 205C200 205 202.167 202.333 203 201C204.833 201 209 201 211 201C213.5 201 219 199 220 197.5C221 196 223 195.5 224.5 195.5C226 195.5 235.5 193.5 240.5 192.5C245.5 191.5 252.5 185 255 185.5C257 185.9 260.5 194.667 262 199C265.333 201.333 273.1 206.3 277.5 207.5C283 209 284.5 210.5 291 210.5C297.5 210.5 305 207.5 308.5 207.5C312 207.5 310.5 207.5 318 207.5C325.5 207.5 321 210 333.5 207.5C346 205 356.5 194.5 361 194.5C364.6 194.5 381.5 187.833 389.5 184.5C395.667 187.167 409.4 192.5 415 192.5C422 192.5 433 193.5 439.5 195.5C446 197.5 465.5 201 476.5 201C487.5 201 493.5 197 500 201C505.2 204.2 518.167 208.667 524 210.5L540 215.5H567" stroke="black"/>
<path d="M262.5 199.5C260.5 206.333 257.1 220.9 259.5 224.5C262.5 229 268.5 231 267 236.5C265.5 242 259.5 247.5 259.5 250.5C259.5 253.5 256.5 255.5 259.5 260.5C262.5 265.5 262.5 272.5 262.5 276C262.5 278.8 260.5 300.5 259.5 311" stroke="black"/>
<path d="M174.5 192C176.167 191.5 180.3 190.5 183.5 190.5C187.5 190.5 191 190.5 192.5 190.5C193.7 190.5 196 189.5 197 189" stroke="white" stroke-dasharray="3 3"/>
<path d="M1 1L42 37L53 43C60 44.6667 75.4 48.4 81 50C88 52 112 65 118 72.5C124 80 123 79 126 87C129 95 131 97.5 134 104C137 110.5 154 125 159.5 130C165 135 164.5 138 164.5 140.5C164.5 143 167 150.5 169 155C170.6 158.6 182.333 173.5 188 180.5C187.5 181.5 186.3 183.7 185.5 184.5C184.5 185.5 179 190 177 190.5C175 191 173.5 192.5 173.5 194.5C173.5 196.5 180 199 183.5 201C187 203 195.5 205 198 205C200 205 202.167 202.333 203 201C204.833 201 209 201 211 201C213.5 201 219 199 220 197.5C221 196 223 195.5 224.5 195.5C226 195.5 235.5 193.5 240.5 192.5C245.5 191.5 252.5 185 255 185.5C257 185.9 260.5 194.667 262 199C265.333 201.333 273.1 206.3 277.5 207.5C283 209 284.5 210.5 291 210.5C297.5 210.5 305 207.5 308.5 207.5C312 207.5 310.5 207.5 318 207.5C325.5 207.5 321 210 333.5 207.5C346 205 356.5 194.5 361 194.5C364.6 194.5 381.5 187.833 389.5 184.5C395.667 187.167 409.4 192.5 415 192.5C422 192.5 433 193.5 439.5 195.5C446 197.5 465.5 201 476.5 201C487.5 201 493.5 197 500 201C505.2 204.2 518.167 208.667 524 210.5L540 215.5H567" stroke="white" stroke-dasharray="3 3"/>
<path d="M262.5 199.5C260.5 206.333 257.1 220.9 259.5 224.5C262.5 229 268.5 231 267 236.5C265.5 242 259.5 247.5 259.5 250.5C259.5 253.5 256.5 255.5 259.5 260.5C262.5 265.5 262.5 272.5 262.5 276C262.5 278.8 260.5 300.5 259.5 311" stroke="white" stroke-dasharray="3 3"/>
</svg>
