<svg width="487" height="354" viewBox="0 0 487 354" fill="none" xmlns="http://www.w3.org/2000/svg">
<path d="M3.392 11.888V2.672H1.664V14H3.744L8.496 7.056C9.296 5.888 9.36 5.328 9.36 4.784H9.856V14H11.584V2.672H9.504L4.56 9.952C3.92 10.896 3.888 11.392 3.888 11.888H3.392ZM14.626 5.936V17.264H16.258V13.808C17.026 14 17.794 14.192 19.234 14.192C22.882 14.192 22.882 11.696 22.882 10.352V9.584C22.882 8.048 22.882 5.744 19.426 5.744C17.506 5.744 16.45 6.544 16.066 6.832L15.394 5.936H14.626ZM21.154 9.968C21.154 12.64 21.154 12.656 18.562 12.656C17.986 12.656 17.026 12.656 16.258 12.464V7.856L18.562 7.28H18.834C21.154 7.28 21.154 7.376 21.154 9.968ZM33.411 6.384V5.936H31.587C30.435 7.472 29.763 8.368 29.763 9.2H26.883V5.936H25.251V14H26.883V10.736H29.763C29.763 11.568 30.435 12.464 31.587 14H33.411V13.552L30.707 9.968L33.411 6.384ZM38.1574 12.272C38.1574 11.696 38.1574 11.696 36.5094 7.376V5.936H34.7814C34.7814 7.616 34.7814 7.616 37.3414 13.616H38.9574L38.3814 15.152C38.0774 15.92 37.9494 15.92 37.0374 15.92H35.7734V17.456H36.6054C37.8534 17.456 39.1014 17.408 39.8214 15.664L42.4774 8.512C42.8454 7.616 42.8454 7.616 42.8454 6.256V5.936H41.1654V7.376C39.6454 11.728 39.6614 11.728 39.6614 12.272H38.1574ZM51.9834 5.936H43.9194V7.344H47.1034V14H48.7994V7.344H51.9834V5.936ZM57.4749 14.192C58.0509 14.192 59.2989 14.192 60.8349 13.808V12.272H60.4509L58.8989 12.656H58.0509C55.2669 12.656 55.2669 12.656 55.2669 9.968C55.2669 7.28 55.2669 7.28 57.4749 7.28C59.2989 7.28 59.2989 7.28 59.6829 8.816L61.2189 8.432C61.2189 7.664 61.2189 5.744 57.8589 5.744H57.0909C53.5389 5.744 53.5389 7.856 53.5389 9.584V10.352C53.5389 12.08 53.5389 14.192 57.4749 14.192ZM71.5516 6.384V5.936H69.7276C68.5756 7.472 67.9036 8.368 67.9036 9.2H65.0236V5.936H63.3916V14H65.0236V10.736H67.9036C67.9036 11.568 68.5756 12.464 69.7276 14H71.5516V13.552L68.8476 9.968L71.5516 6.384ZM80.282 14.192L81.498 13.28C80.922 12.512 80.922 12.512 80.922 10.928V9.584C80.922 7.664 80.922 5.744 77.178 5.744C76.602 5.744 75.354 5.744 73.818 6.128V7.664H74.202L75.738 7.28H77.178C79.29 7.28 79.29 7.28 79.29 9.296H77.178C73.146 9.296 73.146 10.64 73.146 11.888C73.146 12.656 73.146 14.192 76.026 14.192C78.01 14.192 79.082 13.392 79.466 13.104L80.282 14.192ZM74.97 11.696C74.97 10.544 74.97 10.544 77.178 10.544H79.29V12.08L76.986 12.656H76.122C74.97 12.656 74.97 12.656 74.97 11.696ZM90.8751 14V5.936H87.4191C85.0191 5.936 83.0991 5.936 83.0991 8.528C83.0991 9.936 83.5791 10.304 84.9231 11.312L83.2431 13.552V14H85.0671C85.6431 13.264 86.2671 12.496 86.2671 11.312H89.2431V14H90.8751ZM86.7471 9.968C84.9391 9.968 84.9231 9.968 84.9231 8.624C84.9231 7.296 84.9231 7.28 86.7471 7.28H89.2431V9.968H86.7471ZM99.6106 9.968C99.6106 7.28 99.6106 7.2 102.107 7.2C104.603 7.2 104.603 7.28 104.603 9.968C104.603 12.656 104.603 12.736 102.107 12.736C99.6106 12.736 99.6106 12.656 99.6106 9.968ZM97.8826 10.352C97.8826 11.888 97.8826 14.192 101.723 14.192H102.491C106.331 14.192 106.331 11.888 106.331 10.352V9.584C106.331 8.048 106.331 5.744 102.491 5.744H101.723C97.8826 5.744 97.8826 8.048 97.8826 9.584V10.352ZM114.08 4.592C114.944 4.384 115.792 4.16 116.096 2.96L116.192 2.576L114.656 2.192C114.464 2.768 114.48 2.768 113.696 2.96L111.776 3.44C108.512 4.256 108.512 6.416 108.512 8.912V9.536C108.512 12.224 108.512 14.192 112.448 14.192H113.216C117.056 14.192 117.056 12.272 117.056 10.832V9.968C117.056 8.528 117.056 6.608 113.6 6.608C111.296 6.608 110.528 7.136 110.176 7.568L109.888 7.472C110.368 5.552 110.368 5.52 112.16 5.072L114.08 4.592ZM112.832 8.032C115.328 8.032 115.328 8.384 115.328 10.4C115.328 12.416 115.328 12.768 112.704 12.768C110.336 12.768 110.336 12.416 110.336 10.4C110.336 8.384 110.336 8.032 112.832 8.032ZM125.393 7.36V14H127.025V5.936H120.513C120.465 7.6 120.369 8.976 120.081 11.056C119.889 12.448 119.729 12.72 118.353 12.72V14.032C120.945 14.032 121.217 13.728 121.537 11.344C121.777 9.584 121.889 8.352 121.921 7.36H125.393ZM136.438 14.192L137.654 13.28C137.078 12.512 137.078 12.512 137.078 10.928V9.584C137.078 7.664 137.078 5.744 133.334 5.744C132.758 5.744 131.51 5.744 129.974 6.128V7.664H130.358L131.894 7.28H133.334C135.446 7.28 135.446 7.28 135.446 9.296H133.334C129.302 9.296 129.302 10.64 129.302 11.888C129.302 12.656 129.302 14.192 132.182 14.192C134.166 14.192 135.238 13.392 135.622 13.104L136.438 14.192ZM131.126 11.696C131.126 10.544 131.126 10.544 133.334 10.544H135.446V12.08L133.142 12.656H132.278C131.126 12.656 131.126 12.656 131.126 11.696ZM143.287 14.192C143.863 14.192 145.111 14.192 146.647 13.808V12.272H146.263L144.711 12.656H143.863C141.079 12.656 141.079 12.656 141.079 9.968C141.079 7.28 141.079 7.28 143.287 7.28C145.111 7.28 145.111 7.28 145.495 8.816L147.031 8.432C147.031 7.664 147.031 5.744 143.671 5.744H142.903C139.351 5.744 139.351 7.856 139.351 9.584V10.352C139.351 12.08 139.351 14.192 143.287 14.192ZM156.452 5.936H148.388V7.344H151.572V14H153.268V7.344H156.452V5.936ZM162.232 14C164.152 14 165.88 14 165.88 11.312C165.88 10.352 165.88 8.432 162.424 8.432C161.656 8.432 160.792 8.528 160.024 8.72V5.936H158.392V14H162.232ZM162.424 9.968C164.152 9.968 164.152 9.968 164.152 11.312C164.152 12.656 164.152 12.656 162.424 12.656H160.024V9.968H162.424Z" fill="#363636"/>
<path d="M351.768 105.672V111.432L349.464 112.008H348.792C345.912 112.008 345.912 112.008 345.912 109.128V105.672H344.184V109.128C344.184 111.432 344.184 113.736 347.832 113.736C349.08 113.736 350.232 113.448 351.768 113.064V117H353.496V105.672H351.768ZM358.756 117C362.932 111.448 362.932 111.16 362.932 110.312H363.348V117H364.98V108.936H362.772C358.596 114.488 358.596 114.776 358.596 115.624H358.164V108.936H356.532V117H358.756ZM374.983 108.936H366.919V110.344H370.103V117H371.799V110.344H374.983V108.936ZM379.147 117C383.323 111.448 383.323 111.16 383.323 110.312H383.739V117H385.371V108.936H383.163C378.987 114.488 378.987 114.776 378.987 115.624H378.555V108.936H376.923V117H379.147ZM394.462 108.936V112.184H389.758V108.936H388.126V117H389.758V113.592H394.462V117H396.094V108.936H394.462ZM402.397 117.192C402.973 117.192 404.221 117.192 405.757 116.808V115.272H405.373L403.821 115.656H402.973C400.189 115.656 400.189 115.656 400.189 112.968C400.189 110.28 400.189 110.28 402.397 110.28C404.221 110.28 404.221 110.28 404.605 111.816L406.141 111.432C406.141 110.664 406.141 108.744 402.781 108.744H402.013C398.461 108.744 398.461 110.856 398.461 112.584V113.352C398.461 115.08 398.461 117.192 402.397 117.192ZM416.474 109.384V108.936H414.65C413.498 110.472 412.826 111.368 412.826 112.2H409.946V108.936H408.314V117H409.946V113.736H412.826C412.826 114.568 413.498 115.464 414.65 117H416.474V116.552L413.77 112.968L416.474 109.384ZM425.204 117.192L426.42 116.28C425.844 115.512 425.844 115.512 425.844 113.928V112.584C425.844 110.664 425.844 108.744 422.1 108.744C421.524 108.744 420.276 108.744 418.74 109.128V110.664H419.124L420.66 110.28H422.1C424.212 110.28 424.212 110.28 424.212 112.296H422.1C418.068 112.296 418.068 113.64 418.068 114.888C418.068 115.656 418.068 117.192 420.948 117.192C422.932 117.192 424.004 116.392 424.388 116.104L425.204 117.192ZM419.892 114.696C419.892 113.544 419.892 113.544 422.1 113.544H424.212V115.08L421.908 115.656H421.044C419.892 115.656 419.892 115.656 419.892 114.696ZM435.797 117V108.936H432.341C429.941 108.936 428.021 108.936 428.021 111.528C428.021 112.936 428.501 113.304 429.845 114.312L428.165 116.552V117H429.989C430.565 116.264 431.189 115.496 431.189 114.312H434.165V117H435.797ZM431.669 112.968C429.861 112.968 429.845 112.968 429.845 111.624C429.845 110.296 429.845 110.28 431.669 110.28H434.165V112.968H431.669ZM345.72 131.968C345.72 129.28 345.72 129.2 348.216 129.2C350.712 129.2 350.712 129.28 350.712 131.968C350.712 134.656 350.712 134.736 348.216 134.736C345.72 134.736 345.72 134.656 345.72 131.968ZM343.992 132.352C343.992 133.888 343.992 136.192 347.832 136.192H348.6C352.44 136.192 352.44 133.888 352.44 132.352V131.584C352.44 130.048 352.44 127.744 348.6 127.744H347.832C343.992 127.744 343.992 130.048 343.992 131.584V132.352ZM360.19 126.592C361.054 126.384 361.902 126.16 362.206 124.96L362.302 124.576L360.766 124.192C360.574 124.768 360.59 124.768 359.806 124.96L357.886 125.44C354.622 126.256 354.622 128.416 354.622 130.912V131.536C354.622 134.224 354.622 136.192 358.558 136.192H359.326C363.166 136.192 363.166 134.272 363.166 132.832V131.968C363.166 130.528 363.166 128.608 359.71 128.608C357.406 128.608 356.638 129.136 356.286 129.568L355.998 129.472C356.478 127.552 356.478 127.52 358.27 127.072L360.19 126.592ZM358.942 130.032C361.438 130.032 361.438 130.384 361.438 132.4C361.438 134.416 361.438 134.768 358.814 134.768C356.446 134.768 356.446 134.416 356.446 132.4C356.446 130.384 356.446 130.032 358.942 130.032ZM371.503 129.36V136H373.135V127.936H366.623C366.575 129.6 366.479 130.976 366.191 133.056C365.999 134.448 365.839 134.72 364.463 134.72V136.032C367.055 136.032 367.327 135.728 367.647 133.344C367.887 131.584 367.999 130.352 368.031 129.36H371.503ZM382.548 136.192L383.764 135.28C383.188 134.512 383.188 134.512 383.188 132.928V131.584C383.188 129.664 383.188 127.744 379.444 127.744C378.868 127.744 377.62 127.744 376.084 128.128V129.664H376.468L378.004 129.28H379.444C381.556 129.28 381.556 129.28 381.556 131.296H379.444C375.412 131.296 375.412 132.64 375.412 133.888C375.412 134.656 375.412 136.192 378.292 136.192C380.276 136.192 381.348 135.392 381.732 135.104L382.548 136.192ZM377.236 133.696C377.236 132.544 377.236 132.544 379.444 132.544H381.556V134.08L379.252 134.656H378.388C377.236 134.656 377.236 134.656 377.236 133.696ZM389.397 136.192C389.973 136.192 391.221 136.192 392.757 135.808V134.272H392.373L390.821 134.656H389.973C387.189 134.656 387.189 134.656 387.189 131.968C387.189 129.28 387.189 129.28 389.397 129.28C391.221 129.28 391.221 129.28 391.605 130.816L393.141 130.432C393.141 129.664 393.141 127.744 389.781 127.744H389.013C385.461 127.744 385.461 129.856 385.461 131.584V132.352C385.461 134.08 385.461 136.192 389.397 136.192ZM402.562 127.936H394.498V129.344H397.682V136H399.378V129.344H402.562V127.936ZM408.341 136C410.261 136 411.989 136 411.989 133.312C411.989 132.352 411.989 130.432 408.533 130.432C407.765 130.432 406.901 130.528 406.133 130.72V127.936H404.501V136H408.341ZM408.533 131.968C410.261 131.968 410.261 131.968 410.261 133.312C410.261 134.656 410.261 134.656 408.533 134.656H406.133V131.968H408.533Z" fill="#363636"/>
<path d="M330.768 153.672V159.432L328.464 160.008H327.792C324.912 160.008 324.912 160.008 324.912 157.128V153.672H323.184V157.128C323.184 159.432 323.184 161.736 326.832 161.736C328.08 161.736 329.232 161.448 330.768 161.064V165H332.496V153.672H330.768ZM337.756 165C341.932 159.448 341.932 159.16 341.932 158.312H342.348V165H343.98V156.936H341.772C337.596 162.488 337.596 162.776 337.596 163.624H337.164V156.936H335.532V165H337.756ZM353.983 156.936H345.919V158.344H349.103V165H350.799V158.344H353.983V156.936ZM362.579 165.192L363.795 164.28C363.219 163.512 363.219 163.512 363.219 161.928V160.584C363.219 158.664 363.219 156.744 359.475 156.744C358.899 156.744 357.651 156.744 356.115 157.128V158.664H356.499L358.035 158.28H359.475C361.587 158.28 361.587 158.28 361.587 160.296H359.475C355.443 160.296 355.443 161.64 355.443 162.888C355.443 163.656 355.443 165.192 358.323 165.192C360.307 165.192 361.379 164.392 361.763 164.104L362.579 165.192ZM357.267 162.696C357.267 161.544 357.267 161.544 359.475 161.544H361.587V163.08L359.283 163.656H358.419C357.267 163.656 357.267 163.656 357.267 162.696Z" fill="#363636"/>
<path d="M199.8 172.912C199.8 172.144 199.8 172.144 197.256 166.672H195.56V167.248L198.92 174.304H201.192L200.632 175.504C200.184 176.464 199.976 176.464 198.824 176.464H197.368V178H198.44C200.472 178 201.368 178 202.36 175.696L205.992 167.248V166.672H204.344C202.04 172.144 202.04 172.144 202.072 172.912H199.8ZM212.909 171.36V178H214.541V169.936H208.029C207.981 171.6 207.885 172.976 207.597 175.056C207.405 176.448 207.245 176.72 205.869 176.72V178.032C208.461 178.032 208.733 177.728 209.053 175.344C209.293 173.584 209.405 172.352 209.437 171.36H212.909ZM223.954 178.192L225.17 177.28C224.594 176.512 224.594 176.512 224.594 174.928V173.584C224.594 171.664 224.594 169.744 220.85 169.744C220.274 169.744 219.026 169.744 217.49 170.128V171.664H217.874L219.41 171.28H220.85C222.962 171.28 222.962 171.28 222.962 173.296H220.85C216.818 173.296 216.818 174.64 216.818 175.888C216.818 176.656 216.818 178.192 219.698 178.192C221.682 178.192 222.754 177.392 223.138 177.104L223.954 178.192ZM218.642 175.696C218.642 174.544 218.642 174.544 220.85 174.544H222.962V176.08L220.658 176.656H219.794C218.642 176.656 218.642 176.656 218.642 175.696ZM233.587 169.936V173.184H228.883V169.936H227.251V178H228.883V174.592H233.587V178H235.219V169.936H233.587ZM236.914 172.72V174.16H241.714V172.72H236.914ZM246.441 172.912C246.441 172.144 246.441 172.144 243.897 166.672H242.201V167.248L245.561 174.304H247.833L247.273 175.504C246.825 176.464 246.617 176.464 245.465 176.464H244.009V178H245.081C247.113 178 248.009 178 249.001 175.696L252.633 167.248V166.672H250.985C248.681 172.144 248.681 172.144 248.713 172.912H246.441ZM254.05 178H261.074V180.304H262.642V176.656H261.298V169.936H254.738V170.896C254.738 172.8 254.53 174.832 253.586 176.656H252.482V180.304H254.05V178ZM256.306 171.344H259.666V176.656H255.346C256.114 174.816 256.306 172.864 256.306 171.344ZM271.395 173.584C271.395 171.856 271.395 169.744 267.651 169.744H267.363C266.787 169.744 265.635 169.744 264.099 170.128V171.664H264.483L266.019 171.28H267.459C269.667 171.28 269.667 171.28 269.667 173.296H266.019V174.64H269.667C269.667 176.656 269.667 176.656 267.459 176.656H266.019L264.483 176.272H264.099V177.808C265.635 178.192 266.787 178.192 267.363 178.192H267.651C271.395 178.192 271.395 176.08 271.395 174.352V173.584Z" fill="#363636"/>
<path d="M197.8 285.912C197.8 285.144 197.8 285.144 195.256 279.672H193.56V280.248L196.92 287.304H199.192L198.632 288.504C198.184 289.464 197.976 289.464 196.824 289.464H195.368V291H196.44C198.472 291 199.368 291 200.36 288.696L203.992 280.248V279.672H202.344C200.04 285.144 200.04 285.144 200.072 285.912H197.8ZM210.909 284.36V291H212.541V282.936H206.029C205.981 284.6 205.885 285.976 205.597 288.056C205.405 289.448 205.245 289.72 203.869 289.72V291.032C206.461 291.032 206.733 290.728 207.053 288.344C207.293 286.584 207.405 285.352 207.437 284.36H210.909ZM221.954 291.192L223.17 290.28C222.594 289.512 222.594 289.512 222.594 287.928V286.584C222.594 284.664 222.594 282.744 218.85 282.744C218.274 282.744 217.026 282.744 215.49 283.128V284.664H215.874L217.41 284.28H218.85C220.962 284.28 220.962 284.28 220.962 286.296H218.85C214.818 286.296 214.818 287.64 214.818 288.888C214.818 289.656 214.818 291.192 217.698 291.192C219.682 291.192 220.754 290.392 221.138 290.104L221.954 291.192ZM216.642 288.696C216.642 287.544 216.642 287.544 218.85 287.544H220.962V289.08L218.658 289.656H217.794C216.642 289.656 216.642 289.656 216.642 288.696ZM231.587 282.936V286.184H226.883V282.936H225.251V291H226.883V287.592H231.587V291H233.219V282.936H231.587ZM234.914 285.72V287.16H239.714V285.72H234.914ZM243.423 284.152V281.208H250.143V279.672H241.695V291H245.727C249.279 291 251.103 290.92 251.103 287.576C251.103 284.232 249.279 284.152 245.727 284.152H243.423ZM243.423 285.688H246.879C249.247 285.688 249.279 285.688 249.279 287.576C249.279 289.432 249.279 289.464 246.879 289.464H243.423V285.688ZM259.938 291.192L261.154 290.28C260.578 289.512 260.578 289.512 260.578 287.928V286.584C260.578 284.664 260.578 282.744 256.834 282.744C256.258 282.744 255.01 282.744 253.474 283.128V284.664H253.858L255.394 284.28H256.834C258.946 284.28 258.946 284.28 258.946 286.296H256.834C252.802 286.296 252.802 287.64 252.802 288.888C252.802 289.656 252.802 291.192 255.682 291.192C257.666 291.192 258.738 290.392 259.122 290.104L259.938 291.192ZM254.626 288.696C254.626 287.544 254.626 287.544 256.834 287.544H258.946V289.08L256.642 289.656H255.778C254.626 289.656 254.626 289.656 254.626 288.696ZM270.483 282.936H262.419V284.344H265.603V291H267.299V284.344H270.483V282.936ZM273.767 286.968C273.767 284.28 273.767 284.2 276.263 284.2C278.759 284.2 278.759 284.28 278.759 286.968C278.759 289.656 278.759 289.736 276.263 289.736C273.767 289.736 273.767 289.656 273.767 286.968ZM272.039 287.352C272.039 288.888 272.039 291.192 275.879 291.192H276.647C280.487 291.192 280.487 288.888 280.487 287.352V286.584C280.487 285.048 280.487 282.744 276.647 282.744H275.879C272.039 282.744 272.039 285.048 272.039 286.584V287.352ZM282.86 282.936V294.264H284.492V290.808C285.26 291 286.028 291.192 287.468 291.192C291.116 291.192 291.116 288.696 291.116 287.352V286.584C291.116 285.048 291.116 282.744 287.66 282.744C285.74 282.744 284.684 283.544 284.3 283.832L283.628 282.936H282.86ZM289.388 286.968C289.388 289.64 289.388 289.656 286.796 289.656C286.22 289.656 285.26 289.656 284.492 289.464V284.856L286.796 284.28H287.068C289.388 284.28 289.388 284.376 289.388 286.968Z" fill="#363636"/>
<path d="M113.392 153.888V144.672H111.664V156H113.744L118.496 149.056C119.296 147.888 119.36 147.328 119.36 146.784H119.856V156H121.584V144.672H119.504L114.56 151.952C113.92 152.896 113.888 153.392 113.888 153.888H113.392ZM124.626 147.936V159.264H126.258V155.808C127.026 156 127.794 156.192 129.234 156.192C132.882 156.192 132.882 153.696 132.882 152.352V151.584C132.882 150.048 132.882 147.744 129.426 147.744C127.506 147.744 126.45 148.544 126.066 148.832L125.394 147.936H124.626ZM131.154 151.968C131.154 154.64 131.154 154.656 128.562 154.656C127.986 154.656 127.026 154.656 126.258 154.464V149.856L128.562 149.28H128.834C131.154 149.28 131.154 149.376 131.154 151.968ZM143.411 148.384V147.936H141.587C140.435 149.472 139.763 150.368 139.763 151.2H136.883V147.936H135.251V156H136.883V152.736H139.763C139.763 153.568 140.435 154.464 141.587 156H143.411V155.552L140.707 151.968L143.411 148.384ZM148.157 154.272C148.157 153.696 148.157 153.696 146.509 149.376V147.936H144.781C144.781 149.616 144.781 149.616 147.341 155.616H148.957L148.381 157.152C148.077 157.92 147.949 157.92 147.037 157.92H145.773V159.456H146.605C147.853 159.456 149.101 159.408 149.821 157.664L152.477 150.512C152.845 149.616 152.845 149.616 152.845 148.256V147.936H151.165V149.376C149.645 153.728 149.661 153.728 149.661 154.272H148.157ZM161.983 147.936H153.919V149.344H157.103V156H158.799V149.344H161.983V147.936ZM167.475 156.192C168.051 156.192 169.299 156.192 170.835 155.808V154.272H170.451L168.899 154.656H168.051C165.267 154.656 165.267 154.656 165.267 151.968C165.267 149.28 165.267 149.28 167.475 149.28C169.299 149.28 169.299 149.28 169.683 150.816L171.219 150.432C171.219 149.664 171.219 147.744 167.859 147.744H167.091C163.539 147.744 163.539 149.856 163.539 151.584V152.352C163.539 154.08 163.539 156.192 167.475 156.192ZM181.552 148.384V147.936H179.728C178.576 149.472 177.904 150.368 177.904 151.2H175.024V147.936H173.392V156H175.024V152.736H177.904C177.904 153.568 178.576 154.464 179.728 156H181.552V155.552L178.848 151.968L181.552 148.384Z" fill="#363636"/>
<path d="M259.392 58.208H262.752C265.216 58.208 265.248 58.208 265.248 60.608C265.248 62.976 265.248 63.008 262.752 63.008H259.392V58.208ZM257.664 68H259.392V64.544H261.6C265.248 64.544 267.072 64.544 267.072 60.608C267.072 56.672 265.248 56.672 261.6 56.672H257.664V68ZM272.709 66.656C270.501 66.656 270.501 66.656 270.501 64.64H272.709C275.013 64.64 275.397 64.64 276.261 64.448L276.645 64.352V63.584C276.645 62.048 276.645 59.744 273.093 59.744H272.325C268.773 59.744 268.773 62.048 268.773 63.584V64.352C268.773 66.08 268.773 68.192 272.709 68.192C273.381 68.192 274.533 68.192 276.069 67.808V66.272H275.685L274.149 66.656H272.709ZM270.501 63.392C270.501 61.28 270.501 61.28 272.709 61.28C274.917 61.28 274.917 61.28 274.917 63.392H270.501ZM282.569 68.192C283.145 68.192 284.393 68.192 285.929 67.808V66.272H285.545L283.993 66.656H283.145C280.361 66.656 280.361 66.656 280.361 63.968C280.361 61.28 280.361 61.28 282.569 61.28C284.393 61.28 284.393 61.28 284.777 62.816L286.313 62.432C286.313 61.664 286.313 59.744 282.953 59.744H282.185C278.633 59.744 278.633 61.856 278.633 63.584V64.352C278.633 66.08 278.633 68.192 282.569 68.192ZM294.821 59.936H288.485V68H290.117V61.344H294.821V68H296.453V59.936H294.821ZM301.876 66.272C301.876 65.696 301.876 65.696 300.228 61.376V59.936H298.5C298.5 61.616 298.5 61.616 301.06 67.616H302.676L302.1 69.152C301.796 69.92 301.668 69.92 300.756 69.92H299.492V71.456H300.324C301.572 71.456 302.82 71.408 303.54 69.664L306.196 62.512C306.564 61.616 306.564 61.616 306.564 60.256V59.936H304.884V61.376C303.364 65.728 303.38 65.728 303.38 66.272H301.876ZM313.83 58.592C314.694 58.384 315.542 58.16 315.846 56.96L315.942 56.576L314.406 56.192C314.214 56.768 314.23 56.768 313.446 56.96L311.526 57.44C308.262 58.256 308.262 60.416 308.262 62.912V63.536C308.262 66.224 308.262 68.192 312.198 68.192H312.966C316.806 68.192 316.806 66.272 316.806 64.832V63.968C316.806 62.528 316.806 60.608 313.35 60.608C311.046 60.608 310.278 61.136 309.926 61.568L309.638 61.472C310.118 59.552 310.118 59.52 311.91 59.072L313.83 58.592ZM312.582 62.032C315.078 62.032 315.078 62.384 315.078 64.4C315.078 66.416 315.078 66.768 312.454 66.768C310.086 66.768 310.086 66.416 310.086 64.4C310.086 62.384 310.086 62.032 312.582 62.032ZM325.143 61.36V68H326.775V59.936H320.263C320.215 61.6 320.119 62.976 319.831 65.056C319.639 66.448 319.479 66.72 318.103 66.72V68.032C320.695 68.032 320.967 67.728 321.287 65.344C321.527 63.584 321.639 62.352 321.671 61.36H325.143ZM331.756 68C335.932 62.448 335.932 62.16 335.932 61.312H336.348V68H337.98V59.936H335.772C331.596 65.488 331.596 65.776 331.596 66.624H331.164V59.936H329.532V68H331.756ZM348.895 60.384V59.936H347.071C345.919 61.472 345.247 62.368 345.247 63.2H342.367V59.936H340.735V68H342.367V64.736H345.247C345.247 65.568 345.919 66.464 347.071 68H348.895V67.552L346.191 63.968L348.895 60.384ZM357.626 68.192L358.842 67.28C358.266 66.512 358.266 66.512 358.266 64.928V63.584C358.266 61.664 358.266 59.744 354.522 59.744C353.946 59.744 352.698 59.744 351.162 60.128V61.664H351.546L353.082 61.28H354.522C356.634 61.28 356.634 61.28 356.634 63.296H354.522C350.49 63.296 350.49 64.64 350.49 65.888C350.49 66.656 350.49 68.192 353.37 68.192C355.354 68.192 356.426 67.392 356.81 67.104L357.626 68.192ZM352.314 65.696C352.314 64.544 352.314 64.544 354.522 64.544H356.634V66.08L354.33 66.656H353.466C352.314 66.656 352.314 66.656 352.314 65.696ZM259.392 80.152V77.208H266.112V75.672H257.664V87H261.696C265.248 87 267.072 86.92 267.072 83.576C267.072 80.232 265.248 80.152 261.696 80.152H259.392ZM259.392 81.688H262.848C265.216 81.688 265.248 81.688 265.248 83.576C265.248 85.432 265.248 85.464 262.848 85.464H259.392V81.688ZM271.923 85.272C271.923 84.696 271.923 84.696 270.275 80.376V78.936H268.547C268.547 80.616 268.547 80.616 271.107 86.616H272.723L272.147 88.152C271.843 88.92 271.715 88.92 270.803 88.92H269.539V90.456H270.371C271.619 90.456 272.867 90.408 273.587 88.664L276.243 81.512C276.611 80.616 276.611 80.616 276.611 79.256V78.936H274.931V80.376C273.411 84.728 273.427 84.728 273.427 85.272H271.923ZM278.501 78.936V90.264H280.133V86.808C280.901 87 281.669 87.192 283.109 87.192C286.757 87.192 286.757 84.696 286.757 83.352V82.584C286.757 81.048 286.757 78.744 283.301 78.744C281.381 78.744 280.325 79.544 279.941 79.832L279.269 78.936H278.501ZM285.029 82.968C285.029 85.64 285.029 85.656 282.437 85.656C281.861 85.656 280.901 85.656 280.133 85.464V80.856L282.437 80.28H282.709C285.029 80.28 285.029 80.376 285.029 82.968ZM296.422 87V78.936H292.966C290.566 78.936 288.646 78.936 288.646 81.528C288.646 82.936 289.126 83.304 290.47 84.312L288.79 86.552V87H290.614C291.19 86.264 291.814 85.496 291.814 84.312H294.79V87H296.422ZM292.294 82.968C290.486 82.968 290.47 82.968 290.47 81.624C290.47 80.296 290.47 80.28 292.294 80.28H294.79V82.968H292.294ZM306.421 78.936H298.357V80.344H301.541V87H303.237V80.344H306.421V78.936ZM310.584 87C314.76 81.448 314.76 81.16 314.76 80.312H315.176V87H316.808V78.936H314.6C310.424 84.488 310.424 84.776 310.424 85.624H309.992V78.936H308.36V87H310.584ZM326.86 87V78.936H323.404C321.004 78.936 319.084 78.936 319.084 81.528C319.084 82.936 319.564 83.304 320.908 84.312L319.228 86.552V87H321.052C321.628 86.264 322.252 85.496 322.252 84.312H325.228V87H326.86ZM322.732 82.968C320.924 82.968 320.908 82.968 320.908 81.624C320.908 80.296 320.908 80.28 322.732 80.28H325.228V82.968H322.732Z" fill="#363636"/>
<path d="M124.392 320.208H127.752C130.216 320.208 130.248 320.208 130.248 322.608C130.248 324.976 130.248 325.008 127.752 325.008H124.392V320.208ZM122.664 330H124.392V326.544H126.6C130.248 326.544 132.072 326.544 132.072 322.608C132.072 318.672 130.248 318.672 126.6 318.672H122.664V330ZM137.709 328.656C135.501 328.656 135.501 328.656 135.501 326.64H137.709C140.013 326.64 140.397 326.64 141.261 326.448L141.645 326.352V325.584C141.645 324.048 141.645 321.744 138.093 321.744H137.325C133.773 321.744 133.773 324.048 133.773 325.584V326.352C133.773 328.08 133.773 330.192 137.709 330.192C138.381 330.192 139.533 330.192 141.069 329.808V328.272H140.685L139.149 328.656H137.709ZM135.501 325.392C135.501 323.28 135.501 323.28 137.709 323.28C139.917 323.28 139.917 323.28 139.917 325.392H135.501ZM147.569 330.192C148.145 330.192 149.393 330.192 150.929 329.808V328.272H150.545L148.993 328.656H148.145C145.361 328.656 145.361 328.656 145.361 325.968C145.361 323.28 145.361 323.28 147.569 323.28C149.393 323.28 149.393 323.28 149.777 324.816L151.313 324.432C151.313 323.664 151.313 321.744 147.953 321.744H147.185C143.633 321.744 143.633 323.856 143.633 325.584V326.352C143.633 328.08 143.633 330.192 147.569 330.192ZM159.821 321.936H153.485V330H155.117V323.344H159.821V330H161.453V321.936H159.821ZM166.876 328.272C166.876 327.696 166.876 327.696 165.228 323.376V321.936H163.5C163.5 323.616 163.5 323.616 166.06 329.616H167.676L167.1 331.152C166.796 331.92 166.668 331.92 165.756 331.92H164.492V333.456H165.324C166.572 333.456 167.82 333.408 168.54 331.664L171.196 324.512C171.564 323.616 171.564 323.616 171.564 322.256V321.936H169.884V323.376C168.364 327.728 168.38 327.728 168.38 328.272H166.876ZM178.83 320.592C179.694 320.384 180.542 320.16 180.846 318.96L180.942 318.576L179.406 318.192C179.214 318.768 179.23 318.768 178.446 318.96L176.526 319.44C173.262 320.256 173.262 322.416 173.262 324.912V325.536C173.262 328.224 173.262 330.192 177.198 330.192H177.966C181.806 330.192 181.806 328.272 181.806 326.832V325.968C181.806 324.528 181.806 322.608 178.35 322.608C176.046 322.608 175.278 323.136 174.926 323.568L174.638 323.472C175.118 321.552 175.118 321.52 176.91 321.072L178.83 320.592ZM177.582 324.032C180.078 324.032 180.078 324.384 180.078 326.4C180.078 328.416 180.078 328.768 177.454 328.768C175.086 328.768 175.086 328.416 175.086 326.4C175.086 324.384 175.086 324.032 177.582 324.032ZM190.143 323.36V330H191.775V321.936H185.263C185.215 323.6 185.119 324.976 184.831 327.056C184.639 328.448 184.479 328.72 183.103 328.72V330.032C185.695 330.032 185.967 329.728 186.287 327.344C186.527 325.584 186.639 324.352 186.671 323.36H190.143ZM196.756 330C200.932 324.448 200.932 324.16 200.932 323.312H201.348V330H202.98V321.936H200.772C196.596 327.488 196.596 327.776 196.596 328.624H196.164V321.936H194.532V330H196.756ZM213.895 322.384V321.936H212.071C210.919 323.472 210.247 324.368 210.247 325.2H207.367V321.936H205.735V330H207.367V326.736H210.247C210.247 327.568 210.919 328.464 212.071 330H213.895V329.552L211.191 325.968L213.895 322.384ZM222.626 330.192L223.842 329.28C223.266 328.512 223.266 328.512 223.266 326.928V325.584C223.266 323.664 223.266 321.744 219.522 321.744C218.946 321.744 217.698 321.744 216.162 322.128V323.664H216.546L218.082 323.28H219.522C221.634 323.28 221.634 323.28 221.634 325.296H219.522C215.49 325.296 215.49 326.64 215.49 327.888C215.49 328.656 215.49 330.192 218.37 330.192C220.354 330.192 221.426 329.392 221.81 329.104L222.626 330.192ZM217.314 327.696C217.314 326.544 217.314 326.544 219.522 326.544H221.634V328.08L219.33 328.656H218.466C217.314 328.656 217.314 328.656 217.314 327.696ZM122.664 337.672V349H124.392V339.208H124.904C124.904 340.04 124.904 340.04 128.264 349H130.408C133.768 340.04 133.768 340.04 133.768 339.208H134.28V349H136.008V337.672H132.856C129.544 346.504 129.544 346.504 129.544 347.464H129.128C129.128 346.504 129.128 346.504 125.816 337.672H122.664ZM140.392 344.968C140.392 342.28 140.392 342.2 142.888 342.2C145.384 342.2 145.384 342.28 145.384 344.968C145.384 347.656 145.384 347.736 142.888 347.736C140.392 347.736 140.392 347.656 140.392 344.968ZM138.664 345.352C138.664 346.888 138.664 349.192 142.504 349.192H143.272C147.112 349.192 147.112 346.888 147.112 345.352V344.584C147.112 343.048 147.112 340.744 143.272 340.744H142.504C138.664 340.744 138.664 343.048 138.664 344.584V345.352ZM155.821 340.936V344.184H151.117V340.936H149.485V349H151.117V345.592H155.821V349H157.453V340.936H155.821ZM166.7 340.936H160.204V349H161.836V342.344H166.7V340.936ZM169.814 344.968C169.814 342.28 169.814 342.2 172.31 342.2C174.806 342.2 174.806 342.28 174.806 344.968C174.806 347.656 174.806 347.736 172.31 347.736C169.814 347.736 169.814 347.656 169.814 344.968ZM168.086 345.352C168.086 346.888 168.086 349.192 171.926 349.192H172.694C176.534 349.192 176.534 346.888 176.534 345.352V344.584C176.534 343.048 176.534 340.744 172.694 340.744H171.926C168.086 340.744 168.086 343.048 168.086 344.584V345.352ZM184.971 342.36V349H186.603V340.936H180.091C180.043 342.6 179.947 343.976 179.659 346.056C179.467 347.448 179.307 347.72 177.931 347.72V349.032C180.523 349.032 180.795 348.728 181.115 346.344C181.355 344.584 181.467 343.352 181.499 342.36H184.971ZM191.584 349C195.76 343.448 195.76 343.16 195.76 342.312H196.176V349H197.808V340.936H195.6C191.424 346.488 191.424 346.776 191.424 347.624H190.992V340.936H189.36V349H191.584ZM207.86 349V340.936H204.404C202.004 340.936 200.084 340.936 200.084 343.528C200.084 344.936 200.564 345.304 201.908 346.312L200.228 348.552V349H202.052C202.628 348.264 203.252 347.496 203.252 346.312H206.228V349H207.86ZM203.732 344.968C201.924 344.968 201.908 344.968 201.908 343.624C201.908 342.296 201.908 342.28 203.732 342.28H206.228V344.968H203.732Z" fill="#363636"/>
<path d="M149.72 102.968C149.72 100.28 149.72 100.2 152.216 100.2C154.712 100.2 154.712 100.28 154.712 102.968C154.712 105.656 154.712 105.736 152.216 105.736C149.72 105.736 149.72 105.656 149.72 102.968ZM147.992 103.352C147.992 104.888 147.992 107.192 151.832 107.192H152.6C156.44 107.192 156.44 104.888 156.44 103.352V102.584C156.44 101.048 156.44 98.744 152.6 98.744H151.832C147.992 98.744 147.992 101.048 147.992 102.584V103.352ZM160.254 105.656L158.718 105.272H158.334V106.808C159.87 107.192 161.102 107.192 161.678 107.192C165.31 107.192 165.486 105.656 165.486 104.888C165.486 104.504 165.486 103.448 163.95 103.064V102.872C165.486 102.488 165.486 101.432 165.486 101.048C165.486 100.28 165.326 98.744 161.678 98.744C161.102 98.744 159.87 98.744 158.334 99.128V100.664H158.718L160.254 100.28H162.222C163.662 100.28 163.662 100.28 163.662 101.304C163.662 102.296 163.662 102.296 162.222 102.296H160.254V103.64H162.222C163.662 103.64 163.662 103.64 163.662 104.632C163.662 105.656 163.662 105.656 162.222 105.656H160.254ZM168.693 104.696C167.733 104.696 167.733 105.272 167.733 105.656V106.04C167.733 106.424 167.733 107 168.693 107H169.461C170.421 107 170.421 106.424 170.421 106.04V105.656C170.421 105.272 170.421 104.696 169.461 104.696H168.693ZM179.923 100.152V97.208H186.643V95.672H178.195V107H182.227C185.779 107 187.603 106.92 187.603 103.576C187.603 100.232 185.779 100.152 182.227 100.152H179.923ZM179.923 101.688H183.379C185.747 101.688 185.779 101.688 185.779 103.576C185.779 105.432 185.779 105.464 183.379 105.464H179.923V101.688ZM196.438 107.192L197.654 106.28C197.078 105.512 197.078 105.512 197.078 103.928V102.584C197.078 100.664 197.078 98.744 193.334 98.744C192.758 98.744 191.51 98.744 189.974 99.128V100.664H190.358L191.894 100.28H193.334C195.446 100.28 195.446 100.28 195.446 102.296H193.334C189.302 102.296 189.302 103.64 189.302 104.888C189.302 105.656 189.302 107.192 192.182 107.192C194.166 107.192 195.238 106.392 195.622 106.104L196.438 107.192ZM191.126 104.696C191.126 103.544 191.126 103.544 193.334 103.544H195.446V105.08L193.142 105.656H192.278C191.126 105.656 191.126 105.656 191.126 104.696ZM204.487 97.72C205.575 97.72 206.343 97.72 207.351 96.536L206.199 95.672C205.687 96.376 205.671 96.376 204.791 96.376H203.287C202.423 96.376 202.407 96.376 201.879 95.672L200.727 96.536C201.735 97.72 202.503 97.72 203.591 97.72H204.487ZM201.959 107C206.135 101.448 206.135 101.16 206.135 100.312H206.551V107H208.183V98.936H205.975C201.799 104.488 201.799 104.776 201.799 105.624H201.367V98.936H199.735V107H201.959ZM219.099 99.384V98.936H217.275C216.123 100.472 215.451 101.368 215.451 102.2H212.571V98.936H210.939V107H212.571V103.736H215.451C215.451 104.568 216.123 105.464 217.275 107H219.099V106.552L216.395 102.968L219.099 99.384ZM227.829 107.192L229.045 106.28C228.469 105.512 228.469 105.512 228.469 103.928V102.584C228.469 100.664 228.469 98.744 224.725 98.744C224.149 98.744 222.901 98.744 221.365 99.128V100.664H221.749L223.285 100.28H224.725C226.837 100.28 226.837 100.28 226.837 102.296H224.725C220.693 102.296 220.693 103.64 220.693 104.888C220.693 105.656 220.693 107.192 223.573 107.192C225.557 107.192 226.629 106.392 227.013 106.104L227.829 107.192ZM222.517 104.696C222.517 103.544 222.517 103.544 224.725 103.544H226.837V105.08L224.533 105.656H223.669C222.517 105.656 222.517 105.656 222.517 104.696ZM237.19 100.36V107H238.822V98.936H232.31C232.262 100.6 232.166 101.976 231.878 104.056C231.686 105.448 231.526 105.72 230.15 105.72V107.032C232.742 107.032 233.014 106.728 233.334 104.344C233.574 102.584 233.686 101.352 233.718 100.36H237.19Z" fill="#4560EA"/>
</svg>
