<svg width="359" height="349" viewBox="0 0 359 349" fill="none" xmlns="http://www.w3.org/2000/svg">
<path d="M60.5 322.073C59.7 318.473 56.5 317.906 55 318.073L1 255.074L79.5 165.573L71 70.0737L235.5 1.07373L268.5 10.0737V17.0737C268.667 19.7404 268.9 25.2737 268.5 26.0737C268.1 26.8737 270.333 27.7404 271.5 28.0737C271.333 29.2404 271.3 32.2737 272.5 35.0737C273.7 37.8737 274 33.9071 274 31.5737H278.5C278.667 33.2404 279.3 37.0737 280.5 39.0737C282 41.5737 283.5 43.0737 283.5 45.0737C283.5 47.0737 283.5 50.0737 286.5 52.0737C289.5 54.0737 287.5 56.5737 286.5 57.5737C285.7 58.3737 288.5 60.9071 290 62.0737C289.833 63.4071 289.8 66.1737 291 66.5737C292.5 67.0737 300 69.0737 301.5 70.0737C302.7 70.8737 305 73.0737 306 74.0737C305 74.5737 302.4 75.7737 300 76.5737C297 77.5737 299 80.0737 300 84.5737C301 89.0737 302 89.0737 303 87.0737C303.8 85.4737 305.333 87.7404 306 89.0737C306.667 87.9071 308.1 85.3737 308.5 84.5737C309 83.5737 313 81.5737 315.5 80.0737C317.5 78.8737 319.667 79.5737 320.5 80.0737C322.5 81.4071 326.5 85.5737 326.5 91.5736C326.5 97.5735 328.167 97.407 329 96.5737C330.333 95.2403 333.5 92.3736 335.5 91.5736C337.5 90.7736 339 92.9069 339.5 94.0736C340 96.2403 341 100.874 341 102.074C341 103.274 342 104.574 342.5 105.074V110.074C342.5 111.574 342.5 113.574 341 117.074C339.8 119.874 340.5 121.573 341 122.073C341.5 121.24 342.9 119.773 344.5 120.573C346.5 121.573 344.5 123.573 344.5 125.073C344.5 126.573 347.5 126.573 349.5 129.073C351.5 131.573 351 133.073 347.5 133.073C344 133.073 345.5 133.573 344.5 133.073C343.5 132.573 341 133.073 341 134.573C341 136.073 344 138.573 344.5 141.073C345 143.573 342.5 143.573 342.5 146.073C342.5 148.573 346 149.073 347.5 149.073C349 149.073 350.5 151.573 351 153.573C351.5 155.573 352 159.573 352.5 161.073C352.9 162.273 356.333 164.573 358 165.573C357.167 166.407 355.1 168.073 353.5 168.073C351.5 168.073 342.5 174.573 341 175.073C339.5 175.573 333 175.073 331 176.073C329 177.073 331 179.573 329 181.573C327 183.573 326.5 186.573 323.5 188.573C321.1 190.173 320.5 193.907 320.5 195.573V201.073H326.5C327.833 201.24 331 201.873 333 203.073C335.5 204.573 333 209.073 333 210.573C333 212.073 336 213.073 337 216.573C338 220.073 335 226.073 333 228.073C331 230.073 326.5 239.573 326.5 242.073C326.5 244.573 322 255.573 320.5 258.573C319 261.573 318 262.573 318 267.573C318 272.573 318 275.073 313 278.573C308 282.073 316 285.073 318 290.073C320 295.073 316 298.073 313 300.073C310.6 301.673 307.333 303.74 306 304.573C304 305.907 299.4 309.173 297 311.573C294 314.573 293.5 318.073 288 322.073C282.5 326.073 275 322.073 270.5 318.073C266 314.073 260.5 313.073 257 311.573C253.5 310.073 251 308.573 247 308.573C243 308.573 241 318.073 237.5 318.073C234 318.073 227 313.073 220 308.573C213 304.073 213.5 306.073 209 304.573C204.5 303.073 202.5 308.573 200 308.573C197.5 308.573 189 318.073 185.5 318.073C182 318.073 181 327.073 171.5 332.573H167C165 333.907 160.3 337.173 157.5 339.573C154 342.573 150.5 339.573 145.5 339.573H141.5L136.5 343.573C134.167 345.073 129 348.073 127 348.073C125 348.073 119.833 345.073 117.5 343.573L111 348.073C109.333 346.573 104.3 344.473 97.5 348.073C94.5 348.573 93.5 346.073 90 343.573C87.2 341.573 86.1667 342.74 86 343.573H79.5C77.5 342.907 73 341.173 71 339.573C68.5 337.573 68 336.073 65 332.573C62.0722 329.158 61.5255 326.694 60.5714 322.395L60.5 322.073Z" fill="#F2F4F7" stroke="#CBCDD5"/>
</svg>
