<svg width="297" height="179" viewBox="0 0 297 179" fill="none" xmlns="http://www.w3.org/2000/svg">
<path d="M94.9999 1.57379C92.4999 1.24045 87.3999 1.57379 86.9999 5.57379C86.4999 10.5738 86.9999 12.5737 86.9999 20.5737C86.9999 28.5737 88.9999 36.5737 81.9999 38.5737C74.9999 40.5737 59.4999 37.0737 56.4999 43.5737C53.4999 50.0737 49.9999 63.0737 51.4999 68.0737C52.9999 73.0737 50.5 80.5737 56.4999 83.0737C62.4999 85.5737 71.4999 91.0737 63.9999 93.0737C56.4999 95.0737 46.4999 93.0737 40.4999 93.0737C34.4999 93.0737 25.9999 90.0737 15.4999 98.5737C4.99994 107.074 -3.50006 112.574 3.99994 122.074C11.4999 131.574 23.4999 133.074 27.9999 133.574C32.4999 134.074 35.4999 136.574 37.9999 142.074C40.4999 147.574 49 149.074 56.4999 153.574C63.9999 158.074 61.4999 164.574 68.4999 168.074C75.4999 171.574 79.9999 170.574 94.9999 172.074C110 173.574 143.5 177.074 155 177.574C166.5 178.074 172 176.074 176 172.074C180 168.074 178.5 164.574 173.5 159.074C168.5 153.574 169 151.074 172.5 150.574C176 150.074 179.5 149.574 179 147.074C178.5 144.574 186 144.574 189 142.074C192 139.574 192 136.074 195 133.574C198 131.074 203.5 132.574 204 136.574C204.5 140.574 207.5 142.074 213.5 142.074C219.5 142.074 226.5 143.574 232 140.074C237.5 136.574 241.5 131.574 244 130.074C246.5 128.574 255 130.074 261 130.074C267 130.074 275 126.574 277 125.074C279 123.574 289.5 108.574 291 106.574C292.2 104.974 294.5 99.9071 295.5 97.5737" stroke="#7684FF" stroke-width="2"/>
</svg>
