<svg width="389" height="269" viewBox="0 0 389 269" fill="none" xmlns="http://www.w3.org/2000/svg">
<path d="M12 185.074C9.2 181.874 3.83333 176.74 1.5 174.574C2.5 172.907 5 169.574 7 169.574C9 169.574 7.83333 165.24 7 163.074C8.66667 160.24 13 155.474 17 159.074C21 162.674 18.6667 157.574 17 154.574C18.1667 152.074 21.4 147.074 25 147.074C29.5 147.074 31 143.574 34 143.574C37 143.574 37.5 141.074 40 138.574C42 136.574 43.5 137.74 44 138.574C45.1667 140.24 46.8 144.274 44 147.074C40.5 150.574 47.5 151.074 47.5 154.574C47.5 158.074 52 159.074 55 163.074C58 167.074 60 169.574 66.5 174.574C73 179.574 78.5 181.074 89 190.074C93.5 195.074 93 196.574 97 198.574C101 200.574 99.5 208.574 111.5 219.574C110.5 223.574 112 226.574 115 226.574C118 226.574 119.5 219.574 122 219.574H131.5C135.5 219.574 133.167 218.24 131.5 217.574L135.5 212.074C139.333 208.574 149.1 200.574 157.5 196.574C168 191.574 183.5 174.574 191.5 166.074C199.5 157.574 204 151.074 214.5 138.574C225 126.074 221.5 103.574 221.5 99.5738C221.5 96.3738 220.167 92.2404 219.5 90.5738C220 89.4071 221 85.2737 221 78.0737C220.6 75.2737 221.167 71.5737 221.5 70.0738L226 60.5737L231 58.0736C229.333 56.7403 226 53.6737 226 52.0737C226 50.0737 219.5 45.5737 226 32.5737C229.6 31.3737 236.5 30.4071 239.5 30.0737C241.5 26.9071 246 20.5737 248 20.5737C250.5 20.5737 253 20.5737 259 25.5737C265 30.5737 262.5 25.5737 266 25.5737C269.5 25.5737 270.5 20.5737 270.5 17.0737C270.5 14.2737 272.833 15.9071 274 17.0737L278.5 20.5737H289.5H299C302.6 20.5737 300.5 23.9071 299 25.5737C300.667 27.0737 304.5 30.0737 306.5 30.0737H315C318.5 30.0737 319.5 31.0737 322 30.0737C324.5 29.0737 327 26.5737 331 25.5737C335 24.5737 339.5 22.0737 339.5 20.5737C339.5 19.0737 343 15.0737 343 12.0736C343 9.67355 345.667 8.07366 347 7.57373C348 7.90706 350.5 8.37373 352.5 7.57373C355 6.57373 356.5 4.07363 356.5 1.57363C356.5 -0.426369 361.167 2.40696 363.5 4.07363C362.333 6.07363 359.3 10.4736 356.5 12.0736C353 14.0736 352.5 20.5736 360 41.5736C360.4 43.9736 362.5 47.5736 363.5 49.0736V58.0736C363.5 62.5736 363.5 67.5738 367.5 70.0738C371.5 72.5738 372 67.0738 377.5 67.5738C383 68.0738 380 73.5738 381.5 75.5738C383 77.5738 387.5 83.0738 388 90.5738C388.5 98.0738 381 98.0738 377.5 99.5738C374 101.074 367.5 102.574 363.5 103.574C359.5 104.574 359.5 109.074 356.5 111.074C353.5 113.074 349 122.074 347 124.574C345 127.074 343.5 129.574 335.5 129.574C329.1 129.574 329.833 133.574 331 135.574C330.5 137.074 329.8 140.774 331 143.574C332.5 147.074 335.5 151.074 339.5 159.074C339 162.574 339.5 166.074 335.5 169.574C331.5 173.074 331.5 173.074 327 175.574C322.5 178.074 321 179.574 315 181.074C309 182.574 304.5 184.574 294.5 187.574C290.5 190.574 289 194.574 286 196.574C283 198.574 282 200.074 278.5 201.574C275 203.074 275.5 204.574 270.5 208.574C265.5 212.574 264 215.074 262.5 215.574C261 216.074 261 212.574 259 212.574C257 212.574 253.5 212.074 250.5 212.574C247.5 213.074 246.5 216.574 245.5 217.574C244.5 218.574 240.5 217.574 239.5 217.574C238.5 217.574 235.5 221.574 231 219.574C229.5 219.074 227.5 217.574 226 217.574H221.5C220.333 218.24 218 219.974 218 221.574C218 223.174 215.667 225.574 214.5 226.574L219.5 228.074C218.167 228.74 215.3 230.974 214.5 234.574C213.5 239.074 212.5 239.074 209.5 241.574C206.5 244.074 214.5 246.574 218 246.574C221.5 246.574 221.5 252.574 218 252.574C214.5 252.574 210.5 255.574 207 259.074C204.2 261.874 201.5 265.907 200.5 267.574C198.333 267.907 193.5 268.374 191.5 267.574C189 266.574 183 261.574 180.5 261.574C178 261.574 176.5 258.074 172.5 255.574C168.5 253.074 164.5 255.574 157.5 252.574C150.5 249.574 148 251.574 143 252.574C138 253.574 130.5 254.574 126.5 255.574C122.5 256.574 115 262.574 108.5 261.574C102 260.574 88 249.074 84.5 246.574C81 244.074 79 232.574 78.5 230.074C78 227.574 76 222.074 75.5 219.574C75 217.074 75.5 214.574 71 212.074C66.5 209.574 67 211.574 60 209.574C53 207.574 52 202.574 47.5 198.574C43 194.574 42 198.574 34 198.574C27.6 198.574 25.3333 192.907 25 190.074C21.8333 189.74 14.8 188.274 12 185.074Z" fill="#F2F4F7" stroke="#CBCDD5"/>
</svg>
