<svg width="463" height="468" viewBox="0 0 463 468" fill="none" xmlns="http://www.w3.org/2000/svg">
<path d="M80 385.073C82.4 385.073 85 382.406 86 381.073L98.5 412.574L149.5 467.074H180L198.5 443.074L271 366.074L382.5 269.574L406.5 251.574C408.833 252.407 413.9 254.374 415.5 255.574C417.5 257.074 417.5 255.574 421.5 255.574C425.5 255.574 424.5 256.074 426.5 255.574C428.1 255.174 429.833 252.74 430.5 251.574C430.833 250.574 432 248.374 434 247.574C436.5 246.574 434.5 250.574 437.5 251.574C440.5 252.574 439 250.574 440 248.574C441 246.574 440 242.574 440 241.574C440 240.574 441 238.574 441 236.074C441 233.574 441 233.574 440 234.074C439 234.574 437.5 235.574 436 236.074C434.5 236.574 434.5 233.574 434.5 231.074C434.5 228.574 431.5 226.074 431.5 224.574C431.5 223.074 429.5 223.574 428 223.074C426.5 222.574 426.5 221.074 428 216.574C429.5 216.074 431.5 212.574 430.5 209.074C429.5 205.574 433 205.574 431.5 201.574C429.5 200.574 431.5 198.074 431.5 196.574C431.5 195.074 434.5 196.574 437.5 196.574C440.5 196.574 440 195.574 446.5 196.574C450 198.074 450 200.074 456 198.074C456.8 196.474 460.333 197.407 462 198.074C461.167 195.907 459.4 191.274 459 190.074C458.5 188.574 459 187.574 457 187.574C455 187.574 454 187.574 451.5 185.074C449 182.574 451.5 179.074 451.5 176.074V171.574C451.5 170.074 448.5 169.574 448.5 167.574C448.5 165.574 448 166.074 448.5 164.574C449 163.074 450.5 160.074 450 157.574C449.5 155.074 446 156.074 443 156.074C440 156.074 441 154.574 441 153.074C441 151.574 436 152.074 434.5 153.074C433 154.074 433 157.574 431.5 157.574C430 157.574 429.5 155.574 428 156.074C426.5 156.574 426 157.574 424.5 157.574H419.5C418 157.574 417.5 150.574 417.5 149.074C417.5 147.874 416.167 145.907 415.5 145.074V139.074C415.5 137.574 411 135.574 410 134.074C409 132.573 404.5 129.074 403.5 129.074H398.5C396 129.074 394.5 127.574 392.5 126.074C390.5 124.574 387.5 125.574 386.5 126.074C385.5 126.574 383 126.574 380 130.574C379.5 132.074 379 134.074 378 135.574C377 137.074 375 137.574 372.5 139.074C370 140.574 373 146.574 370.5 146.574C368 146.574 367 152.574 363 157.574C361.5 160.074 359.5 159.574 358 161.574C356.5 163.574 357.5 166.574 356 167.574C354.5 168.574 353 173.074 353.5 173.074C354 173.074 352.5 176.074 345 179.074C341 179.074 343 182.074 342 183.074C341 184.074 341 186.074 340.5 187.574C340 189.074 339 189.574 337.5 190.074C336 190.574 335.5 186.074 335.5 183.074C335.5 180.074 337.5 179.074 339 179.074C340.5 179.074 339.5 175.074 339 173.074L339 173.074C338.5 171.074 336.5 175.074 335.5 175.074C334.7 175.074 333.833 172.74 333.5 171.574C332.667 170.24 330.7 167.974 329.5 169.574C328 171.574 328.5 172.074 325 175.074C323 175.074 322.5 176.074 321 179.074C319.5 182.074 315 176.074 311.5 176.074C308 176.074 307 176.074 299.5 187.574C299.5 190.574 292.5 187.574 288 187.574C283.5 187.574 283 184.574 281.5 179.074C280 173.574 280 175.574 276 173.074C272 170.574 280 169.574 281.5 167.574C283 165.574 284 160.074 284 155.074V146.574C285.333 143.907 288 137.674 288 134.074C288 130.474 291 130.24 292.5 130.574C293.333 128.574 295 123.974 295 121.574C295 119.174 298 112.574 299.5 109.574H295L288 106.074V96.0737L284 92.5736C283.667 90.2403 283.2 84.4736 284 80.0736C285 74.5736 288 77.0737 288 74.5737V66.0736H283L276 63.0737L280 57.5736L283 50.0736L280 43.0736L276 35.0736V32.0736L273.5 22.0737H265.5H259V19.0736C261.167 17.7403 266 14.3737 268 11.5736C270 8.7735 268.833 8.07356 268 8.0736L265.5 2.0736C263.167 0.740268 258.6 -0.426399 259 5.5736C259.4 11.5736 256.5 8.0736 255 5.5736C252.833 6.40693 248.2 8.7736 247 11.5736C245.8 14.3736 244.167 12.7403 243.5 11.5736L238 8.0736H235V19.0736V32.0736C235 34.5736 230 32.0736 230 35.0736C230 38.0736 230 40.5736 227.5 43.0736C225.5 45.0736 226.667 48.5736 227.5 50.0736C228.333 51.5736 231 55.1736 235 57.5736C240 60.5736 235 63.0736 235 66.0736C235 69.0736 232.5 69.5736 230 71.5736C228 73.1736 229.167 77.9069 230 80.0736C227.833 81.2403 223.2 83.9736 222 85.5736C220.5 87.5736 221 90.5736 219 92.5736C217 94.5736 212 97.0736 209.5 99.0736C207.5 100.674 204.333 102.74 203 103.574V109.574C200.5 111.74 195.5 117.774 195.5 124.574C195.5 127.074 196 130.574 195.5 134.074C195.1 136.874 200.333 140.574 203 142.074C204.167 141.907 207.6 141.674 212 142.074C216.4 142.474 213.833 145.24 212 146.574C212.333 148.407 212.8 152.674 212 155.074C211.2 157.474 208 156.074 206.5 155.074C205.333 155.074 202.1 156.874 198.5 164.074C198.5 168.574 201 167.574 203 169.574C205 171.574 206.5 173.074 206.5 184.574C204 190.074 202.5 184.574 198.5 187.574C195.3 189.974 197.167 193.907 198.5 195.574C197 196.574 193.4 198.574 191 198.574C188.6 198.574 187.667 196.574 187.5 195.574L182 192.574C182.5 191.074 182.8 187.974 180 187.574C176.5 187.074 174 186.074 172 184.574C170 183.074 170.5 179.074 163 173.074C159 172.074 154 176.074 154 179.074C154 182.074 155 187.074 154 191.074C153 195.074 151.5 196.074 149.5 198.574C147.5 201.074 145.5 200.574 141 203.074C136.5 205.574 135.5 207.574 131.5 209.574C127.5 211.574 130.5 215.573 128 215.573C126 215.573 122.167 219.573 120.5 221.573V230.074L116.5 234.574C115.333 233.907 112.5 232.074 110.5 230.074C108 227.574 108 226.574 110.5 221.573C113 216.573 109 218.573 108 215.573C107 212.573 109 211.573 95.5 221.573C93 227.573 86 220.073 80 218.573C75.2 217.373 66.6667 216.073 63 215.573L48 239.573L55.5 243.073C54.5 244.573 53.1 247.773 55.5 248.573C57.9 249.373 56.5 251.907 55.5 253.073C56.8333 254.907 58.7 259.473 55.5 263.073C52.5 263.073 51.5 270.073 48 273.573C44.5 277.073 41.5 274.073 31 284.073C23.5 288.073 31 288.073 31 293.073C31 298.073 26.5 299.573 22 319.073C21.2 323.873 19.6667 324.407 19 324.073C16.6667 323.74 9.9 324.673 1.50002 331.073C-0.999977 335.573 3.00002 335.573 9.00002 343.573C13.8 349.973 15.6667 354.24 16 355.573C17.6667 355.24 23 356.173 31 362.573C38.5 367.073 35 368.073 38.5 371.073C42 374.073 43 373.073 48 377.573C53 382.073 50 381.073 63 385.073C63 388.273 66 389.073 67.5 389.073C70.6667 387.74 77.6 385.073 80 385.073Z" fill="#F2F4F7" stroke="#CBCDD5"/>
</svg>
