<svg width="251" height="268" viewBox="0 0 251 268" fill="none" xmlns="http://www.w3.org/2000/svg">
<path d="M132.5 253.074C130.9 251.074 130.5 246.574 130.5 244.574C130.443 243.074 125.5 242.074 123.5 242.074C121.5 242.074 122.5 242.074 121 241.574C119.5 241.074 120 240.574 118.5 239.574C117 238.574 115.5 239.074 113.5 239.074C111.5 239.074 111.5 236.574 110.5 235.074C109.5 233.574 107 231.574 104.5 229.574C102 227.574 100.5 228.074 99 228.074C97.5 228.074 95.5 229.574 93.5 229.574C91.5 229.574 91 228.074 89.5 227.074C88 226.074 85 225.574 84 225.074C83 224.574 79.5 225.074 77 225.074C74.5 225.074 74 223.074 72 223.074C70 223.074 69.5 224.574 67.5 225.574C65.5 226.574 63 225.074 61.5 225.074C60 225.074 61 226.574 58.5 227.074C56 227.574 52.5 227.574 50.5 228.074C48.5 228.574 48.5 230.574 48 232.074C47.5 233.574 45 233.074 43 233.074C41 233.074 39 231.074 37.5 231.074C36 231.074 36 232.074 34 232.074C32 232.074 30 231.074 28.5 231.074C27 231.074 26 231.074 26 229.574C26 228.074 24 225.574 23 225.074C22 224.574 21 225.574 19.5 225.574C18 225.574 16.5 225.074 15.5 224.574C14.5 224.074 13.5 222.074 12.5 221.074C11.5 220.074 8 215.574 7.5 214.574C7 213.574 4.5 210.074 3.5 209.574C2.5 209.074 2.5 206.574 2 205.074C1.6 203.874 1.5 200.24 1.5 198.574C1.83333 199.24 2.9 199.974 4.5 197.574C6.5 194.574 8.5 196.074 11.5 197.574C14.5 199.074 13.5 198.574 17.5 197.574C21.5 196.574 21 195.074 22.5 198.574C24 202.074 27.5 200.074 27.5 198.574V192.074C27.5 190.074 30 189.574 30 187.574C30 185.974 27.3333 183.574 26 182.574C26.5 181.407 27.5 178.374 27.5 175.574C27.5 172.074 22.5 171.074 21 169.574C19.5 168.074 19 164.574 16.5 163.074C14 161.574 11.5 157.074 13.5 154.574C15.5 152.074 19 155.574 19 154.574C19 153.574 19 150.574 21 149.074C23 147.574 22.5 144.074 22.5 143.074C22.5 142.074 19 138.074 19 133.574C19 129.074 22 126.574 22.5 123.574C23 120.574 26 123.574 27.5 123.574C29 123.574 29 121.574 30 120.074C31 118.574 34 121.574 34 120.074C34 118.574 34.5 116.074 34 114.574C33.5 113.074 36 111.074 37.5 110.074C39 109.074 38.5 107.574 39 105.074C39.5 102.574 41 105.074 43 102.574C45 100.074 50 99.0737 54 96.5737C58 94.0737 58.5 97.5737 57.5 98.5737C56.5 99.5737 57 102.574 58.5 105.074C60 107.574 62 104.574 64 102.574C66 100.574 66 103.074 67.5 102.574C69 102.074 71 101.074 69.5 99.0737C68 97.0737 69.5 94.5737 69.5 93.5737C69.5 92.5737 74 90.0737 75.5 88.0737C77 86.0737 83 80.0737 85 80.0737C87 80.0737 90 81.0737 91.5 80.0737C92.7 79.2737 92.6666 74.7404 92.5 72.5737C93.6666 71.7404 96.3 69.9737 97.5 69.5737C99 69.0737 100 66.0737 105.5 63.5737C109.9 61.5737 106.333 55.7404 104 53.0737C104.333 52.0737 105.3 49.8737 106.5 49.0737C108 48.0737 109 41.0737 109 39.0737C109 37.0737 108.5 31.0738 109 29.5737C109.5 28.0737 112.5 21.5737 116.5 18.5737C120.5 15.5737 127.5 16.5737 130.5 16.5737C133.5 16.5737 137.5 16.5737 145 18.5737C152.5 20.5737 153 18.5737 158.5 21.5737C162.9 23.9737 160.333 19.2404 158.5 16.5737C159.333 15.9071 161.2 14.5738 162 14.5738H168.5C171 14.5738 177 18.5737 179.5 18.5737C182 18.5737 187 20.0738 192.5 20.0738C198 20.0738 198 12.5737 200 10.5738C202 8.57381 204.5 3.07373 206 3.07373C207.5 3.07373 220.5 1.57377 225 1.57377C229.5 1.57377 240.5 2.07377 242.5 1.57377C244.5 1.07377 244 7.57377 242.5 8.57377C241.3 9.37377 244 10.2404 245.5 10.5738C245.167 11.4071 244.1 13.3738 242.5 14.5738C240.5 16.0738 236.5 18.0738 234.5 20.0738C232.5 22.0738 234.5 25.0738 232 27.0738C229.5 29.0738 225 29.0738 223 31.0738C221 33.0738 220.5 36.5738 222 39.5738C223.2 41.9738 227.833 46.9071 230 49.0738L227.5 51.0738C226.667 50.4071 224.6 49.0738 223 49.0738C221 49.0738 220 48.5738 218 49.0738C216 49.5738 215 52.0738 212.5 54.5738C210 57.0738 209 62.5738 209 66.0738V76.5738C209 79.5738 204.5 83.0738 202 85.5738C199.5 88.0738 201.5 90.5738 202 93.0738C202.5 95.5738 200 98.5738 200 102.074C200 105.574 200 108.574 196 111.574C192 114.574 190.5 118.574 190.5 121.074C190.5 123.574 189 127.574 185 129.074C181 130.574 187 132.574 189 133.574C190.6 134.374 190.667 136.907 190.5 138.074C192.5 139.907 197.2 144.374 200 147.574C203.5 151.574 204.5 153.574 209 153.574C213.5 153.574 215 150.074 216.5 149.574C217.7 149.174 221.333 148.074 223 147.574C223.167 148.574 223.4 151.174 223 153.574C222.5 156.573 224 159.074 227.5 160.074C230.3 160.874 231.667 157.407 232 155.574H236.5C237.833 155.574 240.9 155.174 242.5 153.574C244.1 151.974 246.5 151.907 247.5 152.074L249.5 155.574L247.5 157.074C245.667 158.74 241.7 162.474 240.5 164.074C239.3 165.674 237.333 170.407 236.5 172.574C236.333 173.907 235.7 176.774 234.5 177.574C233 178.574 228 184.074 225 186.074C222 188.074 216.5 193.574 215 195.074C213.5 196.574 207.5 198.574 206 199.574C204.5 200.574 206 204.074 206 206.074C206 208.074 204.5 211.574 204.5 217.074C204.5 222.574 204 225.574 202 229.074C200 232.574 201 236.074 202 239.074C203 242.074 199.5 242.074 196.5 243.074C193.5 244.074 191.5 246.074 189.5 251.574C187.5 257.074 184.5 257.074 182.5 258.074C180.9 258.874 178.5 256.407 177.5 255.074C176.333 254.907 173.6 254.274 172 253.074C170 251.574 172.5 258.074 172 260.574C171.5 263.074 168 260.574 167 260.574C166 260.574 163.5 266.074 162 266.074C160.5 266.074 153.5 266.574 148 266.074C142.5 265.574 143 262.574 141 260.574C139 258.574 134.5 255.574 132.5 253.074Z" fill="#D8F0D4" fill-opacity="0.3" stroke="#76D33D" stroke-width="2" stroke-linecap="round"/>
</svg>
