<svg width="567" height="217" viewBox="0 0 567 217" fill="none" xmlns="http://www.w3.org/2000/svg">
<path d="M1 1.07373L42 37.0737L53 43.0737C60 44.7404 75.4 48.4737 81 50.0737C88 52.0737 112 65.0737 118 72.5737C124 80.0737 123 79.0737 126 87.0737C129 95.0737 131 97.5737 134 104.074C137 110.574 154 125.074 159.5 130.074C165 135.074 164.5 138.074 164.5 140.574C164.5 143.074 167 150.574 169 155.074C170.6 158.674 182.333 173.574 188 180.574C187.5 181.574 186.3 183.774 185.5 184.574C184.5 185.574 179 190.074 177 190.574C175 191.074 173.5 192.574 173.5 194.574C173.5 196.574 180 199.074 183.5 201.074C187 203.074 195.5 205.074 198 205.074C200 205.074 202.167 202.407 203 201.074C204.833 201.074 209 201.074 211 201.074C213.5 201.074 219 199.074 220 197.574C221 196.074 223 195.574 224.5 195.574C226 195.574 235.5 193.574 240.5 192.574C245.5 191.574 252.5 185.074 255 185.574C257 185.974 260.5 194.74 262 199.074C265.333 201.407 273.1 206.374 277.5 207.574C283 209.074 284.5 210.574 291 210.574C297.5 210.574 305 207.574 308.5 207.574C312 207.574 310.5 207.574 318 207.574C325.5 207.574 321 210.074 333.5 207.574C346 205.074 356.5 194.574 361 194.574C364.6 194.574 381.5 187.907 389.5 184.574C395.667 187.24 409.4 192.574 415 192.574C422 192.574 433 193.574 439.5 195.574C446 197.574 465.5 201.074 476.5 201.074C487.5 201.074 493.5 197.074 500 201.074C505.2 204.274 518.167 208.74 524 210.574L540 215.574H567" stroke="white" stroke-dasharray="3 3"/>
</svg>
