<svg width="768" height="370" viewBox="0 0 768 370" fill="none" xmlns="http://www.w3.org/2000/svg">
<path d="M1024 369.395H-162V66.0186C36.0451 42.9901 48.6823 66.0186 247.727 66.0186H481.856C474.819 73.695 458.443 90.583 449.231 96.7241C437.717 104.4 452.59 133.666 421.884 143.262C397.32 150.938 336.005 161.334 339.843 167.731H460.746H1024V369.395Z" fill="#D5E2EE"/>
<path d="M1024 369.395H-162V66.0186C36.0451 42.9901 48.6823 66.0186 247.727 66.0186H481.856C474.819 73.695 458.443 90.583 449.231 96.7241C437.717 104.4 452.59 133.666 421.884 143.262C397.32 150.938 336.005 161.334 339.843 167.731H460.746H1024V369.395Z" fill="url(#paint0_linear)"/>
<path d="M-58.3689 21.5595C-67.9644 21.5595 -153.364 10.0449 -162 10.0449L-162 79.1323L763.003 74.3345L610.435 53.2245L509.683 41.71H407.011H346.56H292.825C283.23 41.71 214.142 33.074 206.466 33.074H154.65H120.107H85.5631C75.9676 33.074 -48.7734 21.5595 -58.3689 21.5595Z" fill="#E6E8ED"/>
<path d="M-142.809 28.2769L-162 36.9128L-162 79.1328H449.231L267.877 53.2251L210.304 44.5892H203.587L172.882 36.9128L152.731 44.5892L126.824 36.9128L108.592 53.2251C99.6364 47.7876 80.5735 36.9128 75.9676 36.9128H48.1407L26.0712 34.0341L12.6375 44.5892L22.233 63.7801L-23.8253 31.1555H-74.6812L-78.5194 36.9128L-89.0744 44.5892L-105.387 28.2769H-142.809Z" fill="#F2F4F7"/>
<g filter="url(#filter0_d)">
<path d="M295.704 157.815H261.16V177.006C335.045 174.767 492.987 170.289 533.672 170.289C584.528 170.289 604.678 176.047 620.031 177.006C632.313 177.774 687.199 181.804 713.107 183.723H1024L1024 16.7619C1007.37 22.5191 970.649 34.0337 964.508 43.6292H894.461L862.796 55.1437L644.979 2.36865L526.955 11.9641C517.04 14.2031 496.441 28.8521 493.371 31.1551C490.3 33.458 451.79 85.2095 442.515 96.4042L391.659 122.312C384.942 127.43 369.973 138.432 363.832 141.503C357.691 144.573 315.855 153.657 295.704 157.815Z" fill="white"/>
</g>
<path d="M295.704 157.815H261.16V177.006L312.016 169.33L341.762 157.815L366.711 161.653L402.214 132.867L425.243 141.503L509.683 96.4042L555.741 43.6292L623.869 75.2942L660.332 169.33H1024V16.7619C1007.37 22.5191 970.649 34.0337 964.508 43.6292H894.461L862.796 55.1437L644.979 2.36865L526.955 11.9641C517.04 14.2031 496.441 28.8521 493.371 31.1551C490.3 33.458 451.79 85.2095 442.515 96.4042L391.659 122.312C384.942 127.43 369.973 138.432 363.832 141.503C357.691 144.573 315.855 153.657 295.704 157.815Z" fill="#E2E4EB"/>
<path d="M295.704 157.815H261.16V177.006L312.016 169.33L341.762 157.815L366.711 161.653L402.214 132.867L425.243 141.503L509.683 96.4042L555.741 43.6292L623.869 75.2942L660.332 169.33H1024V16.7619C1007.37 22.5191 970.649 34.0337 964.508 43.6292H894.461L862.796 55.1437L644.979 2.36865L526.955 11.9641C517.04 14.2031 496.441 28.8521 493.371 31.1551C490.3 33.458 451.79 85.2095 442.515 96.4042L391.659 122.312C384.942 127.43 369.973 138.432 363.832 141.503C357.691 144.573 315.855 153.657 295.704 157.815Z" fill="url(#paint1_linear)"/>
<path d="M261.16 157.815H295.704C315.855 153.657 357.691 144.573 363.832 141.503C369.973 138.432 384.942 127.43 391.659 122.312L442.515 96.4042C451.79 85.2095 490.3 33.458 493.371 31.1551C496.441 28.8521 517.04 14.2031 526.955 11.9641L644.979 2.36865L862.796 55.1437L894.461 43.6292H964.508C970.649 34.0337 1007.37 22.5191 1024 16.7619V89.6874L964.508 55.1437L882.947 79.1324L798.507 60.901L744.772 96.4042L666.089 65.6987L635.384 21.5596L558.62 31.1551H493.371L425.243 141.503L402.214 132.867L366.711 161.653L335.045 157.815L285.149 167.411L261.16 157.815Z" fill="#D6DBE3"/>
<g filter="url(#filter1_d)">
<path d="M52.9385 138.624L45.2621 172.208H72.1294L92.2799 177.966H112.43L155.61 172.208V107.919L148.893 85.8491L135.459 64.739L122.026 55.1436L112.43 70.4963L99.9562 80.0918H78.8462L72.1294 107.919L63.4935 117.514L52.9385 138.624Z" fill="#E4E5EC"/>
</g>
<g filter="url(#filter2_d)">
<path d="M254.443 131.907L264.998 159.734V177.966H199.749H113.39L128.743 159.734L133.54 131.907L148.893 113.676L164.246 108.878L175.761 100.242L188.235 84.8896L208.385 93.5256L216.062 108.878H234.293L243.888 126.15L254.443 131.907Z" fill="#D6DBE3"/>
</g>
<defs>
<filter id="filter0_d" x="261.16" y="0.368652" width="762.84" height="183.354" filterUnits="userSpaceOnUse" color-interpolation-filters="sRGB">
<feFlood flood-opacity="0" result="BackgroundImageFix"/>
<feColorMatrix in="SourceAlpha" type="matrix" values="0 0 0 0 0 0 0 0 0 0 0 0 0 0 0 0 0 0 127 0"/>
<feOffset dy="-2"/>
<feColorMatrix type="matrix" values="0 0 0 0 1 0 0 0 0 1 0 0 0 0 1 0 0 0 1 0"/>
<feBlend mode="normal" in2="BackgroundImageFix" result="effect1_dropShadow"/>
<feBlend mode="normal" in="SourceGraphic" in2="effect1_dropShadow" result="shape"/>
</filter>
<filter id="filter1_d" x="45.2621" y="53.1436" width="110.348" height="124.822" filterUnits="userSpaceOnUse" color-interpolation-filters="sRGB">
<feFlood flood-opacity="0" result="BackgroundImageFix"/>
<feColorMatrix in="SourceAlpha" type="matrix" values="0 0 0 0 0 0 0 0 0 0 0 0 0 0 0 0 0 0 127 0"/>
<feOffset dy="-2"/>
<feColorMatrix type="matrix" values="0 0 0 0 1 0 0 0 0 1 0 0 0 0 1 0 0 0 1 0"/>
<feBlend mode="normal" in2="BackgroundImageFix" result="effect1_dropShadow"/>
<feBlend mode="normal" in="SourceGraphic" in2="effect1_dropShadow" result="shape"/>
</filter>
<filter id="filter2_d" x="113.39" y="82.8896" width="151.608" height="95.076" filterUnits="userSpaceOnUse" color-interpolation-filters="sRGB">
<feFlood flood-opacity="0" result="BackgroundImageFix"/>
<feColorMatrix in="SourceAlpha" type="matrix" values="0 0 0 0 0 0 0 0 0 0 0 0 0 0 0 0 0 0 127 0"/>
<feOffset dy="-2"/>
<feColorMatrix type="matrix" values="0 0 0 0 1 0 0 0 0 1 0 0 0 0 1 0 0 0 1 0"/>
<feBlend mode="normal" in2="BackgroundImageFix" result="effect1_dropShadow"/>
<feBlend mode="normal" in="SourceGraphic" in2="effect1_dropShadow" result="shape"/>
</filter>
<linearGradient id="paint0_linear" x1="398.026" y1="73.9765" x2="393.578" y2="418.812" gradientUnits="userSpaceOnUse">
<stop stop-color="#FEFEFF"/>
<stop offset="0.648982" stop-color="#D3E0FF" stop-opacity="0"/>
<stop offset="0.993861" stop-color="white" stop-opacity="0.26"/>
</linearGradient>
<linearGradient id="paint1_linear" x1="642.1" y1="2.36865" x2="642.1" y2="177.006" gradientUnits="userSpaceOnUse">
<stop stop-color="white"/>
<stop offset="1" stop-color="white" stop-opacity="0"/>
</linearGradient>
</defs>
</svg>
