<svg width="445" height="543" viewBox="0 0 445 543" fill="none" xmlns="http://www.w3.org/2000/svg">
<path d="M333.814 484.566C316.024 478.636 266.003 487.037 243.217 491.979L294.28 540.572H444.178C430.451 527.943 402.173 501.862 398.879 498.568C394.761 494.449 356.051 491.979 333.814 484.566Z" fill="#F2F4F7"/>
<path d="M-71.4973 484.945C-96.8699 479.055 -129.501 487.399 -162 492.307V540.572H85.9069C66.3293 528.028 25.9993 502.124 21.3007 498.851C15.4274 494.761 -39.7815 492.307 -71.4973 484.945Z" fill="#E4E5EC"/>
<path d="M20.8417 470.031L-18.6917 490.192L-2.21943 514.97L32.3722 539.748H304.164C294.83 529.507 274.184 508.789 266.278 507.844C256.394 506.662 236.628 478.303 223.45 470.031C210.272 461.76 126.264 462.942 96.6139 458.215C72.8939 454.434 36.2157 464.517 20.8417 470.031Z" fill="#CBCDD5"/>
<path d="M-49.9889 542.219H35.6666L0.663181 516.687L-17.8681 491.155L-41.341 509.786L-49.9889 542.219Z" fill="#F2F4F7"/>
<g filter="url(#filter0_d)">
<path d="M82.2308 430.217C76.1469 430.472 70.7749 434.263 68.4912 439.905C65.1472 449.274 63.5072 459.168 63.6544 469.112C63.8017 479.129 68.8153 488.449 77.0936 494.096C77.4177 494.272 77.7369 494.444 78.0609 494.611C80.3 490.472 80.0496 485.434 77.4128 481.535C77.2016 481.206 77.2851 480.769 77.6092 480.553C77.9333 480.332 78.3703 480.416 78.5962 480.735C82.6571 486.745 81.4786 494.862 75.8709 499.467C74.879 500.287 73.5139 500.479 72.3305 499.963C67.6068 497.896 62.0826 499.821 59.667 504.378C59.554 504.633 59.4607 504.888 59.3822 505.154C59.0041 506.45 59.2054 507.844 59.9321 508.984C60.6588 510.123 61.8373 510.899 63.1729 511.105C69.1882 512.043 75.3457 511.37 81.0168 509.156C89.6542 506.204 97.5006 501.314 103.953 494.862C105.957 491.051 106.148 486.548 104.469 482.586C104.321 482.222 104.493 481.81 104.852 481.658C105.21 481.505 105.627 481.672 105.785 482.031C107.66 486.455 107.415 491.498 105.117 495.721C102.922 497.926 100.57 499.964 98.0704 501.81C99.6809 502.149 101.306 502.434 102.937 502.67C113.617 503.303 124.322 501.835 134.437 498.339C141.032 496.281 147.111 492.834 152.262 488.228C154.113 486.573 155.012 484.104 154.653 481.643C154.3 479.188 152.738 477.072 150.494 476.011C143.487 472.692 136.185 470.05 128.682 468.11C120.246 466.956 111.879 465.356 103.615 463.313C101.941 462.896 100.517 461.791 99.6965 460.273C98.8716 458.751 98.7341 456.959 99.3086 455.329C101.445 449.259 100.924 442.567 97.8699 436.905C94.7616 433.105 90.2245 430.753 85.3288 430.399C84.3074 430.237 83.2713 430.178 82.2402 430.222L82.2308 430.217ZM76.3089 434.882H76.3139C76.7607 434.872 77.1977 435.049 77.5169 435.368C77.8361 435.682 78.0128 436.119 78.0079 436.566C78.0079 437.489 77.2615 438.236 76.3384 438.236C75.4202 438.236 74.6738 437.489 74.6738 436.566C74.664 435.653 75.3957 434.897 76.3139 434.882L76.3089 434.882ZM90.2346 438.108C90.6864 438.098 91.1185 438.275 91.4376 438.589C91.7568 438.908 91.9385 439.34 91.9336 439.787C91.9434 440.239 91.7715 440.671 91.4573 440.99C91.1479 441.314 90.7158 441.496 90.269 441.496C89.8172 441.496 89.39 441.314 89.0757 440.99C88.7615 440.671 88.5945 440.239 88.6043 439.787C88.5945 438.874 89.3213 438.128 90.2346 438.108L90.2346 438.108ZM81.6021 442.552C82.6382 442.542 83.64 442.896 84.4403 443.549C84.7399 443.799 84.9019 444.177 84.8774 444.565C84.8528 444.953 84.6417 445.307 84.3078 445.513C83.7676 445.861 83.144 446.053 82.5007 446.082L82.3731 446.912C82.3485 447.109 82.3829 447.31 82.4713 447.492H82.4418C82.7561 448.218 83.3797 448.763 84.136 448.98C84.8971 449.201 85.7122 449.068 86.3652 448.626C86.6893 448.41 87.1312 448.493 87.3522 448.822C87.5683 449.147 87.4848 449.584 87.1656 449.809C86.2376 450.433 85.0984 450.654 84.0083 450.413C82.9182 450.173 81.9705 449.5 81.3911 448.543C80.5465 449.279 79.4367 449.633 78.3172 449.525C77.2025 449.417 76.1812 448.852 75.4937 447.968C75.2629 447.659 75.3219 447.217 75.6263 446.976C75.9357 446.74 76.3727 446.789 76.6182 447.094C77.1043 447.718 77.8409 448.091 78.6315 448.115C79.4221 448.14 80.1832 447.811 80.7036 447.217C80.8362 447.064 80.9246 446.883 80.9541 446.686L81.0817 445.857C80.4827 445.631 79.9474 445.253 79.5349 444.757C79.2894 444.457 79.201 444.059 79.2992 443.681C79.3925 443.303 79.6675 442.999 80.026 442.856C80.5268 442.66 81.0571 442.552 81.5924 442.547L81.6021 442.552Z" fill="#F2F4F7"/>
<path d="M58.8922 483.814C59.835 481.624 62.0348 480.244 64.4212 480.347C65.3984 482.856 66.6849 485.233 68.2514 487.423C65.968 486.48 63.4735 486.185 61.0331 486.573C60.3162 486.686 59.5944 486.401 59.1475 485.827C58.7006 485.252 58.6025 484.481 58.8922 483.814L58.8922 483.814Z" fill="#F2F4F7"/>
<path d="M154.669 487.599C156.996 484.103 156.539 479.453 153.578 476.472C156.377 477.052 159.044 478.147 161.44 479.708C164.705 480.499 168.059 480.862 171.418 480.774C173.195 481.373 174.256 483.2 173.883 485.041C173.515 486.882 171.835 488.159 169.964 488.026C164.956 486.784 159.741 486.642 154.668 487.604L154.669 487.599Z" fill="#F2F4F7"/>
</g>
<rect x="0.00012207" width="59" height="542" fill="url(#paint0_linear)"/>
<defs>
<filter id="filter0_d" x="48.7278" y="417.208" width="135.23" height="101.308" filterUnits="userSpaceOnUse" color-interpolation-filters="sRGB">
<feFlood flood-opacity="0" result="BackgroundImageFix"/>
<feColorMatrix in="SourceAlpha" type="matrix" values="0 0 0 0 0 0 0 0 0 0 0 0 0 0 0 0 0 0 127 0"/>
<feOffset dy="-3"/>
<feGaussianBlur stdDeviation="5"/>
<feColorMatrix type="matrix" values="0 0 0 0 0.574269 0 0 0 0 0.569878 0 0 0 0 0.604451 0 0 0 0.2 0"/>
<feBlend mode="normal" in2="BackgroundImageFix" result="effect1_dropShadow"/>
<feBlend mode="normal" in="SourceGraphic" in2="effect1_dropShadow" result="shape"/>
</filter>
<linearGradient id="paint0_linear" x1="0.000121875" y1="184.354" x2="58.9892" y2="185.366" gradientUnits="userSpaceOnUse">
<stop offset="0.137304" stop-color="white"/>
<stop offset="1" stop-color="white" stop-opacity="0"/>
</linearGradient>
</defs>
</svg>
