<svg width="201" height="93" viewBox="0 0 201 93" fill="none" xmlns="http://www.w3.org/2000/svg">
<g filter="url(#filter0_d)">
<path d="M63.0555 48.7256L64.5532 48.7098L64.5647 49.7991C64.3927 49.8249 64.2581 49.9705 64.26 50.1507L64.2627 50.403C64.2646 50.5832 64.4022 50.7259 64.5747 50.7481L64.5748 50.7601L64.6789 50.759L64.6788 50.747C64.8507 50.7212 64.9854 50.5756 64.9835 50.3954L64.9808 50.1431C64.9789 49.9629 64.8413 49.8202 64.6688 49.798L64.6573 48.7088L65.6144 48.6987L65.6163 48.8829L65.6239 49.5957L65.636 50.749L66.2487 50.7425L66.2365 49.5892L66.229 48.8764L66.2193 47.9514C66.2177 47.8032 66.1084 47.6882 65.9719 47.6616L65.951 45.6714L65.8308 45.6727L65.8518 47.6629C65.7119 47.6924 65.6091 47.8136 65.6106 47.9578L65.6115 48.0459L63.0567 48.0728C62.8765 48.0747 62.7338 48.2204 62.7357 48.4006C62.7297 48.5849 62.8753 48.7275 63.0555 48.7256Z" fill="white"/>
<path d="M161.35 64.7083C161.35 64.7043 161.35 64.6963 161.354 64.6922C161.369 64.608 161.385 64.5277 161.396 64.4555C161.426 64.2388 161.151 64.3899 160.303 64.511C159.475 64.6119 153.662 64.581 153.662 64.581C153.662 64.581 153.644 62.9227 153.626 61.1684C153.619 60.5235 153.707 60.154 153.707 60.154L122.918 60.4783L121.666 53.8177L121.658 53.0847L116.379 51.2095L114.82 49.215L114.745 44.7733L114.505 44.7759L114.52 48.9137L114.52 48.9177L114.537 52.7872L114.112 53.1682L114.12 53.9012L114.19 60.5742L112.668 60.5902L110.657 63.5757L81.3652 63.8842L81.3022 57.9002L82.3637 57.889L82.3526 56.8436L81.3073 55.3444L81.2753 55.3447L81.2744 55.2606L81.0421 55.259L81.0059 51.8264L81.7509 51.8186C81.7509 51.8186 81.7802 49.6591 81.7249 49.3512C81.6696 49.0434 80.9721 48.6141 80.9721 48.6141L78.4515 49.2856L79.6423 45.2031C79.9503 45.1638 80.6937 45.3843 80.877 45.6708C81.105 46.0249 82.0249 46.2636 82.2494 46.2813C82.474 46.3029 82.3517 45.3428 82.4167 45.0497C82.4817 44.7566 82.8344 44.3964 82.5904 44.423C82.3463 44.4496 81.7587 44.1874 81.4672 43.898C81.1718 43.6127 80.5462 43.5512 80.3217 43.5295C80.2736 43.526 80.2171 43.4866 80.1644 43.435L82.2637 36.2305L82.3682 36.2614C82.529 36.3118 82.7003 36.2259 82.7587 36.065C82.9757 36.1268 83.2007 36.1966 83.4459 36.2701C87.0025 37.3623 114.204 44.8071 114.478 44.8803L114.512 44.7518C114.239 44.6785 87.0373 37.2337 83.4846 36.1415C83.2274 36.0641 82.9983 35.9904 82.7773 35.9246C82.764 35.8046 82.6828 35.7013 82.5622 35.6585L82.0638 35.4995C81.9352 35.4608 81.8035 35.5062 81.7244 35.6072C80.6354 35.2862 80.1816 35.1708 79.9889 35.1368C79.8925 35.1098 79.7482 35.1033 79.5565 35.1534C79.133 35.262 77.4212 36.2774 76.8096 37.9223C76.8558 33.5674 77.0074 19.4332 77.0359 17.9548C77.0837 17.5417 76.8816 17.7521 76.8816 17.7521L76.3908 38.856L75.802 38.8622L74.6596 45.2596L74.5231 45.233L72.9055 44.9255L72.9005 44.4489C73.5372 44.4262 74.0444 43.9001 74.0376 43.2552C74.0307 42.6023 73.4965 42.0792 72.8436 42.086C72.1907 42.0929 71.6676 42.6272 71.6744 43.2801C71.681 43.9049 72.1711 44.4125 72.7883 44.4461L72.7922 44.8146L72.7473 44.7349C72.7473 44.7349 71.9259 44.7195 71.746 44.7455C71.566 44.7714 71.7263 45.1583 71.7263 45.1583L72.7036 45.148L74.5237 46.0462L74.1946 47.8883C73.9784 47.9026 73.3499 47.9453 73.1176 47.9477C72.8332 47.9507 72.9973 48.6941 72.9244 49.0033C72.0154 49.0329 70.2563 48.9793 69.4909 48.9553L69.4861 48.4947L69.7464 48.492C70.0068 48.4892 70.2171 48.3027 70.2147 48.0744L70.2089 47.5217C70.2065 47.2934 69.9923 47.1114 69.7319 47.1141L69.4716 47.1168L68.9629 47.1222L68.9774 48.496L69.0008 50.723L64.4507 50.771C64.2224 50.7734 64.0401 50.9596 64.0425 51.1879L64.0656 53.3828L64.0849 55.2173L49.5514 55.1861L49.4037 41.1592L49.2675 41.1606L49.209 55.0054L48.6002 55.0118L48.3421 38.1179L48.0658 38.1208L48.0875 55.0172L47.9273 55.0189C47.8712 55.0195 47.8236 55.0681 47.8242 55.1242C47.8248 55.1802 47.8734 55.2278 47.9295 55.2272L48.0897 55.2255L48.0966 59.6839C44.8473 59.634 42.4714 59.595 41.8544 59.5774C39.7908 59.5271 38.3613 58.0559 37.8704 57.4682C37.8622 57.4563 37.8501 57.4444 37.842 57.4365C37.8095 57.3968 37.7811 57.361 37.7608 57.3332C37.7607 57.3292 37.7567 57.3252 37.7527 57.3253C37.704 57.2617 37.6795 57.2259 37.6795 57.2259L16.8845 56.7759L15.2632 54.9743L15.2354 52.3348C15.3468 52.2655 15.4216 52.1406 15.4201 51.9964C15.4178 51.7761 15.2397 51.6017 15.0194 51.604C14.7991 51.6063 14.6247 51.7844 14.627 52.0047C14.6286 52.1489 14.7059 52.2683 14.8188 52.3392L14.847 55.0148L14.8153 55.0432L14.8477 55.0789L14.8651 56.7331L14.7089 56.7307C15.122 57.159 15.519 57.5835 15.9079 58C15.9849 58.0833 16.0619 58.1666 16.1389 58.2459C16.5035 58.6386 16.8561 59.0275 17.1966 59.4085C17.2818 59.5037 17.3628 59.595 17.444 59.6903C17.748 60.0356 18.0481 60.3769 18.336 60.7144C18.405 60.7938 18.4739 60.8772 18.5429 60.9566C18.8228 61.2861 19.0945 61.6077 19.3583 61.9294C19.4557 62.0446 19.549 62.1597 19.6423 62.2749C22.9782 66.3618 25.0042 69.6934 26.0507 72.0738C26.0836 72.1496 26.1124 72.2214 26.1452 72.2972C26.2028 72.4368 26.2603 72.5764 26.3138 72.708C26.3426 72.7798 26.3713 72.8476 26.3961 72.9154C26.4702 73.1109 26.5363 73.2985 26.5983 73.4781C27.6457 76.6958 29.2129 76.4029 32.9969 76.6394C36.7809 76.876 70.2782 78.8306 91.2163 79.1629C112.154 79.4952 158.851 73.4714 158.851 73.4714C158.851 73.4714 158.963 73.1176 159.142 72.5509C159.15 72.5268 159.157 72.4987 159.165 72.4746C159.308 72.0244 159.487 71.4497 159.68 70.8148C159.684 70.8067 159.684 70.7947 159.688 70.7867C160.303 68.7092 161.111 65.9727 161.35 64.7083ZM116.227 51.2592L116.307 51.1863L115.926 51.5268L114.814 49.4674L114.814 49.4514L116.227 51.2592ZM114.839 50.701L115.12 52.2603L115.247 52.1468L114.826 49.8078L114.826 49.7878L115.819 51.632L115.846 51.6077L114.87 52.4833L114.839 50.701ZM110.416 63.9268L109.955 64.6126L109.852 64.7659L108.354 64.7897L108.345 63.9486L110.416 63.9268ZM107.853 63.9538L107.861 64.7989L104.962 64.8455L104.953 63.9843L107.853 63.9538ZM104.456 63.9895L104.465 64.8507L101.565 64.8973L101.556 64.0161L104.456 63.9855L104.456 63.9895ZM101.059 64.0253L101.069 64.9065L98.169 64.9531L98.1595 64.0559L101.059 64.0253ZM97.6629 64.0611L97.6724 64.9623L94.7726 65.0089L94.7629 64.0916L97.6629 64.0611ZM78.0088 42.6245L77.047 42.5906L77.0346 41.7895L78.0084 42.2039L78.0088 42.6245ZM78.1814 42.2822L79.0748 42.6654L78.1811 42.6347L78.1814 42.2822ZM77.0492 42.7989L78.007 42.8328L78.0076 43.2775C77.9038 43.3106 77.8288 43.4076 77.83 43.5237L77.8316 43.6759C77.8328 43.7881 77.9099 43.8834 78.0104 43.9184L78.0296 47.6476C77.8819 47.6892 77.7711 47.8226 77.7728 47.9828L77.7774 48.4194C77.779 48.5756 77.8886 48.7066 78.0332 48.7492L78.0359 49.3861L77.1571 49.6197L77.0492 42.7989ZM78.2157 49.3441L78.2135 48.7553C78.3254 48.7261 78.4167 48.645 78.4556 48.5404L78.2197 49.3441L78.2157 49.3441ZM76.6938 49.7487L74.9954 47.0987L76.7086 46.9725L76.7537 49.7321L76.6938 49.7487ZM76.3862 49.8321L74.1372 50.4326L74.7124 47.2259L76.3862 49.8321ZM94.2623 64.0969L94.272 65.0181L91.3722 65.0647L91.3624 64.1274L94.2623 64.0969ZM90.8657 64.1327L90.8756 65.0739L87.9759 65.1205L87.9658 64.1632L90.8657 64.1327ZM87.4691 64.1684L87.4792 65.1297L84.5795 65.1763L84.5692 64.199L87.4691 64.1684ZM84.0725 64.2042L84.0828 65.1815L81.3754 65.2261L81.3649 64.2327L84.0725 64.2042ZM79.9982 43.2445C79.8518 43.0418 79.7252 42.8107 79.7252 42.8107L78.6218 47.9659L78.4594 48.5204C78.4711 48.4882 78.4787 48.4521 78.4784 48.416L78.4738 47.9794C78.4721 47.8192 78.3585 47.6842 78.2099 47.6457L78.1906 43.9125C78.2863 43.8714 78.3494 43.7786 78.3483 43.6705L78.3467 43.5183C78.3455 43.4101 78.2805 43.3187 78.188 43.2836L78.1873 42.8389L79.6259 42.8879L79.6299 42.8879C79.678 42.8873 79.7177 42.8549 79.7292 42.8067C79.7407 42.7585 79.7162 42.7107 79.6679 42.6912L78.1831 42.0579L78.1721 39.8788C78.3118 39.8253 78.4102 39.664 78.4082 39.4757L78.404 39.0712L78.9167 39.0658L78.9123 38.6532L78.5398 38.6571L79.7031 35.3881C79.739 35.3717 79.7749 35.3553 79.8108 35.3389C80.0795 35.3682 80.6173 35.4667 81.6578 35.7481C81.6353 35.8966 81.717 36.0479 81.8657 36.0944L82.0627 36.1565L79.9982 43.2445ZM79.4362 35.5272L78.5064 38.1448L78.1659 38.1483L78.1572 36.5541C78.4618 36.1944 78.8826 35.8334 79.4362 35.5272ZM77.9791 36.7683L77.9857 38.1502L77.2888 38.1576C77.2888 38.1576 77.4221 37.5032 77.9791 36.7683ZM77.7351 39.0782L77.7393 39.4828C77.7414 39.679 77.8513 39.8421 77.9959 39.8847L78.006 41.9836L77.0323 41.5693L76.9901 39.0901L77.7351 39.0822L77.7351 39.0782ZM76.1307 39.2674L76.5793 39.2627L76.6344 42.5869L75.5521 42.5182L76.1307 39.2674ZM75.0376 45.3958L75.5232 42.8149L76.5533 42.8802L74.996 45.6326L75.0376 45.3958ZM74.8333 46.5356L76.6462 43.3279L76.7014 46.6682L74.8041 46.8083L74.7878 46.7845L74.8333 46.5356ZM48.5823 55.2203L48.8467 55.2175L48.8939 59.6996C48.8138 59.6964 48.7336 59.6973 48.6535 59.6941L48.5823 55.2203ZM15.2412 55.5474L16.3396 56.7656L15.2538 56.741L15.2412 55.5474Z" fill="white"/>
<path d="M154.49 59.5087L126.016 59.8086L126.022 60.3533L154.496 60.0535L154.49 59.5087Z" fill="white"/>
<path d="M152.834 80.3446C155.547 80.3446 180.35 79.916 186.991 79.916L166.822 76.9147L166.822 74.7712L163.431 72.1987L166.822 70.4837L171.908 70.4837L169.365 67.9113L183.633 61.9092L170.637 63.624L158.344 66.1964L141.813 73.0563C139.553 72.9134 134.183 72.7133 130.792 73.0563C126.554 73.485 126.13 74.7712 123.586 74.7712L114.261 74.7712L103.664 74.7712L93.915 79.916C102.675 79.916 120.45 79.4871 123.163 79.4871C125.875 79.4871 130.934 79.916 132.912 79.916C134.325 79.916 138.337 79.4871 144.78 79.4871C146.9 79.4871 149.443 80.3446 152.834 80.3446Z" fill="#BECEE6"/>
<path d="M63.4601 49.1226L64.9578 49.1068L64.9692 50.196C64.7973 50.2219 64.6627 50.3675 64.6646 50.5477L64.6672 50.8C64.6691 50.9802 64.8068 51.1229 64.9792 51.1451L64.9794 51.1571L65.0835 51.156L65.0833 51.144C65.2553 51.1182 65.3899 50.9726 65.388 50.7924L65.3854 50.5401C65.3835 50.3599 65.2458 50.2172 65.0734 50.1949L65.0619 49.1057L66.0189 49.0956L66.0209 49.2798L66.0284 49.9926L66.0405 51.1459L66.6532 51.1395L66.6411 49.9862L66.6336 49.2734L66.6238 48.3484C66.6223 48.2002 66.5129 48.0852 66.3765 48.0586L66.3555 46.0684L66.2354 46.0696L66.2563 48.0599C66.1165 48.0894 66.0136 48.2106 66.0152 48.3548L66.0161 48.4429L63.4612 48.4698C63.281 48.4717 63.1384 48.6174 63.1403 48.7976C63.1342 48.9818 63.2799 49.1245 63.4601 49.1226Z" fill="#E3E5EA"/>
<path d="M63.4601 49.1226L64.9578 49.1068L64.9692 50.196C64.7973 50.2219 64.6627 50.3675 64.6646 50.5477L64.6672 50.8C64.6691 50.9802 64.8068 51.1229 64.9792 51.1451L64.9794 51.1571L65.0835 51.156L65.0833 51.144C65.2553 51.1182 65.3899 50.9726 65.388 50.7924L65.3854 50.5401C65.3835 50.3599 65.2458 50.2172 65.0734 50.1949L65.0619 49.1057L66.0189 49.0956L66.0209 49.2798L66.0284 49.9926L66.0405 51.1459L66.6532 51.1395L66.6411 49.9862L66.6336 49.2734L66.6238 48.3484C66.6223 48.2002 66.5129 48.0852 66.3765 48.0586L66.3555 46.0684L66.2354 46.0696L66.2563 48.0599C66.1165 48.0894 66.0136 48.2106 66.0152 48.3548L66.0161 48.4429L63.4612 48.4698C63.281 48.4717 63.1384 48.6174 63.1403 48.7976C63.1342 48.9818 63.2799 49.1245 63.4601 49.1226Z" fill="url(#paint0_linear)"/>
<path d="M161.755 65.1038C161.755 65.0998 161.755 65.0918 161.759 65.0877C161.774 65.0035 161.789 64.9232 161.8 64.851C161.83 64.6343 161.555 64.7854 160.707 64.9065C159.879 65.0074 154.066 64.9765 154.066 64.9765C154.066 64.9765 154.049 63.3182 154.03 61.5639C154.024 60.919 154.112 60.5495 154.112 60.5495L123.322 60.8738L122.07 54.2132L122.063 53.4803L116.783 51.605L115.224 49.6105L115.149 45.1688L114.909 45.1714L114.924 49.3093L114.924 49.3132L114.941 53.1827L114.517 53.5637L114.524 54.2967L114.595 60.9697L113.073 60.9857L111.061 63.9712L81.7695 64.2797L81.7065 58.2957L82.768 58.2845L82.7569 57.2391L81.7116 55.7399L81.6796 55.7402L81.6787 55.6561L81.4464 55.6545L81.4102 52.2219L82.1552 52.2141C82.1552 52.2141 82.1845 50.0546 82.1292 49.7468C82.0739 49.4389 81.3764 49.0096 81.3764 49.0096L78.8558 49.6811L80.0466 45.5986C80.3546 45.5593 81.098 45.7798 81.2813 46.0663C81.5093 46.4204 82.4292 46.6591 82.6537 46.6768C82.8783 46.6984 82.756 45.7383 82.821 45.4452C82.886 45.1521 83.2387 44.7919 82.9947 44.8185C82.7506 44.8451 82.163 44.5829 81.8715 44.2935C81.5761 44.0082 80.9505 43.9467 80.726 43.925C80.6779 43.9215 80.6214 43.8821 80.5687 43.8305L82.668 36.626L82.7725 36.6569C82.9333 36.7073 83.1046 36.6214 83.163 36.4605C83.38 36.5223 83.605 36.5921 83.8502 36.6656C87.4068 37.7578 114.609 45.2026 114.882 45.2758L114.917 45.1473C114.643 45.074 87.4416 37.6292 83.8889 36.537C83.6317 36.4596 83.4026 36.3859 83.1816 36.3201C83.1683 36.2001 83.0871 36.0968 82.9665 36.054L82.4681 35.895C82.3395 35.8563 82.2078 35.9017 82.1287 36.0027C81.0397 35.6817 80.5859 35.5663 80.3932 35.5323C80.2968 35.5053 80.1525 35.4988 79.9608 35.5489C79.5373 35.6575 77.8255 36.673 77.2139 38.3178C77.2601 33.9629 77.4117 19.8287 77.4402 18.3503C77.488 17.9372 77.2859 18.1476 77.2859 18.1476L76.7951 39.2515L76.2063 39.2577L75.0639 45.6551L74.9274 45.6285L73.3098 45.321L73.3048 44.8444C73.9415 44.8217 74.4487 44.2956 74.4419 43.6507C74.435 42.9978 73.9008 42.4747 73.2479 42.4816C72.595 42.4884 72.0719 43.0227 72.0787 43.6756C72.0853 44.3004 72.5754 44.808 73.1926 44.8416L73.1965 45.2101L73.1516 45.1304C73.1516 45.1304 72.3302 45.1151 72.1503 45.141C71.9703 45.1669 72.1306 45.5538 72.1306 45.5538L73.1079 45.5435L74.928 46.4417L74.5989 48.2838C74.3827 48.2981 73.7542 48.3408 73.5219 48.3432C73.2375 48.3462 73.4016 49.0896 73.3287 49.3988C72.4197 49.4284 70.6606 49.3748 69.8952 49.3508L69.8904 48.8902L70.1507 48.8875C70.4111 48.8847 70.6214 48.6982 70.619 48.4699L70.6132 47.9172C70.6108 47.6889 70.3966 47.5069 70.1362 47.5096L69.8759 47.5124L69.3672 47.5177L69.3817 48.8916L69.4051 51.1186L64.855 51.1665C64.6267 51.1689 64.4444 51.3551 64.4468 51.5834L64.4699 53.7783L64.4892 55.6128L49.9557 55.5816L49.808 41.5547L49.6718 41.5561L49.6133 55.4009L49.0045 55.4073L48.7464 38.5134L48.4701 38.5163L48.4918 55.4127L48.3316 55.4144C48.2755 55.415 48.2279 55.4636 48.2285 55.5197C48.2291 55.5757 48.2777 55.6233 48.3338 55.6227L48.494 55.621L48.5009 60.0794C45.2516 60.0295 42.8757 59.9905 42.2587 59.9729C40.1951 59.9226 38.7656 58.4515 38.2747 57.8638C38.2665 57.8518 38.2544 57.8399 38.2463 57.832C38.2138 57.7923 38.1854 57.7565 38.1651 57.7287C38.165 57.7247 38.161 57.7207 38.157 57.7208C38.1083 57.6572 38.0838 57.6214 38.0838 57.6214L17.2888 57.1714L15.6675 55.3699L15.6397 52.7303C15.7511 52.661 15.8259 52.5361 15.8244 52.3919C15.8221 52.1716 15.644 51.9972 15.4237 51.9995C15.2034 52.0018 15.029 52.1799 15.0313 52.4002C15.0329 52.5444 15.1102 52.6638 15.2231 52.7347L15.2513 55.4103L15.2196 55.4387L15.252 55.4744L15.2694 57.1286L15.1131 57.1262C15.5263 57.5545 15.9233 57.979 16.3122 58.3955C16.3892 58.4788 16.4662 58.5621 16.5432 58.6414C16.9078 59.0342 17.2604 59.423 17.6009 59.804C17.6861 59.8992 17.7671 59.9905 17.8483 60.0858C18.1523 60.4311 18.4524 60.7724 18.7403 61.1099C18.8093 61.1893 18.8782 61.2727 18.9472 61.3521C19.2271 61.6816 19.4988 62.0032 19.7626 62.3249C19.8599 62.4401 19.9533 62.5553 20.0466 62.6704C23.3825 66.7573 25.4085 70.0889 26.455 72.4693C26.4879 72.5451 26.5167 72.6169 26.5495 72.6927C26.6071 72.8323 26.6646 72.9719 26.7181 73.1035C26.7469 73.1753 26.7756 73.2431 26.8004 73.3109C26.8745 73.5064 26.9406 73.694 27.0026 73.8736C28.05 77.0913 29.6172 76.7984 33.4012 77.0349C37.1852 77.2715 70.6825 79.2261 91.6206 79.5584C112.559 79.8907 159.255 73.8669 159.255 73.8669C159.255 73.8669 159.368 73.5132 159.546 72.9465C159.554 72.9223 159.562 72.8942 159.569 72.8701C159.713 72.4199 159.891 71.8452 160.085 71.2103C160.088 71.2022 160.088 71.1902 160.092 71.1822C160.707 69.1047 161.516 66.3682 161.755 65.1038ZM116.632 51.6547L116.711 51.5818L116.33 51.9223L115.219 49.863L115.219 49.8469L116.632 51.6547ZM115.244 51.0965L115.524 52.6558L115.651 52.5423L115.23 50.2033L115.23 50.1833L116.223 52.0276L116.251 52.0032L115.274 52.8788L115.244 51.0965ZM110.82 64.3223L110.359 65.0081L110.256 65.1614L108.758 65.1852L108.75 64.3441L110.82 64.3223ZM108.257 64.3493L108.266 65.1944L105.366 65.241L105.357 64.3798L108.257 64.3493ZM104.86 64.3851L104.869 65.2462L101.97 65.2928L101.96 64.4116L104.86 64.381L104.86 64.3851ZM101.464 64.4208L101.473 65.302L98.5733 65.3486L98.5638 64.4514L101.464 64.4208ZM98.0672 64.4566L98.0766 65.3578L95.1769 65.4044L95.1672 64.4871L98.0672 64.4566ZM78.4131 43.02L77.4513 42.9861L77.4389 42.1851L78.4126 42.5994L78.4131 43.02ZM78.5857 42.6777L79.4791 43.0609L78.5854 43.0302L78.5857 42.6777ZM77.4535 43.1944L78.4113 43.2283L78.4119 43.673C78.3081 43.7061 78.2331 43.8031 78.2343 43.9192L78.2359 44.0714C78.2371 44.1836 78.3142 44.2789 78.4147 44.3139L78.4339 48.0431C78.2862 48.0847 78.1754 48.2181 78.1771 48.3783L78.1817 48.8149C78.1833 48.9711 78.2929 49.1022 78.4375 49.1447L78.4402 49.7816L77.5614 50.0152L77.4535 43.1944ZM78.62 49.7396L78.6178 49.1508C78.7297 49.1216 78.821 49.0405 78.8599 48.936L78.624 49.7396L78.62 49.7396ZM77.0981 50.1442L75.3997 47.4942L77.1129 47.368L77.158 50.1276L77.0981 50.1442ZM76.7905 50.2276L74.5415 50.8281L75.1167 47.6214L76.7905 50.2276ZM94.6666 64.4924L94.6763 65.4136L91.7765 65.4602L91.7667 64.5229L94.6666 64.4924ZM91.27 64.5282L91.2799 65.4694L88.3802 65.516L88.3701 64.5587L91.27 64.5282ZM87.8734 64.5639L87.8835 65.5252L84.9838 65.5718L84.9735 64.5945L87.8734 64.5639ZM84.4768 64.5997L84.4871 65.577L81.7797 65.6216L81.7692 64.6282L84.4768 64.5997ZM80.4025 43.64C80.2561 43.4373 80.1295 43.2062 80.1295 43.2062L79.0261 48.3614L78.8637 48.9159C78.8754 48.8837 78.883 48.8476 78.8827 48.8115L78.8781 48.3749C78.8764 48.2147 78.7628 48.0797 78.6142 48.0412L78.5949 44.308C78.6906 44.2669 78.7537 44.1741 78.7526 44.066L78.751 43.9138C78.7498 43.8056 78.6848 43.7142 78.5923 43.6791L78.5916 43.2345L80.0302 43.2834L80.0342 43.2834C80.0823 43.2829 80.122 43.2504 80.1335 43.2022C80.145 43.154 80.1205 43.1062 80.0722 43.0867L78.5874 42.4534L78.5764 40.2743C78.7161 40.2208 78.8145 40.0595 78.8125 39.8712L78.8083 39.4667L79.321 39.4613L79.3166 39.0487L78.9441 39.0527L80.1074 35.7837C80.1433 35.7673 80.1792 35.7509 80.2151 35.7345C80.4838 35.7637 81.0216 35.8622 82.0621 36.1436C82.0396 36.2921 82.1213 36.4434 82.27 36.4899L82.467 36.552L80.4025 43.64ZM79.8405 35.9227L78.9107 38.5403L78.5702 38.5438L78.5615 36.9496C78.8661 36.5899 79.2869 36.2289 79.8405 35.9227ZM78.3834 37.1638L78.39 38.5457L77.693 38.5531C77.693 38.5531 77.8264 37.8987 78.3834 37.1638ZM78.1394 39.4737L78.1436 39.8783C78.1457 40.0745 78.2556 40.2376 78.4002 40.2802L78.4103 42.3791L77.4366 41.9648L77.3944 39.4856L78.1394 39.4777L78.1394 39.4737ZM76.535 39.6629L76.9836 39.6582L77.0387 42.9824L75.9564 42.9137L76.535 39.6629ZM75.4419 45.7913L75.9275 43.2104L76.9576 43.2757L75.4003 46.0281L75.4419 45.7913ZM75.2376 46.9311L77.0505 43.7234L77.1057 47.0637L75.2084 47.2038L75.1921 47.18L75.2376 46.9311ZM48.9866 55.6158L49.251 55.613L49.2982 60.0951C49.2181 60.0919 49.1379 60.0928 49.0578 60.0896L48.9866 55.6158ZM15.6455 55.9429L16.7439 57.1611L15.6581 57.1365L15.6455 55.9429Z" fill="white"/>
<path d="M154.895 59.9057L126.42 60.2056L126.426 60.7503L154.9 60.4504L154.895 59.9057Z" fill="#E3E5EA"/>
<path d="M154.895 59.9057L126.42 60.2056L126.426 60.7503L154.9 60.4504L154.895 59.9057Z" fill="url(#paint1_linear)"/>
</g>
<defs>
<filter id="filter0_d" x="0.272705" y="0.814941" width="200.718" height="91.586" filterUnits="userSpaceOnUse" color-interpolation-filters="sRGB">
<feFlood flood-opacity="0" result="BackgroundImageFix"/>
<feColorMatrix in="SourceAlpha" type="matrix" values="0 0 0 0 0 0 0 0 0 0 0 0 0 0 0 0 0 0 127 0"/>
<feOffset dy="-2"/>
<feGaussianBlur stdDeviation="7"/>
<feColorMatrix type="matrix" values="0 0 0 0 0 0 0 0 0 0 0 0 0 0 0 0 0 0 0.04 0"/>
<feBlend mode="normal" in2="BackgroundImageFix" result="effect1_dropShadow"/>
<feBlend mode="normal" in="SourceGraphic" in2="effect1_dropShadow" result="shape"/>
</filter>
<linearGradient id="paint0_linear" x1="64.8557" y1="46.0842" x2="64.9091" y2="51.1579" gradientUnits="userSpaceOnUse">
<stop stop-color="#E3E5EA"/>
<stop offset="1" stop-color="#DCDEE6"/>
</linearGradient>
<linearGradient id="paint1_linear" x1="140.658" y1="60.0556" x2="140.663" y2="60.6004" gradientUnits="userSpaceOnUse">
<stop stop-color="#E3E5EA"/>
<stop offset="1" stop-color="#DCDEE6"/>
</linearGradient>
</defs>
</svg>
