<svg width="196" height="150" viewBox="0 0 196 150" fill="none" xmlns="http://www.w3.org/2000/svg">
<path d="M6.56333 93.4041C5.1609 91.8014 2.4729 89.2302 1.3042 88.145C1.80507 87.3102 3.05724 85.6407 4.05898 85.6407C5.06072 85.6407 4.47638 83.4702 4.05898 82.385C4.89377 80.9659 7.0642 78.5784 9.06768 80.3815C11.0712 82.1847 9.90247 79.6302 9.06768 78.1276C9.65203 76.8754 11.2715 74.3711 13.0746 74.3711C15.3286 74.3711 16.0799 72.618 17.5825 72.618C19.0851 72.618 19.3355 71.3659 20.5877 70.1137C21.5894 69.1119 22.3407 69.6963 22.5912 70.1137C23.1755 70.9485 23.9936 72.9686 22.5912 74.3711C20.8381 76.1241 24.3442 76.3745 24.3442 78.1276C24.3442 79.8806 26.5981 80.3815 28.1007 82.385C29.6034 84.3885 30.6051 85.6407 33.8607 88.145C37.1164 90.6494 39.8712 91.4007 45.1303 95.9085C47.3842 98.4128 47.1338 99.1641 49.1373 100.166C51.1408 101.168 50.3895 105.175 56.3999 110.684C55.899 112.688 56.6503 114.19 58.1529 114.19C59.6556 114.19 60.4069 110.684 61.659 110.684H66.4173C68.4208 110.684 67.2521 110.016 66.4173 109.682L68.4208 106.928C70.3408 105.175 75.2326 101.168 79.4399 99.1641C84.6991 96.6598 92.4625 88.145 96.4695 83.8876C100.476 79.6302 102.73 76.3745 107.99 70.1137C113.249 63.8528 111.496 52.5832 111.496 50.5798C111.496 48.977 110.828 46.9067 110.494 46.0719C110.744 45.4876 111.245 43.4173 111.245 39.811C111.045 38.4086 111.329 36.5554 111.496 35.8041L113.75 31.0458L116.254 29.7936C115.419 29.1258 113.75 27.5898 113.75 26.7884C113.75 25.7867 110.494 23.5328 113.75 17.0215C115.553 16.4204 119.009 15.9362 120.511 15.7693C121.513 14.1832 123.767 11.011 124.769 11.011C126.021 11.011 127.273 11.011 130.278 13.5154C133.283 16.0197 132.031 13.5154 133.784 13.5154C135.537 13.5154 136.038 11.011 136.038 9.25798C136.038 7.85554 137.207 8.67363 137.791 9.25798L140.045 11.011H145.555H150.313C152.116 11.011 151.064 12.6806 150.313 13.5154C151.148 14.2667 153.068 15.7693 154.07 15.7693H158.327C160.08 15.7693 160.581 16.2702 161.833 15.7693C163.085 15.2684 164.337 14.0162 166.341 13.5154C168.344 13.0145 170.598 11.7623 170.598 11.011C170.598 10.2597 172.351 8.25624 172.351 6.75358C172.351 5.55145 173.687 4.75012 174.355 4.49971C174.856 4.66667 176.108 4.90041 177.11 4.49971C178.362 3.99884 179.113 2.74662 179.113 1.49445C179.113 0.492705 181.45 1.91184 182.619 2.74662C182.035 3.74836 180.515 5.95219 179.113 6.75358C177.36 7.75532 177.11 11.011 180.866 21.5292C181.066 22.7313 182.118 24.5345 182.619 25.2858V29.7936C182.619 32.0475 182.619 34.5519 184.623 35.8041C186.626 37.0563 186.877 34.3015 189.631 34.5519C192.386 34.8024 190.883 37.5571 191.635 38.5589C192.386 39.5606 194.64 42.3154 194.89 46.0719C195.141 49.8285 191.384 49.8285 189.631 50.5798C187.878 51.3311 184.623 52.0824 182.619 52.5832C180.616 53.0841 180.616 55.338 179.113 56.3398C177.61 57.3415 175.357 61.8493 174.355 63.1015C173.353 64.3537 172.602 65.6059 168.595 65.6059C165.389 65.6059 165.757 67.6093 166.341 68.6111C166.09 69.3624 165.74 71.2156 166.341 72.618C167.092 74.3711 168.595 76.3746 170.598 80.3815C170.348 82.1346 170.598 83.8876 168.595 85.6407C166.591 87.3937 166.591 87.3937 164.337 88.6459C162.083 89.8981 161.332 90.6494 158.327 91.4007C155.322 92.152 153.068 93.1537 148.059 94.6563C146.056 96.1589 145.304 98.1624 143.802 99.1641C142.299 100.166 141.798 100.917 140.045 101.668C138.292 102.42 138.543 103.171 136.038 105.175C133.534 107.178 132.783 108.43 132.031 108.681C131.28 108.931 131.28 107.178 130.278 107.178C129.276 107.178 127.523 106.928 126.021 107.178C124.518 107.428 124.017 109.182 123.516 109.682C123.016 110.183 121.012 109.682 120.511 109.682C120.01 109.682 118.508 111.686 116.254 110.684C115.503 110.434 114.501 109.682 113.75 109.682H111.496C110.911 110.016 109.743 110.885 109.743 111.686C109.743 112.487 108.574 113.689 107.99 114.19L110.494 114.942C109.826 115.275 108.39 116.394 107.99 118.197C107.489 120.451 106.988 120.451 105.485 121.703C103.983 122.955 107.99 124.208 109.743 124.208C111.496 124.208 111.496 127.213 109.743 127.213C107.99 127.213 105.986 128.715 104.233 130.469C102.831 131.871 101.478 133.891 100.977 134.726C99.8921 134.893 97.4712 135.127 96.4695 134.726C95.2173 134.225 92.2121 131.721 90.9599 131.721C89.7078 131.721 88.9564 129.968 86.953 128.715C84.9495 127.463 82.946 128.715 79.4399 127.213C75.9338 125.71 74.6817 126.712 72.1773 127.213C69.673 127.714 65.9164 128.215 63.9129 128.715C61.9095 129.216 58.1529 132.222 54.8973 131.721C51.6416 131.22 44.6295 125.46 42.8764 124.208C41.1234 122.955 40.1216 117.195 39.8712 115.943C39.6208 114.691 38.619 111.936 38.3686 110.684C38.1181 109.432 38.3686 108.18 36.1147 106.928C33.8607 105.675 34.1112 106.677 30.6051 105.675C27.099 104.674 26.5981 102.169 24.3442 100.166C22.0903 98.1624 21.5894 100.166 17.5825 100.166C14.3769 100.166 13.2416 97.3276 13.0746 95.9085C11.4886 95.7415 7.96577 95.0069 6.56333 93.4041Z" fill="#F2F4F7" stroke="#CBCDD5"/>
<path d="M103.983 141.487C103.181 140.486 102.981 138.232 102.981 137.23C102.952 136.479 100.477 135.978 99.4748 135.978C98.4731 135.978 98.9739 135.978 98.2226 135.727C97.4713 135.477 97.7217 135.226 96.9704 134.726C96.2191 134.225 95.4678 134.475 94.4661 134.475C93.4644 134.475 93.4644 133.223 92.9635 132.472C92.4626 131.72 91.2104 130.719 89.9583 129.717C88.7061 128.715 87.9548 128.966 87.2035 128.966C86.4522 128.966 85.4504 129.717 84.4487 129.717C83.447 129.717 83.1965 128.966 82.4452 128.465C81.6939 127.964 80.1913 127.713 79.6904 127.463C79.1896 127.213 77.4365 127.463 76.1843 127.463C74.9322 127.463 74.6817 126.461 73.68 126.461C72.6782 126.461 72.4278 127.213 71.4261 127.713C70.4243 128.214 69.1722 127.463 68.4209 127.463C67.6695 127.463 68.1704 128.214 66.9182 128.465C65.6661 128.715 63.913 128.715 62.9113 128.966C61.9095 129.216 61.9095 130.218 61.6591 130.969C61.4087 131.72 60.1565 131.47 59.1548 131.47C58.153 131.47 57.1513 130.468 56.4 130.468C55.6487 130.468 55.6487 130.969 54.6469 130.969C53.6452 130.969 52.6434 130.468 51.8921 130.468C51.1409 130.468 50.64 130.468 50.64 129.717C50.64 128.966 49.6382 127.713 49.1374 127.463C48.6365 127.213 48.1356 127.713 47.3843 127.713C46.633 127.713 45.8817 127.463 45.3808 127.213C44.88 126.962 44.3791 125.96 43.8782 125.46C43.3774 124.959 41.6243 122.705 41.3739 122.204C41.1234 121.703 39.8713 119.95 39.3704 119.7C38.8695 119.449 38.8695 118.197 38.6191 117.446C38.4187 116.845 38.3687 115.025 38.3687 114.19C38.5356 114.524 39.0699 114.891 39.8713 113.689C40.873 112.186 41.8747 112.938 43.3774 113.689C44.88 114.44 44.3791 114.19 46.3826 113.689C48.3861 113.188 48.1356 112.437 48.8869 114.19C49.6382 115.943 51.3913 114.941 51.3913 114.19V110.934C51.3913 109.933 52.6434 109.682 52.6434 108.68C52.6434 107.879 51.3078 106.677 50.64 106.176C50.8904 105.592 51.3913 104.072 51.3913 102.67C51.3913 100.917 48.8869 100.416 48.1356 99.6647C47.3843 98.9134 47.1339 97.1604 45.8817 96.4091C44.6295 95.6578 43.3773 93.4038 44.3791 92.1517C45.3808 90.8995 47.1339 92.6525 47.1339 92.1517C47.1339 91.6508 47.1339 90.1482 48.1356 89.3969C49.1373 88.6456 48.8869 86.8925 48.8869 86.3917C48.8869 85.8908 47.1339 83.8873 47.1339 81.6334C47.1339 79.3795 48.6365 78.1273 48.8869 76.6247C49.1373 75.1221 50.64 76.6247 51.3913 76.6247C52.1426 76.6247 52.1426 75.623 52.6434 74.8717C53.1443 74.1204 54.6469 75.623 54.6469 74.8717C54.6469 74.1204 54.8974 72.8682 54.6469 72.1169C54.3965 71.3656 55.6487 70.3638 56.4 69.863C57.1513 69.3621 56.9008 68.6108 57.1513 67.3586C57.4017 66.1064 58.153 67.3586 59.1548 66.1064C60.1565 64.8543 62.6608 64.3534 64.6643 63.1012C66.6678 61.849 66.9182 63.6021 66.4174 64.103C65.9165 64.6038 66.1669 66.1064 66.9182 67.3586C67.6695 68.6108 68.6713 67.1082 69.673 66.1064C70.6748 65.1047 70.6748 66.3569 71.4261 66.1064C72.1774 65.856 73.1791 65.3551 72.4278 64.3534C71.6765 63.3517 72.4278 62.0995 72.4278 61.5986C72.4278 61.0977 74.6817 59.8456 75.433 58.8438C76.1843 57.8421 79.1895 54.8369 80.1913 54.8369C81.193 54.8369 82.6956 55.3377 83.4469 54.8369C84.048 54.4362 84.0313 52.1656 83.9478 51.0803C84.5322 50.6629 85.8511 49.7781 86.4522 49.5777C87.2035 49.3273 87.7043 47.8247 90.4591 46.5725C92.663 45.5708 90.8765 42.649 89.7078 41.3134C89.8748 40.8125 90.3589 39.7106 90.96 39.3099C91.7113 38.809 92.2122 35.3029 92.2122 34.3012C92.2122 33.2995 91.9617 30.2943 92.2122 29.5429C92.4626 28.7916 93.9652 25.536 95.9687 24.0334C97.9722 22.5308 101.478 23.0316 102.981 23.0316C104.483 23.0316 106.487 23.0316 110.243 24.0334C114 25.0351 114.25 24.0334 117.005 25.536C119.209 26.7381 117.923 24.3673 117.005 23.0316C117.423 22.6977 118.358 22.0299 118.758 22.0299H122.014C123.266 22.0299 126.271 24.0334 127.523 24.0334C128.776 24.0334 131.28 24.7847 134.035 24.7847C136.79 24.7847 136.79 21.0281 137.791 20.0264C138.793 19.0247 140.045 16.2699 140.797 16.2699C141.548 16.2699 148.059 15.5186 150.313 15.5186C152.567 15.5186 158.077 15.769 159.078 15.5186C160.08 15.2682 159.83 18.5238 159.078 19.0247C158.477 19.4254 159.83 19.8595 160.581 20.0264C160.414 20.4438 159.88 21.4289 159.078 22.0299C158.077 22.7812 156.073 23.783 155.071 24.7847C154.07 25.7864 155.071 27.289 153.819 28.2908C152.567 29.2925 150.313 29.2925 149.311 30.2943C148.31 31.296 148.059 33.049 148.81 34.5517C149.412 35.7537 151.732 38.2247 152.817 39.3099L151.565 40.3117C151.148 39.9778 150.113 39.3099 149.311 39.3099C148.31 39.3099 147.809 39.0595 146.807 39.3099C145.805 39.5604 145.304 40.8126 144.052 42.0647C142.8 43.3169 142.299 46.0717 142.299 47.8247V53.0839C142.299 54.5865 140.045 56.3395 138.793 57.5917C137.541 58.8439 138.543 60.096 138.793 61.3482C139.044 62.6004 137.791 64.103 137.791 65.856C137.791 67.6091 137.791 69.1117 135.788 70.6143C133.784 72.1169 133.033 74.1204 133.033 75.3726C133.033 76.6247 132.282 78.6282 130.278 79.3795C128.275 80.1308 131.28 81.1326 132.282 81.6334C133.083 82.0341 133.117 83.303 133.033 83.8874C134.035 84.8056 136.389 87.0428 137.791 88.6456C139.544 90.6491 140.045 91.6507 142.299 91.6507C144.553 91.6507 145.304 89.8978 146.056 89.6474C146.657 89.447 148.477 88.8961 149.311 88.6456C149.395 89.1465 149.512 90.4487 149.311 91.6507C149.061 93.1532 149.812 94.4056 151.565 94.9065C152.968 95.3072 153.652 93.5708 153.819 92.6525H156.073C156.741 92.6525 158.277 92.4521 159.078 91.6507C159.88 90.8493 161.082 90.816 161.583 90.8994L162.584 92.6525L161.583 93.4038C160.664 94.2386 158.678 96.1085 158.077 96.9099C157.476 97.7113 156.49 100.082 156.073 101.167C155.99 101.835 155.672 103.271 155.071 103.672C154.32 104.172 151.816 106.927 150.313 107.929C148.81 108.931 146.056 111.686 145.304 112.437C144.553 113.188 141.548 114.19 140.797 114.691C140.045 115.192 140.797 116.945 140.797 117.946C140.797 118.948 140.045 120.701 140.045 123.456C140.045 126.211 139.795 127.713 138.793 129.466C137.791 131.219 138.292 132.973 138.793 134.475C139.294 135.978 137.541 135.978 136.038 136.479C134.536 136.979 133.534 137.981 132.532 140.736C131.53 143.491 130.028 143.491 129.026 143.992C128.225 144.392 127.023 143.157 126.522 142.489C125.937 142.406 124.568 142.088 123.767 141.487C122.765 140.736 124.017 143.992 123.767 145.244C123.517 146.496 121.763 145.244 121.263 145.244C120.762 145.244 119.51 147.999 118.758 147.999C118.007 147.999 114.501 148.249 111.746 147.999C108.991 147.748 109.242 146.246 108.24 145.244C107.238 144.242 104.984 142.739 103.983 141.487Z" fill="#D8F0D4" fill-opacity="0.3" stroke="#76D33D" stroke-width="2" stroke-linecap="round"/>
<path d="M62.9113 107.679C61.7092 107.278 58.2365 105.174 56.6504 104.173C55.8991 102.42 62.9113 102.169 64.1635 102.169C65.4156 102.169 66.9182 102.169 67.6695 101.668C68.2706 101.268 69.4226 101.835 69.9235 102.169C70.5913 101.835 72.1774 101.117 73.1791 100.917C74.4313 100.667 74.9322 99.4144 75.6835 98.6631C76.4348 97.9118 78.9391 93.1535 80.1913 92.1518C81.4435 91.1501 85.9513 88.6457 87.2035 87.8944C88.4556 87.1432 89.4574 84.8892 91.7113 83.3865C93.5144 82.1845 91.4609 81.3831 90.2087 81.1326C91.127 80.5483 93.1137 79.2294 93.7148 78.6283C94.4661 77.877 95.4678 76.124 96.9704 76.124C98.1725 76.124 98.473 74.1205 98.473 73.1188C98.9739 72.5345 100.176 71.2155 100.977 70.6145C101.979 69.8633 104.984 66.6075 105.736 66.1066C106.487 65.6057 106.237 64.8545 106.487 63.8527C106.687 63.0512 107.071 62.0162 107.238 61.5989C107.656 61.098 108.591 59.9459 108.991 59.3449C109.492 58.5936 109.743 56.5901 110.494 55.0876C111.245 53.5851 113.75 48.3257 113.75 47.5744C113.75 46.8231 114.25 45.0701 115.503 44.0683C116.755 43.0666 116.003 42.065 116.254 41.564C116.504 41.063 117.005 38.8093 117.005 36.0544C118.007 35.5534 118.007 34.5519 119.259 33.8006C120.511 33.0493 120.762 33.5502 121.763 33.8006C122.765 34.051 121.763 35.8041 121.763 36.5554C121.763 37.3067 123.266 37.8076 123.016 38.8093C122.765 39.8111 122.765 40.8128 121.763 42.065C120.762 43.3171 122.014 44.0684 121.763 45.8215C121.513 47.5745 121.513 48.5763 120.762 49.8284C120.01 51.0806 120.762 51.8319 120.762 55.0876C120.762 57.0911 119.51 55.8389 119.259 57.8424C119.059 59.4452 120.177 61.0145 120.762 61.5989C120.261 62.2667 119.009 63.8528 118.007 64.8545C116.755 66.1067 117.506 66.6075 117.005 67.6093C116.504 68.6112 116.755 68.8614 116.003 70.6145C115.402 72.0171 115.419 70.6981 115.503 69.8632C115.586 69.1954 115.803 67.6092 116.003 66.6075C116.204 65.6058 114.584 66.1901 113.75 66.6075C113.416 67.0249 112.598 68.06 111.997 68.8614C111.395 69.6628 109.743 72.0336 108.991 73.1188L110.494 71.3658H113.75C114.751 71.3658 114.25 72.1171 114.25 73.1188C114.25 74.1205 115.503 75.1223 114.25 76.124C113.249 76.9254 112.831 77.4596 112.748 77.6265C112.414 77.4596 111.496 77.2258 110.494 77.6265C109.242 78.1274 107.99 79.3796 107.238 80.1309C106.637 80.7319 106.988 81.0492 107.238 81.1326V83.3865C106.821 83.7205 105.786 84.4885 104.984 84.8892C103.983 85.39 103.482 86.3918 102.73 87.1431C101.979 87.8944 100.977 87.1431 96.9704 88.6457C95.7183 89.8979 94.7165 89.8979 92.9635 90.8996C91.2104 91.9013 92.2122 93.1535 90.2087 93.1535C89.7078 93.1535 88.9565 92.9031 87.7043 93.1535C86.4522 93.404 86.4522 93.6544 85.9513 95.157C85.4504 96.6596 85.4504 97.1605 84.4487 98.6631C83.4469 100.166 83.1965 101.919 82.4452 103.421C81.6939 104.924 81.193 104.173 80.1913 104.924C79.3899 105.525 77.1861 106.51 76.1843 106.927C75.2661 107.178 73.129 107.679 71.9269 107.679C70.4243 107.679 70.1739 108.681 69.1722 108.681H66.9182C65.9165 108.681 64.4139 108.18 62.9113 107.679Z" fill="#96CDFF"/>
</svg>
