<svg width="121" height="34" viewBox="0 0 121 34" fill="none" xmlns="http://www.w3.org/2000/svg">
<path d="M2.968 3.432H5.908C8.064 3.432 8.092 3.432 8.092 5.532C8.092 7.604 8.092 7.632 5.908 7.632H2.968V3.432ZM1.456 12H2.968V8.976H4.9C8.092 8.976 9.688 8.976 9.688 5.532C9.688 2.088 8.092 2.088 4.9 2.088H1.456V12ZM14.6206 10.824C12.6886 10.824 12.6886 10.824 12.6886 9.06H14.6206C16.6366 9.06 16.9726 9.06 17.7286 8.892L18.0646 8.808V8.136C18.0646 6.792 18.0646 4.776 14.9566 4.776H14.2846C11.1766 4.776 11.1766 6.792 11.1766 8.136V8.808C11.1766 10.32 11.1766 12.168 14.6206 12.168C15.2086 12.168 16.2166 12.168 17.5606 11.832V10.488H17.2246L15.8806 10.824H14.6206ZM12.6886 7.968C12.6886 6.12 12.6886 6.12 14.6206 6.12C16.5526 6.12 16.5526 6.12 16.5526 7.968H12.6886ZM23.2475 12.168C23.7515 12.168 24.8435 12.168 26.1875 11.832V10.488H25.8515L24.4935 10.824H23.7515C21.3155 10.824 21.3155 10.824 21.3155 8.472C21.3155 6.12 21.3155 6.12 23.2475 6.12C24.8435 6.12 24.8435 6.12 25.1795 7.464L26.5235 7.128C26.5235 6.456 26.5235 4.776 23.5835 4.776H22.9115C19.8035 4.776 19.8035 6.624 19.8035 8.136V8.808C19.8035 10.32 19.8035 12.168 23.2475 12.168ZM33.9687 4.944H28.4247V12H29.8527V6.176H33.9687V12H35.3967V4.944H33.9687ZM40.1416 10.488C40.1416 9.984 40.1416 9.984 38.6996 6.204V4.944H37.1876C37.1876 6.414 37.1876 6.414 39.4276 11.664H40.8416L40.3376 13.008C40.0716 13.68 39.9596 13.68 39.1616 13.68H38.0556V15.024H38.7836C39.8756 15.024 40.9676 14.982 41.5976 13.456L43.9216 7.198C44.2436 6.414 44.2436 6.414 44.2436 5.224V4.944H42.7736V6.204C41.4436 10.012 41.4576 10.012 41.4576 10.488H40.1416ZM50.6014 3.768C51.3574 3.586 52.0994 3.39 52.3654 2.34L52.4494 2.004L51.1054 1.668C50.9374 2.172 50.9514 2.172 50.2654 2.34L48.5854 2.76C45.7294 3.474 45.7294 5.364 45.7294 7.548V8.094C45.7294 10.446 45.7294 12.168 49.1734 12.168H49.8454C53.2054 12.168 53.2054 10.488 53.2054 9.228V8.472C53.2054 7.212 53.2054 5.532 50.1814 5.532C48.1654 5.532 47.4934 5.994 47.1854 6.372L46.9334 6.288C47.3534 4.608 47.3534 4.58 48.9214 4.188L50.6014 3.768ZM49.5094 6.778C51.6934 6.778 51.6934 7.086 51.6934 8.85C51.6934 10.614 51.6934 10.922 49.3974 10.922C47.3254 10.922 47.3254 10.614 47.3254 8.85C47.3254 7.086 47.3254 6.778 49.5094 6.778ZM60.5002 6.19V12H61.9282V4.944H56.2302C56.1882 6.4 56.1042 7.604 55.8522 9.424C55.6842 10.642 55.5442 10.88 54.3402 10.88V12.028C56.6082 12.028 56.8462 11.762 57.1262 9.676C57.3362 8.136 57.4342 7.058 57.4622 6.19H60.5002ZM66.2867 12C69.9407 7.142 69.9407 6.89 69.9407 6.148H70.3047V12H71.7327V4.944H69.8007C66.1467 9.802 66.1467 10.054 66.1467 10.796H65.7687V4.944H64.3407V12H66.2867ZM81.2835 5.336V4.944H79.6875C78.6795 6.288 78.0915 7.072 78.0915 7.8H75.5715V4.944H74.1435V12H75.5715V9.144H78.0915C78.0915 9.872 78.6795 10.656 79.6875 12H81.2835V11.608L78.9175 8.472L81.2835 5.336ZM88.9225 12.168L89.9865 11.37C89.4825 10.698 89.4825 10.698 89.4825 9.312V8.136C89.4825 6.456 89.4825 4.776 86.2065 4.776C85.7025 4.776 84.6105 4.776 83.2665 5.112V6.456H83.6025L84.9465 6.12H86.2065C88.0545 6.12 88.0545 6.12 88.0545 7.884H86.2065C82.6785 7.884 82.6785 9.06 82.6785 10.152C82.6785 10.824 82.6785 12.168 85.1985 12.168C86.9345 12.168 87.8725 11.468 88.2085 11.216L88.9225 12.168ZM84.2745 9.984C84.2745 8.976 84.2745 8.976 86.2065 8.976H88.0545V10.32L86.0385 10.824H85.2825C84.2745 10.824 84.2745 10.824 84.2745 9.984ZM2.968 23.008V20.432H8.848V19.088H1.456V29H4.984C8.092 29 9.688 28.93 9.688 26.004C9.688 23.078 8.092 23.008 4.984 23.008H2.968ZM2.968 24.352H5.992C8.064 24.352 8.092 24.352 8.092 26.004C8.092 27.628 8.092 27.656 5.992 27.656H2.968V24.352ZM13.9326 27.488C13.9326 26.984 13.9326 26.984 12.4906 23.204V21.944H10.9786C10.9786 23.414 10.9786 23.414 13.2186 28.664H14.6326L14.1286 30.008C13.8626 30.68 13.7506 30.68 12.9526 30.68H11.8466V32.024H12.5746C13.6666 32.024 14.7586 31.982 15.3886 30.456L17.7126 24.198C18.0346 23.414 18.0346 23.414 18.0346 22.224V21.944H16.5646V23.204C15.2346 27.012 15.2486 27.012 15.2486 27.488H13.9326ZM19.6884 21.944V31.856H21.1164V28.832C21.7884 29 22.4604 29.168 23.7204 29.168C26.9124 29.168 26.9124 26.984 26.9124 25.808V25.136C26.9124 23.792 26.9124 21.776 23.8884 21.776C22.2084 21.776 21.2844 22.476 20.9484 22.728L20.3604 21.944H19.6884ZM25.4004 25.472C25.4004 27.81 25.4004 27.824 23.1324 27.824C22.6284 27.824 21.7884 27.824 21.1164 27.656V23.624L23.1324 23.12H23.3704C25.4004 23.12 25.4004 23.204 25.4004 25.472ZM35.3693 29V21.944H32.3453C30.2453 21.944 28.5653 21.944 28.5653 24.212C28.5653 25.444 28.9853 25.766 30.1613 26.648L28.6913 28.608V29H30.2873C30.7913 28.356 31.3373 27.684 31.3373 26.648H33.9413V29H35.3693ZM31.7573 25.472C30.1753 25.472 30.1613 25.472 30.1613 24.296C30.1613 23.134 30.1613 23.12 31.7573 23.12H33.9413V25.472H31.7573ZM44.1183 21.944H37.0623V23.176H39.8483V29H41.3323V23.176H44.1183V21.944ZM47.7613 29C51.4153 24.142 51.4153 23.89 51.4153 23.148H51.7793V29H53.2073V21.944H51.2753C47.6213 26.802 47.6213 27.054 47.6213 27.796H47.2433V21.944H45.8153V29H47.7613ZM62.0021 29V21.944H58.9781C56.8781 21.944 55.1981 21.944 55.1981 24.212C55.1981 25.444 55.6181 25.766 56.7941 26.648L55.3241 28.608V29H56.9201C57.4241 28.356 57.9701 27.684 57.9701 26.648H60.5741V29H62.0021ZM58.3901 25.472C56.8081 25.472 56.7941 25.472 56.7941 24.296C56.7941 23.134 56.7941 23.12 58.3901 23.12H60.5741V25.472H58.3901Z" fill="#363636"/>
</svg>
