<svg width="209" height="145" viewBox="0 0 209 145" fill="none" xmlns="http://www.w3.org/2000/svg">
<path d="M114.672 2.088V7.128L112.656 7.632H112.068C109.548 7.632 109.548 7.632 109.548 5.112V2.088H108.036V5.112C108.036 7.128 108.036 9.144 111.228 9.144C112.32 9.144 113.328 8.892 114.672 8.556V12H116.184V2.088H114.672ZM120.787 12C124.441 7.142 124.441 6.89 124.441 6.148H124.805V12H126.233V4.944H124.301C120.647 9.802 120.647 10.054 120.647 10.796H120.269V4.944H118.841V12H120.787ZM134.985 4.944H127.929V6.176H130.715V12H132.199V6.176H134.985V4.944ZM138.629 12C142.283 7.142 142.283 6.89 142.283 6.148H142.647V12H144.075V4.944H142.143C138.489 9.802 138.489 10.054 138.489 10.796H138.111V4.944H136.683V12H138.629ZM152.029 4.944V7.786H147.913V4.944H146.485V12H147.913V9.018H152.029V12H153.457V4.944H152.029ZM158.972 12.168C159.476 12.168 160.568 12.168 161.912 11.832V10.488H161.576L160.218 10.824H159.476C157.04 10.824 157.04 10.824 157.04 8.472C157.04 6.12 157.04 6.12 158.972 6.12C160.568 6.12 160.568 6.12 160.904 7.464L162.248 7.128C162.248 6.456 162.248 4.776 159.308 4.776H158.636C155.528 4.776 155.528 6.624 155.528 8.136V8.808C155.528 10.32 155.528 12.168 158.972 12.168ZM171.289 5.336V4.944H169.693C168.685 6.288 168.097 7.072 168.097 7.8H165.577V4.944H164.149V12H165.577V9.144H168.097C168.097 9.872 168.685 10.656 169.693 12H171.289V11.608L168.923 8.472L171.289 5.336ZM178.928 12.168L179.992 11.37C179.488 10.698 179.488 10.698 179.488 9.312V8.136C179.488 6.456 179.488 4.776 176.212 4.776C175.708 4.776 174.616 4.776 173.272 5.112V6.456H173.608L174.952 6.12H176.212C178.06 6.12 178.06 6.12 178.06 7.884H176.212C172.684 7.884 172.684 9.06 172.684 10.152C172.684 10.824 172.684 12.168 175.204 12.168C176.94 12.168 177.878 11.468 178.214 11.216L178.928 12.168ZM174.28 9.984C174.28 8.976 174.28 8.976 176.212 8.976H178.06V10.32L176.044 10.824H175.288C174.28 10.824 174.28 10.824 174.28 9.984ZM188.197 12V4.944H185.173C183.073 4.944 181.393 4.944 181.393 7.212C181.393 8.444 181.813 8.766 182.989 9.648L181.519 11.608V12H183.115C183.619 11.356 184.165 10.684 184.165 9.648H186.769V12H188.197ZM184.585 8.472C183.003 8.472 182.989 8.472 182.989 7.296C182.989 6.134 182.989 6.12 184.585 6.12H186.769V8.472H184.585ZM109.38 25.472C109.38 23.12 109.38 23.05 111.564 23.05C113.748 23.05 113.748 23.12 113.748 25.472C113.748 27.824 113.748 27.894 111.564 27.894C109.38 27.894 109.38 27.824 109.38 25.472ZM107.868 25.808C107.868 27.152 107.868 29.168 111.228 29.168H111.9C115.26 29.168 115.26 27.152 115.26 25.808V25.136C115.26 23.792 115.26 21.776 111.9 21.776H111.228C107.868 21.776 107.868 23.792 107.868 25.136V25.808ZM122.041 20.768C122.797 20.586 123.539 20.39 123.805 19.34L123.889 19.004L122.545 18.668C122.377 19.172 122.391 19.172 121.705 19.34L120.025 19.76C117.169 20.474 117.169 22.364 117.169 24.548V25.094C117.169 27.446 117.169 29.168 120.613 29.168H121.285C124.645 29.168 124.645 27.488 124.645 26.228V25.472C124.645 24.212 124.645 22.532 121.621 22.532C119.605 22.532 118.933 22.994 118.625 23.372L118.373 23.288C118.793 21.608 118.793 21.58 120.361 21.188L122.041 20.768ZM120.949 23.778C123.133 23.778 123.133 24.086 123.133 25.85C123.133 27.614 123.133 27.922 120.837 27.922C118.765 27.922 118.765 27.614 118.765 25.85C118.765 24.086 118.765 23.778 120.949 23.778ZM131.94 23.19V29H133.368V21.944H127.67C127.628 23.4 127.544 24.604 127.292 26.424C127.124 27.642 126.984 27.88 125.78 27.88V29.028C128.048 29.028 128.286 28.762 128.566 26.676C128.776 25.136 128.874 24.058 128.902 23.19H131.94ZM141.604 29.168L142.668 28.37C142.164 27.698 142.164 27.698 142.164 26.312V25.136C142.164 23.456 142.164 21.776 138.888 21.776C138.384 21.776 137.292 21.776 135.948 22.112V23.456H136.284L137.628 23.12H138.888C140.736 23.12 140.736 23.12 140.736 24.884H138.888C135.36 24.884 135.36 26.06 135.36 27.152C135.36 27.824 135.36 29.168 137.88 29.168C139.616 29.168 140.554 28.468 140.89 28.216L141.604 29.168ZM136.956 26.984C136.956 25.976 136.956 25.976 138.888 25.976H140.736V27.32L138.72 27.824H137.964C136.956 27.824 136.956 27.824 136.956 26.984ZM147.597 29.168C148.101 29.168 149.193 29.168 150.537 28.832V27.488H150.201L148.843 27.824H148.101C145.665 27.824 145.665 27.824 145.665 25.472C145.665 23.12 145.665 23.12 147.597 23.12C149.193 23.12 149.193 23.12 149.529 24.464L150.873 24.128C150.873 23.456 150.873 21.776 147.933 21.776H147.261C144.153 21.776 144.153 23.624 144.153 25.136V25.808C144.153 27.32 144.153 29.168 147.597 29.168ZM159.116 21.944H152.06V23.176H154.846V29H156.33V23.176H159.116V21.944ZM164.173 29C165.853 29 167.365 29 167.365 26.648C167.365 25.808 167.365 24.128 164.341 24.128C163.669 24.128 162.913 24.212 162.241 24.38V21.944H160.813V29H164.173ZM164.341 25.472C165.853 25.472 165.853 25.472 165.853 26.648C165.853 27.824 165.853 27.824 164.341 27.824H162.241V25.472H164.341Z" fill="#363636"/>
<path d="M47.4332 58.4562C47.4332 57.7842 47.4332 57.7842 45.2072 52.9962H43.7232V53.5002L46.6632 59.6742H48.6512L48.1612 60.7242C47.7692 61.5642 47.5872 61.5642 46.5792 61.5642H45.3052V62.9082H46.2432C48.0212 62.9082 48.8052 62.9082 49.6732 60.8922L52.8512 53.5002V52.9962H51.4092C49.3932 57.7842 49.3932 57.7842 49.4212 58.4562H47.4332ZM58.9033 57.0982V62.9082H60.3313V55.8522H54.6333C54.5913 57.3082 54.5073 58.5122 54.2553 60.3322C54.0873 61.5502 53.9473 61.7882 52.7433 61.7882V62.9362C55.0113 62.9362 55.2493 62.6702 55.5293 60.5842C55.7393 59.0442 55.8373 57.9662 55.8653 57.0982H58.9033ZM68.5678 63.0762L69.6318 62.2782C69.1278 61.6062 69.1278 61.6062 69.1278 60.2202V59.0442C69.1278 57.3642 69.1278 55.6842 65.8518 55.6842C65.3478 55.6842 64.2558 55.6842 62.9118 56.0202V57.3642H63.2478L64.5918 57.0282H65.8518C67.6998 57.0282 67.6998 57.0282 67.6998 58.7922H65.8518C62.3238 58.7922 62.3238 59.9682 62.3238 61.0602C62.3238 61.7322 62.3238 63.0762 64.8438 63.0762C66.5798 63.0762 67.5178 62.3762 67.8538 62.1242L68.5678 63.0762ZM63.9198 60.8922C63.9198 59.8842 63.9198 59.8842 65.8518 59.8842H67.6998V61.2282L65.6838 61.7322H64.9278C63.9198 61.7322 63.9198 61.7322 63.9198 60.8922ZM76.9968 55.8522V58.6942H72.8808V55.8522H71.4528V62.9082H72.8808V59.9262H76.9968V62.9082H78.4248V55.8522H76.9968ZM79.9077 58.2882V59.5482H84.1077V58.2882H79.9077ZM88.2437 58.4562C88.2437 57.7842 88.2437 57.7842 86.0177 52.9962H84.5337V53.5002L87.4737 59.6742H89.4617L88.9717 60.7242C88.5797 61.5642 88.3977 61.5642 87.3897 61.5642H86.1157V62.9082H87.0537C88.8317 62.9082 89.6157 62.9082 90.4837 60.8922L93.6617 53.5002V52.9962H92.2197C90.2037 57.7842 90.2037 57.7842 90.2317 58.4562H88.2437ZM94.9018 62.9082H101.048V64.9242H102.42V61.7322H101.244V55.8522H95.5038V56.6922C95.5038 58.3582 95.3218 60.1362 94.4958 61.7322H93.5298V64.9242H94.9018V62.9082ZM96.8758 57.0842H99.8158V61.7322H96.0358C96.7078 60.1222 96.8758 58.4142 96.8758 57.0842ZM110.079 59.0442C110.079 57.5322 110.079 55.6842 106.803 55.6842H106.551C106.047 55.6842 105.039 55.6842 103.695 56.0202V57.3642H104.031L105.375 57.0282H106.635C108.567 57.0282 108.567 57.0282 108.567 58.7922H105.375V59.9682H108.567C108.567 61.7322 108.567 61.7322 106.635 61.7322H105.375L104.031 61.3962H103.695V62.7402C105.039 63.0762 106.047 63.0762 106.551 63.0762H106.803C110.079 63.0762 110.079 61.2282 110.079 59.7162V59.0442Z" fill="#363636"/>
<path d="M3.62718 40.0412V31.9772H2.11518V41.8892H3.93518L8.09318 35.8132C8.79318 34.7912 8.84918 34.3012 8.84918 33.8252H9.28318V41.8892H10.7952V31.9772H8.97518L4.64918 38.3472C4.08918 39.1732 4.06118 39.6072 4.06118 40.0412H3.62718ZM13.4569 34.8332V44.7452H14.8849V41.7212C15.5569 41.8892 16.2289 42.0572 17.4889 42.0572C20.6809 42.0572 20.6809 39.8732 20.6809 38.6972V38.0252C20.6809 36.6812 20.6809 34.6652 17.6569 34.6652C15.9769 34.6652 15.0529 35.3652 14.7169 35.6172L14.1289 34.8332H13.4569ZM19.1689 38.3612C19.1689 40.6992 19.1689 40.7132 16.9009 40.7132C16.3969 40.7132 15.5569 40.7132 14.8849 40.5452V36.5132L16.9009 36.0092H17.1389C19.1689 36.0092 19.1689 36.0932 19.1689 38.3612ZM29.8938 35.2252V34.8332H28.2978C27.2898 36.1772 26.7018 36.9612 26.7018 37.6892H24.1818V34.8332H22.7538V41.8892H24.1818V39.0332H26.7018C26.7018 39.7612 27.2898 40.5452 28.2978 41.8892H29.8938V41.4972L27.5278 38.3612L29.8938 35.2252ZM34.0469 40.3772C34.0469 39.8732 34.0469 39.8732 32.6049 36.0932V34.8332H31.0929C31.0929 36.3032 31.0929 36.3032 33.3329 41.5532H34.7469L34.2429 42.8972C33.9769 43.5692 33.8649 43.5692 33.0669 43.5692H31.9609V44.9132H32.6889C33.7809 44.9132 34.8729 44.8712 35.5029 43.3452L37.8269 37.0872C38.1489 36.3032 38.1489 36.3032 38.1489 35.1132V34.8332H36.6789V36.0932C35.3489 39.9012 35.3629 39.9012 35.3629 40.3772H34.0469ZM46.1446 34.8332H39.0886V36.0652H41.8746V41.8892H43.3586V36.0652H46.1446V34.8332ZM50.9497 42.0572C51.4537 42.0572 52.5457 42.0572 53.8897 41.7212V40.3772H53.5537L52.1957 40.7132H51.4537C49.0177 40.7132 49.0177 40.7132 49.0177 38.3612C49.0177 36.0092 49.0177 36.0092 50.9497 36.0092C52.5457 36.0092 52.5457 36.0092 52.8817 37.3532L54.2257 37.0172C54.2257 36.3452 54.2257 34.6652 51.2857 34.6652H50.6137C47.5057 34.6652 47.5057 36.5132 47.5057 38.0252V38.6972C47.5057 40.2092 47.5057 42.0572 50.9497 42.0572ZM63.2669 35.2252V34.8332H61.6709C60.6629 36.1772 60.0749 36.9612 60.0749 37.6892H57.5549V34.8332H56.1269V41.8892H57.5549V39.0332H60.0749C60.0749 39.7612 60.6629 40.5452 61.6709 41.8892H63.2669V41.4972L60.9009 38.3612L63.2669 35.2252Z" fill="#363636"/>
<path d="M9.13695 130.473H12.0769C14.2329 130.473 14.2609 130.473 14.2609 132.573C14.2609 134.645 14.2609 134.673 12.0769 134.673H9.13695V130.473ZM7.62495 139.041H9.13695V136.017H11.0689C14.2609 136.017 15.8569 136.017 15.8569 132.573C15.8569 129.129 14.2609 129.129 11.0689 129.129H7.62495V139.041ZM20.7895 137.865C18.8575 137.865 18.8575 137.865 18.8575 136.101H20.7895C22.8055 136.101 23.1415 136.101 23.8975 135.933L24.2335 135.849V135.177C24.2335 133.833 24.2335 131.817 21.1255 131.817H20.4535C17.3455 131.817 17.3455 133.833 17.3455 135.177V135.849C17.3455 137.361 17.3455 139.209 20.7895 139.209C21.3775 139.209 22.3855 139.209 23.7295 138.873V137.529H23.3935L22.0495 137.865H20.7895ZM18.8575 135.009C18.8575 133.161 18.8575 133.161 20.7895 133.161C22.7215 133.161 22.7215 133.161 22.7215 135.009H18.8575ZM29.4165 139.209C29.9205 139.209 31.0125 139.209 32.3565 138.873V137.529H32.0205L30.6625 137.865H29.9205C27.4845 137.865 27.4845 137.865 27.4845 135.513C27.4845 133.161 27.4845 133.161 29.4165 133.161C31.0125 133.161 31.0125 133.161 31.3485 134.505L32.6925 134.169C32.6925 133.497 32.6925 131.817 29.7525 131.817H29.0805C25.9725 131.817 25.9725 133.665 25.9725 135.177V135.849C25.9725 137.361 25.9725 139.209 29.4165 139.209ZM40.1376 131.985H34.5936V139.041H36.0216V133.217H40.1376V139.041H41.5656V131.985H40.1376ZM46.3106 137.529C46.3106 137.025 46.3106 137.025 44.8686 133.245V131.985H43.3566C43.3566 133.455 43.3566 133.455 45.5966 138.705H47.0106L46.5066 140.049C46.2406 140.721 46.1286 140.721 45.3306 140.721H44.2246V142.065H44.9526C46.0446 142.065 47.1366 142.023 47.7666 140.497L50.0906 134.239C50.4126 133.455 50.4126 133.455 50.4126 132.265V131.985H48.9426V133.245C47.6126 137.053 47.6266 137.053 47.6266 137.529H46.3106ZM56.7703 130.809C57.5263 130.627 58.2683 130.431 58.5343 129.381L58.6183 129.045L57.2743 128.709C57.1063 129.213 57.1203 129.213 56.4343 129.381L54.7543 129.801C51.8983 130.515 51.8983 132.405 51.8983 134.589V135.135C51.8983 137.487 51.8983 139.209 55.3423 139.209H56.0143C59.3743 139.209 59.3743 137.529 59.3743 136.269V135.513C59.3743 134.253 59.3743 132.573 56.3503 132.573C54.3343 132.573 53.6623 133.035 53.3543 133.413L53.1023 133.329C53.5223 131.649 53.5223 131.621 55.0903 131.229L56.7703 130.809ZM55.6783 133.819C57.8623 133.819 57.8623 134.127 57.8623 135.891C57.8623 137.655 57.8623 137.963 55.5663 137.963C53.4943 137.963 53.4943 137.655 53.4943 135.891C53.4943 134.127 53.4943 133.819 55.6783 133.819ZM66.6692 133.231V139.041H68.0972V131.985H62.3992C62.3572 133.441 62.2732 134.645 62.0212 136.465C61.8532 137.683 61.7132 137.921 60.5092 137.921V139.069C62.7772 139.069 63.0152 138.803 63.2952 136.717C63.5052 135.177 63.6032 134.099 63.6312 133.231H66.6692ZM72.4557 139.041C76.1097 134.183 76.1097 133.931 76.1097 133.189H76.4737V139.041H77.9017V131.985H75.9697C72.3157 136.843 72.3157 137.095 72.3157 137.837H71.9377V131.985H70.5097V139.041H72.4557ZM87.4524 132.377V131.985H85.8564C84.8484 133.329 84.2604 134.113 84.2604 134.841H81.7404V131.985H80.3124V139.041H81.7404V136.185H84.2604C84.2604 136.913 84.8484 137.697 85.8564 139.041H87.4524V138.649L85.0864 135.513L87.4524 132.377ZM95.0915 139.209L96.1555 138.411C95.6515 137.739 95.6515 137.739 95.6515 136.353V135.177C95.6515 133.497 95.6515 131.817 92.3755 131.817C91.8715 131.817 90.7795 131.817 89.4355 132.153V133.497H89.7715L91.1155 133.161H92.3755C94.2235 133.161 94.2235 133.161 94.2235 134.925H92.3755C88.8475 134.925 88.8475 136.101 88.8475 137.193C88.8475 137.865 88.8475 139.209 91.3675 139.209C93.1035 139.209 94.0415 138.509 94.3775 138.257L95.0915 139.209ZM90.4435 137.025C90.4435 136.017 90.4435 136.017 92.3755 136.017H94.2235V137.361L92.2075 137.865H91.4515C90.4435 137.865 90.4435 137.865 90.4435 137.025ZM102.289 129.129V139.041H103.801V130.473H104.249C104.249 131.201 104.249 131.201 107.189 139.041H109.065C112.005 131.201 112.005 131.201 112.005 130.473H112.453V139.041H113.965V129.129H111.207C108.309 136.857 108.309 136.857 108.309 137.697H107.945C107.945 136.857 107.945 136.857 105.047 129.129H102.289ZM117.801 135.513C117.801 133.161 117.801 133.091 119.985 133.091C122.169 133.091 122.169 133.161 122.169 135.513C122.169 137.865 122.169 137.935 119.985 137.935C117.801 137.935 117.801 137.865 117.801 135.513ZM116.289 135.849C116.289 137.193 116.289 139.209 119.649 139.209H120.321C123.681 139.209 123.681 137.193 123.681 135.849V135.177C123.681 133.833 123.681 131.817 120.321 131.817H119.649C116.289 131.817 116.289 133.833 116.289 135.177V135.849ZM131.302 131.985V134.827H127.186V131.985H125.758V139.041H127.186V136.059H131.302V139.041H132.73V131.985H131.302ZM140.821 131.985H135.137V139.041H136.565V133.217H140.821V131.985ZM143.545 135.513C143.545 133.161 143.545 133.091 145.729 133.091C147.913 133.091 147.913 133.161 147.913 135.513C147.913 137.865 147.913 137.935 145.729 137.935C143.545 137.935 143.545 137.865 143.545 135.513ZM142.033 135.849C142.033 137.193 142.033 139.209 145.393 139.209H146.065C149.425 139.209 149.425 137.193 149.425 135.849V135.177C149.425 133.833 149.425 131.817 146.065 131.817H145.393C142.033 131.817 142.033 133.833 142.033 135.177V135.849ZM156.808 133.231V139.041H158.236V131.985H152.538C152.496 133.441 152.412 134.645 152.16 136.465C151.992 137.683 151.852 137.921 150.648 137.921V139.069C152.916 139.069 153.154 138.803 153.434 136.717C153.644 135.177 153.742 134.099 153.77 133.231H156.808ZM162.594 139.041C166.248 134.183 166.248 133.931 166.248 133.189H166.612V139.041H168.04V131.985H166.108C162.454 136.843 162.454 137.095 162.454 137.837H162.076V131.985H160.648V139.041H162.594ZM176.835 139.041V131.985H173.811C171.711 131.985 170.031 131.985 170.031 134.253C170.031 135.485 170.451 135.807 171.627 136.689L170.157 138.649V139.041H171.753C172.257 138.397 172.803 137.725 172.803 136.689H175.407V139.041H176.835ZM173.223 135.513C171.641 135.513 171.627 135.513 171.627 134.337C171.627 133.175 171.627 133.161 173.223 133.161H175.407V135.513H173.223Z" fill="#363636"/>
<path d="M21.5714 13.8187C21.5714 11.4667 21.5714 11.3967 23.7554 11.3967C25.9394 11.3967 25.9394 11.4667 25.9394 13.8187C25.9394 16.1707 25.9394 16.2407 23.7554 16.2407C21.5714 16.2407 21.5714 16.1707 21.5714 13.8187ZM20.0594 14.1547C20.0594 15.4987 20.0594 17.5147 23.4194 17.5147H24.0914C27.4514 17.5147 27.4514 15.4987 27.4514 14.1547V13.4827C27.4514 12.1387 27.4514 10.1227 24.0914 10.1227H23.4194C20.0594 10.1227 20.0594 12.1387 20.0594 13.4827V14.1547ZM30.7882 16.1707L29.4442 15.8347H29.1082V17.1787C30.4522 17.5147 31.5302 17.5147 32.0342 17.5147C35.2122 17.5147 35.3662 16.1707 35.3662 15.4987C35.3662 15.1627 35.3662 14.2387 34.0222 13.9027V13.7347C35.3662 13.3987 35.3662 12.4747 35.3662 12.1387C35.3662 11.4667 35.2262 10.1227 32.0342 10.1227C31.5302 10.1227 30.4522 10.1227 29.1082 10.4587V11.8027H29.4442L30.7882 11.4667H32.5102C33.7702 11.4667 33.7702 11.4667 33.7702 12.3627C33.7702 13.2307 33.7702 13.2307 32.5102 13.2307H30.7882V14.4067H32.5102C33.7702 14.4067 33.7702 14.4067 33.7702 15.2747C33.7702 16.1707 33.7702 16.1707 32.5102 16.1707H30.7882ZM38.1729 15.3307C37.3329 15.3307 37.3329 15.8347 37.3329 16.1707V16.5067C37.3329 16.8427 37.3329 17.3467 38.1729 17.3467H38.8449C39.6849 17.3467 39.6849 16.8427 39.6849 16.5067V16.1707C39.6849 15.8347 39.6849 15.3307 38.8449 15.3307H38.1729ZM47.9993 11.3547V8.77868H53.8793V7.43468H46.4873V17.3467H50.0153C53.1233 17.3467 54.7193 17.2767 54.7193 14.3507C54.7193 11.4247 53.1233 11.3547 50.0153 11.3547H47.9993ZM47.9993 12.6987H51.0233C53.0953 12.6987 53.1233 12.6987 53.1233 14.3507C53.1233 15.9747 53.1233 16.0027 51.0233 16.0027H47.9993V12.6987ZM62.4499 17.5147L63.5139 16.7167C63.0099 16.0447 63.0099 16.0447 63.0099 14.6587V13.4827C63.0099 11.8027 63.0099 10.1227 59.7339 10.1227C59.2299 10.1227 58.1379 10.1227 56.7939 10.4587V11.8027H57.1299L58.4739 11.4667H59.7339C61.5819 11.4667 61.5819 11.4667 61.5819 13.2307H59.7339C56.2059 13.2307 56.2059 14.4067 56.2059 15.4987C56.2059 16.1707 56.2059 17.5147 58.7259 17.5147C60.4619 17.5147 61.3999 16.8147 61.7359 16.5627L62.4499 17.5147ZM57.8019 15.3307C57.8019 14.3227 57.8019 14.3227 59.7339 14.3227H61.5819V15.6667L59.5659 16.1707H58.8099C57.8019 16.1707 57.8019 16.1707 57.8019 15.3307ZM69.4929 9.22668C70.4449 9.22668 71.1169 9.22668 71.9989 8.19068L70.9909 7.43468C70.5429 8.05068 70.5289 8.05068 69.7589 8.05068H68.4429C67.6869 8.05068 67.6729 8.05068 67.2109 7.43468L66.2029 8.19068C67.0849 9.22668 67.7569 9.22668 68.7089 9.22668H69.4929ZM67.2809 17.3467C70.9349 12.4887 70.9349 12.2367 70.9349 11.4947H71.2989V17.3467H72.7269V10.2907H70.7949C67.1409 15.1487 67.1409 15.4007 67.1409 16.1427H66.7629V10.2907H65.3349V17.3467H67.2809ZM82.2776 10.6827V10.2907H80.6816C79.6736 11.6347 79.0856 12.4187 79.0856 13.1467H76.5656V10.2907H75.1376V17.3467H76.5656V14.4907H79.0856C79.0856 15.2187 79.6736 16.0027 80.6816 17.3467H82.2776V16.9547L79.9116 13.8187L82.2776 10.6827ZM89.9167 17.5147L90.9807 16.7167C90.4767 16.0447 90.4767 16.0447 90.4767 14.6587V13.4827C90.4767 11.8027 90.4767 10.1227 87.2007 10.1227C86.6967 10.1227 85.6047 10.1227 84.2607 10.4587V11.8027H84.5967L85.9407 11.4667H87.2007C89.0487 11.4667 89.0487 11.4667 89.0487 13.2307H87.2007C83.6727 13.2307 83.6727 14.4067 83.6727 15.4987C83.6727 16.1707 83.6727 17.5147 86.1927 17.5147C87.9287 17.5147 88.8667 16.8147 89.2027 16.5627L89.9167 17.5147ZM85.2687 15.3307C85.2687 14.3227 85.2687 14.3227 87.2007 14.3227H89.0487V15.6667L87.0327 16.1707H86.2767C85.2687 16.1707 85.2687 16.1707 85.2687 15.3307ZM98.1077 11.5367V17.3467H99.5357V10.2907H93.8377C93.7957 11.7467 93.7117 12.9507 93.4597 14.7707C93.2917 15.9887 93.1517 16.2267 91.9477 16.2267V17.3747C94.2157 17.3747 94.4537 17.1087 94.7337 15.0227C94.9437 13.4827 95.0417 12.4047 95.0697 11.5367H98.1077Z" fill="#4560EA"/>
</svg>
