<svg width="283" height="308" viewBox="0 0 283 308" fill="none" xmlns="http://www.w3.org/2000/svg">
<path d="M132.482 255.98C132.081 254.176 130.478 253.893 129.727 253.976L102.68 222.422L141.998 177.594L137.741 129.761L220.134 95.2007L236.663 99.7085V103.215C236.746 104.55 236.863 107.322 236.663 107.722C236.462 108.123 237.581 108.557 238.165 108.724C238.082 109.309 238.065 110.828 238.666 112.23C239.267 113.633 239.417 111.646 239.417 110.477H241.671C241.755 111.312 242.072 113.232 242.673 114.234C243.424 115.486 244.176 116.237 244.176 117.239C244.176 118.241 244.176 119.743 245.678 120.745C247.181 121.747 246.179 122.999 245.678 123.5C245.278 123.901 246.68 125.169 247.431 125.754C247.348 126.422 247.331 127.807 247.932 128.008C248.684 128.258 252.44 129.26 253.191 129.761C253.792 130.161 254.944 131.263 255.445 131.764C254.944 132.015 253.642 132.616 252.44 133.016C250.937 133.517 251.939 134.769 252.44 137.023C252.941 139.277 253.442 139.277 253.943 138.275C254.343 137.474 255.111 138.609 255.445 139.277C255.779 138.693 256.497 137.424 256.697 137.023C256.948 136.522 258.951 135.521 260.204 134.769C261.205 134.168 262.29 134.519 262.708 134.769C263.71 135.437 265.713 137.524 265.713 140.529C265.713 143.535 266.548 143.451 266.965 143.034C267.633 142.366 269.219 140.93 270.221 140.529C271.223 140.129 271.974 141.197 272.224 141.782C272.475 142.867 272.976 145.187 272.976 145.788C272.976 146.39 273.477 147.041 273.727 147.291V149.795C273.727 150.547 273.727 151.548 272.976 153.302C272.375 154.704 272.725 155.555 272.976 155.806C273.226 155.388 273.927 154.654 274.729 155.054C275.731 155.555 274.729 156.557 274.729 157.308C274.729 158.06 276.231 158.06 277.233 159.312C278.235 160.564 277.984 161.315 276.231 161.315C274.478 161.315 275.23 161.566 274.729 161.315C274.228 161.065 272.976 161.315 272.976 162.067C272.976 162.818 274.478 164.07 274.729 165.322C274.979 166.574 273.727 166.574 273.727 167.827C273.727 169.079 275.48 169.329 276.231 169.329C276.983 169.329 277.734 170.581 277.984 171.583C278.235 172.585 278.485 174.588 278.736 175.34C278.936 175.941 280.656 177.093 281.491 177.594C281.073 178.011 280.038 178.846 279.237 178.846C278.235 178.846 273.727 182.101 272.976 182.352C272.224 182.602 268.969 182.352 267.967 182.853C266.965 183.354 267.967 184.606 266.965 185.608C265.964 186.609 265.713 188.112 264.211 189.114C263.008 189.915 262.708 191.785 262.708 192.62V195.374H265.713C266.381 195.458 267.967 195.775 268.969 196.376C270.221 197.128 268.969 199.381 268.969 200.133C268.969 200.884 270.471 201.385 270.972 203.138C271.473 204.891 269.971 207.896 268.969 208.898C267.967 209.9 265.713 214.658 265.713 215.91C265.713 217.162 263.459 222.672 262.708 224.174C261.957 225.677 261.456 226.178 261.456 228.682C261.456 231.187 261.456 232.439 258.951 234.192C256.447 235.945 260.454 237.448 261.456 239.952C262.457 242.456 260.454 243.959 258.951 244.961C257.749 245.762 256.113 246.797 255.445 247.214C254.444 247.882 252.14 249.518 250.937 250.721C249.435 252.223 249.184 253.976 246.43 255.98C243.675 257.983 239.918 255.98 237.664 253.976C235.41 251.973 232.656 251.472 230.903 250.721C229.15 249.969 227.897 249.218 225.894 249.218C223.89 249.218 222.889 253.976 221.136 253.976C219.383 253.976 215.877 251.472 212.37 249.218C208.864 246.964 209.115 247.966 206.861 247.214C204.607 246.463 203.605 249.218 202.353 249.218C201.101 249.218 196.843 253.976 195.09 253.976C193.337 253.976 192.837 258.484 188.078 261.239H185.824C184.823 261.907 182.469 263.543 181.066 264.745C179.313 266.248 177.56 264.745 175.056 264.745H173.052L170.548 266.748C169.379 267.5 166.791 269.002 165.79 269.002C164.788 269.002 162.2 267.5 161.031 266.748L157.776 269.002C156.941 268.251 154.42 267.199 151.014 269.002C149.511 269.253 149.01 268.001 147.257 266.748C145.855 265.747 145.337 266.331 145.254 266.748H141.998C140.996 266.414 138.743 265.546 137.741 264.745C136.489 263.743 136.238 262.992 134.736 261.239C133.269 259.528 132.995 258.294 132.517 256.141L132.482 255.98Z" fill="#F2F4F7" stroke="#CBCDD5"/>
<path d="M45.0799 193.371C46.282 193.371 47.5843 192.035 48.0852 191.367L54.346 207.145L79.8904 234.442H95.1669L104.433 222.421L140.746 183.854L196.593 135.52L208.614 126.505C209.783 126.922 212.32 127.907 213.122 128.508C214.124 129.26 214.124 128.508 216.127 128.508C218.13 128.508 217.63 128.759 218.631 128.508C219.433 128.308 220.301 127.089 220.635 126.505C220.802 126.004 221.386 124.902 222.388 124.501C223.64 124 222.638 126.004 224.141 126.505C225.644 127.006 224.892 126.004 225.393 125.002C225.894 124 225.393 121.997 225.393 121.496C225.393 120.995 225.894 119.994 225.894 118.741C225.894 117.489 225.894 117.489 225.393 117.74C224.892 117.99 224.141 118.491 223.39 118.741C222.638 118.992 222.638 117.489 222.638 116.237C222.638 114.985 221.136 113.733 221.136 112.981C221.136 112.23 220.134 112.48 219.383 112.23C218.631 111.98 218.631 111.228 219.383 108.974C220.134 108.724 221.136 106.971 220.635 105.218C220.134 103.465 221.887 103.465 221.136 101.461C220.134 100.96 221.136 99.7083 221.136 98.957C221.136 98.2057 222.638 98.957 224.141 98.957C225.644 98.957 225.393 98.4561 228.649 98.957C230.402 99.7083 230.402 100.71 233.407 99.7083C233.808 98.9069 235.577 99.3744 236.412 99.7083C235.995 98.6231 235.11 96.3024 234.91 95.7013C234.659 94.95 234.91 94.4492 233.908 94.4492C232.906 94.4492 232.405 94.4492 231.153 93.197C229.901 91.9448 231.153 90.1917 231.153 88.6892V86.4352C231.153 85.684 229.65 85.4335 229.65 84.4318C229.65 83.43 229.4 83.6805 229.65 82.9292C229.901 82.1778 230.652 80.6752 230.402 79.4231C230.151 78.1709 228.398 78.6718 226.896 78.6718C225.393 78.6718 225.894 77.9205 225.894 77.1692C225.894 76.4178 223.39 76.6683 222.638 77.1692C221.887 77.67 221.887 79.4231 221.136 79.4231C220.384 79.4231 220.134 78.4213 219.383 78.6718C218.631 78.9222 218.381 79.4231 217.63 79.4231H215.125C214.374 79.4231 214.124 75.917 214.124 75.1657C214.124 74.5646 213.456 73.5796 213.122 73.1622V70.157C213.122 69.4057 210.868 68.4039 210.367 67.6526C209.866 66.9012 207.612 65.1483 207.111 65.1483H204.607C203.355 65.1483 202.604 64.397 201.602 63.6457C200.6 62.8944 199.097 63.3952 198.597 63.6457C198.096 63.8961 196.844 63.8961 195.341 65.8996C195.09 66.6509 194.84 67.6526 194.339 68.4039C193.838 69.1553 192.837 69.4057 191.584 70.157C190.332 70.9083 191.835 73.9135 190.583 73.9135C189.33 73.9135 188.83 76.9187 186.826 79.4231C186.075 80.6752 185.073 80.4248 184.322 81.4265C183.57 82.4283 184.071 83.9309 183.32 84.4318C182.569 84.9326 181.817 87.1865 182.068 87.1865C182.318 87.1865 181.567 88.6892 177.81 90.1917C175.807 90.1917 176.809 91.6944 176.308 92.1952C175.807 92.6961 175.807 93.6979 175.557 94.4492C175.306 95.2005 174.805 95.4509 174.054 95.7013C173.303 95.9518 173.052 93.6979 173.052 92.1952C173.052 90.6926 174.054 90.1917 174.805 90.1917C175.557 90.1917 175.056 88.1885 174.805 87.1867L174.805 87.1865C174.555 86.1847 173.553 88.1883 173.052 88.1883C172.652 88.1883 172.217 87.0196 172.05 86.4352C171.633 85.7674 170.648 84.6321 170.047 85.4335C169.296 86.4353 169.546 86.6857 167.793 88.1883C166.791 88.1883 166.541 88.6892 165.79 90.1917C165.038 91.6943 162.784 88.6892 161.031 88.6892C159.278 88.6892 158.777 88.6892 155.021 94.4492C155.021 95.9518 151.515 94.4492 149.261 94.4492C147.007 94.4492 146.757 92.9466 146.005 90.1917C145.254 87.4369 145.254 88.4387 143.25 87.1865C141.247 85.9343 145.254 85.4335 146.005 84.4318C146.757 83.43 147.257 80.6752 147.257 78.1709V73.9135C147.925 72.5779 149.261 69.4557 149.261 67.6526C149.261 65.8494 150.763 65.7326 151.515 65.8996C151.932 64.8978 152.767 62.5938 152.767 61.3918C152.767 60.1897 154.27 56.8839 155.021 55.3812H152.767L149.261 53.6283V48.6196L147.257 46.8665C147.09 45.6978 146.857 42.8094 147.257 40.6056C147.758 37.8508 149.261 39.103 149.261 37.8509V33.5934H146.757L143.25 32.0909L145.254 29.336L146.757 25.5795L145.254 22.0734L143.25 18.0664V16.5638L141.998 11.5552H137.991H134.736V10.0525C135.821 9.38472 138.242 7.69849 139.243 6.296C140.245 4.89351 139.661 4.54293 139.243 4.54295L137.991 1.53773C136.823 0.869908 134.535 0.28556 134.736 3.29078C134.936 6.296 133.483 4.54295 132.732 3.29078C131.647 3.70817 129.326 4.89356 128.725 6.296C128.124 7.69843 127.306 6.88035 126.972 6.296L124.217 4.54295H122.715V10.0525V16.5638C122.715 17.816 120.21 16.5638 120.21 18.0664C120.21 19.569 120.21 20.8212 118.958 22.0734C117.957 23.0751 118.541 24.8282 118.958 25.5795C119.376 26.3308 120.711 28.1339 122.715 29.336C125.219 30.8386 122.715 32.0908 122.715 33.5934C122.715 35.096 121.463 35.3465 120.21 36.3482C119.209 37.1496 119.793 39.5204 120.21 40.6056C119.125 41.1899 116.805 42.559 116.203 43.3604C115.452 44.3621 115.703 45.8647 114.701 46.8665C113.699 47.8682 111.195 49.1204 109.943 50.1221C108.941 50.9235 107.355 51.9586 106.687 52.376V55.3812C105.435 56.4665 102.93 59.4884 102.93 62.8943C102.93 64.1465 103.181 65.8995 102.93 67.6526C102.73 69.055 105.351 70.9083 106.687 71.6596C107.271 71.5761 108.991 71.4593 111.195 71.6596C113.399 71.8599 112.113 73.2457 111.195 73.9135C111.362 74.8318 111.595 76.9688 111.195 78.1709C110.794 79.373 109.191 78.6718 108.44 78.1709C107.856 78.1709 106.236 79.0725 104.433 82.6787C104.433 84.9326 105.685 84.4318 106.687 85.4335C107.689 86.4353 108.44 87.1865 108.44 92.9466C107.188 95.7014 106.437 92.9466 104.433 94.4492C102.83 95.6513 103.765 97.6214 104.433 98.4561C103.682 98.957 101.879 99.9587 100.676 99.9587C99.4744 99.9587 99.0069 98.957 98.9235 98.4561L96.1687 96.9535C96.4191 96.2022 96.5694 94.6495 95.1669 94.4492C93.4139 94.1987 92.1617 93.6979 91.16 92.9466C90.1582 92.1953 90.4087 90.1917 86.6521 87.1865C84.6487 86.6856 82.1443 88.6891 82.1443 90.1917C82.1443 91.6943 82.6452 94.1987 82.1443 96.2022C81.6434 98.2056 80.8921 98.7065 79.8904 99.9587C78.8887 101.211 77.8869 100.96 75.633 102.213C73.3791 103.465 72.8782 104.467 70.8747 105.468C68.8713 106.47 70.3739 108.473 69.1217 108.473C68.1199 108.473 66.2 110.477 65.3652 111.479V115.736L63.3617 117.99C62.7773 117.656 61.3582 116.738 60.3565 115.736C59.1043 114.484 59.1043 113.983 60.3565 111.479C61.6086 108.974 59.6052 109.976 59.1043 108.473C58.6034 106.971 59.6052 106.47 52.8434 111.479C51.5912 114.484 48.0852 110.727 45.0799 109.976C42.6758 109.375 38.4017 108.724 36.5652 108.473L29.0521 120.494L32.8086 122.247C32.3078 122.999 31.6065 124.601 32.8086 125.002C34.0107 125.403 33.3095 126.672 32.8086 127.256C33.4764 128.174 34.4114 130.462 32.8086 132.265C31.306 132.265 30.8051 135.771 29.0521 137.524C27.2991 139.277 25.7964 137.774 20.5373 142.783C16.7808 144.786 20.5373 144.786 20.5373 147.291C20.5373 149.795 18.2834 150.546 16.0295 160.313C15.6288 162.718 14.8608 162.985 14.5269 162.818C13.3582 162.651 9.96895 163.118 5.76166 166.324C4.50948 168.578 6.51296 168.578 9.51818 172.585C11.9224 175.79 12.8573 177.927 13.0243 178.595C13.8591 178.428 16.5304 178.895 20.5373 182.101C24.2938 184.355 22.5408 184.856 24.2938 186.358C26.0469 187.861 26.5478 187.36 29.0521 189.614C31.5565 191.868 30.0538 191.367 36.5652 193.371C36.5652 194.973 38.0678 195.374 38.8191 195.374C40.4052 194.706 43.8779 193.371 45.0799 193.371Z" fill="#F2F4F7" stroke="#CBCDD5"/>
<path d="M48.0852 218.164C46.833 217.997 44.2785 218.164 44.0782 220.168C43.8278 222.672 44.0782 223.674 44.0782 227.681C44.0782 231.688 45.0799 235.695 41.5738 236.696C38.0678 237.698 30.3043 235.945 28.8017 239.201C27.2991 242.456 25.546 248.968 26.2973 251.472C27.0486 253.976 25.7964 257.733 28.8017 258.985C31.8069 260.237 36.3147 262.992 32.5582 263.994C28.8017 264.995 23.793 263.994 20.7877 263.994C17.7825 263.994 13.5251 262.491 8.266 266.749C3.00686 271.006 -1.25053 273.761 2.50599 278.519C6.26252 283.277 12.273 284.029 14.5269 284.279C16.7808 284.529 18.2834 285.782 19.5356 288.536C20.7877 291.291 25.0451 292.042 28.8017 294.296C32.5582 296.55 31.306 299.806 34.8121 301.559C38.3182 303.312 40.5721 302.811 48.0852 303.562C55.5982 304.314 72.3773 306.067 78.1374 306.317C83.8974 306.568 86.6521 305.566 88.6556 303.562C90.6591 301.559 89.9078 299.806 87.4034 297.051C84.8991 294.296 85.1495 293.044 86.9026 292.794C88.6556 292.543 90.4087 292.293 90.1582 291.041C89.9078 289.789 93.6643 289.789 95.1669 288.536C96.6695 287.284 96.6695 285.531 98.1721 284.279C99.6748 283.027 102.43 283.778 102.68 285.782C102.93 287.785 104.433 288.536 107.438 288.536C110.443 288.536 113.95 289.288 116.704 287.535C119.459 285.782 121.463 283.277 122.715 282.526C123.967 281.775 128.224 282.526 131.23 282.526C134.235 282.526 138.242 280.773 139.243 280.022C140.245 279.27 145.504 271.757 146.256 270.755C146.857 269.954 148.009 267.416 148.51 266.248" stroke="#7684FF" stroke-width="2"/>
<path d="M236.412 99.7082C238.583 100.877 245.027 102.513 247.431 99.7082C255.445 92.696 256.447 92.696 260.955 92.1952C276.482 86.6856 275.981 88.1882 279.988 84.6821" stroke="#CBCDD5"/>
<path d="M48.968 133.152V125.088H47.456V135H49.276L53.434 128.924C54.134 127.902 54.19 127.412 54.19 126.936H54.624V135H56.136V125.088H54.316L49.99 131.458C49.43 132.284 49.402 132.718 49.402 133.152H48.968ZM58.7978 127.944V137.856H60.2258V134.832C60.8978 135 61.5698 135.168 62.8298 135.168C66.0218 135.168 66.0218 132.984 66.0218 131.808V131.136C66.0218 129.792 66.0218 127.776 62.9978 127.776C61.3178 127.776 60.3938 128.476 60.0578 128.728L59.4698 127.944H58.7978ZM64.5098 131.472C64.5098 133.81 64.5098 133.824 62.2418 133.824C61.7378 133.824 60.8978 133.824 60.2258 133.656V129.624L62.2418 129.12H62.4798C64.5098 129.12 64.5098 129.204 64.5098 131.472ZM75.2346 128.336V127.944H73.6386C72.6306 129.288 72.0426 130.072 72.0426 130.8H69.5226V127.944H68.0946V135H69.5226V132.144H72.0426C72.0426 132.872 72.6306 133.656 73.6386 135H75.2346V134.608L72.8686 131.472L75.2346 128.336ZM79.3877 133.488C79.3877 132.984 79.3877 132.984 77.9457 129.204V127.944H76.4337C76.4337 129.414 76.4337 129.414 78.6737 134.664H80.0877L79.5837 136.008C79.3177 136.68 79.2057 136.68 78.4077 136.68H77.3017V138.024H78.0297C79.1217 138.024 80.2137 137.982 80.8437 136.456L83.1677 130.198C83.4897 129.414 83.4897 129.414 83.4897 128.224V127.944H82.0197V129.204C80.6897 133.012 80.7037 133.012 80.7037 133.488H79.3877ZM91.4855 127.944H84.4295V129.176H87.2155V135H88.6995V129.176H91.4855V127.944ZM96.2905 135.168C96.7945 135.168 97.8865 135.168 99.2305 134.832V133.488H98.8945L97.5365 133.824H96.7945C94.3585 133.824 94.3585 133.824 94.3585 131.472C94.3585 129.12 94.3585 129.12 96.2905 129.12C97.8865 129.12 97.8865 129.12 98.2225 130.464L99.5665 130.128C99.5665 129.456 99.5665 127.776 96.6265 127.776H95.9545C92.8465 127.776 92.8465 129.624 92.8465 131.136V131.808C92.8465 133.32 92.8465 135.168 96.2905 135.168ZM108.608 128.336V127.944H107.012C106.004 129.288 105.416 130.072 105.416 130.8H102.896V127.944H101.468V135H102.896V132.144H105.416C105.416 132.872 106.004 133.656 107.012 135H108.608V134.608L106.242 131.472L108.608 128.336ZM116.247 135.168L117.311 134.37C116.807 133.698 116.807 133.698 116.807 132.312V131.136C116.807 129.456 116.807 127.776 113.531 127.776C113.027 127.776 111.935 127.776 110.591 128.112V129.456H110.927L112.271 129.12H113.531C115.379 129.12 115.379 129.12 115.379 130.884H113.531C110.003 130.884 110.003 132.06 110.003 133.152C110.003 133.824 110.003 135.168 112.523 135.168C114.259 135.168 115.197 134.468 115.533 134.216L116.247 135.168ZM111.599 132.984C111.599 131.976 111.599 131.976 113.531 131.976H115.379V133.32L113.363 133.824H112.607C111.599 133.824 111.599 133.824 111.599 132.984ZM125.516 135V127.944H122.492C120.392 127.944 118.712 127.944 118.712 130.212C118.712 131.444 119.132 131.766 120.308 132.648L118.838 134.608V135H120.434C120.938 134.356 121.484 133.684 121.484 132.648H124.088V135H125.516ZM121.904 131.472C120.322 131.472 120.308 131.472 120.308 130.296C120.308 129.134 120.308 129.12 121.904 129.12H124.088V131.472H121.904ZM48.38 148.472C48.38 146.12 48.38 146.05 50.564 146.05C52.748 146.05 52.748 146.12 52.748 148.472C52.748 150.824 52.748 150.894 50.564 150.894C48.38 150.894 48.38 150.824 48.38 148.472ZM46.868 148.808C46.868 150.152 46.868 152.168 50.228 152.168H50.9C54.26 152.168 54.26 150.152 54.26 148.808V148.136C54.26 146.792 54.26 144.776 50.9 144.776H50.228C46.868 144.776 46.868 146.792 46.868 148.136V148.808ZM61.0408 143.768C61.7968 143.586 62.5388 143.39 62.8048 142.34L62.8888 142.004L61.5448 141.668C61.3768 142.172 61.3908 142.172 60.7048 142.34L59.0248 142.76C56.1688 143.474 56.1688 145.364 56.1688 147.548V148.094C56.1688 150.446 56.1688 152.168 59.6128 152.168H60.2848C63.6448 152.168 63.6448 150.488 63.6448 149.228V148.472C63.6448 147.212 63.6448 145.532 60.6208 145.532C58.6048 145.532 57.9328 145.994 57.6248 146.372L57.3728 146.288C57.7928 144.608 57.7928 144.58 59.3608 144.188L61.0408 143.768ZM59.9488 146.778C62.1328 146.778 62.1328 147.086 62.1328 148.85C62.1328 150.614 62.1328 150.922 59.8368 150.922C57.7648 150.922 57.7648 150.614 57.7648 148.85C57.7648 147.086 57.7648 146.778 59.9488 146.778ZM70.9397 146.19V152H72.3677V144.944H66.6697C66.6277 146.4 66.5437 147.604 66.2917 149.424C66.1237 150.642 65.9837 150.88 64.7797 150.88V152.028C67.0477 152.028 67.2857 151.762 67.5657 149.676C67.7757 148.136 67.8737 147.058 67.9017 146.19H70.9397ZM80.6042 152.168L81.6682 151.37C81.1642 150.698 81.1642 150.698 81.1642 149.312V148.136C81.1642 146.456 81.1642 144.776 77.8882 144.776C77.3842 144.776 76.2922 144.776 74.9482 145.112V146.456H75.2842L76.6282 146.12H77.8882C79.7362 146.12 79.7362 146.12 79.7362 147.884H77.8882C74.3602 147.884 74.3602 149.06 74.3602 150.152C74.3602 150.824 74.3602 152.168 76.8802 152.168C78.6162 152.168 79.5542 151.468 79.8902 151.216L80.6042 152.168ZM75.9562 149.984C75.9562 148.976 75.9562 148.976 77.8882 148.976H79.7362V150.32L77.7202 150.824H76.9642C75.9562 150.824 75.9562 150.824 75.9562 149.984ZM86.5972 152.168C87.1012 152.168 88.1932 152.168 89.5372 151.832V150.488H89.2012L87.8432 150.824H87.1012C84.6652 150.824 84.6652 150.824 84.6652 148.472C84.6652 146.12 84.6652 146.12 86.5972 146.12C88.1932 146.12 88.1932 146.12 88.5292 147.464L89.8732 147.128C89.8732 146.456 89.8732 144.776 86.9332 144.776H86.2612C83.1532 144.776 83.1532 146.624 83.1532 148.136V148.808C83.1532 150.32 83.1532 152.168 86.5972 152.168ZM98.1163 144.944H91.0603V146.176H93.8463V152H95.3303V146.176H98.1163V144.944ZM103.173 152C104.853 152 106.365 152 106.365 149.648C106.365 148.808 106.365 147.128 103.341 147.128C102.669 147.128 101.913 147.212 101.241 147.38V144.944H99.8134V152H103.173ZM103.341 148.472C104.853 148.472 104.853 148.472 104.853 149.648C104.853 150.824 104.853 150.824 103.341 150.824H101.241V148.472H103.341Z" fill="#363636"/>
<path d="M204.516 210.485V215.525L202.5 216.029H201.912C199.392 216.029 199.392 216.029 199.392 213.509V210.485H197.88V213.509C197.88 215.525 197.88 217.541 201.072 217.541C202.164 217.541 203.172 217.289 204.516 216.953V220.397H206.028V210.485H204.516ZM210.63 220.397C214.284 215.539 214.284 215.287 214.284 214.545H214.648V220.397H216.076V213.341H214.144C210.49 218.199 210.49 218.451 210.49 219.193H210.112V213.341H208.684V220.397H210.63ZM224.829 213.341H217.773V214.573H220.559V220.397H222.043V214.573H224.829V213.341ZM232.35 220.565L233.414 219.767C232.91 219.095 232.91 219.095 232.91 217.709V216.533C232.91 214.853 232.91 213.173 229.634 213.173C229.13 213.173 228.038 213.173 226.694 213.509V214.853H227.03L228.374 214.517H229.634C231.482 214.517 231.482 214.517 231.482 216.281H229.634C226.106 216.281 226.106 217.457 226.106 218.549C226.106 219.221 226.106 220.565 228.626 220.565C230.362 220.565 231.3 219.865 231.636 219.613L232.35 220.565ZM227.702 218.381C227.702 217.373 227.702 217.373 229.634 217.373H231.482V218.717L229.466 219.221H228.71C227.702 219.221 227.702 219.221 227.702 218.381Z" fill="#363636"/>
<path d="M136.431 289.055C136.431 288.383 136.431 288.383 134.205 283.595H132.721V284.099L135.661 290.273H137.649L137.159 291.323C136.767 292.163 136.585 292.163 135.577 292.163H134.303V293.507H135.241C137.019 293.507 137.803 293.507 138.671 291.491L141.849 284.099V283.595H140.407C138.391 288.383 138.391 288.383 138.419 289.055H136.431ZM147.902 287.697V293.507H149.33V286.451H143.632C143.59 287.907 143.506 289.111 143.254 290.931C143.086 292.149 142.946 292.387 141.742 292.387V293.535C144.01 293.535 144.248 293.269 144.528 291.183C144.738 289.643 144.836 288.565 144.864 287.697H147.902ZM157.566 293.675L158.63 292.877C158.126 292.205 158.126 292.205 158.126 290.819V289.643C158.126 287.963 158.126 286.283 154.85 286.283C154.346 286.283 153.254 286.283 151.91 286.619V287.963H152.246L153.59 287.627H154.85C156.698 287.627 156.698 287.627 156.698 289.391H154.85C151.322 289.391 151.322 290.567 151.322 291.659C151.322 292.331 151.322 293.675 153.842 293.675C155.578 293.675 156.516 292.975 156.852 292.723L157.566 293.675ZM152.918 291.491C152.918 290.483 152.918 290.483 154.85 290.483H156.698V291.827L154.682 292.331H153.926C152.918 292.331 152.918 292.331 152.918 291.491ZM165.995 286.451V289.293H161.879V286.451H160.451V293.507H161.879V290.525H165.995V293.507H167.423V286.451H165.995ZM168.906 288.887V290.147H173.106V288.887H168.906ZM176.352 287.515V284.939H182.232V283.595H174.84V293.507H178.368C181.476 293.507 183.072 293.437 183.072 290.511C183.072 287.585 181.476 287.515 178.368 287.515H176.352ZM176.352 288.859H179.376C181.448 288.859 181.476 288.859 181.476 290.511C181.476 292.135 181.476 292.163 179.376 292.163H176.352V288.859ZM190.802 293.675L191.866 292.877C191.362 292.205 191.362 292.205 191.362 290.819V289.643C191.362 287.963 191.362 286.283 188.086 286.283C187.582 286.283 186.49 286.283 185.146 286.619V287.963H185.482L186.826 287.627H188.086C189.934 287.627 189.934 287.627 189.934 289.391H188.086C184.558 289.391 184.558 290.567 184.558 291.659C184.558 292.331 184.558 293.675 187.078 293.675C188.814 293.675 189.752 292.975 190.088 292.723L190.802 293.675ZM186.154 291.491C186.154 290.483 186.154 290.483 188.086 290.483H189.934V291.827L187.918 292.331H187.162C186.154 292.331 186.154 292.331 186.154 291.491ZM200.029 286.451H192.973V287.683H195.759V293.507H197.243V287.683H200.029V286.451ZM202.902 289.979C202.902 287.627 202.902 287.557 205.086 287.557C207.27 287.557 207.27 287.627 207.27 289.979C207.27 292.331 207.27 292.401 205.086 292.401C202.902 292.401 202.902 292.331 202.902 289.979ZM201.39 290.315C201.39 291.659 201.39 293.675 204.75 293.675H205.422C208.782 293.675 208.782 291.659 208.782 290.315V289.643C208.782 288.299 208.782 286.283 205.422 286.283H204.75C201.39 286.283 201.39 288.299 201.39 289.643V290.315ZM210.859 286.451V296.363H212.287V293.339C212.959 293.507 213.631 293.675 214.891 293.675C218.083 293.675 218.083 291.491 218.083 290.315V289.643C218.083 288.299 218.083 286.283 215.059 286.283C213.379 286.283 212.455 286.983 212.119 287.235L211.531 286.451H210.859ZM216.571 289.979C216.571 292.317 216.571 292.331 214.303 292.331C213.799 292.331 212.959 292.331 212.287 292.163V288.131L214.303 287.627H214.541C216.571 287.627 216.571 287.711 216.571 289.979Z" fill="#363636"/>
</svg>
