<svg width="406" height="315" viewBox="0 0 406 315" fill="none" xmlns="http://www.w3.org/2000/svg">
<path d="M105 1.47968L-1 23.6591V313H364L342 154.719C342 154.719 292 85.1566 273 63.9853C254 42.814 220.4 25.2722 198 11.5612C175.6 -2.14969 126.667 -0.872688 105 1.47968Z" fill="#F2F4F7"/>
<path d="M4.83176e-05 315L3.97393e-05 170.634L3.3263e-05 72.539L113.164 89.1966L173.131 42C173.131 42 321.741 125.283 332.042 133.617C396.742 185.967 406 315 406 315H4.83176e-05Z" fill="url(#paint0_linear)"/>
<path fill-rule="evenodd" clip-rule="evenodd" d="M287.736 145H96.4155V311H314V175C314 158.431 302.241 145 287.736 145ZM301.298 272.904C301.298 286.653 299.147 298.997 295.232 309.838H134.703C129.991 297.823 127.376 284.094 127.376 268.921C127.376 210.415 166.263 166.969 214.307 166.969C262.35 166.969 301.298 214.398 301.298 272.904Z" fill="#CBCDD5"/>
<path d="M295.864 309.838C299.778 298.997 301.929 286.653 301.929 272.904C301.929 214.398 262.982 166.969 214.938 166.969C166.895 166.969 128.008 210.415 128.008 268.921C128.008 284.093 130.623 297.823 135.335 309.838H295.864Z" fill="#A9ACB8"/>
<defs>
<linearGradient id="paint0_linear" x1="214.993" y1="102.26" x2="214.993" y2="315" gradientUnits="userSpaceOnUse">
<stop stop-color="#DCDFE7"/>
<stop offset="1" stop-color="#D5D6DE"/>
</linearGradient>
</defs>
</svg>
