<svg width="517" height="101" viewBox="0 0 517 101" fill="none" xmlns="http://www.w3.org/2000/svg">
<g filter="url(#filter0_d)">
<path fill-rule="evenodd" clip-rule="evenodd" d="M512.268 77.3747C512.931 74.5728 514.337 67.2881 514.648 60.5651C515.038 52.1612 511.421 39.3605 509.014 34.1613C507.088 30.002 504.2 24.1632 502.997 21.7637L504.986 12.1574L493.381 12.1716C491.379 11.3737 486.896 9.77849 484.975 9.78083L471.369 9.7974L469.764 5.79775L427.347 5.84939L427.352 9.85099L424.551 9.8544L424.547 7.05328L420.546 7.05815L420.541 3.05655C420.539 1.45592 420.537 0.255436 418.136 0.258359L387.724 0.295387C385.323 0.298311 384.925 1.89944 384.926 3.09992L384.931 7.10151L379.729 7.10785L379.721 0.305132L217.656 0.502454C217.373 0.502798 217.09 0.499059 216.81 0.495358C214.318 0.462423 212.054 0.43251 212.057 3.31039L212.085 25.7195L196.479 25.7385L196.459 9.3319L194.058 9.33483L194.051 3.73259C194.049 2.53211 193.648 1.73228 191.648 1.73471L72.8 1.87942C70.9338 2.8154 67.2013 4.76739 67.2017 5.08752C67.2021 5.40764 59.7322 5.23 55.9972 5.10116L55.9997 7.10196L26.788 7.13752L26.7855 5.13672C26.7841 3.93624 25.9823 2.73674 24.3817 2.73869L-9.23179 2.77961C-10.1086 2.78068 -10.5051 2.78117 -10.6842 2.97873C-10.832 3.14181 -10.8316 3.43919 -10.8309 3.98204L-10.8261 7.98364C-34.5687 8.14594 -82.4542 8.47101 -84.0549 8.47296C-85.6555 8.47491 -94.0641 4.21677 -98.0682 2.08746L-100.869 2.09087L-100.848 19.6979L-104.449 19.7023L-104.392 66.9211C-104.39 68.1216 -103.989 68.9215 -103.189 68.9205L-100.788 68.9176L-100.776 78.9216L-69.1599 78.8831C-69.6776 80.2517 -69.9601 81.7358 -69.9582 83.2859C-69.9499 90.1369 -64.3892 95.6841 -57.5382 95.6757C-50.8209 95.6675 -45.3572 90.3218 -45.1542 83.6556L-41.9465 83.6519C-41.9433 86.304 -39.7908 88.4512 -37.1388 88.448L-23.5333 88.4314C-20.8813 88.4282 -18.734 86.2755 -18.7372 83.6235L-17.1304 83.6215C-16.9111 90.2872 -11.4344 95.6196 -4.71715 95.6114C2.13395 95.603 7.68105 90.0424 7.67271 83.1913C7.67082 81.6412 7.38471 80.1579 6.8637 78.7905L11.2689 78.7851L11.286 92.7907L15.2876 92.7859C16.8883 92.7839 18.0878 91.9821 18.0863 90.7817L18.0824 87.5804L40.4913 87.5531L40.4801 78.3494L70.092 78.3134C71.5649 82.9801 74.9109 92.3131 76.5116 92.3112L80.9133 92.3058L80.8963 78.3002L84.6609 78.2956C84.0421 79.7733 83.7012 81.3961 83.7033 83.0986C83.7116 89.9496 89.2722 95.4968 96.1234 95.4884C102.841 95.4803 108.304 90.1346 108.507 83.4683L111.715 83.4646C111.718 86.1167 113.871 88.2639 116.523 88.2607L130.128 88.2442C132.78 88.2409 134.927 86.0882 134.924 83.4362L136.531 83.4342C136.75 90.0999 142.227 95.4323 148.944 95.4241C155.795 95.4158 161.343 89.8551 161.334 83.004C161.332 81.3016 160.987 79.6796 160.365 78.2034L192.141 78.1648L192.529 68.1603L195.73 68.1564C196.877 68.155 196.791 67.7442 196.649 67.0698C196.593 66.803 196.528 66.4949 196.528 66.1546L196.527 65.7544L212.133 65.7354L212.135 66.9358C212.136 68.2163 212.137 68.5365 215.738 68.5321L215.75 78.5361L247.767 78.4971C247.249 79.8657 246.966 81.3497 246.968 82.8999C246.977 89.7509 252.537 95.298 259.388 95.2897C266.106 95.2815 271.569 89.9358 271.772 83.2696L273.379 83.2679C273.383 85.9199 275.535 88.0672 278.187 88.064L291.793 88.0474C294.445 88.0442 296.592 85.8914 296.589 83.2394L299.796 83.2355C300.016 89.9012 305.492 95.2336 312.21 95.2254C319.061 95.2171 324.608 89.6564 324.599 82.8053C324.597 81.1168 324.258 79.5074 323.645 78.0409L326.769 78.0007L326.787 92.4065C337.416 92.3935 338.7 78.3864 338.7 78.3864L369.012 78.3495L369.021 85.9525L389.429 85.9277C389.697 87.2612 390.555 90.0879 391.836 90.7267C393.117 91.3653 396.105 90.9882 397.438 90.7198L397.423 78.3149L401.428 78.31C400.91 79.6786 400.628 81.1626 400.63 82.7127C400.638 89.5638 406.199 95.1109 413.05 95.1026C419.767 95.0944 425.231 89.7487 425.434 83.0825L427.041 83.0807C427.044 85.7327 429.196 87.88 431.848 87.8768L445.454 87.8602C448.106 87.857 450.253 85.7043 450.25 83.0522L453.458 83.0483C453.677 89.714 459.153 95.0464 465.871 95.0382C472.722 95.0299 478.269 89.4693 478.261 82.6182C478.259 81.0681 477.973 79.5848 477.452 78.2174L491.461 78.2004C493.729 78.8645 498.587 80.7527 499.87 82.9921C500.149 83.4784 500.415 83.9769 500.678 84.4686L500.68 84.4727C501.93 86.8091 503.097 88.9905 505.079 88.9881C506.401 88.9865 506.996 89.4709 507.53 89.9063C507.967 90.2619 508.363 90.5848 509.083 90.5839L512.284 90.58L512.28 86.9786L510.277 85.7805C510.851 83.3788 512.052 78.3353 512.268 77.3747ZM484.216 43.7954L501.023 43.7749C502.623 43.773 504.622 41.7697 503.819 40.1701C503.178 38.8904 499.541 31.9053 497.803 28.5728L483.397 28.5903C481.396 28.5927 480.597 29.394 480.598 30.5945L480.611 40.9987C480.612 42.1991 480.615 43.7998 484.216 43.7954ZM-120.367 67.3408L-120.369 66.1403L-104.393 66.1208L-104.442 26.1048L-120.418 26.1243L-120.445 3.7154C-120.448 0.837513 -122.712 0.872939 -125.205 0.911943L-125.205 0.911944C-125.485 0.916327 -125.768 0.920755 -126.051 0.921099L-288.115 1.11842L-288.107 7.92114L-293.309 7.92747L-293.314 3.92587C-293.315 2.72539 -293.718 1.12524 -296.118 1.12817L-326.531 1.16519C-328.932 1.16812 -328.93 2.3686 -328.928 3.96924L-328.923 7.97083L-332.925 7.97571L-332.921 10.7768L-335.723 10.7802L-335.727 6.77864L-378.144 6.83028L-379.74 10.8338L-393.346 10.8504C-395.266 10.8527 -399.746 12.4588 -401.746 13.2616L-413.351 13.2757L-411.338 22.8771C-412.536 25.2795 -415.41 31.1254 -417.326 35.2894C-419.72 40.4944 -423.306 53.3039 -422.896 61.7067C-422.567 68.429 -421.145 75.7102 -420.474 78.5105C-420.256 79.4706 -419.043 84.5112 -418.463 86.9115L-420.462 88.1144L-420.458 91.7158L-417.257 91.7119C-416.537 91.7111 -416.142 91.3872 -415.706 91.0306C-415.172 90.5938 -414.579 90.108 -413.257 90.1064C-411.275 90.104 -410.113 87.9197 -408.869 85.5803C-408.607 85.0867 -408.341 84.5861 -408.062 84.0977C-406.785 81.8552 -401.932 79.9552 -399.665 79.2855L-385.656 79.2685C-386.174 80.6371 -386.456 82.1211 -386.454 83.6712C-386.446 90.5222 -380.885 96.0694 -374.034 96.061C-367.317 96.0528 -361.853 90.7071 -361.65 84.0409L-358.443 84.037C-358.439 86.689 -356.287 88.8365 -353.635 88.8333L-340.029 88.8167C-337.377 88.8135 -335.23 86.661 -335.233 84.009L-333.626 84.0068C-333.407 90.6725 -327.93 96.0049 -321.213 95.9967C-314.362 95.9884 -308.815 90.4277 -308.823 83.5766C-308.825 82.0266 -309.111 80.5432 -309.632 79.1759L-305.627 79.171L-305.612 91.576C-304.278 91.8411 -301.29 92.211 -300.01 91.5692C-298.73 90.9273 -297.88 88.0985 -297.615 86.7643L-277.207 86.7395L-277.216 79.1364L-246.904 79.0995C-246.904 79.0995 -245.586 93.1035 -234.957 93.0906L-234.975 78.6848L-231.85 78.7174C-232.459 80.1854 -232.795 81.7956 -232.793 83.4842C-232.784 90.3353 -227.224 95.8824 -220.373 95.874C-213.655 95.8659 -208.192 90.5202 -207.989 83.8539L-204.781 83.85C-204.778 86.5021 -202.625 88.6496 -199.973 88.6463L-186.368 88.6298C-183.716 88.6265 -181.569 86.474 -181.572 83.822L-179.965 83.8198C-179.746 90.4855 -174.269 95.8179 -167.552 95.8097C-160.701 95.8014 -155.153 90.2407 -155.162 83.3897C-155.164 81.8396 -155.45 80.3562 -155.971 78.9888L-123.955 78.9498L-123.967 68.9458C-120.365 68.9415 -120.366 68.6213 -120.367 67.3408ZM-409.311 44.8835L-392.504 44.863C-388.902 44.8586 -388.904 43.258 -388.906 42.0575L-388.918 31.6534C-388.92 30.4529 -389.721 29.6535 -391.722 29.656L-406.128 29.6735C-407.858 33.0103 -411.477 40.0042 -412.116 41.2855C-412.914 42.8871 -410.911 44.8854 -409.311 44.8835Z" fill="#CBCDD5"/>
</g>
<path d="M196.48 26.5393L212.486 26.5198L212.535 66.5358L196.528 66.5553L196.48 26.5393Z" fill="#CBCDD5"/>
<path fill-rule="evenodd" clip-rule="evenodd" d="M312.21 96.0263C319.062 96.018 324.609 90.4573 324.6 83.6062C324.592 76.7552 319.031 71.208 312.18 71.2164C308.938 71.2203 305.987 72.468 303.779 74.5077L303.779 74.4277L267.68 74.4716C265.477 72.4848 262.559 71.2768 259.359 71.2807C252.508 71.289 246.961 76.8497 246.969 83.7008C246.978 90.5518 252.538 96.099 259.389 96.0906C266.106 96.0825 271.57 90.7367 271.773 84.0705L273.38 84.0686C273.38 84.0686 273.38 84.0687 273.38 84.0688C273.384 86.7208 275.536 88.8681 278.188 88.8649L291.794 88.8483C294.446 88.8451 296.593 86.6925 296.59 84.0405C296.59 84.0404 296.59 84.0404 296.59 84.0403L299.797 84.0364C300.016 90.7021 305.493 96.0345 312.21 96.0263Z" fill="#CBCDD5"/>
<path fill-rule="evenodd" clip-rule="evenodd" d="M312.21 96.0263C319.062 96.018 324.609 90.4573 324.6 83.6062C324.592 76.7552 319.031 71.208 312.18 71.2164C308.938 71.2203 305.987 72.468 303.779 74.5077L303.779 74.4277L267.68 74.4716C265.477 72.4848 262.559 71.2768 259.359 71.2807C252.508 71.289 246.961 76.8497 246.969 83.7008C246.978 90.5518 252.538 96.099 259.389 96.0906C266.106 96.0825 271.57 90.7367 271.773 84.0705L273.38 84.0686C273.38 84.0686 273.38 84.0687 273.38 84.0688C273.384 86.7208 275.536 88.8681 278.188 88.8649L291.794 88.8483C294.446 88.8451 296.593 86.6925 296.59 84.0405C296.59 84.0404 296.59 84.0404 296.59 84.0403L299.797 84.0364C300.016 90.7021 305.493 96.0345 312.21 96.0263Z" fill="url(#paint0_linear)"/>
<path fill-rule="evenodd" clip-rule="evenodd" d="M465.873 95.8373C472.724 95.829 478.271 90.2683 478.262 83.4173C478.254 76.5662 472.693 71.0191 465.842 71.0274C462.6 71.0313 459.649 72.2791 457.442 74.3187L457.442 74.2387L421.342 74.2827C419.14 72.2959 416.221 71.0878 413.021 71.0917C406.17 71.1001 400.623 76.6607 400.631 83.5118C400.64 90.3629 406.2 95.91 413.051 95.9017C419.769 95.8935 425.232 90.5478 425.435 83.8815L427.042 83.8796C427.042 83.8797 427.042 83.8797 427.042 83.8798C427.046 86.5319 429.198 88.6791 431.85 88.6759L445.456 88.6593C448.108 88.6561 450.255 86.5036 450.252 83.8516C450.252 83.8515 450.252 83.8514 450.252 83.8513L453.459 83.8474C453.679 90.5131 459.155 95.8455 465.873 95.8373Z" fill="#CBCDD5"/>
<path fill-rule="evenodd" clip-rule="evenodd" d="M465.873 95.8373C472.724 95.829 478.271 90.2683 478.262 83.4173C478.254 76.5662 472.693 71.0191 465.842 71.0274C462.6 71.0313 459.649 72.2791 457.442 74.3187L457.442 74.2387L421.342 74.2827C419.14 72.2959 416.221 71.0878 413.021 71.0917C406.17 71.1001 400.623 76.6607 400.631 83.5118C400.64 90.3629 406.2 95.91 413.051 95.9017C419.769 95.8935 425.232 90.5478 425.435 83.8815L427.042 83.8796C427.042 83.8797 427.042 83.8797 427.042 83.8798C427.046 86.5319 429.198 88.6791 431.85 88.6759L445.456 88.6593C448.108 88.6561 450.255 86.5036 450.252 83.8516C450.252 83.8515 450.252 83.8514 450.252 83.8513L453.459 83.8474C453.679 90.5131 459.155 95.8455 465.873 95.8373Z" fill="url(#paint1_linear)"/>
<path fill-rule="evenodd" clip-rule="evenodd" d="M512.305 78.3897C512.969 75.5878 514.374 68.3031 514.686 61.5801C515.075 53.1762 511.458 40.3755 509.051 35.1763C507.125 31.017 504.237 25.1781 503.034 22.7786L505.023 13.1724L493.418 13.1865C491.416 12.3886 486.933 10.7934 485.012 10.7958L473.407 10.8099L471.406 10.8123L469.801 6.81266L427.384 6.86431L427.389 10.8659L424.588 10.8693L424.584 8.0682L420.583 8.07307L420.578 4.07147C420.576 2.47083 420.574 1.27035 418.173 1.27327L387.761 1.3103C385.36 1.31322 384.962 2.91435 384.964 4.11483L384.968 8.11643L379.766 8.12277L379.758 1.32004L339.342 1.36925L217.693 1.51736C217.41 1.51771 217.127 1.51397 216.847 1.51027C214.355 1.47733 212.091 1.44742 212.094 4.32531L212.172 67.9508C212.173 69.2313 212.174 69.5515 215.775 69.5471L215.787 79.5511L240.497 79.521L292.418 79.4578L326.806 79.0158L326.824 93.4215C337.453 93.4086 338.737 79.4014 338.737 79.4014L369.049 79.3645L369.058 86.9675L389.466 86.9427C389.735 88.2762 390.592 91.103 391.873 91.7417C393.154 92.3804 396.142 92.0033 397.475 91.7349L397.46 79.3299L491.498 79.2154C493.766 79.8796 498.624 81.7678 499.907 84.0071C500.186 84.4948 500.454 84.9947 500.717 85.4878C501.967 87.8241 503.134 90.0056 505.116 90.0032C506.438 90.0016 507.033 90.4859 507.567 90.9214C508.004 91.2769 508.4 91.5998 509.12 91.5989L512.321 91.595L512.317 87.9936L510.314 86.7955C510.888 84.3939 512.09 79.3504 512.305 78.3897ZM484.253 44.8104L501.06 44.7899C502.66 44.788 504.659 42.7847 503.856 41.1851C503.215 39.9053 499.578 32.9203 497.84 29.5877L483.434 29.6052C481.433 29.6077 480.634 30.409 480.635 31.6095L480.648 42.0136C480.65 43.2141 480.652 44.8148 484.253 44.8104Z" fill="white"/>
<path fill-rule="evenodd" clip-rule="evenodd" d="M512.305 78.3897C512.969 75.5878 514.374 68.3031 514.686 61.5801C515.075 53.1762 511.458 40.3755 509.051 35.1763C507.125 31.017 504.237 25.1781 503.034 22.7786L505.023 13.1724L493.418 13.1865C491.416 12.3886 486.933 10.7934 485.012 10.7958L473.407 10.8099L471.406 10.8123L469.801 6.81266L427.384 6.86431L427.389 10.8659L424.588 10.8693L424.584 8.0682L420.583 8.07307L420.578 4.07147C420.576 2.47083 420.574 1.27035 418.173 1.27327L387.761 1.3103C385.36 1.31322 384.962 2.91435 384.964 4.11483L384.968 8.11643L379.766 8.12277L379.758 1.32004L339.342 1.36925L217.693 1.51736C217.41 1.51771 217.127 1.51397 216.847 1.51027C214.355 1.47733 212.091 1.44742 212.094 4.32531L212.172 67.9508C212.173 69.2313 212.174 69.5515 215.775 69.5471L215.787 79.5511L240.497 79.521L292.418 79.4578L326.806 79.0158L326.824 93.4215C337.453 93.4086 338.737 79.4014 338.737 79.4014L369.049 79.3645L369.058 86.9675L389.466 86.9427C389.735 88.2762 390.592 91.103 391.873 91.7417C393.154 92.3804 396.142 92.0033 397.475 91.7349L397.46 79.3299L491.498 79.2154C493.766 79.8796 498.624 81.7678 499.907 84.0071C500.186 84.4948 500.454 84.9947 500.717 85.4878C501.967 87.8241 503.134 90.0056 505.116 90.0032C506.438 90.0016 507.033 90.4859 507.567 90.9214C508.004 91.2769 508.4 91.5998 509.12 91.5989L512.321 91.595L512.317 87.9936L510.314 86.7955C510.888 84.3939 512.09 79.3504 512.305 78.3897ZM484.253 44.8104L501.06 44.7899C502.66 44.788 504.659 42.7847 503.856 41.1851C503.215 39.9053 499.578 32.9203 497.84 29.5877L483.434 29.6052C481.433 29.6077 480.634 30.409 480.635 31.6095L480.648 42.0136C480.65 43.2141 480.652 44.8148 484.253 44.8104Z" fill="url(#paint2_linear)"/>
<mask id="mask0" mask-type="alpha" maskUnits="userSpaceOnUse" x="212" y="1" width="303" height="93">
<path fill-rule="evenodd" clip-rule="evenodd" d="M512.302 78.6246C512.965 75.8227 514.37 68.538 514.682 61.815C515.072 53.4111 511.455 40.6104 509.048 35.4112C507.122 31.2519 504.234 25.413 503.03 23.0135L505.019 13.4073L493.415 13.4214C491.413 12.6235 486.929 11.0283 485.009 11.0307L471.403 11.0472L469.798 7.04758L427.381 7.09922L427.385 11.1008L424.584 11.1042L424.581 8.30311L420.579 8.30798L420.574 4.30638C420.572 2.70574 420.571 1.50526 418.17 1.50818L387.758 1.54521C385.357 1.54814 384.959 3.14926 384.96 4.34974L384.965 8.35135L379.763 8.35768L379.755 1.55496L217.69 1.75228C217.407 1.75262 217.124 1.74888 216.844 1.74518C214.351 1.71225 212.088 1.68234 212.091 4.56022L212.168 68.1857C212.17 69.4662 212.17 69.7864 215.772 69.782L215.784 79.786L292.415 79.6927L326.803 79.2506L326.821 93.6564C337.45 93.6435 338.733 79.6363 338.733 79.6363L369.045 79.5994L369.055 87.2024L389.463 87.1776C389.731 88.5111 390.588 91.3379 391.87 91.9766C393.151 92.6153 396.138 92.2381 397.472 91.9697L397.457 79.5648L491.494 79.4503C493.763 80.1145 498.62 82.0026 499.904 84.242C500.183 84.7297 500.45 85.2296 500.714 85.7226C501.964 88.059 503.13 90.2405 505.113 90.238C506.435 90.2364 507.029 90.7208 507.564 91.1562C508.001 91.5118 508.397 91.8347 509.117 91.8338L512.318 91.8299L512.313 88.2285L510.311 87.0304C510.885 84.6288 512.086 79.5852 512.302 78.6246ZM484.25 45.0453L501.056 45.0248C502.657 45.0229 504.655 43.0196 503.853 41.4199C503.211 40.1402 499.575 33.1552 497.837 29.8226L483.431 29.8401C481.43 29.8426 480.631 30.6439 480.632 31.8444L480.645 42.2485C480.646 43.449 480.648 45.0496 484.25 45.0453Z" fill="white"/>
<path fill-rule="evenodd" clip-rule="evenodd" d="M512.302 78.6246C512.965 75.8227 514.37 68.538 514.682 61.815C515.072 53.4111 511.455 40.6104 509.048 35.4112C507.122 31.2519 504.234 25.413 503.03 23.0135L505.019 13.4073L493.415 13.4214C491.413 12.6235 486.929 11.0283 485.009 11.0307L471.403 11.0472L469.798 7.04758L427.381 7.09922L427.385 11.1008L424.584 11.1042L424.581 8.30311L420.579 8.30798L420.574 4.30638C420.572 2.70574 420.571 1.50526 418.17 1.50818L387.758 1.54521C385.357 1.54814 384.959 3.14926 384.96 4.34974L384.965 8.35135L379.763 8.35768L379.755 1.55496L217.69 1.75228C217.407 1.75262 217.124 1.74888 216.844 1.74518C214.351 1.71225 212.088 1.68234 212.091 4.56022L212.168 68.1857C212.17 69.4662 212.17 69.7864 215.772 69.782L215.784 79.786L292.415 79.6927L326.803 79.2506L326.821 93.6564C337.45 93.6435 338.733 79.6363 338.733 79.6363L369.045 79.5994L369.055 87.2024L389.463 87.1776C389.731 88.5111 390.588 91.3379 391.87 91.9766C393.151 92.6153 396.138 92.2381 397.472 91.9697L397.457 79.5648L491.494 79.4503C493.763 80.1145 498.62 82.0026 499.904 84.242C500.183 84.7297 500.45 85.2296 500.714 85.7226C501.964 88.059 503.13 90.2405 505.113 90.238C506.435 90.2364 507.029 90.7208 507.564 91.1562C508.001 91.5118 508.397 91.8347 509.117 91.8338L512.318 91.8299L512.313 88.2285L510.311 87.0304C510.885 84.6288 512.086 79.5852 512.302 78.6246ZM484.25 45.0453L501.056 45.0248C502.657 45.0229 504.655 43.0196 503.853 41.4199C503.211 40.1402 499.575 33.1552 497.837 29.8226L483.431 29.8401C481.43 29.8426 480.631 30.6439 480.632 31.8444L480.645 42.2485C480.646 43.449 480.648 45.0496 484.25 45.0453Z" fill="url(#paint3_linear)"/>
</mask>
<g mask="url(#mask0)">
<path d="M212.091 62.3895C212.091 62.3895 427.247 62.3895 431.052 62.3895C434.857 62.3895 436.932 70.6914 442.467 70.6914C448.002 70.6914 515.108 70.6914 515.108 70.6914L515.108 109.433L212.091 109.433L212.091 62.3895Z" fill="#E4E5EC"/>
<path d="M313.307 9.9549C313.305 8.42657 314.542 7.18611 316.07 7.18425L332.945 7.16371C334.473 7.16185 335.714 8.39929 335.716 9.92762L335.742 31.604C335.744 33.1323 334.506 34.3728 332.978 34.3746L316.104 34.3952C314.575 34.397 313.335 33.1596 313.333 31.6313L313.307 9.9549Z" fill="#E4E5EC"/>
<path d="M390.137 9.86188C390.135 8.33355 391.372 7.0931 392.901 7.09124L409.775 7.07069C411.303 7.06883 412.544 8.30627 412.546 9.8346L412.572 31.511C412.574 33.0393 411.337 34.2797 409.808 34.2816L392.934 34.3021C391.406 34.304 390.165 33.0666 390.163 31.5382L390.137 9.86188Z" fill="#E4E5EC"/>
<path d="M418.253 20.8783C411.335 20.8783 524.793 20.8783 524.793 20.8783L524.793 52.702C524.793 52.702 449.385 52.702 446.617 52.702C443.85 52.702 442.137 49.9347 442.137 49.9347L425.863 23.6456C425.863 23.6456 425.171 20.8783 418.253 20.8783Z" fill="#E21A1A"/>
<path d="M212.091 18.1133L504.039 18.1133L504.039 20.8806L212.091 20.8806L212.091 18.1133Z" fill="#E21A1A"/>
</g>
<path d="M249.323 41.0975C249.321 39.5692 250.559 38.3287 252.087 38.3268L268.961 38.3063C270.49 38.3044 271.73 39.5419 271.732 41.0702L271.751 56.344C271.753 57.8723 270.515 59.1128 268.987 59.1146L252.112 59.1352C250.584 59.137 249.344 57.8996 249.342 56.3713L249.323 41.0975Z" fill="#E4E5EC"/>
<path fill-rule="evenodd" clip-rule="evenodd" d="M455.901 33.8244C455.897 30.5693 458.532 27.9273 461.788 27.9234C465.043 27.9194 467.685 30.555 467.689 33.8101L467.718 57.8197C467.722 61.0748 465.086 63.7168 461.831 63.7208C458.576 63.7247 455.934 61.0892 455.93 57.8341L455.901 33.8244ZM461.789 29.307C459.298 29.31 457.281 31.3318 457.284 33.8228L457.314 57.8324C457.317 60.3233 459.339 62.3402 461.829 62.3371C464.32 62.3341 466.337 60.3123 466.334 57.8214L466.305 33.8118C466.302 31.3208 464.28 29.304 461.789 29.307Z" fill="#CBCDD5"/>
<path fill-rule="evenodd" clip-rule="evenodd" d="M278.95 52.9149C278.949 52.1508 279.568 51.5306 280.332 51.5297L437.281 51.347C438.045 51.3461 438.666 51.9649 438.667 52.729C438.667 53.4932 438.049 54.1134 437.284 54.1143L280.336 54.297C279.571 54.2979 278.951 53.6791 278.95 52.9149Z" fill="#E4E5EC"/>
<path fill-rule="evenodd" clip-rule="evenodd" d="M278.943 48.1982C278.942 47.434 279.561 46.8138 280.325 46.8129L433.123 46.6302C433.887 46.6293 434.507 47.248 434.508 48.0122C434.509 48.7764 433.89 49.3966 433.126 49.3975L280.328 49.5802C279.564 49.5811 278.944 48.9623 278.943 48.1982Z" fill="#E4E5EC"/>
<path fill-rule="evenodd" clip-rule="evenodd" d="M278.936 43.0946C278.936 42.3304 279.554 41.7102 280.318 41.7093L430.349 41.5266C431.113 41.5257 431.734 42.1444 431.734 42.9085C431.735 43.6727 431.117 44.2929 430.353 44.2939L280.322 44.4765C279.558 44.4775 278.937 43.8587 278.936 43.0946Z" fill="#E4E5EC"/>
<path fill-rule="evenodd" clip-rule="evenodd" d="M225.299 33.1222C225.298 32.358 225.917 31.7378 226.681 31.7368L305.546 31.6408C306.31 31.6399 306.931 32.2586 306.932 33.0228C306.932 33.7869 306.314 34.4072 305.55 34.4081L226.684 34.5041C225.92 34.5051 225.3 33.8863 225.299 33.1222Z" fill="#E4E5EC"/>
<path fill-rule="evenodd" clip-rule="evenodd" d="M225.292 27.5216C225.292 26.7574 225.91 26.1372 226.674 26.1363L305.54 26.0402C306.304 26.0393 306.924 26.658 306.925 27.4222C306.926 28.1864 306.307 28.8066 305.543 28.8075L226.678 28.9035C225.914 28.9045 225.293 28.2857 225.292 27.5216Z" fill="#E4E5EC"/>
<path fill-rule="evenodd" clip-rule="evenodd" d="M342.146 32.9811C342.145 32.2169 342.763 31.5967 343.528 31.5957L380.776 31.5504C381.541 31.5494 382.161 32.1682 382.162 32.9323C382.163 33.6965 381.544 34.3167 380.78 34.3177L343.531 34.363C342.767 34.3639 342.147 33.7452 342.146 32.9811Z" fill="#E4E5EC"/>
<path fill-rule="evenodd" clip-rule="evenodd" d="M342.139 27.3774C342.138 26.6133 342.757 25.993 343.521 25.9921L380.77 25.9467C381.534 25.9458 382.154 26.5645 382.155 27.3287C382.156 28.0929 381.537 28.7131 380.773 28.714L343.525 28.7594C342.76 28.7603 342.14 28.1416 342.139 27.3774Z" fill="#E4E5EC"/>
<path fill-rule="evenodd" clip-rule="evenodd" d="M-4.71619 96.4107C-11.4334 96.4189 -16.9102 91.0865 -17.1294 84.4208L-18.7363 84.4228C-18.7363 84.4228 -18.7363 84.4229 -18.7363 84.423C-18.733 87.075 -20.8803 89.2275 -23.5324 89.2308L-37.1378 89.2473C-39.7898 89.2506 -41.9423 87.1033 -41.9456 84.4512C-41.9456 84.4512 -41.9456 84.4511 -41.9456 84.451L-45.1532 84.4549C-45.3562 91.1212 -50.82 96.4669 -57.5373 96.4751C-64.3883 96.4834 -69.949 90.9363 -69.9573 84.0852C-69.9657 77.2341 -64.4185 71.6735 -57.5675 71.6651C-54.3249 71.6612 -51.3714 72.9017 -49.1588 74.9359L-49.1589 74.8559L-13.0596 74.812C-10.8618 72.8198 -7.94631 71.6047 -4.74639 71.6008C2.10468 71.5925 7.66533 77.1396 7.67367 83.9907C7.68201 90.8417 2.13489 96.4024 -4.71619 96.4107Z" fill="#CBCDD5"/>
<path fill-rule="evenodd" clip-rule="evenodd" d="M-4.71619 96.4107C-11.4334 96.4189 -16.9102 91.0865 -17.1294 84.4208L-18.7363 84.4228C-18.7363 84.4228 -18.7363 84.4229 -18.7363 84.423C-18.733 87.075 -20.8803 89.2275 -23.5324 89.2308L-37.1378 89.2473C-39.7898 89.2506 -41.9423 87.1033 -41.9456 84.4512C-41.9456 84.4512 -41.9456 84.4511 -41.9456 84.451L-45.1532 84.4549C-45.3562 91.1212 -50.82 96.4669 -57.5373 96.4751C-64.3883 96.4834 -69.949 90.9363 -69.9573 84.0852C-69.9657 77.2341 -64.4185 71.6735 -57.5675 71.6651C-54.3249 71.6612 -51.3714 72.9017 -49.1588 74.9359L-49.1589 74.8559L-13.0596 74.812C-10.8618 72.8198 -7.94631 71.6047 -4.74639 71.6008C2.10468 71.5925 7.66533 77.1396 7.67367 83.9907C7.68201 90.8417 2.13489 96.4024 -4.71619 96.4107Z" fill="url(#paint4_linear)"/>
<path fill-rule="evenodd" clip-rule="evenodd" d="M96.1249 96.2889C89.2739 96.2972 83.7132 90.7501 83.7049 83.899C83.6965 77.048 89.2437 71.4873 96.0947 71.479C99.3373 71.475 102.291 72.7155 104.503 74.7498L104.503 74.6698L140.603 74.6258C142.8 72.6337 145.716 71.4185 148.916 71.4146C155.767 71.4063 161.328 76.9534 161.336 83.8045C161.344 90.6556 155.797 96.2163 148.946 96.2246C142.229 96.2328 136.752 90.9004 136.533 84.2347L134.926 84.2366C134.926 84.2367 134.926 84.2368 134.926 84.2368C134.929 86.8889 132.782 89.0414 130.13 89.0446L116.524 89.0612C113.872 89.0644 111.72 86.9171 111.717 84.2651C111.717 84.265 111.717 84.2649 111.717 84.2649L108.509 84.2688C108.306 90.935 102.842 96.2807 96.1249 96.2889Z" fill="#CBCDD5"/>
<path fill-rule="evenodd" clip-rule="evenodd" d="M96.1249 96.2889C89.2739 96.2972 83.7132 90.7501 83.7049 83.899C83.6965 77.048 89.2437 71.4873 96.0947 71.479C99.3373 71.475 102.291 72.7155 104.503 74.7498L104.503 74.6698L140.603 74.6258C142.8 72.6337 145.716 71.4185 148.916 71.4146C155.767 71.4063 161.328 76.9534 161.336 83.8045C161.344 90.6556 155.797 96.2163 148.946 96.2246C142.229 96.2328 136.752 90.9004 136.533 84.2347L134.926 84.2366C134.926 84.2367 134.926 84.2368 134.926 84.2368C134.929 86.8889 132.782 89.0414 130.13 89.0446L116.524 89.0612C113.872 89.0644 111.72 86.9171 111.717 84.2651C111.717 84.265 111.717 84.2649 111.717 84.2649L108.509 84.2688C108.306 90.935 102.842 96.2807 96.1249 96.2889Z" fill="url(#paint5_linear)"/>
<path d="M-98.0669 2.88674L-100.868 2.89015L-100.847 20.4972L-104.448 20.5016L-104.391 67.7205C-104.389 68.9209 -103.988 69.7208 -103.188 69.7198L-100.787 69.7169L-100.774 79.7209L11.2704 79.5844L11.2874 93.59L15.289 93.5852C16.8896 93.5832 18.0892 92.7814 18.0877 91.581L18.0838 88.3797L40.4928 88.3524L40.4816 79.1487L70.0934 79.1127C71.5663 83.7794 74.9124 93.1124 76.513 93.1105L80.9148 93.1051L80.8977 79.0995L192.142 78.9641L192.53 68.9596L195.732 68.9557C197.332 68.9537 196.531 68.1544 196.529 66.9539L196.46 10.1312L194.059 10.1341L194.052 4.53187C194.051 3.33139 193.65 2.53156 191.649 2.53399L72.8015 2.67869C70.9352 3.61467 67.2027 5.56667 67.2031 5.8868C67.2035 6.20692 59.7336 6.02928 55.9986 5.90044L56.0011 7.90124L26.7894 7.9368L26.7869 5.936C26.7855 4.73552 25.9837 3.53602 24.3831 3.53797L-9.23039 3.57889C-10.831 3.58084 -10.831 3.58084 -10.8296 4.78132L-10.8247 8.78292C-34.5674 8.94522 -82.4529 9.27029 -84.0535 9.27224C-85.6542 9.27419 -94.0627 5.01605 -98.0669 2.88674Z" fill="white"/>
<path d="M-98.0669 2.88674L-100.868 2.89015L-100.847 20.4972L-104.448 20.5016L-104.391 67.7205C-104.389 68.9209 -103.988 69.7208 -103.188 69.7198L-100.787 69.7169L-100.774 79.7209L11.2704 79.5844L11.2874 93.59L15.289 93.5852C16.8896 93.5832 18.0892 92.7814 18.0877 91.581L18.0838 88.3797L40.4928 88.3524L40.4816 79.1487L70.0934 79.1127C71.5663 83.7794 74.9124 93.1124 76.513 93.1105L80.9148 93.1051L80.8977 79.0995L192.142 78.9641L192.53 68.9596L195.732 68.9557C197.332 68.9537 196.531 68.1544 196.529 66.9539L196.46 10.1312L194.059 10.1341L194.052 4.53187C194.051 3.33139 193.65 2.53156 191.649 2.53399L72.8015 2.67869C70.9352 3.61467 67.2027 5.56667 67.2031 5.8868C67.2035 6.20692 59.7336 6.02928 55.9986 5.90044L56.0011 7.90124L26.7894 7.9368L26.7869 5.936C26.7855 4.73552 25.9837 3.53602 24.3831 3.53797L-9.23039 3.57889C-10.831 3.58084 -10.831 3.58084 -10.8296 4.78132L-10.8247 8.78292C-34.5674 8.94522 -82.4529 9.27029 -84.0535 9.27224C-85.6542 9.27419 -94.0627 5.01605 -98.0669 2.88674Z" fill="url(#paint6_linear)"/>
<mask id="mask1" mask-type="alpha" maskUnits="userSpaceOnUse" x="-105" y="2" width="302" height="92">
<path d="M-98.0669 2.88674L-100.868 2.89015L-100.847 20.4972L-104.448 20.5016L-104.391 67.7205C-104.389 68.9209 -103.988 69.7208 -103.188 69.7198L-100.787 69.7169L-100.774 79.7209L11.2704 79.5844L11.2874 93.59L15.289 93.5852C16.8896 93.5832 18.0892 92.7814 18.0877 91.581L18.0838 88.3797L40.4928 88.3524L40.4816 79.1487L70.0934 79.1127C71.5663 83.7794 74.9124 93.1124 76.513 93.1105L80.9148 93.1051L80.8977 79.0995L192.142 78.9641L192.53 68.9596L195.732 68.9557C197.332 68.9537 196.531 68.1544 196.529 66.9539L196.46 10.1312L194.059 10.1341L194.052 4.53187C194.051 3.33139 193.65 2.53156 191.649 2.53399L72.8015 2.67869C70.9352 3.61467 67.2027 5.56667 67.2031 5.8868C67.2035 6.20692 59.7336 6.02928 55.9986 5.90044L56.0011 7.90124L26.7894 7.9368L26.7869 5.936C26.7855 4.73552 25.9837 3.53602 24.3831 3.53797L-9.23039 3.57889C-10.831 3.58084 -10.831 3.58084 -10.8296 4.78132L-10.8247 8.78292C-34.5674 8.94522 -82.4529 9.27029 -84.0535 9.27224C-85.6542 9.27419 -94.0627 5.01605 -98.0669 2.88674Z" fill="white"/>
<path d="M-98.0669 2.88674L-100.868 2.89015L-100.847 20.4972L-104.448 20.5016L-104.391 67.7205C-104.389 68.9209 -103.988 69.7208 -103.188 69.7198L-100.787 69.7169L-100.774 79.7209L11.2704 79.5844L11.2874 93.59L15.289 93.5852C16.8896 93.5832 18.0892 92.7814 18.0877 91.581L18.0838 88.3797L40.4928 88.3524L40.4816 79.1487L70.0934 79.1127C71.5663 83.7794 74.9124 93.1124 76.513 93.1105L80.9148 93.1051L80.8977 79.0995L192.142 78.9641L192.53 68.9596L195.732 68.9557C197.332 68.9537 196.531 68.1544 196.529 66.9539L196.46 10.1312L194.059 10.1341L194.052 4.53187C194.051 3.33139 193.65 2.53156 191.649 2.53399L72.8015 2.67869C70.9352 3.61467 67.2027 5.56667 67.2031 5.8868C67.2035 6.20692 59.7336 6.02928 55.9986 5.90044L56.0011 7.90124L26.7894 7.9368L26.7869 5.936C26.7855 4.73552 25.9837 3.53602 24.3831 3.53797L-9.23039 3.57889C-10.831 3.58084 -10.831 3.58084 -10.8296 4.78132L-10.8247 8.78292C-34.5674 8.94522 -82.4529 9.27029 -84.0535 9.27224C-85.6542 9.27419 -94.0627 5.01605 -98.0669 2.88674Z" fill="url(#paint7_linear)"/>
</mask>
<g mask="url(#mask1)">
<path d="M-104.762 62.3895L196.871 62.3895L196.871 83.1441L-104.762 83.1441L-104.762 62.3895Z" fill="#E4E5EC"/>
<path d="M212.091 16.7292L-119.983 16.7292L-119.983 19.4965L212.091 19.4965L212.091 16.7292Z" fill="#E21A1A"/>
</g>
<path fill-rule="evenodd" clip-rule="evenodd" d="M180.266 54.0849C180.265 53.3208 179.645 52.702 178.88 52.703L-45.2126 52.9758C-45.9768 52.9768 -46.5955 53.597 -46.5945 54.3611C-46.5936 55.1253 -45.9734 55.744 -45.2092 55.7431L178.884 55.4703C179.648 55.4693 180.267 54.8491 180.266 54.0849Z" fill="#E4E5EC"/>
<path fill-rule="evenodd" clip-rule="evenodd" d="M180.266 48.552C180.265 47.7878 179.645 47.1691 178.88 47.17L-45.2125 47.4429C-45.9767 47.4438 -46.5954 48.064 -46.5945 48.8282C-46.5935 49.5924 -45.9733 50.2111 -45.2091 50.2101L178.884 49.9373C179.648 49.9364 180.267 49.3161 180.266 48.552Z" fill="#E4E5EC"/>
<path fill-rule="evenodd" clip-rule="evenodd" d="M180.265 43.2163C180.264 42.4521 179.644 41.8334 178.88 41.8343L-45.2134 42.1072C-45.9776 42.1081 -46.5963 42.7283 -46.5954 43.4925C-46.5945 44.2567 -45.9742 44.8754 -45.2101 44.8745L178.883 44.6016C179.647 44.6007 180.266 43.9804 180.265 43.2163Z" fill="#E4E5EC"/>
<path fill-rule="evenodd" clip-rule="evenodd" d="M180.222 37.2857C180.221 36.5216 179.6 35.9029 178.836 35.9038L-45.2568 36.1766C-46.0209 36.1776 -46.6396 36.7978 -46.6387 37.562C-46.6378 38.3261 -46.0176 38.9448 -45.2534 38.9439L178.84 38.6711C179.604 38.6701 180.222 38.0499 180.222 37.2857Z" fill="#E4E5EC"/>
<path fill-rule="evenodd" clip-rule="evenodd" d="M180.222 31.7496C180.221 30.9854 179.6 30.3667 178.836 30.3677L-45.2567 30.6405C-46.0209 30.6414 -46.6396 31.2617 -46.6387 32.0258C-46.6377 32.79 -46.0175 33.4087 -45.2533 33.4078L178.84 33.1349C179.604 33.134 180.223 32.5138 180.222 31.7496Z" fill="#E4E5EC"/>
<path fill-rule="evenodd" clip-rule="evenodd" d="M180.221 26.4139C180.22 25.6498 179.6 25.031 178.836 25.032L-45.2569 25.3048C-46.0211 25.3057 -46.6398 25.926 -46.6389 26.6901C-46.638 27.4543 -46.0178 28.073 -45.2536 28.0721L178.839 27.7992C179.604 27.7983 180.222 27.1781 180.221 26.4139Z" fill="#E4E5EC"/>
<defs>
<filter id="filter0_d" x="-424.928" y="0.258301" width="941.606" height="99.8027" filterUnits="userSpaceOnUse" color-interpolation-filters="sRGB">
<feFlood flood-opacity="0" result="BackgroundImageFix"/>
<feColorMatrix in="SourceAlpha" type="matrix" values="0 0 0 0 0 0 0 0 0 0 0 0 0 0 0 0 0 0 127 0"/>
<feOffset dy="2"/>
<feGaussianBlur stdDeviation="1"/>
<feColorMatrix type="matrix" values="0 0 0 0 0.475284 0 0 0 0 0.475284 0 0 0 0 0.475284 0 0 0 0.25 0"/>
<feBlend mode="normal" in2="BackgroundImageFix" result="effect1_dropShadow"/>
<feBlend mode="normal" in="SourceGraphic" in2="effect1_dropShadow" result="shape"/>
</filter>
<linearGradient id="paint0_linear" x1="285.77" y1="71.2485" x2="285.8" y2="96.0585" gradientUnits="userSpaceOnUse">
<stop stop-color="#B7BBBF"/>
<stop offset="1" stop-color="#858C95" stop-opacity="0"/>
</linearGradient>
<linearGradient id="paint1_linear" x1="439.432" y1="71.0596" x2="439.462" y2="95.8695" gradientUnits="userSpaceOnUse">
<stop stop-color="#B7BBBF"/>
<stop offset="1" stop-color="#858C95" stop-opacity="0"/>
</linearGradient>
<linearGradient id="paint2_linear" x1="363.367" y1="1.32399" x2="363.479" y2="93.3769" gradientUnits="userSpaceOnUse">
<stop offset="0.57813" stop-color="white"/>
<stop offset="0.953152" stop-color="#E4EBF2"/>
</linearGradient>
<linearGradient id="paint3_linear" x1="363.363" y1="1.55893" x2="363.475" y2="93.6118" gradientUnits="userSpaceOnUse">
<stop offset="0.57813" stop-color="white"/>
<stop offset="0.953152" stop-color="#E4EBF2"/>
</linearGradient>
<linearGradient id="paint4_linear" x1="-31.157" y1="71.633" x2="-31.1268" y2="96.4429" gradientUnits="userSpaceOnUse">
<stop stop-color="#B7BBBF"/>
<stop offset="1" stop-color="#858C95" stop-opacity="0"/>
</linearGradient>
<linearGradient id="paint5_linear" x1="122.505" y1="71.4468" x2="122.535" y2="96.2567" gradientUnits="userSpaceOnUse">
<stop stop-color="#B7BBBF"/>
<stop offset="1" stop-color="#858C95" stop-opacity="0"/>
</linearGradient>
<linearGradient id="paint6_linear" x1="46.0908" y1="2.71122" x2="46.2014" y2="93.5475" gradientUnits="userSpaceOnUse">
<stop offset="0.57813" stop-color="white"/>
<stop offset="0.953152" stop-color="#E4EBF2"/>
</linearGradient>
<linearGradient id="paint7_linear" x1="46.0908" y1="2.71122" x2="46.2014" y2="93.5475" gradientUnits="userSpaceOnUse">
<stop offset="0.57813" stop-color="white"/>
<stop offset="0.953152" stop-color="#E4EBF2"/>
</linearGradient>
</defs>
</svg>
