<svg width="368" height="190" viewBox="0 0 368 190" fill="none" xmlns="http://www.w3.org/2000/svg">
<rect x="0.5" y="0.5" width="367" height="189" rx="7.5" fill="#F2F4F7" stroke="white"/>
<path d="M41.424 38.944C43.152 38.944 43.152 39.024 43.152 40.704C43.152 42.384 43.152 42.464 41.424 42.464H37.392V38.944H41.424ZM41.264 34.208C42.992 34.208 42.992 34.224 42.992 35.808C42.992 37.392 42.992 37.408 41.264 37.408H37.392V34.208H41.264ZM40.176 44C43.152 44 45.072 43.92 45.072 40.848C45.072 40.464 44.912 38.688 43.504 38.336V38.016C44.912 37.664 44.912 36.048 44.912 35.664C44.912 32.688 42.992 32.672 40.016 32.672H35.664V44H40.176ZM59.192 39.584C59.192 37.856 59.192 35.744 55.448 35.744H55.16C54.584 35.744 53.432 35.744 51.896 36.128V37.664H52.28L53.816 37.28H55.256C57.464 37.28 57.464 37.28 57.464 39.296H53.816V40.64H57.464C57.464 42.656 57.464 42.656 55.256 42.656H53.816L52.28 42.272H51.896V43.808C53.432 44.192 54.584 44.192 55.16 44.192H55.448C59.192 44.192 59.192 42.08 59.192 40.352V39.584ZM69.7235 36.384V35.936H67.8995C66.7475 37.472 66.0755 38.368 66.0755 39.2H63.1955V35.936H61.5635V44H63.1955V40.736H66.0755C66.0755 41.568 66.7475 42.464 67.8995 44H69.7235V43.552L67.0195 39.968L69.7235 36.384ZM73.0481 39.968C73.0481 37.28 73.0481 37.2 75.5441 37.2C78.0401 37.2 78.0401 37.28 78.0401 39.968C78.0401 42.656 78.0401 42.736 75.5441 42.736C73.0481 42.736 73.0481 42.656 73.0481 39.968ZM71.3201 40.352C71.3201 41.888 71.3201 44.192 75.1601 44.192H75.9281C79.7681 44.192 79.7681 41.888 79.7681 40.352V39.584C79.7681 38.048 79.7681 35.744 75.9281 35.744H75.1601C71.3201 35.744 71.3201 38.048 71.3201 39.584V40.352ZM88.2056 37.36V44H89.8376V35.936H83.3256C83.2776 37.6 83.1816 38.976 82.8936 41.056C82.7016 42.448 82.5416 42.72 81.1656 42.72V44.032C83.7576 44.032 84.0296 43.728 84.3496 41.344C84.5896 39.584 84.7016 38.352 84.7336 37.36H88.2056ZM93.9388 39.968C93.9388 37.28 93.9388 37.2 96.4348 37.2C98.9308 37.2 98.9308 37.28 98.9308 39.968C98.9308 42.656 98.9308 42.736 96.4348 42.736C93.9388 42.736 93.9388 42.656 93.9388 39.968ZM92.2108 40.352C92.2108 41.888 92.2108 44.192 96.0508 44.192H96.8188C100.659 44.192 100.659 41.888 100.659 40.352V39.584C100.659 38.048 100.659 35.744 96.8188 35.744H96.0508C92.2108 35.744 92.2108 38.048 92.2108 39.584V40.352ZM109.528 35.936H103.032V44H104.664V37.344H109.528V35.936ZM113.522 44C117.698 38.448 117.698 38.16 117.698 37.312H118.114V44H119.746V35.936H117.538C113.362 41.488 113.362 41.776 113.362 42.624H112.93V35.936H111.298V44H113.522ZM122.021 35.936V38.432C122.021 39.584 122.021 41.504 125.189 41.504C126.053 41.504 127.205 41.216 127.973 41.024V44H129.605V35.936H127.973V39.68L126.821 39.968H125.669C123.749 39.968 123.749 39.968 123.749 38.432V35.936H122.021ZM135.912 42.656C133.704 42.656 133.704 42.656 133.704 40.64H135.912C138.216 40.64 138.6 40.64 139.464 40.448L139.848 40.352V39.584C139.848 38.048 139.848 35.744 136.296 35.744H135.528C131.976 35.744 131.976 38.048 131.976 39.584V40.352C131.976 42.08 131.976 44.192 135.912 44.192C136.584 44.192 137.736 44.192 139.272 43.808V42.272H138.888L137.352 42.656H135.912ZM133.704 39.392C133.704 37.28 133.704 37.28 135.912 37.28C138.12 37.28 138.12 37.28 138.12 39.392H133.704ZM145.772 44.192C146.348 44.192 147.596 44.192 149.132 43.808V42.272H148.748L147.196 42.656H146.348C143.564 42.656 143.564 42.656 143.564 39.968C143.564 37.28 143.564 37.28 145.772 37.28C147.596 37.28 147.596 37.28 147.98 38.816L149.516 38.432C149.516 37.664 149.516 35.744 146.156 35.744H145.388C141.836 35.744 141.836 37.856 141.836 39.584V40.352C141.836 42.08 141.836 44.192 145.772 44.192ZM159.849 36.384V35.936H158.025C156.873 37.472 156.201 38.368 156.201 39.2H153.321V35.936H151.689V44H153.321V40.736H156.201C156.201 41.568 156.873 42.464 158.025 44H159.849V43.552L157.145 39.968L159.849 36.384ZM163.173 39.968C163.173 37.28 163.173 37.2 165.669 37.2C168.165 37.2 168.165 37.28 168.165 39.968C168.165 42.656 168.165 42.736 165.669 42.736C163.173 42.736 163.173 42.656 163.173 39.968ZM161.445 40.352C161.445 41.888 161.445 44.192 165.285 44.192H166.053C169.893 44.192 169.893 41.888 169.893 40.352V39.584C169.893 38.048 169.893 35.744 166.053 35.744H165.285C161.445 35.744 161.445 38.048 161.445 39.584V40.352ZM177.019 34.72C178.107 34.72 178.875 34.72 179.883 33.536L178.731 32.672C178.219 33.376 178.203 33.376 177.323 33.376H175.819C174.955 33.376 174.939 33.376 174.411 32.672L173.259 33.536C174.267 34.72 175.035 34.72 176.123 34.72H177.019ZM174.491 44C178.667 38.448 178.667 38.16 178.667 37.312H179.083V44H180.715V35.936H178.507C174.331 41.488 174.331 41.776 174.331 42.624H173.899V35.936H172.267V44H174.491ZM191.662 44.192C192.238 44.192 193.486 44.192 195.022 43.808V42.272H194.638L193.086 42.656H192.238C189.454 42.656 189.454 42.656 189.454 39.968C189.454 37.28 189.454 37.28 191.662 37.28C193.486 37.28 193.486 37.28 193.87 38.816L195.406 38.432C195.406 37.664 195.406 35.744 192.046 35.744H191.278C187.726 35.744 187.726 37.856 187.726 39.584V40.352C187.726 42.08 187.726 44.192 191.662 44.192ZM204.827 35.936H196.763V37.344H199.947V44H201.643V37.344H204.827V35.936ZM206.767 35.936V47.264H208.399V43.808C209.167 44 209.935 44.192 211.375 44.192C215.023 44.192 215.023 41.696 215.023 40.352V39.584C215.023 38.048 215.023 35.744 211.567 35.744C209.647 35.744 208.591 36.544 208.207 36.832L207.535 35.936H206.767ZM213.295 39.968C213.295 42.64 213.295 42.656 210.703 42.656C210.127 42.656 209.167 42.656 208.399 42.464V37.856L210.703 37.28H210.975C213.295 37.28 213.295 37.376 213.295 39.968ZM224.048 44.192L225.264 43.28C224.688 42.512 224.688 42.512 224.688 40.928V39.584C224.688 37.664 224.688 35.744 220.944 35.744C220.368 35.744 219.12 35.744 217.584 36.128V37.664H217.968L219.504 37.28H220.944C223.056 37.28 223.056 37.28 223.056 39.296H220.944C216.912 39.296 216.912 40.64 216.912 41.888C216.912 42.656 216.912 44.192 219.792 44.192C221.776 44.192 222.848 43.392 223.232 43.104L224.048 44.192ZM218.736 41.696C218.736 40.544 218.736 40.544 220.944 40.544H223.056V42.08L220.752 42.656H219.888C218.736 42.656 218.736 42.656 218.736 41.696ZM234.593 35.936H226.529V37.344H229.713V44H231.409V37.344H234.593V35.936ZM240.084 42.656C237.876 42.656 237.876 42.656 237.876 40.64H240.084C242.388 40.64 242.772 40.64 243.636 40.448L244.02 40.352V39.584C244.02 38.048 244.02 35.744 240.468 35.744H239.7C236.148 35.744 236.148 38.048 236.148 39.584V40.352C236.148 42.08 236.148 44.192 240.084 44.192C240.756 44.192 241.908 44.192 243.444 43.808V42.272H243.06L241.524 42.656H240.084ZM237.876 39.392C237.876 37.28 237.876 37.28 240.084 37.28C242.292 37.28 242.292 37.28 242.292 39.392H237.876ZM252.888 35.936H246.392V44H248.024V37.344H252.888V35.936ZM256.881 44C261.057 38.448 261.057 38.16 261.057 37.312H261.473V44H263.105V35.936H260.897C256.721 41.488 256.721 41.776 256.721 42.624H256.289V35.936H254.657V44H256.881ZM268.084 44C272.26 38.448 272.26 38.16 272.26 37.312H272.676V44H274.308V35.936H272.1C267.924 41.488 267.924 41.776 267.924 42.624H267.492V35.936H265.86V44H268.084ZM283.72 34.208H287.08C289.544 34.208 289.576 34.208 289.576 36.608C289.576 38.976 289.576 39.008 287.08 39.008H283.72V34.208ZM281.992 44H283.72V40.544H285.928C289.576 40.544 291.4 40.544 291.4 36.608C291.4 32.672 289.576 32.672 285.928 32.672H281.992V44ZM292.624 43.424V44H294.544C296.56 41.312 297.616 39.904 297.616 39.104H300.016V44H301.744V39.104H304.144C304.144 39.904 305.2 41.312 307.216 44H309.136V43.424L305.312 38.336L309.136 33.248V32.672H307.216C305.2 35.36 304.144 36.768 304.144 37.568H301.744V32.672H300.016V37.568H297.616C297.616 36.768 296.56 35.36 294.544 32.672H292.624V33.248L296.448 38.336L292.624 43.424ZM314.63 34.208H318.982V42.464H313.094C314.47 39.392 314.63 36.736 314.63 34.208ZM320.518 44V46.464H322.054V42.464H320.71V32.672H312.966V34.208C312.966 36.736 312.726 39.376 311.286 42.464H310.31V46.464H311.846V44H320.518ZM36.128 73H43.152V75.304H44.72V71.656H43.376V64.936H36.816V65.896C36.816 67.8 36.608 69.832 35.664 71.656H34.56V75.304H36.128V73ZM38.384 66.344H41.744V71.656H37.424C38.192 69.816 38.384 67.864 38.384 66.344ZM48.0013 68.968C48.0013 66.28 48.0013 66.2 50.4973 66.2C52.9933 66.2 52.9933 66.28 52.9933 68.968C52.9933 71.656 52.9933 71.736 50.4973 71.736C48.0013 71.736 48.0013 71.656 48.0013 68.968ZM46.2733 69.352C46.2733 70.888 46.2733 73.192 50.1133 73.192H50.8813C54.7213 73.192 54.7213 70.888 54.7213 69.352V68.584C54.7213 67.048 54.7213 64.744 50.8813 64.744H50.1133C46.2733 64.744 46.2733 67.048 46.2733 68.584V69.352ZM65.8954 61.416C61.6074 61.416 61.6074 63.976 61.6074 64.744V64.84L63.0794 65.224C63.6554 63.016 63.6554 63.016 65.8954 63.016C68.4874 63.016 68.4874 63.016 68.4874 64.744C68.4874 66.376 68.4874 66.536 66.0874 67.144L64.1674 67.624C61.6714 68.248 61.6714 69.576 61.6714 70.728V73H70.1194V71.464H63.2074V70.728C63.2074 69.48 63.2074 69.48 64.3594 69.192L67.0474 68.52C70.3114 67.704 70.3114 66.28 70.3114 64.76C70.3114 63.4 70.3114 61.416 65.8954 61.416ZM76.9705 61.416C74.6665 61.416 72.4585 61.48 72.4585 66.856V67.816C72.4585 73.256 74.6665 73.256 76.9705 73.256H77.3545C79.6585 73.256 81.8665 73.256 81.8665 67.816V66.856C81.8665 61.48 79.6585 61.416 77.3545 61.416H76.9705ZM74.2825 67.144C74.2825 63.016 74.2825 63.016 77.1625 63.016C80.0425 63.016 80.0425 63.016 80.0425 67.144V67.528C80.0425 71.656 80.0425 71.656 77.1625 71.656C74.2825 71.656 74.2825 71.656 74.2825 67.528V67.144ZM88.6536 67.912C90.8616 67.912 90.8616 67.912 90.8616 69.736C90.8616 71.656 90.8616 71.656 88.2696 71.656H86.9256L84.6216 71.08H84.0456V72.648C86.4776 73.256 87.6936 73.256 88.4616 73.256C92.6856 73.256 92.6856 70.792 92.6856 69.928V69.544C92.6856 66.664 90.5736 66.664 89.5496 66.664H89.0376V66.312L89.9336 65.64C92.3016 63.864 92.3016 63.864 92.3016 63.016V61.672H84.0456V64.744H85.4856V63.208H90.5096V63.576L85.9656 66.984L87.0216 68.392C87.6616 67.912 88.2696 67.912 88.6536 67.912ZM99.3768 61.416C97.0728 61.416 94.8648 61.48 94.8648 66.856V67.816C94.8648 73.256 97.0728 73.256 99.3768 73.256H99.7608C102.065 73.256 104.273 73.256 104.273 67.816V66.856C104.273 61.48 102.065 61.416 99.7608 61.416H99.3768ZM96.6888 67.144C96.6888 63.016 96.6888 63.016 99.5688 63.016C102.449 63.016 102.449 63.016 102.449 67.144V67.528C102.449 71.656 102.449 71.656 99.5688 71.656C96.6888 71.656 96.6888 71.656 96.6888 67.528V67.144ZM117.685 64.936H111.189V73H112.821V66.344H117.685V64.936ZM120.798 68.968C120.798 66.28 120.798 66.2 123.294 66.2C125.79 66.2 125.79 66.28 125.79 68.968C125.79 71.656 125.79 71.736 123.294 71.736C120.798 71.736 120.798 71.656 120.798 68.968ZM119.07 69.352C119.07 70.888 119.07 73.192 122.91 73.192H123.678C127.518 73.192 127.518 70.888 127.518 69.352V68.584C127.518 67.048 127.518 64.744 123.678 64.744H122.91C119.07 64.744 119.07 67.048 119.07 68.584V69.352ZM130.644 73H137.668V75.304H139.236V71.656H137.892V64.936H131.332V65.896C131.332 67.8 131.124 69.832 130.18 71.656H129.076V75.304H130.644V73ZM132.9 66.344H136.26V71.656H131.94C132.708 69.816 132.9 67.864 132.9 66.344ZM147.829 73.192L149.045 72.28C148.469 71.512 148.469 71.512 148.469 69.928V68.584C148.469 66.664 148.469 64.744 144.725 64.744C144.149 64.744 142.901 64.744 141.365 65.128V66.664H141.749L143.285 66.28H144.725C146.837 66.28 146.837 66.28 146.837 68.296H144.725C140.693 68.296 140.693 69.64 140.693 70.888C140.693 71.656 140.693 73.192 143.573 73.192C145.557 73.192 146.629 72.392 147.013 72.104L147.829 73.192ZM142.517 70.696C142.517 69.544 142.517 69.544 144.725 69.544H146.837V71.08L144.533 71.656H143.669C142.517 71.656 142.517 71.656 142.517 70.696ZM162.103 64.936H155.767V73H157.399V66.344H162.103V73H163.735V64.936H162.103ZM166.485 64.936V76.264H168.117V72.808C168.885 73 169.653 73.192 171.093 73.192C174.741 73.192 174.741 70.696 174.741 69.352V68.584C174.741 67.048 174.741 64.744 171.285 64.744C169.365 64.744 168.309 65.544 167.925 65.832L167.253 64.936H166.485ZM173.013 68.968C173.013 71.64 173.013 71.656 170.421 71.656C169.845 71.656 168.885 71.656 168.117 71.464V66.856L170.421 66.28H170.693C173.013 66.28 173.013 66.376 173.013 68.968ZM180.662 71.656C178.454 71.656 178.454 71.656 178.454 69.64H180.662C182.966 69.64 183.35 69.64 184.214 69.448L184.598 69.352V68.584C184.598 67.048 184.598 64.744 181.046 64.744H180.278C176.726 64.744 176.726 67.048 176.726 68.584V69.352C176.726 71.08 176.726 73.192 180.662 73.192C181.334 73.192 182.486 73.192 184.022 72.808V71.272H183.638L182.102 71.656H180.662ZM178.454 68.392C178.454 66.28 178.454 66.28 180.662 66.28C182.87 66.28 182.87 66.28 182.87 68.392H178.454ZM187.722 73H194.746V75.304H196.314V71.656H194.97V64.936H188.41V65.896C188.41 67.8 188.202 69.832 187.258 71.656H186.154V75.304H187.722V73ZM189.978 66.344H193.338V71.656H189.018C189.786 69.816 189.978 67.864 189.978 66.344ZM200.923 71.272C200.923 70.696 200.923 70.696 199.275 66.376V64.936H197.547C197.547 66.616 197.547 66.616 200.107 72.616H201.723L201.147 74.152C200.843 74.92 200.715 74.92 199.803 74.92H198.539V76.456H199.371C200.619 76.456 201.867 76.408 202.587 74.664L205.243 67.512C205.611 66.616 205.611 66.616 205.611 65.256V64.936H203.931V66.376C202.411 70.728 202.427 70.728 202.427 71.272H200.923ZM210.959 73.192C211.535 73.192 212.783 73.192 214.319 72.808V71.272H213.935L212.383 71.656H211.535C208.751 71.656 208.751 71.656 208.751 68.968C208.751 66.28 208.751 66.28 210.959 66.28C212.783 66.28 212.783 66.28 213.167 67.816L214.703 67.432C214.703 66.664 214.703 64.744 211.343 64.744H210.575C207.023 64.744 207.023 66.856 207.023 68.584V69.352C207.023 71.08 207.023 73.192 210.959 73.192ZM216.876 64.936V73H218.508V66.376H218.924C218.924 66.76 218.924 66.76 221.42 73H223.564C226.06 66.76 226.06 66.76 226.06 66.28H226.476V73H228.108V64.936H225.196C222.7 70.936 222.7 70.936 222.7 71.656H222.284C222.284 70.936 222.284 70.936 219.788 64.936H216.876ZM232.204 68.968C232.204 66.28 232.204 66.2 234.7 66.2C237.196 66.2 237.196 66.28 237.196 68.968C237.196 71.656 237.196 71.736 234.7 71.736C232.204 71.736 232.204 71.656 232.204 68.968ZM230.476 69.352C230.476 70.888 230.476 73.192 234.316 73.192H235.084C238.924 73.192 238.924 70.888 238.924 69.352V68.584C238.924 67.048 238.924 64.744 235.084 64.744H234.316C230.476 64.744 230.476 67.048 230.476 68.584V69.352ZM248.546 64.936H240.482V66.344H243.666V73H245.362V66.344H248.546V64.936ZM250.485 64.936V76.264H252.117V72.808C252.885 73 253.653 73.192 255.093 73.192C258.741 73.192 258.741 70.696 258.741 69.352V68.584C258.741 67.048 258.741 64.744 255.285 64.744C253.365 64.744 252.309 65.544 251.925 65.832L251.253 64.936H250.485ZM257.013 68.968C257.013 71.64 257.013 71.656 254.421 71.656C253.845 71.656 252.885 71.656 252.117 71.464V66.856L254.421 66.28H254.693C257.013 66.28 257.013 66.376 257.013 68.968ZM264.662 71.656C262.454 71.656 262.454 71.656 262.454 69.64H264.662C266.966 69.64 267.35 69.64 268.214 69.448L268.598 69.352V68.584C268.598 67.048 268.598 64.744 265.046 64.744H264.278C260.726 64.744 260.726 67.048 260.726 68.584V69.352C260.726 71.08 260.726 73.192 264.662 73.192C265.334 73.192 266.486 73.192 268.022 72.808V71.272H267.638L266.102 71.656H264.662ZM262.454 68.392C262.454 66.28 262.454 66.28 264.662 66.28C266.87 66.28 266.87 66.28 266.87 68.392H262.454ZM277.306 64.936V68.184H272.602V64.936H270.97V73H272.602V69.592H277.306V73H278.938V64.936H277.306ZM283.033 68.968C283.033 66.28 283.033 66.2 285.529 66.2C288.025 66.2 288.025 66.28 288.025 68.968C288.025 71.656 288.025 71.736 285.529 71.736C283.033 71.736 283.033 71.656 283.033 68.968ZM281.305 69.352C281.305 70.888 281.305 73.192 285.145 73.192H285.913C289.753 73.192 289.753 70.888 289.753 69.352V68.584C289.753 67.048 289.753 64.744 285.913 64.744H285.145C281.305 64.744 281.305 67.048 281.305 68.584V69.352ZM297.519 73H304.543V75.304H306.111V71.656H304.767V64.936H298.207V65.896C298.207 67.8 297.999 69.832 297.055 71.656H295.951V75.304H297.519V73ZM299.775 66.344H303.135V71.656H298.815C299.583 69.816 299.775 67.864 299.775 66.344ZM308.048 73H311.776C313.696 73 315.632 73 315.632 70.984C315.632 70.312 315.472 69.448 313.936 69.064V68.872C315.472 68.488 315.472 67.624 315.472 66.952C315.472 64.936 313.696 64.936 311.776 64.936H308.048V73ZM312.368 69.544C313.792 69.544 313.808 69.544 313.808 70.6C313.808 71.64 313.808 71.656 312.368 71.656H309.68V69.544H312.368ZM312.208 66.28C313.632 66.28 313.648 66.28 313.648 67.336C313.648 68.376 313.648 68.392 312.208 68.392H309.68V66.28H312.208ZM324.657 73.192L325.873 72.28C325.297 71.512 325.297 71.512 325.297 69.928V68.584C325.297 66.664 325.297 64.744 321.553 64.744C320.977 64.744 319.729 64.744 318.193 65.128V66.664H318.577L320.113 66.28H321.553C323.665 66.28 323.665 66.28 323.665 68.296H321.553C317.521 68.296 317.521 69.64 317.521 70.888C317.521 71.656 317.521 73.192 320.401 73.192C322.385 73.192 323.457 72.392 323.841 72.104L324.657 73.192ZM319.345 70.696C319.345 69.544 319.345 69.544 321.553 69.544H323.665V71.08L321.361 71.656H320.497C319.345 71.656 319.345 71.656 319.345 70.696ZM35.376 102H39.104C41.024 102 42.96 102 42.96 99.984C42.96 99.312 42.8 98.448 41.264 98.064V97.872C42.8 97.488 42.8 96.624 42.8 95.952C42.8 93.936 41.024 93.936 39.104 93.936H35.376V102ZM39.696 98.544C41.12 98.544 41.136 98.544 41.136 99.6C41.136 100.64 41.136 100.656 39.696 100.656H37.008V98.544H39.696ZM39.536 95.28C40.96 95.28 40.976 95.28 40.976 96.336C40.976 97.376 40.976 97.392 39.536 97.392H37.008V95.28H39.536ZM46.6731 97.968C46.6731 95.28 46.6731 95.2 49.1691 95.2C51.6651 95.2 51.6651 95.28 51.6651 97.968C51.6651 100.656 51.6651 100.736 49.1691 100.736C46.6731 100.736 46.6731 100.656 46.6731 97.968ZM44.9451 98.352C44.9451 99.888 44.9451 102.192 48.7851 102.192H49.5531C53.3931 102.192 53.3931 99.888 53.3931 98.352V97.584C53.3931 96.048 53.3931 93.744 49.5531 93.744H48.7851C44.9451 93.744 44.9451 96.048 44.9451 97.584V98.352ZM57.2066 100.656L55.6706 100.272H55.2866V101.808C56.8226 102.192 58.0546 102.192 58.6306 102.192C62.2626 102.192 62.4386 100.656 62.4386 99.888C62.4386 99.504 62.4386 98.448 60.9026 98.064V97.872C62.4386 97.488 62.4386 96.432 62.4386 96.048C62.4386 95.28 62.2786 93.744 58.6306 93.744C58.0546 93.744 56.8226 93.744 55.2866 94.128V95.664H55.6706L57.2066 95.28H59.1746C60.6146 95.28 60.6146 95.28 60.6146 96.304C60.6146 97.296 60.6146 97.296 59.1746 97.296H57.2066V98.64H59.1746C60.6146 98.64 60.6146 98.64 60.6146 99.632C60.6146 100.656 60.6146 100.656 59.1746 100.656H57.2066ZM64.7823 93.936V102H66.4143V95.376H66.8303C66.8303 95.76 66.8303 95.76 69.3263 102H71.4703C73.9663 95.76 73.9663 95.76 73.9663 95.28H74.3823V102H76.0143V93.936H73.1023C70.6063 99.936 70.6063 99.936 70.6063 100.656H70.1903C70.1903 99.936 70.1903 99.936 67.6943 93.936H64.7823ZM80.1106 97.968C80.1106 95.28 80.1106 95.2 82.6066 95.2C85.1026 95.2 85.1026 95.28 85.1026 97.968C85.1026 100.656 85.1026 100.736 82.6066 100.736C80.1106 100.736 80.1106 100.656 80.1106 97.968ZM78.3826 98.352C78.3826 99.888 78.3826 102.192 82.2226 102.192H82.9906C86.8306 102.192 86.8306 99.888 86.8306 98.352V97.584C86.8306 96.048 86.8306 93.744 82.9906 93.744H82.2226C78.3826 93.744 78.3826 96.048 78.3826 97.584V98.352ZM94.2624 93.936V97.2H92.0864C92.0864 96.368 91.4144 95.472 90.2624 93.936H88.4384V94.384L91.1264 97.968L88.4384 101.552V102H90.2624C91.4144 100.464 92.0864 99.568 92.0864 98.736H94.2624V102H95.8944V98.736H98.0704C98.0704 99.568 98.7424 100.464 99.8944 102H101.718V101.552L99.0144 97.968L101.718 94.384V93.936H99.8944C98.7424 95.472 98.0704 96.368 98.0704 97.2H95.8944V93.936H94.2624ZM110.134 93.936V97.184H105.43V93.936H103.798V102H105.43V98.592H110.134V102H111.766V93.936H110.134ZM123.349 93.936V102H124.981V93.936H123.349ZM114.517 102H117.973C119.989 102 121.717 102 121.717 99.312C121.717 98.352 121.717 96.432 118.357 96.432C117.685 96.432 116.917 96.528 116.149 96.72V93.936H114.517V102ZM118.165 97.968C119.989 97.968 119.989 97.968 119.989 99.312C119.989 100.656 119.989 100.656 118.165 100.656H116.149V97.968H118.165ZM128.791 102C129.943 100.464 130.615 99.568 130.615 98.736H131.863C131.863 99.568 132.535 100.464 133.687 102H135.511V101.552L132.823 97.968L135.511 94.384V93.936H133.687C132.535 95.472 131.863 96.368 131.863 97.2H130.615C130.615 96.368 129.943 95.472 128.791 93.936H126.967V94.384L129.655 97.968L126.967 101.552V102H128.791ZM145.694 102.192C146.27 102.192 147.518 102.192 149.054 101.808V100.272H148.67L147.118 100.656H146.27C143.486 100.656 143.486 100.656 143.486 97.968C143.486 95.28 143.486 95.28 145.694 95.28C147.518 95.28 147.518 95.28 147.902 96.816L149.438 96.432C149.438 95.664 149.438 93.744 146.078 93.744H145.31C141.758 93.744 141.758 95.856 141.758 97.584V98.352C141.758 100.08 141.758 102.192 145.694 102.192ZM160.922 104.304V100.656H159.578V93.936H157.946V100.656H153.242V93.936H151.61V102H159.354V104.304H160.922ZM166.412 100.656C164.204 100.656 164.204 100.656 164.204 98.64H166.412C168.716 98.64 169.1 98.64 169.964 98.448L170.348 98.352V97.584C170.348 96.048 170.348 93.744 166.796 93.744H166.028C162.476 93.744 162.476 96.048 162.476 97.584V98.352C162.476 100.08 162.476 102.192 166.412 102.192C167.084 102.192 168.236 102.192 169.772 101.808V100.272H169.388L167.852 100.656H166.412ZM164.204 97.392C164.204 95.28 164.204 95.28 166.412 95.28C168.62 95.28 168.62 95.28 168.62 97.392H164.204ZM179.056 93.936V97.184H174.352V93.936H172.72V102H174.352V98.592H179.056V102H180.688V93.936H179.056ZM190.095 102.192L191.311 101.28C190.735 100.512 190.735 100.512 190.735 98.928V97.584C190.735 95.664 190.735 93.744 186.991 93.744C186.415 93.744 185.167 93.744 183.631 94.128V95.664H184.015L185.551 95.28H186.991C189.103 95.28 189.103 95.28 189.103 97.296H186.991C182.959 97.296 182.959 98.64 182.959 99.888C182.959 100.656 182.959 102.192 185.839 102.192C187.823 102.192 188.895 101.392 189.279 101.104L190.095 102.192ZM184.783 99.696C184.783 98.544 184.783 98.544 186.991 98.544H189.103V100.08L186.799 100.656H185.935C184.783 100.656 184.783 100.656 184.783 99.696ZM193.392 93.936V105.264H195.024V101.808C195.792 102 196.56 102.192 198 102.192C201.648 102.192 201.648 99.696 201.648 98.352V97.584C201.648 96.048 201.648 93.744 198.192 93.744C196.272 93.744 195.216 94.544 194.832 94.832L194.16 93.936H193.392ZM199.92 97.968C199.92 100.64 199.92 100.656 197.328 100.656C196.752 100.656 195.792 100.656 195.024 100.464V95.856L197.328 95.28H197.6C199.92 95.28 199.92 95.376 199.92 97.968ZM206.241 102C210.417 96.448 210.417 96.16 210.417 95.312H210.833V102H212.465V93.936H210.257C206.081 99.488 206.081 99.776 206.081 100.624H205.649V93.936H204.017V102H206.241ZM222.516 102V93.936H219.06C216.66 93.936 214.74 93.936 214.74 96.528C214.74 97.936 215.22 98.304 216.564 99.312L214.884 101.552V102H216.708C217.284 101.264 217.908 100.496 217.908 99.312H220.884V102H222.516ZM218.388 97.968C216.58 97.968 216.564 97.968 216.564 96.624C216.564 95.296 216.564 95.28 218.388 95.28H220.884V97.968H218.388ZM226.131 93.936C225.171 93.936 225.171 94.512 225.171 94.896V95.28C225.171 95.664 225.171 96.24 226.131 96.24H226.899C227.859 96.24 227.859 95.664 227.859 95.28V94.896C227.859 94.512 227.859 93.936 226.899 93.936H226.131ZM226.131 99.696C225.171 99.696 225.171 100.272 225.171 100.656V101.04C225.171 101.424 225.171 102 226.131 102H226.899C227.859 102 227.859 101.424 227.859 101.04V100.656C227.859 100.272 227.859 99.696 226.899 99.696H226.131ZM212.084 131C216.26 125.448 216.26 125.16 216.26 124.312H216.676V131H218.308V122.936H216.1C211.924 128.488 211.924 128.776 211.924 129.624H211.492V122.936H209.86V131H212.084ZM231.08 121.592C231.944 121.384 232.792 121.16 233.096 119.96L233.192 119.576L231.656 119.192C231.464 119.768 231.48 119.768 230.696 119.96L228.776 120.44C225.512 121.256 225.512 123.416 225.512 125.912V126.536C225.512 129.224 225.512 131.192 229.448 131.192H230.216C234.056 131.192 234.056 129.272 234.056 127.832V126.968C234.056 125.528 234.056 123.608 230.6 123.608C228.296 123.608 227.528 124.136 227.176 124.568L226.888 124.472C227.368 122.552 227.368 122.52 229.16 122.072L231.08 121.592ZM229.832 125.032C232.328 125.032 232.328 125.384 232.328 127.4C232.328 129.416 232.328 129.768 229.704 129.768C227.336 129.768 227.336 129.416 227.336 127.4C227.336 125.384 227.336 125.032 229.832 125.032ZM237.673 126.968C237.673 124.28 237.673 124.2 240.169 124.2C242.665 124.2 242.665 124.28 242.665 126.968C242.665 129.656 242.665 129.736 240.169 129.736C237.673 129.736 237.673 129.656 237.673 126.968ZM235.945 127.352C235.945 128.888 235.945 131.192 239.785 131.192H240.553C244.393 131.192 244.393 128.888 244.393 127.352V126.584C244.393 125.048 244.393 122.744 240.553 122.744H239.785C235.945 122.744 235.945 125.048 235.945 126.584V127.352ZM252.831 124.36V131H254.463V122.936H247.951C247.903 124.6 247.807 125.976 247.519 128.056C247.327 129.448 247.167 129.72 245.791 129.72V131.032C248.383 131.032 248.655 130.728 248.975 128.344C249.215 126.584 249.327 125.352 249.359 124.36H252.831ZM260.772 129.656C258.564 129.656 258.564 129.656 258.564 127.64H260.772C263.076 127.64 263.46 127.64 264.324 127.448L264.708 127.352V126.584C264.708 125.048 264.708 122.744 261.156 122.744H260.388C256.836 122.744 256.836 125.048 256.836 126.584V127.352C256.836 129.08 256.836 131.192 260.772 131.192C261.444 131.192 262.596 131.192 264.132 130.808V129.272H263.748L262.212 129.656H260.772ZM258.564 126.392C258.564 124.28 258.564 124.28 260.772 124.28C262.98 124.28 262.98 124.28 262.98 126.392H258.564ZM270.631 129.656C268.423 129.656 268.423 129.656 268.423 127.64H270.631C272.935 127.64 273.319 127.64 274.183 127.448L274.567 127.352V126.584C274.567 125.048 274.567 122.744 271.015 122.744H270.247C266.695 122.744 266.695 125.048 266.695 126.584V127.352C266.695 129.08 266.695 131.192 270.631 131.192C271.303 131.192 272.455 131.192 273.991 130.808V129.272H273.607L272.071 129.656H270.631ZM268.423 126.392C268.423 124.28 268.423 124.28 270.631 124.28C272.839 124.28 272.839 124.28 272.839 126.392H268.423ZM36.72 155.968C36.72 153.28 36.72 153.2 39.216 153.2C41.712 153.2 41.712 153.28 41.712 155.968C41.712 158.656 41.712 158.736 39.216 158.736C36.72 158.736 36.72 158.656 36.72 155.968ZM34.992 156.352C34.992 157.888 34.992 160.192 38.832 160.192H39.6C43.44 160.192 43.44 157.888 43.44 156.352V155.584C43.44 154.048 43.44 151.744 39.6 151.744H38.832C34.992 151.744 34.992 154.048 34.992 155.584V156.352ZM52.1495 151.936H45.8135V160H47.4455V153.344H52.1495V160H53.7815V151.936H52.1495ZM63.7803 151.936H55.7163V153.344H58.9003V160H60.5963V153.344H63.7803V151.936ZM67.9438 160C72.1198 154.448 72.1198 154.16 72.1198 153.312H72.5358V160H74.1678V151.936H71.9598C67.7838 157.488 67.7838 157.776 67.7838 158.624H67.3518V151.936H65.7198V160H67.9438ZM76.9229 151.936V160H78.5549V153.376H78.9709C78.9709 153.76 78.9709 153.76 81.4669 160H83.6109C86.1069 153.76 86.1069 153.76 86.1069 153.28H86.5229V160H88.1549V151.936H85.2429C82.7469 157.936 82.7469 157.936 82.7469 158.656H82.3309C82.3309 157.936 82.3309 157.936 79.8349 151.936H76.9229ZM93.1313 160C97.3073 154.448 97.3073 154.16 97.3073 153.312H97.7233V160H99.3553V151.936H97.1473C92.9713 157.488 92.9713 157.776 92.9713 158.624H92.5393V151.936H90.9073V160H93.1313ZM105.662 160.192C106.238 160.192 107.486 160.192 109.022 159.808V158.272H108.638L107.086 158.656H106.238C103.454 158.656 103.454 158.656 103.454 155.968C103.454 153.28 103.454 153.28 105.662 153.28C107.486 153.28 107.486 153.28 107.87 154.816L109.406 154.432C109.406 153.664 109.406 151.744 106.046 151.744H105.278C101.726 151.744 101.726 153.856 101.726 155.584V156.352C101.726 158.08 101.726 160.192 105.662 160.192ZM118.827 151.936H110.763V153.344H113.947V160H115.643V153.344H118.827V151.936ZM122.991 160C127.167 154.448 127.167 154.16 127.167 153.312H127.583V160H129.215V151.936H127.007C122.831 157.488 122.831 157.776 122.831 158.624H122.399V151.936H120.767V160H122.991ZM131.49 151.936V154.432C131.49 155.584 131.49 157.504 134.658 157.504C135.522 157.504 136.674 157.216 137.442 157.024V160H139.074V151.936H137.442V155.68L136.29 155.968H135.138C133.218 155.968 133.218 155.968 133.218 154.432V151.936H131.49ZM148.165 151.936V155.184H143.461V151.936H141.829V160H143.461V156.592H148.165V160H149.797V151.936H148.165ZM161.38 151.936V160H163.012V151.936H161.38ZM152.548 160H156.004C158.02 160 159.748 160 159.748 157.312C159.748 156.352 159.748 154.432 156.388 154.432C155.716 154.432 154.948 154.528 154.18 154.72V151.936H152.548V160ZM156.196 155.968C158.02 155.968 158.02 155.968 158.02 157.312C158.02 158.656 158.02 158.656 156.196 158.656H154.18V155.968H156.196ZM170.519 150.72C171.607 150.72 172.375 150.72 173.383 149.536L172.231 148.672C171.719 149.376 171.703 149.376 170.823 149.376H169.319C168.455 149.376 168.439 149.376 167.911 148.672L166.759 149.536C167.767 150.72 168.535 150.72 169.623 150.72H170.519ZM167.991 160C172.167 154.448 172.167 154.16 172.167 153.312H172.583V160H174.215V151.936H172.007C167.831 157.488 167.831 157.776 167.831 158.624H167.399V151.936H165.767V160H167.991Z" fill="#363636"/>
<path d="M66.7391 123.384V122.936H64.9151C63.7631 124.472 63.0911 125.368 63.0911 126.2H60.2111V122.936H58.5791V131H60.2111V127.736H63.0911C63.0911 128.568 63.7631 129.464 64.9151 131H66.7391V130.552L64.0351 126.968L66.7391 123.384ZM70.0638 126.968C70.0638 124.28 70.0638 124.2 72.5598 124.2C75.0558 124.2 75.0558 124.28 75.0558 126.968C75.0558 129.656 75.0558 129.736 72.5598 129.736C70.0638 129.736 70.0638 129.656 70.0638 126.968ZM68.3358 127.352C68.3358 128.888 68.3358 131.192 72.1758 131.192H72.9438C76.7838 131.192 76.7838 128.888 76.7838 127.352V126.584C76.7838 125.048 76.7838 122.744 72.9438 122.744H72.1758C68.3358 122.744 68.3358 125.048 68.3358 126.584V127.352ZM85.4933 122.936V126.184H80.7893V122.936H79.1573V131H80.7893V127.592H85.4933V131H87.1253V122.936H85.4933ZM93.428 131.192C94.004 131.192 95.252 131.192 96.788 130.808V129.272H96.404L94.852 129.656H94.004C91.22 129.656 91.22 129.656 91.22 126.968C91.22 124.28 91.22 124.28 93.428 124.28C95.252 124.28 95.252 124.28 95.636 125.816L97.172 125.432C97.172 124.664 97.172 122.744 93.812 122.744H93.044C89.492 122.744 89.492 124.856 89.492 126.584V127.352C89.492 129.08 89.492 131.192 93.428 131.192ZM102.897 129.656C100.689 129.656 100.689 129.656 100.689 127.64H102.897C105.201 127.64 105.585 127.64 106.449 127.448L106.833 127.352V126.584C106.833 125.048 106.833 122.744 103.281 122.744H102.513C98.9608 122.744 98.9608 125.048 98.9608 126.584V127.352C98.9608 129.08 98.9608 131.192 102.897 131.192C103.569 131.192 104.721 131.192 106.257 130.808V129.272H105.873L104.337 129.656H102.897ZM100.689 126.392C100.689 124.28 100.689 124.28 102.897 124.28C105.105 124.28 105.105 124.28 105.105 126.392H100.689ZM109.204 122.936V134.264H110.836V130.808C111.604 131 112.372 131.192 113.812 131.192C117.46 131.192 117.46 128.696 117.46 127.352V126.584C117.46 125.048 117.46 122.744 114.004 122.744C112.084 122.744 111.028 123.544 110.644 123.832L109.972 122.936H109.204ZM115.732 126.968C115.732 129.64 115.732 129.656 113.14 129.656C112.564 129.656 111.604 129.656 110.836 129.464V124.856L113.14 124.28H113.412C115.732 124.28 115.732 124.376 115.732 126.968ZM119.829 131H123.557C125.477 131 127.413 131 127.413 128.984C127.413 128.312 127.253 127.448 125.717 127.064V126.872C127.253 126.488 127.253 125.624 127.253 124.952C127.253 122.936 125.477 122.936 123.557 122.936H119.829V131ZM124.149 127.544C125.573 127.544 125.589 127.544 125.589 128.6C125.589 129.64 125.589 129.656 124.149 129.656H121.461V127.544H124.149ZM123.989 124.28C125.413 124.28 125.429 124.28 125.429 125.336C125.429 126.376 125.429 126.392 123.989 126.392H121.461V124.28H123.989ZM136.438 131.192L137.654 130.28C137.078 129.512 137.078 129.512 137.078 127.928V126.584C137.078 124.664 137.078 122.744 133.334 122.744C132.758 122.744 131.51 122.744 129.974 123.128V124.664H130.358L131.894 124.28H133.334C135.446 124.28 135.446 124.28 135.446 126.296H133.334C129.302 126.296 129.302 127.64 129.302 128.888C129.302 129.656 129.302 131.192 132.182 131.192C134.166 131.192 135.238 130.392 135.622 130.104L136.438 131.192ZM131.126 128.696C131.126 127.544 131.126 127.544 133.334 127.544H135.446V129.08L133.142 129.656H132.278C131.126 129.656 131.126 129.656 131.126 128.696ZM146.983 122.936H138.919V124.344H142.103V131H143.799V124.344H146.983V122.936ZM151.147 131C155.323 125.448 155.323 125.16 155.323 124.312H155.739V131H157.371V122.936H155.163C150.987 128.488 150.987 128.776 150.987 129.624H150.555V122.936H148.923V131H151.147ZM160.126 131H163.854C165.774 131 167.71 131 167.71 128.984C167.71 128.312 167.55 127.448 166.014 127.064V126.872C167.55 126.488 167.55 125.624 167.55 124.952C167.55 122.936 165.774 122.936 163.854 122.936H160.126V131ZM164.446 127.544C165.87 127.544 165.886 127.544 165.886 128.6C165.886 129.64 165.886 129.656 164.446 129.656H161.758V127.544H164.446ZM164.286 124.28C165.71 124.28 165.726 124.28 165.726 125.336C165.726 126.376 165.726 126.392 164.286 126.392H161.758V124.28H164.286ZM176.415 122.936V126.184H171.711V122.936H170.079V131H171.711V127.592H176.415V131H178.047V122.936H176.415ZM189.63 122.936V131H191.262V122.936H189.63ZM180.798 131H184.254C186.27 131 187.998 131 187.998 128.312C187.998 127.352 187.998 125.432 184.638 125.432C183.966 125.432 183.198 125.528 182.43 125.72V122.936H180.798V131ZM184.446 126.968C186.27 126.968 186.27 126.968 186.27 128.312C186.27 129.656 186.27 129.656 184.446 129.656H182.43V126.968H184.446ZM198.769 121.72C199.857 121.72 200.625 121.72 201.633 120.536L200.481 119.672C199.969 120.376 199.953 120.376 199.073 120.376H197.569C196.705 120.376 196.689 120.376 196.161 119.672L195.009 120.536C196.017 121.72 196.785 121.72 197.873 121.72H198.769ZM196.241 131C200.417 125.448 200.417 125.16 200.417 124.312H200.833V131H202.465V122.936H200.257C196.081 128.488 196.081 128.776 196.081 129.624H195.649V122.936H194.017V131H196.241Z" fill="#E21A1A"/>
<path d="M202.397 160C206.573 154.448 206.573 154.16 206.573 153.312H206.989V160H208.621V151.936H206.413C202.237 157.488 202.237 157.776 202.237 158.624H201.805V151.936H200.173V160H202.397ZM217.712 151.936V155.184H213.008V151.936H211.376V160H213.008V156.592H217.712V160H219.344V151.936H217.712ZM228.431 151.936V155.184H223.727V151.936H222.095V160H223.727V156.592H228.431V160H230.063V151.936H228.431ZM234.158 155.968C234.158 153.28 234.158 153.2 236.654 153.2C239.15 153.2 239.15 153.28 239.15 155.968C239.15 158.656 239.15 158.736 236.654 158.736C234.158 158.736 234.158 158.656 234.158 155.968ZM232.43 156.352C232.43 157.888 232.43 160.192 236.27 160.192H237.038C240.878 160.192 240.878 157.888 240.878 156.352V155.584C240.878 154.048 240.878 151.744 237.038 151.744H236.27C232.43 151.744 232.43 154.048 232.43 155.584V156.352ZM243.251 160H246.979C248.899 160 250.835 160 250.835 157.984C250.835 157.312 250.675 156.448 249.139 156.064V155.872C250.675 155.488 250.675 154.624 250.675 153.952C250.675 151.936 248.899 151.936 246.979 151.936H243.251V160ZM247.571 156.544C248.995 156.544 249.011 156.544 249.011 157.6C249.011 158.64 249.011 158.656 247.571 158.656H244.883V156.544H247.571ZM247.411 153.28C248.835 153.28 248.851 153.28 248.851 154.336C248.851 155.376 248.851 155.392 247.411 155.392H244.883V153.28H247.411ZM259.86 160.192L261.076 159.28C260.5 158.512 260.5 158.512 260.5 156.928V155.584C260.5 153.664 260.5 151.744 256.756 151.744C256.18 151.744 254.932 151.744 253.396 152.128V153.664H253.78L255.316 153.28H256.756C258.868 153.28 258.868 153.28 258.868 155.296H256.756C252.724 155.296 252.724 156.64 252.724 157.888C252.724 158.656 252.724 160.192 255.604 160.192C257.588 160.192 258.66 159.392 259.044 159.104L259.86 160.192ZM254.548 157.696C254.548 156.544 254.548 156.544 256.756 156.544H258.868V158.08L256.564 158.656H255.7C254.548 158.656 254.548 158.656 254.548 157.696ZM272.469 162.304V158.656H271.125V151.936H269.493V158.656H264.789V151.936H263.157V160H270.901V162.304H272.469ZM276.631 160C280.807 154.448 280.807 154.16 280.807 153.312H281.223V160H282.855V151.936H280.647C276.471 157.488 276.471 157.776 276.471 158.624H276.039V151.936H274.407V160H276.631ZM286.954 155.968C286.954 153.28 286.954 153.2 289.45 153.2C291.946 153.2 291.946 153.28 291.946 155.968C291.946 158.656 291.946 158.736 289.45 158.736C286.954 158.736 286.954 158.656 286.954 155.968ZM285.226 156.352C285.226 157.888 285.226 160.192 289.066 160.192H289.834C293.674 160.192 293.674 157.888 293.674 156.352V155.584C293.674 154.048 293.674 151.744 289.834 151.744H289.066C285.226 151.744 285.226 154.048 285.226 155.584V156.352ZM302.384 151.936V155.184H297.68V151.936H296.048V160H297.68V156.592H302.384V160H304.016V151.936H302.384ZM313.103 151.936V155.184H308.399V151.936H306.767V160H308.399V156.592H313.103V160H314.735V151.936H313.103ZM326.317 151.936V160H327.949V151.936H326.317ZM317.485 160H320.941C322.957 160 324.685 160 324.685 157.312C324.685 156.352 324.685 154.432 321.325 154.432C320.653 154.432 319.885 154.528 319.117 154.72V151.936H317.485V160ZM321.133 155.968C322.957 155.968 322.957 155.968 322.957 157.312C322.957 158.656 322.957 158.656 321.133 158.656H319.117V155.968H321.133ZM335.456 150.72C336.544 150.72 337.312 150.72 338.32 149.536L337.168 148.672C336.656 149.376 336.64 149.376 335.76 149.376H334.256C333.392 149.376 333.376 149.376 332.848 148.672L331.696 149.536C332.704 150.72 333.472 150.72 334.56 150.72H335.456ZM332.928 160C337.104 154.448 337.104 154.16 337.104 153.312H337.52V160H339.152V151.936H336.944C332.768 157.488 332.768 157.776 332.768 158.624H332.336V151.936H330.704V160H332.928ZM342.771 157.696C341.811 157.696 341.811 158.272 341.811 158.656V159.04C341.811 159.424 341.811 160 342.771 160H343.539C344.499 160 344.499 159.424 344.499 159.04V158.656C344.499 158.272 344.499 157.696 343.539 157.696H342.771Z" fill="#7A4FF4"/>
<circle cx="41" cy="127" r="6" fill="#E21A1A"/>
<circle r="6" transform="matrix(-1 0 0 1 189 156)" fill="#7A4FF4"/>
</svg>
