<svg width="376" height="101" viewBox="0 0 376 101" fill="none" xmlns="http://www.w3.org/2000/svg">
<g filter="url(#filter0_d)">
<path fill-rule="evenodd" clip-rule="evenodd" d="M937.268 77.3748C937.931 74.5729 939.337 67.2883 939.648 60.5652C940.038 52.1614 936.421 39.3606 934.014 34.1615C932.088 30.0021 929.2 24.1633 927.997 21.7638L929.986 12.1575L918.381 12.1717C916.379 11.3738 911.896 9.77861 909.975 9.78095L896.369 9.79752L894.764 5.79787L852.347 5.84951L852.352 9.85111L849.551 9.85452L849.547 7.0534L845.546 7.05827L845.541 3.05668C845.539 1.45604 845.537 0.255558 843.136 0.258481L812.724 0.29551C810.323 0.298433 809.925 1.89956 809.926 3.10004L809.931 7.10164L804.729 7.10797L804.721 0.305254L642.656 0.502576C642.373 0.502921 642.09 0.499181 641.81 0.49548C639.318 0.462545 637.054 0.432632 637.057 3.31052L637.085 25.7196L621.479 25.7386L621.459 9.33203L619.058 9.33495L619.051 3.73271C619.049 2.53223 618.648 1.7324 616.648 1.73483L497.8 1.87954C495.934 2.81552 492.201 4.76751 492.202 5.08764C492.202 5.40777 484.732 5.23012 480.997 5.10128L481 7.10208L451.788 7.13765L451.786 5.13685C451.784 3.93637 450.982 2.73686 449.382 2.73881L415.768 2.77974C414.891 2.7808 414.495 2.78129 414.316 2.97885C414.168 3.14193 414.168 3.43931 414.169 3.98217L414.174 7.98376C390.431 8.14606 342.546 8.47114 340.945 8.47308C339.345 8.47503 330.936 4.21689 326.932 2.08758L324.131 2.09099L324.152 19.698L320.551 19.7024L320.608 66.9213C320.61 68.1217 321.011 68.9216 321.811 68.9206L324.212 68.9177L324.224 78.9217L355.84 78.8832C355.322 80.2518 355.04 81.7359 355.042 83.286C355.05 90.1371 360.611 95.6842 367.462 95.6758C374.179 95.6677 379.643 90.322 379.846 83.6557L383.053 83.6521C383.057 86.3041 385.209 88.4514 387.861 88.4481L401.467 88.4316C404.119 88.4283 406.266 86.2756 406.263 83.6236L407.87 83.6216C408.089 90.2873 413.566 95.6197 420.283 95.6115C427.134 95.6032 432.681 90.0425 432.673 83.1914C432.671 81.6413 432.385 80.158 431.864 78.7906L436.269 78.7853L436.286 92.7909L440.288 92.786C441.888 92.784 443.088 91.9823 443.086 90.7818L443.082 87.5805L465.491 87.5532L465.48 78.3495L495.092 78.3135C496.565 82.9802 499.911 92.3132 501.512 92.3113L505.913 92.3059L505.896 78.3003L509.661 78.2957C509.042 79.7734 508.701 81.3962 508.703 83.0987C508.712 89.9498 514.272 95.4969 521.123 95.4886C527.841 95.4804 533.304 90.1347 533.507 83.4685L536.715 83.4648C536.718 86.1168 538.871 88.2641 541.523 88.2608L555.128 88.2443C557.78 88.241 559.927 86.0883 559.924 83.4363L561.531 83.4343C561.75 90.1 567.227 95.4324 573.944 95.4242C580.795 95.4159 586.343 89.8552 586.334 83.0042C586.332 81.3017 585.987 79.6798 585.365 78.2036L617.141 78.1649L617.529 68.1604L620.73 68.1565C621.877 68.1551 621.791 67.7443 621.649 67.0699C621.593 66.8031 621.528 66.495 621.528 66.1547L621.527 65.7546L637.133 65.7356L637.135 66.9359C637.136 68.2165 637.137 68.5366 640.738 68.5322L640.75 78.5362L672.767 78.4972C672.249 79.8658 671.966 81.3499 671.968 82.9C671.977 89.751 677.537 95.2982 684.388 95.2898C691.106 95.2816 696.569 89.9359 696.772 83.2698L698.379 83.268C698.383 85.92 700.535 88.0673 703.187 88.0641L716.793 88.0475C719.445 88.0443 721.592 85.8916 721.589 83.2395L724.796 83.2356C725.016 89.9013 730.492 95.2337 737.21 95.2255C744.061 95.2172 749.608 89.6565 749.599 82.8055C749.597 81.1169 749.258 79.5075 748.645 78.041L751.769 78.0009L751.787 92.4066C762.416 92.3937 763.7 78.3865 763.7 78.3865L794.012 78.3496L794.021 85.9526L814.429 85.9278C814.697 87.2613 815.555 90.0881 816.836 90.7268C818.117 91.3655 821.105 90.9883 822.438 90.72L822.423 78.315L826.428 78.3101C825.91 79.6787 825.628 81.1627 825.63 82.7128C825.638 89.5639 831.199 95.111 838.05 95.1027C844.767 95.0945 850.231 89.7488 850.434 83.0826L852.041 83.0808C852.044 85.7328 854.196 87.8801 856.848 87.8769L870.454 87.8603C873.106 87.8571 875.253 85.7044 875.25 83.0524L878.458 83.0485C878.677 89.7142 884.153 95.0465 890.871 95.0384C897.722 95.03 903.269 89.4694 903.261 82.6183C903.259 81.0682 902.973 79.5849 902.452 78.2176L916.461 78.2005C918.729 78.8647 923.587 80.7529 924.87 82.9922C925.149 83.4786 925.415 83.977 925.678 84.4687L925.68 84.4728C926.93 86.8092 928.097 88.9907 930.079 88.9882C931.401 88.9866 931.996 89.471 932.53 89.9064C932.967 90.262 933.363 90.5849 934.083 90.584L937.284 90.5801L937.28 86.9787L935.277 85.7806C935.851 83.379 937.052 78.3355 937.268 77.3748ZM909.216 43.7955L926.023 43.7751C927.623 43.7731 929.622 41.7699 928.819 40.1702C928.178 38.8905 924.541 31.9054 922.803 28.5729L908.397 28.5904C906.396 28.5929 905.597 29.3941 905.598 30.5946L905.611 40.9988C905.612 42.1993 905.615 43.7999 909.216 43.7955ZM304.633 67.3409L304.631 66.1404L320.607 66.1209L320.558 26.105L304.582 26.1244L304.555 3.71552C304.552 0.837635 302.288 0.873061 299.795 0.912065L299.795 0.912066C299.515 0.916449 299.232 0.920877 298.949 0.921221L136.885 1.11854L136.893 7.92126L131.691 7.92759L131.686 3.926C131.685 2.72552 131.282 1.12536 128.882 1.12829L98.4694 1.16532C96.0684 1.16824 96.0699 2.36872 96.0718 3.96936L96.0767 7.97096L92.0751 7.97583L92.0785 10.7769L89.2774 10.7804L89.2725 6.77876L46.8556 6.8304L45.2598 10.834L31.6544 10.8505C29.7336 10.8529 25.2538 12.459 23.2539 13.2617L11.6493 13.2758L13.6618 22.8772C12.4642 25.2797 9.59019 31.1255 7.67449 35.2895C5.27987 40.4945 1.69403 53.304 2.10441 61.7069C2.43272 68.4292 3.85548 75.7103 4.52584 78.5107C4.74358 79.4708 5.95726 84.5113 6.53687 86.9116L4.53753 88.1145L4.54192 91.7159L7.74319 91.712C8.46266 91.7112 8.85834 91.3873 9.29401 91.0307C9.82759 90.594 10.4211 90.1081 11.7428 90.1065C13.7254 90.1041 14.8868 87.9199 16.1307 85.5805C16.3931 85.0868 16.6593 84.5862 16.9376 84.0978C18.2154 81.8553 23.0684 79.9554 25.3351 79.2857L39.3441 79.2686C38.8265 80.6372 38.544 82.1212 38.5458 83.6713C38.5542 90.5223 44.1148 96.0695 50.9659 96.0611C57.6832 96.053 63.1469 90.7073 63.3499 84.041L66.5575 84.0371C66.5607 86.6892 68.7132 88.8367 71.3653 88.8334L84.9707 88.8169C87.6227 88.8136 89.77 86.6611 89.7668 84.0091L91.3737 84.0069C91.5929 90.6726 97.0697 96.005 103.787 95.9968C110.638 95.9885 116.185 90.4278 116.177 83.5768C116.175 82.0267 115.889 80.5434 115.368 79.176L119.373 79.1712L119.388 91.5761C120.722 91.8413 123.71 92.2111 124.99 91.5693C126.27 90.9275 127.12 88.0986 127.385 86.7644L147.793 86.7396L147.784 79.1366L178.096 79.0997C178.096 79.0997 179.414 93.1037 190.043 93.0907L190.025 78.685L193.15 78.7175C192.541 80.1855 192.205 81.7957 192.207 83.4843C192.216 90.3354 197.776 95.8825 204.627 95.8742C211.345 95.866 216.808 90.5203 217.011 83.8541L220.219 83.8502C220.222 86.5022 222.375 88.6497 225.027 88.6465L238.632 88.6299C241.284 88.6267 243.431 86.4742 243.428 83.8221L245.035 83.8199C245.254 90.4856 250.731 95.818 257.448 95.8098C264.299 95.8015 269.847 90.2409 269.838 83.3898C269.836 81.8397 269.55 80.3563 269.029 78.9889L301.045 78.95L301.033 68.946C304.635 68.9416 304.634 68.6215 304.633 67.3409ZM15.6895 44.8836L32.4962 44.8631C36.0977 44.8587 36.0957 43.2581 36.0942 42.0576L36.0816 31.6535C36.0801 30.453 35.2788 29.6536 33.278 29.6561L18.8723 29.6736C17.1423 33.0104 13.5227 40.0043 12.884 41.2856C12.0856 42.8872 14.0889 44.8855 15.6895 44.8836Z" fill="#CBCDD5"/>
</g>
<path d="M304.553 26.9232L320.559 26.9037L320.608 66.9197L304.602 66.9392L304.553 26.9232Z" fill="#CBCDD5"/>
<path fill-rule="evenodd" clip-rule="evenodd" d="M205.998 96.0264C199.147 96.0181 193.6 90.4574 193.608 83.6063C193.617 76.7552 199.177 71.2081 206.028 71.2165C209.271 71.2204 212.222 72.4681 214.429 74.5078L214.429 74.4278L250.529 74.4717C252.731 72.4849 255.65 71.2769 258.85 71.2808C265.701 71.2891 271.248 76.8498 271.239 83.7009C271.231 90.5519 265.67 96.0991 258.819 96.0907C252.102 96.0826 246.638 90.7368 246.435 84.0706L244.828 84.0686C244.828 84.0687 244.828 84.0688 244.828 84.0689C244.825 86.7209 242.673 88.8682 240.021 88.8649L226.415 88.8484C223.763 88.8452 221.616 86.6926 221.619 84.0406C221.619 84.0405 221.619 84.0405 221.619 84.0404L218.411 84.0365C218.192 90.7022 212.715 96.0346 205.998 96.0264Z" fill="#CBCDD5"/>
<path fill-rule="evenodd" clip-rule="evenodd" d="M205.998 96.0264C199.147 96.0181 193.6 90.4574 193.608 83.6063C193.617 76.7552 199.177 71.2081 206.028 71.2165C209.271 71.2204 212.222 72.4681 214.429 74.5078L214.429 74.4278L250.529 74.4717C252.731 72.4849 255.65 71.2769 258.85 71.2808C265.701 71.2891 271.248 76.8498 271.239 83.7009C271.231 90.5519 265.67 96.0991 258.819 96.0907C252.102 96.0826 246.638 90.7368 246.435 84.0706L244.828 84.0686C244.828 84.0687 244.828 84.0688 244.828 84.0689C244.825 86.7209 242.673 88.8682 240.021 88.8649L226.415 88.8484C223.763 88.8452 221.616 86.6926 221.619 84.0406C221.619 84.0405 221.619 84.0405 221.619 84.0404L218.411 84.0365C218.192 90.7022 212.715 96.0346 205.998 96.0264Z" fill="url(#paint0_linear)"/>
<path fill-rule="evenodd" clip-rule="evenodd" d="M52.3372 95.8375C45.4861 95.8291 39.939 90.2685 39.9473 83.4174C39.9557 76.5663 45.5163 71.0192 52.3674 71.0275C55.6099 71.0315 58.5604 72.2792 60.7681 74.3188L60.7682 74.2389L96.8675 74.2828C99.0702 72.296 101.989 71.088 105.188 71.0919C112.04 71.1002 117.587 76.6609 117.578 83.512C117.57 90.363 112.009 95.9102 105.158 95.9018C98.441 95.8937 92.9773 90.5479 92.7743 83.8817L91.1673 83.8797C91.1673 83.8798 91.1673 83.8799 91.1673 83.88C91.1641 86.532 89.0115 88.6793 86.3595 88.6761L72.7541 88.6595C70.1021 88.6563 67.9548 86.5037 67.958 83.8517C67.958 83.8516 67.958 83.8516 67.958 83.8515L64.7504 83.8476C64.5312 90.5133 59.0544 95.8457 52.3372 95.8375Z" fill="#CBCDD5"/>
<path fill-rule="evenodd" clip-rule="evenodd" d="M52.3372 95.8375C45.4861 95.8291 39.939 90.2685 39.9473 83.4174C39.9557 76.5663 45.5163 71.0192 52.3674 71.0275C55.6099 71.0315 58.5604 72.2792 60.7681 74.3188L60.7682 74.2389L96.8675 74.2828C99.0702 72.296 101.989 71.088 105.188 71.0919C112.04 71.1002 117.587 76.6609 117.578 83.512C117.57 90.363 112.009 95.9102 105.158 95.9018C98.441 95.8937 92.9773 90.5479 92.7743 83.8817L91.1673 83.8797C91.1673 83.8798 91.1673 83.8799 91.1673 83.88C91.1641 86.532 89.0115 88.6793 86.3595 88.6761L72.7541 88.6595C70.1021 88.6563 67.9548 86.5037 67.958 83.8517C67.958 83.8516 67.958 83.8516 67.958 83.8515L64.7504 83.8476C64.5312 90.5133 59.0544 95.8457 52.3372 95.8375Z" fill="url(#paint1_linear)"/>
<path fill-rule="evenodd" clip-rule="evenodd" d="M5.90473 78.3898C5.24118 75.5879 3.83617 68.3033 3.52422 61.5802C3.13431 53.1763 6.75134 40.3756 9.15861 35.1764C11.0845 31.0171 13.9727 25.1783 15.1761 22.7788L13.187 13.1725L24.7917 13.1866C26.7934 12.3887 31.2771 10.7935 33.1979 10.7959L44.8026 10.81L46.8034 10.8124L48.4089 6.81279L90.8258 6.86443L90.821 10.866L93.6221 10.8694L93.6255 8.06832L97.6271 8.07319L97.632 4.07159C97.6339 2.47095 97.6354 1.27047 100.036 1.27339L130.449 1.31042C132.849 1.31334 133.248 2.91447 133.246 4.11495L133.241 8.11656L138.443 8.12289L138.452 1.32016L178.868 1.36937L300.517 1.51749C300.799 1.51783 301.082 1.51409 301.363 1.51039C303.855 1.47746 306.119 1.44754 306.115 4.32543L306.038 67.9509C306.036 69.2315 306.036 69.5516 302.434 69.5472L302.422 79.5512L277.712 79.5211L225.792 79.4579L191.403 79.0159L191.386 93.4217C180.757 93.4087 179.473 79.4015 179.473 79.4015L149.161 79.3646L149.152 86.9677L128.744 86.9428C128.475 88.2764 127.618 91.1031 126.337 91.7418C125.055 92.3805 122.068 92.0034 120.735 91.735L120.75 79.33L26.7121 79.2155C24.4437 79.8797 19.5861 81.7679 18.3028 84.0072C18.0233 84.495 17.756 84.9949 17.4923 85.4879C16.2428 87.8243 15.0761 90.0057 13.0935 90.0033C11.7717 90.0017 11.177 90.4861 10.6424 90.9215C10.2058 91.277 9.80939 91.5999 9.08991 91.5991L5.88865 91.5952L5.89303 87.9937L7.89529 86.7957C7.32152 84.394 6.12014 79.3505 5.90473 78.3898ZM33.9568 44.8105L17.1501 44.79C15.5495 44.7881 13.5511 42.7848 14.3534 41.1852C14.9952 39.9054 18.6318 32.9204 20.3699 29.5878L34.7757 29.6054C36.7765 29.6078 37.5758 30.4091 37.5744 31.6096L37.5617 42.0138C37.5602 43.2142 37.5583 44.8149 33.9568 44.8105Z" fill="white"/>
<path fill-rule="evenodd" clip-rule="evenodd" d="M5.90473 78.3898C5.24118 75.5879 3.83617 68.3033 3.52422 61.5802C3.13431 53.1763 6.75134 40.3756 9.15861 35.1764C11.0845 31.0171 13.9727 25.1783 15.1761 22.7788L13.187 13.1725L24.7917 13.1866C26.7934 12.3887 31.2771 10.7935 33.1979 10.7959L44.8026 10.81L46.8034 10.8124L48.4089 6.81279L90.8258 6.86443L90.821 10.866L93.6221 10.8694L93.6255 8.06832L97.6271 8.07319L97.632 4.07159C97.6339 2.47095 97.6354 1.27047 100.036 1.27339L130.449 1.31042C132.849 1.31334 133.248 2.91447 133.246 4.11495L133.241 8.11656L138.443 8.12289L138.452 1.32016L178.868 1.36937L300.517 1.51749C300.799 1.51783 301.082 1.51409 301.363 1.51039C303.855 1.47746 306.119 1.44754 306.115 4.32543L306.038 67.9509C306.036 69.2315 306.036 69.5516 302.434 69.5472L302.422 79.5512L277.712 79.5211L225.792 79.4579L191.403 79.0159L191.386 93.4217C180.757 93.4087 179.473 79.4015 179.473 79.4015L149.161 79.3646L149.152 86.9677L128.744 86.9428C128.475 88.2764 127.618 91.1031 126.337 91.7418C125.055 92.3805 122.068 92.0034 120.735 91.735L120.75 79.33L26.7121 79.2155C24.4437 79.8797 19.5861 81.7679 18.3028 84.0072C18.0233 84.495 17.756 84.9949 17.4923 85.4879C16.2428 87.8243 15.0761 90.0057 13.0935 90.0033C11.7717 90.0017 11.177 90.4861 10.6424 90.9215C10.2058 91.277 9.80939 91.5999 9.08991 91.5991L5.88865 91.5952L5.89303 87.9937L7.89529 86.7957C7.32152 84.394 6.12014 79.3505 5.90473 78.3898ZM33.9568 44.8105L17.1501 44.79C15.5495 44.7881 13.5511 42.7848 14.3534 41.1852C14.9952 39.9054 18.6318 32.9204 20.3699 29.5878L34.7757 29.6054C36.7765 29.6078 37.5758 30.4091 37.5744 31.6096L37.5617 42.0138C37.5602 43.2142 37.5583 44.8149 33.9568 44.8105Z" fill="url(#paint2_linear)"/>
<mask id="mask0" mask-type="alpha" maskUnits="userSpaceOnUse" x="3" y="1" width="304" height="93">
<path fill-rule="evenodd" clip-rule="evenodd" d="M5.90805 78.6247C5.24454 75.8228 3.83948 68.5382 3.52753 61.8151C3.13763 53.4112 6.75464 40.6105 9.16193 35.4113C11.0878 31.252 13.976 25.4132 15.1794 23.0137L13.1903 13.4074L24.795 13.4215C26.7968 12.6236 31.2805 11.0284 33.2013 11.0308L46.8067 11.0474L48.4122 7.0477L90.8292 7.09934L90.8243 11.1009L93.6255 11.1044L93.6288 8.30323L97.6305 8.30811L97.6353 4.3065C97.6373 2.70586 97.6387 1.50538 100.04 1.50831L130.452 1.54533C132.853 1.54826 133.251 3.14939 133.25 4.34987L133.245 8.35147L138.447 8.3578L138.455 1.55508L300.52 1.7524C300.803 1.75275 301.086 1.74901 301.366 1.74531C303.858 1.71237 306.122 1.68246 306.119 4.56034L306.041 68.1858C306.04 69.4663 306.039 69.7865 302.438 69.7821L302.426 79.7861L225.795 79.6928L191.407 79.2508L191.389 93.6565C180.76 93.6436 179.477 79.6364 179.477 79.6364L149.164 79.5995L149.155 87.2025L128.747 87.1777C128.479 88.5112 127.621 91.338 126.34 91.9767C125.059 92.6154 122.071 92.2383 120.738 91.9699L120.753 79.5649L26.7154 79.4504C24.447 80.1146 19.5894 82.0028 18.3062 84.2421C18.0267 84.7298 17.7593 85.2298 17.4957 85.7228C16.2461 88.0591 15.0794 90.2406 13.0968 90.2382C11.7751 90.2366 11.1804 90.7209 10.6457 91.1564C10.2092 91.5119 9.81271 91.8348 9.09323 91.8339L5.89197 91.83L5.89636 88.2286L7.89862 87.0305C7.32483 84.6289 6.12347 79.5854 5.90805 78.6247ZM33.9602 45.0454L17.1534 45.0249C15.5528 45.023 13.5544 43.0197 14.3567 41.4201C14.9985 40.1403 18.6352 33.1553 20.3733 29.8227L34.779 29.8403C36.7798 29.8427 37.5791 30.644 37.5777 31.8445L37.565 42.2486C37.5636 43.4491 37.5616 45.0498 33.9602 45.0454Z" fill="white"/>
<path fill-rule="evenodd" clip-rule="evenodd" d="M5.90805 78.6247C5.24454 75.8228 3.83948 68.5382 3.52753 61.8151C3.13763 53.4112 6.75464 40.6105 9.16193 35.4113C11.0878 31.252 13.976 25.4132 15.1794 23.0137L13.1903 13.4074L24.795 13.4215C26.7968 12.6236 31.2805 11.0284 33.2013 11.0308L46.8067 11.0474L48.4122 7.0477L90.8292 7.09934L90.8243 11.1009L93.6255 11.1044L93.6288 8.30323L97.6305 8.30811L97.6353 4.3065C97.6373 2.70586 97.6387 1.50538 100.04 1.50831L130.452 1.54533C132.853 1.54826 133.251 3.14939 133.25 4.34987L133.245 8.35147L138.447 8.3578L138.455 1.55508L300.52 1.7524C300.803 1.75275 301.086 1.74901 301.366 1.74531C303.858 1.71237 306.122 1.68246 306.119 4.56034L306.041 68.1858C306.04 69.4663 306.039 69.7865 302.438 69.7821L302.426 79.7861L225.795 79.6928L191.407 79.2508L191.389 93.6565C180.76 93.6436 179.477 79.6364 179.477 79.6364L149.164 79.5995L149.155 87.2025L128.747 87.1777C128.479 88.5112 127.621 91.338 126.34 91.9767C125.059 92.6154 122.071 92.2383 120.738 91.9699L120.753 79.5649L26.7154 79.4504C24.447 80.1146 19.5894 82.0028 18.3062 84.2421C18.0267 84.7298 17.7593 85.2298 17.4957 85.7228C16.2461 88.0591 15.0794 90.2406 13.0968 90.2382C11.7751 90.2366 11.1804 90.7209 10.6457 91.1564C10.2092 91.5119 9.81271 91.8348 9.09323 91.8339L5.89197 91.83L5.89636 88.2286L7.89862 87.0305C7.32483 84.6289 6.12347 79.5854 5.90805 78.6247ZM33.9602 45.0454L17.1534 45.0249C15.5528 45.023 13.5544 43.0197 14.3567 41.4201C14.9985 40.1403 18.6352 33.1553 20.3733 29.8227L34.779 29.8403C36.7798 29.8427 37.5791 30.644 37.5777 31.8445L37.565 42.2486C37.5636 43.4491 37.5616 45.0498 33.9602 45.0454Z" fill="url(#paint3_linear)"/>
</mask>
<g mask="url(#mask0)">
<path d="M306.119 62.3896C306.119 62.3896 90.9628 62.3896 87.1578 62.3896C83.3528 62.3896 81.2773 70.6915 75.7428 70.6915C70.2082 70.6915 3.10165 70.6915 3.10165 70.6915L3.10165 109.433L306.119 109.433L306.119 62.3896Z" fill="#E4E5EC"/>
<path d="M204.903 9.95502C204.905 8.42669 203.668 7.18624 202.139 7.18437L185.265 7.16383C183.737 7.16197 182.496 8.39941 182.494 9.92774L182.468 31.6041C182.466 33.1324 183.704 34.3729 185.232 34.3747L202.106 34.3953C203.635 34.3971 204.875 33.1597 204.877 31.6314L204.903 9.95502Z" fill="#E4E5EC"/>
<path d="M128.072 9.862C128.074 8.33368 126.837 7.09322 125.308 7.09136L108.434 7.07081C106.906 7.06895 105.665 8.3064 105.663 9.83472L105.637 31.5111C105.635 33.0394 106.872 34.2799 108.401 34.2817L125.275 34.3023C126.803 34.3041 128.044 33.0667 128.046 31.5384L128.072 9.862Z" fill="#E4E5EC"/>
<path d="M99.9564 20.8784C106.875 20.8784 -6.58394 20.8784 -6.58394 20.8784L-6.58394 52.7022C-6.58394 52.7022 68.8244 52.7022 71.5917 52.7022C74.359 52.7022 76.0721 49.9349 76.0721 49.9349L92.3463 23.6457C92.3463 23.6457 93.0382 20.8784 99.9564 20.8784Z" fill="#E21A1A"/>
<path d="M306.119 18.1133L14.1707 18.1133L14.1707 20.8806L306.119 20.8806L306.119 18.1133Z" fill="#E21A1A"/>
</g>
<path d="M268.886 41.0976C268.888 39.5693 267.65 38.3288 266.122 38.327L249.247 38.3064C247.719 38.3045 246.479 39.542 246.477 41.0703L246.458 56.3441C246.456 57.8724 247.694 59.1129 249.222 59.1147L266.096 59.1353C267.625 59.1371 268.865 57.8997 268.867 56.3714L268.886 41.0976Z" fill="#E4E5EC"/>
<path fill-rule="evenodd" clip-rule="evenodd" d="M62.3081 33.8246C62.3121 30.5695 59.6765 27.9275 56.4214 27.9235C53.1663 27.9196 50.5243 30.5552 50.5203 33.8103L50.4911 57.8199C50.4871 61.075 53.1227 63.717 56.3778 63.721C59.6329 63.7249 62.2749 61.0893 62.2789 57.8342L62.3081 33.8246ZM56.4197 29.3072C58.9106 29.3102 60.9275 31.332 60.9245 33.8229L60.8952 57.8326C60.8922 60.3235 58.8704 62.3404 56.3795 62.3373C53.8885 62.3343 51.8717 60.3125 51.8747 57.8216L51.9039 33.812C51.907 31.321 53.9287 29.3042 56.4197 29.3072Z" fill="#CBCDD5"/>
<path fill-rule="evenodd" clip-rule="evenodd" d="M239.259 52.9151C239.26 52.1509 238.641 51.5307 237.877 51.5298L80.9281 51.3472C80.1639 51.3463 79.5437 51.965 79.5428 52.7292C79.542 53.4934 80.1607 54.1136 80.9249 54.1144L237.874 54.2971C238.638 54.298 239.258 53.6793 239.259 52.9151Z" fill="#E4E5EC"/>
<path fill-rule="evenodd" clip-rule="evenodd" d="M239.266 48.1983C239.267 47.4341 238.648 46.8139 237.884 46.813L85.0861 46.6303C84.3219 46.6294 83.7017 47.2482 83.7008 48.0123C83.6999 48.7765 84.3186 49.3967 85.0828 49.3976L237.881 49.5803C238.645 49.5812 239.265 48.9625 239.266 48.1983Z" fill="#E4E5EC"/>
<path fill-rule="evenodd" clip-rule="evenodd" d="M239.274 43.0947C239.275 42.3305 238.656 41.7103 237.892 41.7094L87.8609 41.5267C87.0967 41.5258 86.4765 42.1445 86.4755 42.9087C86.4746 43.6728 87.0933 44.2931 87.8575 44.294L237.888 44.4767C238.652 44.4776 239.273 43.8589 239.274 43.0947Z" fill="#E4E5EC"/>
<path fill-rule="evenodd" clip-rule="evenodd" d="M292.91 33.1222C292.911 32.3581 292.292 31.7378 291.528 31.7369L212.663 31.6409C211.898 31.6399 211.278 32.2587 211.277 33.0228C211.276 33.787 211.895 34.4072 212.659 34.4082L291.525 34.5042C292.289 34.5051 292.909 33.8864 292.91 33.1222Z" fill="#E4E5EC"/>
<path fill-rule="evenodd" clip-rule="evenodd" d="M292.916 27.5216C292.917 26.7575 292.299 26.1372 291.535 26.1363L212.669 26.0403C211.905 26.0394 211.285 26.6581 211.284 27.4222C211.283 28.1864 211.902 28.8066 212.666 28.8076L291.531 28.9036C292.295 28.9045 292.916 28.2858 292.916 27.5216Z" fill="#E4E5EC"/>
<path fill-rule="evenodd" clip-rule="evenodd" d="M176.063 32.9811C176.064 32.217 175.445 31.5967 174.681 31.5958L137.433 31.5504C136.668 31.5495 136.048 32.1682 136.047 32.9324C136.046 33.6966 136.665 34.3168 137.429 34.3177L174.678 34.3631C175.442 34.364 176.062 33.7453 176.063 32.9811Z" fill="#E4E5EC"/>
<path fill-rule="evenodd" clip-rule="evenodd" d="M176.07 27.3775C176.071 26.6134 175.453 25.9931 174.688 25.9922L137.44 25.9469C136.676 25.9459 136.055 26.5647 136.054 27.3288C136.053 28.093 136.672 28.7132 137.436 28.7141L174.685 28.7595C175.449 28.7604 176.069 28.1417 176.07 27.3775Z" fill="#E4E5EC"/>
<path fill-rule="evenodd" clip-rule="evenodd" d="M420.284 96.4109C413.567 96.419 408.09 91.0867 407.871 84.4209L406.264 84.4229C406.264 84.423 406.264 84.423 406.264 84.4231C406.267 87.0751 404.12 89.2277 401.468 89.2309L387.862 89.2474C385.21 89.2507 383.058 87.1034 383.054 84.4514C383.054 84.4513 383.054 84.4512 383.054 84.4512L379.847 84.4551C379.644 91.1213 374.18 96.467 367.463 96.4752C360.612 96.4835 355.051 90.9364 355.043 84.0853C355.034 77.2342 360.581 71.6736 367.433 71.6652C370.675 71.6613 373.629 72.9018 375.841 74.9361L375.841 74.8561L411.94 74.8121C414.138 72.82 417.054 71.6048 420.254 71.6009C427.105 71.5926 432.665 77.1397 432.674 83.9908C432.682 90.8419 427.135 96.4025 420.284 96.4109Z" fill="#CBCDD5"/>
<path fill-rule="evenodd" clip-rule="evenodd" d="M420.284 96.4109C413.567 96.419 408.09 91.0867 407.871 84.4209L406.264 84.4229C406.264 84.423 406.264 84.423 406.264 84.4231C406.267 87.0751 404.12 89.2277 401.468 89.2309L387.862 89.2474C385.21 89.2507 383.058 87.1034 383.054 84.4514C383.054 84.4513 383.054 84.4512 383.054 84.4512L379.847 84.4551C379.644 91.1213 374.18 96.467 367.463 96.4752C360.612 96.4835 355.051 90.9364 355.043 84.0853C355.034 77.2342 360.581 71.6736 367.433 71.6652C370.675 71.6613 373.629 72.9018 375.841 74.9361L375.841 74.8561L411.94 74.8121C414.138 72.82 417.054 71.6048 420.254 71.6009C427.105 71.5926 432.665 77.1397 432.674 83.9908C432.682 90.8419 427.135 96.4025 420.284 96.4109Z" fill="url(#paint4_linear)"/>
<path d="M326.933 2.88686L324.132 2.89027L324.153 20.4973L320.552 20.5017L320.609 67.7206C320.611 68.921 321.012 69.7209 321.812 69.7199L324.213 69.717L324.226 79.721L436.27 79.5846L436.287 93.5902L440.289 93.5853C441.89 93.5833 443.089 92.7816 443.088 91.5811L443.084 88.3798L465.493 88.3525L465.482 79.1488L495.093 79.1128C496.566 83.7795 499.912 93.1125 501.513 93.1106L505.915 93.1052L505.898 79.0996L617.142 78.9642L617.53 68.9597L620.732 68.9558C622.332 68.9539 621.531 68.1545 621.529 66.954L621.46 10.1313L619.059 10.1342L619.052 4.53199C619.051 3.33151 618.65 2.53168 616.649 2.53411L497.801 2.67882C495.935 3.6148 492.203 5.56679 492.203 5.88692C492.204 6.20705 484.734 6.0294 480.999 5.90056L481.001 7.90136L451.789 7.93693L451.787 5.93613C451.785 4.73565 450.984 3.53614 449.383 3.53809L415.77 3.57902C414.169 3.58096 414.169 3.58096 414.17 4.78144L414.175 8.78304C390.433 8.94534 342.547 9.27042 340.946 9.27237C339.346 9.27431 330.937 5.01617 326.933 2.88686Z" fill="white"/>
<path d="M326.933 2.88686L324.132 2.89027L324.153 20.4973L320.552 20.5017L320.609 67.7206C320.611 68.921 321.012 69.7209 321.812 69.7199L324.213 69.717L324.226 79.721L436.27 79.5846L436.287 93.5902L440.289 93.5853C441.89 93.5833 443.089 92.7816 443.088 91.5811L443.084 88.3798L465.493 88.3525L465.482 79.1488L495.093 79.1128C496.566 83.7795 499.912 93.1125 501.513 93.1106L505.915 93.1052L505.898 79.0996L617.142 78.9642L617.53 68.9597L620.732 68.9558C622.332 68.9539 621.531 68.1545 621.529 66.954L621.46 10.1313L619.059 10.1342L619.052 4.53199C619.051 3.33151 618.65 2.53168 616.649 2.53411L497.801 2.67882C495.935 3.6148 492.203 5.56679 492.203 5.88692C492.204 6.20705 484.734 6.0294 480.999 5.90056L481.001 7.90136L451.789 7.93693L451.787 5.93613C451.785 4.73565 450.984 3.53614 449.383 3.53809L415.77 3.57902C414.169 3.58096 414.169 3.58096 414.17 4.78144L414.175 8.78304C390.433 8.94534 342.547 9.27042 340.946 9.27237C339.346 9.27431 330.937 5.01617 326.933 2.88686Z" fill="url(#paint5_linear)"/>
<mask id="mask1" mask-type="alpha" maskUnits="userSpaceOnUse" x="320" y="2" width="302" height="92">
<path d="M326.933 2.88686L324.132 2.89027L324.153 20.4973L320.552 20.5017L320.609 67.7206C320.611 68.921 321.012 69.7209 321.812 69.7199L324.213 69.717L324.226 79.721L436.27 79.5846L436.287 93.5902L440.289 93.5853C441.89 93.5833 443.089 92.7816 443.088 91.5811L443.084 88.3798L465.493 88.3525L465.482 79.1488L495.093 79.1128C496.566 83.7795 499.912 93.1125 501.513 93.1106L505.915 93.1052L505.898 79.0996L617.142 78.9642L617.53 68.9597L620.732 68.9558C622.332 68.9539 621.531 68.1545 621.529 66.954L621.46 10.1313L619.059 10.1342L619.052 4.53199C619.051 3.33151 618.65 2.53168 616.649 2.53411L497.801 2.67882C495.935 3.6148 492.203 5.56679 492.203 5.88692C492.204 6.20705 484.734 6.0294 480.999 5.90056L481.001 7.90136L451.789 7.93693L451.787 5.93613C451.785 4.73565 450.984 3.53614 449.383 3.53809L415.77 3.57902C414.169 3.58096 414.169 3.58096 414.17 4.78144L414.175 8.78304C390.433 8.94534 342.547 9.27042 340.946 9.27237C339.346 9.27431 330.937 5.01617 326.933 2.88686Z" fill="white"/>
<path d="M326.933 2.88686L324.132 2.89027L324.153 20.4973L320.552 20.5017L320.609 67.7206C320.611 68.921 321.012 69.7209 321.812 69.7199L324.213 69.717L324.226 79.721L436.27 79.5846L436.287 93.5902L440.289 93.5853C441.89 93.5833 443.089 92.7816 443.088 91.5811L443.084 88.3798L465.493 88.3525L465.482 79.1488L495.093 79.1128C496.566 83.7795 499.912 93.1125 501.513 93.1106L505.915 93.1052L505.898 79.0996L617.142 78.9642L617.53 68.9597L620.732 68.9558C622.332 68.9539 621.531 68.1545 621.529 66.954L621.46 10.1313L619.059 10.1342L619.052 4.53199C619.051 3.33151 618.65 2.53168 616.649 2.53411L497.801 2.67882C495.935 3.6148 492.203 5.56679 492.203 5.88692C492.204 6.20705 484.734 6.0294 480.999 5.90056L481.001 7.90136L451.789 7.93693L451.787 5.93613C451.785 4.73565 450.984 3.53614 449.383 3.53809L415.77 3.57902C414.169 3.58096 414.169 3.58096 414.17 4.78144L414.175 8.78304C390.433 8.94534 342.547 9.27042 340.946 9.27237C339.346 9.27431 330.937 5.01617 326.933 2.88686Z" fill="url(#paint6_linear)"/>
</mask>
<g mask="url(#mask1)">
<path d="M320.238 62.3896L621.871 62.3896L621.871 83.1442L320.238 83.1442L320.238 62.3896Z" fill="#E4E5EC"/>
<path d="M637.091 16.7294L305.017 16.7294L305.017 19.4967L637.091 19.4967L637.091 16.7294Z" fill="#E21A1A"/>
</g>
<path d="M372.59 28.9088C372.587 26.0358 370.255 23.7096 367.382 23.7131C364.509 23.7166 362.182 26.0484 362.186 28.9215L362.215 52.9311C362.219 55.8041 364.55 58.1303 367.423 58.1268C370.297 58.1233 372.623 55.7915 372.619 52.9184L372.59 28.9088Z" fill="#E4E5EC"/>
<defs>
<filter id="filter0_d" x="0.072052" y="0.258484" width="941.606" height="99.8027" filterUnits="userSpaceOnUse" color-interpolation-filters="sRGB">
<feFlood flood-opacity="0" result="BackgroundImageFix"/>
<feColorMatrix in="SourceAlpha" type="matrix" values="0 0 0 0 0 0 0 0 0 0 0 0 0 0 0 0 0 0 127 0"/>
<feOffset dy="2"/>
<feGaussianBlur stdDeviation="1"/>
<feColorMatrix type="matrix" values="0 0 0 0 0.475284 0 0 0 0 0.475284 0 0 0 0 0.475284 0 0 0 0.25 0"/>
<feBlend mode="normal" in2="BackgroundImageFix" result="effect1_dropShadow"/>
<feBlend mode="normal" in="SourceGraphic" in2="effect1_dropShadow" result="shape"/>
</filter>
<linearGradient id="paint0_linear" x1="232.439" y1="71.2486" x2="232.409" y2="96.0586" gradientUnits="userSpaceOnUse">
<stop stop-color="#B7BBBF"/>
<stop offset="1" stop-color="#858C95" stop-opacity="0"/>
</linearGradient>
<linearGradient id="paint1_linear" x1="78.7779" y1="71.0597" x2="78.7477" y2="95.8696" gradientUnits="userSpaceOnUse">
<stop stop-color="#B7BBBF"/>
<stop offset="1" stop-color="#858C95" stop-opacity="0"/>
</linearGradient>
<linearGradient id="paint2_linear" x1="154.843" y1="1.32411" x2="154.731" y2="93.377" gradientUnits="userSpaceOnUse">
<stop offset="0.57813" stop-color="white"/>
<stop offset="0.953152" stop-color="#E4EBF2"/>
</linearGradient>
<linearGradient id="paint3_linear" x1="154.846" y1="1.55906" x2="154.734" y2="93.6119" gradientUnits="userSpaceOnUse">
<stop offset="0.57813" stop-color="white"/>
<stop offset="0.953152" stop-color="#E4EBF2"/>
</linearGradient>
<linearGradient id="paint4_linear" x1="393.843" y1="71.6331" x2="393.873" y2="96.443" gradientUnits="userSpaceOnUse">
<stop stop-color="#B7BBBF"/>
<stop offset="1" stop-color="#858C95" stop-opacity="0"/>
</linearGradient>
<linearGradient id="paint5_linear" x1="471.091" y1="2.71134" x2="471.201" y2="93.5477" gradientUnits="userSpaceOnUse">
<stop offset="0.57813" stop-color="white"/>
<stop offset="0.953152" stop-color="#E4EBF2"/>
</linearGradient>
<linearGradient id="paint6_linear" x1="471.091" y1="2.71134" x2="471.201" y2="93.5477" gradientUnits="userSpaceOnUse">
<stop offset="0.57813" stop-color="white"/>
<stop offset="0.953152" stop-color="#E4EBF2"/>
</linearGradient>
</defs>
</svg>
