<svg width="176" height="128" viewBox="0 0 176 128" fill="none" xmlns="http://www.w3.org/2000/svg">
<g filter="url(#filter0_d)">
<path d="M14 26C14 21.5817 17.5817 18 22 18H154C158.418 18 162 21.5817 162 26V100C162 104.418 158.418 108 154 108H53.6707C52.4082 108 51.1636 108.299 50.0386 108.872L32.125 118L32.1888 116.3C32.3587 111.767 28.7302 108 24.1944 108H22C17.5817 108 14 104.418 14 100V26Z" fill="white"/>
</g>
<path d="M29.224 87.576V89.256H33.256V87.576H29.224ZM38.2684 88.36C39.4684 88.36 39.4684 88.36 39.4684 89.736C39.4684 91.224 39.4684 91.224 37.6444 91.224H36.9244L35.0044 90.744H34.4284V92.776C36.4764 93.288 37.4524 93.288 37.9804 93.288C41.8204 93.288 41.8204 90.792 41.8204 89.88V89.4C41.8204 86.856 39.9964 86.856 39.4844 86.856H39.1964V86.488L40.1244 85.8C41.5324 84.744 41.5324 84.744 41.5324 83.496V81.672H34.4284V84.952H36.2524V83.592H39.4204V84.344L35.9964 86.904L37.3084 88.664C37.7244 88.36 38.0764 88.36 38.2684 88.36ZM44.2536 95.432V95.688H45.3416C46.0136 94.776 46.7336 93.576 46.7336 92.328V92.04C46.7336 91.656 46.7336 90.408 45.1016 90.408H44.6216C43.5176 90.408 43.5176 91.08 43.5176 91.464V91.944C43.5176 92.328 43.5176 93 44.6216 93H44.7656V93.384L44.2536 95.432ZM55.682 89.16C55.682 87.96 55.682 85.64 52.85 85.64C52.514 85.64 51.938 85.64 50.354 86.024V83.688H55.202V81.672H48.482V88.104L50.578 88.616C50.898 87.432 50.898 87.432 52.082 87.432C53.33 87.432 53.33 87.432 53.33 89.352C53.33 91.224 53.33 91.224 51.362 91.224H50.786L48.866 90.744H48.29V92.776C50.338 93.288 51.218 93.288 51.746 93.288C55.682 93.288 55.682 90.936 55.682 89.544V89.16ZM58.3873 89.864C57.8113 90.632 57.1873 91.464 57.1873 92.632V93H59.4913V91.96C59.4913 90.728 59.4913 90.808 60.5473 89.352L63.9553 84.808C64.5153 84.056 65.1553 83.208 65.1553 82.04V81.672H62.8513V82.712C62.8513 83.928 62.8513 83.928 61.7953 85.32L58.3873 89.864ZM60.8833 83.88C60.8833 81.608 59.3953 81.608 58.8673 81.608H58.6753C58.1473 81.608 56.6593 81.608 56.6593 83.88V84.36C56.6593 86.632 58.1473 86.632 58.6753 86.632H58.8673C59.3953 86.632 60.8833 86.632 60.8833 84.36V83.88ZM58.2913 83.976C58.2913 82.92 58.2913 82.92 58.7713 82.92C59.2513 82.92 59.2513 82.92 59.2513 83.976V84.264C59.2513 85.32 59.2513 85.32 58.7713 85.32C58.2913 85.32 58.2913 85.32 58.2913 84.264V83.976ZM65.6833 90.312C65.6833 88.04 64.1953 88.04 63.6673 88.04H63.4753C62.9473 88.04 61.4593 88.04 61.4593 90.312V90.792C61.4593 93.064 62.9473 93.064 63.4753 93.064H63.6673C64.1953 93.064 65.6833 93.064 65.6833 90.792V90.312ZM63.0913 90.408C63.0913 89.352 63.0913 89.352 63.5713 89.352C64.0513 89.352 64.0513 89.352 64.0513 90.408V90.696C64.0513 91.752 64.0513 91.752 63.5713 91.752C63.0913 91.752 63.0913 91.752 63.0913 90.696V90.408Z" fill="#E21A1A"/>
<path d="M72.1774 95.304H73.5214V79.368H72.1774V95.304Z" fill="#CBCDD5"/>
<path d="M81.3978 85.542V87.852H86.9418V85.542H81.3978ZM88.5539 77.424V81.912H91.0619V80.064H95.6819V82L92.7119 85.96C91.2599 87.896 91.2599 89.172 91.2599 91.944V93H94.5599V91.944C94.5599 88.204 94.5599 88.204 95.4179 87.082L97.3979 84.508C98.5859 82.968 98.5859 82.506 98.5859 80.13V77.424H88.5539ZM102.064 96.344V96.696H103.56C104.484 95.442 105.474 93.792 105.474 92.076V91.68C105.474 91.152 105.474 89.436 103.23 89.436H102.57C101.052 89.436 101.052 90.36 101.052 90.888V91.548C101.052 92.076 101.052 93 102.57 93H102.768V93.528L102.064 96.344ZM113.62 90.096V93H116.59V90.096H118.24V87.522H116.59V83.364H115.732L113.62 83.892V87.522H110.32V86.906L112.432 82.682C113.906 79.734 114.17 79.206 114.17 77.952V77.424H110.804V77.688C110.804 79.624 110.804 79.624 108.67 83.892L107.284 86.664V90.096H113.62ZM121.497 88.688C120.705 89.744 119.847 90.888 119.847 92.494V93H123.015V91.57C123.015 89.876 123.015 89.986 124.467 87.984L129.153 81.736C129.923 80.702 130.803 79.536 130.803 77.93V77.424H127.635V78.854C127.635 80.526 127.635 80.526 126.183 82.44L121.497 88.688ZM124.929 80.46C124.929 77.336 122.883 77.336 122.157 77.336H121.893C121.167 77.336 119.121 77.336 119.121 80.46V81.12C119.121 84.244 121.167 84.244 121.893 84.244H122.157C122.883 84.244 124.929 84.244 124.929 81.12V80.46ZM121.365 80.592C121.365 79.14 121.365 79.14 122.025 79.14C122.685 79.14 122.685 79.14 122.685 80.592V80.988C122.685 82.44 122.685 82.44 122.025 82.44C121.365 82.44 121.365 82.44 121.365 80.988V80.592ZM131.529 89.304C131.529 86.18 129.483 86.18 128.757 86.18H128.493C127.767 86.18 125.721 86.18 125.721 89.304V89.964C125.721 93.088 127.767 93.088 128.493 93.088H128.757C129.483 93.088 131.529 93.088 131.529 89.964V89.304ZM127.965 89.436C127.965 87.984 127.965 87.984 128.625 87.984C129.285 87.984 129.285 87.984 129.285 89.436V89.832C129.285 91.284 129.285 91.284 128.625 91.284C127.965 91.284 127.965 91.284 127.965 89.832V89.436Z" fill="#7A4FF4"/>
<path d="M36.424 39.944C38.152 39.944 38.152 40.024 38.152 41.704C38.152 43.384 38.152 43.464 36.424 43.464H32.392V39.944H36.424ZM36.264 35.208C37.992 35.208 37.992 35.224 37.992 36.808C37.992 38.392 37.992 38.408 36.264 38.408H32.392V35.208H36.264ZM35.176 45C38.152 45 40.072 44.92 40.072 41.848C40.072 41.464 39.912 39.688 38.504 39.336V39.016C39.912 38.664 39.912 37.048 39.912 36.664C39.912 33.688 37.992 33.672 35.016 33.672H30.664V45H35.176ZM51.5674 36.936V45H53.1994V36.936H51.5674ZM42.7354 45H46.1914C48.2074 45 49.9354 45 49.9354 42.312C49.9354 41.352 49.9354 39.432 46.5754 39.432C45.9034 39.432 45.1354 39.528 44.3674 39.72V36.936H42.7354V45ZM46.3834 40.968C48.2074 40.968 48.2074 40.968 48.2074 42.312C48.2074 43.656 48.2074 43.656 46.3834 43.656H44.3674V40.968H46.3834ZM61.3301 35.592C62.1941 35.384 63.0421 35.16 63.3461 33.96L63.4421 33.576L61.9061 33.192C61.7141 33.768 61.7301 33.768 60.9461 33.96L59.0261 34.44C55.7621 35.256 55.7621 37.416 55.7621 39.912V40.536C55.7621 43.224 55.7621 45.192 59.6981 45.192H60.4661C64.3061 45.192 64.3061 43.272 64.3061 41.832V40.968C64.3061 39.528 64.3061 37.608 60.8501 37.608C58.5461 37.608 57.7781 38.136 57.4261 38.568L57.1381 38.472C57.6181 36.552 57.6181 36.52 59.4101 36.072L61.3301 35.592ZM60.0821 39.032C62.5781 39.032 62.5781 39.384 62.5781 41.4C62.5781 43.416 62.5781 43.768 59.9541 43.768C57.5861 43.768 57.5861 43.416 57.5861 41.4C57.5861 39.384 57.5861 39.032 60.0821 39.032ZM66.5791 36.936V48.264H68.2111V44.808C68.9791 45 69.7471 45.192 71.1871 45.192C74.8351 45.192 74.8351 42.696 74.8351 41.352V40.584C74.8351 39.048 74.8351 36.744 71.3791 36.744C69.4591 36.744 68.4031 37.544 68.0191 37.832L67.3471 36.936H66.5791ZM73.1071 40.968C73.1071 43.64 73.1071 43.656 70.5151 43.656C69.9391 43.656 68.9791 43.656 68.2111 43.464V38.856L70.5151 38.28H70.7871C73.1071 38.28 73.1071 38.376 73.1071 40.968ZM78.5481 40.968C78.5481 38.28 78.5481 38.2 81.0441 38.2C83.5401 38.2 83.5401 38.28 83.5401 40.968C83.5401 43.656 83.5401 43.736 81.0441 43.736C78.5481 43.736 78.5481 43.656 78.5481 40.968ZM76.8201 41.352C76.8201 42.888 76.8201 45.192 80.6601 45.192H81.4281C85.2681 45.192 85.2681 42.888 85.2681 41.352V40.584C85.2681 39.048 85.2681 36.744 81.4281 36.744H80.6601C76.8201 36.744 76.8201 39.048 76.8201 40.584V41.352ZM91.1936 45.192C91.7696 45.192 93.0176 45.192 94.5536 44.808V43.272H94.1696L92.6176 43.656H91.7696C88.9856 43.656 88.9856 43.656 88.9856 40.968C88.9856 38.28 88.9856 38.28 91.1936 38.28C93.0176 38.28 93.0176 38.28 93.4016 39.816L94.9376 39.432C94.9376 38.664 94.9376 36.744 91.5776 36.744H90.8096C87.2576 36.744 87.2576 38.856 87.2576 40.584V41.352C87.2576 43.08 87.2576 45.192 91.1936 45.192ZM105.942 36.936V45H107.574V36.936H105.942ZM97.1104 45H100.566C102.582 45 104.31 45 104.31 42.312C104.31 41.352 104.31 39.432 100.95 39.432C100.278 39.432 99.5104 39.528 98.7424 39.72V36.936H97.1104V45ZM100.758 40.968C102.582 40.968 102.582 40.968 102.582 42.312C102.582 43.656 102.582 43.656 100.758 43.656H98.7424V40.968H100.758ZM116.314 40.968C116.314 38.28 116.314 38.2 118.81 38.2C121.306 38.2 121.306 38.28 121.306 40.968C121.306 43.656 121.306 43.736 118.81 43.736C116.314 43.736 116.314 43.656 116.314 40.968ZM114.586 41.352C114.586 42.888 114.586 45.192 118.426 45.192H119.194C123.034 45.192 123.034 42.888 123.034 41.352V40.584C123.034 39.048 123.034 36.744 119.194 36.744H118.426C114.586 36.744 114.586 39.048 114.586 40.584V41.352ZM132.655 36.936H124.591V38.344H127.775V45H129.471V38.344H132.655V36.936ZM36.44 57.36V64H38.072V55.936H31.56C31.512 57.6 31.416 58.976 31.128 61.056C30.936 62.448 30.776 62.72 29.4 62.72V64.032C31.992 64.032 32.264 63.728 32.584 61.344C32.824 59.584 32.936 58.352 32.968 57.36H36.44ZM42.1731 59.968C42.1731 57.28 42.1731 57.2 44.6691 57.2C47.1651 57.2 47.1651 57.28 47.1651 59.968C47.1651 62.656 47.1651 62.736 44.6691 62.736C42.1731 62.736 42.1731 62.656 42.1731 59.968ZM40.4451 60.352C40.4451 61.888 40.4451 64.192 44.2851 64.192H45.0531C48.8931 64.192 48.8931 61.888 48.8931 60.352V59.584C48.8931 58.048 48.8931 55.744 45.0531 55.744H44.2851C40.4451 55.744 40.4451 58.048 40.4451 59.584V60.352ZM59.4266 56.384V55.936H57.6026C56.4506 57.472 55.7786 58.368 55.7786 59.2H52.8986V55.936H51.2666V64H52.8986V60.736H55.7786C55.7786 61.568 56.4506 62.464 57.6026 64H59.4266V63.552L56.7226 59.968L59.4266 56.384ZM62.7513 59.968C62.7513 57.28 62.7513 57.2 65.2473 57.2C67.7433 57.2 67.7433 57.28 67.7433 59.968C67.7433 62.656 67.7433 62.736 65.2473 62.736C62.7513 62.736 62.7513 62.656 62.7513 59.968ZM61.0233 60.352C61.0233 61.888 61.0233 64.192 64.8633 64.192H65.6313C69.4713 64.192 69.4713 61.888 69.4713 60.352V59.584C69.4713 58.048 69.4713 55.744 65.6313 55.744H64.8633C61.0233 55.744 61.0233 58.048 61.0233 59.584V60.352ZM71.8448 55.936V64H73.4768V57.376H73.8928C73.8928 57.76 73.8928 57.76 76.3888 64H78.5328C81.0288 57.76 81.0288 57.76 81.0288 57.28H81.4448V64H83.0768V55.936H80.1648C77.6688 61.936 77.6688 61.936 77.6688 62.656H77.2528C77.2528 61.936 77.2528 61.936 74.7568 55.936H71.8448ZM87.1731 59.968C87.1731 57.28 87.1731 57.2 89.6691 57.2C92.1651 57.2 92.1651 57.28 92.1651 59.968C92.1651 62.656 92.1651 62.736 89.6691 62.736C87.1731 62.736 87.1731 62.656 87.1731 59.968ZM85.4451 60.352C85.4451 61.888 85.4451 64.192 89.2851 64.192H90.0531C93.8931 64.192 93.8931 61.888 93.8931 60.352V59.584C93.8931 58.048 93.8931 55.744 90.0531 55.744H89.2851C85.4451 55.744 85.4451 58.048 85.4451 59.584V60.352ZM103.515 55.936H95.4506V57.344H98.6346V64H100.331V57.344H103.515V55.936ZM107.678 64C111.854 58.448 111.854 58.16 111.854 57.312H112.27V64H113.902V55.936H111.694C107.518 61.488 107.518 61.776 107.518 62.624H107.086V55.936H105.454V64H107.678ZM116.657 64H120.385C122.305 64 124.241 64 124.241 61.984C124.241 61.312 124.081 60.448 122.545 60.064V59.872C124.081 59.488 124.081 58.624 124.081 57.952C124.081 55.936 122.305 55.936 120.385 55.936H116.657V64ZM120.977 60.544C122.401 60.544 122.417 60.544 122.417 61.6C122.417 62.64 122.417 62.656 120.977 62.656H118.289V60.544H120.977ZM120.817 57.28C122.241 57.28 122.257 57.28 122.257 58.336C122.257 59.376 122.257 59.392 120.817 59.392H118.289V57.28H120.817ZM127.954 59.968C127.954 57.28 127.954 57.2 130.45 57.2C132.946 57.2 132.946 57.28 132.946 59.968C132.946 62.656 132.946 62.736 130.45 62.736C127.954 62.736 127.954 62.656 127.954 59.968ZM126.226 60.352C126.226 61.888 126.226 64.192 130.066 64.192H130.834C134.674 64.192 134.674 61.888 134.674 60.352V59.584C134.674 58.048 134.674 55.744 130.834 55.744H130.066C126.226 55.744 126.226 58.048 126.226 59.584V60.352ZM137.048 64H140.776C142.696 64 144.632 64 144.632 61.984C144.632 61.312 144.472 60.448 142.936 60.064V59.872C144.472 59.488 144.472 58.624 144.472 57.952C144.472 55.936 142.696 55.936 140.776 55.936H137.048V64ZM141.368 60.544C142.792 60.544 142.808 60.544 142.808 61.6C142.808 62.64 142.808 62.656 141.368 62.656H138.68V60.544H141.368ZM141.208 57.28C142.632 57.28 142.648 57.28 142.648 58.336C142.648 59.376 142.648 59.392 141.208 59.392H138.68V57.28H141.208Z" fill="black"/>
<defs>
<filter id="filter0_d" x="0" y="0" width="176" height="128" filterUnits="userSpaceOnUse" color-interpolation-filters="sRGB">
<feFlood flood-opacity="0" result="BackgroundImageFix"/>
<feColorMatrix in="SourceAlpha" type="matrix" values="0 0 0 0 0 0 0 0 0 0 0 0 0 0 0 0 0 0 127 0"/>
<feOffset dy="-4"/>
<feGaussianBlur stdDeviation="7"/>
<feColorMatrix type="matrix" values="0 0 0 0 0.741176 0 0 0 0 0.756863 0 0 0 0 0.815686 0 0 0 0.3 0"/>
<feBlend mode="normal" in2="BackgroundImageFix" result="effect1_dropShadow"/>
<feBlend mode="normal" in="SourceGraphic" in2="effect1_dropShadow" result="shape"/>
</filter>
</defs>
</svg>
