<svg width="214" height="128" viewBox="0 0 214 128" fill="none" xmlns="http://www.w3.org/2000/svg">
<g filter="url(#filter0_d)">
<path d="M14 26C14 21.5817 17.5817 18 22 18H192C196.418 18 200 21.5817 200 26V100C200 104.418 196.418 108 192 108H53.6707C52.4082 108 51.1636 108.299 50.0386 108.872L32.125 118L32.1888 116.3C32.3587 111.767 28.7302 108 24.1944 108H22C17.5817 108 14 104.418 14 100V26Z" fill="white"/>
</g>
<path d="M26.224 83.576V85.256H30.256V83.576H26.224ZM31.6684 89H38.5804V86.984H36.5644V77.672H35.3164L31.6684 78.584V79.928H34.4044V86.984H31.6684V89ZM44.2616 77.416C42.6296 77.416 40.4216 77.448 40.4216 82.856V83.816C40.4216 89.288 42.6296 89.288 44.2616 89.288H44.5496C46.1816 89.288 48.3896 89.288 48.3896 83.816V82.856C48.3896 77.448 46.1816 77.416 44.5496 77.416H44.2616ZM42.7736 83.144C42.7736 79.448 42.7736 79.448 44.4056 79.448C46.0376 79.448 46.0376 79.448 46.0376 83.144V83.528C46.0376 87.224 46.0376 87.224 44.4056 87.224C42.7736 87.224 42.7736 87.224 42.7736 83.528V83.144ZM53.5429 77.416C51.9109 77.416 49.7029 77.448 49.7029 82.856V83.816C49.7029 89.288 51.9109 89.288 53.5429 89.288H53.8309C55.4629 89.288 57.6709 89.288 57.6709 83.816V82.856C57.6709 77.448 55.4629 77.416 53.8309 77.416H53.5429ZM52.0549 83.144C52.0549 79.448 52.0549 79.448 53.6869 79.448C55.3189 79.448 55.3189 79.448 55.3189 83.144V83.528C55.3189 87.224 55.3189 87.224 53.6869 87.224C52.0549 87.224 52.0549 87.224 52.0549 83.528V83.144ZM60.1841 85.864C59.6081 86.632 58.9841 87.464 58.9841 88.632V89H61.2881V87.96C61.2881 86.728 61.2881 86.808 62.3441 85.352L65.7521 80.808C66.3121 80.056 66.9521 79.208 66.9521 78.04V77.672H64.6481V78.712C64.6481 79.928 64.6481 79.928 63.5921 81.32L60.1841 85.864ZM62.6801 79.88C62.6801 77.608 61.1921 77.608 60.6641 77.608H60.4721C59.9441 77.608 58.4561 77.608 58.4561 79.88V80.36C58.4561 82.632 59.9441 82.632 60.4721 82.632H60.6641C61.1921 82.632 62.6801 82.632 62.6801 80.36V79.88ZM60.0881 79.976C60.0881 78.92 60.0881 78.92 60.5681 78.92C61.0481 78.92 61.0481 78.92 61.0481 79.976V80.264C61.0481 81.32 61.0481 81.32 60.5681 81.32C60.0881 81.32 60.0881 81.32 60.0881 80.264V79.976ZM67.4801 86.312C67.4801 84.04 65.9921 84.04 65.4641 84.04H65.2721C64.7441 84.04 63.2561 84.04 63.2561 86.312V86.792C63.2561 89.064 64.7441 89.064 65.2721 89.064H65.4641C65.9921 89.064 67.4801 89.064 67.4801 86.792V86.312ZM64.8881 86.408C64.8881 85.352 64.8881 85.352 65.3681 85.352C65.8481 85.352 65.8481 85.352 65.8481 86.408V86.696C65.8481 87.752 65.8481 87.752 65.3681 87.752C64.8881 87.752 64.8881 87.752 64.8881 86.696V86.408Z" fill="#E21A1A"/>
<path d="M73.9743 91.304H75.3183V75.368H73.9743V91.304Z" fill="#CBCDD5"/>
<path d="M81.9955 81.542V83.852H87.5395V81.542H81.9955ZM89.4815 89H98.9855V86.228H96.2135V73.424H94.4975L89.4815 74.678V76.526H93.2435V86.228H89.4815V89ZM106.797 73.072C104.553 73.072 101.517 73.116 101.517 80.552V81.872C101.517 89.396 104.553 89.396 106.797 89.396H107.193C109.437 89.396 112.473 89.396 112.473 81.872V80.552C112.473 73.116 109.437 73.072 107.193 73.072H106.797ZM104.751 80.948C104.751 75.866 104.751 75.866 106.995 75.866C109.239 75.866 109.239 75.866 109.239 80.948V81.476C109.239 86.558 109.239 86.558 106.995 86.558C104.751 86.558 104.751 86.558 104.751 81.476V80.948ZM119.559 73.072C117.315 73.072 114.279 73.116 114.279 80.552V81.872C114.279 89.396 117.315 89.396 119.559 89.396H119.955C122.199 89.396 125.235 89.396 125.235 81.872V80.552C125.235 73.116 122.199 73.072 119.955 73.072H119.559ZM117.513 80.948C117.513 75.866 117.513 75.866 119.757 75.866C122.001 75.866 122.001 75.866 122.001 80.948V81.476C122.001 86.558 122.001 86.558 119.757 86.558C117.513 86.558 117.513 86.558 117.513 81.476V80.948ZM128.691 84.688C127.899 85.744 127.041 86.888 127.041 88.494V89H130.209V87.57C130.209 85.876 130.209 85.986 131.661 83.984L136.347 77.736C137.117 76.702 137.997 75.536 137.997 73.93V73.424H134.829V74.854C134.829 76.526 134.829 76.526 133.377 78.44L128.691 84.688ZM132.123 76.46C132.123 73.336 130.077 73.336 129.351 73.336H129.087C128.361 73.336 126.315 73.336 126.315 76.46V77.12C126.315 80.244 128.361 80.244 129.087 80.244H129.351C130.077 80.244 132.123 80.244 132.123 77.12V76.46ZM128.559 76.592C128.559 75.14 128.559 75.14 129.219 75.14C129.879 75.14 129.879 75.14 129.879 76.592V76.988C129.879 78.44 129.879 78.44 129.219 78.44C128.559 78.44 128.559 78.44 128.559 76.988V76.592ZM138.723 85.304C138.723 82.18 136.677 82.18 135.951 82.18H135.687C134.961 82.18 132.915 82.18 132.915 85.304V85.964C132.915 89.088 134.961 89.088 135.687 89.088H135.951C136.677 89.088 138.723 89.088 138.723 85.964V85.304ZM135.159 85.436C135.159 83.984 135.159 83.984 135.819 83.984C136.479 83.984 136.479 83.984 136.479 85.436V85.832C136.479 87.284 136.479 87.284 135.819 87.284C135.159 87.284 135.159 87.284 135.159 85.832V85.436Z" fill="#7A4FF4"/>
<path d="M36.976 37C36.976 35.88 36.976 33.416 32.464 33.416H31.888C27.184 33.416 27.184 36.36 27.184 38.856V39.816C27.184 42.504 27.184 45.256 32.176 45.256C33.136 45.256 34.256 45.256 36.688 44.648V42.984H36.112L33.808 43.56H33.136C29.104 43.56 29.104 43.56 29.104 39.624V39.048C29.104 35.112 29.104 35.112 32.176 35.112C34.736 35.112 34.736 35.112 35.312 37.416L36.976 37ZM44.5333 35.592C45.3973 35.384 46.2453 35.16 46.5493 33.96L46.6453 33.576L45.1093 33.192C44.9173 33.768 44.9333 33.768 44.1493 33.96L42.2293 34.44C38.9653 35.256 38.9653 37.416 38.9653 39.912V40.536C38.9653 43.224 38.9653 45.192 42.9013 45.192H43.6693C47.5093 45.192 47.5093 43.272 47.5093 41.832V40.968C47.5093 39.528 47.5093 37.608 44.0533 37.608C41.7493 37.608 40.9813 38.136 40.6293 38.568L40.3413 38.472C40.8213 36.552 40.8213 36.52 42.6133 36.072L44.5333 35.592ZM43.2853 39.032C45.7812 39.032 45.7812 39.384 45.7812 41.4C45.7812 43.416 45.7812 43.768 43.1573 43.768C40.7893 43.768 40.7893 43.416 40.7893 41.4C40.7893 39.384 40.7893 39.032 43.2853 39.032ZM49.7823 36.936V48.264H51.4143V44.808C52.1823 45 52.9503 45.192 54.3903 45.192C58.0383 45.192 58.0383 42.696 58.0383 41.352V40.584C58.0383 39.048 58.0383 36.744 54.5823 36.744C52.6623 36.744 51.6063 37.544 51.2223 37.832L50.5503 36.936H49.7823ZM56.3103 40.968C56.3103 43.64 56.3103 43.656 53.7183 43.656C53.1423 43.656 52.1823 43.656 51.4143 43.464V38.856L53.7183 38.28H53.9903C56.3103 38.28 56.3103 38.376 56.3103 40.968ZM61.7513 40.968C61.7513 38.28 61.7513 38.2 64.2473 38.2C66.7433 38.2 66.7433 38.28 66.7433 40.968C66.7433 43.656 66.7433 43.736 64.2473 43.736C61.7513 43.736 61.7513 43.656 61.7513 40.968ZM60.0233 41.352C60.0233 42.888 60.0233 45.192 63.8633 45.192H64.6313C68.4713 45.192 68.4713 42.888 68.4713 41.352V40.584C68.4713 39.048 68.4713 36.744 64.6313 36.744H63.8633C60.0233 36.744 60.0233 39.048 60.0233 40.584V41.352ZM74.3968 45.192C74.9728 45.192 76.2208 45.192 77.7568 44.808V43.272H77.3728L75.8208 43.656H74.9728C72.1888 43.656 72.1888 43.656 72.1888 40.968C72.1888 38.28 72.1888 38.28 74.3968 38.28C76.2208 38.28 76.2208 38.28 76.6048 39.816L78.1408 39.432C78.1408 38.664 78.1408 36.744 74.7808 36.744H74.0128C70.4608 36.744 70.4608 38.856 70.4608 40.584V41.352C70.4608 43.08 70.4608 45.192 74.3968 45.192ZM28.816 62.656L27.28 62.272H26.896V63.808C28.432 64.192 29.664 64.192 30.24 64.192C33.872 64.192 34.048 62.656 34.048 61.888C34.048 61.504 34.048 60.448 32.512 60.064V59.872C34.048 59.488 34.048 58.432 34.048 58.048C34.048 57.28 33.888 55.744 30.24 55.744C29.664 55.744 28.432 55.744 26.896 56.128V57.664H27.28L28.816 57.28H30.784C32.224 57.28 32.224 57.28 32.224 58.304C32.224 59.296 32.224 59.296 30.784 59.296H28.816V60.64H30.784C32.224 60.64 32.224 60.64 32.224 61.632C32.224 62.656 32.224 62.656 30.784 62.656H28.816ZM43.0476 64.192L44.2636 63.28C43.6876 62.512 43.6876 62.512 43.6876 60.928V59.584C43.6876 57.664 43.6876 55.744 39.9436 55.744C39.3676 55.744 38.1196 55.744 36.5836 56.128V57.664H36.9676L38.5036 57.28H39.9436C42.0556 57.28 42.0556 57.28 42.0556 59.296H39.9436C35.9116 59.296 35.9116 60.64 35.9116 61.888C35.9116 62.656 35.9116 64.192 38.7916 64.192C40.7756 64.192 41.8476 63.392 42.2316 63.104L43.0476 64.192ZM37.7356 61.696C37.7356 60.544 37.7356 60.544 39.9436 60.544H42.0556V62.08L39.7516 62.656H38.8876C37.7356 62.656 37.7356 62.656 37.7356 61.696ZM52.8408 55.936H46.3448V64H47.9768V57.344H52.8408V55.936ZM54.6104 55.936V67.264H56.2424V63.808C57.0104 64 57.7784 64.192 59.2184 64.192C62.8664 64.192 62.8664 61.696 62.8664 60.352V59.584C62.8664 58.048 62.8664 55.744 59.4104 55.744C57.4904 55.744 56.4344 56.544 56.0504 56.832L55.3784 55.936H54.6104ZM61.1384 59.968C61.1384 62.64 61.1384 62.656 58.5464 62.656C57.9704 62.656 57.0104 62.656 56.2424 62.464V57.856L58.5464 57.28H58.8184C61.1384 57.28 61.1384 57.376 61.1384 59.968ZM72.5314 64V55.936H69.0754C66.6754 55.936 64.7554 55.936 64.7554 58.528C64.7554 59.936 65.2354 60.304 66.5794 61.312L64.8994 63.552V64H66.7234C67.2994 63.264 67.9234 62.496 67.9234 61.312H70.8994V64H72.5314ZM68.4034 59.968C66.5954 59.968 66.5794 59.968 66.5794 58.624C66.5794 57.296 66.5794 57.28 68.4034 57.28H70.8994V59.968H68.4034ZM76.7223 62.656L75.1863 62.272H74.8023V63.808C76.3383 64.192 77.5703 64.192 78.1463 64.192C81.7783 64.192 81.9543 62.656 81.9543 61.888C81.9543 61.504 81.9543 60.448 80.4183 60.064V59.872C81.9543 59.488 81.9543 58.432 81.9543 58.048C81.9543 57.28 81.7943 55.744 78.1463 55.744C77.5703 55.744 76.3383 55.744 74.8023 56.128V57.664H75.1863L76.7223 57.28H78.6903C80.1303 57.28 80.1303 57.28 80.1303 58.304C80.1303 59.296 80.1303 59.296 78.6903 59.296H76.7223V60.64H78.6903C80.1303 60.64 80.1303 60.64 80.1303 61.632C80.1303 62.656 80.1303 62.656 78.6903 62.656H76.7223ZM90.6339 55.936V59.184H85.9299V55.936H84.2979V64H85.9299V60.592H90.6339V64H92.2659V55.936H90.6339ZM98.5686 62.656C96.3606 62.656 96.3606 62.656 96.3606 60.64H98.5686C100.873 60.64 101.257 60.64 102.121 60.448L102.505 60.352V59.584C102.505 58.048 102.505 55.744 98.9526 55.744H98.1846C94.6326 55.744 94.6326 58.048 94.6326 59.584V60.352C94.6326 62.08 94.6326 64.192 98.5686 64.192C99.2406 64.192 100.393 64.192 101.929 63.808V62.272H101.545L100.009 62.656H98.5686ZM96.3606 59.392C96.3606 57.28 96.3606 57.28 98.5686 57.28C100.777 57.28 100.777 57.28 100.777 59.392H96.3606ZM111.212 55.936V59.184H106.508V55.936H104.876V64H106.508V60.592H111.212V64H112.844V55.936H111.212ZM121.931 55.936V59.184H117.227V55.936H115.595V64H117.227V60.592H121.931V64H123.563V55.936H121.931ZM135.146 55.936V64H136.778V55.936H135.146ZM126.314 64H129.77C131.786 64 133.514 64 133.514 61.312C133.514 60.352 133.514 58.432 130.154 58.432C129.482 58.432 128.714 58.528 127.946 58.72V55.936H126.314V64ZM129.962 59.968C131.786 59.968 131.786 59.968 131.786 61.312C131.786 62.656 131.786 62.656 129.962 62.656H127.946V59.968H129.962ZM140.588 64C141.74 62.464 142.412 61.568 142.412 60.736H143.66C143.66 61.568 144.332 62.464 145.484 64H147.308V63.552L144.62 59.968L147.308 56.384V55.936H145.484C144.332 57.472 143.66 58.368 143.66 59.2H142.412C142.412 58.368 141.74 57.472 140.588 55.936H138.764V56.384L141.452 59.968L138.764 63.552V64H140.588ZM153.939 64H157.667C159.587 64 161.523 64 161.523 61.984C161.523 61.312 161.363 60.448 159.827 60.064V59.872C161.363 59.488 161.363 58.624 161.363 57.952C161.363 55.936 159.587 55.936 157.667 55.936H153.939V64ZM158.259 60.544C159.683 60.544 159.699 60.544 159.699 61.6C159.699 62.64 159.699 62.656 158.259 62.656H155.571V60.544H158.259ZM158.099 57.28C159.523 57.28 159.539 57.28 159.539 58.336C159.539 59.376 159.539 59.392 158.099 59.392H155.571V57.28H158.099ZM165.236 59.968C165.236 57.28 165.236 57.2 167.732 57.2C170.228 57.2 170.228 57.28 170.228 59.968C170.228 62.656 170.228 62.736 167.732 62.736C165.236 62.736 165.236 62.656 165.236 59.968ZM163.508 60.352C163.508 61.888 163.508 64.192 167.348 64.192H168.116C171.956 64.192 171.956 61.888 171.956 60.352V59.584C171.956 58.048 171.956 55.744 168.116 55.744H167.348C163.508 55.744 163.508 58.048 163.508 59.584V60.352ZM175.081 64H182.105V66.304H183.673V62.656H182.329V55.936H175.769V56.896C175.769 58.8 175.561 60.832 174.617 62.656H173.513V66.304H175.081V64ZM177.337 57.344H180.697V62.656H176.377C177.145 60.816 177.337 58.864 177.337 57.344Z" fill="black"/>
<defs>
<filter id="filter0_d" x="0" y="0" width="214" height="128" filterUnits="userSpaceOnUse" color-interpolation-filters="sRGB">
<feFlood flood-opacity="0" result="BackgroundImageFix"/>
<feColorMatrix in="SourceAlpha" type="matrix" values="0 0 0 0 0 0 0 0 0 0 0 0 0 0 0 0 0 0 127 0"/>
<feOffset dy="-4"/>
<feGaussianBlur stdDeviation="7"/>
<feColorMatrix type="matrix" values="0 0 0 0 0.741176 0 0 0 0 0.756863 0 0 0 0 0.815686 0 0 0 0.3 0"/>
<feBlend mode="normal" in2="BackgroundImageFix" result="effect1_dropShadow"/>
<feBlend mode="normal" in="SourceGraphic" in2="effect1_dropShadow" result="shape"/>
</filter>
</defs>
</svg>
