<svg width="214" height="128" viewBox="0 0 214 128" fill="none" xmlns="http://www.w3.org/2000/svg">
<g filter="url(#filter0_d)">
<path d="M200 110C200 114.418 196.418 118 192 118L22 118C17.5817 118 14 114.418 14 110L14 36C14 31.5817 17.5817 28 22 28L160.329 28C161.592 28 162.836 27.7012 163.961 27.128L181.875 18L181.811 19.7002C181.641 24.2329 185.27 28 189.806 28L192 28C196.418 28 200 31.5817 200 36L200 110Z" fill="white"/>
</g>
<path d="M26.224 96.5756V98.2556H30.256V96.5756H26.224ZM38.9164 98.1596C38.9164 96.9596 38.9164 94.6396 36.0844 94.6396C35.7484 94.6396 35.1724 94.6396 33.5884 95.0236V92.6876H38.4364V90.6716H31.7164V97.1036L33.8124 97.6156C34.1324 96.4316 34.1324 96.4316 35.3164 96.4316C36.5644 96.4316 36.5644 96.4316 36.5644 98.3516C36.5644 100.224 36.5644 100.224 34.5964 100.224H34.0204L32.1004 99.7436H31.5244V101.776C33.5724 102.288 34.4524 102.288 34.9804 102.288C38.9164 102.288 38.9164 99.9356 38.9164 98.5436V98.1596ZM41.6216 98.8636C41.0456 99.6316 40.4216 100.464 40.4216 101.632V102H42.7256V100.96C42.7256 99.7276 42.7256 99.8076 43.7816 98.3516L47.1896 93.8076C47.7496 93.0556 48.3896 92.2076 48.3896 91.0396V90.6716H46.0856V91.7116C46.0856 92.9276 46.0856 92.9276 45.0296 94.3196L41.6216 98.8636ZM44.1176 92.8796C44.1176 90.6076 42.6296 90.6076 42.1016 90.6076H41.9096C41.3816 90.6076 39.8936 90.6076 39.8936 92.8796V93.3596C39.8936 95.6316 41.3816 95.6316 41.9096 95.6316H42.1016C42.6296 95.6316 44.1176 95.6316 44.1176 93.3596V92.8796ZM41.5256 92.9756C41.5256 91.9196 41.5256 91.9196 42.0056 91.9196C42.4856 91.9196 42.4856 91.9196 42.4856 92.9756V93.2636C42.4856 94.3196 42.4856 94.3196 42.0056 94.3196C41.5256 94.3196 41.5256 94.3196 41.5256 93.2636V92.9756ZM48.9176 99.3116C48.9176 97.0396 47.4296 97.0396 46.9016 97.0396H46.7096C46.1816 97.0396 44.6936 97.0396 44.6936 99.3116V99.7916C44.6936 102.064 46.1816 102.064 46.7096 102.064H46.9016C47.4296 102.064 48.9176 102.064 48.9176 99.7916V99.3116ZM46.3256 99.4076C46.3256 98.3516 46.3256 98.3516 46.8056 98.3516C47.2856 98.3516 47.2856 98.3516 47.2856 99.4076V99.6956C47.2856 100.752 47.2856 100.752 46.8056 100.752C46.3256 100.752 46.3256 100.752 46.3256 99.6956V99.4076Z" fill="#E21A1A"/>
<path d="M55.4117 104.304H56.7557V88.3676H55.4117V104.304Z" fill="#CBCDD5"/>
<path d="M63.433 94.5416V96.8516H68.977V94.5416H63.433ZM70.919 102H80.423V99.2276H77.651V86.4236H75.935L70.919 87.6776V89.5256H74.681V99.2276H70.919V102ZM83.6807 102H93.1847V99.2276H90.4127V86.4236H88.6967L83.6807 87.6776V89.5256H87.4427V99.2276H83.6807V102ZM96.8604 105.344V105.696H98.3564C99.2804 104.442 100.27 102.792 100.27 101.076V100.68C100.27 100.152 100.27 98.4356 98.0264 98.4356H97.3664C95.8484 98.4356 95.8484 99.3596 95.8484 99.8876V100.548C95.8484 101.076 95.8484 102 97.3664 102H97.5644V102.528L96.8604 105.344ZM102.278 86.4236V90.9116H104.786V89.0636H109.406V90.9996L106.436 94.9596C104.984 96.8956 104.984 98.1716 104.984 100.944V102H108.284V100.944C108.284 97.2036 108.284 97.2036 109.142 96.0816L111.122 93.5076C112.31 91.9676 112.31 91.5056 112.31 89.1296V86.4236H102.278ZM116.294 97.6876C115.502 98.7436 114.644 99.8876 114.644 101.494V102H117.812V100.57C117.812 98.8756 117.812 98.9856 119.264 96.9836L123.95 90.7356C124.72 89.7016 125.6 88.5356 125.6 86.9296V86.4236H122.432V87.8536C122.432 89.5256 122.432 89.5256 120.98 91.4396L116.294 97.6876ZM119.726 89.4596C119.726 86.3356 117.68 86.3356 116.954 86.3356H116.69C115.964 86.3356 113.918 86.3356 113.918 89.4596V90.1196C113.918 93.2436 115.964 93.2436 116.69 93.2436H116.954C117.68 93.2436 119.726 93.2436 119.726 90.1196V89.4596ZM116.162 89.5916C116.162 88.1396 116.162 88.1396 116.822 88.1396C117.482 88.1396 117.482 88.1396 117.482 89.5916V89.9876C117.482 91.4396 117.482 91.4396 116.822 91.4396C116.162 91.4396 116.162 91.4396 116.162 89.9876V89.5916ZM126.326 98.3036C126.326 95.1796 124.28 95.1796 123.554 95.1796H123.29C122.564 95.1796 120.518 95.1796 120.518 98.3036V98.9636C120.518 102.088 122.564 102.088 123.29 102.088H123.554C124.28 102.088 126.326 102.088 126.326 98.9636V98.3036ZM122.762 98.4356C122.762 96.9836 122.762 96.9836 123.422 96.9836C124.082 96.9836 124.082 96.9836 124.082 98.4356V98.8316C124.082 100.284 124.082 100.284 123.422 100.284C122.762 100.284 122.762 100.284 122.762 98.8316V98.4356Z" fill="#7A4FF4"/>
<path d="M33.424 48.9436C35.152 48.9436 35.152 49.0236 35.152 50.7036C35.152 52.3836 35.152 52.4636 33.424 52.4636H29.392V48.9436H33.424ZM33.264 44.2076C34.992 44.2076 34.992 44.2236 34.992 45.8076C34.992 47.3916 34.992 47.4076 33.264 47.4076H29.392V44.2076H33.264ZM32.176 53.9996C35.152 53.9996 37.072 53.9196 37.072 50.8476C37.072 50.4636 36.912 48.6876 35.504 48.3356V48.0156C36.912 47.6636 36.912 46.0476 36.912 45.6636C36.912 42.6876 34.992 42.6716 32.016 42.6716H27.664V53.9996H32.176ZM48.5674 45.9356V53.9996H50.1994V45.9356H48.5674ZM39.7354 53.9996H43.1914C45.2074 53.9996 46.9354 53.9996 46.9354 51.3116C46.9354 50.3516 46.9354 48.4316 43.5754 48.4316C42.9034 48.4316 42.1354 48.5276 41.3674 48.7196V45.9356H39.7354V53.9996ZM43.3834 49.9676C45.2074 49.9676 45.2074 49.9676 45.2074 51.3116C45.2074 52.6556 45.2074 52.6556 43.3834 52.6556H41.3674V49.9676H43.3834ZM58.3301 44.5916C59.1941 44.3836 60.0421 44.1596 60.3461 42.9596L60.4421 42.5756L58.9061 42.1916C58.7141 42.7676 58.7301 42.7676 57.9461 42.9596L56.0261 43.4396C52.7621 44.2556 52.7621 46.4156 52.7621 48.9116V49.5356C52.7621 52.2236 52.7621 54.1916 56.6981 54.1916H57.4661C61.3061 54.1916 61.3061 52.2716 61.3061 50.8316V49.9676C61.3061 48.5276 61.3061 46.6076 57.8501 46.6076C55.5461 46.6076 54.7781 47.1356 54.4261 47.5676L54.1381 47.4716C54.6181 45.5516 54.6181 45.5196 56.4101 45.0716L58.3301 44.5916ZM57.0821 48.0316C59.5781 48.0316 59.5781 48.3836 59.5781 50.3996C59.5781 52.4156 59.5781 52.7676 56.9541 52.7676C54.5861 52.7676 54.5861 52.4156 54.5861 50.3996C54.5861 48.3836 54.5861 48.0316 57.0821 48.0316ZM63.5791 45.9356V57.2636H65.2111V53.8076C65.9791 53.9996 66.7471 54.1916 68.1871 54.1916C71.8351 54.1916 71.8351 51.6956 71.8351 50.3516V49.5836C71.8351 48.0476 71.8351 45.7436 68.3791 45.7436C66.4591 45.7436 65.4031 46.5436 65.0191 46.8316L64.3471 45.9356H63.5791ZM70.1071 49.9676C70.1071 52.6396 70.1071 52.6556 67.5151 52.6556C66.9391 52.6556 65.9791 52.6556 65.2111 52.4636V47.8556L67.5151 47.2796H67.7871C70.1071 47.2796 70.1071 47.3756 70.1071 49.9676ZM75.5481 49.9676C75.5481 47.2796 75.5481 47.1996 78.0441 47.1996C80.5401 47.1996 80.5401 47.2796 80.5401 49.9676C80.5401 52.6556 80.5401 52.7356 78.0441 52.7356C75.5481 52.7356 75.5481 52.6556 75.5481 49.9676ZM73.8201 50.3516C73.8201 51.8876 73.8201 54.1916 77.6601 54.1916H78.4281C82.2681 54.1916 82.2681 51.8876 82.2681 50.3516V49.5836C82.2681 48.0476 82.2681 45.7436 78.4281 45.7436H77.6601C73.8201 45.7436 73.8201 48.0476 73.8201 49.5836V50.3516ZM88.1936 54.1916C88.7696 54.1916 90.0176 54.1916 91.5536 53.8076V52.2716H91.1696L89.6176 52.6556H88.7696C85.9856 52.6556 85.9856 52.6556 85.9856 49.9676C85.9856 47.2796 85.9856 47.2796 88.1936 47.2796C90.0176 47.2796 90.0176 47.2796 90.4016 48.8156L91.9376 48.4316C91.9376 47.6636 91.9376 45.7436 88.5776 45.7436H87.8096C84.2576 45.7436 84.2576 47.8556 84.2576 49.5836V50.3516C84.2576 52.0796 84.2576 54.1916 88.1936 54.1916ZM102.942 45.9356V53.9996H104.574V45.9356H102.942ZM94.1104 53.9996H97.5664C99.5824 53.9996 101.31 53.9996 101.31 51.3116C101.31 50.3516 101.31 48.4316 97.9504 48.4316C97.2784 48.4316 96.5104 48.5276 95.7424 48.7196V45.9356H94.1104V53.9996ZM97.7584 49.9676C99.5824 49.9676 99.5824 49.9676 99.5824 51.3116C99.5824 52.6556 99.5824 52.6556 97.7584 52.6556H95.7424V49.9676H97.7584ZM33.712 64.9356H27.376V72.9996H29.008V66.3436H33.712V72.9996H35.344V64.9356H33.712ZM44.7507 73.1916L45.9667 72.2796C45.3907 71.5116 45.3907 71.5116 45.3907 69.9276V68.5836C45.3907 66.6636 45.3907 64.7436 41.6467 64.7436C41.0707 64.7436 39.8227 64.7436 38.2867 65.1276V66.6636H38.6707L40.2067 66.2796H41.6467C43.7587 66.2796 43.7587 66.2796 43.7587 68.2956H41.6467C37.6147 68.2956 37.6147 69.6396 37.6147 70.8876C37.6147 71.6556 37.6147 73.1916 40.4947 73.1916C42.4787 73.1916 43.5507 72.3916 43.9347 72.1036L44.7507 73.1916ZM39.4387 70.6956C39.4387 69.5436 39.4387 69.5436 41.6467 69.5436H43.7587V71.0796L41.4547 71.6556H40.5907C39.4387 71.6556 39.4387 71.6556 39.4387 70.6956ZM48.0479 64.9356V76.2636H49.6799V72.8076C50.4479 72.9996 51.2159 73.1916 52.6559 73.1916C56.3039 73.1916 56.3039 70.6956 56.3039 69.3516V68.5836C56.3039 67.0476 56.3039 64.7436 52.8479 64.7436C50.9279 64.7436 49.8719 65.5436 49.4879 65.8316L48.8159 64.9356H48.0479ZM54.5759 68.9676C54.5759 71.6396 54.5759 71.6556 51.9839 71.6556C51.4079 71.6556 50.4479 71.6556 49.6799 71.4636V66.8556L51.9839 66.2796H52.2559C54.5759 66.2796 54.5759 66.3756 54.5759 68.9676ZM65.0089 64.9356V68.1836H60.3049V64.9356H58.6729V72.9996H60.3049V69.5916H65.0089V72.9996H66.6409V64.9356H65.0089ZM71.6156 72.9996C75.7916 67.4476 75.7916 67.1596 75.7916 66.3116H76.2076V72.9996H77.8396V64.9356H75.6316C71.4556 70.4876 71.4556 70.7756 71.4556 71.6236H71.0236V64.9356H69.3916V72.9996H71.6156ZM88.7547 65.3836V64.9356H86.9307C85.7787 66.4716 85.1067 67.3676 85.1067 68.1996H82.2267V64.9356H80.5947V72.9996H82.2267V69.7356H85.1067C85.1067 70.5676 85.7787 71.4636 86.9307 72.9996H88.7547V72.5516L86.0507 68.9676L88.7547 65.3836ZM92.0794 68.9676C92.0794 66.2796 92.0794 66.1996 94.5754 66.1996C97.0714 66.1996 97.0714 66.2796 97.0714 68.9676C97.0714 71.6556 97.0714 71.7356 94.5754 71.7356C92.0794 71.7356 92.0794 71.6556 92.0794 68.9676ZM90.3514 69.3516C90.3514 70.8876 90.3514 73.1916 94.1914 73.1916H94.9594C98.7994 73.1916 98.7994 70.8876 98.7994 69.3516V68.5836C98.7994 67.0476 98.7994 64.7436 94.9594 64.7436H94.1914C90.3514 64.7436 90.3514 67.0476 90.3514 68.5836V69.3516ZM101.173 72.9996H104.901C106.821 72.9996 108.757 72.9996 108.757 70.9836C108.757 70.3116 108.597 69.4476 107.061 69.0636V68.8716C108.597 68.4876 108.597 67.6236 108.597 66.9516C108.597 64.9356 106.821 64.9356 104.901 64.9356H101.173V72.9996ZM105.493 69.5436C106.917 69.5436 106.933 69.5436 106.933 70.5996C106.933 71.6396 106.933 71.6556 105.493 71.6556H102.805V69.5436H105.493ZM105.333 66.2796C106.757 66.2796 106.773 66.2796 106.773 67.3356C106.773 68.3756 106.773 68.3916 105.333 68.3916H102.805V66.2796H105.333ZM119.958 64.9356V72.9996H121.59V64.9356H119.958ZM111.126 72.9996H114.582C116.598 72.9996 118.326 72.9996 118.326 70.3116C118.326 69.3516 118.326 67.4316 114.966 67.4316C114.294 67.4316 113.526 67.5276 112.758 67.7196V64.9356H111.126V72.9996ZM114.774 68.9676C116.598 68.9676 116.598 68.9676 116.598 70.3116C116.598 71.6556 116.598 71.6556 114.774 71.6556H112.758V68.9676H114.774ZM125.401 72.9996C126.553 71.4636 127.225 70.5676 127.225 69.7356H128.473C128.473 70.5676 129.145 71.4636 130.297 72.9996H132.121V72.5516L129.433 68.9676L132.121 65.3836V64.9356H130.297C129.145 66.4716 128.473 67.3676 128.473 68.1996H127.225C127.225 67.3676 126.553 66.4716 125.401 64.9356H123.577V65.3836L126.265 68.9676L123.577 72.5516V72.9996H125.401ZM145.247 64.9356H138.751V72.9996H140.383V66.3436H145.247V64.9356ZM153.673 73.1916L154.889 72.2796C154.313 71.5116 154.313 71.5116 154.313 69.9276V68.5836C154.313 66.6636 154.313 64.7436 150.569 64.7436C149.993 64.7436 148.745 64.7436 147.209 65.1276V66.6636H147.593L149.129 66.2796H150.569C152.681 66.2796 152.681 66.2796 152.681 68.2956H150.569C146.537 68.2956 146.537 69.6396 146.537 70.8876C146.537 71.6556 146.537 73.1916 149.417 73.1916C151.401 73.1916 152.473 72.3916 152.857 72.1036L153.673 73.1916ZM148.361 70.6956C148.361 69.5436 148.361 69.5436 150.569 69.5436H152.681V71.0796L150.377 71.6556H149.513C148.361 71.6556 148.361 71.6556 148.361 70.6956ZM158.41 71.6556L156.874 71.2716H156.49V72.8076C158.026 73.1916 159.258 73.1916 159.834 73.1916C163.466 73.1916 163.642 71.6556 163.642 70.8876C163.642 70.5036 163.642 69.4476 162.106 69.0636V68.8716C163.642 68.4876 163.642 67.4316 163.642 67.0476C163.642 66.2796 163.482 64.7436 159.834 64.7436C159.258 64.7436 158.026 64.7436 156.49 65.1276V66.6636H156.874L158.41 66.2796H160.378C161.818 66.2796 161.818 66.2796 161.818 67.3036C161.818 68.2956 161.818 68.2956 160.378 68.2956H158.41V69.6396H160.378C161.818 69.6396 161.818 69.6396 161.818 70.6316C161.818 71.6556 161.818 71.6556 160.378 71.6556H158.41ZM167.329 68.9676C167.329 66.2796 167.329 66.1996 169.825 66.1996C172.321 66.1996 172.321 66.2796 172.321 68.9676C172.321 71.6556 172.321 71.7356 169.825 71.7356C167.329 71.7356 167.329 71.6556 167.329 68.9676ZM165.601 69.3516C165.601 70.8876 165.601 73.1916 169.441 73.1916H170.209C174.049 73.1916 174.049 70.8876 174.049 69.3516V68.5836C174.049 67.0476 174.049 64.7436 170.209 64.7436H169.441C165.601 64.7436 165.601 67.0476 165.601 68.5836V69.3516ZM176.423 72.9996H180.151C182.071 72.9996 184.007 72.9996 184.007 70.9836C184.007 70.3116 183.847 69.4476 182.311 69.0636V68.8716C183.847 68.4876 183.847 67.6236 183.847 66.9516C183.847 64.9356 182.071 64.9356 180.151 64.9356H176.423V72.9996ZM180.743 69.5436C182.167 69.5436 182.183 69.5436 182.183 70.5996C182.183 71.6396 182.183 71.6556 180.743 71.6556H178.055V69.5436H180.743ZM180.583 66.2796C182.007 66.2796 182.023 66.2796 182.023 67.3356C182.023 68.3756 182.023 68.3916 180.583 68.3916H178.055V66.2796H180.583Z" fill="black"/>
<defs>
<filter id="filter0_d" x="0" y="0" width="214" height="128" filterUnits="userSpaceOnUse" color-interpolation-filters="sRGB">
<feFlood flood-opacity="0" result="BackgroundImageFix"/>
<feColorMatrix in="SourceAlpha" type="matrix" values="0 0 0 0 0 0 0 0 0 0 0 0 0 0 0 0 0 0 127 0"/>
<feOffset dy="-4"/>
<feGaussianBlur stdDeviation="7"/>
<feColorMatrix type="matrix" values="0 0 0 0 0.741176 0 0 0 0 0.756863 0 0 0 0 0.815686 0 0 0 0.3 0"/>
<feBlend mode="normal" in2="BackgroundImageFix" result="effect1_dropShadow"/>
<feBlend mode="normal" in="SourceGraphic" in2="effect1_dropShadow" result="shape"/>
</filter>
</defs>
</svg>
