<svg width="184" height="149" viewBox="0 0 184 149" fill="none" xmlns="http://www.w3.org/2000/svg">
<g filter="url(#filter0_d)">
<path d="M14 26C14 21.5817 17.5817 18 22 18H162C166.418 18 170 21.5817 170 26V121C170 125.418 166.418 129 162 129H160.056C155.52 129 151.891 132.767 152.061 137.3L152.125 139L134.211 129.872C133.086 129.299 131.842 129 130.579 129H22C17.5817 129 14 125.418 14 121V26Z" fill="white"/>
</g>
<path d="M26.224 107.576V109.256H30.256V107.576H26.224ZM35.1724 101.384C31.4444 101.384 31.4444 103.976 31.4444 104.808V104.92L33.3964 105.416C33.9244 103.352 33.9244 103.352 35.1724 103.352C36.4684 103.352 36.4684 103.352 36.4684 104.84C36.4684 106.76 36.4684 106.76 34.5964 107.224L34.0204 107.368C31.5244 107.992 31.5244 109.256 31.5244 110.984V113H38.6284V110.984H33.4924V110.552C33.4924 109.56 33.4924 109.56 34.4044 109.304L35.9404 108.872C38.8204 108.072 38.8204 106.376 38.8204 104.856C38.8204 103.736 38.8204 101.384 35.1724 101.384ZM45.1736 110.888V113H47.3336V110.888H48.5336V109.016H47.3336V105.992H46.7096L45.1736 106.376V109.016H42.7736V108.568L44.3096 105.496C45.3816 103.352 45.5736 102.968 45.5736 102.056V101.672H43.1256V101.864C43.1256 103.272 43.1256 103.272 41.5736 106.376L40.5656 108.392V110.888H45.1736ZM50.9029 109.864C50.3269 110.632 49.7029 111.464 49.7029 112.632V113H52.0069V111.96C52.0069 110.728 52.0069 110.808 53.0629 109.352L56.4709 104.808C57.0309 104.056 57.6709 103.208 57.6709 102.04V101.672H55.3669V102.712C55.3669 103.928 55.3669 103.928 54.3109 105.32L50.9029 109.864ZM53.3989 103.88C53.3989 101.608 51.9109 101.608 51.3829 101.608H51.1909C50.6629 101.608 49.1749 101.608 49.1749 103.88V104.36C49.1749 106.632 50.6629 106.632 51.1909 106.632H51.3829C51.9109 106.632 53.3989 106.632 53.3989 104.36V103.88ZM50.8069 103.976C50.8069 102.92 50.8069 102.92 51.2869 102.92C51.7669 102.92 51.7669 102.92 51.7669 103.976V104.264C51.7669 105.32 51.7669 105.32 51.2869 105.32C50.8069 105.32 50.8069 105.32 50.8069 104.264V103.976ZM58.1989 110.312C58.1989 108.04 56.7109 108.04 56.1829 108.04H55.9909C55.4629 108.04 53.9749 108.04 53.9749 110.312V110.792C53.9749 113.064 55.4629 113.064 55.9909 113.064H56.1829C56.7109 113.064 58.1989 113.064 58.1989 110.792V110.312ZM55.6069 110.408C55.6069 109.352 55.6069 109.352 56.0869 109.352C56.5669 109.352 56.5669 109.352 56.5669 110.408V110.696C56.5669 111.752 56.5669 111.752 56.0869 111.752C55.6069 111.752 55.6069 111.752 55.6069 110.696V110.408Z" fill="#E21A1A"/>
<path d="M64.693 115.304H66.037V99.368H64.693V115.304Z" fill="#CBCDD5"/>
<path d="M72.7143 105.542V107.852H78.2583V105.542H72.7143ZM85.1503 106.62C86.8003 106.62 86.8003 106.62 86.8003 108.512C86.8003 110.558 86.8003 110.558 84.2923 110.558H83.3023L80.6623 109.898H79.8703V112.692C82.6863 113.396 84.0283 113.396 84.7543 113.396C90.0343 113.396 90.0343 109.964 90.0343 108.71V108.05C90.0343 104.552 87.5263 104.552 86.8223 104.552H86.4263V104.046L87.7023 103.1C89.6383 101.648 89.6383 101.648 89.6383 99.932V97.424H79.8703V101.934H82.3783V100.064H86.7343V101.098L82.0263 104.618L83.8303 107.038C84.4023 106.62 84.8863 106.62 85.1503 106.62ZM102.928 107.72C102.928 106.07 102.928 102.88 99.034 102.88C98.572 102.88 97.78 102.88 95.602 103.408V100.196H102.268V97.424H93.028V106.268L95.91 106.972C96.35 105.344 96.35 105.344 97.978 105.344C99.694 105.344 99.694 105.344 99.694 107.984C99.694 110.558 99.694 110.558 96.988 110.558H96.196L93.556 109.898H92.764V112.692C95.58 113.396 96.79 113.396 97.516 113.396C102.928 113.396 102.928 110.162 102.928 108.248V107.72ZM106.648 108.688C105.856 109.744 104.998 110.888 104.998 112.494V113H108.166V111.57C108.166 109.876 108.166 109.986 109.618 107.984L114.304 101.736C115.074 100.702 115.954 99.536 115.954 97.93V97.424H112.786V98.854C112.786 100.526 112.786 100.526 111.334 102.44L106.648 108.688ZM110.08 100.46C110.08 97.336 108.034 97.336 107.308 97.336H107.044C106.318 97.336 104.272 97.336 104.272 100.46V101.12C104.272 104.244 106.318 104.244 107.044 104.244H107.308C108.034 104.244 110.08 104.244 110.08 101.12V100.46ZM106.516 100.592C106.516 99.14 106.516 99.14 107.176 99.14C107.836 99.14 107.836 99.14 107.836 100.592V100.988C107.836 102.44 107.836 102.44 107.176 102.44C106.516 102.44 106.516 102.44 106.516 100.988V100.592ZM116.68 109.304C116.68 106.18 114.634 106.18 113.908 106.18H113.644C112.918 106.18 110.872 106.18 110.872 109.304V109.964C110.872 113.088 112.918 113.088 113.644 113.088H113.908C114.634 113.088 116.68 113.088 116.68 109.964V109.304ZM113.116 109.436C113.116 107.984 113.116 107.984 113.776 107.984C114.436 107.984 114.436 107.984 114.436 109.436V109.832C114.436 111.284 114.436 111.284 113.776 111.284C113.116 111.284 113.116 111.284 113.116 109.832V109.436Z" fill="#7A4FF4"/>
<path d="M33.424 41.944C35.152 41.944 35.152 42.024 35.152 43.704C35.152 45.384 35.152 45.464 33.424 45.464H29.392V41.944H33.424ZM33.264 37.208C34.992 37.208 34.992 37.224 34.992 38.808C34.992 40.392 34.992 40.408 33.264 40.408H29.392V37.208H33.264ZM32.176 47C35.152 47 37.072 46.92 37.072 43.848C37.072 43.464 36.912 41.688 35.504 41.336V41.016C36.912 40.664 36.912 39.048 36.912 38.664C36.912 35.688 34.992 35.672 32.016 35.672H27.664V47H32.176ZM48.5674 38.936V47H50.1994V38.936H48.5674ZM39.7354 47H43.1914C45.2074 47 46.9354 47 46.9354 44.312C46.9354 43.352 46.9354 41.432 43.5754 41.432C42.9034 41.432 42.1354 41.528 41.3674 41.72V38.936H39.7354V47ZM43.3834 42.968C45.2074 42.968 45.2074 42.968 45.2074 44.312C45.2074 45.656 45.2074 45.656 43.3834 45.656H41.3674V42.968H43.3834ZM58.3301 37.592C59.1941 37.384 60.0421 37.16 60.3461 35.96L60.4421 35.576L58.9061 35.192C58.7141 35.768 58.7301 35.768 57.9461 35.96L56.0261 36.44C52.7621 37.256 52.7621 39.416 52.7621 41.912V42.536C52.7621 45.224 52.7621 47.192 56.6981 47.192H57.4661C61.3061 47.192 61.3061 45.272 61.3061 43.832V42.968C61.3061 41.528 61.3061 39.608 57.8501 39.608C55.5461 39.608 54.7781 40.136 54.4261 40.568L54.1381 40.472C54.6181 38.552 54.6181 38.52 56.4101 38.072L58.3301 37.592ZM57.0821 41.032C59.5781 41.032 59.5781 41.384 59.5781 43.4C59.5781 45.416 59.5781 45.768 56.9541 45.768C54.5861 45.768 54.5861 45.416 54.5861 43.4C54.5861 41.384 54.5861 41.032 57.0821 41.032ZM63.5791 38.936V50.264H65.2111V46.808C65.9791 47 66.7471 47.192 68.1871 47.192C71.8351 47.192 71.8351 44.696 71.8351 43.352V42.584C71.8351 41.048 71.8351 38.744 68.3791 38.744C66.4591 38.744 65.4031 39.544 65.0191 39.832L64.3471 38.936H63.5791ZM70.1071 42.968C70.1071 45.64 70.1071 45.656 67.5151 45.656C66.9391 45.656 65.9791 45.656 65.2111 45.464V40.856L67.5151 40.28H67.7871C70.1071 40.28 70.1071 40.376 70.1071 42.968ZM75.5481 42.968C75.5481 40.28 75.5481 40.2 78.0441 40.2C80.5401 40.2 80.5401 40.28 80.5401 42.968C80.5401 45.656 80.5401 45.736 78.0441 45.736C75.5481 45.736 75.5481 45.656 75.5481 42.968ZM73.8201 43.352C73.8201 44.888 73.8201 47.192 77.6601 47.192H78.4281C82.2681 47.192 82.2681 44.888 82.2681 43.352V42.584C82.2681 41.048 82.2681 38.744 78.4281 38.744H77.6601C73.8201 38.744 73.8201 41.048 73.8201 42.584V43.352ZM88.1936 47.192C88.7696 47.192 90.0176 47.192 91.5536 46.808V45.272H91.1696L89.6176 45.656H88.7696C85.9856 45.656 85.9856 45.656 85.9856 42.968C85.9856 40.28 85.9856 40.28 88.1936 40.28C90.0176 40.28 90.0176 40.28 90.4016 41.816L91.9376 41.432C91.9376 40.664 91.9376 38.744 88.5776 38.744H87.8096C84.2576 38.744 84.2576 40.856 84.2576 42.584V43.352C84.2576 45.08 84.2576 47.192 88.1936 47.192ZM102.942 38.936V47H104.574V38.936H102.942ZM94.1104 47H97.5664C99.5824 47 101.31 47 101.31 44.312C101.31 43.352 101.31 41.432 97.9504 41.432C97.2784 41.432 96.5104 41.528 95.7424 41.72V38.936H94.1104V47ZM97.7584 42.968C99.5824 42.968 99.5824 42.968 99.5824 44.312C99.5824 45.656 99.5824 45.656 97.7584 45.656H95.7424V42.968H97.7584ZM113.314 42.968C113.314 40.28 113.314 40.2 115.81 40.2C118.306 40.2 118.306 40.28 118.306 42.968C118.306 45.656 118.306 45.736 115.81 45.736C113.314 45.736 113.314 45.656 113.314 42.968ZM111.586 43.352C111.586 44.888 111.586 47.192 115.426 47.192H116.194C120.034 47.192 120.034 44.888 120.034 43.352V42.584C120.034 41.048 120.034 38.744 116.194 38.744H115.426C111.586 38.744 111.586 41.048 111.586 42.584V43.352ZM129.655 38.936H121.591V40.344H124.775V47H126.471V40.344H129.655V38.936ZM30.928 66.192C31.504 66.192 32.752 66.192 34.288 65.808V64.272H33.904L32.352 64.656H31.504C28.72 64.656 28.72 64.656 28.72 61.968C28.72 59.28 28.72 59.28 30.928 59.28C32.752 59.28 32.752 59.28 33.136 60.816L34.672 60.432C34.672 59.664 34.672 57.744 31.312 57.744H30.544C26.992 57.744 26.992 59.856 26.992 61.584V62.352C26.992 64.08 26.992 66.192 30.928 66.192ZM44.0928 57.936H36.0288V59.344H39.2128V66H40.9088V59.344H44.0928V57.936ZM52.6883 66.192L53.9043 65.28C53.3283 64.512 53.3283 64.512 53.3283 62.928V61.584C53.3283 59.664 53.3283 57.744 49.5843 57.744C49.0083 57.744 47.7603 57.744 46.2243 58.128V59.664H46.6083L48.1443 59.28H49.5843C51.6963 59.28 51.6963 59.28 51.6963 61.296H49.5843C45.5523 61.296 45.5523 62.64 45.5523 63.888C45.5523 64.656 45.5523 66.192 48.4323 66.192C50.4163 66.192 51.4883 65.392 51.8723 65.104L52.6883 66.192ZM47.3763 63.696C47.3763 62.544 47.3763 62.544 49.5843 62.544H51.6963V64.08L49.3923 64.656H48.5283C47.3763 64.656 47.3763 64.656 47.3763 63.696ZM65.2974 68.304V64.656H63.9534V57.936H62.3214V64.656H57.6174V57.936H55.9854V66H63.7294V68.304H65.2974ZM69.4594 66C73.6354 60.448 73.6354 60.16 73.6354 59.312H74.0514V66H75.6834V57.936H73.4754C69.2994 63.488 69.2994 63.776 69.2994 64.624H68.8674V57.936H67.2354V66H69.4594ZM79.7825 61.968C79.7825 59.28 79.7825 59.2 82.2785 59.2C84.7745 59.2 84.7745 59.28 84.7745 61.968C84.7745 64.656 84.7745 64.736 82.2785 64.736C79.7825 64.736 79.7825 64.656 79.7825 61.968ZM78.0545 62.352C78.0545 63.888 78.0545 66.192 81.8945 66.192H82.6625C86.5025 66.192 86.5025 63.888 86.5025 62.352V61.584C86.5025 60.048 86.5025 57.744 82.6625 57.744H81.8945C78.0545 57.744 78.0545 60.048 78.0545 61.584V62.352ZM95.212 57.936V61.184H90.508V57.936H88.876V66H90.508V62.592H95.212V66H96.844V57.936H95.212ZM106.251 66.192L107.467 65.28C106.891 64.512 106.891 64.512 106.891 62.928V61.584C106.891 59.664 106.891 57.744 103.147 57.744C102.571 57.744 101.323 57.744 99.7868 58.128V59.664H100.171L101.707 59.28H103.147C105.259 59.28 105.259 59.28 105.259 61.296H103.147C99.1148 61.296 99.1148 62.64 99.1148 63.888C99.1148 64.656 99.1148 66.192 101.995 66.192C103.979 66.192 105.051 65.392 105.435 65.104L106.251 66.192ZM100.939 63.696C100.939 62.544 100.939 62.544 103.147 62.544H105.259V64.08L102.955 64.656H102.091C100.939 64.656 100.939 64.656 100.939 63.696ZM109.548 57.936V69.264H111.18V65.808C111.948 66 112.716 66.192 114.156 66.192C117.804 66.192 117.804 63.696 117.804 62.352V61.584C117.804 60.048 117.804 57.744 114.348 57.744C112.428 57.744 111.372 58.544 110.988 58.832L110.316 57.936H109.548ZM116.076 61.968C116.076 64.64 116.076 64.656 113.484 64.656C112.908 64.656 111.948 64.656 111.18 64.464V59.856L113.484 59.28H113.756C116.076 59.28 116.076 59.376 116.076 61.968ZM126.509 57.936V61.184H121.805V57.936H120.173V66H121.805V62.592H126.509V66H128.141V57.936H126.509ZM139.724 57.936V66H141.356V57.936H139.724ZM130.892 66H134.348C136.364 66 138.092 66 138.092 63.312C138.092 62.352 138.092 60.432 134.732 60.432C134.06 60.432 133.292 60.528 132.524 60.72V57.936H130.892V66ZM134.54 61.968C136.364 61.968 136.364 61.968 136.364 63.312C136.364 64.656 136.364 64.656 134.54 64.656H132.524V61.968H134.54ZM145.166 66C146.318 64.464 146.99 63.568 146.99 62.736H148.238C148.238 63.568 148.91 64.464 150.062 66H151.886V65.552L149.198 61.968L151.886 58.384V57.936H150.062C148.91 59.472 148.238 60.368 148.238 61.2H146.99C146.99 60.368 146.318 59.472 145.166 57.936H143.342V58.384L146.03 61.968L143.342 65.552V66H145.166ZM29.6 85C33.776 79.448 33.776 79.16 33.776 78.312H34.192V85H35.824V76.936H33.616C29.44 82.488 29.44 82.776 29.44 83.624H29.008V76.936H27.376V85H29.6ZM42.1311 85.192C42.7071 85.192 43.9551 85.192 45.4911 84.808V83.272H45.1071L43.5551 83.656H42.7071C39.9231 83.656 39.9231 83.656 39.9231 80.968C39.9231 78.28 39.9231 78.28 42.1311 78.28C43.9551 78.28 43.9551 78.28 44.3391 79.816L45.8751 79.432C45.8751 78.664 45.8751 76.744 42.5151 76.744H41.7471C38.1951 76.744 38.1951 78.856 38.1951 80.584V81.352C38.1951 83.08 38.1951 85.192 42.1311 85.192ZM55.2959 76.936H47.2319V78.344H50.4159V85H52.1119V78.344H55.2959V76.936ZM58.5794 80.968C58.5794 78.28 58.5794 78.2 61.0754 78.2C63.5714 78.2 63.5714 78.28 63.5714 80.968C63.5714 83.656 63.5714 83.736 61.0754 83.736C58.5794 83.736 58.5794 83.656 58.5794 80.968ZM56.8514 81.352C56.8514 82.888 56.8514 85.192 60.6914 85.192H61.4594C65.2994 85.192 65.2994 82.888 65.2994 81.352V80.584C65.2994 79.048 65.2994 76.744 61.4594 76.744H60.6914C56.8514 76.744 56.8514 79.048 56.8514 80.584V81.352ZM67.1929 76.936V79.432C67.1929 80.584 67.1929 82.504 70.3609 82.504C71.2249 82.504 72.3769 82.216 73.1449 82.024V85H74.7769V76.936H73.1449V80.68L71.9929 80.968H70.8409C68.9209 80.968 68.9209 80.968 68.9209 79.432V76.936H67.1929ZM83.8683 76.936V80.184H79.1643V76.936H77.5323V85H79.1643V81.592H83.8683V85H85.5003V76.936H83.8683ZM90.475 85C94.651 79.448 94.651 79.16 94.651 78.312H95.067V85H96.699V76.936H94.491C90.315 82.488 90.315 82.776 90.315 83.624H89.883V76.936H88.251V85H90.475ZM107.614 77.384V76.936H105.79C104.638 78.472 103.966 79.368 103.966 80.2H101.086V76.936H99.4541V85H101.086V81.736H103.966C103.966 82.568 104.638 83.464 105.79 85H107.614V84.552L104.91 80.968L107.614 77.384ZM110.939 80.968C110.939 78.28 110.939 78.2 113.435 78.2C115.931 78.2 115.931 78.28 115.931 80.968C115.931 83.656 115.931 83.736 113.435 83.736C110.939 83.736 110.939 83.656 110.939 80.968ZM109.211 81.352C109.211 82.888 109.211 85.192 113.051 85.192H113.819C117.659 85.192 117.659 82.888 117.659 81.352V80.584C117.659 79.048 117.659 76.744 113.819 76.744H113.051C109.211 76.744 109.211 79.048 109.211 80.584V81.352ZM120.032 85H123.76C125.68 85 127.616 85 127.616 82.984C127.616 82.312 127.456 81.448 125.92 81.064V80.872C127.456 80.488 127.456 79.624 127.456 78.952C127.456 76.936 125.68 76.936 123.76 76.936H120.032V85ZM124.352 81.544C125.776 81.544 125.792 81.544 125.792 82.6C125.792 83.64 125.792 83.656 124.352 83.656H121.664V81.544H124.352ZM124.192 78.28C125.616 78.28 125.632 78.28 125.632 79.336C125.632 80.376 125.632 80.392 124.192 80.392H121.664V78.28H124.192Z" fill="black"/>
<defs>
<filter id="filter0_d" x="0" y="0" width="184" height="149" filterUnits="userSpaceOnUse" color-interpolation-filters="sRGB">
<feFlood flood-opacity="0" result="BackgroundImageFix"/>
<feColorMatrix in="SourceAlpha" type="matrix" values="0 0 0 0 0 0 0 0 0 0 0 0 0 0 0 0 0 0 127 0"/>
<feOffset dy="-4"/>
<feGaussianBlur stdDeviation="7"/>
<feColorMatrix type="matrix" values="0 0 0 0 0.741176 0 0 0 0 0.756863 0 0 0 0 0.815686 0 0 0 0.3 0"/>
<feBlend mode="normal" in2="BackgroundImageFix" result="effect1_dropShadow"/>
<feBlend mode="normal" in="SourceGraphic" in2="effect1_dropShadow" result="shape"/>
</filter>
</defs>
</svg>
