<svg width="166" height="108" viewBox="0 0 166 108" fill="none" xmlns="http://www.w3.org/2000/svg">
<g filter="url(#filter0_d)">
<path d="M14 26C14 21.5817 17.5817 18 22 18H144C148.418 18 152 21.5817 152 26V82.9711C152 85.7485 149.748 88 146.971 88C144.12 88 141.839 90.3681 141.946 93.2174L142.125 98L124.211 88.872C123.086 88.2988 121.842 88 120.579 88H22C17.5817 88 14 84.4183 14 80V26Z" fill="white"/>
</g>
<path d="M28.224 67.576V69.256H32.256V67.576H28.224ZM37.1724 61.384C33.4444 61.384 33.4444 63.976 33.4444 64.808V64.92L35.3964 65.416C35.9244 63.352 35.9244 63.352 37.1724 63.352C38.4684 63.352 38.4684 63.352 38.4684 64.84C38.4684 66.76 38.4684 66.76 36.5964 67.224L36.0204 67.368C33.5244 67.992 33.5244 69.256 33.5244 70.984V73H40.6284V70.984H35.4924V70.552C35.4924 69.56 35.4924 69.56 36.4044 69.304L37.9404 68.872C40.8204 68.072 40.8204 66.376 40.8204 64.856C40.8204 63.736 40.8204 61.384 37.1724 61.384ZM48.5656 66.68C50.1976 66.28 50.1976 65.176 50.1976 64.264C50.1976 63.4 50.1976 61.416 46.4056 61.416C42.6136 61.416 42.6136 63.496 42.6136 64.936C42.6136 65.752 42.6136 67.192 44.2456 67.592V67.992C42.6136 68.408 42.6136 69.496 42.6136 70.408C42.6136 71.272 42.6136 73.256 46.4056 73.256C50.1976 73.256 50.1976 71.176 50.1976 69.736C50.1976 68.92 50.1976 67.496 48.5656 67.08V66.68ZM45.7336 66.104C44.8376 65.88 44.8376 65.88 44.8376 64.6C44.8376 63.352 44.8376 63.352 46.4056 63.352C47.9736 63.352 47.9736 63.352 47.9736 64.6C47.9736 65.608 47.9736 65.608 47.3656 66.056L46.9176 66.392L45.7336 66.104ZM47.0776 68.584C47.9736 68.808 47.9736 68.808 47.9736 70.072C47.9736 71.32 47.9736 71.32 46.4056 71.32C44.8376 71.32 44.8376 71.32 44.8376 70.072C44.8376 69.08 44.8376 69.08 45.4456 68.616L45.8936 68.28L47.0776 68.584ZM52.9029 69.864C52.3269 70.632 51.7029 71.464 51.7029 72.632V73H54.0069V71.96C54.0069 70.728 54.0069 70.808 55.0629 69.352L58.4709 64.808C59.0309 64.056 59.6709 63.208 59.6709 62.04V61.672H57.3669V62.712C57.3669 63.928 57.3669 63.928 56.3109 65.32L52.9029 69.864ZM55.3989 63.88C55.3989 61.608 53.9109 61.608 53.3829 61.608H53.1909C52.6629 61.608 51.1749 61.608 51.1749 63.88V64.36C51.1749 66.632 52.6629 66.632 53.1909 66.632H53.3829C53.9109 66.632 55.3989 66.632 55.3989 64.36V63.88ZM52.8069 63.976C52.8069 62.92 52.8069 62.92 53.2869 62.92C53.7669 62.92 53.7669 62.92 53.7669 63.976V64.264C53.7669 65.32 53.7669 65.32 53.2869 65.32C52.8069 65.32 52.8069 65.32 52.8069 64.264V63.976ZM60.1989 70.312C60.1989 68.04 58.7109 68.04 58.1829 68.04H57.9909C57.4629 68.04 55.9749 68.04 55.9749 70.312V70.792C55.9749 73.064 57.4629 73.064 57.9909 73.064H58.1829C58.7109 73.064 60.1989 73.064 60.1989 70.792V70.312ZM57.6069 70.408C57.6069 69.352 57.6069 69.352 58.0869 69.352C58.5669 69.352 58.5669 69.352 58.5669 70.408V70.696C58.5669 71.752 58.5669 71.752 58.0869 71.752C57.6069 71.752 57.6069 71.752 57.6069 70.696V70.408Z" fill="#E21A1A"/>
<path d="M66.693 75.304H68.037V59.368H66.693V75.304Z" fill="#CBCDD5"/>
<path d="M74.7143 65.542V67.852H80.2583V65.542H74.7143ZM87.1503 66.62C88.8003 66.62 88.8003 66.62 88.8003 68.512C88.8003 70.558 88.8003 70.558 86.2923 70.558H85.3023L82.6623 69.898H81.8703V72.692C84.6863 73.396 86.0283 73.396 86.7543 73.396C92.0343 73.396 92.0343 69.964 92.0343 68.71V68.05C92.0343 64.552 89.5263 64.552 88.8223 64.552H88.4263V64.046L89.7023 63.1C91.6383 61.648 91.6383 61.648 91.6383 59.932V57.424H81.8703V61.934H84.3783V60.064H88.7343V61.098L84.0263 64.618L85.8303 67.038C86.4023 66.62 86.8863 66.62 87.1503 66.62ZM99.912 66.62C101.562 66.62 101.562 66.62 101.562 68.512C101.562 70.558 101.562 70.558 99.054 70.558H98.064L95.424 69.898H94.632V72.692C97.448 73.396 98.79 73.396 99.516 73.396C104.796 73.396 104.796 69.964 104.796 68.71V68.05C104.796 64.552 102.288 64.552 101.584 64.552H101.188V64.046L102.464 63.1C104.4 61.648 104.4 61.648 104.4 59.932V57.424H94.632V61.934H97.14V60.064H101.496V61.098L96.788 64.618L98.592 67.038C99.164 66.62 99.648 66.62 99.912 66.62ZM108.648 68.688C107.856 69.744 106.998 70.888 106.998 72.494V73H110.166V71.57C110.166 69.876 110.166 69.986 111.618 67.984L116.304 61.736C117.074 60.702 117.954 59.536 117.954 57.93V57.424H114.786V58.854C114.786 60.526 114.786 60.526 113.334 62.44L108.648 68.688ZM112.08 60.46C112.08 57.336 110.034 57.336 109.308 57.336H109.044C108.318 57.336 106.272 57.336 106.272 60.46V61.12C106.272 64.244 108.318 64.244 109.044 64.244H109.308C110.034 64.244 112.08 64.244 112.08 61.12V60.46ZM108.516 60.592C108.516 59.14 108.516 59.14 109.176 59.14C109.836 59.14 109.836 59.14 109.836 60.592V60.988C109.836 62.44 109.836 62.44 109.176 62.44C108.516 62.44 108.516 62.44 108.516 60.988V60.592ZM118.68 69.304C118.68 66.18 116.634 66.18 115.908 66.18H115.644C114.918 66.18 112.872 66.18 112.872 69.304V69.964C112.872 73.088 114.918 73.088 115.644 73.088H115.908C116.634 73.088 118.68 73.088 118.68 69.964V69.304ZM115.116 69.436C115.116 67.984 115.116 67.984 115.776 67.984C116.436 67.984 116.436 67.984 116.436 69.436V69.832C116.436 71.284 116.436 71.284 115.776 71.284C115.116 71.284 115.116 71.284 115.116 69.832V69.436Z" fill="#7A4FF4"/>
<path d="M31.392 35.208H34.752C37.216 35.208 37.248 35.208 37.248 37.608C37.248 39.976 37.248 40.008 34.752 40.008H31.392V35.208ZM29.664 45H31.392V41.544H33.6C37.248 41.544 39.072 41.544 39.072 37.608C39.072 33.672 37.248 33.672 33.6 33.672H29.664V45ZM47.8133 45.192L49.0293 44.28C48.4533 43.512 48.4533 43.512 48.4533 41.928V40.584C48.4533 38.664 48.4533 36.744 44.7093 36.744C44.1333 36.744 42.8853 36.744 41.3493 37.128V38.664H41.7333L43.2693 38.28H44.7093C46.8213 38.28 46.8213 38.28 46.8213 40.296H44.7093C40.6773 40.296 40.6773 41.64 40.6773 42.888C40.6773 43.656 40.6773 45.192 43.5573 45.192C45.5413 45.192 46.6133 44.392 46.9973 44.104L47.8133 45.192ZM42.5013 42.696C42.5013 41.544 42.5013 41.544 44.7093 41.544H46.8213V43.08L44.5173 43.656H43.6533C42.5013 43.656 42.5013 43.656 42.5013 42.696ZM54.6624 45.192C55.2384 45.192 56.4864 45.192 58.0224 44.808V43.272H57.6384L56.0864 43.656H55.2384C52.4544 43.656 52.4544 43.656 52.4544 40.968C52.4544 38.28 52.4544 38.28 54.6624 38.28C56.4864 38.28 56.4864 38.28 56.8704 39.816L58.4064 39.432C58.4064 38.664 58.4064 36.744 55.0464 36.744H54.2784C50.7264 36.744 50.7264 38.856 50.7264 40.584V41.352C50.7264 43.08 50.7264 45.192 54.6624 45.192ZM61.6351 45C62.7871 43.464 63.4591 42.568 63.4591 41.736H64.7071C64.7071 42.568 65.3791 43.464 66.5311 45H68.3551V44.552L65.6671 40.968L68.3551 37.384V36.936H66.5311C65.3791 38.472 64.7071 39.368 64.7071 40.2H63.4591C63.4591 39.368 62.7871 38.472 61.6351 36.936H59.8111V37.384L62.4991 40.968L59.8111 44.552V45H61.6351ZM71.595 40.968C71.595 38.28 71.595 38.2 74.091 38.2C76.587 38.2 76.587 38.28 76.587 40.968C76.587 43.656 76.587 43.736 74.091 43.736C71.595 43.736 71.595 43.656 71.595 40.968ZM69.867 41.352C69.867 42.888 69.867 45.192 73.707 45.192H74.475C78.315 45.192 78.315 42.888 78.315 41.352V40.584C78.315 39.048 78.315 36.744 74.475 36.744H73.707C69.867 36.744 69.867 39.048 69.867 40.584V41.352ZM81.4405 45H88.4645V47.304H90.0325V43.656H88.6885V36.936H82.1285V37.896C82.1285 39.8 81.9205 41.832 80.9765 43.656H79.8725V47.304H81.4405V45ZM83.6965 38.344H87.0565V43.656H82.7365C83.5045 41.816 83.6965 39.864 83.6965 38.344ZM96.6104 45H100.338C102.258 45 104.194 45 104.194 42.984C104.194 42.312 104.034 41.448 102.498 41.064V40.872C104.034 40.488 104.034 39.624 104.034 38.952C104.034 36.936 102.258 36.936 100.338 36.936H96.6104V45ZM100.93 41.544C102.354 41.544 102.37 41.544 102.37 42.6C102.37 43.64 102.37 43.656 100.93 43.656H98.2424V41.544H100.93ZM100.77 38.28C102.194 38.28 102.21 38.28 102.21 39.336C102.21 40.376 102.21 40.392 100.77 40.392H98.2424V38.28H100.77ZM107.908 40.968C107.908 38.28 107.908 38.2 110.404 38.2C112.9 38.2 112.9 38.28 112.9 40.968C112.9 43.656 112.9 43.736 110.404 43.736C107.908 43.736 107.908 43.656 107.908 40.968ZM106.18 41.352C106.18 42.888 106.18 45.192 110.02 45.192H110.788C114.628 45.192 114.628 42.888 114.628 41.352V40.584C114.628 39.048 114.628 36.744 110.788 36.744H110.02C106.18 36.744 106.18 39.048 106.18 40.584V41.352ZM117.753 45H124.777V47.304H126.345V43.656H125.001V36.936H118.441V37.896C118.441 39.8 118.233 41.832 117.289 43.656H116.185V47.304H117.753V45ZM120.009 38.344H123.369V43.656H119.049C119.817 41.816 120.009 39.864 120.009 38.344ZM137.114 36.936V45H138.746V36.936H137.114ZM128.282 45H131.738C133.754 45 135.482 45 135.482 42.312C135.482 41.352 135.482 39.432 132.122 39.432C131.45 39.432 130.682 39.528 129.914 39.72V36.936H128.282V45ZM131.93 40.968C133.754 40.968 133.754 40.968 133.754 42.312C133.754 43.656 133.754 43.656 131.93 43.656H129.914V40.968H131.93Z" fill="black"/>
<defs>
<filter id="filter0_d" x="0" y="0" width="166" height="108" filterUnits="userSpaceOnUse" color-interpolation-filters="sRGB">
<feFlood flood-opacity="0" result="BackgroundImageFix"/>
<feColorMatrix in="SourceAlpha" type="matrix" values="0 0 0 0 0 0 0 0 0 0 0 0 0 0 0 0 0 0 127 0"/>
<feOffset dy="-4"/>
<feGaussianBlur stdDeviation="7"/>
<feColorMatrix type="matrix" values="0 0 0 0 0.741176 0 0 0 0 0.756863 0 0 0 0 0.815686 0 0 0 0.3 0"/>
<feBlend mode="normal" in2="BackgroundImageFix" result="effect1_dropShadow"/>
<feBlend mode="normal" in="SourceGraphic" in2="effect1_dropShadow" result="shape"/>
</filter>
</defs>
</svg>
