<svg width="436" height="274" viewBox="0 0 436 274" fill="none" xmlns="http://www.w3.org/2000/svg">
<g filter="url(#filter0_d)">
<path d="M61 142H151V97H197V79H230L237 102H283V142H375V212H61V142Z" fill="#A7AABA"/>
<path fill-rule="evenodd" clip-rule="evenodd" d="M234.825 69.3138V67.7532H232.289V60.5358L234.825 58H241.848L244.383 60.5358V67.7532H241.848V89.2104H278.91V88.8203H276.374V81.6029L278.91 79.067H285.932L288.468 81.6029V88.8203H285.932V105.206H293.15V109.497L290.029 113.984V115.739H291.979V131.344H367.168L381.791 143.961H380.619L377.499 148.12V218.343L297.831 218.343V221.855H139.829V218.343L58.2914 218.343V148.12L55.1722 143.961H54L68.6224 131.344H143.338L143.145 115.934H142.755V113.984L139.634 109.497V105.206H147.631V88.8203H145.095V81.6029L147.631 79.067H154.654L157.189 81.6029V88.8203H154.654V89.2104H190.741V67.7532H188.205V60.5358L190.741 58H197.763L200.299 60.5358V67.7532H197.763V69.3138H234.825ZM144.12 211.321H144.315V209.175L144.12 193.635V211.321ZM143.496 143.961L143.549 148.12H143.34V143.961H143.496ZM291.979 148.12V143.961H292.451V148.12H291.979ZM169.478 194.936H162.261V186.353H169.478V194.936ZM170.259 194.936H176.501V186.353H170.259V194.936ZM177.281 194.936H184.889V186.353H177.281V194.936ZM184.889 184.792V177.77H177.281V184.792H184.889ZM184.889 176.209V169.382C183.645 168.885 180.742 168.007 177.281 167.622V176.209H184.889ZM176.501 167.544C175.677 167.473 174.827 167.431 173.965 167.431C172.721 167.431 171.467 167.518 170.259 167.656V176.209H176.501V167.544ZM169.478 167.754V176.209H162.261V169.382C163.556 168.935 166.312 168.182 169.478 167.754ZM162.261 177.77H169.478V184.792H162.261V177.77ZM161.286 151.241H165.187V138.757H161.286V151.241ZM161.286 135.246V136.026H169.088V135.246C169.088 133.685 168.308 131.149 164.797 131.149C163.08 131.149 161.286 132.905 161.286 135.246ZM165.967 138.757H169.088V151.241H165.967V138.757ZM213.563 151.241H210.052V138.757H213.563V151.241ZM209.272 138.757V151.241H205.761V138.757H209.272ZM205.761 135.246V136.026H213.563V135.246C213.563 133.685 212.783 131.149 209.272 131.149C207.555 131.149 205.761 132.905 205.761 135.246ZM249.845 151.241H253.747V138.757H249.845V151.241ZM257.648 151.241H254.527V138.757H257.648V151.241ZM249.845 136.026H257.648V135.246C257.648 133.685 256.868 131.149 253.356 131.149C251.64 131.149 249.845 132.905 249.845 135.246V136.026ZM180.012 151.241H176.501V138.757H180.012V151.241ZM180.792 151.241V138.757H184.303V151.241H180.792ZM184.303 136.026V135.246C184.303 133.685 183.523 131.149 180.012 131.149C178.295 131.149 176.501 132.905 176.501 135.246V136.026H184.303ZM224.877 151.241H228.388V138.757H224.877V151.241ZM224.097 151.241V138.757H220.585V151.241H224.097ZM220.585 136.026V135.246C220.585 132.905 222.38 131.149 224.097 131.149C227.608 131.149 228.388 133.685 228.388 135.246V136.026H220.585ZM268.571 151.241H265.06V138.757H268.571V151.241ZM269.352 151.241H272.863V138.757H269.352V151.241ZM272.863 136.026V135.246C272.863 133.685 272.083 131.149 268.571 131.149C266.855 131.149 265.06 132.905 265.06 135.246V136.026H272.863ZM249.845 186.353V194.936H257.258V186.353H249.845ZM264.28 186.353V194.936H258.038V186.353H264.28ZM272.473 194.936H265.06V186.353H272.473V194.936ZM272.473 177.77V184.792H265.06V177.77H272.473ZM272.473 169.382V176.209H265.06V167.644C268.435 168.04 271.253 168.894 272.473 169.382ZM261.549 167.431C262.479 167.431 263.395 167.48 264.28 167.562V176.209H258.038V167.634C259.186 167.508 260.372 167.431 261.549 167.431ZM257.258 176.209V167.728C254.01 168.151 251.167 168.926 249.845 169.382V176.209H257.258ZM257.258 184.792V177.77H249.845V184.792H257.258ZM205.761 169.772V179.721H210.832V167.508C208.668 168.253 206.801 169.168 205.761 169.772ZM211.612 167.252V179.721H217.464V166.263L217.417 166.262L217.366 166.261C217.334 166.261 217.302 166.261 217.269 166.261C215.421 166.261 213.438 166.68 211.612 167.252ZM218.245 166.297V179.721H223.316V167.285C221.639 166.796 219.874 166.412 218.245 166.297ZM229.754 179.721H224.097V167.522C226.45 168.264 228.553 169.172 229.754 169.772V179.721ZM217.464 208.2V182.061H205.761V208.2H217.464ZM218.245 208.2V182.061H229.754V208.2H218.245ZM216.294 103.645C219.876 103.645 222.865 101.104 223.556 97.7266C223.655 97.2441 223.707 96.7445 223.707 96.2327C223.707 92.1389 220.388 88.8203 216.294 88.8203C212.2 88.8203 208.882 92.1389 208.882 96.2327C208.882 100.327 212.2 103.645 216.294 103.645ZM264.28 184.792V177.77H258.038V184.792H264.28ZM176.501 177.77V184.792H170.259V177.77H176.501ZM139.438 195.716H135.537V173.088H139.438V195.716ZM134.367 173.088V195.716H130.465V173.088H134.367ZM129.295 173.088V195.716H124.614V173.088H129.295ZM129.295 171.528H124.614V170.629C124.614 168.897 126.339 166.155 129.295 165.022V171.528ZM130.465 164.896H129.65C130.402 164.649 131.228 164.506 132.12 164.506C132.956 164.506 133.727 164.649 134.431 164.896H134.367V171.528H130.465V164.896ZM139.438 170.814C139.438 169.477 138.054 166.789 135.537 165.393V171.528H139.438V170.814ZM106.668 195.716H110.569V173.088H106.668V195.716ZM105.497 195.716V173.088H101.596V195.716H105.497ZM100.425 195.716H95.7439V173.088H100.425V195.716ZM95.7439 171.528H100.425V165.022C97.4692 166.155 95.7439 168.897 95.7439 170.629V171.528ZM100.78 164.896H101.596V171.528H105.497V164.896H105.562C104.858 164.649 104.086 164.506 103.25 164.506C102.358 164.506 101.533 164.649 100.78 164.896ZM106.668 165.393V171.528H110.569V170.814C110.569 169.477 109.184 166.789 106.668 165.393ZM80.919 195.716H77.0177V173.088H80.919V195.716ZM75.8473 173.088V195.716H71.946V173.088H75.8473ZM66.094 195.716H70.7756V173.088H66.094L66.094 195.716ZM70.7756 171.528H66.094L66.094 170.629C66.094 168.897 67.8193 166.155 70.7756 165.022V171.528ZM71.946 164.896H71.1306C71.8827 164.649 72.7084 164.506 73.6003 164.506C74.4362 164.506 75.208 164.649 75.9116 164.896H75.8473V171.528H71.946V164.896ZM80.919 170.814C80.919 169.477 79.5342 166.789 77.0177 165.393V171.528H80.919V170.814ZM306.496 195.716H311.177L311.177 173.088H306.496V195.716ZM305.325 195.716V173.088H301.424V195.716H305.325ZM300.254 195.716V173.088H296.352V195.716H300.254ZM296.352 171.528H300.254V165.393C297.737 166.789 296.352 169.477 296.352 170.814V171.528ZM301.36 164.896H301.424V171.528H305.325V164.896H306.141C305.389 164.649 304.563 164.506 303.671 164.506C302.835 164.506 302.063 164.649 301.36 164.896ZM306.496 165.022C309.452 166.155 311.177 168.897 311.177 170.629L311.177 171.528H306.496V165.022ZM340.047 195.716H335.365V173.088H340.047V195.716ZM334.195 173.088V195.716H330.294V173.088H334.195ZM329.123 173.088V195.716H325.222V173.088H329.123ZM329.123 171.528H325.222V170.814C325.222 169.477 326.607 166.789 329.123 165.393V171.528ZM330.294 164.896H330.229C330.933 164.649 331.705 164.506 332.541 164.506C333.432 164.506 334.258 164.649 335.01 164.896H334.195V171.528H330.294V164.896ZM340.047 170.629C340.047 168.897 338.322 166.155 335.365 165.022V171.528H340.047V170.629ZM365.015 195.716H369.697V173.088H365.015V195.716ZM363.845 195.716V173.088H359.943V195.716H363.845ZM358.773 195.716V173.088H354.872V195.716H358.773ZM354.872 171.528H358.773V165.393C356.257 166.789 354.872 169.477 354.872 170.814V171.528ZM359.879 164.896H359.943V171.528H363.845V164.896H364.66C363.908 164.649 363.082 164.506 362.19 164.506C361.355 164.506 360.583 164.649 359.879 164.896ZM365.015 165.022C367.971 166.155 369.697 168.897 369.697 170.629V171.528H365.015V165.022Z" fill="white"/>
<path fill-rule="evenodd" clip-rule="evenodd" d="M234.825 69.3138V67.7532H232.289V60.5358L234.825 58H241.848L244.383 60.5358V67.7532H241.848V89.2104H278.91V88.8203H276.374V81.6029L278.91 79.067H285.932L288.468 81.6029V88.8203H285.932V105.206H293.15V109.497L290.029 113.984V115.739H291.979V131.344H367.168L381.791 143.961H380.619L377.499 148.12V218.343L297.831 218.343V221.855H139.829V218.343L58.2914 218.343V148.12L55.1722 143.961H54L68.6224 131.344H143.338L143.145 115.934H142.755V113.984L139.634 109.497V105.206H147.631V88.8203H145.095V81.6029L147.631 79.067H154.654L157.189 81.6029V88.8203H154.654V89.2104H190.741V67.7532H188.205V60.5358L190.741 58H197.763L200.299 60.5358V67.7532H197.763V69.3138H234.825ZM144.12 211.321H144.315V209.175L144.12 193.635V211.321ZM143.496 143.961L143.549 148.12H143.34V143.961H143.496ZM291.979 148.12V143.961H292.451V148.12H291.979ZM169.478 194.936H162.261V186.353H169.478V194.936ZM170.259 194.936H176.501V186.353H170.259V194.936ZM177.281 194.936H184.889V186.353H177.281V194.936ZM184.889 184.792V177.77H177.281V184.792H184.889ZM184.889 176.209V169.382C183.645 168.885 180.742 168.007 177.281 167.622V176.209H184.889ZM176.501 167.544C175.677 167.473 174.827 167.431 173.965 167.431C172.721 167.431 171.467 167.518 170.259 167.656V176.209H176.501V167.544ZM169.478 167.754V176.209H162.261V169.382C163.556 168.935 166.312 168.182 169.478 167.754ZM162.261 177.77H169.478V184.792H162.261V177.77ZM161.286 151.241H165.187V138.757H161.286V151.241ZM161.286 135.246V136.026H169.088V135.246C169.088 133.685 168.308 131.149 164.797 131.149C163.08 131.149 161.286 132.905 161.286 135.246ZM165.967 138.757H169.088V151.241H165.967V138.757ZM213.563 151.241H210.052V138.757H213.563V151.241ZM209.272 138.757V151.241H205.761V138.757H209.272ZM205.761 135.246V136.026H213.563V135.246C213.563 133.685 212.783 131.149 209.272 131.149C207.555 131.149 205.761 132.905 205.761 135.246ZM249.845 151.241H253.747V138.757H249.845V151.241ZM257.648 151.241H254.527V138.757H257.648V151.241ZM249.845 136.026H257.648V135.246C257.648 133.685 256.868 131.149 253.356 131.149C251.64 131.149 249.845 132.905 249.845 135.246V136.026ZM180.012 151.241H176.501V138.757H180.012V151.241ZM180.792 151.241V138.757H184.303V151.241H180.792ZM184.303 136.026V135.246C184.303 133.685 183.523 131.149 180.012 131.149C178.295 131.149 176.501 132.905 176.501 135.246V136.026H184.303ZM224.877 151.241H228.388V138.757H224.877V151.241ZM224.097 151.241V138.757H220.585V151.241H224.097ZM220.585 136.026V135.246C220.585 132.905 222.38 131.149 224.097 131.149C227.608 131.149 228.388 133.685 228.388 135.246V136.026H220.585ZM268.571 151.241H265.06V138.757H268.571V151.241ZM269.352 151.241H272.863V138.757H269.352V151.241ZM272.863 136.026V135.246C272.863 133.685 272.083 131.149 268.571 131.149C266.855 131.149 265.06 132.905 265.06 135.246V136.026H272.863ZM249.845 186.353V194.936H257.258V186.353H249.845ZM264.28 186.353V194.936H258.038V186.353H264.28ZM272.473 194.936H265.06V186.353H272.473V194.936ZM272.473 177.77V184.792H265.06V177.77H272.473ZM272.473 169.382V176.209H265.06V167.644C268.435 168.04 271.253 168.894 272.473 169.382ZM261.549 167.431C262.479 167.431 263.395 167.48 264.28 167.562V176.209H258.038V167.634C259.186 167.508 260.372 167.431 261.549 167.431ZM257.258 176.209V167.728C254.01 168.151 251.167 168.926 249.845 169.382V176.209H257.258ZM257.258 184.792V177.77H249.845V184.792H257.258ZM205.761 169.772V179.721H210.832V167.508C208.668 168.253 206.801 169.168 205.761 169.772ZM211.612 167.252V179.721H217.464V166.263L217.417 166.262L217.366 166.261C217.334 166.261 217.302 166.261 217.269 166.261C215.421 166.261 213.438 166.68 211.612 167.252ZM218.245 166.297V179.721H223.316V167.285C221.639 166.796 219.874 166.412 218.245 166.297ZM229.754 179.721H224.097V167.522C226.45 168.264 228.553 169.172 229.754 169.772V179.721ZM217.464 208.2V182.061H205.761V208.2H217.464ZM218.245 208.2V182.061H229.754V208.2H218.245ZM216.294 103.645C219.876 103.645 222.865 101.104 223.556 97.7266C223.655 97.2441 223.707 96.7445 223.707 96.2327C223.707 92.1389 220.388 88.8203 216.294 88.8203C212.2 88.8203 208.882 92.1389 208.882 96.2327C208.882 100.327 212.2 103.645 216.294 103.645ZM264.28 184.792V177.77H258.038V184.792H264.28ZM176.501 177.77V184.792H170.259V177.77H176.501ZM139.438 195.716H135.537V173.088H139.438V195.716ZM134.367 173.088V195.716H130.465V173.088H134.367ZM129.295 173.088V195.716H124.614V173.088H129.295ZM129.295 171.528H124.614V170.629C124.614 168.897 126.339 166.155 129.295 165.022V171.528ZM130.465 164.896H129.65C130.402 164.649 131.228 164.506 132.12 164.506C132.956 164.506 133.727 164.649 134.431 164.896H134.367V171.528H130.465V164.896ZM139.438 170.814C139.438 169.477 138.054 166.789 135.537 165.393V171.528H139.438V170.814ZM106.668 195.716H110.569V173.088H106.668V195.716ZM105.497 195.716V173.088H101.596V195.716H105.497ZM100.425 195.716H95.7439V173.088H100.425V195.716ZM95.7439 171.528H100.425V165.022C97.4692 166.155 95.7439 168.897 95.7439 170.629V171.528ZM100.78 164.896H101.596V171.528H105.497V164.896H105.562C104.858 164.649 104.086 164.506 103.25 164.506C102.358 164.506 101.533 164.649 100.78 164.896ZM106.668 165.393V171.528H110.569V170.814C110.569 169.477 109.184 166.789 106.668 165.393ZM80.919 195.716H77.0177V173.088H80.919V195.716ZM75.8473 173.088V195.716H71.946V173.088H75.8473ZM66.094 195.716H70.7756V173.088H66.094L66.094 195.716ZM70.7756 171.528H66.094L66.094 170.629C66.094 168.897 67.8193 166.155 70.7756 165.022V171.528ZM71.946 164.896H71.1306C71.8827 164.649 72.7084 164.506 73.6003 164.506C74.4362 164.506 75.208 164.649 75.9116 164.896H75.8473V171.528H71.946V164.896ZM80.919 170.814C80.919 169.477 79.5342 166.789 77.0177 165.393V171.528H80.919V170.814ZM306.496 195.716H311.177L311.177 173.088H306.496V195.716ZM305.325 195.716V173.088H301.424V195.716H305.325ZM300.254 195.716V173.088H296.352V195.716H300.254ZM296.352 171.528H300.254V165.393C297.737 166.789 296.352 169.477 296.352 170.814V171.528ZM301.36 164.896H301.424V171.528H305.325V164.896H306.141C305.389 164.649 304.563 164.506 303.671 164.506C302.835 164.506 302.063 164.649 301.36 164.896ZM306.496 165.022C309.452 166.155 311.177 168.897 311.177 170.629L311.177 171.528H306.496V165.022ZM340.047 195.716H335.365V173.088H340.047V195.716ZM334.195 173.088V195.716H330.294V173.088H334.195ZM329.123 173.088V195.716H325.222V173.088H329.123ZM329.123 171.528H325.222V170.814C325.222 169.477 326.607 166.789 329.123 165.393V171.528ZM330.294 164.896H330.229C330.933 164.649 331.705 164.506 332.541 164.506C333.432 164.506 334.258 164.649 335.01 164.896H334.195V171.528H330.294V164.896ZM340.047 170.629C340.047 168.897 338.322 166.155 335.365 165.022V171.528H340.047V170.629ZM365.015 195.716H369.697V173.088H365.015V195.716ZM363.845 195.716V173.088H359.943V195.716H363.845ZM358.773 195.716V173.088H354.872V195.716H358.773ZM354.872 171.528H358.773V165.393C356.257 166.789 354.872 169.477 354.872 170.814V171.528ZM359.879 164.896H359.943V171.528H363.845V164.896H364.66C363.908 164.649 363.082 164.506 362.19 164.506C361.355 164.506 360.583 164.649 359.879 164.896ZM365.015 165.022C367.971 166.155 369.697 168.897 369.697 170.629V171.528H365.015V165.022Z" fill="url(#paint0_linear)"/>
<path fill-rule="evenodd" clip-rule="evenodd" d="M144.12 149.29H58.2914V219.514H144.12V149.29ZM124.614 196.886H139.438V171.985C139.438 170.129 136.774 165.676 132.12 165.676C127.466 165.676 124.614 169.572 124.614 171.799V196.886ZM110.569 196.886H95.7439V171.799C95.7439 169.572 98.5963 165.676 103.25 165.676C107.904 165.676 110.569 170.129 110.569 171.985V196.886ZM66.094 196.886H80.919V171.985C80.919 170.129 78.2542 165.676 73.6003 165.676C68.9464 165.676 66.094 169.572 66.094 171.799V196.886Z" fill="#D2D4DF"/>
<path d="M133.583 162.293C139.516 163.147 142.032 168.081 142.559 171.528H140.047C139.403 168.672 136.84 164.954 131.738 164.954C126.636 164.954 124.588 168.672 124.202 171.528H121.883C122.132 167.866 124.322 162.527 131.042 162.182L130.856 160.409H133.782L133.583 162.293Z" fill="white"/>
<path d="M104.714 162.293C110.647 163.147 113.162 168.081 113.69 171.528H111.178C110.534 168.672 107.97 164.954 102.868 164.954C97.7667 164.954 95.7184 168.672 95.3319 171.528H93.013C93.2622 167.866 95.4524 162.527 102.173 162.182L101.986 160.409H104.912L104.714 162.293Z" fill="white"/>
<path d="M75.0638 162.293C80.9968 163.147 83.5121 168.081 84.04 171.528H81.5279C80.8837 168.672 78.32 164.954 73.2185 164.954C68.1169 164.954 66.0685 168.672 65.682 171.528H63.3631C63.6124 167.866 65.8026 162.527 72.5228 162.182L72.3361 160.409H75.2621L75.0638 162.293Z" fill="white"/>
<path d="M68.6224 132.515H144.202L144.185 145.131H54L68.6224 132.515Z" fill="#BDC1D0"/>
<rect x="114.86" y="153.582" width="5.07169" height="55.7886" fill="white"/>
<rect x="85.9907" y="153.582" width="5.07169" height="55.7886" fill="white"/>
<path d="M54.7803 144.609H143.34V149.29H58.2914L54.7803 144.609Z" fill="white"/>
<path d="M134.367 166.066H135.537V172.698H139.829V174.259H135.537V199.227H134.367V174.259H130.465V199.227H129.295V174.259H124.614V172.698H129.295V166.066H130.465V172.698H134.367V166.066Z" fill="#D2D4DF"/>
<path d="M105.497 166.066H106.668V172.698H110.959V174.259H106.668V199.227H105.497V174.259H101.596V199.227H100.425V174.259H95.7439V172.698H100.425V166.066H101.596V172.698H105.497V166.066Z" fill="#D2D4DF"/>
<path d="M75.8473 166.066H77.0177V172.698H81.3091V174.259H77.0177V199.227H75.8473V174.259H71.946V199.227H70.7756V174.259H66.094V172.698H70.7756V166.066H71.946V172.698H75.8473V166.066Z" fill="#D2D4DF"/>
<path fill-rule="evenodd" clip-rule="evenodd" d="M291.671 149.29H377.499V219.514H291.671V149.29ZM311.177 196.886H296.352V171.985C296.352 170.129 299.017 165.676 303.671 165.676C308.325 165.676 311.177 169.572 311.177 171.799V196.886ZM325.222 196.886H340.047V171.799C340.047 169.572 337.194 165.676 332.541 165.676C327.887 165.676 325.222 170.129 325.222 171.985V196.886ZM369.697 196.886H354.872V171.985C354.872 170.129 357.537 165.676 362.19 165.676C366.844 165.676 369.697 169.572 369.697 171.799V196.886Z" fill="#D2D4DF"/>
<path d="M302.208 162.293C296.275 163.147 293.759 168.081 293.231 171.528H295.743C296.388 168.672 298.951 164.954 304.053 164.954C309.154 164.954 311.203 168.672 311.589 171.528H313.908C313.659 167.866 311.469 162.527 304.749 162.182L304.935 160.409H302.009L302.208 162.293Z" fill="white"/>
<path d="M331.077 162.293C325.144 163.147 322.629 168.081 322.101 171.528H324.613C325.257 168.672 327.821 164.954 332.922 164.954C338.024 164.954 340.072 168.672 340.459 171.528H342.778C342.529 167.866 340.338 162.527 333.618 162.182L333.805 160.409H330.879L331.077 162.293Z" fill="white"/>
<path d="M360.727 162.293C354.794 163.147 352.279 168.081 351.751 171.528H354.263C354.907 168.672 357.471 164.954 362.572 164.954C367.674 164.954 369.722 168.672 370.109 171.528H372.428C372.178 167.866 369.988 162.527 363.268 162.182L363.455 160.409H360.529L360.727 162.293Z" fill="white"/>
<path d="M367.168 132.515H291.589L291.606 145.131H381.791L367.168 132.515Z" fill="#BDC1D0"/>
<rect width="5.07169" height="55.7886" transform="matrix(-1 0 0 1 320.931 153.582)" fill="white"/>
<rect width="5.07169" height="55.7886" transform="matrix(-1 0 0 1 349.8 153.582)" fill="white"/>
<path d="M381.01 144.609H292V149.29H377.499L381.01 144.609Z" fill="white"/>
<path d="M301.424 166.066H300.254V172.698H295.962V174.259H300.254V199.227H301.424V174.259H305.325V199.227H306.496V174.259H311.177V172.698H306.496V166.066H305.325V172.698H301.424V166.066Z" fill="#D2D4DF"/>
<path d="M330.294 166.066H329.123V172.698H324.832V174.259H329.123V199.227H330.294V174.259H334.195V199.227H335.365V174.259H340.047V172.698H335.365V166.066H334.195V172.698H330.294V166.066Z" fill="#D2D4DF"/>
<path d="M359.943 166.066H358.773V172.698H354.482V174.259H358.773V199.227H359.943V174.259H363.845V199.227H365.015V174.259H369.697V172.698H365.015V166.066H363.845V172.698H359.943V166.066Z" fill="#D2D4DF"/>
<path fill-rule="evenodd" clip-rule="evenodd" d="M144.315 210.346L143.145 117.105V116.129H151.728V90.3807H195.227V76.7262H240.677V90.3807H282.226V116.91H291.979V212.686H144.315V210.346ZM169.478 196.106H162.261V187.523H169.478V196.106ZM170.259 196.106H176.501V187.523H170.259V196.106ZM177.281 196.106H184.889V187.523H177.281V196.106ZM184.889 185.963V178.94H177.281V185.963H184.889ZM184.889 177.38V170.552C183.645 170.055 180.742 169.177 177.281 168.792V177.38H184.889ZM176.501 168.715C175.677 168.643 174.827 168.602 173.965 168.602C172.721 168.602 171.467 168.688 170.259 168.827V177.38H176.501V168.715ZM169.478 168.924V177.38H162.261V170.552C163.556 170.106 166.312 169.352 169.478 168.924ZM162.261 178.94H169.478V185.963H162.261V178.94ZM161.286 152.411H165.187V139.927H161.286V152.411ZM161.286 136.416V137.196H169.088V136.416C169.088 134.856 168.308 132.32 164.797 132.32C163.08 132.32 161.286 134.075 161.286 136.416ZM165.967 139.927H169.088V152.411H165.967V139.927ZM213.563 152.411H210.052V139.927H213.563V152.411ZM209.272 139.927V152.411H205.761V139.927H209.272ZM205.761 136.416V137.196H213.563V136.416C213.563 134.856 212.783 132.32 209.272 132.32C207.555 132.32 205.761 134.075 205.761 136.416ZM249.845 152.411H253.747V139.927H249.845V152.411ZM257.648 152.411H254.527V139.927H257.648V152.411ZM249.845 137.196H257.648V136.416C257.648 134.856 256.868 132.32 253.356 132.32C251.64 132.32 249.845 134.075 249.845 136.416V137.196ZM180.012 152.411H176.501V139.927H180.012V152.411ZM180.792 152.411V139.927H184.303V152.411H180.792ZM184.303 137.196V136.416C184.303 134.856 183.523 132.32 180.012 132.32C178.295 132.32 176.501 134.075 176.501 136.416V137.196H184.303ZM224.877 152.411H228.388V139.927H224.877V152.411ZM224.097 152.411V139.927H220.585V152.411H224.097ZM220.585 137.196V136.416C220.585 134.075 222.38 132.32 224.097 132.32C227.608 132.32 228.388 134.856 228.388 136.416V137.196H220.585ZM268.571 152.411H265.06V139.927H268.571V152.411ZM269.352 152.411H272.863V139.927H269.352V152.411ZM272.863 137.196V136.416C272.863 134.856 272.083 132.32 268.571 132.32C266.855 132.32 265.06 134.075 265.06 136.416V137.196H272.863ZM249.845 196.106H257.258V187.523H249.845V196.106ZM264.28 196.106H258.038V187.523H264.28V196.106ZM272.473 196.106H265.06V187.523H272.473V196.106ZM272.473 178.94V185.963H265.06V178.94H272.473ZM272.473 170.552V177.38H265.06V168.814C268.435 169.21 271.253 170.064 272.473 170.552ZM261.549 168.602C262.479 168.602 263.395 168.65 264.28 168.732V177.38H258.038V168.805C259.186 168.679 260.372 168.602 261.549 168.602ZM257.258 177.38V168.898C254.01 169.321 251.167 170.097 249.845 170.552V177.38H257.258ZM257.258 178.94H249.845V185.963H257.258V178.94ZM205.761 170.943V180.891H210.832V168.679C208.668 169.423 206.801 170.339 205.761 170.943ZM211.612 168.422V180.891H217.464V167.433C217.399 167.432 217.334 167.431 217.269 167.431C215.421 167.431 213.438 167.85 211.612 168.422ZM218.245 167.467V180.891H223.316V168.455C221.639 167.966 219.874 167.583 218.245 167.467ZM229.754 180.891H224.097V168.692C226.45 169.435 228.553 170.342 229.754 170.943V180.891ZM217.464 209.37V183.232H205.761V209.37H217.464ZM218.245 209.37V183.232H229.754V209.37H218.245ZM216.294 104.816C220.388 104.816 223.707 101.497 223.707 97.4031C223.707 93.3093 220.388 89.9906 216.294 89.9906C212.2 89.9906 208.882 93.3093 208.882 97.4031C208.882 101.497 212.2 104.816 216.294 104.816ZM264.28 185.963V178.94H258.038V185.963H264.28ZM176.501 178.94V185.963H170.259V178.94H176.501Z" fill="#DFE1EB"/>
<path d="M166.134 128.681C170.977 129.27 172.344 133.592 172.404 135.831H169.674C169.543 134.4 168.425 131.539 164.992 131.539C161.559 131.539 160.44 134.4 160.31 135.831H157.384C157.504 133.621 158.951 129.382 163.66 128.705L163.431 127.638H166.357L166.134 128.681Z" fill="white"/>
<path d="M210.609 128.681C215.452 129.27 216.819 133.592 216.879 135.831H214.148C214.018 134.4 212.9 131.539 209.467 131.539C206.034 131.539 204.915 134.4 204.785 135.831H201.859C201.979 133.621 203.426 129.382 208.135 128.705L207.906 127.638H210.832L210.609 128.681Z" fill="white"/>
<path d="M254.694 128.681C259.536 129.27 260.903 133.592 260.964 135.831H258.233C258.103 134.4 256.985 131.539 253.551 131.539C250.118 131.539 249 134.4 248.87 135.831H245.944C246.063 133.621 247.51 129.382 252.22 128.705L251.991 127.638H254.917L254.694 128.681Z" fill="white"/>
<path d="M181.739 128.681C186.582 129.27 187.949 133.592 188.01 135.831H185.279C185.149 134.4 184.03 131.539 180.597 131.539C177.164 131.539 176.046 134.4 175.916 135.831H172.99C173.109 133.621 174.556 129.382 179.265 128.705L179.037 127.638H181.963L181.739 128.681Z" fill="white"/>
<path d="M225.824 128.681C230.667 129.27 232.034 133.592 232.094 135.831H229.363C229.233 134.4 228.115 131.539 224.682 131.539C221.249 131.539 220.13 134.4 220 135.831H217.074C217.194 133.621 218.641 129.382 223.35 128.705L223.121 127.638H226.047L225.824 128.681Z" fill="white"/>
<path d="M270.299 128.681C275.142 129.27 276.509 133.592 276.569 135.831H273.838C273.708 134.4 272.59 131.539 269.157 131.539C265.724 131.539 264.605 134.4 264.475 135.831H261.549C261.669 133.621 263.116 129.382 267.825 128.705L267.596 127.638H270.522L270.299 128.681Z" fill="white"/>
<path d="M175.035 160.863C180.377 161.219 185.658 162.988 187.815 163.92L185.864 168.602C183.523 167.627 177.71 165.676 173.185 165.676C168.659 165.676 162.976 167.627 160.701 168.602L158.75 163.92C160.848 162.988 166.016 161.22 171.334 160.863L171.039 159.239H175.33L175.035 160.863Z" fill="white"/>
<path d="M219.315 160.863C224.657 161.219 229.938 162.988 232.094 163.92L230.144 168.602C227.803 167.627 221.99 165.676 217.464 165.676C212.939 165.676 207.256 167.627 204.98 168.602L203.03 163.92C205.127 162.988 210.296 161.22 215.614 160.863L215.319 159.239H219.61L219.315 160.863Z" fill="white"/>
<path d="M263.009 160.863C268.352 161.219 273.632 162.988 275.789 163.92L273.838 168.602C271.497 167.627 265.684 165.676 261.159 165.676C256.633 165.676 250.951 167.627 248.675 168.602L246.724 163.92C248.822 162.988 253.99 161.22 259.309 160.863L259.013 159.239H263.305L263.009 160.863Z" fill="white"/>
<path d="M147.631 89.9906V197.081H154.654V89.9906H157.189V82.7732L154.654 80.2374H147.631L145.095 82.7732V89.9906H147.631Z" fill="white"/>
<path d="M278.91 89.9906V197.081H285.932V89.9906H288.468V82.7732L285.932 80.2374H278.91L276.374 82.7732V89.9906H278.91Z" fill="white"/>
<path d="M234.825 68.9236V197.081H241.848V68.9236H244.383V61.7062L241.848 59.1703H234.825L232.289 61.7062V68.9236H234.825Z" fill="white"/>
<path d="M190.741 68.9236V197.081H197.763V68.9236H200.299V61.7062L197.763 59.1703H190.741L188.205 61.7062V68.9236H190.741Z" fill="white"/>
<path fill-rule="evenodd" clip-rule="evenodd" d="M227.218 97.4031C227.218 91.8662 223.098 87.2915 217.757 86.5766L218.05 85.114H214.343L214.641 86.6037C209.393 87.4003 205.37 91.932 205.37 97.4031C205.37 103.436 210.261 108.327 216.294 108.327C222.327 108.327 227.218 103.436 227.218 97.4031ZM216.294 104.816C220.388 104.816 223.707 101.497 223.707 97.4031C223.707 93.3093 220.388 89.9906 216.294 89.9906C212.2 89.9906 208.882 93.3093 208.882 97.4031C208.882 101.497 212.2 104.816 216.294 104.816Z" fill="white"/>
<path d="M139.634 106.376H149.192H193.471V117.105H142.755V115.154L139.634 110.668V106.376Z" fill="white"/>
<path d="M293.15 106.376H283.591H239.312V117.105H290.029V115.154L293.15 110.668V106.376Z" fill="white"/>
<rect x="193.667" y="70.4841" width="44.4748" height="7.41247" fill="white"/>
<rect x="193.667" y="113.789" width="41.7439" height="4.29143" fill="white"/>
<rect x="142.95" y="212.491" width="151.761" height="3.51117" fill="#CBCDD5"/>
<rect x="142.95" y="212.491" width="151.761" height="3.51117" fill="url(#paint1_linear)"/>
<rect x="141.779" y="216.003" width="154.101" height="3.51117" fill="#CBCDD5"/>
<rect x="141.779" y="216.003" width="154.101" height="3.51117" fill="url(#paint2_linear)"/>
<rect x="139.829" y="219.514" width="158.003" height="3.51117" fill="#CBCDD5"/>
<rect x="139.829" y="219.514" width="158.003" height="3.51117" fill="url(#paint3_linear)"/>
</g>
<defs>
<filter id="filter0_d" x="0" y="0" width="435.791" height="273.025" filterUnits="userSpaceOnUse" color-interpolation-filters="sRGB">
<feFlood flood-opacity="0" result="BackgroundImageFix"/>
<feColorMatrix in="SourceAlpha" type="matrix" values="0 0 0 0 0 0 0 0 0 0 0 0 0 0 0 0 0 0 127 0"/>
<feOffset dy="-4"/>
<feGaussianBlur stdDeviation="27"/>
<feColorMatrix type="matrix" values="0 0 0 0 0.546117 0 0 0 0 0.546117 0 0 0 0 0.546117 0 0 0 0.25 0"/>
<feBlend mode="normal" in2="BackgroundImageFix" result="effect1_dropShadow"/>
<feBlend mode="normal" in="SourceGraphic" in2="effect1_dropShadow" result="shape"/>
</filter>
<linearGradient id="paint0_linear" x1="218.83" y1="218.343" x2="218.83" y2="221.855" gradientUnits="userSpaceOnUse">
<stop stop-color="white" stop-opacity="0.57"/>
<stop offset="1" stop-color="white" stop-opacity="0"/>
</linearGradient>
<linearGradient id="paint1_linear" x1="218.83" y1="212.491" x2="218.83" y2="216.003" gradientUnits="userSpaceOnUse">
<stop stop-color="white" stop-opacity="0.57"/>
<stop offset="1" stop-color="white" stop-opacity="0"/>
</linearGradient>
<linearGradient id="paint2_linear" x1="218.83" y1="216.003" x2="218.83" y2="219.514" gradientUnits="userSpaceOnUse">
<stop stop-color="white" stop-opacity="0.57"/>
<stop offset="1" stop-color="white" stop-opacity="0"/>
</linearGradient>
<linearGradient id="paint3_linear" x1="218.83" y1="219.514" x2="218.83" y2="223.025" gradientUnits="userSpaceOnUse">
<stop stop-color="white" stop-opacity="0.57"/>
<stop offset="1" stop-color="white" stop-opacity="0"/>
</linearGradient>
</defs>
</svg>
