<svg width="285" height="153" viewBox="0 0 285 153" fill="none" xmlns="http://www.w3.org/2000/svg">
<g filter="url(#filter0_dd)">
<path d="M233.294 85H130.61C109.778 85 108.291 67.3184 121.613 60.3464C121.613 60.3464 115.767 45.7121 126.671 35.3002C138.683 23.831 148.424 27.2309 156.911 28.8582C155.561 23.9763 160.527 7.74298 177.148 6.14935C193.768 4.55572 203.782 16.1652 203.782 19.5825C210.726 17.467 211.814 12.7872 227.96 16.1849C244.105 19.5825 249.804 35.3002 246.603 44.4802C253.353 48.0603 265 53.4597 265 64.9289C265 76.3981 259.912 85 233.294 85Z" fill="#F2F4F7"/>
</g>
<g filter="url(#filter1_dd)">
<circle cx="116" cy="45" r="34" fill="#FFD6AF"/>
</g>
<g filter="url(#filter2_dd)">
<path d="M198.3 119H111.829C94.287 119 93.0342 104.004 104.253 98.0913C104.253 98.0913 99.3298 85.6799 108.512 76.8495C118.628 67.1225 126.831 70.0059 133.978 71.386C132.841 67.2457 137.023 53.4782 151.019 52.1267C165.016 50.7751 173.448 60.6211 173.448 63.5194C179.296 61.7252 180.212 57.7563 193.808 60.6378C207.405 63.5194 212.203 76.8495 209.507 84.6351C215.192 87.6714 225 92.2506 225 101.978C225 111.705 220.715 119 198.3 119Z" fill="#E4E5EC"/>
</g>
<g filter="url(#filter3_d)">
<path d="M137.637 85.0381C137.637 87.0321 137.238 88.6272 136.839 90.6211C136.44 92.615 134.447 93.8114 132.453 93.8114H21.5913C20.3949 93.8114 18.7997 93.0138 18.0021 92.2162C15.6094 89.0259 14.4131 85.4369 14.0143 81.0503C13.6155 70.2832 21.5913 60.7124 32.3584 59.516C34.3524 59.1172 36.3461 59.516 37.9413 59.516C39.1376 43.9635 52.2974 32 67.8499 32C81.4085 32 92.5745 40.7732 96.5623 53.1355C96.9611 53.1355 97.3598 53.1355 97.7586 53.1355C104.937 53.1355 110.918 58.3196 112.514 64.7002C113.71 64.3014 115.305 64.3014 116.9 64.3014C128.465 64.3014 137.637 73.4734 137.637 85.0381Z" fill="url(#paint0_linear)"/>
<path d="M40.7332 57.1234C39.9357 57.1234 39.5369 57.1234 38.7394 56.7246C39.9357 49.9452 43.5246 43.9635 48.3098 39.5769C43.9234 44.3623 41.132 50.7428 40.7332 57.1234Z" fill="#F2F4F7"/>
<path d="M136.84 91.02C136.043 92.6151 134.448 93.8115 132.852 93.8115H21.99C20.7937 93.8115 19.1987 93.0138 18.4011 92.2163C16.0084 89.026 14.812 85.437 14.4132 81.0504C14.0144 74.6699 16.8059 68.2893 21.5913 64.3015C18.401 68.2893 16.4072 73.4735 16.4072 78.6577C16.4072 82.6455 18.0023 86.6334 20.395 89.8237C21.1926 91.02 22.3888 91.4188 23.9839 91.4188H134.846C135.644 91.4188 136.441 91.4188 136.84 91.02Z" fill="#F2F4F7"/>
</g>
<defs>
<filter id="filter0_dd" x="93" y="0" width="192" height="119" filterUnits="userSpaceOnUse" color-interpolation-filters="sRGB">
<feFlood flood-opacity="0" result="BackgroundImageFix"/>
<feColorMatrix in="SourceAlpha" type="matrix" values="0 0 0 0 0 0 0 0 0 0 0 0 0 0 0 0 0 0 127 0"/>
<feOffset dy="14"/>
<feGaussianBlur stdDeviation="10"/>
<feColorMatrix type="matrix" values="0 0 0 0 0 0 0 0 0 0 0 0 0 0 0 0 0 0 0.05 0"/>
<feBlend mode="normal" in2="BackgroundImageFix" result="effect1_dropShadow"/>
<feColorMatrix in="SourceAlpha" type="matrix" values="0 0 0 0 0 0 0 0 0 0 0 0 0 0 0 0 0 0 127 0"/>
<feOffset dx="-1" dy="-1"/>
<feColorMatrix type="matrix" values="0 0 0 0 1 0 0 0 0 1 0 0 0 0 1 0 0 0 1 0"/>
<feBlend mode="normal" in2="effect1_dropShadow" result="effect2_dropShadow"/>
<feBlend mode="normal" in="SourceGraphic" in2="effect2_dropShadow" result="shape"/>
</filter>
<filter id="filter1_dd" x="62" y="5" width="108" height="108" filterUnits="userSpaceOnUse" color-interpolation-filters="sRGB">
<feFlood flood-opacity="0" result="BackgroundImageFix"/>
<feColorMatrix in="SourceAlpha" type="matrix" values="0 0 0 0 0 0 0 0 0 0 0 0 0 0 0 0 0 0 127 0"/>
<feOffset dy="14"/>
<feGaussianBlur stdDeviation="10"/>
<feColorMatrix type="matrix" values="0 0 0 0 0 0 0 0 0 0 0 0 0 0 0 0 0 0 0.05 0"/>
<feBlend mode="normal" in2="BackgroundImageFix" result="effect1_dropShadow"/>
<feColorMatrix in="SourceAlpha" type="matrix" values="0 0 0 0 0 0 0 0 0 0 0 0 0 0 0 0 0 0 127 0"/>
<feOffset dx="-1" dy="-1"/>
<feColorMatrix type="matrix" values="0 0 0 0 1 0 0 0 0 1 0 0 0 0 1 0 0 0 1 0"/>
<feBlend mode="normal" in2="effect1_dropShadow" result="effect2_dropShadow"/>
<feBlend mode="normal" in="SourceGraphic" in2="effect2_dropShadow" result="shape"/>
</filter>
<filter id="filter2_dd" x="77" y="46" width="168" height="107" filterUnits="userSpaceOnUse" color-interpolation-filters="sRGB">
<feFlood flood-opacity="0" result="BackgroundImageFix"/>
<feColorMatrix in="SourceAlpha" type="matrix" values="0 0 0 0 0 0 0 0 0 0 0 0 0 0 0 0 0 0 127 0"/>
<feOffset dy="14"/>
<feGaussianBlur stdDeviation="10"/>
<feColorMatrix type="matrix" values="0 0 0 0 0 0 0 0 0 0 0 0 0 0 0 0 0 0 0.05 0"/>
<feBlend mode="normal" in2="BackgroundImageFix" result="effect1_dropShadow"/>
<feColorMatrix in="SourceAlpha" type="matrix" values="0 0 0 0 0 0 0 0 0 0 0 0 0 0 0 0 0 0 127 0"/>
<feOffset dx="-1" dy="-1"/>
<feColorMatrix type="matrix" values="0 0 0 0 1 0 0 0 0 1 0 0 0 0 1 0 0 0 1 0"/>
<feBlend mode="normal" in2="effect1_dropShadow" result="effect2_dropShadow"/>
<feBlend mode="normal" in="SourceGraphic" in2="effect2_dropShadow" result="shape"/>
</filter>
<filter id="filter3_d" x="0" y="13" width="151.637" height="89.8115" filterUnits="userSpaceOnUse" color-interpolation-filters="sRGB">
<feFlood flood-opacity="0" result="BackgroundImageFix"/>
<feColorMatrix in="SourceAlpha" type="matrix" values="0 0 0 0 0 0 0 0 0 0 0 0 0 0 0 0 0 0 127 0"/>
<feOffset dy="-5"/>
<feGaussianBlur stdDeviation="7"/>
<feColorMatrix type="matrix" values="0 0 0 0 0.741176 0 0 0 0 0.74902 0 0 0 0 0.780392 0 0 0 0.2 0"/>
<feBlend mode="normal" in2="BackgroundImageFix" result="effect1_dropShadow"/>
<feBlend mode="normal" in="SourceGraphic" in2="effect1_dropShadow" result="shape"/>
</filter>
<linearGradient id="paint0_linear" x1="14.6217" y1="62.8965" x2="137.806" y2="62.8965" gradientUnits="userSpaceOnUse">
<stop stop-color="#F2F4F7"/>
<stop offset="1" stop-color="white"/>
</linearGradient>
</defs>
</svg>
