<svg width="115" height="120" viewBox="0 0 115 120" fill="none" xmlns="http://www.w3.org/2000/svg">
<g filter="url(#filter0_dd)">
<path d="M12.1086 54.694C9.93018 57.0705 12.5047 57.1696 13.1979 57.3676C11.6135 60.1402 13.1979 62.3187 15.5744 61.1304C14.8812 64.002 19.0401 62.2197 19.0401 62.2197C18.7431 64.1011 20.1294 65.6854 21.9117 66.3785H22.0108C22.2088 66.4776 22.3078 66.4776 22.5059 66.5766C22.6049 66.5766 22.6049 66.5766 22.7039 66.5766C22.902 66.5766 23.001 66.6756 23.199 66.6756C23.298 66.6756 23.298 66.6756 23.3971 66.6756C23.4961 66.6756 23.6941 66.6756 23.7931 66.6756C23.8922 66.6756 23.9912 66.6756 24.0902 66.6756C24.1892 66.6756 24.2883 66.6756 24.4863 66.6756C24.5853 66.6756 24.6843 66.6756 24.7834 66.5766C24.8824 66.5766 24.9814 66.5766 25.0804 66.4775C25.1794 66.4775 25.2785 66.3785 25.3775 66.2795C25.4765 66.2795 25.4765 66.1805 25.5755 66.1805C25.6746 66.0815 25.7736 65.9825 25.9716 65.8834L26.0706 65.7844C26.1697 65.6854 26.3677 65.4874 26.4667 65.2893C27.0608 68.1609 29.8334 66.5766 29.8334 66.5766C29.8334 66.7746 29.9325 66.9727 30.0315 67.1707C29.5364 67.1707 27.655 67.2697 27.556 69.4482C27.3579 72.0227 30.5266 72.3198 30.5266 72.3198C30.5266 72.3198 30.1305 72.6169 29.8334 73.013C29.7344 73.112 29.6354 73.211 29.6354 73.409C29.6354 73.409 29.6354 73.409 29.6354 73.5081V73.6071V73.7061V73.8051V73.9041V74.0032V74.1022C29.6354 74.1022 29.6354 74.2012 29.7344 74.2012C29.7344 74.2012 29.8334 74.3002 29.8334 74.3992L29.9325 74.4983C29.9325 74.5973 30.0315 74.5973 30.1305 74.6963L30.2295 74.7954C30.3285 74.8944 30.5266 74.9934 30.6256 75.0924C29.7344 75.7856 30.5266 77.766 33.2992 77.3699C33.1011 78.2611 34.7845 78.5581 35.3786 77.4689C35.7747 78.5581 38.0522 79.1523 39.4385 78.2611C39.8346 79.1523 41.2209 78.8552 41.815 77.865C42.8052 79.0532 47.0631 79.9444 47.3602 76.8748C47.5582 76.8748 47.7563 76.8748 48.0533 76.8748C48.1524 76.8748 48.1524 76.8748 48.2514 76.8748C48.4494 76.8748 48.6475 76.8748 48.8455 76.9738C48.9445 76.9738 49.0436 76.9738 49.2416 77.0728C49.2416 77.0728 49.2416 77.0728 49.3406 77.0728C49.5387 77.0728 49.8357 77.1719 50.0338 77.1719C50.2318 77.1719 50.3308 77.2709 50.5289 77.2709C51.4201 77.4689 52.3113 77.865 53.2024 78.2611C53.2024 78.2611 53.2024 78.2611 53.3015 78.2611C53.5985 78.3601 53.8956 78.5582 54.0936 78.7562C54.9848 79.3503 55.777 80.0435 56.1731 80.9346C56.2721 81.1327 56.3711 81.2317 56.3711 81.4298C56.7672 82.42 57.1633 84.0043 57.4604 85.8857C57.5594 86.3808 57.5594 86.7769 57.6584 87.272C57.6584 87.371 57.6584 87.5691 57.7574 87.6681C57.7574 88.0642 57.8564 88.3612 57.8564 88.7573C57.8564 88.9554 57.8564 89.0544 57.9555 89.2524C57.9555 89.7475 58.0545 90.2426 58.0545 90.7377C58.0545 90.8368 58.0545 91.0348 58.0545 91.1339C58.0545 91.5299 58.0545 91.926 58.1535 92.3221C58.1535 92.5201 58.1535 92.7182 58.1535 92.9162C58.1535 93.3123 58.1535 93.6094 58.1535 94.0055C58.1535 94.2035 58.1535 94.3025 58.1535 94.5006C58.1535 94.9957 58.1535 95.4908 58.1535 95.9859C58.1535 96.1839 58.1535 96.283 58.1535 96.481C58.1535 96.8771 58.1535 97.1741 58.0545 97.5702C58.0545 97.7683 58.0545 97.8673 58.0545 98.0653C57.9555 98.5604 57.9555 99.0555 57.8564 99.4516C57.8564 99.4516 57.6584 100.64 62.7085 100.442C67.7586 100.244 70.3331 99.9467 69.838 98.6594C69.3429 97.3722 68.3527 94.7976 68.0556 92.8172C67.7586 90.8368 66.6693 84.4004 66.9664 79.3503C67.2635 74.3002 69.838 69.8443 73.7989 68.458C74.9871 68.0619 76.0763 67.7648 77.1656 67.4678C78.4529 69.0521 81.9186 69.7453 83.1069 67.7648C83.701 68.557 84.6912 67.4678 84.6912 67.4678C84.6912 68.557 86.6716 69.0521 88.355 67.6658C89.6423 70.4384 97.3659 70.9335 95.6825 64.8932C97.2669 65.2893 98.0591 64.2991 97.663 63.5069C98.7522 64.3981 100.337 63.0118 98.6532 61.4275C102.416 62.7148 105.09 58.7539 104.396 57.0705C104.297 56.8725 104.198 56.7735 104.099 56.5754C104.099 56.5754 104.099 56.4764 104 56.4764C103.901 56.3774 103.802 56.2784 103.703 56.0803L103.604 55.9813C103.505 55.8823 103.307 55.7833 103.208 55.6842L103.109 55.5852C103.01 55.4862 102.911 55.4862 102.713 55.3872C102.614 55.3872 102.614 55.2882 102.515 55.2882C102.416 55.2882 102.317 55.1891 102.218 55.1891C102.119 55.1891 102.119 55.1891 102.02 55.0901C101.921 55.0901 101.822 54.9911 101.624 54.9911C101.525 54.9911 101.525 54.9911 101.426 54.8921C101.327 54.8921 101.228 54.8921 101.228 54.7931C101.129 54.7931 101.03 54.7931 101.03 54.694H100.931C100.832 54.694 100.832 54.694 100.832 54.694C100.832 54.694 104.297 52.1195 100.436 50.1391C101.03 49.3469 101.228 48.0596 100.733 46.9704C100.733 46.9704 100.733 46.8714 100.634 46.8714C100.535 46.7723 100.535 46.6733 100.436 46.4753L100.337 46.3763C100.238 46.2772 100.138 46.1782 100.039 46.0792C99.9405 46.0792 99.9405 45.9802 99.8414 45.9802C99.7424 45.8812 99.6434 45.7821 99.5444 45.7821C99.4454 45.7821 99.4454 45.6831 99.3463 45.6831C99.2473 45.5841 99.1483 45.5841 98.9502 45.4851C98.8512 45.4851 98.7522 45.386 98.6532 45.386C98.5542 45.386 98.3561 45.287 98.1581 45.287C98.0591 45.287 97.96 45.287 97.861 45.188C97.663 45.188 97.4649 45.188 97.2669 45.188C97.1679 45.188 97.0688 45.188 96.9698 45.188C96.7718 45.188 96.4747 45.188 96.1777 45.287C96.0786 45.287 95.9796 45.287 95.8806 45.287C95.4845 45.386 95.0884 45.3861 94.6923 45.4851C94.4943 44.99 93.9002 44.7919 93.9002 44.7919C95.4845 43.9997 93.207 40.633 89.5432 42.9105C89.4442 42.5144 89.3452 42.2174 89.2462 41.9203C92.6129 43.0095 100.931 36.8702 94.4943 31.7211C97.663 28.5524 95.5835 21.918 89.0481 21.4229C89.5432 20.4327 88.1569 20.0366 88.1569 20.0366C88.1569 20.0366 89.4442 14.9865 83.701 14.1944C83.602 13.5012 83.1069 12.511 83.1069 12.511C83.1069 12.511 83.3049 7.65897 79.344 5.87659C79.146 5.77757 78.8489 5.67854 78.6509 5.57952C78.5519 5.57952 78.5519 5.57951 78.4529 5.48049C78.2548 5.48049 78.1558 5.38148 77.9577 5.38148C77.8587 5.38148 77.8587 5.38148 77.7597 5.38148C77.5617 5.38148 77.4626 5.28245 77.2646 5.28245H77.1656C76.9675 5.28245 76.7695 5.28245 76.5714 5.28245C76.4724 5.28245 76.4724 5.28245 76.3734 5.28245C76.2744 5.28245 76.0763 5.28245 75.9773 5.28245C75.8783 5.28245 75.8783 5.28245 75.7793 5.28245C75.6803 5.28245 75.4822 5.28246 75.3832 5.38148H75.2842C73.6008 5.77757 72.5116 6.8668 72.5116 6.8668C71.3233 4.58931 68.9468 5.67853 68.9468 5.67853C68.5507 3.30202 65.7781 2.21279 64.3918 4.49028C64.3918 4.49028 63.0055 1.02454 59.8369 3.30203C58.0545 1.42063 54.9848 2.41085 54.2917 3.40106C54.5887 -0.163705 46.271 -0.0646907 46.667 5.77756C44.4886 4.98539 43.1023 6.17364 42.7062 7.46092C41.4189 5.48049 40.0326 8.84722 40.0326 8.84722C36.7649 5.97561 31.3188 11.9169 36.2698 15.6797C33.5962 16.1748 34.9825 18.3533 34.9825 18.3533C32.7051 17.6601 32.9031 19.6405 32.9031 19.6405C29.6354 18.7493 26.3677 22.7102 31.5168 26.671C28.8432 27.2652 29.3383 29.9387 30.4276 30.2358C27.952 30.3348 29.4374 33.3055 30.9227 33.6025C30.2295 33.8996 29.8334 34.2957 29.5364 34.5927C29.4374 34.5927 29.4374 34.5927 29.3383 34.5927C29.2393 34.5927 29.1403 34.5927 29.0413 34.5927C28.9423 34.5927 28.9423 34.5927 28.8432 34.5927C28.7442 34.5927 28.6452 34.5927 28.4471 34.5927H28.3481C28.2491 34.5927 28.1501 34.5927 27.952 34.6918H27.853C26.6648 34.9888 25.5755 35.979 25.4765 37.0683C23.8922 33.6025 15.7724 34.9888 17.1587 40.9301C14.4852 39.9399 13.891 41.9203 14.0891 43.1086C11.5145 41.8213 7.85073 45.8812 11.6135 48.8518C8.93997 50.7332 9.93018 54.595 12.1086 54.694ZM57.0643 75.7856C57.0643 75.9836 57.0643 76.2807 57.0643 76.4787C57.0643 76.5777 57.0643 76.6767 57.0643 76.8748C57.0643 77.1718 57.0643 77.4689 57.1633 77.667C57.4604 79.4493 56.8662 79.7464 55.876 78.9542C54.8858 78.063 53.1034 76.3797 51.6181 75.3895C51.321 75.1914 51.024 74.8944 50.6279 74.5973C50.6279 74.3993 50.7269 74.3002 50.6279 74.1022C50.6279 74.1022 53.2024 72.9139 52.5093 70.6365C51.8162 68.359 48.4494 68.8541 47.8553 69.1511C48.7465 67.0717 46.8651 66.1805 45.8749 66.5766C45.8749 65.8834 45.4788 65.8834 45.1817 65.9824C45.3798 65.4873 45.1817 64.9922 44.7856 64.5961C44.6866 64.4971 44.6866 64.4971 44.5876 64.3981C44.5876 64.3981 44.5876 64.3981 44.4886 64.3981C44.3896 64.3981 44.3896 64.2991 44.2905 64.2991C44.2905 64.2991 44.1915 64.2991 44.1915 64.2001C44.1915 64.2001 44.0925 64.2001 44.0925 64.101C43.9935 64.101 43.9935 64.101 43.8945 64.002H43.7954C43.6964 64.002 43.5974 64.002 43.5974 64.002C43.4984 64.002 43.3993 64.002 43.3003 64.002C43.2013 64.002 43.1023 64.002 43.0033 64.101C42.8052 64.2001 42.6072 64.2991 42.4091 64.3981C42.3101 64.4971 42.2111 64.4971 42.1121 64.5961C42.1121 64.5961 42.1121 64.5962 42.0131 64.6952C42.0131 64.6952 41.914 64.6952 41.914 64.5961C41.914 64.5961 41.914 64.5961 41.914 64.4971C41.914 64.3981 42.0131 64.2991 42.0131 64.2991V64.2001C42.0131 64.1011 42.0131 64.002 42.0131 63.903V63.804C42.0131 63.705 42.0131 63.6059 41.914 63.5069C43.6964 64.101 45.7759 63.2099 46.8651 61.6255C48.8455 63.1108 50.5289 64.3981 51.9152 65.2893C54.3907 66.8736 55.777 69.4482 56.3711 71.2306C57.0643 72.3198 57.0643 74.2012 57.0643 75.7856ZM62.3124 58.5559C62.3124 58.5559 62.3124 58.6549 62.3124 58.5559C62.1144 58.7539 62.1144 58.8529 62.0153 58.8529C62.0153 58.8529 62.0153 58.8529 61.9163 58.8529C61.8173 58.8529 61.8173 58.952 61.7183 58.952C61.0251 59.051 61.2232 55.5852 61.4212 52.5156C62.3124 52.2185 63.2036 51.8224 63.7977 51.4263C63.9958 52.3175 64.4909 52.9117 65.085 53.4068C64.1938 55.5852 63.1046 57.6647 62.3124 58.5559ZM56.5692 64.4971C56.5692 64.5961 56.5692 64.5962 56.4701 64.6952C56.4701 64.7942 56.3711 64.7942 56.3711 64.7942C56.3711 64.7942 56.3711 64.8932 56.2721 64.8932C56.1731 64.8932 56.0741 64.9923 55.975 64.8932C54.9848 64.6952 51.024 62.5167 49.3406 60.8334C48.6475 60.2392 48.1524 59.6451 47.6573 59.15C47.6573 58.9519 47.6573 58.8529 47.6573 58.6549C47.6573 58.6549 54.1927 56.9715 50.0338 52.7136C50.1328 52.3175 50.1328 52.0205 49.9347 51.7234C50.925 51.8224 52.1132 51.1293 52.7073 50.7332C54.3907 53.7038 55.3809 56.7735 55.876 59.6451C55.975 60.3382 56.0741 61.0314 56.1731 61.6255C56.1731 61.7245 56.1731 61.8236 56.2721 61.9226C56.2721 62.0216 56.2721 62.2197 56.3711 62.3187C56.4701 62.6157 56.4701 62.9128 56.4701 63.2099C56.4701 63.3089 56.4701 63.3089 56.4701 63.4079C56.4701 63.5069 56.4701 63.6059 56.4701 63.705C56.4701 63.804 56.4701 63.903 56.4701 63.903C56.4701 64.002 56.4701 64.101 56.4701 64.101C56.5692 64.3981 56.5692 64.4971 56.5692 64.4971ZM48.6475 50.6342C48.5485 50.6342 48.5485 50.6342 48.6475 50.6342C48.5485 50.6342 48.5485 50.6342 48.6475 50.6342C48.6475 50.6342 48.5485 50.6342 48.6475 50.6342ZM59.1437 57.7637C59.0447 57.8627 59.0447 57.8627 58.9457 57.8627C58.8467 57.8627 58.8467 57.8627 58.7476 57.8627C58.0545 57.6647 57.2623 55.4862 56.9653 54.298C56.8662 54.0009 56.6682 53.5058 56.4701 53.1097C57.5594 53.2087 58.6486 53.2087 59.8369 53.0107C59.6388 55.9813 59.5398 57.3676 59.1437 57.7637ZM67.7586 67.6658C67.5605 67.7648 67.4615 67.8638 67.2635 67.9629C67.2635 67.9629 67.2635 67.9629 67.1644 67.9629C67.0654 68.0619 66.9664 68.0619 66.8674 68.0619C66.7684 68.0619 66.7684 68.0619 66.6693 67.9629C66.2732 67.3687 66.4713 64.2991 66.1742 61.5265C66.0752 60.2392 66.0752 58.952 66.1742 57.7637C66.2732 57.8627 66.2732 57.9618 66.3723 57.9618C66.8674 58.5559 67.3625 58.7539 67.8576 58.7539C67.9566 58.7539 68.1546 58.7539 68.2537 58.7539C68.3527 58.7539 68.4517 58.7539 68.5507 58.6549C68.7488 58.5559 68.8478 58.5559 68.8478 58.5559C68.8478 58.5559 67.1644 62.6157 71.8184 62.2197C71.8184 63.0118 72.6106 63.4079 73.3038 63.5069C71.2243 64.8932 69.5409 66.2795 68.3527 67.1707C68.1547 67.4678 67.9566 67.5668 67.7586 67.6658ZM73.7989 67.0717C74.0959 66.5766 74.393 66.0815 74.69 65.5864C74.8881 66.0815 75.1852 66.5766 75.6803 66.8737C74.9871 67.0717 74.294 67.1707 73.7989 67.0717Z" fill="white"/>
</g>
<path d="M12.1086 55.6841C9.93018 58.0607 12.5047 58.1597 13.1979 58.3577C11.6135 61.1303 13.1979 63.3088 15.5744 62.1205C14.8812 64.9921 19.0401 63.2098 19.0401 63.2098C18.7431 65.0912 20.1294 66.6755 21.9117 67.3687H22.0108C22.2088 67.4677 22.3078 67.4677 22.5059 67.5667C22.6049 67.5667 22.6049 67.5667 22.7039 67.5667C22.902 67.5667 23.001 67.6657 23.199 67.6657C23.298 67.6657 23.298 67.6657 23.3971 67.6657C23.4961 67.6657 23.6941 67.6657 23.7931 67.6657C23.8922 67.6657 23.9912 67.6657 24.0902 67.6657C24.1892 67.6657 24.2883 67.6657 24.4863 67.6657C24.5853 67.6657 24.6843 67.6657 24.7834 67.5667C24.8824 67.5667 24.9814 67.5667 25.0804 67.4677C25.1794 67.4677 25.2785 67.3687 25.3775 67.2696C25.4765 67.2696 25.4765 67.1706 25.5755 67.1706C25.6746 67.0716 25.7736 66.9726 25.9716 66.8736L26.0706 66.7745C26.1697 66.6755 26.3677 66.4775 26.4667 66.2794C27.0608 69.151 29.8334 67.5667 29.8334 67.5667C29.8334 67.7647 29.9325 67.9628 30.0315 68.1608C29.5364 68.1608 27.655 68.2598 27.556 70.4383C27.3579 73.0128 30.5266 73.3099 30.5266 73.3099C30.5266 73.3099 30.1305 73.607 29.8334 74.0031C29.7344 74.1021 29.6354 74.2011 29.6354 74.3991C29.6354 74.3991 29.6354 74.3991 29.6354 74.4982V74.5972V74.6962V74.7952V74.8942V74.9933V75.0923C29.6354 75.0923 29.6354 75.1913 29.7344 75.1913C29.7344 75.1913 29.8334 75.2903 29.8334 75.3894L29.9325 75.4884C29.9325 75.5874 30.0315 75.5874 30.1305 75.6864L30.2295 75.7855C30.3285 75.8845 30.5266 75.9835 30.6256 76.0825C29.7344 76.7757 30.5266 78.7561 33.2992 78.36C33.1011 79.2512 34.7845 79.5483 35.3786 78.459C35.7747 79.5483 38.0522 80.1424 39.4385 79.2512C39.8346 80.1424 41.2209 79.8453 41.815 78.8551C42.8052 80.0434 47.0631 80.9345 47.3602 77.8649C47.5582 77.8649 47.7563 77.8649 48.0533 77.8649C48.1524 77.8649 48.1524 77.8649 48.2514 77.8649C48.4494 77.8649 48.6475 77.8649 48.8455 77.9639C48.9445 77.9639 49.0436 77.9639 49.2416 78.0629C49.2416 78.0629 49.2416 78.0629 49.3406 78.0629C49.5387 78.0629 49.8357 78.162 50.0338 78.162C50.2318 78.162 50.3308 78.261 50.5289 78.261C51.4201 78.459 52.3113 78.8551 53.2024 79.2512C53.2024 79.2512 53.2024 79.2512 53.3015 79.2512C53.5985 79.3502 53.8956 79.5483 54.0936 79.7463C54.9848 80.3404 55.777 81.0336 56.1731 81.9248C56.2721 82.1228 56.3711 82.2218 56.3711 82.4199C56.7672 83.4101 57.1633 84.9944 57.4604 86.8758C57.5594 87.3709 57.5594 87.767 57.6584 88.2621C57.6584 88.3611 57.6584 88.5592 57.7574 88.6582C57.7574 89.0543 57.8564 89.3513 57.8564 89.7474C57.8564 89.9455 57.8564 90.0445 57.9555 90.2425C57.9555 90.7376 58.0545 91.2327 58.0545 91.7279C58.0545 91.8269 58.0545 92.0249 58.0545 92.124C58.0545 92.5201 58.0545 92.9161 58.1535 93.3122C58.1535 93.5102 58.1535 93.7083 58.1535 93.9063C58.1535 94.3024 58.1535 94.5995 58.1535 94.9956C58.1535 95.1936 58.1535 95.2926 58.1535 95.4907C58.1535 95.9858 58.1535 96.4809 58.1535 96.976C58.1535 97.174 58.1535 97.2731 58.1535 97.4711C58.1535 97.8672 58.1535 98.1643 58.0545 98.5603C58.0545 98.7584 58.0545 98.8574 58.0545 99.0555C57.9555 99.5506 57.9555 100.046 57.8564 100.442C57.8564 100.442 57.6584 101.63 62.7085 101.432C67.7586 101.234 70.3331 100.937 69.838 99.6496C69.3429 98.3623 68.3527 95.7877 68.0556 93.8073C67.7586 91.8269 66.6693 85.3905 66.9664 80.3404C67.2635 75.2903 69.838 70.8344 73.7989 69.4481C74.9871 69.052 76.0763 68.7549 77.1656 68.4579C78.4529 70.0422 81.9186 70.7354 83.1069 68.755C83.701 69.5471 84.6912 68.4579 84.6912 68.4579C84.6912 69.5471 86.6716 70.0422 88.355 68.6559C89.6423 71.4285 97.3659 71.9236 95.6825 65.8833C97.2669 66.2794 98.0591 65.2892 97.663 64.497C98.7522 65.3882 100.337 64.0019 98.6532 62.4176C102.416 63.7049 105.09 59.744 104.396 58.0606C104.297 57.8626 104.198 57.7636 104.099 57.5655C104.099 57.5655 104.099 57.4665 104 57.4665C103.901 57.3675 103.802 57.2685 103.703 57.0704L103.604 56.9714C103.505 56.8724 103.307 56.7734 103.208 56.6744L103.109 56.5753C103.01 56.4763 102.911 56.4763 102.713 56.3773C102.614 56.3773 102.614 56.2783 102.515 56.2783C102.416 56.2783 102.317 56.1793 102.218 56.1793C102.119 56.1793 102.119 56.1792 102.02 56.0802C101.921 56.0802 101.822 55.9812 101.624 55.9812C101.525 55.9812 101.525 55.9812 101.426 55.8822C101.327 55.8822 101.228 55.8822 101.228 55.7832C101.129 55.7832 101.03 55.7832 101.03 55.6841H100.931C100.832 55.6841 100.832 55.6841 100.832 55.6841C100.832 55.6841 104.297 53.1096 100.436 51.1292C101.03 50.337 101.228 49.0497 100.733 47.9605C100.733 47.9605 100.733 47.8615 100.634 47.8615C100.535 47.7625 100.535 47.6634 100.436 47.4654L100.337 47.3664C100.238 47.2673 100.138 47.1683 100.039 47.0693C99.9405 47.0693 99.9405 46.9703 99.8414 46.9703C99.7424 46.8713 99.6434 46.7722 99.5444 46.7722C99.4454 46.7722 99.4454 46.6732 99.3463 46.6732C99.2473 46.5742 99.1483 46.5742 98.9502 46.4752C98.8512 46.4752 98.7522 46.3762 98.6532 46.3762C98.5542 46.3762 98.3561 46.2771 98.1581 46.2771C98.0591 46.2771 97.96 46.2771 97.861 46.1781C97.663 46.1781 97.4649 46.1781 97.2669 46.1781C97.1679 46.1781 97.0688 46.1781 96.9698 46.1781C96.7718 46.1781 96.4747 46.1781 96.1777 46.2771C96.0786 46.2771 95.9796 46.2771 95.8806 46.2771C95.4845 46.3762 95.0884 46.3762 94.6923 46.4752C94.4943 45.9801 93.9002 45.782 93.9002 45.782C95.4845 44.9899 93.207 41.6231 89.5432 43.9006C89.4442 43.5045 89.3452 43.2075 89.2462 42.9104C92.6129 43.9996 100.931 37.8603 94.4943 32.7112C97.663 29.5425 95.5835 22.9081 89.0481 22.413C89.5432 21.4228 88.1569 21.0267 88.1569 21.0267C88.1569 21.0267 89.4442 15.9766 83.701 15.1845C83.602 14.4913 83.1069 13.5011 83.1069 13.5011C83.1069 13.5011 83.3049 8.64908 79.344 6.8667C79.146 6.76768 78.8489 6.66865 78.6509 6.56963C78.5519 6.56963 78.5519 6.56963 78.4529 6.47061C78.2548 6.47061 78.1558 6.37159 77.9577 6.37159C77.8587 6.37159 77.8587 6.37159 77.7597 6.37159C77.5617 6.37159 77.4626 6.27257 77.2646 6.27257H77.1656C76.9675 6.27257 76.7695 6.27257 76.5714 6.27257C76.4724 6.27257 76.4724 6.27257 76.3734 6.27257C76.2744 6.27257 76.0763 6.27257 75.9773 6.27257C75.8783 6.27257 75.8783 6.27257 75.7793 6.27257C75.6803 6.27257 75.4822 6.27257 75.3832 6.37159H75.2842C73.6008 6.76768 72.5116 7.85691 72.5116 7.85691C71.3233 5.57942 68.9468 6.66865 68.9468 6.66865C68.5507 4.29214 65.7781 3.20291 64.3918 5.48039C64.3918 5.48039 63.0055 2.01466 59.8369 4.29214C58.0545 2.41074 54.9848 3.40096 54.2917 4.39117C54.5887 0.826407 46.271 0.925422 46.667 6.76767C44.4886 5.9755 43.1023 7.16375 42.7062 8.45103C41.4189 6.47061 40.0326 9.83734 40.0326 9.83734C36.7649 6.96572 31.3188 12.907 36.2698 16.6698C33.5962 17.1649 34.9825 19.3434 34.9825 19.3434C32.7051 18.6502 32.9031 20.6306 32.9031 20.6306C29.6354 19.7395 26.3677 23.7003 31.5168 27.6612C28.8432 28.2553 29.3383 30.9288 30.4276 31.2259C27.952 31.3249 29.4374 34.2956 30.9227 34.5926C30.2295 34.8897 29.8334 35.2858 29.5364 35.5829C29.4374 35.5829 29.4374 35.5829 29.3383 35.5829C29.2393 35.5829 29.1403 35.5829 29.0413 35.5829C28.9423 35.5829 28.9423 35.5829 28.8432 35.5829C28.7442 35.5829 28.6452 35.5829 28.4471 35.5829H28.3481C28.2491 35.5829 28.1501 35.5828 27.952 35.6819H27.853C26.6648 35.9789 25.5755 36.9692 25.4765 38.0584C23.8922 34.5926 15.7724 35.9789 17.1587 41.9202C14.4852 40.93 13.891 42.9104 14.0891 44.0987C11.5145 42.8114 7.85073 46.8713 11.6135 49.8419C8.93997 51.7233 9.93018 55.5851 12.1086 55.6841ZM57.0643 76.7757C57.0643 76.9737 57.0643 77.2708 57.0643 77.4688C57.0643 77.5678 57.0643 77.6668 57.0643 77.8649C57.0643 78.1619 57.0643 78.459 57.1633 78.6571C57.4604 80.4395 56.8662 80.7365 55.876 79.9443C54.8858 79.0531 53.1034 77.3698 51.6181 76.3796C51.321 76.1815 51.024 75.8845 50.6279 75.5874C50.6279 75.3894 50.7269 75.2903 50.6279 75.0923C50.6279 75.0923 53.2024 73.9041 52.5093 71.6266C51.8162 69.3491 48.4494 69.8442 47.8553 70.1412C48.7465 68.0618 46.8651 67.1706 45.8749 67.5667C45.8749 66.8735 45.4788 66.8735 45.1817 66.9726C45.3798 66.4774 45.1817 65.9823 44.7856 65.5863C44.6866 65.4872 44.6866 65.4873 44.5876 65.3882C44.5876 65.3882 44.5876 65.3882 44.4886 65.3882C44.3896 65.3882 44.3896 65.2892 44.2905 65.2892C44.2905 65.2892 44.1915 65.2892 44.1915 65.1902C44.1915 65.1902 44.0925 65.1902 44.0925 65.0912C43.9935 65.0912 43.9935 65.0912 43.8945 64.9921H43.7954C43.6964 64.9921 43.5974 64.9921 43.5974 64.9921C43.4984 64.9921 43.3993 64.9921 43.3003 64.9921C43.2013 64.9921 43.1023 64.9921 43.0033 65.0912C42.8052 65.1902 42.6072 65.2892 42.4091 65.3882C42.3101 65.4873 42.2111 65.4872 42.1121 65.5863C42.1121 65.5863 42.1121 65.5863 42.0131 65.6853C42.0131 65.6853 41.914 65.6853 41.914 65.5863C41.914 65.5863 41.914 65.5863 41.914 65.4872C41.914 65.3882 42.0131 65.2892 42.0131 65.2892V65.1902C42.0131 65.0912 42.0131 64.9922 42.0131 64.8931V64.7941C42.0131 64.6951 42.0131 64.5961 41.914 64.497C43.6964 65.0912 45.7759 64.2 46.8651 62.6156C48.8455 64.1009 50.5289 65.3882 51.9152 66.2794C54.3907 67.8638 55.777 70.4383 56.3711 72.2207C57.0643 73.3099 57.0643 75.1913 57.0643 76.7757ZM62.3124 59.546C62.3124 59.546 62.3124 59.645 62.3124 59.546C62.1144 59.744 62.1144 59.843 62.0153 59.843C62.0153 59.843 62.0153 59.843 61.9163 59.843C61.8173 59.843 61.8173 59.9421 61.7183 59.9421C61.0251 60.0411 61.2232 56.5754 61.4212 53.5057C62.3124 53.2086 63.2036 52.8125 63.7977 52.4165C63.9958 53.3076 64.4909 53.9018 65.085 54.3969C64.1938 56.5753 63.1046 58.6548 62.3124 59.546ZM56.5692 65.4872C56.5692 65.5863 56.5692 65.5863 56.4701 65.6853C56.4701 65.7843 56.3711 65.7843 56.3711 65.7843C56.3711 65.7843 56.3711 65.8833 56.2721 65.8833C56.1731 65.8833 56.0741 65.9824 55.975 65.8833C54.9848 65.6853 51.024 63.5068 49.3406 61.8235C48.6475 61.2293 48.1524 60.6352 47.6573 60.1401C47.6573 59.9421 47.6573 59.843 47.6573 59.645C47.6573 59.645 54.1927 57.9616 50.0338 53.7037C50.1328 53.3076 50.1328 53.0106 49.9347 52.7135C50.925 52.8125 52.1132 52.1194 52.7073 51.7233C54.3907 54.6939 55.3809 57.7636 55.876 60.6352C55.975 61.3284 56.0741 62.0215 56.1731 62.6156C56.1731 62.7147 56.1731 62.8137 56.2721 62.9127C56.2721 63.0117 56.2721 63.2098 56.3711 63.3088C56.4701 63.6059 56.4701 63.9029 56.4701 64.2C56.4701 64.299 56.4701 64.299 56.4701 64.398C56.4701 64.4971 56.4701 64.5961 56.4701 64.6951C56.4701 64.7941 56.4701 64.8931 56.4701 64.8931C56.4701 64.9922 56.4701 65.0912 56.4701 65.0912C56.5692 65.3882 56.5692 65.4872 56.5692 65.4872ZM48.6475 51.6243C48.5485 51.6243 48.5485 51.6243 48.6475 51.6243C48.5485 51.6243 48.5485 51.6243 48.6475 51.6243C48.6475 51.6243 48.5485 51.6243 48.6475 51.6243ZM59.1437 58.7538C59.0447 58.8528 59.0447 58.8528 58.9457 58.8528C58.8467 58.8528 58.8467 58.8528 58.7476 58.8528C58.0545 58.6548 57.2623 56.4763 56.9653 55.2881C56.8662 54.991 56.6682 54.4959 56.4701 54.0998C57.5594 54.1988 58.6486 54.1988 59.8369 54.0008C59.6388 56.9714 59.5398 58.3577 59.1437 58.7538ZM67.7586 68.6559C67.5605 68.7549 67.4615 68.854 67.2635 68.953C67.2635 68.953 67.2635 68.953 67.1644 68.953C67.0654 69.052 66.9664 69.052 66.8674 69.052C66.7684 69.052 66.7684 69.052 66.6693 68.953C66.2732 68.3588 66.4713 65.2892 66.1742 62.5166C66.0752 61.2293 66.0752 59.9421 66.1742 58.7538C66.2732 58.8528 66.2732 58.9519 66.3723 58.9519C66.8674 59.546 67.3625 59.744 67.8576 59.744C67.9566 59.744 68.1546 59.744 68.2537 59.744C68.3527 59.744 68.4517 59.744 68.5507 59.645C68.7488 59.546 68.8478 59.546 68.8478 59.546C68.8478 59.546 67.1644 63.6059 71.8184 63.2098C71.8184 64.0019 72.6106 64.398 73.3038 64.497C71.2243 65.8833 69.5409 67.2696 68.3527 68.1608C68.1547 68.4579 67.9566 68.5569 67.7586 68.6559ZM73.7989 68.0618C74.0959 67.5667 74.393 67.0716 74.69 66.5765C74.8881 67.0716 75.1852 67.5667 75.6803 67.8638C74.9871 68.0618 74.294 68.1608 73.7989 68.0618Z" fill="#CBCDD5"/>
<defs>
<filter id="filter0_dd" x="0" y="0" width="114.506" height="119.464" filterUnits="userSpaceOnUse" color-interpolation-filters="sRGB">
<feFlood flood-opacity="0" result="BackgroundImageFix"/>
<feColorMatrix in="SourceAlpha" type="matrix" values="0 0 0 0 0 0 0 0 0 0 0 0 0 0 0 0 0 0 127 0"/>
<feOffset dy="9"/>
<feGaussianBlur stdDeviation="5"/>
<feColorMatrix type="matrix" values="0 0 0 0 0 0 0 0 0 0 0 0 0 0 0 0 0 0 0.05 0"/>
<feBlend mode="normal" in2="BackgroundImageFix" result="effect1_dropShadow"/>
<feColorMatrix in="SourceAlpha" type="matrix" values="0 0 0 0 0 0 0 0 0 0 0 0 0 0 0 0 0 0 127 0"/>
<feOffset dx="-1" dy="-1"/>
<feColorMatrix type="matrix" values="0 0 0 0 1 0 0 0 0 1 0 0 0 0 1 0 0 0 1 0"/>
<feBlend mode="normal" in2="effect1_dropShadow" result="effect2_dropShadow"/>
<feBlend mode="normal" in="SourceGraphic" in2="effect2_dropShadow" result="shape"/>
</filter>
</defs>
</svg>
