<svg width="107" height="146" viewBox="0 0 107 146" fill="none" xmlns="http://www.w3.org/2000/svg">
<g filter="url(#filter0_dd)">
<path d="M94.9924 85.4313C95.2214 85.126 95.4504 84.8207 95.4504 84.439C95.4504 83.4468 94.5344 82.9125 93.7712 82.6072C92.8553 82.1493 91.9394 81.9203 91.0235 81.6913C90.7181 81.4623 90.4892 81.2333 90.2602 81.0807C90.4892 81.0807 90.6418 81.0807 90.8708 81.0044C91.5577 80.928 91.863 79.9358 91.4814 79.4015C90.8708 78.4093 90.0312 77.7987 89.039 77.3407C89.039 76.6538 88.6573 75.9668 87.8941 75.6615C86.9018 75.2036 85.6043 75.2799 84.5357 75.2799C84.4594 75.2799 84.4594 75.2799 84.3831 75.2799C83.7725 74.9746 83.2382 74.6693 82.7039 74.364C82.5513 74.2113 82.3986 74.0587 82.246 73.906C82.3986 73.9824 82.5513 74.0587 82.7039 74.135C83.5435 74.4403 84.0778 73.7534 84.0015 73.0665C84.6884 72.5322 84.841 71.7689 84.6884 70.9293C86.0623 71.0056 87.1308 70.4714 86.5965 68.5632C86.0623 66.5024 84.7647 64.6706 83.3145 63.0677C83.9251 62.6861 84.3068 61.9992 84.0015 61.3122C83.9251 61.1596 83.8488 61.0069 83.6962 60.8543C84.9937 60.6253 85.6043 60.1673 85.6806 59.4804C90.0312 58.4118 84.6121 53.6033 82.4749 51.9241C82.5513 51.8478 82.5513 51.8478 82.6276 51.7715C83.3145 50.8556 82.7039 49.9397 82.017 49.2527C80.9484 48.2605 79.4982 47.7262 78.2007 47.1919C77.6664 46.9629 77.1321 46.734 76.5978 46.4287C77.1321 46.4287 77.6664 46.047 77.6664 45.4364C77.6664 44.7495 77.5137 44.1389 77.2848 43.5283C77.5901 43.5283 77.8954 43.4519 78.2007 43.223C79.0403 42.6887 79.2692 41.6201 79.0403 40.7042C78.6586 39.025 76.9795 37.4985 75.3766 36.2773C76.6741 36.1246 77.2084 35.5904 77.1321 34.9797C81.9407 34.1402 74.3844 28.6447 74.3844 28.6447C73.3921 27.9577 72.3999 27.0418 71.4077 26.0496C71.7893 25.8969 72.0183 25.5916 72.2472 25.21C72.6289 24.2178 72.0183 23.5308 71.3313 22.9202C68.9652 20.9358 66.6754 19.0276 64.462 16.9668C64.9963 16.8141 65.3779 16.4325 65.5305 15.8219C65.7595 14.6007 64.5383 13.8374 63.7751 13.2268C61.8669 11.5476 59.6534 9.71582 57.8216 7.65502C56.6767 5.74686 55.9135 4.60197 55.9135 4.60197C55.2265 2.84647 54.6159 1.70158 53.471 1.01465C52.4025 1.70158 51.7919 2.84647 51.0286 4.60197C51.0286 4.60197 50.2653 5.82319 49.1204 7.65502C47.2123 9.71582 44.9988 11.5476 43.167 13.2268C42.4038 13.9138 41.1825 14.677 41.4115 15.8219C41.5642 16.4325 41.9458 16.8141 42.4801 16.9668C40.2666 19.0276 37.9768 20.9358 35.6107 22.9202C34.9238 23.5308 34.3132 24.2178 34.6948 25.21C34.8475 25.5916 35.1528 25.8969 35.5344 26.0496C34.5422 27.0418 33.4736 27.9577 32.5577 28.6447C32.5577 28.6447 25.0014 34.1402 29.81 34.9797C29.81 35.5904 30.2679 36.1246 31.5655 36.2773C29.9626 37.4985 28.2834 39.025 27.9018 40.7042C27.6728 41.6201 27.9781 42.6887 28.7414 43.223C29.0467 43.4519 29.352 43.5283 29.6573 43.5283C29.4283 44.0625 29.2757 44.7495 29.2757 45.4364C29.2757 46.1234 29.81 46.4287 30.3442 46.4287C29.81 46.6576 29.2757 46.9629 28.7414 47.1919C27.3675 47.7262 25.9936 48.2605 24.9251 49.2527C24.2381 49.8633 23.6275 50.8556 24.3145 51.7715C24.3908 51.8478 24.3908 51.8478 24.4671 51.9241C22.33 53.6033 16.9109 58.4118 21.2614 59.4804C21.4141 60.091 22.0247 60.6253 23.2459 60.8543C23.0933 61.0069 23.0169 61.1596 22.9406 61.3122C22.6353 61.9992 23.0169 62.7624 23.6275 63.0677C22.1773 64.7469 20.8798 66.5024 20.3455 68.5632C19.8876 70.4714 20.9561 71.0056 22.2537 70.9293C22.101 71.7689 22.2537 72.5322 22.9406 73.0665C22.8643 73.7534 23.3986 74.4403 24.2381 74.135C24.3908 74.0587 24.5435 73.9824 24.6961 73.906C24.5435 74.0587 24.3908 74.2113 24.2381 74.364C23.7039 74.6693 23.0933 74.9746 22.559 75.2799C22.4826 75.2799 22.4827 75.2799 22.4063 75.2799C21.3378 75.2799 20.0402 75.1273 19.048 75.6615C18.2847 76.0432 17.9031 76.7301 17.9031 77.3407C16.9108 77.7987 16.1476 78.4093 15.4607 79.4015C15.079 79.9358 15.4607 80.8517 16.0713 81.0044C16.3002 81.0044 16.4529 81.0807 16.6819 81.0807C16.4529 81.2333 16.2239 81.4623 15.9186 81.6913C15.0027 81.9203 14.0868 82.2256 13.1709 82.6072C12.4076 82.9888 11.4917 83.5231 11.4917 84.439C11.4917 84.8207 11.7207 85.126 11.9497 85.4313C9.96518 87.7211 8.89661 90.0872 11.7207 91.0031C12.026 91.7663 12.9419 92.3769 14.85 92.6059C14.3921 93.1402 14.0105 93.6745 14.3158 94.4377C14.6211 95.201 15.2317 95.43 15.8423 95.43C13.3999 99.3226 10.8048 104.513 14.3158 105.123C14.6974 106.421 16.1476 106.879 19.4296 105.963C19.5823 106.65 20.1165 107.184 21.2614 107.108C22.788 107.032 24.2381 105.429 25.3067 104.513C25.6883 104.207 26.07 103.979 26.5279 103.673C26.1463 104.284 25.7647 104.971 25.612 105.581C25.383 106.65 25.9173 107.337 26.6806 107.49C26.3753 110.466 26.5279 113.061 28.3598 112.756C28.894 114.588 30.4206 114.817 33.9316 111.229C34.1605 111.458 34.5422 111.611 34.9238 111.687C36.4503 111.916 37.3662 110.314 38.0532 109.169C38.4348 108.482 38.8164 107.795 39.1981 107.108C39.427 110.772 40.0376 114.969 41.8695 114.588C42.8617 116.878 44.6172 116.725 47.8992 109.779C48.1282 110.619 49.0441 111.382 49.7311 111.611C49.7311 111.687 50.3417 111.687 50.3417 111.764V126.037H58.7375V111.764C58.7375 111.687 58.4322 111.687 58.4322 111.611C59.1192 111.306 59.3481 110.543 59.5771 109.779C62.8591 116.725 64.5383 116.878 65.5305 114.588C67.3624 114.969 67.973 110.772 68.1256 107.108C68.4309 107.795 68.8126 108.482 69.1942 109.169C69.8811 110.237 70.797 111.84 72.3236 111.687C72.7815 111.611 73.0868 111.458 73.3158 111.229C76.9031 114.817 78.4296 114.588 78.8876 112.756C80.7194 113.061 80.8721 110.39 80.5668 107.49C81.33 107.337 81.8643 106.65 81.6353 105.581C81.4827 104.971 81.1011 104.284 80.7194 103.673C81.1774 103.979 81.559 104.207 81.9407 104.513C83.0092 105.429 84.4594 106.955 85.9859 107.108C87.1308 107.184 87.6651 106.726 87.8178 105.963C91.0998 106.955 92.55 106.421 92.9316 105.123C96.4426 104.589 93.8475 99.3226 91.4051 95.43C92.092 95.43 92.7026 95.201 92.9316 94.4377C93.1606 93.6745 92.8553 93.1402 92.3973 92.6059C94.2291 92.3769 95.2214 91.8427 95.5267 91.0031C98.0454 90.0872 96.9769 87.7211 94.9924 85.4313Z" fill="white"/>
</g>
<path d="M94.9924 86.1945C95.2214 85.8892 95.4504 85.5839 95.4504 85.2023C95.4504 84.21 94.5344 83.6758 93.7712 83.3705C92.8553 82.9125 91.9394 82.6835 91.0235 82.4545C90.7181 82.2256 90.4892 81.9966 90.2602 81.8439C90.4892 81.8439 90.6418 81.8439 90.8708 81.7676C91.5577 81.6913 91.863 80.699 91.4814 80.1648C90.8708 79.1725 90.0312 78.5619 89.039 78.104C89.039 77.417 88.6573 76.7301 87.8941 76.4248C86.9018 75.9668 85.6043 76.0432 84.5357 76.0432C84.4594 76.0432 84.4594 76.0432 84.3831 76.0432C83.7725 75.7378 83.2382 75.4325 82.7039 75.1272C82.5513 74.9746 82.3986 74.8219 82.246 74.6693C82.3986 74.7456 82.5513 74.8219 82.7039 74.8983C83.5435 75.2036 84.0778 74.5166 84.0015 73.8297C84.6884 73.2954 84.841 72.5322 84.6884 71.6926C86.0623 71.7689 87.1308 71.2346 86.5965 69.3265C86.0623 67.2657 84.7647 65.4338 83.3145 63.831C83.9251 63.4494 84.3068 62.7624 84.0015 62.0755C83.9251 61.9228 83.8488 61.7702 83.6962 61.6175C84.9937 61.3885 85.6043 60.9306 85.6806 60.2437C90.0312 59.1751 84.6121 54.3665 82.4749 52.6874C82.5513 52.611 82.5513 52.611 82.6276 52.5347C83.3145 51.6188 82.7039 50.7029 82.017 50.016C80.9484 49.0237 79.4982 48.4894 78.2007 47.9552C77.6664 47.7262 77.1321 47.4972 76.5978 47.1919C77.1321 47.1919 77.6664 46.8103 77.6664 46.1997C77.6664 45.5127 77.5137 44.9021 77.2848 44.2915C77.5901 44.2915 77.8954 44.2152 78.2007 43.9862C79.0403 43.4519 79.2692 42.3834 79.0403 41.4674C78.6586 39.7883 76.9795 38.2617 75.3766 37.0405C76.6741 36.8879 77.2084 36.3536 77.1321 35.743C81.9407 34.9034 74.3844 29.4079 74.3844 29.4079C73.3921 28.721 72.3999 27.8051 71.4077 26.8128C71.7893 26.6602 72.0183 26.3549 72.2472 25.9733C72.6289 24.981 72.0183 24.2941 71.3313 23.6835C68.9652 21.699 66.6754 19.7908 64.462 17.73C64.9963 17.5774 65.3779 17.1958 65.5305 16.5851C65.7595 15.3639 64.5383 14.6007 63.7751 13.9901C61.8669 12.3109 59.6534 10.4791 57.8216 8.41826C56.6767 6.51011 55.9135 5.36522 55.9135 5.36522C55.2265 3.60972 54.6159 2.46483 53.471 1.77789C52.4025 2.46483 51.7919 3.60972 51.0286 5.36522C51.0286 5.36522 50.2653 6.58643 49.1204 8.41826C47.2123 10.4791 44.9988 12.3109 43.167 13.9901C42.4038 14.677 41.1825 15.4403 41.4115 16.5851C41.5642 17.1958 41.9458 17.5774 42.4801 17.73C40.2666 19.7908 37.9768 21.699 35.6107 23.6835C34.9238 24.2941 34.3132 24.981 34.6948 25.9733C34.8475 26.3549 35.1528 26.6602 35.5344 26.8128C34.5422 27.8051 33.4736 28.721 32.5577 29.4079C32.5577 29.4079 25.0014 34.9034 29.81 35.743C29.81 36.3536 30.2679 36.8879 31.5655 37.0405C29.9626 38.2617 28.2834 39.7883 27.9018 41.4674C27.6728 42.3834 27.9781 43.4519 28.7414 43.9862C29.0467 44.2152 29.352 44.2915 29.6573 44.2915C29.4283 44.8258 29.2757 45.5127 29.2757 46.1997C29.2757 46.8866 29.81 47.1919 30.3442 47.1919C29.81 47.4209 29.2757 47.7262 28.7414 47.9552C27.3675 48.4894 25.9936 49.0237 24.9251 50.016C24.2381 50.6266 23.6275 51.6188 24.3145 52.5347C24.3908 52.611 24.3908 52.611 24.4671 52.6874C22.33 54.3665 16.9109 59.1751 21.2614 60.2437C21.4141 60.8543 22.0247 61.3885 23.2459 61.6175C23.0933 61.7702 23.0169 61.9228 22.9406 62.0755C22.6353 62.7624 23.0169 63.5257 23.6275 63.831C22.1773 65.5102 20.8798 67.2657 20.3455 69.3265C19.8876 71.2346 20.9561 71.7689 22.2537 71.6926C22.101 72.5322 22.2537 73.2954 22.9406 73.8297C22.8643 74.5166 23.3986 75.2036 24.2381 74.8983C24.3908 74.8219 24.5435 74.7456 24.6961 74.6693C24.5435 74.8219 24.3908 74.9746 24.2381 75.1272C23.7039 75.4325 23.0933 75.7378 22.559 76.0432C22.4826 76.0432 22.4827 76.0432 22.4063 76.0432C21.3378 76.0432 20.0402 75.8905 19.048 76.4248C18.2847 76.8064 17.9031 77.4933 17.9031 78.104C16.9108 78.5619 16.1476 79.1725 15.4607 80.1648C15.079 80.699 15.4607 81.615 16.0713 81.7676C16.3002 81.7676 16.4529 81.8439 16.6819 81.8439C16.4529 81.9966 16.2239 82.2256 15.9186 82.4545C15.0027 82.6835 14.0868 82.9888 13.1709 83.3705C12.4076 83.7521 11.4917 84.2864 11.4917 85.2023C11.4917 85.5839 11.7207 85.8892 11.9497 86.1945C9.96518 88.4843 8.89661 90.8504 11.7207 91.7663C12.026 92.5296 12.9419 93.1402 14.85 93.3692C14.3921 93.9035 14.0105 94.4377 14.3158 95.201C14.6211 95.9643 15.2317 96.1932 15.8423 96.1932C13.3999 100.086 10.8048 105.276 14.3158 105.887C14.6974 107.184 16.1476 107.642 19.4296 106.726C19.5823 107.413 20.1165 107.947 21.2614 107.871C22.788 107.795 24.2381 106.192 25.3067 105.276C25.6883 104.971 26.07 104.742 26.5279 104.436C26.1463 105.047 25.7647 105.734 25.612 106.345C25.383 107.413 25.9173 108.1 26.6806 108.253C26.3753 111.229 26.5279 113.825 28.3598 113.519C28.894 115.351 30.4206 115.58 33.9316 111.993C34.1605 112.222 34.5422 112.374 34.9238 112.451C36.4503 112.68 37.3662 111.077 38.0532 109.932C38.4348 109.245 38.8164 108.558 39.1981 107.871C39.427 111.535 40.0376 115.733 41.8695 115.351C42.8617 117.641 44.6172 117.488 47.8992 110.543C48.1282 111.382 49.0441 112.145 49.7311 112.374C49.7311 112.451 50.3417 112.451 50.3417 112.527V126.8H58.7375V112.527C58.7375 112.451 58.4322 112.451 58.4322 112.374C59.1192 112.069 59.3481 111.306 59.5771 110.543C62.8591 117.488 64.5383 117.641 65.5305 115.351C67.3624 115.733 67.973 111.535 68.1256 107.871C68.4309 108.558 68.8126 109.245 69.1942 109.932C69.8811 111 70.797 112.603 72.3236 112.451C72.7815 112.374 73.0868 112.222 73.3158 111.993C76.9031 115.58 78.4296 115.351 78.8876 113.519C80.7194 113.825 80.8721 111.153 80.5668 108.253C81.33 108.1 81.8643 107.413 81.6353 106.345C81.4827 105.734 81.1011 105.047 80.7194 104.436C81.1774 104.742 81.559 104.971 81.9407 105.276C83.0092 106.192 84.4594 107.718 85.9859 107.871C87.1308 107.947 87.6651 107.489 87.8178 106.726C91.0998 107.718 92.55 107.184 92.9316 105.887C96.4426 105.352 93.8475 100.086 91.4051 96.1932C92.092 96.1932 92.7026 95.9643 92.9316 95.201C93.1606 94.4377 92.8553 93.9035 92.3973 93.3692C94.2291 93.1402 95.2214 92.6059 95.5267 91.7663C98.0454 90.8504 96.9769 88.4843 94.9924 86.1945Z" fill="#E4E5EC"/>
<defs>
<filter id="filter0_dd" x="0" y="0.0146484" width="107" height="145.022" filterUnits="userSpaceOnUse" color-interpolation-filters="sRGB">
<feFlood flood-opacity="0" result="BackgroundImageFix"/>
<feColorMatrix in="SourceAlpha" type="matrix" values="0 0 0 0 0 0 0 0 0 0 0 0 0 0 0 0 0 0 127 0"/>
<feOffset dy="9"/>
<feGaussianBlur stdDeviation="5"/>
<feColorMatrix type="matrix" values="0 0 0 0 0 0 0 0 0 0 0 0 0 0 0 0 0 0 0.05 0"/>
<feBlend mode="normal" in2="BackgroundImageFix" result="effect1_dropShadow"/>
<feColorMatrix in="SourceAlpha" type="matrix" values="0 0 0 0 0 0 0 0 0 0 0 0 0 0 0 0 0 0 127 0"/>
<feOffset dx="-1" dy="-1"/>
<feColorMatrix type="matrix" values="0 0 0 0 1 0 0 0 0 1 0 0 0 0 1 0 0 0 1 0"/>
<feBlend mode="normal" in2="effect1_dropShadow" result="effect2_dropShadow"/>
<feBlend mode="normal" in="SourceGraphic" in2="effect2_dropShadow" result="shape"/>
</filter>
</defs>
</svg>
