<svg width="61" height="108" viewBox="0 0 61 108" fill="none" xmlns="http://www.w3.org/2000/svg">
<g filter="url(#filter0_d)">
<path d="M48.1216 73.0234C48.1216 73.0234 53.0067 71.5518 52.3466 67.204C53.0067 61.5184 45.0189 50.0134 45.0189 50.0134C45.0189 50.0134 49.2439 48.4749 48.5177 43.9264C47.7916 39.3779 38.8795 29.2776 39.3416 29.2107C39.8037 29.1438 41.9822 28.5418 41.7842 23.7258C41.5201 18.9097 30.1655 6 29.4394 6C28.7792 6 17.4246 18.9097 17.1606 23.7258C16.8965 28.5418 19.075 29.0769 19.6031 29.2107C20.0652 29.2776 11.1532 39.4448 10.4271 43.9933C9.70089 48.5418 13.9259 50.0803 13.9259 50.0803C13.9259 50.0803 5.93804 61.5184 6.59819 67.204C5.93804 71.5518 10.8231 73.0234 10.8231 73.0234C10.8231 73.0234 0.854879 84.9967 2.10916 90.5485C3.36345 96.1003 11.2192 95.5652 18.4149 93.8261C22.0457 92.9565 24.7523 92.2876 26.7328 91.8863V106H32.6741V91.9532C34.6546 92.3545 37.2291 92.9565 40.5959 93.8261C47.7915 95.5652 55.6473 96.1003 56.9016 90.5485C58.0899 84.9967 48.1216 73.0234 48.1216 73.0234Z" fill="white"/>
</g>
<path d="M51.4759 71.3762C51.4759 71.3762 56.7163 69.8182 56.0082 65.2152C56.7163 59.1958 48.1476 47.0155 48.1476 47.0155C48.1476 47.0155 52.6798 45.3867 51.9008 40.5712C51.1218 35.7557 41.5617 25.0625 42.0574 24.9916C42.5531 24.9208 44.89 24.2835 44.6776 19.1847C44.3943 14.086 32.2139 0.418457 31.435 0.418457C30.7268 0.418457 18.5464 14.086 18.2632 19.1847C17.9799 24.2835 20.3168 24.85 20.8834 24.9916C21.3791 25.0625 11.8189 35.8265 11.0399 40.642C10.261 45.4575 14.7932 47.0863 14.7932 47.0863C14.7932 47.0863 6.22444 59.1958 6.9326 65.2152C6.22444 69.8182 11.4648 71.3762 11.4648 71.3762C11.4648 71.3762 0.771598 84.0523 2.1171 89.93C3.46261 95.8078 11.8897 95.2412 19.6087 93.4C23.5036 92.4794 26.407 91.7712 28.5315 91.3463V106.289H34.905V91.4172C37.0294 91.842 39.7913 92.4794 43.4029 93.4C51.1218 95.2412 59.549 95.8078 60.8945 89.93C62.1692 84.0523 51.4759 71.3762 51.4759 71.3762Z" fill="#E4E5EC"/>
<defs>
<filter id="filter0_d" x="0" y="4" width="59" height="104" filterUnits="userSpaceOnUse" color-interpolation-filters="sRGB">
<feFlood flood-opacity="0" result="BackgroundImageFix"/>
<feColorMatrix in="SourceAlpha" type="matrix" values="0 0 0 0 0 0 0 0 0 0 0 0 0 0 0 0 0 0 127 0"/>
<feOffset/>
<feGaussianBlur stdDeviation="1"/>
<feColorMatrix type="matrix" values="0 0 0 0 0.475284 0 0 0 0 0.475284 0 0 0 0 0.475284 0 0 0 0.25 0"/>
<feBlend mode="normal" in2="BackgroundImageFix" result="effect1_dropShadow"/>
<feBlend mode="normal" in="SourceGraphic" in2="effect1_dropShadow" result="shape"/>
</filter>
</defs>
</svg>
