<svg width="55" height="70" viewBox="0 0 55 70" fill="none" xmlns="http://www.w3.org/2000/svg">
<g filter="url(#filter0_d)">
<path d="M26.5031 61.1518L42.3355 61.1831C41.7121 57.7948 39.5251 48.417 35.2884 39.9016C30.0285 29.3295 28.6976 26.8918 23.9851 20.0296C23.823 20.8051 23.6159 22.3075 23.3533 24.2126C22.8427 27.9167 22.1221 33.1432 21.1148 37.5105C19.5894 44.1241 14.9372 54.5123 11.6159 61.1223L23.6674 61.1462L23.6616 64.1047L9.48326 64.0767L11.3641 68.9199L39.703 68.976L43.5147 62.367L35.5834 62.3513L34.0448 64.1253L26.4972 64.1103L26.5031 61.1518Z" fill="white"/>
<path d="M26.0294 61.6234L41.8619 61.6547C41.2384 58.2664 39.0514 48.8886 34.8148 40.3732C29.5548 29.8011 28.2239 27.3634 23.5114 20.5012C23.3493 21.2767 23.1422 22.7791 22.8796 24.6842C22.369 28.3883 21.6485 33.6149 20.6411 37.9821C19.1157 44.5957 14.4636 54.984 11.1422 61.594L23.1938 61.6178L23.1879 64.5763L9.0096 64.5483L10.8905 69.3916L39.2293 69.4476L43.041 62.8386L35.1097 62.8229L33.5711 64.5969L26.0236 64.5819L26.0294 61.6234Z" fill="white"/>
</g>
<defs>
<filter id="filter0_d" x="0.00961304" y="0.029541" width="54.5051" height="69.4181" filterUnits="userSpaceOnUse" color-interpolation-filters="sRGB">
<feFlood flood-opacity="0" result="BackgroundImageFix"/>
<feColorMatrix in="SourceAlpha" type="matrix" values="0 0 0 0 0 0 0 0 0 0 0 0 0 0 0 0 0 0 127 0"/>
<feOffset dx="1" dy="-10"/>
<feGaussianBlur stdDeviation="5"/>
<feColorMatrix type="matrix" values="0 0 0 0 0.741176 0 0 0 0 0.74902 0 0 0 0 0.784314 0 0 0 0.3 0"/>
<feBlend mode="normal" in2="BackgroundImageFix" result="effect1_dropShadow"/>
<feBlend mode="normal" in="SourceGraphic" in2="effect1_dropShadow" result="shape"/>
</filter>
</defs>
</svg>
