<svg width="310" height="130" viewBox="0 0 310 130" fill="none" xmlns="http://www.w3.org/2000/svg">
<path d="M13.0933 14.3938C13.7087 14.3938 14.2076 13.8949 14.2076 13.2795C14.2076 12.6641 13.7087 12.1652 13.0933 12.1652C12.4779 12.1652 11.979 12.6641 11.979 13.2795C11.979 13.8949 12.4779 14.3938 13.0933 14.3938Z" fill="#E21A1A" stroke="white" stroke-miterlimit="10"/>
<path d="M0.832 1.336V7H1.696V2.104H1.952C1.952 2.52 1.952 2.52 3.632 7H4.704C6.384 2.52 6.384 2.52 6.384 2.104H6.64V7H7.504V1.336H5.928C4.272 5.752 4.272 5.752 4.272 6.232H4.064C4.064 5.752 4.064 5.752 2.408 1.336H0.832ZM9.69594 4.984C9.69594 3.64 9.69594 3.6 10.9439 3.6C12.1919 3.6 12.1919 3.64 12.1919 4.984C12.1919 6.328 12.1919 6.368 10.9439 6.368C9.69594 6.368 9.69594 6.328 9.69594 4.984ZM8.83194 5.176C8.83194 5.944 8.83194 7.096 10.7519 7.096H11.1359C13.0559 7.096 13.0559 5.944 13.0559 5.176V4.792C13.0559 4.024 13.0559 2.872 11.1359 2.872H10.7519C8.83194 2.872 8.83194 4.024 8.83194 4.792V5.176ZM16.0187 7.096C16.3067 7.096 16.9307 7.096 17.6987 6.904V6.136H17.5067L16.7307 6.328H16.3067C14.9147 6.328 14.9147 6.328 14.9147 4.984C14.9147 3.64 14.9147 3.64 16.0187 3.64C16.9307 3.64 16.9307 3.64 17.1227 4.408L17.8907 4.216C17.8907 3.832 17.8907 2.872 16.2107 2.872H15.8267C14.0507 2.872 14.0507 3.928 14.0507 4.792V5.176C14.0507 6.04 14.0507 7.096 16.0187 7.096ZM23.0571 3.192V2.968H22.1451C21.5691 3.736 21.2331 4.184 21.2331 4.6H19.7931V2.968H18.9771V7H19.7931V5.368H21.2331C21.2331 5.784 21.5691 6.232 22.1451 7H23.0571V6.776L21.7051 4.984L23.0571 3.192ZM24.0943 7H25.9583C26.9183 7 27.8863 7 27.8863 5.992C27.8863 5.656 27.8063 5.224 27.0383 5.032V4.936C27.8063 4.744 27.8063 4.312 27.8063 3.976C27.8063 2.968 26.9183 2.968 25.9583 2.968H24.0943V7ZM26.2543 5.272C26.9663 5.272 26.9743 5.272 26.9743 5.8C26.9743 6.32 26.9743 6.328 26.2543 6.328H24.9103V5.272H26.2543ZM26.1743 3.64C26.8863 3.64 26.8943 3.64 26.8943 4.168C26.8943 4.688 26.8943 4.696 26.1743 4.696H24.9103V3.64H26.1743ZM32.3988 7.096L33.0068 6.64C32.7188 6.256 32.7188 6.256 32.7188 5.464V4.792C32.7188 3.832 32.7188 2.872 30.8468 2.872C30.5588 2.872 29.9348 2.872 29.1668 3.064V3.832H29.3588L30.1268 3.64H30.8468C31.9028 3.64 31.9028 3.64 31.9028 4.648H30.8468C28.8308 4.648 28.8308 5.32 28.8308 5.944C28.8308 6.328 28.8308 7.096 30.2708 7.096C31.2628 7.096 31.7988 6.696 31.9908 6.552L32.3988 7.096ZM29.7428 5.848C29.7428 5.272 29.7428 5.272 30.8468 5.272H31.9028V6.04L30.7508 6.328H30.3188C29.7428 6.328 29.7428 6.328 29.7428 5.848Z" fill="#363636"/>
<path d="M25.9978 11.4822C26.4147 11.4822 26.7526 11.1443 26.7526 10.7274C26.7526 10.3105 26.4147 9.97253 25.9978 9.97253C25.5809 9.97253 25.2429 10.3105 25.2429 10.7274C25.2429 11.1443 25.5809 11.4822 25.9978 11.4822Z" fill="#E21A1A" stroke="white" stroke-miterlimit="10"/>
<path d="M32.528 14.312H30.784C29.632 14.312 29.632 14.312 29.632 13.208C29.632 12.104 29.632 12.104 30.784 12.104H32.528V14.312ZM28.504 16.712V17H29.464C30.04 16.232 30.4 15.752 30.4 15.08H32.528V17H33.392V11.336H31.552C29.632 11.336 28.672 11.336 28.672 13.208C28.672 14.288 28.96 14.504 29.728 15.08L28.504 16.712ZM34.9146 12.968V18.632H35.7306V16.904C36.1146 17 36.4986 17.096 37.2186 17.096C39.0426 17.096 39.0426 15.848 39.0426 15.176V14.792C39.0426 14.024 39.0426 12.872 37.3146 12.872C36.3546 12.872 35.8266 13.272 35.6346 13.416L35.2986 12.968H34.9146ZM38.1786 14.984C38.1786 16.32 38.1786 16.328 36.8826 16.328C36.5946 16.328 36.1146 16.328 35.7306 16.232V13.928L36.8826 13.64H37.0186C38.1786 13.64 38.1786 13.688 38.1786 14.984ZM40.8991 14.984C40.8991 13.64 40.8991 13.6 42.1471 13.6C43.3951 13.6 43.3951 13.64 43.3951 14.984C43.3951 16.328 43.3951 16.368 42.1471 16.368C40.8991 16.368 40.8991 16.328 40.8991 14.984ZM40.0351 15.176C40.0351 15.944 40.0351 17.096 41.9551 17.096H42.3391C44.2591 17.096 44.2591 15.944 44.2591 15.176V14.792C44.2591 14.024 44.2591 12.872 42.3391 12.872H41.9551C40.0351 12.872 40.0351 14.024 40.0351 14.792V15.176ZM47.2218 17.096C47.5098 17.096 48.1338 17.096 48.9018 16.904V16.136H48.7098L47.9338 16.328H47.5098C46.1178 16.328 46.1178 16.328 46.1178 14.984C46.1178 13.64 46.1178 13.64 47.2218 13.64C48.1338 13.64 48.1338 13.64 48.3258 14.408L49.0938 14.216C49.0938 13.832 49.0938 12.872 47.4138 12.872H47.0298C45.2538 12.872 45.2538 13.928 45.2538 14.792V15.176C45.2538 16.04 45.2538 17.096 47.2218 17.096ZM53.2122 13.68V17H54.0282V12.968H50.7722C50.7482 13.8 50.7002 14.488 50.5562 15.528C50.4602 16.224 50.3802 16.36 49.6922 16.36V17.016C50.9882 17.016 51.1242 16.864 51.2842 15.672C51.4042 14.792 51.4602 14.176 51.4762 13.68H53.2122ZM58.7348 17.096L59.3428 16.64C59.0548 16.256 59.0548 16.256 59.0548 15.464V14.792C59.0548 13.832 59.0548 12.872 57.1828 12.872C56.8948 12.872 56.2708 12.872 55.5028 13.064V13.832H55.6948L56.4628 13.64H57.1828C58.2388 13.64 58.2388 13.64 58.2388 14.648H57.1828C55.1668 14.648 55.1668 15.32 55.1668 15.944C55.1668 16.328 55.1668 17.096 56.6068 17.096C57.5988 17.096 58.1348 16.696 58.3268 16.552L58.7348 17.096ZM56.0788 15.848C56.0788 15.272 56.0788 15.272 57.1828 15.272H58.2388V16.04L57.0868 16.328H56.6548C56.0788 16.328 56.0788 16.328 56.0788 15.848ZM60.3833 17H62.2473C63.2073 17 64.1753 17 64.1753 15.992C64.1753 15.656 64.0953 15.224 63.3273 15.032V14.936C64.0953 14.744 64.0953 14.312 64.0953 13.976C64.0953 12.968 63.2073 12.968 62.2473 12.968H60.3833V17ZM62.5433 15.272C63.2553 15.272 63.2633 15.272 63.2633 15.8C63.2633 16.32 63.2633 16.328 62.5433 16.328H61.1993V15.272H62.5433ZM62.4633 13.64C63.1753 13.64 63.1833 13.64 63.1833 14.168C63.1833 14.688 63.1833 14.696 62.4633 14.696H61.1993V13.64H62.4633ZM68.3919 13.68V17H69.2079V12.968H65.9519C65.9279 13.8 65.8799 14.488 65.7359 15.528C65.6399 16.224 65.5599 16.36 64.8719 16.36V17.016C66.1679 17.016 66.3039 16.864 66.4639 15.672C66.5839 14.792 66.6399 14.176 66.6559 13.68H68.3919ZM72.5064 17C73.4664 17 74.3304 17 74.3304 15.656C74.3304 15.176 74.3304 14.216 72.6024 14.216C72.2184 14.216 71.7864 14.264 71.4024 14.36V12.968H70.5864V17H72.5064ZM72.6024 14.984C73.4664 14.984 73.4664 14.984 73.4664 15.656C73.4664 16.328 73.4664 16.328 72.6024 16.328H71.4024V14.984H72.6024Z" fill="#363636"/>
<path d="M48.4633 29.5626C48.8802 29.5626 49.2182 29.2246 49.2182 28.8077C49.2182 28.3908 48.8802 28.0529 48.4633 28.0529C48.0465 28.0529 47.7085 28.3908 47.7085 28.8077C47.7085 29.2246 48.0465 29.5626 48.4633 29.5626Z" fill="#E21A1A" stroke="white" stroke-miterlimit="10"/>
<path d="M55.9475 27.1326V26.9086H55.0675L54.6035 27.5006C53.6675 28.7006 53.5315 29.0446 53.5315 29.2766H51.9475V26.9086H51.0835V32.5726H51.9475V30.0446H53.5315C53.5315 30.2926 53.7475 30.6526 54.6435 31.9566L55.0675 32.5726H56.0275V32.2206L54.1155 29.5966L55.9475 27.1326ZM58.1296 32.5726C60.2176 29.7966 60.2176 29.6526 60.2176 29.2286H60.4256V32.5726H61.2416V28.5406H60.1376C58.0496 31.3166 58.0496 31.4606 58.0496 31.8846H57.8336V28.5406H57.0176V32.5726H58.1296ZM62.6192 28.5406V34.2046H63.4352V32.4766C63.8192 32.5726 64.2032 32.6686 64.9232 32.6686C66.7472 32.6686 66.7472 31.4206 66.7472 30.7486V30.3646C66.7472 29.5966 66.7472 28.4446 65.0192 28.4446C64.0592 28.4446 63.5312 28.8446 63.3392 28.9886L63.0032 28.5406H62.6192ZM65.8832 30.5566C65.8832 31.8926 65.8832 31.9006 64.5872 31.9006C64.2992 31.9006 63.8192 31.9006 63.4352 31.8046V29.5006L64.5872 29.2126H64.7232C65.8832 29.2126 65.8832 29.2606 65.8832 30.5566ZM68.6037 30.5566C68.6037 29.2126 68.6037 29.1726 69.8517 29.1726C71.0997 29.1726 71.0997 29.2126 71.0997 30.5566C71.0997 31.9006 71.0997 31.9406 69.8517 31.9406C68.6037 31.9406 68.6037 31.9006 68.6037 30.5566ZM67.7397 30.7486C67.7397 31.5166 67.7397 32.6686 69.6597 32.6686H70.0437C71.9637 32.6686 71.9637 31.5166 71.9637 30.7486V30.3646C71.9637 29.5966 71.9637 28.4446 70.0437 28.4446H69.6597C67.7397 28.4446 67.7397 29.5966 67.7397 30.3646V30.7486ZM73.1504 32.5726H75.0144C75.9744 32.5726 76.9424 32.5726 76.9424 31.5646C76.9424 31.2286 76.8624 30.7966 76.0944 30.6046V30.5086C76.8624 30.3166 76.8624 29.8846 76.8624 29.5486C76.8624 28.5406 75.9744 28.5406 75.0144 28.5406H73.1504V32.5726ZM75.3104 30.8446C76.0224 30.8446 76.0304 30.8446 76.0304 31.3726C76.0304 31.8926 76.0304 31.9006 75.3104 31.9006H73.9664V30.8446H75.3104ZM75.2304 29.2126C75.9424 29.2126 75.9504 29.2126 75.9504 29.7406C75.9504 30.2606 75.9504 30.2686 75.2304 30.2686H73.9664V29.2126H75.2304Z" fill="#363636"/>
<path d="M61.4397 43.1138C61.8566 43.1138 62.1945 42.7759 62.1945 42.359C62.1945 41.9421 61.8566 41.6041 61.4397 41.6041C61.0228 41.6041 60.6848 41.9421 60.6848 42.359C60.6848 42.7759 61.0228 43.1138 61.4397 43.1138Z" fill="#E21A1A" stroke="white" stroke-miterlimit="10"/>
<path d="M64.084 40.4479V46.1119H64.948V41.2159H68.02V46.1119H68.884V40.4479H64.084ZM72.1769 45.4399C71.0729 45.4399 71.0729 45.4399 71.0729 44.4319H72.1769C73.3289 44.4319 73.5209 44.4319 73.9529 44.3359L74.1449 44.2879V43.9039C74.1449 43.1359 74.1449 41.9839 72.3689 41.9839H71.9849C70.2089 41.9839 70.2089 43.1359 70.2089 43.9039V44.2879C70.2089 45.1519 70.2089 46.2079 72.1769 46.2079C72.5129 46.2079 73.0889 46.2079 73.8569 46.0159V45.2479H73.6649L72.8969 45.4399H72.1769ZM71.0729 43.8079C71.0729 42.7519 71.0729 42.7519 72.1769 42.7519C73.2809 42.7519 73.2809 42.7519 73.2809 43.8079H71.0729ZM75.3306 42.0799V47.7439H76.1466V46.0159C76.5306 46.1119 76.9146 46.2079 77.6346 46.2079C79.4586 46.2079 79.4586 44.9599 79.4586 44.2879V43.9039C79.4586 43.1359 79.4586 41.9839 77.7306 41.9839C76.7706 41.9839 76.2426 42.3839 76.0506 42.5279L75.7146 42.0799H75.3306ZM78.5946 44.0959C78.5946 45.4319 78.5946 45.4399 77.2986 45.4399C77.0106 45.4399 76.5306 45.4399 76.1466 45.3439V43.0399L77.2986 42.7519H77.4346C78.5946 42.7519 78.5946 42.7999 78.5946 44.0959ZM80.6431 42.0799V46.1119H81.4591V42.7999H81.6671C81.6671 42.9919 81.6671 42.9919 82.9151 46.1119H83.9871C85.2351 42.9919 85.2351 42.9919 85.2351 42.7519H85.4431V46.1119H86.2591V42.0799H84.8031C83.5551 45.0799 83.5551 45.0799 83.5551 45.4399H83.3471C83.3471 45.0799 83.3471 45.0799 82.0991 42.0799H80.6431ZM89.5553 46.1119C90.5153 46.1119 91.3793 46.1119 91.3793 44.7679C91.3793 44.2879 91.3793 43.3279 89.6513 43.3279C89.2673 43.3279 88.8353 43.3759 88.4513 43.4719V42.0799H87.6353V46.1119H89.5553ZM89.6513 44.0959C90.5153 44.0959 90.5153 44.0959 90.5153 44.7679C90.5153 45.4399 90.5153 45.4399 89.6513 45.4399H88.4513V44.0959H89.6513Z" fill="#363636"/>
<path d="M68.2331 53.1068C68.65 53.1068 68.988 52.7688 68.988 52.3519C68.988 51.935 68.65 51.597 68.2331 51.597C67.8162 51.597 67.4783 51.935 67.4783 52.3519C67.4783 52.7688 67.8162 53.1068 68.2331 53.1068Z" fill="#E21A1A" stroke="white" stroke-miterlimit="10"/>
<path d="M70.8535 54.4214H74.9975V53.6534H71.7175V51.8934H74.4695V51.1254H71.7175V49.5254H74.9975V48.7574H70.8535V54.4214ZM80.2582 50.6134V50.3894H79.3462C78.7702 51.1574 78.4342 51.6054 78.4342 52.0214H76.9942V50.3894H76.1782V54.4214H76.9942V52.7894H78.4342C78.4342 53.2054 78.7702 53.6534 79.3462 54.4214H80.2582V54.1974L78.9062 52.4054L80.2582 50.6134ZM84.6234 54.5174L85.2314 54.0614C84.9434 53.6774 84.9434 53.6774 84.9434 52.8854V52.2134C84.9434 51.2534 84.9434 50.2934 83.0714 50.2934C82.7834 50.2934 82.1594 50.2934 81.3914 50.4854V51.2534H81.5834L82.3514 51.0614H83.0714C84.1274 51.0614 84.1274 51.0614 84.1274 52.0694H83.0714C81.0554 52.0694 81.0554 52.7414 81.0554 53.3654C81.0554 53.7494 81.0554 54.5174 82.4954 54.5174C83.4874 54.5174 84.0234 54.1174 84.2154 53.9734L84.6234 54.5174ZM81.9674 53.2694C81.9674 52.6934 81.9674 52.6934 83.0714 52.6934H84.1274V53.4614L82.9754 53.7494H82.5434C81.9674 53.7494 81.9674 53.7494 81.9674 53.2694ZM89.896 50.3894H85.864V51.0934H87.456V54.4214H88.304V51.0934H89.896V50.3894ZM92.6417 53.7494C91.5377 53.7494 91.5377 53.7494 91.5377 52.7414H92.6417C93.7937 52.7414 93.9857 52.7414 94.4177 52.6454L94.6097 52.5974V52.2134C94.6097 51.4454 94.6097 50.2934 92.8337 50.2934H92.4497C90.6737 50.2934 90.6737 51.4454 90.6737 52.2134V52.5974C90.6737 53.4614 90.6737 54.5174 92.6417 54.5174C92.9777 54.5174 93.5537 54.5174 94.3217 54.3254V53.5574H94.1297L93.3617 53.7494H92.6417ZM91.5377 52.1174C91.5377 51.0614 91.5377 51.0614 92.6417 51.0614C93.7457 51.0614 93.7457 51.0614 93.7457 52.1174H91.5377ZM95.7954 50.3894V56.0534H96.6114V54.3254C96.9954 54.4214 97.3794 54.5174 98.0994 54.5174C99.9234 54.5174 99.9234 53.2694 99.9234 52.5974V52.2134C99.9234 51.4454 99.9234 50.2934 98.1954 50.2934C97.2354 50.2934 96.7074 50.6934 96.5154 50.8374L96.1794 50.3894H95.7954ZM99.0594 52.4054C99.0594 53.7414 99.0594 53.7494 97.7634 53.7494C97.4754 53.7494 96.9954 53.7494 96.6114 53.6534V51.3494L97.7634 51.0614H97.8994C99.0594 51.0614 99.0594 51.1094 99.0594 52.4054ZM102.22 54.4214C104.308 51.6454 104.308 51.5014 104.308 51.0774H104.516V54.4214H105.332V50.3894H104.228C102.14 53.1654 102.14 53.3094 102.14 53.7334H101.924V50.3894H101.108V54.4214H102.22ZM109.877 50.3894V52.0134H107.525V50.3894H106.709V54.4214H107.525V52.7174H109.877V54.4214H110.693V50.3894H109.877ZM114.757 49.7174C115.189 49.6134 115.613 49.5014 115.765 48.9014L115.813 48.7094L115.045 48.5174C114.949 48.8054 114.957 48.8054 114.565 48.9014L113.605 49.1414C111.973 49.5494 111.973 50.6294 111.973 51.8774V52.1894C111.973 53.5334 111.973 54.5174 113.941 54.5174H114.325C116.245 54.5174 116.245 53.5574 116.245 52.8374V52.4054C116.245 51.6854 116.245 50.7254 114.517 50.7254C113.365 50.7254 112.981 50.9894 112.805 51.2054L112.661 51.1574C112.901 50.1974 112.901 50.1814 113.797 49.9574L114.757 49.7174ZM114.133 51.4374C115.381 51.4374 115.381 51.6134 115.381 52.6214C115.381 53.6294 115.381 53.8054 114.069 53.8054C112.885 53.8054 112.885 53.6294 112.885 52.6214C112.885 51.6134 112.885 51.4374 114.133 51.4374ZM118.67 53.5574C118.67 53.2694 118.67 53.2694 117.846 51.1094V50.3894H116.982C116.982 51.2294 116.982 51.2294 118.262 54.2294H119.07L118.782 54.9974C118.63 55.3814 118.566 55.3814 118.11 55.3814H117.478V56.1494H117.894C118.518 56.1494 119.142 56.1254 119.502 55.2534L120.83 51.6774C121.014 51.2294 121.014 51.2294 121.014 50.5494V50.3894H120.174V51.1094C119.414 53.2854 119.422 53.2854 119.422 53.5574H118.67ZM121.959 50.3894V56.0534H122.775V54.3254C123.159 54.4214 123.543 54.5174 124.263 54.5174C126.087 54.5174 126.087 53.2694 126.087 52.5974V52.2134C126.087 51.4454 126.087 50.2934 124.359 50.2934C123.399 50.2934 122.871 50.6934 122.679 50.8374L122.343 50.3894H121.959ZM125.223 52.4054C125.223 53.7414 125.223 53.7494 123.927 53.7494C123.639 53.7494 123.159 53.7494 122.775 53.6534V51.3494L123.927 51.0614H124.063C125.223 51.0614 125.223 51.1094 125.223 52.4054ZM130.52 50.3894H127.272V54.4214H128.088V51.0934H130.52V50.3894Z" fill="#363636"/>
<path d="M80.0952 59.8284C80.5121 59.8284 80.85 59.4905 80.85 59.0736C80.85 58.6567 80.5121 58.3187 80.0952 58.3187C79.6783 58.3187 79.3403 58.6567 79.3403 59.0736C79.3403 59.4905 79.6783 59.8284 80.0952 59.8284Z" fill="#E21A1A" stroke="white" stroke-miterlimit="10"/>
<path d="M82.5391 56.7387V57.5067H84.5311V62.4027H85.3951V57.5067H87.3871V56.7387H82.5391ZM88.0654 58.3707V62.4027H88.8814V60.7227H90.1294C90.1294 61.4427 90.1294 62.4987 92.0494 62.4987H92.4334C94.3534 62.4987 94.3534 61.4427 94.3534 60.5787V60.1947C94.3534 59.3307 94.3534 58.2747 92.4334 58.2747H92.0494C90.1294 58.2747 90.1294 59.3307 90.1294 60.0507H88.8814V58.3707H88.0654ZM90.9934 60.3867C90.9934 59.0427 90.9934 59.0427 92.2414 59.0427C93.4894 59.0427 93.4894 59.0427 93.4894 60.3867C93.4894 61.7307 93.4894 61.7307 92.2414 61.7307C90.9934 61.7307 90.9934 61.7307 90.9934 60.3867ZM95.5342 58.3707V62.4027H96.3502V59.0907H96.5582C96.5582 59.2827 96.5582 59.2827 97.8062 62.4027H98.8782C100.126 59.2827 100.126 59.2827 100.126 59.0427H100.334V62.4027H101.15V58.3707H99.6942C98.4462 61.3707 98.4462 61.3707 98.4462 61.7307H98.2382C98.2382 61.3707 98.2382 61.3707 96.9902 58.3707H95.5342ZM104.302 61.7307C103.198 61.7307 103.198 61.7307 103.198 60.7227H104.302C105.454 60.7227 105.646 60.7227 106.078 60.6267L106.27 60.5787V60.1947C106.27 59.4267 106.27 58.2747 104.494 58.2747H104.11C102.334 58.2747 102.334 59.4267 102.334 60.1947V60.5787C102.334 61.4427 102.334 62.4987 104.302 62.4987C104.638 62.4987 105.214 62.4987 105.982 62.3067V61.5387H105.79L105.022 61.7307H104.302ZM103.198 60.0987C103.198 59.0427 103.198 59.0427 104.302 59.0427C105.406 59.0427 105.406 59.0427 105.406 60.0987H103.198ZM110.624 58.3707V59.9947H108.272V58.3707H107.456V62.4027H108.272V60.6987H110.624V62.4027H111.44V58.3707H110.624ZM114.735 62.4027C115.695 62.4027 116.559 62.4027 116.559 61.0587C116.559 60.5787 116.559 59.6187 114.831 59.6187C114.447 59.6187 114.015 59.6667 113.631 59.7627V58.3707H112.815V62.4027H114.735ZM114.831 60.3867C115.695 60.3867 115.695 60.3867 115.695 61.0587C115.695 61.7307 115.695 61.7307 114.831 61.7307H113.631V60.3867H114.831Z" fill="#363636"/>
<path d="M96.019 78.592C96.4359 78.592 96.7739 78.254 96.7739 77.8371C96.7739 77.4202 96.4359 77.0823 96.019 77.0823C95.6021 77.0823 95.2642 77.4202 95.2642 77.8371C95.2642 78.254 95.6021 78.592 96.019 78.592Z" fill="#E21A1A" stroke="white" stroke-miterlimit="10"/>
<path d="M103.088 70.208C100.592 70.208 100.592 71.68 100.592 72.928V73.408C100.592 74.656 100.592 76.128 103.088 76.128H103.504C106 76.128 106 74.656 106 73.408V72.928C106 71.68 106 70.208 103.504 70.208H103.088ZM101.552 73.072C101.552 71.064 101.552 70.992 103.296 70.992C105.032 70.992 105.04 71.056 105.04 73.072V73.264C105.04 75.272 105.04 75.344 103.296 75.344C101.56 75.344 101.552 75.28 101.552 73.264V73.072ZM107.282 71.968V76H108.098V72.688H108.306C108.306 72.88 108.306 72.88 109.554 76H110.626C111.874 72.88 111.874 72.88 111.874 72.64H112.082V76H112.898V71.968H111.442C110.194 74.968 110.194 74.968 110.194 75.328H109.986C109.986 74.968 109.986 74.968 108.738 71.968H107.282ZM116.05 76.096C116.338 76.096 116.962 76.096 117.73 75.904V75.136H117.538L116.762 75.328H116.338C114.946 75.328 114.946 75.328 114.946 73.984C114.946 72.64 114.946 72.64 116.05 72.64C116.962 72.64 116.962 72.64 117.154 73.408L117.922 73.216C117.922 72.832 117.922 71.872 116.242 71.872H115.858C114.082 71.872 114.082 72.928 114.082 73.792V74.176C114.082 75.04 114.082 76.096 116.05 76.096ZM123.088 72.192V71.968H122.176C121.6 72.736 121.264 73.184 121.264 73.6H119.824V71.968H119.008V76H119.824V74.368H121.264C121.264 74.784 121.6 75.232 122.176 76H123.088V75.776L121.736 73.984L123.088 72.192Z" fill="#363636"/>
<path d="M152.525 87.4344C152.942 87.4344 153.279 87.0964 153.279 86.6795C153.279 86.2626 152.942 85.9247 152.525 85.9247C152.108 85.9247 151.77 86.2626 151.77 86.6795C151.77 87.0964 152.108 87.4344 152.525 87.4344Z" fill="#E21A1A" stroke="white" stroke-miterlimit="10"/>
<path d="M146.921 95.8315V95.6075H146.041L145.577 96.1995C144.641 97.3995 144.505 97.7435 144.505 97.9755H142.921V95.6075H142.057V101.271H142.921V98.7435H144.505C144.505 98.9915 144.721 99.3515 145.617 100.655L146.041 101.271H147.001V100.919L145.089 98.2955L146.921 95.8315ZM147.991 97.2395V102.903H148.807V101.175C149.191 101.271 149.575 101.367 150.295 101.367C152.119 101.367 152.119 100.119 152.119 99.4475V99.0635C152.119 98.2955 152.119 97.1435 150.391 97.1435C149.431 97.1435 148.903 97.5435 148.711 97.6875L148.375 97.2395H147.991ZM151.255 99.2555C151.255 100.591 151.255 100.599 149.959 100.599C149.671 100.599 149.191 100.599 148.807 100.503V98.1995L149.959 97.9115H150.095C151.255 97.9115 151.255 97.9595 151.255 99.2555ZM156.632 101.367L157.24 100.911C156.952 100.527 156.952 100.527 156.952 99.7355V99.0635C156.952 98.1035 156.952 97.1435 155.08 97.1435C154.792 97.1435 154.168 97.1435 153.4 97.3355V98.1035H153.592L154.36 97.9115H155.08C156.136 97.9115 156.136 97.9115 156.136 98.9195H155.08C153.064 98.9195 153.064 99.5915 153.064 100.215C153.064 100.599 153.064 101.367 154.504 101.367C155.496 101.367 156.032 100.967 156.224 100.823L156.632 101.367ZM153.976 100.119C153.976 99.5435 153.976 99.5435 155.08 99.5435H156.136V100.311L154.984 100.599H154.552C153.976 100.599 153.976 100.599 153.976 100.119ZM160.056 101.367C160.344 101.367 160.968 101.367 161.736 101.175V100.407H161.544L160.768 100.599H160.344C158.952 100.599 158.952 100.599 158.952 99.2555C158.952 97.9115 158.952 97.9115 160.056 97.9115C160.968 97.9115 160.968 97.9115 161.16 98.6795L161.928 98.4875C161.928 98.1035 161.928 97.1435 160.248 97.1435H159.864C158.088 97.1435 158.088 98.1995 158.088 99.0635V99.4475C158.088 100.311 158.088 101.367 160.056 101.367ZM166.183 97.2395V98.8635H163.831V97.2395H163.015V101.271H163.831V99.5675H166.183V101.271H166.999V97.2395H166.183ZM169.046 99.2555C169.046 97.9115 169.046 97.8715 170.294 97.8715C171.542 97.8715 171.542 97.9115 171.542 99.2555C171.542 100.599 171.542 100.639 170.294 100.639C169.046 100.639 169.046 100.599 169.046 99.2555ZM168.182 99.4475C168.182 100.215 168.182 101.367 170.102 101.367H170.486C172.406 101.367 172.406 100.215 172.406 99.4475V99.0635C172.406 98.2955 172.406 97.1435 170.486 97.1435H170.102C168.182 97.1435 168.182 98.2955 168.182 99.0635V99.4475ZM177.241 101.271V97.2395H175.513C174.313 97.2395 173.353 97.2395 173.353 98.5355C173.353 99.2395 173.593 99.4235 174.265 99.9275L173.425 101.047V101.271H174.337C174.625 100.903 174.937 100.519 174.937 99.9275H176.425V101.271H177.241ZM175.177 99.2555C174.273 99.2555 174.265 99.2555 174.265 98.5835C174.265 97.9195 174.265 97.9115 175.177 97.9115H176.425V99.2555H175.177ZM178.616 97.2395V102.903H179.432V101.175C179.816 101.271 180.2 101.367 180.92 101.367C182.744 101.367 182.744 100.119 182.744 99.4475V99.0635C182.744 98.2955 182.744 97.1435 181.016 97.1435C180.056 97.1435 179.528 97.5435 179.336 97.6875L179 97.2395H178.616ZM181.88 99.2555C181.88 100.591 181.88 100.599 180.584 100.599C180.296 100.599 179.816 100.599 179.432 100.503V98.1995L180.584 97.9115H180.72C181.88 97.9115 181.88 97.9595 181.88 99.2555ZM185.705 101.367C185.993 101.367 186.617 101.367 187.385 101.175V100.407H187.193L186.417 100.599H185.993C184.601 100.599 184.601 100.599 184.601 99.2555C184.601 97.9115 184.601 97.9115 185.705 97.9115C186.617 97.9115 186.617 97.9115 186.809 98.6795L187.577 98.4875C187.577 98.1035 187.577 97.1435 185.897 97.1435H185.513C183.737 97.1435 183.737 98.1995 183.737 99.0635V99.4475C183.737 100.311 183.737 101.367 185.705 101.367ZM192.743 97.4635V97.2395H191.831C191.255 98.0075 190.919 98.4555 190.919 98.8715H189.479V97.2395H188.663V101.271H189.479V99.6395H190.919C190.919 100.055 191.255 100.503 191.831 101.271H192.743V101.047L191.391 99.2555L192.743 97.4635Z" fill="#363636"/>
<path d="M201.41 109.001C201.827 109.001 202.165 108.664 202.165 108.247C202.165 107.83 201.827 107.492 201.41 107.492C200.993 107.492 200.655 107.83 200.655 108.247C200.655 108.664 200.993 109.001 201.41 109.001Z" fill="#E21A1A" stroke="white" stroke-miterlimit="10"/>
<path d="M219.383 104.796C219.8 104.796 220.138 104.458 220.138 104.041C220.138 103.624 219.8 103.286 219.383 103.286C218.966 103.286 218.628 103.624 218.628 104.041C218.628 104.458 218.966 104.796 219.383 104.796Z" fill="#E21A1A" stroke="white" stroke-miterlimit="10"/>
<path d="M223.338 100.566V103.446L222.186 103.734H221.85C220.41 103.734 220.41 103.734 220.41 102.294V100.566H219.546V102.294C219.546 103.446 219.546 104.598 221.37 104.598C221.994 104.598 222.57 104.454 223.338 104.262V106.23H224.202V100.566H223.338ZM226.832 106.23C228.92 103.454 228.92 103.31 228.92 102.886H229.128V106.23H229.944V102.198H228.84C226.752 104.974 226.752 105.118 226.752 105.542H226.536V102.198H225.72V106.23H226.832ZM234.946 102.198H230.914V102.902H232.506V106.23H233.354V102.902H234.946V102.198ZM239.244 106.326L239.852 105.87C239.564 105.486 239.564 105.486 239.564 104.694V104.022C239.564 103.062 239.564 102.102 237.692 102.102C237.404 102.102 236.78 102.102 236.012 102.294V103.062H236.204L236.972 102.87H237.692C238.748 102.87 238.748 102.87 238.748 103.878H237.692C235.676 103.878 235.676 104.55 235.676 105.174C235.676 105.558 235.676 106.326 237.116 106.326C238.108 106.326 238.644 105.926 238.836 105.782L239.244 106.326ZM236.588 105.078C236.588 104.502 236.588 104.502 237.692 104.502H238.748V105.27L237.596 105.558H237.164C236.588 105.558 236.588 105.558 236.588 105.078Z" fill="#363636"/>
<path d="M268.448 96.9598C268.865 96.9598 269.203 96.6218 269.203 96.2049C269.203 95.788 268.865 95.4501 268.448 95.4501C268.031 95.4501 267.693 95.788 267.693 96.2049C267.693 96.6218 268.031 96.9598 268.448 96.9598Z" fill="#E21A1A" stroke="white" stroke-miterlimit="10"/>
<path d="M294.401 98.3257C294.818 98.3257 295.155 97.9878 295.155 97.5709C295.155 97.154 294.818 96.816 294.401 96.816C293.984 96.816 293.646 97.154 293.646 97.5709C293.646 97.9878 293.984 98.3257 294.401 98.3257Z" fill="#E21A1A" stroke="white" stroke-miterlimit="10"/>
<path d="M296.917 124.027C297.334 124.027 297.672 123.689 297.672 123.272C297.672 122.855 297.334 122.517 296.917 122.517C296.5 122.517 296.162 122.855 296.162 123.272C296.162 123.689 296.5 124.027 296.917 124.027Z" fill="#E21A1A" stroke="white" stroke-miterlimit="10"/>
<path d="M245.4 124.456C245.4 124.072 245.4 124.072 244.128 121.336H243.28V121.624L244.96 125.152H246.096L245.816 125.752C245.592 126.232 245.488 126.232 244.912 126.232H244.184V127H244.72C245.736 127 246.184 127 246.68 125.848L248.496 121.624V121.336H247.672C246.52 124.072 246.52 124.072 246.536 124.456H245.4ZM250.605 127.096C250.893 127.096 251.517 127.096 252.285 126.904V126.136H252.093L251.317 126.328H250.893C249.501 126.328 249.501 126.328 249.501 124.984C249.501 123.64 249.501 123.64 250.605 123.64C251.517 123.64 251.517 123.64 251.709 124.408L252.477 124.216C252.477 123.832 252.477 122.872 250.797 122.872H250.413C248.637 122.872 248.637 123.928 248.637 124.792V125.176C248.637 126.04 248.637 127.096 250.605 127.096ZM255.339 127.096C255.627 127.096 256.251 127.096 257.019 126.904V126.136H256.827L256.051 126.328H255.627C254.235 126.328 254.235 126.328 254.235 124.984C254.235 123.64 254.235 123.64 255.339 123.64C256.251 123.64 256.251 123.64 256.443 124.408L257.211 124.216C257.211 123.832 257.211 122.872 255.531 122.872H255.147C253.371 122.872 253.371 123.928 253.371 124.792V125.176C253.371 126.04 253.371 127.096 255.339 127.096ZM259.633 126.136C259.633 125.848 259.633 125.848 258.809 123.688V122.968H257.945C257.945 123.808 257.945 123.808 259.225 126.808H260.033L259.745 127.576C259.593 127.96 259.529 127.96 259.073 127.96H258.441V128.728H258.857C259.481 128.728 260.105 128.704 260.465 127.832L261.793 124.256C261.977 123.808 261.977 123.808 261.977 123.128V122.968H261.137V123.688C260.377 125.864 260.385 125.864 260.385 126.136H259.633ZM262.922 122.968V128.632H263.738V126.904C264.122 127 264.506 127.096 265.226 127.096C267.05 127.096 267.05 125.848 267.05 125.176V124.792C267.05 124.024 267.05 122.872 265.322 122.872C264.362 122.872 263.834 123.272 263.642 123.416L263.306 122.968H262.922ZM266.186 124.984C266.186 126.32 266.186 126.328 264.89 126.328C264.602 126.328 264.122 126.328 263.738 126.232V123.928L264.89 123.64H265.026C266.186 123.64 266.186 123.688 266.186 124.984ZM269.347 127C271.435 124.224 271.435 124.08 271.435 123.656H271.643V127H272.459V122.968H271.355C269.267 125.744 269.267 125.888 269.267 126.312H269.051V122.968H268.235V127H269.347ZM276.212 122.36C276.756 122.36 277.14 122.36 277.644 121.768L277.068 121.336C276.812 121.688 276.804 121.688 276.364 121.688H275.612C275.18 121.688 275.172 121.688 274.908 121.336L274.332 121.768C274.836 122.36 275.22 122.36 275.764 122.36H276.212ZM274.948 127C277.036 124.224 277.036 124.08 277.036 123.656H277.244V127H278.06V122.968H276.956C274.868 125.744 274.868 125.888 274.868 126.312H274.652V122.968H273.836V127H274.948ZM281.214 127.096C281.502 127.096 282.126 127.096 282.894 126.904V126.136H282.702L281.926 126.328H281.502C280.11 126.328 280.11 126.328 280.11 124.984C280.11 123.64 280.11 123.64 281.214 123.64C282.126 123.64 282.126 123.64 282.318 124.408L283.086 124.216C283.086 123.832 283.086 122.872 281.406 122.872H281.022C279.246 122.872 279.246 123.928 279.246 124.792V125.176C279.246 126.04 279.246 127.096 281.214 127.096ZM288.252 123.192V122.968H287.34C286.764 123.736 286.428 124.184 286.428 124.6H284.988V122.968H284.172V127H284.988V125.368H286.428C286.428 125.784 286.764 126.232 287.34 127H288.252V126.776L286.9 124.984L288.252 123.192Z" fill="#363636"/>
<path d="M297.815 127.981C298.232 127.981 298.57 127.643 298.57 127.226C298.57 126.809 298.232 126.471 297.815 126.471C297.398 126.471 297.06 126.809 297.06 127.226C297.06 127.643 297.398 127.981 297.815 127.981Z" fill="#E21A1A" stroke="white" stroke-miterlimit="10"/>
<path d="M239.712 114.472C240.576 114.472 240.576 114.512 240.576 115.352C240.576 116.192 240.576 116.232 239.712 116.232H237.696V114.472H239.712ZM239.632 112.104C240.496 112.104 240.496 112.112 240.496 112.904C240.496 113.696 240.496 113.704 239.632 113.704H237.696V112.104H239.632ZM239.088 117C240.576 117 241.536 116.96 241.536 115.424C241.536 115.232 241.456 114.344 240.752 114.168V114.008C241.456 113.832 241.456 113.024 241.456 112.832C241.456 111.344 240.496 111.336 239.008 111.336H236.832V117H239.088ZM245.853 113.68V117H246.669V112.968H243.413C243.389 113.8 243.341 114.488 243.197 115.528C243.101 116.224 243.021 116.36 242.333 116.36V117.016C243.629 117.016 243.765 116.864 243.925 115.672C244.045 114.792 244.101 114.176 244.117 113.68H245.853ZM251.375 117.096L251.983 116.64C251.695 116.256 251.695 116.256 251.695 115.464V114.792C251.695 113.832 251.695 112.872 249.823 112.872C249.535 112.872 248.911 112.872 248.143 113.064V113.832H248.335L249.103 113.64H249.823C250.879 113.64 250.879 113.64 250.879 114.648H249.823C247.807 114.648 247.807 115.32 247.807 115.944C247.807 116.328 247.807 117.096 249.247 117.096C250.239 117.096 250.775 116.696 250.967 116.552L251.375 117.096ZM248.719 115.848C248.719 115.272 248.719 115.272 249.823 115.272H250.879V116.04L249.727 116.328H249.295C248.719 116.328 248.719 116.328 248.719 115.848ZM253.4 117H256.912V118.152H257.696V116.328H257.024V112.968H253.744V113.448C253.744 114.4 253.64 115.416 253.168 116.328H252.616V118.152H253.4V117ZM254.528 113.672H256.208V116.328H254.048C254.432 115.408 254.528 114.432 254.528 113.672ZM259.777 117C261.865 114.224 261.865 114.08 261.865 113.656H262.073V117H262.889V112.968H261.785C259.697 115.744 259.697 115.888 259.697 116.312H259.481V112.968H258.665V117H259.777ZM264.266 117H266.13C267.09 117 268.058 117 268.058 115.992C268.058 115.656 267.978 115.224 267.21 115.032V114.936C267.978 114.744 267.978 114.312 267.978 113.976C267.978 112.968 267.09 112.968 266.13 112.968H264.266V117ZM266.426 115.272C267.138 115.272 267.146 115.272 267.146 115.8C267.146 116.32 267.146 116.328 266.426 116.328H265.082V115.272H266.426ZM266.346 113.64C267.058 113.64 267.066 113.64 267.066 114.168C267.066 114.688 267.066 114.696 266.346 114.696H265.082V113.64H266.346ZM269.915 114.984C269.915 113.64 269.915 113.6 271.163 113.6C272.411 113.6 272.411 113.64 272.411 114.984C272.411 116.328 272.411 116.368 271.163 116.368C269.915 116.368 269.915 116.328 269.915 114.984ZM269.051 115.176C269.051 115.944 269.051 117.096 270.971 117.096H271.355C273.275 117.096 273.275 115.944 273.275 115.176V114.792C273.275 114.024 273.275 112.872 271.355 112.872H270.971C269.051 112.872 269.051 114.024 269.051 114.792V115.176ZM276.237 117.096C276.525 117.096 277.149 117.096 277.917 116.904V116.136H277.725L276.949 116.328H276.525C275.133 116.328 275.133 116.328 275.133 114.984C275.133 113.64 275.133 113.64 276.237 113.64C277.149 113.64 277.149 113.64 277.341 114.408L278.109 114.216C278.109 113.832 278.109 112.872 276.429 112.872H276.045C274.269 112.872 274.269 113.928 274.269 114.792V115.176C274.269 116.04 274.269 117.096 276.237 117.096ZM282.82 112.968H278.788V113.672H280.38V117H281.228V113.672H282.82V112.968ZM284.462 114.984C284.462 113.64 284.462 113.6 285.71 113.6C286.958 113.6 286.958 113.64 286.958 114.984C286.958 116.328 286.958 116.368 285.71 116.368C284.462 116.368 284.462 116.328 284.462 114.984ZM283.598 115.176C283.598 115.944 283.598 117.096 285.518 117.096H285.902C287.822 117.096 287.822 115.944 287.822 115.176V114.792C287.822 114.024 287.822 112.872 285.902 112.872H285.518C283.598 112.872 283.598 114.024 283.598 114.792V115.176ZM293.088 113.192V112.968H292.176C291.6 113.736 291.264 114.184 291.264 114.6H289.824V112.968H289.008V117H289.824V115.368H291.264C291.264 115.784 291.6 116.232 292.176 117H293.088V116.776L291.736 114.984L293.088 113.192Z" fill="#363636"/>
<path d="M248.031 86.8234C248.448 86.8234 248.786 86.4855 248.786 86.0686C248.786 85.6517 248.448 85.3137 248.031 85.3137C247.614 85.3137 247.276 85.6517 247.276 86.0686C247.276 86.4855 247.614 86.8234 248.031 86.8234Z" fill="#E21A1A" stroke="white" stroke-miterlimit="10"/>
<path d="M188.542 108.642C188.959 108.642 189.297 108.304 189.297 107.887C189.297 107.47 188.959 107.132 188.542 107.132C188.125 107.132 187.787 107.47 187.787 107.887C187.787 108.304 188.125 108.642 188.542 108.642Z" fill="#E21A1A" stroke="white" stroke-miterlimit="10"/>
<path d="M149.696 113.944V109.336H148.832V115H149.872L152.248 111.528C152.648 110.944 152.68 110.664 152.68 110.392H152.928V115H153.792V109.336H152.752L150.28 112.976C149.96 113.448 149.944 113.696 149.944 113.944H149.696ZM155.313 110.968V116.632H156.129V114.904C156.513 115 156.897 115.096 157.617 115.096C159.441 115.096 159.441 113.848 159.441 113.176V112.792C159.441 112.024 159.441 110.872 157.713 110.872C156.753 110.872 156.225 111.272 156.033 111.416L155.697 110.968H155.313ZM158.577 112.984C158.577 114.32 158.577 114.328 157.281 114.328C156.993 114.328 156.513 114.328 156.129 114.232V111.928L157.281 111.64H157.417C158.577 111.64 158.577 111.688 158.577 112.984ZM164.706 111.192V110.968H163.794C163.218 111.736 162.882 112.184 162.882 112.6H161.442V110.968H160.626V115H161.442V113.368H162.882C162.882 113.784 163.218 114.232 163.794 115H164.706V114.776L163.354 112.984L164.706 111.192ZM167.079 114.136C167.079 113.848 167.079 113.848 166.255 111.688V110.968H165.391C165.391 111.808 165.391 111.808 166.671 114.808H167.479L167.191 115.576C167.039 115.96 166.975 115.96 166.519 115.96H165.887V116.728H166.303C166.927 116.728 167.551 116.704 167.911 115.832L169.239 112.256C169.423 111.808 169.423 111.808 169.423 111.128V110.968H168.583V111.688C167.823 113.864 167.831 113.864 167.831 114.136H167.079ZM173.992 110.968H169.96V111.672H171.552V115H172.4V111.672H173.992V110.968ZM176.737 115.096C177.025 115.096 177.649 115.096 178.417 114.904V114.136H178.225L177.449 114.328H177.025C175.633 114.328 175.633 114.328 175.633 112.984C175.633 111.64 175.633 111.64 176.737 111.64C177.649 111.64 177.649 111.64 177.841 112.408L178.609 112.216C178.609 111.832 178.609 110.872 176.929 110.872H176.545C174.769 110.872 174.769 111.928 174.769 112.792V113.176C174.769 114.04 174.769 115.096 176.737 115.096ZM183.776 111.192V110.968H182.864C182.288 111.736 181.952 112.184 181.952 112.6H180.512V110.968H179.696V115H180.512V113.368H181.952C181.952 113.784 182.288 114.232 182.864 115H183.776V114.776L182.424 112.984L183.776 111.192Z" fill="#363636"/>
<path d="M169.419 89.0519C169.836 89.0519 170.174 88.714 170.174 88.2971C170.174 87.8802 169.836 87.5422 169.419 87.5422C169.002 87.5422 168.664 87.8802 168.664 88.2971C168.664 88.714 169.002 89.0519 169.419 89.0519Z" fill="#E21A1A" stroke="white" stroke-miterlimit="10"/>
<path d="M147.232 76.336V77.104H149.224V82H150.088V77.104H152.08V76.336H147.232ZM155.899 82.096L156.507 81.64C156.219 81.256 156.219 81.256 156.219 80.464V79.792C156.219 78.832 156.219 77.872 154.347 77.872C154.059 77.872 153.435 77.872 152.667 78.064V78.832H152.859L153.627 78.64H154.347C155.403 78.64 155.403 78.64 155.403 79.648H154.347C152.331 79.648 152.331 80.32 152.331 80.944C152.331 81.328 152.331 82.096 153.771 82.096C154.763 82.096 155.299 81.696 155.491 81.552L155.899 82.096ZM153.243 80.848C153.243 80.272 153.243 80.272 154.347 80.272H155.403V81.04L154.251 81.328H153.819C153.243 81.328 153.243 81.328 153.243 80.848ZM159.923 77.36C160.467 77.36 160.851 77.36 161.355 76.768L160.779 76.336C160.523 76.688 160.515 76.688 160.075 76.688H159.323C158.891 76.688 158.883 76.688 158.619 76.336L158.043 76.768C158.547 77.36 158.931 77.36 159.475 77.36H159.923ZM158.659 82C160.747 79.224 160.747 79.08 160.747 78.656H160.955V82H161.771V77.968H160.667C158.579 80.744 158.579 80.888 158.579 81.312H158.363V77.968H157.547V82H158.659ZM168.749 81.328H166.765V77.968H165.949V81.328H163.965V77.968H163.149V82H169.565V77.968H168.749V81.328ZM172.714 81.328C171.61 81.328 171.61 81.328 171.61 80.32H172.714C173.866 80.32 174.058 80.32 174.49 80.224L174.682 80.176V79.792C174.682 79.024 174.682 77.872 172.906 77.872H172.522C170.746 77.872 170.746 79.024 170.746 79.792V80.176C170.746 81.04 170.746 82.096 172.714 82.096C173.05 82.096 173.626 82.096 174.394 81.904V81.136H174.202L173.434 81.328H172.714ZM171.61 79.696C171.61 78.64 171.61 78.64 172.714 78.64C173.818 78.64 173.818 78.64 173.818 79.696H171.61ZM179.492 77.968H175.46V78.672H177.052V82H177.9V78.672H179.492V77.968Z" fill="#363636"/>
<path d="M179.735 88.8002C180.152 88.8002 180.49 88.4623 180.49 88.0454C180.49 87.6285 180.152 87.2905 179.735 87.2905C179.318 87.2905 178.98 87.6285 178.98 88.0454C178.98 88.4623 179.318 88.8002 179.735 88.8002Z" fill="#696872" stroke="white" stroke-miterlimit="10"/>
<path d="M186.153 94.8807V93.4087H189.513V92.6407H185.289V98.3047H187.305C189.081 98.3047 189.993 98.2647 189.993 96.5927C189.993 94.9207 189.081 94.8807 187.305 94.8807H186.153ZM186.153 95.6487H187.881C189.065 95.6487 189.081 95.6487 189.081 96.5927C189.081 97.5207 189.081 97.5367 187.881 97.5367H186.153V95.6487ZM191.082 94.2727V99.9367H191.898V98.2087C192.282 98.3047 192.666 98.4007 193.386 98.4007C195.21 98.4007 195.21 97.1527 195.21 96.4807V96.0967C195.21 95.3287 195.21 94.1767 193.482 94.1767C192.522 94.1767 191.994 94.5767 191.802 94.7207L191.466 94.2727H191.082ZM194.346 96.2887C194.346 97.6247 194.346 97.6327 193.05 97.6327C192.762 97.6327 192.282 97.6327 191.898 97.5367V95.2327L193.05 94.9447H193.186C194.346 94.9447 194.346 94.9927 194.346 96.2887ZM199.723 98.4007L200.331 97.9447C200.043 97.5607 200.043 97.5607 200.043 96.7687V96.0967C200.043 95.1367 200.043 94.1767 198.171 94.1767C197.883 94.1767 197.259 94.1767 196.491 94.3687V95.1367H196.683L197.451 94.9447H198.171C199.227 94.9447 199.227 94.9447 199.227 95.9527H198.171C196.155 95.9527 196.155 96.6247 196.155 97.2487C196.155 97.6327 196.155 98.4007 197.595 98.4007C198.587 98.4007 199.123 98.0007 199.315 97.8567L199.723 98.4007ZM197.067 97.1527C197.067 96.5767 197.067 96.5767 198.171 96.5767H199.227V97.3447L198.075 97.6327H197.643C197.067 97.6327 197.067 97.6327 197.067 97.1527ZM204.995 94.2727H200.963V94.9767H202.555V98.3047H203.403V94.9767H204.995V94.2727ZM207.741 98.4007C208.029 98.4007 208.653 98.4007 209.421 98.2087V97.4407H209.229L208.453 97.6327H208.029C206.637 97.6327 206.637 97.6327 206.637 96.2887C206.637 94.9447 206.637 94.9447 207.741 94.9447C208.653 94.9447 208.653 94.9447 208.845 95.7127L209.613 95.5207C209.613 95.1367 209.613 94.1767 207.933 94.1767H207.549C205.773 94.1767 205.773 95.2327 205.773 96.0967V96.4807C205.773 97.3447 205.773 98.4007 207.741 98.4007ZM214.779 94.4967V94.2727H213.867C213.291 95.0407 212.955 95.4887 212.955 95.9047H211.515V94.2727H210.699V98.3047H211.515V96.6727H212.955C212.955 97.0887 213.291 97.5367 213.867 98.3047H214.779V98.0807L213.427 96.2887L214.779 94.4967Z" fill="#363636"/>
<path d="M195.12 84.6667C195.537 84.6667 195.875 84.3287 195.875 83.9118C195.875 83.4949 195.537 83.157 195.12 83.157C194.703 83.157 194.365 83.4949 194.365 83.9118C194.365 84.3287 194.703 84.6667 195.12 84.6667Z" fill="#696872" stroke="white" stroke-miterlimit="10"/>
<path d="M180.4 71.456C180.4 71.072 180.4 71.072 179.128 68.336H178.28V68.624L179.96 72.152H181.096L180.816 72.752C180.592 73.232 180.488 73.232 179.912 73.232H179.184V74H179.72C180.736 74 181.184 74 181.68 72.848L183.496 68.624V68.336H182.672C181.52 71.072 181.52 71.072 181.536 71.456H180.4ZM185.605 74.096C185.893 74.096 186.517 74.096 187.285 73.904V73.136H187.093L186.317 73.328H185.893C184.501 73.328 184.501 73.328 184.501 71.984C184.501 70.64 184.501 70.64 185.605 70.64C186.517 70.64 186.517 70.64 186.709 71.408L187.477 71.216C187.477 70.832 187.477 69.872 185.797 69.872H185.413C183.637 69.872 183.637 70.928 183.637 71.792V72.176C183.637 73.04 183.637 74.096 185.605 74.096ZM192.187 69.968H188.155V70.672H189.747V74H190.595V70.672H192.187V69.968ZM195.077 74C196.037 74 196.901 74 196.901 72.656C196.901 72.176 196.901 71.216 195.173 71.216C194.789 71.216 194.357 71.264 193.973 71.36V69.968H193.157V74H195.077ZM195.173 71.984C196.037 71.984 196.037 71.984 196.037 72.656C196.037 73.328 196.037 73.328 195.173 73.328H193.973V71.984H195.173ZM197.457 71.36V72.08H199.857V71.36H197.457ZM205.712 68.56V68.336H204.832L204.368 68.928C203.432 70.128 203.296 70.472 203.296 70.704H201.712V68.336H200.848V74H201.712V71.472H203.296C203.296 71.72 203.512 72.08 204.408 73.384L204.832 74H205.792V73.648L203.88 71.024L205.712 68.56ZM207.922 73.136C207.922 72.848 207.922 72.848 207.098 70.688V69.968H206.234C206.234 70.808 206.234 70.808 207.514 73.808H208.322L208.034 74.576C207.882 74.96 207.818 74.96 207.362 74.96H206.73V75.728H207.146C207.77 75.728 208.394 75.704 208.754 74.832L210.082 71.256C210.266 70.808 210.266 70.808 210.266 70.128V69.968H209.426V70.688C208.666 72.864 208.674 72.864 208.674 73.136H207.922ZM214.835 69.968H210.803V70.672H212.395V74H213.243V70.672H214.835V69.968Z" fill="#363636"/>
<path d="M245.443 72.2655C245.86 72.2655 246.198 71.9276 246.198 71.5107C246.198 71.0938 245.86 70.7559 245.443 70.7559C245.026 70.7559 244.688 71.0938 244.688 71.5107C244.688 71.9276 245.026 72.2655 245.443 72.2655Z" fill="#696872" stroke="white" stroke-miterlimit="10"/>
<path d="M232.033 66.6113H228.961V64.2433H228.097V69.9073H228.961V67.3793H232.033V69.9073H232.897V64.2433H232.033V66.6113ZM236.19 69.2353C235.086 69.2353 235.086 69.2353 235.086 68.2273H236.19C237.342 68.2273 237.534 68.2273 237.966 68.1313L238.158 68.0833V67.6993C238.158 66.9313 238.158 65.7793 236.382 65.7793H235.998C234.222 65.7793 234.222 66.9313 234.222 67.6993V68.0833C234.222 68.9473 234.222 70.0033 236.19 70.0033C236.526 70.0033 237.102 70.0033 237.87 69.8113V69.0433H237.678L236.91 69.2353H236.19ZM235.086 67.6033C235.086 66.5473 235.086 66.5473 236.19 66.5473C237.294 66.5473 237.294 66.5473 237.294 67.6033H235.086ZM239.344 65.8753V71.5393H240.16V69.8113C240.544 69.9073 240.928 70.0033 241.648 70.0033C243.472 70.0033 243.472 68.7553 243.472 68.0833V67.6993C243.472 66.9313 243.472 65.7793 241.744 65.7793C240.784 65.7793 240.256 66.1793 240.064 66.3233L239.728 65.8753H239.344ZM242.608 67.8913C242.608 69.2273 242.608 69.2353 241.312 69.2353C241.024 69.2353 240.544 69.2353 240.16 69.1393V66.8353L241.312 66.5473H241.448C242.608 66.5473 242.608 66.5953 242.608 67.8913ZM244.656 65.8753V69.9073H245.472V68.2273H246.72C246.72 68.9473 246.72 70.0033 248.64 70.0033H249.024C250.944 70.0033 250.944 68.9473 250.944 68.0833V67.6993C250.944 66.8353 250.944 65.7793 249.024 65.7793H248.64C246.72 65.7793 246.72 66.8353 246.72 67.5553H245.472V65.8753H244.656ZM247.584 67.8913C247.584 66.5473 247.584 66.5473 248.832 66.5473C250.08 66.5473 250.08 66.5473 250.08 67.8913C250.08 69.2353 250.08 69.2353 248.832 69.2353C247.584 69.2353 247.584 69.2353 247.584 67.8913ZM255.293 65.8753V67.4993H252.941V65.8753H252.125V69.9073H252.941V68.2033H255.293V69.9073H256.109V65.8753H255.293ZM260.732 65.8753H257.484V69.9073H258.3V66.5793H260.732V65.8753ZM261.617 65.8753V71.5393H262.433V69.8113C262.817 69.9073 263.201 70.0033 263.921 70.0033C265.745 70.0033 265.745 68.7553 265.745 68.0833V67.6993C265.745 66.9313 265.745 65.7793 264.017 65.7793C263.057 65.7793 262.529 66.1793 262.337 66.3233L262.001 65.8753H261.617ZM264.881 67.8913C264.881 69.2273 264.881 69.2353 263.585 69.2353C263.297 69.2353 262.817 69.2353 262.433 69.1393V66.8353L263.585 66.5473H263.721C264.881 66.5473 264.881 66.5953 264.881 67.8913ZM268.041 69.9073C270.129 67.1313 270.129 66.9873 270.129 66.5633H270.337V69.9073H271.153V65.8753H270.049C267.961 68.6513 267.961 68.7953 267.961 69.2193H267.745V65.8753H266.929V69.9073H268.041Z" fill="#363636"/>
<path d="M293.969 84.7385C294.386 84.7385 294.724 84.4005 294.724 83.9836C294.724 83.5667 294.386 83.2288 293.969 83.2288C293.552 83.2288 293.214 83.5667 293.214 83.9836C293.214 84.4005 293.552 84.7385 293.969 84.7385Z" fill="#696872" stroke="white" stroke-miterlimit="10"/>
<path d="M249.038 80.1734C249.454 80.1734 249.792 79.8354 249.792 79.4185C249.792 79.0016 249.454 78.6637 249.038 78.6637C248.621 78.6637 248.283 79.0016 248.283 79.4185C248.283 79.8354 248.621 80.1734 249.038 80.1734Z" fill="#696872" stroke="white" stroke-miterlimit="10"/>
<path d="M252.232 73.336V74.104H254.224V79H255.088V74.104H257.08V73.336H252.232ZM262.174 74.968V79H262.99V74.968H262.174ZM257.758 79H259.486C260.494 79 261.358 79 261.358 77.656C261.358 77.176 261.358 76.216 259.678 76.216C259.342 76.216 258.958 76.264 258.574 76.36V74.968H257.758V79ZM259.582 76.984C260.494 76.984 260.494 76.984 260.494 77.656C260.494 78.328 260.494 78.328 259.582 78.328H258.574V76.984H259.582ZM267.536 74.968V76.592H265.184V74.968H264.368V79H265.184V77.296H267.536V79H268.352V74.968H267.536ZM270.103 79H273.615V80.152H274.399V78.328H273.727V74.968H270.447V75.448C270.447 76.4 270.343 77.416 269.871 78.328H269.319V80.152H270.103V79ZM271.231 75.672H272.911V78.328H270.751C271.135 77.408 271.231 76.432 271.231 75.672ZM278.696 79.096L279.304 78.64C279.016 78.256 279.016 78.256 279.016 77.464V76.792C279.016 75.832 279.016 74.872 277.144 74.872C276.856 74.872 276.232 74.872 275.464 75.064V75.832H275.656L276.424 75.64H277.144C278.2 75.64 278.2 75.64 278.2 76.648H277.144C275.128 76.648 275.128 77.32 275.128 77.944C275.128 78.328 275.128 79.096 276.568 79.096C277.56 79.096 278.096 78.696 278.288 78.552L278.696 79.096ZM276.04 77.848C276.04 77.272 276.04 77.272 277.144 77.272H278.2V78.04L277.048 78.328H276.616C276.04 78.328 276.04 78.328 276.04 77.848Z" fill="#363636"/>
<path d="M307.988 85.9965C308.405 85.9965 308.743 85.6585 308.743 85.2417C308.743 84.8248 308.405 84.4868 307.988 84.4868C307.571 84.4868 307.233 84.8248 307.233 85.2417C307.233 85.6585 307.571 85.9965 307.988 85.9965Z" fill="#696872" stroke="white" stroke-miterlimit="10"/>
<path d="M123.948 88.1174C124.365 88.1174 124.703 87.7794 124.703 87.3625C124.703 86.9456 124.365 86.6077 123.948 86.6077C123.531 86.6077 123.193 86.9456 123.193 87.3625C123.193 87.7794 123.531 88.1174 123.948 88.1174Z" fill="#E21A1A" stroke="white" stroke-miterlimit="10"/>
<path d="M98.768 91.704H95.696V89.336H94.832V95H95.696V92.472H98.768V95H99.632V89.336H98.768V91.704ZM101.821 92.984C101.821 91.64 101.821 91.6 103.069 91.6C104.317 91.6 104.317 91.64 104.317 92.984C104.317 94.328 104.317 94.368 103.069 94.368C101.821 94.368 101.821 94.328 101.821 92.984ZM100.957 93.176C100.957 93.944 100.957 95.096 102.877 95.096H103.261C105.181 95.096 105.181 93.944 105.181 93.176V92.792C105.181 92.024 105.181 90.872 103.261 90.872H102.877C100.957 90.872 100.957 92.024 100.957 92.792V93.176ZM106.368 95H108.232C109.192 95 110.16 95 110.16 93.992C110.16 93.656 110.08 93.224 109.312 93.032V92.936C110.08 92.744 110.08 92.312 110.08 91.976C110.08 90.968 109.192 90.968 108.232 90.968H106.368V95ZM108.528 93.272C109.24 93.272 109.248 93.272 109.248 93.8C109.248 94.32 109.248 94.328 108.528 94.328H107.184V93.272H108.528ZM108.448 91.64C109.16 91.64 109.168 91.64 109.168 92.168C109.168 92.688 109.168 92.696 108.448 92.696H107.184V91.64H108.448ZM112.016 92.984C112.016 91.64 112.016 91.6 113.264 91.6C114.512 91.6 114.512 91.64 114.512 92.984C114.512 94.328 114.512 94.368 113.264 94.368C112.016 94.368 112.016 94.328 112.016 92.984ZM111.152 93.176C111.152 93.944 111.152 95.096 113.072 95.096H113.456C115.376 95.096 115.376 93.944 115.376 93.176V92.792C115.376 92.024 115.376 90.872 113.456 90.872H113.072C111.152 90.872 111.152 92.024 111.152 92.792V93.176ZM118.339 95.096C118.627 95.096 119.251 95.096 120.019 94.904V94.136H119.827L119.051 94.328H118.627C117.235 94.328 117.235 94.328 117.235 92.984C117.235 91.64 117.235 91.64 118.339 91.64C119.251 91.64 119.251 91.64 119.443 92.408L120.211 92.216C120.211 91.832 120.211 90.872 118.531 90.872H118.147C116.371 90.872 116.371 91.928 116.371 92.792V93.176C116.371 94.04 116.371 95.096 118.339 95.096ZM122.409 95C124.497 92.224 124.497 92.08 124.497 91.656H124.705V95H125.521V90.968H124.417C122.329 93.744 122.329 93.888 122.329 94.312H122.113V90.968H121.297V95H122.409ZM129.587 90.296C130.019 90.192 130.443 90.08 130.595 89.48L130.643 89.288L129.875 89.096C129.779 89.384 129.787 89.384 129.395 89.48L128.435 89.72C126.803 90.128 126.803 91.208 126.803 92.456V92.768C126.803 94.112 126.803 95.096 128.771 95.096H129.155C131.075 95.096 131.075 94.136 131.075 93.416V92.984C131.075 92.264 131.075 91.304 129.347 91.304C128.195 91.304 127.811 91.568 127.635 91.784L127.491 91.736C127.731 90.776 127.731 90.76 128.627 90.536L129.587 90.296ZM128.963 92.016C130.211 92.016 130.211 92.192 130.211 93.2C130.211 94.208 130.211 94.384 128.899 94.384C127.715 94.384 127.715 94.208 127.715 93.2C127.715 92.192 127.715 92.016 128.963 92.016ZM133.323 95C135.411 92.224 135.411 92.08 135.411 91.656H135.619V95H136.435V90.968H135.331C133.243 93.744 133.243 93.888 133.243 94.312H133.027V90.968H132.211V95H133.323ZM137.813 90.968V96.632H138.629V94.904C139.013 95 139.397 95.096 140.117 95.096C141.941 95.096 141.941 93.848 141.941 93.176V92.792C141.941 92.024 141.941 90.872 140.213 90.872C139.253 90.872 138.725 91.272 138.533 91.416L138.197 90.968H137.813ZM141.077 92.984C141.077 94.32 141.077 94.328 139.781 94.328C139.493 94.328 139.013 94.328 138.629 94.232V91.928L139.781 91.64H139.917C141.077 91.64 141.077 91.688 141.077 92.984ZM144.902 95.096C145.19 95.096 145.814 95.096 146.582 94.904V94.136H146.39L145.614 94.328H145.19C143.798 94.328 143.798 94.328 143.798 92.984C143.798 91.64 143.798 91.64 144.902 91.64C145.814 91.64 145.814 91.64 146.006 92.408L146.774 92.216C146.774 91.832 146.774 90.872 145.094 90.872H144.71C142.934 90.872 142.934 91.928 142.934 92.792V93.176C142.934 94.04 142.934 95.096 144.902 95.096ZM151.94 91.192V90.968H151.028C150.452 91.736 150.116 92.184 150.116 92.6H148.676V90.968H147.86V95H148.676V93.368H150.116C150.116 93.784 150.452 94.232 151.028 95H151.94V94.776L150.588 92.984L151.94 91.192Z" fill="#363636"/>
<path d="M23.5893 28.0529C24.0062 28.0529 24.3442 27.7149 24.3442 27.2981C24.3442 26.8812 24.0062 26.5432 23.5893 26.5432C23.1724 26.5432 22.8345 26.8812 22.8345 27.2981C22.8345 27.7149 23.1724 28.0529 23.5893 28.0529Z" fill="#E21A1A" stroke="white" stroke-miterlimit="10"/>
<path d="M9.768 36.704H6.696V34.336H5.832V40H6.696V37.472H9.768V40H10.632V34.336H9.768V36.704ZM13.2609 40C15.3489 37.224 15.3489 37.08 15.3489 36.656H15.5569V40H16.3729V35.968H15.2689C13.1809 38.744 13.1809 38.888 13.1809 39.312H12.9649V35.968H12.1489V40H13.2609ZM20.3265 35.968V37.6H19.2385C19.2385 37.184 18.9025 36.736 18.3265 35.968H17.4145V36.192L18.7585 37.984L17.4145 39.776V40H18.3265C18.9025 39.232 19.2385 38.784 19.2385 38.368H20.3265V40H21.1425V38.368H22.2305C22.2305 38.784 22.5665 39.232 23.1425 40H24.0545V39.776L22.7025 37.984L24.0545 36.192V35.968H23.1425C22.5665 36.736 22.2305 37.184 22.2305 37.6H21.1425V35.968H20.3265ZM28.2623 35.968V37.592H25.9103V35.968H25.0943V40H25.9103V38.296H28.2623V40H29.0783V35.968H28.2623ZM31.5656 40C33.6536 37.224 33.6536 37.08 33.6536 36.656H33.8616V40H34.6776V35.968H33.5736C31.4856 38.744 31.4856 38.888 31.4856 39.312H31.2696V35.968H30.4536V40H31.5656ZM38.4312 35.36C38.9752 35.36 39.3592 35.36 39.8632 34.768L39.2872 34.336C39.0312 34.688 39.0232 34.688 38.5832 34.688H37.8312C37.3992 34.688 37.3912 34.688 37.1272 34.336L36.5512 34.768C37.0552 35.36 37.4392 35.36 37.9832 35.36H38.4312ZM37.1672 40C39.2552 37.224 39.2552 37.08 39.2552 36.656H39.4632V40H40.2792V35.968H39.1752C37.0872 38.744 37.0872 38.888 37.0872 39.312H36.8712V35.968H36.0552V40H37.1672ZM9.768 46.704H6.696V44.336H5.832V50H6.696V47.472H9.768V50H10.632V44.336H9.768V46.704ZM12.8209 47.984C12.8209 46.64 12.8209 46.6 14.0689 46.6C15.3169 46.6 15.3169 46.64 15.3169 47.984C15.3169 49.328 15.3169 49.368 14.0689 49.368C12.8209 49.368 12.8209 49.328 12.8209 47.984ZM11.9569 48.176C11.9569 48.944 11.9569 50.096 13.8769 50.096H14.2609C16.1809 50.096 16.1809 48.944 16.1809 48.176V47.792C16.1809 47.024 16.1809 45.872 14.2609 45.872H13.8769C11.9569 45.872 11.9569 47.024 11.9569 47.792V48.176ZM17.3677 50H19.2317C20.1917 50 21.1597 50 21.1597 48.992C21.1597 48.656 21.0797 48.224 20.3117 48.032V47.936C21.0797 47.744 21.0797 47.312 21.0797 46.976C21.0797 45.968 20.1917 45.968 19.2317 45.968H17.3677V50ZM19.5277 48.272C20.2397 48.272 20.2477 48.272 20.2477 48.8C20.2477 49.32 20.2477 49.328 19.5277 49.328H18.1837V48.272H19.5277ZM19.4477 46.64C20.1597 46.64 20.1677 46.64 20.1677 47.168C20.1677 47.688 20.1677 47.696 19.4477 47.696H18.1837V46.64H19.4477ZM25.5923 45.968H22.3443V50H23.1603V46.672H25.5923V45.968ZM27.1491 47.984C27.1491 46.64 27.1491 46.6 28.3971 46.6C29.6451 46.6 29.6451 46.64 29.6451 47.984C29.6451 49.328 29.6451 49.368 28.3971 49.368C27.1491 49.368 27.1491 49.328 27.1491 47.984ZM26.2851 48.176C26.2851 48.944 26.2851 50.096 28.2051 50.096H28.5891C30.5091 50.096 30.5091 48.944 30.5091 48.176V47.792C30.5091 47.024 30.5091 45.872 28.5891 45.872H28.2051C26.2851 45.872 26.2851 47.024 26.2851 47.792V48.176ZM31.6958 45.968V51.632H32.5118V49.904C32.8958 50 33.2798 50.096 33.9998 50.096C35.8238 50.096 35.8238 48.848 35.8238 48.176V47.792C35.8238 47.024 35.8238 45.872 34.0958 45.872C33.1358 45.872 32.6078 46.272 32.4158 46.416L32.0798 45.968H31.6958ZM34.9598 47.984C34.9598 49.32 34.9598 49.328 33.6638 49.328C33.3758 49.328 32.8958 49.328 32.5118 49.232V46.928L33.6638 46.64H33.7998C34.9598 46.64 34.9598 46.688 34.9598 47.984ZM37.6803 47.984C37.6803 46.64 37.6803 46.6 38.9283 46.6C40.1763 46.6 40.1763 46.64 40.1763 47.984C40.1763 49.328 40.1763 49.368 38.9283 49.368C37.6803 49.368 37.6803 49.328 37.6803 47.984ZM36.8163 48.176C36.8163 48.944 36.8163 50.096 38.7363 50.096H39.1203C41.0403 50.096 41.0403 48.944 41.0403 48.176V47.792C41.0403 47.024 41.0403 45.872 39.1203 45.872H38.7363C36.8163 45.872 36.8163 47.024 36.8163 47.792V48.176ZM42.6031 50H46.1151V51.152H46.8991V49.328H46.2271V45.968H42.9471V46.448C42.9471 47.4 42.8431 48.416 42.3711 49.328H41.8191V51.152H42.6031V50ZM43.7311 46.672H45.4111V49.328H43.2511C43.6351 48.408 43.7311 47.432 43.7311 46.672Z" fill="#363636"/>
</svg>
