<svg width="299" height="120" viewBox="0 0 299 120" fill="none" xmlns="http://www.w3.org/2000/svg">
<path d="M282.444 75.9116C282.444 75.9116 283.702 77.637 283.522 79.5061C283.342 81.3753 281.437 83.1007 281.078 84.5385C280.718 85.9763 280.287 90.5773 280.287 90.5773" stroke="#696872" stroke-width="2" stroke-miterlimit="10"/>
<path d="M158.253 80.5844C158.253 80.5844 159.691 79.8655 160.949 79.9374C162.207 80.0093 163.465 79.9374 164.112 79.7577C164.759 79.578 165.478 79.1107 166.089 79.4701C166.7 79.8296 167.958 80.6204 168.785 80.189C169.612 79.7577 170.654 78.212 171.373 77.9604C172.092 77.7088 174.069 78.0323 175.039 77.6728C176.01 77.3134 177.843 76.9539 178.921 76.235C180 75.5161 180.647 75.2286 181.977 75.4443C183.307 75.6599 183.594 75.2645 184.313 76.3429C185.032 77.4212 185.104 79.2185 186.829 79.6498C188.555 80.0812 190.064 79.542 191.035 78.9309C192.185 78.212 193.335 78.1401 194.162 77.601C194.989 77.0618 196.211 76.8461 197.469 76.8461C198.727 76.8461 200.273 76.918 201.243 76.6664C202.214 76.4148 203.041 75.6599 204.047 75.588C205.054 75.5161 206.384 75.3005 206.995 74.941C207.606 74.5816 210.517 74.1502 212.027 73.4313C213.537 72.7124 216.772 69.2976 217.706 68.7584C218.641 68.2193 220.762 67.6082 221.66 67.6082C222.559 67.6082 223.278 66.6017 224.464 66.8174C225.65 67.0331 227.34 67.2487 228.706 67.9676C230.071 68.6866 232.48 70.0525 233.738 70.6635C234.996 71.2746 235.607 71.4543 236.901 71.5622C238.195 71.67 239.777 70.5557 240.675 70.5557C241.574 70.5557 243.731 70.1962 245.276 70.1244C246.822 70.0525 248.224 69.4773 249.302 69.8368C250.38 70.1963 252.537 72.353 253.616 73C254.694 73.647 256.491 74.0783 257.57 74.7972C258.648 75.5161 261.883 78.3199 262.602 79.2904C263.321 80.2609 265.909 82.2379 267.814 82.5973C269.719 82.9568 270.042 82.9568 271.049 82.4176C272.055 81.8784 272.918 82.1301 274.212 81.9863C275.506 81.8425 276.081 81.4471 275.65 79.3982C275.219 77.3494 275.003 75.624 276.728 75.0848C278.454 74.5456 280.251 74.4378 281.473 75.2645C282.695 76.0913 283.989 76.1632 284.78 76.5226C285.571 76.8821 286.757 77.1696 287.368 76.235C287.979 75.3005 288.806 75.3364 289.956 75.3364C291.106 75.3364 292.472 74.977 293.371 74.977C294.27 74.977 295.959 75.5161 296.067 75.9834C296.175 76.4507 297.073 77.4931 297.073 77.4931" stroke="#696872" stroke-width="3" stroke-miterlimit="10"/>
<path d="M32.4088 17.9679C32.4088 17.9679 31.2226 19.0463 29.0659 18.4352C26.9092 17.8241 25.8309 16.0269 24.0336 16.1706C22.2363 16.2785 18.534 17.3568 17.0962 17.9679C15.6584 18.579 13.0344 21.203 12.0638 18.579C11.0933 15.955 10.9855 13.9061 9.7993 13.295C8.61311 12.684 7.75042 11.3899 6.4564 10.671C5.12642 9.95212 3.47294 8.9816 2.86188 8.62214C2.25081 8.26269 1.89136 5.85437 1.89136 5.85437" stroke="#E21A1A" stroke-width="3" stroke-miterlimit="10"/>
<path d="M1.60376 4.81193C1.60376 4.81193 4.44343 5.0995 4.87478 4.88382C5.30612 4.66815 5.98908 4.52437 6.5642 4.56032C7.13932 4.59626 8.28957 4.20087 8.72091 4.05709C9.15225 3.91331 9.72738 3.5898 10.626 3.55385C11.5246 3.51791 13.1062 3.26629 14.0767 3.12251C15.0473 3.01468 15.6943 2.65522 17.3118 2.65522C18.9293 2.65522 21.0501 1.90037 22.2723 3.55385C23.4584 5.20733 24.7884 7.61566 25.4354 9.05347C26.0824 10.4553 26.6935 11.7494 27.2686 12.0729C27.8438 12.3964 29.9286 14.589 30.5756 15.3079C31.2226 16.0268 32.7683 18.6149 33.7747 19.19C34.7812 19.8011 36.7222 20.6997 37.2973 20.9513C37.8725 21.2029 38.9508 21.5983 39.5259 22.3891C40.1011 23.1799 41.2873 24.8334 41.6467 25.2288C42.0062 25.6242 42.761 26.8823 42.9767 27.745C43.1924 28.6077 43.6237 30.2611 44.1269 30.7284C44.6302 31.1957 46.3555 31.8787 47.4698 32.2381C48.5841 32.6335 50.3455 32.9211 50.3095 34.3589C50.2736 35.7967 50.3814 38.6723 50.4173 39.0318C50.4533 39.3912 50.7049 39.6069 51.4238 39.7866C52.1068 39.9663 53.4367 40.7571 53.8681 41.8714C54.2994 43.0217 55.3059 42.9857 56.0967 43.7406C56.8875 44.5314 59.9788 45.8254 61.2009 46.5443C62.423 47.2273 64.6876 48.4135 65.9457 49.2043C67.2038 49.9951 69.1089 51.1812 69.7199 51.7564C70.3669 52.3315 71.0858 52.7988 71.1218 53.8771C71.1937 54.9555 71.3734 54.9195 72.2361 55.4587C73.0988 55.9979 76.4776 58.0468 77.0527 58.6938C77.6638 59.3408 79.8205 62.0008 80.5754 63.3667C81.3302 64.7326 82.804 66.458 83.3072 67.2847C83.7745 68.1114 84.8169 70.1603 85.7874 70.7354C86.7939 71.3106 88.3395 71.9935 89.6695 72.2451C90.9995 72.4967 92.7967 72.6765 93.5875 72.6405C94.3783 72.6046 96.0318 72.5327 96.7507 72.7843C97.4696 73.0359 98.7996 73.5751 99.7342 74.1502C100.705 74.7254 101.1 74.977 101.639 75.0489C102.214 75.1207 102.969 74.8691 103.508 75.0848C104.048 75.3005 106.528 76.6664 107.031 77.0618C107.534 77.4572 109.655 78.4636 110.338 78.7512C110.338 78.7512 111.991 79.7936 112.926 79.4342C113.861 79.0747 115.91 77.8885 116.772 77.2775C117.599 76.6664 119.181 77.0258 119.899 76.8102C120.618 76.5945 121.445 76.0913 122.416 75.9834C123.386 75.8756 126.37 75.9834 127.7 76.0913C129.03 76.1991 130.827 76.918 131.761 76.918C132.732 76.918 133.307 76.1991 134.277 76.1991C135.248 76.1991 137.261 76.8102 138.231 77.3853C139.202 77.9964 139.669 78.5715 140.64 78.7153C141.61 78.8231 142.329 78.8231 143.048 78.9669C143.767 79.1107 144.738 79.9374 146.032 79.9374C147.326 79.9374 147.362 80.189 148.548 79.8296C149.734 79.4701 150.704 78.6434 152.394 78.7512C154.083 78.859 155.018 79.3623 156.24 80.0812C157.426 80.8001 158.397 80.4406 158.864 80.9079C159.331 81.3752 159.691 80.8001 160.05 82.3457C160.41 83.8914 161.021 85.5808 161.955 86.2997C162.926 87.0186 163.753 87.1264 164.939 87.2702C166.125 87.3781 168.893 89.1753 169.863 90.1458C170.834 91.1164 173.098 93.8482 174.069 94.8187C175.039 95.7892 174.68 96.2565 175.255 97.3349C175.866 98.4132 177.52 99.0243 177.16 99.9589C176.801 100.929 174.177 103.086 176.19 103.805C178.203 104.524 180.611 104.883 182.768 103.194C184.924 101.505 186.47 99.851 187.44 99.7073C188.411 99.5994 189.238 99.5994 190.316 100.318C191.394 101.037 192.006 101.648 192.724 102.008C193.443 102.367 192.617 103.805 194.054 103.194C195.492 102.583 195.852 101.037 197.541 100.929C199.23 100.822 199.338 101.181 200.309 100.678C201.279 100.21 202.573 98.9883 203.544 98.7727C204.514 98.557 205.808 98.7727 206.312 98.3054C206.779 97.8381 207.031 96.0408 207.642 96.0408C208.253 96.0408 209.187 96.1487 210.158 97.1192C211.128 98.0897 211.847 97.7303 212.674 97.0114C213.501 96.2925 216.376 96.0408 217.095 95.3219C217.814 94.603 218.641 94.9625 218.893 93.0574C219.144 91.1523 218.785 90.1818 219.144 89.2113C219.504 88.2407 219.611 89.1034 220.69 88.2407C221.768 87.414 222.595 85.8324 223.458 84.7541C224.284 83.6757 224.644 82.849 225.363 82.9568C226.082 83.0646 227.519 83.4241 228.13 82.7052C228.742 81.9863 229.568 80.8001 230.395 80.2969C231.222 79.8296 232.444 80.0452 233.522 79.4701C234.601 78.859 235.931 78.7512 236.757 78.3918C237.584 78.0323 238.447 78.0323 239.741 78.4996C241.071 78.9669 243.335 78.7512 244.162 78.8591C244.989 78.9669 245.708 79.1107 246.427 79.9374C247.145 80.7641 247.145 81.6268 248.835 82.3457C250.524 83.0646 252.537 83.6757 253.759 84.3946C254.946 85.1135 255.916 86.2997 256.527 87.3781C257.138 88.4564 258.432 88.9237 259.87 89.4269C261.308 89.9302 263.465 91.1164 264.291 91.5836C265.118 92.0509 265.621 93.1293 267.275 93.1293C268.964 93.1293 270.869 93.2371 271.948 92.4104C273.026 91.5836 273.493 91.0804 274.931 91.2242C276.369 91.368 278.058 91.6915 278.885 91.332C279.712 90.9726 281.653 89.7864 282.48 89.8942C283.306 90.0021 284.385 88.5642 284.636 91.332C284.888 94.0998 284.636 95.6454 284.636 97.0833C284.636 98.5211 285.463 103.553 285.715 104.991C285.966 106.429 286.074 110.275 285.822 111.569C285.571 112.899 285.463 114.912 285.463 114.912C285.463 114.912 286.434 118.219 286.434 119.333" stroke="#E21A1A" stroke-width="3" stroke-miterlimit="10"/>
<path d="M234.385 63.798C234.385 63.798 237.189 66.9612 237.332 68.2911C237.476 69.6211 237.872 70.8073 237.872 71.7059C237.872 72.6046 237.584 74.2221 237.332 74.7613C237.081 75.3005 236.793 78.3918 236.793 78.3918" stroke="#696872" stroke-width="2" stroke-miterlimit="10"/>
</svg>
