<svg width="255" height="173" viewBox="0 0 255 173" fill="none" xmlns="http://www.w3.org/2000/svg">
<path d="M175.771 161.99V161.39H173.851C173.011 162.51 172.411 163.31 172.411 164.15H171.751V161.39H169.951V168.47H171.751V165.71H172.411C172.411 166.55 173.011 167.35 173.851 168.47H175.771V167.87L173.551 164.93L175.771 161.99ZM178.389 165.95V161.39H176.709V168.47H178.869C180.129 165.95 180.669 164.87 180.669 163.91H181.029V168.47H182.709V161.39H180.549C179.289 163.91 178.749 164.99 178.749 165.95H178.389ZM183.586 161.39V162.95H185.506V168.47H187.306V162.95H189.226V161.39H183.586ZM191.01 161.39L188.85 167.87V168.47H190.53L191.03 166.97H193.39L193.89 168.47H195.63V167.87L193.47 161.39H191.01ZM192.47 163.07C192.47 164.21 192.71 164.93 192.89 165.47H191.53C191.71 164.93 191.95 164.21 191.95 163.07H192.47ZM198.193 165.95V161.39H196.513V168.47H198.673C199.933 165.95 200.473 164.87 200.473 163.91H200.833V168.47H202.513V161.39H200.353C199.093 163.91 198.553 164.99 198.553 165.95H198.193ZM199.153 159.71C198.563 159.71 198.563 159.71 198.293 159.35L197.493 159.95C198.213 160.91 198.693 160.91 199.453 160.91H199.573C200.333 160.91 200.813 160.91 201.533 159.96L200.733 159.35C200.463 159.71 200.463 159.71 199.873 159.71H199.153Z" fill="#CBCDD5"/>
<path d="M70.62 141.52V140.92H68.7C67.86 142.04 67.26 142.84 67.26 143.68H66.6V140.92H64.8V148H66.6V145.24H67.26C67.26 146.08 67.86 146.88 68.7 148H70.62V147.4L68.4 144.46L70.62 141.52ZM72.9978 140.92L70.8378 147.4V148H72.5178L73.0178 146.5H75.3778L75.8778 148H77.6178V147.4L75.4578 140.92H72.9978ZM74.4578 142.6C74.4578 143.74 74.6978 144.46 74.8778 145H73.5178C73.6978 144.46 73.9378 143.74 73.9378 142.6H74.4578ZM80.5612 148.2C83.4412 148.2 83.4412 146.62 83.4412 146.2C83.4412 145.84 83.4412 144.88 82.2412 144.58V144.34C83.4412 144.04 83.4412 143.08 83.4412 142.72C83.4412 142.3 83.4412 140.72 80.5612 140.72C80.0812 140.72 79.6612 140.72 78.1412 141.1V142.76H78.6212L79.9612 142.4H80.8012C81.4012 142.4 81.4012 142.4 81.4012 143.04C81.4012 143.68 81.4012 143.68 80.8012 143.68H79.7012V145.24H80.8012C81.4012 145.24 81.4012 145.24 81.4012 145.88C81.4012 146.52 81.4012 146.52 80.8012 146.52H79.9612L78.6212 146.16H78.1412V147.82C79.6612 148.2 80.0812 148.2 80.5612 148.2ZM86.1814 140.92L84.0214 147.4V148H85.7014L86.2014 146.5H88.5614L89.0614 148H90.8014V147.4L88.6414 140.92H86.1814ZM87.6414 142.6C87.6414 143.74 87.8814 144.46 88.0614 145H86.7014C86.8814 144.46 87.1214 143.74 87.1214 142.6H87.6414ZM97.5048 147.41L95.7348 144.46L97.5048 141.51V140.92H95.6448C94.9248 142.12 94.5648 142.72 94.5648 143.68H94.0848C94.0848 142.72 93.7248 142.12 93.0048 140.92H91.1448V141.51L92.9148 144.46L91.1448 147.41V148H93.0048C93.7248 146.8 94.0848 146.2 94.0848 145.24H94.5648C94.5648 146.2 94.9248 146.8 95.6448 148H97.5048V147.41ZM100.972 140.72C98.1523 140.72 98.1523 143.26 98.1523 144.16V144.76C98.1523 145.9 98.1523 148.2 101.152 148.2C101.632 148.2 102.152 148.2 103.672 147.82V146.16H103.192L101.752 146.52H101.392C100.072 146.52 100.072 146.52 100.072 144.64V144.28C100.072 142.4 100.072 142.4 101.092 142.4C101.732 142.4 101.732 142.4 102.052 143.68L103.852 143.23C103.852 142.72 103.852 140.72 101.212 140.72H100.972ZM104.314 140.92V142.48H106.234V148H108.034V142.48H109.954V140.92H104.314ZM111.738 140.92L109.578 147.4V148H111.258L111.758 146.5H114.118L114.618 148H116.358V147.4L114.198 140.92H111.738ZM113.198 142.6C113.198 143.74 113.438 144.46 113.618 145H112.258C112.438 144.46 112.678 143.74 112.678 142.6H113.198ZM119.041 140.92H117.241V148H119.041V145.24H121.081V148H122.881V140.92H121.081V143.68H119.041V140.92Z" fill="#CBCDD5"/>
<path d="M12.4176 -4.17742H12.1176C10.9176 -4.17742 8.99762 -4.17742 8.99762 -1.34742C8.99762 1.48258 10.9176 1.48258 12.1176 1.48258H12.4176V2.64258H14.2176V1.48258H14.5176C15.7176 1.48258 17.6376 1.47258 17.6376 -1.34742C17.6376 -4.16742 15.7176 -4.17742 14.5176 -4.17742H14.2176V-5.03742H12.4176V-4.17742ZM14.2176 -2.61742H14.8176C15.7176 -2.61742 15.7176 -2.61742 15.7176 -1.34742C15.7176 -0.077422 15.7176 -0.077422 14.8176 -0.077422H14.2176V-2.61742ZM12.4176 -0.077422H11.8176C10.9176 -0.077422 10.9176 -0.077422 10.9176 -1.34742C10.9176 -2.61742 10.9176 -2.61742 11.8176 -2.61742H12.4176V-0.077422ZM20.5591 0.122578V-4.43742H18.8791V2.64258H21.0391C22.2991 0.122578 22.8391 -0.957422 22.8391 -1.91742H23.1991V2.64258H24.8791V-4.43742H22.7191C21.4591 -1.91742 20.9191 -0.837422 20.9191 0.122578H20.5591ZM28.2768 -4.43742H26.4768V2.64258H28.2768V-0.117422H30.3168V2.64258H32.1168V-4.43742H30.3168V-1.67742H28.2768V-4.43742ZM34.6431 -4.43742C34.6131 -2.54742 34.5931 -1.45742 34.3031 0.532578C34.1831 1.35258 33.8831 1.37258 33.0131 1.37258V2.66258C35.5131 2.66258 35.7131 2.44258 35.9331 0.742578C36.1531 -1.00742 36.1931 -2.04742 36.2131 -2.87742H37.5831V2.64258H39.3831V-4.43742H34.6431ZM44.3987 -0.897422H43.2587C42.5987 -0.897422 42.5987 -0.897422 42.5987 -1.87742C42.5987 -2.87742 42.5987 -2.87742 43.2587 -2.87742H44.3987V-0.897422ZM40.5787 2.04258V2.64258H42.4987C43.0087 1.96258 43.3087 1.56258 43.3087 0.662578H44.3987V2.64258H46.1987V-4.43742H43.7387C42.5987 -4.43742 40.6787 -4.43742 40.6787 -2.09742C40.6787 -0.757422 41.1187 -0.427422 41.9587 0.202578L40.5787 2.04258ZM49.5951 -4.43742H47.7951V2.64258H49.5951V-0.117422H51.6351V2.64258H53.4351V-4.43742H51.6351V-1.67742H49.5951V-4.43742ZM58.9314 -2.87742V1.08258H56.8914C57.5614 -0.357422 57.6114 -2.15742 57.6114 -2.87742H58.9314ZM60.1914 2.64258V4.18258H61.7514V1.08258H60.7314V-4.43742H56.0514V-3.78742C56.0514 -2.31742 56.0114 -0.707422 55.2314 1.08258H54.3514V4.18258H55.9114V2.64258H60.1914ZM64.4361 0.122578V-4.43742H62.7561V2.64258H64.9161C66.1761 0.122578 66.7161 -0.957422 66.7161 -1.91742H67.0761V2.64258H68.7561V-4.43742H66.5961C65.3361 -1.91742 64.7961 -0.837422 64.7961 0.122578H64.4361ZM73.7737 -0.897422H72.6337C71.9737 -0.897422 71.9737 -0.897422 71.9737 -1.87742C71.9737 -2.87742 71.9737 -2.87742 72.6337 -2.87742H73.7737V-0.897422ZM69.9537 2.04258V2.64258H71.8737C72.3837 1.96258 72.6837 1.56258 72.6837 0.662578H73.7737V2.64258H75.5737V-4.43742H73.1137C71.9737 -4.43742 70.0537 -4.43742 70.0537 -2.09742C70.0537 -0.757422 70.4937 -0.427422 71.3337 0.202578L69.9537 2.04258Z" fill="#CBCDD5"/>
<path d="M101.392 64.208H104.752C107.216 64.208 107.248 64.208 107.248 66.608C107.248 68.976 107.248 69.008 104.752 69.008H101.392V64.208ZM99.664 74H101.392V70.544H103.6C107.248 70.544 109.072 70.544 109.072 66.608C109.072 62.672 107.248 62.672 103.6 62.672H99.664V74ZM116.145 62.416C111.153 62.416 111.153 65.36 111.153 67.856V68.816C111.153 71.312 111.153 74.256 116.145 74.256H116.977C121.969 74.256 121.969 71.312 121.969 68.816V67.856C121.969 65.36 121.969 62.416 116.977 62.416H116.145ZM113.073 68.144C113.073 64.128 113.073 63.984 116.561 63.984C120.033 63.984 120.049 64.112 120.049 68.144V68.528C120.049 72.544 120.049 72.688 116.561 72.688C113.089 72.688 113.073 72.56 113.073 68.528V68.144ZM134.132 66C134.132 64.88 134.132 62.416 129.62 62.416H129.044C124.34 62.416 124.34 65.36 124.34 67.856V68.816C124.34 71.504 124.34 74.256 129.332 74.256C130.292 74.256 131.412 74.256 133.844 73.648V71.984H133.268L130.964 72.56H130.292C126.26 72.56 126.26 72.56 126.26 68.624V68.048C126.26 64.112 126.26 64.112 129.332 64.112C131.892 64.112 131.892 64.112 132.468 66.416L134.132 66ZM145.914 66C145.914 64.88 145.914 62.416 141.402 62.416H140.826C136.122 62.416 136.122 65.36 136.122 67.856V68.816C136.122 71.504 136.122 74.256 141.114 74.256C142.074 74.256 143.194 74.256 145.626 73.648V71.984H145.05L142.746 72.56H142.074C138.042 72.56 138.042 72.56 138.042 68.624V68.048C138.042 64.112 138.042 64.112 141.114 64.112C143.674 64.112 143.674 64.112 144.25 66.416L145.914 66ZM150.111 71.888V62.672H148.383V74H150.463L155.215 67.056C156.015 65.888 156.079 65.328 156.079 64.784H156.575V74H158.303V62.672H156.223L151.279 69.952C150.639 70.896 150.607 71.392 150.607 71.888H150.111ZM169.025 68.624H165.537C163.233 68.624 163.233 68.624 163.233 66.416C163.233 64.208 163.233 64.208 165.537 64.208H169.025V68.624ZM160.977 73.424V74H162.897C164.049 72.464 164.769 71.504 164.769 70.16H169.025V74H170.753V62.672H167.073C163.233 62.672 161.313 62.672 161.313 66.416C161.313 68.576 161.889 69.008 163.425 70.16L160.977 73.424Z" fill="#CBCDD5"/>
<path d="M0.112 106.088V108.272H2.8V116H5.32V108.272H8.008V106.088H0.112ZM11.7611 108.272H13.2731C14.2811 108.272 14.2811 108.272 14.2811 109.84C14.2811 111.38 14.2811 111.38 13.2731 111.38H11.7611V108.272ZM9.24109 116H11.7611V113.564H12.6011C14.2811 113.564 16.9691 113.564 16.9691 109.84C16.9691 106.088 14.2811 106.088 12.6011 106.088H9.24109V116ZM19.9661 106.088L16.9421 115.16V116H19.2941L19.9941 113.9H23.2981L23.9981 116H26.4341V115.16L23.4101 106.088H19.9661ZM22.0101 108.44C22.0101 110.036 22.3461 111.044 22.5981 111.8H20.6941C20.9461 111.044 21.2821 110.036 21.2821 108.44H22.0101ZM30.1908 106.088H27.6708V116H30.1908V112.136H33.0468V116H35.5668V106.088H33.0468V109.952H30.1908V106.088ZM41.3296 105.808C37.3816 105.808 37.3816 109.364 37.3816 110.624V111.464C37.3816 113.06 37.3816 116.28 41.5816 116.28C42.2536 116.28 42.9816 116.28 45.1096 115.748V113.424H44.4376L42.4216 113.928H41.9176C40.0696 113.928 40.0696 113.928 40.0696 111.296V110.792C40.0696 108.16 40.0696 108.16 41.4976 108.16C42.3936 108.16 42.3936 108.16 42.8416 109.952L45.3616 109.322C45.3616 108.608 45.3616 105.808 41.6656 105.808H41.3296ZM50.5445 105.808C46.5965 105.808 46.5965 109.364 46.5965 110.624V111.464C46.5965 113.06 46.5965 116.28 50.7965 116.28C51.4685 116.28 52.1965 116.28 54.3245 115.748V113.424H53.6525L51.6365 113.928H51.1325C49.2845 113.928 49.2845 113.928 49.2845 111.296V110.792C49.2845 108.16 49.2845 108.16 50.7125 108.16C51.6085 108.16 51.6085 108.16 52.0565 109.952L54.5765 109.322C54.5765 108.608 54.5765 105.808 50.8805 105.808H50.5445ZM58.5833 112.472V106.088H56.2313V116H59.2553C61.0193 112.472 61.7753 110.96 61.7753 109.616H62.2793V116H64.6313V106.088H61.6073C59.8433 109.616 59.0873 111.128 59.0873 112.472H58.5833ZM69.388 113.816V111.996H70.9C71.74 111.996 71.74 112.01 71.74 112.906C71.74 113.816 71.74 113.816 70.9 113.816H69.388ZM69.388 109.812V108.272H73.588V106.088H66.868V116H70.144C71.74 116 74.428 116 74.428 112.892C74.428 109.812 71.74 109.812 70.144 109.812H69.388Z" fill="#E21A1A"/>
<path d="M6.2674 117.452H5.69139C1.46739 117.452 1.46739 119.82 1.46739 121.164V121.548C1.46739 123.084 1.46739 125.196 5.30739 125.196H5.69139C7.7074 125.196 8.34739 124.732 8.66739 124.492V124.62C8.66739 127.692 8.66739 127.692 5.49939 127.692H4.73139L2.42739 127.116H1.85139V128.684C4.28339 129.292 5.40339 129.292 5.88339 129.292C10.4914 129.292 10.4914 126.732 10.4914 123.468V122.492C10.4914 119.628 10.4914 117.452 6.2674 117.452ZM5.59539 123.66C3.19539 123.66 3.19539 123.66 3.19539 121.356C3.19539 119.052 3.19539 119.052 5.97939 119.052C8.66739 119.052 8.66739 119.052 8.66739 121.356C8.66739 123.66 8.66739 123.66 5.59539 123.66ZM21.7591 117.452C17.4711 117.452 17.4711 120.012 17.4711 120.78V120.876L18.9431 121.26C19.5191 119.052 19.5191 119.052 21.7591 119.052C24.3511 119.052 24.3511 119.052 24.3511 120.78C24.3511 122.412 24.3511 122.572 21.9511 123.18L20.0311 123.66C17.5351 124.284 17.5351 125.612 17.5351 126.764V129.036H25.9831V127.5H19.0711V126.764C19.0711 125.516 19.0711 125.516 20.2231 125.228L22.9111 124.556C26.1751 123.74 26.1751 122.316 26.1751 120.796C26.1751 119.436 26.1751 117.452 21.7591 117.452ZM35.4903 122.956C37.5383 122.444 37.5383 121.164 37.5383 120.396C37.5383 119.436 37.5383 117.452 33.0263 117.452C28.5143 117.452 28.5143 119.436 28.5143 120.78C28.5143 121.356 28.5143 122.892 30.5623 123.404V123.788C28.5143 124.3 28.5143 125.58 28.5143 126.348C28.5143 127.308 28.5143 129.292 33.0263 129.292C37.5383 129.292 37.5383 127.308 37.5383 125.964C37.5383 125.388 37.5383 123.852 35.4903 123.34V122.956ZM31.3943 122.092C30.2423 121.804 30.2423 121.804 30.2423 120.492C30.2423 119.052 30.2423 119.052 33.0263 119.052C35.8103 119.052 35.8103 119.052 35.8103 120.492C35.8103 121.468 35.8103 121.468 34.8503 122.188L34.0823 122.764L31.3943 122.092ZM34.6583 124.652C35.8103 124.94 35.8103 124.94 35.8103 126.252C35.8103 127.692 35.8103 127.692 33.0263 127.692C30.2423 127.692 30.2423 127.692 30.2423 126.252C30.2423 125.276 30.2423 125.276 31.2023 124.556L31.9703 123.98L34.6583 124.652ZM46.6934 122.956C48.7414 122.444 48.7414 121.164 48.7414 120.396C48.7414 119.436 48.7414 117.452 44.2294 117.452C39.7174 117.452 39.7174 119.436 39.7174 120.78C39.7174 121.356 39.7174 122.892 41.7654 123.404V123.788C39.7174 124.3 39.7174 125.58 39.7174 126.348C39.7174 127.308 39.7174 129.292 44.2294 129.292C48.7414 129.292 48.7414 127.308 48.7414 125.964C48.7414 125.388 48.7414 123.852 46.6934 123.34V122.956ZM42.5974 122.092C41.4454 121.804 41.4454 121.804 41.4454 120.492C41.4454 119.052 41.4454 119.052 44.2294 119.052C47.0134 119.052 47.0134 119.052 47.0134 120.492C47.0134 121.468 47.0134 121.468 46.0534 122.188L45.2854 122.764L42.5974 122.092ZM45.8614 124.652C47.0134 124.94 47.0134 124.94 47.0134 126.252C47.0134 127.692 47.0134 127.692 44.2294 127.692C41.4454 127.692 41.4454 127.692 41.4454 126.252C41.4454 125.276 41.4454 125.276 42.4054 124.556L43.1734 123.98L45.8614 124.652ZM64.0091 121.42V120.972H62.1851C61.0331 122.508 60.3611 123.404 60.3611 124.236H57.4811V120.972H55.8491V129.036H57.4811V125.772H60.3611C60.3611 126.604 61.0331 127.5 62.1851 129.036H64.0091V128.588L61.3051 125.004L64.0091 121.42ZM66.0835 120.972V129.036H67.7155V122.412H68.1315C68.1315 122.796 68.1315 122.796 70.6275 129.036H72.7715C75.2675 122.796 75.2675 122.796 75.2675 122.316H75.6835V129.036H77.3155V120.972H74.4035C71.9075 126.972 71.9075 126.972 71.9075 127.692H71.4915C71.4915 126.972 71.4915 126.972 68.9955 120.972H66.0835Z" fill="#E21A1A"/>
<path d="M183.04 90.6275V92.9315H184.672V90.6275H186.4V89.1875H184.672V84.9635H184.192L183.04 85.2515V89.1875H178.624V88.8035L181.12 85.4755C182.176 84.0675 182.752 83.2995 182.752 81.9875V81.6035H180.928V81.7955C180.928 83.2035 180.928 83.2035 178.528 86.4035L176.8 88.7075V90.6275H183.04ZM197.732 87.8435C199.94 87.8435 199.94 87.8435 199.94 89.6675C199.94 91.5875 199.94 91.5875 197.348 91.5875H196.004L193.7 91.0115H193.124V92.5795C195.556 93.1875 196.772 93.1875 197.54 93.1875C201.764 93.1875 201.764 90.7235 201.764 89.8595V89.4755C201.764 86.5955 199.652 86.5955 198.628 86.5955H198.116V86.2435L199.012 85.5715C201.38 83.7955 201.38 83.7955 201.38 82.9475V81.6035H193.124V84.6755H194.564V83.1395H199.588V83.5075L195.044 86.9155L196.1 88.3235C196.74 87.8435 197.348 87.8435 197.732 87.8435ZM208.455 81.3475C206.151 81.3475 203.943 81.4115 203.943 86.7875V87.7475C203.943 93.1875 206.151 93.1875 208.455 93.1875H208.839C211.143 93.1875 213.351 93.1875 213.351 87.7475V86.7875C213.351 81.4115 211.143 81.3475 208.839 81.3475H208.455ZM205.767 87.0755C205.767 82.9475 205.767 82.9475 208.647 82.9475C211.527 82.9475 211.527 82.9475 211.527 87.0755V87.4595C211.527 91.5875 211.527 91.5875 208.647 91.5875C205.767 91.5875 205.767 91.5875 205.767 87.4595V87.0755ZM219.658 81.3475C217.354 81.3475 215.146 81.4115 215.146 86.7875V87.7475C215.146 93.1875 217.354 93.1875 219.658 93.1875H220.042C222.346 93.1875 224.554 93.1875 224.554 87.7475V86.7875C224.554 81.4115 222.346 81.3475 220.042 81.3475H219.658ZM216.97 87.0755C216.97 82.9475 216.97 82.9475 219.85 82.9475C222.73 82.9475 222.73 82.9475 222.73 87.0755V87.4595C222.73 91.5875 222.73 91.5875 219.85 91.5875C216.97 91.5875 216.97 91.5875 216.97 87.4595V87.0755ZM239.63 85.3155V84.8675H237.806C236.654 86.4035 235.982 87.2995 235.982 88.1315H233.102V84.8675H231.47V92.9315H233.102V89.6675H235.982C235.982 90.4995 236.654 91.3955 237.806 92.9315H239.63V92.4835L236.926 88.8995L239.63 85.3155ZM241.704 84.8675V92.9315H243.336V86.3075H243.752C243.752 86.6915 243.752 86.6915 246.248 92.9315H248.392C250.888 86.6915 250.888 86.6915 250.888 86.2115H251.304V92.9315H252.936V84.8675H250.024C247.528 90.8675 247.528 90.8675 247.528 91.5875H247.112C247.112 90.8675 247.112 90.8675 244.616 84.8675H241.704Z" fill="#696872"/>
<path d="M179.874 77.816V75.996H181.386C182.226 75.996 182.226 76.01 182.226 76.906C182.226 77.816 182.226 77.816 181.386 77.816H179.874ZM179.874 73.812V72.272H184.074V70.088H177.354V80H180.63C182.226 80 184.914 80 184.914 76.892C184.914 73.812 182.226 73.812 180.63 73.812H179.874ZM188.585 70.088L185.561 79.16V80H187.913L188.613 77.9H191.917L192.617 80H195.053V79.16L192.029 70.088H188.585ZM190.629 72.44C190.629 74.036 190.965 75.044 191.217 75.8H189.313C189.565 75.044 189.901 74.036 189.901 72.44H190.629ZM196.29 70.088V80H198.726V72.44H199.23C199.23 74.12 199.23 74.12 200.994 80H203.346C205.11 74.12 205.11 74.12 205.11 72.44H205.614V80H208.05V70.088H203.934C202.422 75.128 202.422 75.128 202.422 76.808H201.918C201.918 75.128 201.918 75.128 200.406 70.088H196.29Z" fill="#696872"/>
</svg>
