<svg width="177" height="91" viewBox="0 0 177 91" fill="none" xmlns="http://www.w3.org/2000/svg">
<g filter="url(#filter0_dd)">
<path d="M164.795 39.8128C164.239 39.4971 163.465 39.0358 161.701 38.1374C159.332 36.9476 157.302 35.078 156.311 34.0824C156.19 33.961 156.335 33.7425 156.504 33.8153C158.776 34.7866 161.435 34.9566 163.151 34.9323C163.562 34.9323 163.683 34.3738 163.296 34.2038C161.435 33.3297 158.655 31.8971 157.592 31.0958C157.398 30.9502 157.519 30.6345 157.761 30.6588C158.438 30.7073 159.574 30.7802 160.541 30.853C160.951 30.8773 161.121 30.3431 160.758 30.1246C160.154 29.7604 159.429 29.3233 158.631 28.7163L157.132 27.478C157.012 27.3808 157.084 27.1137 157.229 27.1137H158.148C158.365 27.1137 158.462 26.8952 158.268 26.7738C157.205 26.1425 156.432 25.4383 155.996 24.977C155.827 24.807 155.972 24.5399 156.214 24.5642L159.163 24.9042C159.429 24.9284 159.525 24.5885 159.308 24.4671C157.833 23.6173 156.214 22.2575 155.682 21.3834C155.537 21.1406 155.706 20.8249 155.996 20.8492L157.132 20.922C157.398 20.9463 157.495 20.5821 157.277 20.4607C156.021 19.7323 154.885 18.6639 154.401 18.0569C154.256 17.8626 154.425 17.5955 154.643 17.6441L156.117 17.8869C156.383 17.9355 156.552 17.5955 156.335 17.4256C155.005 16.2843 153.942 15.1188 153.362 14.4875C153.265 14.3661 153.362 14.1962 153.507 14.2204C153.749 14.269 154.087 14.3419 154.425 14.4147C154.715 14.4875 154.909 14.1476 154.691 13.9291C153.193 12.4236 151.501 9.8984 151.501 9C151.501 9.8984 149.809 12.4236 148.31 13.9291C148.093 14.1233 148.286 14.4875 148.576 14.4147C148.914 14.3419 149.253 14.269 149.495 14.2204C149.64 14.1962 149.736 14.3661 149.64 14.4875C149.06 15.0946 147.972 16.2843 146.667 17.4256C146.449 17.5955 146.618 17.9355 146.884 17.8869L148.359 17.6441C148.6 17.5955 148.745 17.8626 148.6 18.0569C148.093 18.6882 146.981 19.7323 145.724 20.4607C145.506 20.5821 145.603 20.9463 145.869 20.922L147.005 20.8492C147.295 20.8249 147.464 21.1406 147.319 21.3834C146.763 22.2575 145.168 23.6415 143.694 24.4671C143.476 24.5885 143.573 24.9284 143.839 24.9042L146.787 24.5642C147.029 24.5399 147.174 24.8313 147.005 25.0013C146.57 25.4869 145.796 26.1182 144.733 26.7738C144.54 26.8952 144.612 27.1137 144.854 27.1137H145.772C145.917 27.1137 145.99 27.3808 145.869 27.478L144.37 28.692C143.597 29.299 142.848 29.7847 142.243 30.1246C141.905 30.3431 142.05 30.8773 142.461 30.853C143.428 30.7802 144.564 30.7073 145.241 30.6588C145.482 30.6345 145.603 30.9502 145.41 31.0958C144.346 31.8971 141.591 33.3297 139.706 34.1553C139.319 34.3252 139.44 34.8837 139.851 34.8837C141.567 34.908 144.225 34.7623 146.497 33.7668C146.667 33.6939 146.812 33.9125 146.691 34.0339C145.7 35.0294 143.669 36.899 141.301 38.0888C139.56 38.9872 138.787 39.4486 138.207 39.7642C137.844 39.9585 137.989 40.5169 138.4 40.5412C139.681 40.5655 141.446 40.5655 142.944 40.4441C144.709 40.2741 145.917 40.007 146.57 39.8128C146.739 39.7642 146.884 39.9585 146.763 40.1042C146.28 40.7355 145.265 41.901 143.404 43.115C143.089 43.3335 143.234 43.8192 143.621 43.8192C145.192 43.7949 148.044 43.6492 149.978 42.7994V47H153.12V42.7994C155.054 43.6492 157.833 43.8192 159.404 43.8192C159.791 43.8192 159.912 43.3093 159.574 43.115C157.713 41.901 156.673 40.7355 156.214 40.1042C156.093 39.9585 156.238 39.7642 156.407 39.8128C157.06 39.9827 158.293 40.2741 160.033 40.4441C161.531 40.5898 163.296 40.5898 164.577 40.5412C165.012 40.5655 165.157 40.007 164.795 39.8128Z" fill="white"/>
</g>
<path d="M164.787 40.2151C164.21 39.8893 163.408 39.413 161.578 38.4856C159.122 37.2574 157.017 35.3273 155.989 34.2996C155.863 34.1743 156.014 33.9487 156.189 34.0239C158.546 35.0265 161.303 35.202 163.082 35.1769C163.509 35.1769 163.634 34.6004 163.233 34.425C161.303 33.5226 158.42 32.0437 157.317 31.2165C157.117 31.0661 157.242 30.7403 157.493 30.7654C158.195 30.8155 159.373 30.8907 160.375 30.9659C160.801 30.9909 160.977 30.4395 160.601 30.2139C159.974 29.8379 159.222 29.3867 158.395 28.7601L156.841 27.4817C156.716 27.3815 156.791 27.1058 156.941 27.1058H157.894C158.119 27.1058 158.22 26.8802 158.019 26.7548C156.916 26.1031 156.114 25.3762 155.663 24.9C155.488 24.7245 155.638 24.4488 155.889 24.4739L158.947 24.8248C159.222 24.8498 159.323 24.4989 159.097 24.3736C157.568 23.4963 155.889 22.0926 155.337 21.1903C155.187 20.9396 155.362 20.6137 155.663 20.6388L156.841 20.714C157.117 20.7391 157.217 20.3631 156.991 20.2378C155.688 19.4858 154.51 18.3829 154.009 17.7563C153.858 17.5557 154.034 17.28 154.259 17.3301L155.788 17.5808C156.064 17.6309 156.239 17.28 156.014 17.1045C154.635 15.9265 153.532 14.7233 152.931 14.0716C152.831 13.9463 152.931 13.7708 153.081 13.7959C153.332 13.846 153.683 13.9212 154.034 13.9964C154.334 14.0716 154.535 13.7207 154.309 13.4951C152.755 11.941 151.001 9.33417 151.001 8.40674C151.001 9.33417 149.246 11.941 147.692 13.4951C147.466 13.6956 147.667 14.0716 147.968 13.9964C148.319 13.9212 148.67 13.846 148.92 13.7959C149.071 13.7708 149.171 13.9463 149.071 14.0716C148.469 14.6982 147.341 15.9265 145.988 17.1045C145.762 17.28 145.937 17.6309 146.213 17.5808L147.742 17.3301C147.993 17.28 148.143 17.5557 147.993 17.7563C147.466 18.408 146.313 19.4858 145.01 20.2378C144.784 20.3631 144.885 20.7391 145.16 20.714L146.339 20.6388C146.639 20.6137 146.815 20.9396 146.664 21.1903C146.088 22.0926 144.434 23.5214 142.905 24.3736C142.679 24.4989 142.779 24.8498 143.055 24.8248L146.113 24.4739C146.364 24.4488 146.514 24.7496 146.339 24.925C145.887 25.4264 145.085 26.0781 143.982 26.7548C143.782 26.8802 143.857 27.1058 144.108 27.1058H145.06C145.211 27.1058 145.286 27.3815 145.16 27.4817L143.606 28.735C142.804 29.3617 142.027 29.863 141.401 30.2139C141.05 30.4395 141.2 30.9909 141.626 30.9659C142.629 30.8907 143.807 30.8155 144.509 30.7654C144.759 30.7403 144.885 31.0661 144.684 31.2165C143.581 32.0437 140.724 33.5226 138.769 34.3748C138.368 34.5503 138.493 35.1268 138.919 35.1268C140.699 35.1519 143.456 35.0015 145.812 33.9738C145.988 33.8986 146.138 34.1242 146.013 34.2495C144.985 35.2772 142.879 37.2072 140.423 38.4355C138.618 39.3629 137.816 39.8391 137.215 40.165C136.839 40.3655 136.989 40.942 137.415 40.9671C138.744 40.9922 140.573 40.9922 142.127 40.8668C143.957 40.6914 145.211 40.4157 145.887 40.2151C146.063 40.165 146.213 40.3655 146.088 40.5159C145.587 41.1676 144.534 42.3708 142.604 43.6241C142.278 43.8497 142.428 44.351 142.829 44.351C144.459 44.3259 147.416 44.1755 149.422 43.2982V47.6346H152.68V43.2982C154.685 44.1755 157.568 44.351 159.197 44.351C159.598 44.351 159.724 43.8246 159.373 43.6241C157.443 42.3708 156.365 41.1676 155.889 40.5159C155.763 40.3655 155.914 40.165 156.089 40.2151C156.766 40.3906 158.044 40.6914 159.849 40.8668C161.403 41.0172 163.233 41.0172 164.561 40.9671C165.012 40.9922 165.163 40.4157 164.787 40.2151Z" fill="#CBCDD5"/>
<g filter="url(#filter1_d)">
<path d="M112.905 34.638C112.32 34.2301 111.752 33.7512 111.238 33.2723C113.721 33.8576 112.089 31.5341 112.089 31.5341C115.016 31.6583 112.905 29.9378 112.905 29.9378C110.901 28.5189 109.003 26.2487 109.003 26.2487C111.007 26.7453 109.819 25.149 109.819 25.149C112.426 25.8939 110.369 24.1025 110.369 24.1025C109.127 23.127 107.655 21.0873 107.655 21.0873C109.659 21.8855 108.524 20.4134 108.524 20.4134C110.812 21.1583 108.95 19.4379 108.95 19.4379C106.254 17.008 104.924 14.3297 104.462 13.2301C104.445 13.1591 104.392 13.0882 104.374 12.9995C104.356 13.0172 104.321 13.0527 104.321 13.0705C104.321 13.0527 104.285 13.0172 104.267 12.9995C104.232 13.0882 104.196 13.1591 104.161 13.2478C103.7 14.3475 102.37 17.0257 99.6914 19.4379C99.6914 19.4379 97.8468 21.1583 100.117 20.4134C100.117 20.4134 98.9819 21.8855 100.986 21.0873C100.986 21.0873 99.514 23.1093 98.2725 24.1025C98.2725 24.1025 96.215 25.8939 98.8223 25.149C98.8223 25.149 97.6339 26.7453 99.6382 26.2487C99.6382 26.2487 97.7404 28.5189 95.7361 29.9378C95.7361 29.9378 93.6255 31.6583 96.552 31.5341C96.552 31.5341 94.9203 33.8576 97.4034 33.2723C96.889 33.7512 96.3214 34.2301 95.7361 34.638C95.7361 34.638 93.6255 36.3584 96.552 36.2343C96.552 36.2343 94.6542 38.9302 98.0774 37.7596C98.0774 37.7596 96.286 40.2782 100.135 38.9834C100.135 38.9834 98.9464 41.2005 101.979 39.7284C101.979 39.7284 101.713 40.5443 101.802 40.7216H102.334C102.458 40.7216 102.689 40.6152 103.044 40.4556V44.0916H105.881V40.4201C106.059 40.5975 106.201 40.7216 106.325 40.7216H106.857C106.946 40.5443 106.68 39.7284 106.68 39.7284C109.712 41.2005 108.524 38.9657 108.524 38.9657C112.373 40.2605 110.582 37.7419 110.582 37.7419C114.005 38.9125 112.107 36.2166 112.107 36.2166C115.016 36.3407 112.905 34.638 112.905 34.638Z" fill="white"/>
</g>
<path d="M112.905 34.815C112.32 34.4071 111.752 33.9282 111.238 33.4493C113.721 34.0346 112.089 31.7111 112.089 31.7111C115.016 31.8353 112.905 30.1148 112.905 30.1148C110.901 28.6959 109.003 26.4257 109.003 26.4257C111.007 26.9223 109.819 25.326 109.819 25.326C112.426 26.0709 110.369 24.2795 110.369 24.2795C109.127 23.304 107.655 21.2643 107.655 21.2643C109.659 22.0625 108.524 20.5904 108.524 20.5904C110.812 21.3353 108.95 19.6149 108.95 19.6149C106.254 17.185 104.924 14.5067 104.462 13.4071C104.445 13.3361 104.392 13.2652 104.374 13.1765C104.356 13.1943 104.321 13.2297 104.321 13.2475C104.321 13.2297 104.285 13.1943 104.267 13.1765C104.232 13.2652 104.196 13.3361 104.161 13.4248C103.7 14.5245 102.37 17.2027 99.6913 19.6149C99.6913 19.6149 97.8467 21.3353 100.117 20.5904C100.117 20.5904 98.9819 22.0625 100.986 21.2643C100.986 21.2643 99.514 23.2863 98.2724 24.2795C98.2724 24.2795 96.215 26.0709 98.8223 25.326C98.8223 25.326 97.6339 26.9223 99.6381 26.4257C99.6381 26.4257 97.7403 28.6959 95.7361 30.1148C95.7361 30.1148 93.6255 31.8353 96.552 31.7111C96.552 31.7111 94.9202 34.0346 97.4033 33.4493C96.889 33.9282 96.3214 34.4071 95.7361 34.815C95.7361 34.815 93.6255 36.5355 96.552 36.4113C96.552 36.4113 94.6542 39.1072 98.0773 37.9366C98.0773 37.9366 96.2859 40.4552 100.135 39.1604C100.135 39.1604 98.9464 41.3775 101.979 39.9054C101.979 39.9054 101.713 40.7213 101.802 40.8986H102.334C102.458 40.8986 102.689 40.7922 103.044 40.6326V44.2686H105.881V40.5971C106.059 40.7745 106.201 40.8986 106.325 40.8986H106.857C106.946 40.7213 106.68 39.9054 106.68 39.9054C109.712 41.3775 108.524 39.1427 108.524 39.1427C112.373 40.4375 110.582 37.9189 110.582 37.9189C114.005 39.0895 112.107 36.3936 112.107 36.3936C115.016 36.5177 112.905 34.815 112.905 34.815Z" fill="#CBCDD5"/>
<g filter="url(#filter2_d)">
<path d="M134.905 35.638C134.32 35.2301 133.752 34.7512 133.238 34.2723C135.721 34.8576 134.089 32.5341 134.089 32.5341C137.016 32.6583 134.905 30.9378 134.905 30.9378C132.901 29.5189 131.003 27.2487 131.003 27.2487C133.007 27.7453 131.819 26.149 131.819 26.149C134.426 26.8939 132.369 25.1025 132.369 25.1025C131.127 24.127 129.655 22.0873 129.655 22.0873C131.659 22.8855 130.524 21.4134 130.524 21.4134C132.812 22.1583 130.95 20.4379 130.95 20.4379C128.254 18.008 126.924 15.3297 126.462 14.2301C126.445 14.1591 126.392 14.0882 126.374 13.9995C126.356 14.0172 126.321 14.0527 126.321 14.0705C126.321 14.0527 126.285 14.0172 126.267 13.9995C126.232 14.0882 126.196 14.1591 126.161 14.2478C125.7 15.3475 124.37 18.0257 121.691 20.4379C121.691 20.4379 119.847 22.1583 122.117 21.4134C122.117 21.4134 120.982 22.8855 122.986 22.0873C122.986 22.0873 121.514 24.1093 120.272 25.1025C120.272 25.1025 118.215 26.8939 120.822 26.149C120.822 26.149 119.634 27.7453 121.638 27.2487C121.638 27.2487 119.74 29.5189 117.736 30.9378C117.736 30.9378 115.625 32.6583 118.552 32.5341C118.552 32.5341 116.92 34.8576 119.403 34.2723C118.889 34.7512 118.321 35.2301 117.736 35.638C117.736 35.638 115.625 37.3584 118.552 37.2343C118.552 37.2343 116.654 39.9302 120.077 38.7596C120.077 38.7596 118.286 41.2782 122.135 39.9834C122.135 39.9834 120.946 42.2005 123.979 40.7284C123.979 40.7284 123.713 41.5443 123.802 41.7216H124.334C124.458 41.7216 124.689 41.6152 125.044 41.4556V45.0916H127.881V41.4201C128.059 41.5975 128.201 41.7216 128.325 41.7216H128.857C128.946 41.5443 128.68 40.7284 128.68 40.7284C131.712 42.2005 130.524 39.9657 130.524 39.9657C134.373 41.2605 132.582 38.7419 132.582 38.7419C136.005 39.9125 134.107 37.2166 134.107 37.2166C137.016 37.3407 134.905 35.638 134.905 35.638Z" fill="white"/>
</g>
<path d="M134.905 35.815C134.32 35.4071 133.752 34.9282 133.238 34.4493C135.721 35.0346 134.089 32.7111 134.089 32.7111C137.016 32.8353 134.905 31.1148 134.905 31.1148C132.901 29.6959 131.003 27.4257 131.003 27.4257C133.007 27.9223 131.819 26.326 131.819 26.326C134.426 27.0709 132.369 25.2795 132.369 25.2795C131.127 24.304 129.655 22.2643 129.655 22.2643C131.659 23.0625 130.524 21.5904 130.524 21.5904C132.812 22.3353 130.95 20.6149 130.95 20.6149C128.254 18.185 126.924 15.5067 126.462 14.4071C126.445 14.3361 126.392 14.2652 126.374 14.1765C126.356 14.1943 126.321 14.2297 126.321 14.2475C126.321 14.2297 126.285 14.1943 126.267 14.1765C126.232 14.2652 126.196 14.3361 126.161 14.4248C125.7 15.5245 124.37 18.2027 121.691 20.6149C121.691 20.6149 119.847 22.3353 122.117 21.5904C122.117 21.5904 120.982 23.0625 122.986 22.2643C122.986 22.2643 121.514 24.2863 120.272 25.2795C120.272 25.2795 118.215 27.0709 120.822 26.326C120.822 26.326 119.634 27.9223 121.638 27.4257C121.638 27.4257 119.74 29.6959 117.736 31.1148C117.736 31.1148 115.625 32.8353 118.552 32.7111C118.552 32.7111 116.92 35.0346 119.403 34.4493C118.889 34.9282 118.321 35.4071 117.736 35.815C117.736 35.815 115.625 37.5355 118.552 37.4113C118.552 37.4113 116.654 40.1072 120.077 38.9366C120.077 38.9366 118.286 41.4552 122.135 40.1604C122.135 40.1604 120.946 42.3775 123.979 40.9054C123.979 40.9054 123.713 41.7213 123.802 41.8986H124.334C124.458 41.8986 124.689 41.7922 125.044 41.6326V45.2686H127.881V41.5971C128.059 41.7745 128.201 41.8986 128.325 41.8986H128.857C128.946 41.7213 128.68 40.9054 128.68 40.9054C131.712 42.3775 130.524 40.1427 130.524 40.1427C134.373 41.4375 132.582 38.9189 132.582 38.9189C136.005 40.0895 134.107 37.3936 134.107 37.3936C137.016 37.5177 134.905 35.815 134.905 35.815Z" fill="#CBCDD5"/>
<g filter="url(#filter3_d)">
<path d="M173.905 26.638C173.32 26.2301 172.752 25.7512 172.238 25.2723C174.721 25.8576 173.089 23.5341 173.089 23.5341C176.016 23.6583 173.905 21.9378 173.905 21.9378C171.901 20.5189 170.003 18.2487 170.003 18.2487C172.007 18.7453 170.819 17.149 170.819 17.149C173.426 17.8939 171.369 16.1025 171.369 16.1025C170.127 15.127 168.655 13.0873 168.655 13.0873C170.659 13.8855 169.524 12.4134 169.524 12.4134C171.812 13.1583 169.95 11.4379 169.95 11.4379C167.254 9.00796 165.924 6.32975 165.462 5.23009C165.445 5.15914 165.392 5.08819 165.374 4.99951C165.356 5.01725 165.321 5.05272 165.321 5.07046C165.321 5.05272 165.285 5.01725 165.267 4.99951C165.232 5.08819 165.196 5.15914 165.161 5.24782C164.7 6.34748 163.37 9.02569 160.691 11.4379C160.691 11.4379 158.847 13.1583 161.117 12.4134C161.117 12.4134 159.982 13.8855 161.986 13.0873C161.986 13.0873 160.514 15.1093 159.272 16.1025C159.272 16.1025 157.215 17.8939 159.822 17.149C159.822 17.149 158.634 18.7453 160.638 18.2487C160.638 18.2487 158.74 20.5189 156.736 21.9378C156.736 21.9378 154.625 23.6583 157.552 23.5341C157.552 23.5341 155.92 25.8576 158.403 25.2723C157.889 25.7512 157.321 26.2301 156.736 26.638C156.736 26.638 154.625 28.3584 157.552 28.2343C157.552 28.2343 155.654 30.9302 159.077 29.7596C159.077 29.7596 157.286 32.2782 161.135 30.9834C161.135 30.9834 159.946 33.2005 162.979 31.7284C162.979 31.7284 162.713 32.5443 162.802 32.7216H163.334C163.458 32.7216 163.689 32.6152 164.044 32.4556V36.0916H166.881V32.4201C167.059 32.5975 167.201 32.7216 167.325 32.7216H167.857C167.946 32.5443 167.68 31.7284 167.68 31.7284C170.712 33.2005 169.524 30.9657 169.524 30.9657C173.373 32.2605 171.582 29.7419 171.582 29.7419C175.005 30.9125 173.107 28.2166 173.107 28.2166C176.016 28.3407 173.905 26.638 173.905 26.638Z" fill="white"/>
</g>
<path d="M173.905 26.815C173.32 26.4071 172.752 25.9282 172.238 25.4493C174.721 26.0346 173.089 23.7111 173.089 23.7111C176.016 23.8353 173.905 22.1148 173.905 22.1148C171.901 20.6959 170.003 18.4257 170.003 18.4257C172.007 18.9223 170.819 17.326 170.819 17.326C173.426 18.0709 171.369 16.2795 171.369 16.2795C170.127 15.304 168.655 13.2643 168.655 13.2643C170.659 14.0625 169.524 12.5904 169.524 12.5904C171.812 13.3353 169.95 11.6149 169.95 11.6149C167.254 9.18496 165.924 6.50675 165.462 5.40709C165.445 5.33614 165.392 5.2652 165.374 5.17651C165.356 5.19425 165.321 5.22972 165.321 5.24746C165.321 5.22972 165.285 5.19425 165.267 5.17651C165.232 5.2652 165.196 5.33614 165.161 5.42482C164.7 6.52449 163.37 9.20269 160.691 11.6149C160.691 11.6149 158.847 13.3353 161.117 12.5904C161.117 12.5904 159.982 14.0625 161.986 13.2643C161.986 13.2643 160.514 15.2863 159.272 16.2795C159.272 16.2795 157.215 18.0709 159.822 17.326C159.822 17.326 158.634 18.9223 160.638 18.4257C160.638 18.4257 158.74 20.6959 156.736 22.1148C156.736 22.1148 154.625 23.8353 157.552 23.7111C157.552 23.7111 155.92 26.0346 158.403 25.4493C157.889 25.9282 157.321 26.4071 156.736 26.815C156.736 26.815 154.625 28.5355 157.552 28.4113C157.552 28.4113 155.654 31.1072 159.077 29.9366C159.077 29.9366 157.286 32.4552 161.135 31.1604C161.135 31.1604 159.946 33.3775 162.979 31.9054C162.979 31.9054 162.713 32.7213 162.802 32.8986H163.334C163.458 32.8986 163.689 32.7922 164.044 32.6326V36.2686H166.881V32.5971C167.059 32.7745 167.201 32.8986 167.325 32.8986H167.857C167.946 32.7213 167.68 31.9054 167.68 31.9054C170.712 33.3775 169.524 31.1427 169.524 31.1427C173.373 32.4375 171.582 29.9189 171.582 29.9189C175.005 31.0895 173.107 28.3936 173.107 28.3936C176.016 28.5177 173.905 26.815 173.905 26.815Z" fill="#CBCDD5"/>
<g filter="url(#filter4_d)">
<path d="M150.905 21.638C150.32 21.2301 149.752 20.7512 149.238 20.2723C151.721 20.8576 150.089 18.5341 150.089 18.5341C153.016 18.6583 150.905 16.9378 150.905 16.9378C148.901 15.5189 147.003 13.2487 147.003 13.2487C149.007 13.7453 147.819 12.149 147.819 12.149C150.426 12.8939 148.369 11.1025 148.369 11.1025C147.127 10.127 145.655 8.08734 145.655 8.08734C147.659 8.88549 146.524 7.41336 146.524 7.41336C148.812 8.15829 146.95 6.43785 146.95 6.43785C144.254 4.00796 142.924 1.32975 142.462 0.230086C142.445 0.15914 142.392 0.0881941 142.374 -0.000488281C142.356 0.0172482 142.321 0.0527211 142.321 0.0704576C142.321 0.0527211 142.285 0.0172482 142.267 -0.000488281C142.232 0.0881941 142.196 0.15914 142.161 0.247822C141.7 1.34748 140.37 4.02569 137.691 6.43785C137.691 6.43785 135.847 8.15829 138.117 7.41336C138.117 7.41336 136.982 8.88549 138.986 8.08734C138.986 8.08734 137.514 10.1093 136.272 11.1025C136.272 11.1025 134.215 12.8939 136.822 12.149C136.822 12.149 135.634 13.7453 137.638 13.2487C137.638 13.2487 135.74 15.5189 133.736 16.9378C133.736 16.9378 131.625 18.6583 134.552 18.5341C134.552 18.5341 132.92 20.8576 135.403 20.2723C134.889 20.7512 134.321 21.2301 133.736 21.638C133.736 21.638 131.625 23.3584 134.552 23.2343C134.552 23.2343 132.654 25.9302 136.077 24.7596C136.077 24.7596 134.286 27.2782 138.135 25.9834C138.135 25.9834 136.946 28.2005 139.979 26.7284C139.979 26.7284 139.713 27.5443 139.802 27.7216H140.334C140.458 27.7216 140.689 27.6152 141.044 27.4556V31.0916H143.881V27.4201C144.059 27.5975 144.201 27.7216 144.325 27.7216H144.857C144.946 27.5443 144.68 26.7284 144.68 26.7284C147.712 28.2005 146.524 25.9657 146.524 25.9657C150.373 27.2605 148.582 24.7419 148.582 24.7419C152.005 25.9125 150.107 23.2166 150.107 23.2166C153.016 23.3407 150.905 21.638 150.905 21.638Z" fill="white"/>
</g>
<path d="M150.905 21.815C150.32 21.4071 149.752 20.9282 149.238 20.4493C151.721 21.0346 150.089 18.7111 150.089 18.7111C153.016 18.8353 150.905 17.1148 150.905 17.1148C148.901 15.6959 147.003 13.4257 147.003 13.4257C149.007 13.9223 147.819 12.326 147.819 12.326C150.426 13.0709 148.369 11.2795 148.369 11.2795C147.127 10.304 145.655 8.26435 145.655 8.26435C147.659 9.06249 146.524 7.59036 146.524 7.59036C148.812 8.33529 146.95 6.61485 146.95 6.61485C144.254 4.18496 142.924 1.50675 142.462 0.407088C142.445 0.336142 142.392 0.265196 142.374 0.176514C142.356 0.19425 142.321 0.229723 142.321 0.24746C142.321 0.229723 142.285 0.19425 142.267 0.176514C142.232 0.265196 142.196 0.336142 142.161 0.424824C141.7 1.52449 140.37 4.20269 137.691 6.61485C137.691 6.61485 135.847 8.33529 138.117 7.59036C138.117 7.59036 136.982 9.06249 138.986 8.26435C138.986 8.26435 137.514 10.2863 136.272 11.2795C136.272 11.2795 134.215 13.0709 136.822 12.326C136.822 12.326 135.634 13.9223 137.638 13.4257C137.638 13.4257 135.74 15.6959 133.736 17.1148C133.736 17.1148 131.625 18.8353 134.552 18.7111C134.552 18.7111 132.92 21.0346 135.403 20.4493C134.889 20.9282 134.321 21.4071 133.736 21.815C133.736 21.815 131.625 23.5355 134.552 23.4113C134.552 23.4113 132.654 26.1072 136.077 24.9366C136.077 24.9366 134.286 27.4552 138.135 26.1604C138.135 26.1604 136.946 28.3775 139.979 26.9054C139.979 26.9054 139.713 27.7213 139.802 27.8986H140.334C140.458 27.8986 140.689 27.7922 141.044 27.6326V31.2686H143.881V27.5971C144.059 27.7745 144.201 27.8986 144.325 27.8986H144.857C144.946 27.7213 144.68 26.9054 144.68 26.9054C147.712 28.3775 146.524 26.1427 146.524 26.1427C150.373 27.4375 148.582 24.9189 148.582 24.9189C152.005 26.0895 150.107 23.3936 150.107 23.3936C153.016 23.5177 150.905 21.815 150.905 21.815Z" fill="#CBCDD5"/>
<g filter="url(#filter5_d)">
<path d="M94.905 44.638C94.3197 44.2301 93.7522 43.7512 93.2378 43.2723C95.7209 43.8576 94.0892 41.5341 94.0892 41.5341C97.0157 41.6583 94.905 39.9378 94.905 39.9378C92.9008 38.5189 91.003 36.2487 91.003 36.2487C93.0072 36.7453 91.8189 35.149 91.8189 35.149C94.4262 35.8939 92.3687 34.1025 92.3687 34.1025C91.1272 33.127 89.655 31.0873 89.655 31.0873C91.6593 31.8855 90.5241 30.4134 90.5241 30.4134C92.8121 31.1583 90.9498 29.4379 90.9498 29.4379C88.2539 27.008 86.9236 24.3297 86.4625 23.2301C86.4447 23.1591 86.3915 23.0882 86.3738 22.9995C86.3561 23.0172 86.3206 23.0527 86.3206 23.0705C86.3206 23.0527 86.2851 23.0172 86.2674 22.9995C86.2319 23.0882 86.1964 23.1591 86.161 23.2478C85.6998 24.3475 84.3696 27.0257 81.6914 29.4379C81.6914 29.4379 79.8468 31.1583 82.117 30.4134C82.117 30.4134 80.9819 31.8855 82.9861 31.0873C82.9861 31.0873 81.514 33.1093 80.2725 34.1025C80.2725 34.1025 78.215 35.8939 80.8223 35.149C80.8223 35.149 79.6339 36.7453 81.6382 36.2487C81.6382 36.2487 79.7404 38.5189 77.7361 39.9378C77.7361 39.9378 75.6255 41.6583 78.552 41.5341C78.552 41.5341 76.9203 43.8576 79.4034 43.2723C78.889 43.7512 78.3214 44.2301 77.7361 44.638C77.7361 44.638 75.6255 46.3584 78.552 46.2343C78.552 46.2343 76.6542 48.9302 80.0774 47.7596C80.0774 47.7596 78.286 50.2782 82.1348 48.9834C82.1348 48.9834 80.9464 51.2005 83.9794 49.7284C83.9794 49.7284 83.7133 50.5443 83.802 50.7216H84.3341C84.4583 50.7216 84.6888 50.6152 85.0436 50.4556V54.0916H87.8814V50.4201C88.0588 50.5975 88.2007 50.7216 88.3248 50.7216H88.8569C88.9456 50.5443 88.6795 49.7284 88.6795 49.7284C91.7125 51.2005 90.5241 48.9657 90.5241 48.9657C94.373 50.2605 92.5816 47.7419 92.5816 47.7419C96.0047 48.9125 94.1069 46.2166 94.1069 46.2166C97.0157 46.3407 94.905 44.638 94.905 44.638Z" fill="white"/>
</g>
<path d="M94.905 44.815C94.3197 44.4071 93.7521 43.9282 93.2378 43.4493C95.7209 44.0346 94.0891 41.7111 94.0891 41.7111C97.0157 41.8353 94.905 40.1148 94.905 40.1148C92.9008 38.6959 91.003 36.4257 91.003 36.4257C93.0072 36.9223 91.8189 35.326 91.8189 35.326C94.4261 36.0709 92.3687 34.2795 92.3687 34.2795C91.1271 33.304 89.655 31.2643 89.655 31.2643C91.6592 32.0625 90.5241 30.5904 90.5241 30.5904C92.8121 31.3353 90.9498 29.6149 90.9498 29.6149C88.2538 27.185 86.9236 24.5067 86.4625 23.4071C86.4447 23.3361 86.3915 23.2652 86.3738 23.1765C86.356 23.1943 86.3206 23.2297 86.3206 23.2475C86.3206 23.2297 86.2851 23.1943 86.2674 23.1765C86.2319 23.2652 86.1964 23.3361 86.1609 23.4248C85.6998 24.5245 84.3695 27.2027 81.6913 29.6149C81.6913 29.6149 79.8467 31.3353 82.117 30.5904C82.117 30.5904 80.9819 32.0625 82.9861 31.2643C82.9861 31.2643 81.514 33.2863 80.2724 34.2795C80.2724 34.2795 78.215 36.0709 80.8223 35.326C80.8223 35.326 79.6339 36.9223 81.6381 36.4257C81.6381 36.4257 79.7403 38.6959 77.7361 40.1148C77.7361 40.1148 75.6255 41.8353 78.552 41.7111C78.552 41.7111 76.9202 44.0346 79.4033 43.4493C78.889 43.9282 78.3214 44.4071 77.7361 44.815C77.7361 44.815 75.6255 46.5355 78.552 46.4113C78.552 46.4113 76.6542 49.1072 80.0773 47.9366C80.0773 47.9366 78.2859 50.4552 82.1348 49.1604C82.1348 49.1604 80.9464 51.3775 83.9793 49.9054C83.9793 49.9054 83.7133 50.7213 83.802 50.8986H84.3341C84.4582 50.8986 84.6888 50.7922 85.0435 50.6326V54.2686H87.8814V50.5971C88.0587 50.7745 88.2006 50.8986 88.3248 50.8986H88.8569C88.9456 50.7213 88.6795 49.9054 88.6795 49.9054C91.7125 51.3775 90.5241 49.1427 90.5241 49.1427C94.3729 50.4375 92.5815 47.9189 92.5815 47.9189C96.0047 49.0895 94.1069 46.3936 94.1069 46.3936C97.0157 46.5177 94.905 44.815 94.905 44.815Z" fill="#CBCDD5"/>
<g filter="url(#filter6_d)">
<path d="M118.905 54.638C118.32 54.2301 117.752 53.7512 117.238 53.2723C119.721 53.8576 118.089 51.5341 118.089 51.5341C121.016 51.6583 118.905 49.9378 118.905 49.9378C116.901 48.5189 115.003 46.2487 115.003 46.2487C117.007 46.7453 115.819 45.149 115.819 45.149C118.426 45.8939 116.369 44.1025 116.369 44.1025C115.127 43.127 113.655 41.0873 113.655 41.0873C115.659 41.8855 114.524 40.4134 114.524 40.4134C116.812 41.1583 114.95 39.4379 114.95 39.4379C112.254 37.008 110.924 34.3297 110.462 33.2301C110.445 33.1591 110.392 33.0882 110.374 32.9995C110.356 33.0172 110.321 33.0527 110.321 33.0705C110.321 33.0527 110.285 33.0172 110.267 32.9995C110.232 33.0882 110.196 33.1591 110.161 33.2478C109.7 34.3475 108.37 37.0257 105.691 39.4379C105.691 39.4379 103.847 41.1583 106.117 40.4134C106.117 40.4134 104.982 41.8855 106.986 41.0873C106.986 41.0873 105.514 43.1093 104.272 44.1025C104.272 44.1025 102.215 45.8939 104.822 45.149C104.822 45.149 103.634 46.7453 105.638 46.2487C105.638 46.2487 103.74 48.5189 101.736 49.9378C101.736 49.9378 99.6255 51.6583 102.552 51.5341C102.552 51.5341 100.92 53.8576 103.403 53.2723C102.889 53.7512 102.321 54.2301 101.736 54.638C101.736 54.638 99.6255 56.3584 102.552 56.2343C102.552 56.2343 100.654 58.9302 104.077 57.7596C104.077 57.7596 102.286 60.2782 106.135 58.9834C106.135 58.9834 104.946 61.2005 107.979 59.7284C107.979 59.7284 107.713 60.5443 107.802 60.7216H108.334C108.458 60.7216 108.689 60.6152 109.044 60.4556V64.0916H111.881V60.4201C112.059 60.5975 112.201 60.7216 112.325 60.7216H112.857C112.946 60.5443 112.68 59.7284 112.68 59.7284C115.712 61.2005 114.524 58.9657 114.524 58.9657C118.373 60.2605 116.582 57.7419 116.582 57.7419C120.005 58.9125 118.107 56.2166 118.107 56.2166C121.016 56.3407 118.905 54.638 118.905 54.638Z" fill="white"/>
</g>
<path d="M118.905 54.815C118.32 54.4071 117.752 53.9282 117.238 53.4493C119.721 54.0346 118.089 51.7111 118.089 51.7111C121.016 51.8353 118.905 50.1148 118.905 50.1148C116.901 48.6959 115.003 46.4257 115.003 46.4257C117.007 46.9223 115.819 45.326 115.819 45.326C118.426 46.0709 116.369 44.2795 116.369 44.2795C115.127 43.304 113.655 41.2643 113.655 41.2643C115.659 42.0625 114.524 40.5904 114.524 40.5904C116.812 41.3353 114.95 39.6149 114.95 39.6149C112.254 37.185 110.924 34.5067 110.462 33.4071C110.445 33.3361 110.392 33.2652 110.374 33.1765C110.356 33.1943 110.321 33.2297 110.321 33.2475C110.321 33.2297 110.285 33.1943 110.267 33.1765C110.232 33.2652 110.196 33.3361 110.161 33.4248C109.7 34.5245 108.37 37.2027 105.691 39.6149C105.691 39.6149 103.847 41.3353 106.117 40.5904C106.117 40.5904 104.982 42.0625 106.986 41.2643C106.986 41.2643 105.514 43.2863 104.272 44.2795C104.272 44.2795 102.215 46.0709 104.822 45.326C104.822 45.326 103.634 46.9223 105.638 46.4257C105.638 46.4257 103.74 48.6959 101.736 50.1148C101.736 50.1148 99.6255 51.8353 102.552 51.7111C102.552 51.7111 100.92 54.0346 103.403 53.4493C102.889 53.9282 102.321 54.4071 101.736 54.815C101.736 54.815 99.6255 56.5355 102.552 56.4113C102.552 56.4113 100.654 59.1072 104.077 57.9366C104.077 57.9366 102.286 60.4552 106.135 59.1604C106.135 59.1604 104.946 61.3775 107.979 59.9054C107.979 59.9054 107.713 60.7213 107.802 60.8986H108.334C108.458 60.8986 108.689 60.7922 109.044 60.6326V64.2686H111.881V60.5971C112.059 60.7745 112.201 60.8986 112.325 60.8986H112.857C112.946 60.7213 112.68 59.9054 112.68 59.9054C115.712 61.3775 114.524 59.1427 114.524 59.1427C118.373 60.4375 116.582 57.9189 116.582 57.9189C120.005 59.0895 118.107 56.3936 118.107 56.3936C121.016 56.5177 118.905 54.815 118.905 54.815Z" fill="#CBCDD5"/>
<g filter="url(#filter7_dd)">
<path d="M113.308 66.1606C113.557 66.1606 113.557 65.9122 113.432 65.7879C113.059 65.291 112.934 65.4153 112.436 65.0426C111.191 64.173 109.947 63.3035 108.826 62.3097C108.578 62.0613 108.204 61.8128 107.955 61.5644C109.822 62.3097 111.814 62.8066 113.681 62.6824C114.054 62.6824 113.805 62.3097 113.681 62.1855C112.685 61.4402 111.44 60.9433 110.32 60.0737C108.826 58.9557 107.582 57.8377 106.212 56.5955C105.964 56.347 105.59 56.0986 105.341 55.7259C105.715 56.0986 106.088 56.3471 106.461 56.4713C106.835 56.5955 107.208 56.8439 107.582 56.8439C108.578 57.0924 109.449 57.3408 110.569 57.0924H110.694C110.818 56.9682 110.818 56.8439 110.694 56.8439C110.071 55.8502 108.702 55.2291 107.955 54.3595C106.586 52.9931 105.217 51.7508 104.096 50.1359C103.599 49.3906 102.976 48.6453 102.478 47.8999C102.478 47.8999 102.478 47.8999 102.603 47.8999C102.852 48.0242 103.35 48.2726 103.474 48.2726C104.47 48.7695 105.341 49.1422 106.461 49.1422H106.586C106.586 49.0179 106.586 49.0179 106.586 48.8937C104.345 46.9062 102.354 44.7944 100.487 42.4342C99.9887 41.8131 99.4908 41.1919 99.1174 40.5708C98.8685 40.074 98.9929 40.1982 99.2419 40.4466C99.3664 40.5708 99.4908 40.6951 99.6153 40.6951C99.6153 40.6951 99.6153 40.6951 99.7398 40.6951C100.487 41.1919 100.985 41.5646 101.856 41.6888C101.856 41.6888 101.856 41.6888 101.98 41.6888C102.105 41.6888 102.105 41.5646 101.98 41.4404C100.113 38.4591 98.2461 35.4777 97.1258 32.1237C97.1258 31.9995 97.0013 31.9995 97.0013 31.9995L96.8769 32.1237C96.2545 33.9871 95.2587 35.7262 94.3874 37.3411C93.6405 38.7075 92.7692 39.9497 92.0223 41.3162C92.0223 41.4404 92.0223 41.5646 92.1468 41.5646C93.0181 41.4404 93.516 41.0677 94.2629 40.5708C94.5118 40.3224 95.1342 39.7013 94.7608 40.4466C94.3874 41.1919 93.8895 41.8131 93.3916 42.3099C91.5244 44.6702 89.5328 46.7819 87.2923 48.7695C87.1678 48.8937 87.1678 49.0179 87.4168 49.0179C88.537 49.0179 89.4084 48.5211 90.4042 48.1484C90.2797 48.2726 91.4 47.6515 91.4 47.7757C90.9021 48.5211 90.2797 49.2664 89.7818 50.0117C88.6615 51.5024 87.2923 52.8688 85.9231 54.2353C85.0518 54.9806 83.807 55.7259 83.1846 56.7197C83.0601 56.8439 83.0601 56.9682 83.3091 57.0924C84.3049 57.3408 85.3007 57.2166 86.2965 56.8439C86.6699 56.7197 87.0433 56.5955 87.4168 56.4713C87.9147 56.3471 88.2881 56.0986 88.5371 55.7259C88.2881 55.9744 88.0391 56.347 87.6657 56.5955C86.421 57.8377 85.0517 58.9557 83.558 60.0737C82.5622 60.819 81.3175 61.3159 80.1972 62.1855C80.0728 62.3097 79.8238 62.6824 80.1972 62.6824C82.0644 62.6824 84.056 62.3097 85.9231 61.5644C85.6741 61.8128 85.3007 62.0613 85.0517 62.3097C83.9315 63.3035 82.6867 64.173 81.442 65.0426C80.9441 65.4153 80.8196 65.291 80.4462 65.7879C80.3217 65.9122 80.3217 66.1606 80.5707 66.1606C83.1846 66.409 85.7986 66.1606 88.2881 65.291C87.6657 65.7879 86.9189 65.9122 86.421 66.409C86.2965 66.5333 86.172 66.9059 86.5454 66.9059C87.1678 67.0302 87.9147 66.9059 88.6615 66.7817C90.6531 66.6575 92.5202 65.6637 93.516 63.9246C93.8895 64.4215 94.2629 64.9184 94.7608 65.4153C94.8853 65.5395 94.8853 65.5395 95.0097 65.6637C94.7608 67.527 94.7608 69.3904 95.2587 71.0053C95.3832 71.5022 96.5034 72.1233 96.8769 71.3779C97.3748 70.0115 97.1258 68.2724 97.0013 66.9059C97.0013 66.409 96.8769 65.9122 96.8769 65.4153C97.4992 65.9122 98.2461 66.2848 99.1174 66.409C100.362 66.7817 101.856 67.2786 103.101 66.9059C103.35 66.7817 103.35 66.5333 103.101 66.409C102.727 66.0364 102.354 65.6637 101.98 65.4153C102.229 65.5395 102.603 65.6637 102.852 65.7879C104.47 66.2848 106.337 67.0302 107.955 66.7817C108.204 66.7817 108.204 66.409 108.08 66.2848C107.582 65.6637 106.835 65.5395 106.212 65.1668C107.955 66.1606 110.694 66.409 113.308 66.1606Z" fill="white"/>
</g>
<path d="M113.308 66.5322C113.557 66.5322 113.557 66.2837 113.432 66.1595C113.059 65.6626 112.934 65.7868 112.436 65.4142C111.191 64.5446 109.947 63.6751 108.826 62.6813C108.578 62.4328 108.204 62.1844 107.955 61.936C109.822 62.6813 111.814 63.1782 113.681 63.054C114.054 63.054 113.805 62.6813 113.681 62.5571C112.685 61.8117 111.44 61.3149 110.32 60.4453C108.826 59.3273 107.582 58.2093 106.212 56.9671C105.964 56.7186 105.59 56.4702 105.341 56.0975C105.715 56.4702 106.088 56.7186 106.461 56.8429C106.835 56.9671 107.208 57.2155 107.582 57.2155C108.578 57.464 109.449 57.7124 110.569 57.464H110.694C110.818 57.3397 110.818 57.2155 110.694 57.2155C110.071 56.2217 108.702 55.6006 107.955 54.7311C106.586 53.3646 105.217 52.1224 104.096 50.5075C103.599 49.7622 102.976 49.0169 102.478 48.2715C102.478 48.2715 102.478 48.2715 102.603 48.2715C102.852 48.3958 103.35 48.6442 103.474 48.6442C104.47 49.1411 105.341 49.5137 106.461 49.5137H106.586C106.586 49.3895 106.586 49.3895 106.586 49.2653C104.345 47.2778 102.354 45.166 100.487 42.8058C99.9887 42.1846 99.4908 41.5635 99.1174 40.9424C98.8685 40.4455 98.9929 40.5698 99.2419 40.8182C99.3664 40.9424 99.4908 41.0666 99.6153 41.0666C99.6153 41.0666 99.6153 41.0666 99.7398 41.0666C100.487 41.5635 100.985 41.9362 101.856 42.0604C101.856 42.0604 101.856 42.0604 101.98 42.0604C102.105 42.0604 102.105 41.9362 101.98 41.812C100.113 38.8306 98.2461 35.8493 97.1258 32.4953C97.1258 32.3711 97.0013 32.3711 97.0013 32.3711L96.8769 32.4953C96.2545 34.3586 95.2587 36.0978 94.3874 37.7126C93.6405 39.0791 92.7692 40.3213 92.0223 41.6878C92.0223 41.812 92.0223 41.9362 92.1468 41.9362C93.0181 41.812 93.516 41.4393 94.2629 40.9424C94.5118 40.694 95.1342 40.0729 94.7608 40.8182C94.3874 41.5635 93.8895 42.1846 93.3916 42.6815C91.5244 45.0418 89.5328 47.1535 87.2923 49.1411C87.1678 49.2653 87.1678 49.3895 87.4168 49.3895C88.537 49.3895 89.4084 48.8926 90.4042 48.52C90.2797 48.6442 91.4 48.0231 91.4 48.1473C90.9021 48.8926 90.2797 49.638 89.7818 50.3833C88.6615 51.874 87.2923 53.2404 85.9231 54.6069C85.0518 55.3522 83.807 56.0975 83.1846 57.0913C83.0601 57.2155 83.0601 57.3397 83.3091 57.464C84.3049 57.7124 85.3007 57.5882 86.2965 57.2155C86.6699 57.0913 87.0433 56.9671 87.4168 56.8429C87.9147 56.7186 88.2881 56.4702 88.5371 56.0975C88.2881 56.346 88.0391 56.7186 87.6657 56.9671C86.421 58.2093 85.0517 59.3273 83.558 60.4453C82.5622 61.1906 81.3175 61.6875 80.1972 62.5571C80.0728 62.6813 79.8238 63.054 80.1972 63.054C82.0644 63.054 84.056 62.6813 85.9231 61.936C85.6741 62.1844 85.3007 62.4328 85.0517 62.6813C83.9315 63.6751 82.6867 64.5446 81.442 65.4142C80.9441 65.7868 80.8196 65.6626 80.4462 66.1595C80.3217 66.2837 80.3217 66.5322 80.5707 66.5322C83.1846 66.7806 85.7986 66.5322 88.2881 65.6626C87.6657 66.1595 86.9189 66.2837 86.421 66.7806C86.2965 66.9049 86.172 67.2775 86.5454 67.2775C87.1678 67.4017 87.9147 67.2775 88.6615 67.1533C90.6531 67.0291 92.5202 66.0353 93.516 64.2962C93.8895 64.7931 94.2629 65.29 94.7608 65.7868C94.8853 65.9111 94.8853 65.9111 95.0097 66.0353C94.7608 67.8986 94.7608 69.762 95.2587 71.3768C95.3832 71.8737 96.5034 72.4948 96.8769 71.7495C97.3748 70.3831 97.1258 68.644 97.0013 67.2775C97.0013 66.7806 96.8769 66.2837 96.8769 65.7868C97.4992 66.2837 98.2461 66.6564 99.1174 66.7806C100.362 67.1533 101.856 67.6502 103.101 67.2775C103.35 67.1533 103.35 66.9049 103.101 66.7806C102.727 66.408 102.354 66.0353 101.98 65.7868C102.229 65.9111 102.603 66.0353 102.852 66.1595C104.47 66.6564 106.337 67.4017 107.955 67.1533C108.204 67.1533 108.204 66.7806 108.08 66.6564C107.582 66.0353 106.835 65.9111 106.212 65.5384C107.955 66.5322 110.694 66.7806 113.308 66.5322Z" fill="#CBCDD5"/>
<g filter="url(#filter8_dd)">
<path d="M65.2474 60.4667C64.7858 60.2058 64.1436 59.8245 62.6786 59.0819C60.7119 58.0986 59.0261 56.5533 58.2033 55.7305C58.1029 55.6301 58.2233 55.4495 58.3638 55.5097C60.2503 56.3125 62.4578 56.4529 63.8827 56.4329C64.2239 56.4329 64.3242 55.9713 64.0031 55.8308C62.4578 55.1083 60.1499 53.9243 59.2669 53.262C59.1064 53.1416 59.2067 52.8807 59.4074 52.9008C59.9693 52.9409 60.9125 53.0011 61.7153 53.0613C62.0565 53.0814 62.1969 52.6399 61.8959 52.4593C61.3942 52.1582 60.7921 51.797 60.1299 51.2953L58.8856 50.2718C58.7853 50.1915 58.8455 49.9707 58.9659 49.9707H59.7285C59.9091 49.9707 59.9894 49.7901 59.8288 49.6898C58.9458 49.168 58.3036 48.586 57.9424 48.2047C57.8019 48.0642 57.9223 47.8435 58.123 47.8635L60.5714 48.1445C60.7921 48.1646 60.8724 47.8836 60.6918 47.7833C59.4676 47.0809 58.123 45.957 57.6815 45.2345C57.5611 45.0339 57.7016 44.773 57.9424 44.793L58.8856 44.8532C59.1064 44.8733 59.1866 44.5723 59.006 44.4719C57.9624 43.8699 57.0192 42.9868 56.6178 42.4851C56.4974 42.3246 56.6379 42.1038 56.8185 42.144L58.0427 42.3446C58.2635 42.3848 58.404 42.1038 58.2233 41.9633C57.1196 41.0201 56.2365 40.0568 55.7549 39.535C55.6746 39.4347 55.7549 39.2942 55.8753 39.3143C56.076 39.3544 56.3569 39.4146 56.6379 39.4748C56.8787 39.535 57.0393 39.2541 56.8587 39.0735C55.6144 37.8292 54.2096 35.7421 54.2096 34.9995C54.2096 35.7421 52.8048 37.8292 51.5605 39.0735C51.3799 39.234 51.5405 39.535 51.7813 39.4748C52.0623 39.4146 52.3432 39.3544 52.5439 39.3143C52.6643 39.2942 52.7446 39.4347 52.6643 39.535C52.1827 40.0368 51.2796 41.0201 50.1959 41.9633C50.0152 42.1038 50.1557 42.3848 50.3765 42.3446L51.6007 42.144C51.8014 42.1038 51.9218 42.3246 51.8014 42.4851C51.3799 43.0069 50.4568 43.8699 49.4132 44.4719C49.2326 44.5723 49.3128 44.8733 49.5336 44.8532L50.4768 44.793C50.7176 44.773 50.8581 45.0339 50.7377 45.2345C50.2761 45.957 48.9516 47.1009 47.7274 47.7833C47.5468 47.8836 47.6271 48.1646 47.8478 48.1445L50.2962 47.8635C50.4969 47.8435 50.6173 48.0843 50.4768 48.2248C50.1156 48.6261 49.4734 49.1479 48.5904 49.6898C48.4298 49.7901 48.49 49.9707 48.6907 49.9707H49.4533C49.5737 49.9707 49.6339 50.1915 49.5336 50.2718L48.2893 51.2752C47.6471 51.7769 47.025 52.1783 46.5233 52.4593C46.2423 52.6399 46.3627 53.0814 46.7039 53.0613C47.5067 53.0011 48.4499 52.9409 49.0118 52.9008C49.2125 52.8807 49.3128 53.1416 49.1523 53.262C48.2693 53.9243 45.9814 55.1083 44.4161 55.7907C44.095 55.9311 44.1953 56.3927 44.5365 56.3927C45.9614 56.4128 48.1689 56.2924 50.0554 55.4696C50.1959 55.4094 50.3163 55.59 50.2159 55.6903C49.3931 56.5131 47.7073 58.0584 45.7406 59.0418C44.2957 59.7843 43.6535 60.1656 43.1718 60.4265C42.8708 60.5871 42.9912 61.0487 43.3324 61.0687C44.396 61.0888 45.861 61.0888 47.1053 60.9885C48.5703 60.848 49.5737 60.6272 50.1156 60.4667C50.2561 60.4265 50.3765 60.5871 50.2761 60.7075C49.8748 61.2293 49.0319 62.1926 47.4866 63.196C47.2257 63.3766 47.3461 63.778 47.6672 63.778C48.9717 63.7579 51.3398 63.6375 52.9453 62.9351V66.407H55.5542V62.9351C57.1597 63.6375 59.4676 63.778 60.7721 63.778C61.0932 63.778 61.1935 63.3566 60.9125 63.196C59.3673 62.1926 58.5043 61.2293 58.123 60.7075C58.0226 60.5871 58.1431 60.4265 58.2835 60.4667C58.8254 60.6072 59.8489 60.848 61.2938 60.9885C62.5381 61.1089 64.0031 61.1089 65.0668 61.0687C65.428 61.0888 65.5484 60.6272 65.2474 60.4667Z" fill="white"/>
</g>
<path d="M65.2474 60.6669C64.7858 60.406 64.1436 60.0247 62.6786 59.2821C60.7119 58.2988 59.0261 56.7535 58.2033 55.9307C58.1029 55.8303 58.2233 55.6497 58.3638 55.7099C60.2503 56.5126 62.4578 56.6531 63.8827 56.6331C64.2239 56.6331 64.3242 56.1715 64.0031 56.031C62.4578 55.3085 60.1499 54.1245 59.2669 53.4622C59.1064 53.3418 59.2067 53.0809 59.4074 53.101C59.9693 53.1411 60.9125 53.2013 61.7153 53.2615C62.0565 53.2816 62.1969 52.8401 61.8959 52.6595C61.3942 52.3584 60.7921 51.9972 60.1299 51.4955L58.8856 50.472C58.7853 50.3917 58.8455 50.1709 58.9659 50.1709H59.7285C59.9091 50.1709 59.9894 49.9903 59.8288 49.89C58.9458 49.3682 58.3036 48.7862 57.9424 48.4049C57.8019 48.2644 57.9223 48.0437 58.123 48.0637L60.5714 48.3447C60.7921 48.3648 60.8724 48.0838 60.6918 47.9835C59.4676 47.2811 58.123 46.1572 57.6815 45.4347C57.5611 45.234 57.7016 44.9732 57.9424 44.9932L58.8856 45.0534C59.1064 45.0735 59.1866 44.7725 59.006 44.6721C57.9624 44.0701 57.0192 43.187 56.6178 42.6853C56.4974 42.5248 56.6379 42.304 56.8185 42.3442L58.0427 42.5448C58.2635 42.585 58.404 42.304 58.2233 42.1635C57.1196 41.2203 56.2365 40.257 55.7549 39.7352C55.6746 39.6349 55.7549 39.4944 55.8753 39.5145C56.076 39.5546 56.3569 39.6148 56.6379 39.675C56.8787 39.7352 57.0393 39.4543 56.8587 39.2736C55.6144 38.0294 54.2096 35.9422 54.2096 35.1997C54.2096 35.9422 52.8048 38.0294 51.5605 39.2736C51.3799 39.4342 51.5405 39.7352 51.7813 39.675C52.0623 39.6148 52.3432 39.5546 52.5439 39.5145C52.6643 39.4944 52.7446 39.6349 52.6643 39.7352C52.1827 40.2369 51.2796 41.2203 50.1959 42.1635C50.0152 42.304 50.1557 42.585 50.3765 42.5448L51.6007 42.3442C51.8014 42.304 51.9218 42.5248 51.8014 42.6853C51.3799 43.2071 50.4568 44.0701 49.4132 44.6721C49.2326 44.7725 49.3128 45.0735 49.5336 45.0534L50.4768 44.9932C50.7176 44.9732 50.8581 45.234 50.7377 45.4347C50.2761 46.1572 48.9516 47.3011 47.7274 47.9835C47.5468 48.0838 47.6271 48.3648 47.8478 48.3447L50.2962 48.0637C50.4969 48.0437 50.6173 48.2845 50.4768 48.425C50.1156 48.8263 49.4734 49.3481 48.5904 49.89C48.4298 49.9903 48.49 50.1709 48.6907 50.1709H49.4533C49.5737 50.1709 49.6339 50.3917 49.5336 50.472L48.2893 51.4754C47.6471 51.9771 47.025 52.3785 46.5233 52.6595C46.2423 52.8401 46.3627 53.2816 46.7039 53.2615C47.5067 53.2013 48.4499 53.1411 49.0118 53.101C49.2125 53.0809 49.3128 53.3418 49.1523 53.4622C48.2693 54.1245 45.9814 55.3085 44.4161 55.9909C44.095 56.1313 44.1953 56.5929 44.5365 56.5929C45.9614 56.613 48.1689 56.4926 50.0554 55.6698C50.1959 55.6096 50.3163 55.7902 50.2159 55.8905C49.3931 56.7133 47.7073 58.2586 45.7406 59.242C44.2957 59.9845 43.6535 60.3658 43.1718 60.6267C42.8708 60.7873 42.9912 61.2489 43.3324 61.2689C44.396 61.289 45.861 61.289 47.1053 61.1887C48.5703 61.0482 49.5737 60.8274 50.1156 60.6669C50.2561 60.6267 50.3765 60.7873 50.2761 60.9077C49.8748 61.4295 49.0319 62.3928 47.4866 63.3962C47.2257 63.5768 47.3461 63.9782 47.6672 63.9782C48.9717 63.9581 51.3398 63.8377 52.9453 63.1353V66.6072H55.5542V63.1353C57.1597 63.8377 59.4676 63.9782 60.7721 63.9782C61.0932 63.9782 61.1935 63.5568 60.9125 63.3962C59.3673 62.3928 58.5043 61.4295 58.123 60.9077C58.0226 60.7873 58.1431 60.6267 58.2835 60.6669C58.8254 60.8073 59.8489 61.0482 61.2938 61.1887C62.5381 61.3091 64.0031 61.3091 65.0668 61.2689C65.428 61.289 65.5484 60.8274 65.2474 60.6669Z" fill="#CBCDD5"/>
<g filter="url(#filter9_dd)">
<path d="M80.2474 52.4667C79.7858 52.2058 79.1436 51.8245 77.6786 51.0819C75.7119 50.0986 74.0261 48.5533 73.2033 47.7305C73.1029 47.6301 73.2233 47.4495 73.3638 47.5097C75.2503 48.3125 77.4578 48.4529 78.8827 48.4329C79.2239 48.4329 79.3242 47.9713 79.0031 47.8308C77.4578 47.1083 75.1499 45.9243 74.2669 45.262C74.1064 45.1416 74.2067 44.8807 74.4074 44.9008C74.9693 44.9409 75.9125 45.0011 76.7153 45.0613C77.0565 45.0814 77.1969 44.6399 76.8959 44.4593C76.3942 44.1582 75.7921 43.797 75.1299 43.2953L73.8856 42.2718C73.7853 42.1915 73.8455 41.9707 73.9659 41.9707H74.7285C74.9091 41.9707 74.9894 41.7901 74.8288 41.6898C73.9458 41.168 73.3036 40.586 72.9424 40.2047C72.8019 40.0642 72.9223 39.8435 73.123 39.8635L75.5714 40.1445C75.7921 40.1646 75.8724 39.8836 75.6918 39.7833C74.4676 39.0809 73.123 37.957 72.6815 37.2345C72.5611 37.0339 72.7016 36.773 72.9424 36.793L73.8856 36.8532C74.1064 36.8733 74.1866 36.5723 74.006 36.4719C72.9624 35.8699 72.0192 34.9868 71.6178 34.4851C71.4974 34.3246 71.6379 34.1038 71.8185 34.144L73.0427 34.3446C73.2635 34.3848 73.404 34.1038 73.2233 33.9633C72.1196 33.0201 71.2365 32.0568 70.7549 31.535C70.6746 31.4347 70.7549 31.2942 70.8753 31.3143C71.076 31.3544 71.3569 31.4146 71.6379 31.4748C71.8787 31.535 72.0393 31.2541 71.8587 31.0735C70.6144 29.8292 69.2096 27.7421 69.2096 26.9995C69.2096 27.7421 67.8048 29.8292 66.5605 31.0735C66.3799 31.234 66.5405 31.535 66.7813 31.4748C67.0623 31.4146 67.3432 31.3544 67.5439 31.3143C67.6643 31.2942 67.7446 31.4347 67.6643 31.535C67.1827 32.0368 66.2796 33.0201 65.1959 33.9633C65.0152 34.1038 65.1557 34.3848 65.3765 34.3446L66.6007 34.144C66.8014 34.1038 66.9218 34.3246 66.8014 34.4851C66.3799 35.0069 65.4568 35.8699 64.4132 36.4719C64.2326 36.5723 64.3128 36.8733 64.5336 36.8532L65.4768 36.793C65.7176 36.773 65.8581 37.0339 65.7377 37.2345C65.2761 37.957 63.9516 39.1009 62.7274 39.7833C62.5468 39.8836 62.6271 40.1646 62.8478 40.1445L65.2962 39.8635C65.4969 39.8435 65.6173 40.0843 65.4768 40.2248C65.1156 40.6261 64.4734 41.1479 63.5904 41.6898C63.4298 41.7901 63.49 41.9707 63.6907 41.9707H64.4533C64.5737 41.9707 64.6339 42.1915 64.5336 42.2718L63.2893 43.2752C62.6471 43.7769 62.025 44.1783 61.5233 44.4593C61.2423 44.6399 61.3627 45.0814 61.7039 45.0613C62.5067 45.0011 63.4499 44.9409 64.0118 44.9008C64.2125 44.8807 64.3128 45.1416 64.1523 45.262C63.2693 45.9243 60.9814 47.1083 59.4161 47.7907C59.095 47.9311 59.1953 48.3927 59.5365 48.3927C60.9614 48.4128 63.1689 48.2924 65.0554 47.4696C65.1959 47.4094 65.3163 47.59 65.2159 47.6903C64.3931 48.5131 62.7073 50.0584 60.7406 51.0418C59.2957 51.7843 58.6535 52.1656 58.1718 52.4265C57.8708 52.5871 57.9912 53.0487 58.3324 53.0687C59.396 53.0888 60.861 53.0888 62.1053 52.9885C63.5703 52.848 64.5737 52.6272 65.1156 52.4667C65.2561 52.4265 65.3765 52.5871 65.2761 52.7075C64.8748 53.2293 64.0319 54.1926 62.4866 55.196C62.2257 55.3766 62.3461 55.778 62.6672 55.778C63.9717 55.7579 66.3398 55.6375 67.9453 54.9351V58.407H70.5542V54.9351C72.1597 55.6375 74.4676 55.778 75.7721 55.778C76.0932 55.778 76.1935 55.3566 75.9125 55.196C74.3673 54.1926 73.5043 53.2293 73.123 52.7075C73.0226 52.5871 73.1431 52.4265 73.2835 52.4667C73.8254 52.6072 74.8489 52.848 76.2938 52.9885C77.5381 53.1089 79.0031 53.1089 80.0668 53.0687C80.428 53.0888 80.5484 52.6272 80.2474 52.4667Z" fill="white"/>
</g>
<path d="M80.2474 52.6669C79.7858 52.406 79.1436 52.0247 77.6786 51.2821C75.7119 50.2988 74.0261 48.7535 73.2033 47.9307C73.1029 47.8303 73.2233 47.6497 73.3638 47.7099C75.2503 48.5126 77.4578 48.6531 78.8827 48.6331C79.2239 48.6331 79.3242 48.1715 79.0031 48.031C77.4578 47.3085 75.1499 46.1245 74.2669 45.4622C74.1064 45.3418 74.2067 45.0809 74.4074 45.101C74.9693 45.1411 75.9125 45.2013 76.7153 45.2615C77.0565 45.2816 77.1969 44.8401 76.8959 44.6595C76.3942 44.3584 75.7921 43.9972 75.1299 43.4955L73.8856 42.472C73.7853 42.3917 73.8455 42.1709 73.9659 42.1709H74.7285C74.9091 42.1709 74.9894 41.9903 74.8288 41.89C73.9458 41.3682 73.3036 40.7862 72.9424 40.4049C72.8019 40.2644 72.9223 40.0437 73.123 40.0637L75.5714 40.3447C75.7921 40.3648 75.8724 40.0838 75.6918 39.9835C74.4676 39.2811 73.123 38.1572 72.6815 37.4347C72.5611 37.234 72.7016 36.9732 72.9424 36.9932L73.8856 37.0534C74.1064 37.0735 74.1866 36.7725 74.006 36.6721C72.9624 36.0701 72.0192 35.187 71.6178 34.6853C71.4974 34.5248 71.6379 34.304 71.8185 34.3442L73.0427 34.5448C73.2635 34.585 73.404 34.304 73.2233 34.1635C72.1196 33.2203 71.2365 32.257 70.7549 31.7352C70.6746 31.6349 70.7549 31.4944 70.8753 31.5145C71.076 31.5546 71.3569 31.6148 71.6379 31.675C71.8787 31.7352 72.0393 31.4543 71.8587 31.2736C70.6144 30.0294 69.2096 27.9422 69.2096 27.1997C69.2096 27.9422 67.8048 30.0294 66.5605 31.2736C66.3799 31.4342 66.5405 31.7352 66.7813 31.675C67.0623 31.6148 67.3432 31.5546 67.5439 31.5145C67.6643 31.4944 67.7446 31.6349 67.6643 31.7352C67.1827 32.2369 66.2796 33.2203 65.1959 34.1635C65.0152 34.304 65.1557 34.585 65.3765 34.5448L66.6007 34.3442C66.8014 34.304 66.9218 34.5248 66.8014 34.6853C66.3799 35.2071 65.4568 36.0701 64.4132 36.6721C64.2326 36.7725 64.3128 37.0735 64.5336 37.0534L65.4768 36.9932C65.7176 36.9732 65.8581 37.234 65.7377 37.4347C65.2761 38.1572 63.9516 39.3011 62.7274 39.9835C62.5468 40.0838 62.6271 40.3648 62.8478 40.3447L65.2962 40.0637C65.4969 40.0437 65.6173 40.2845 65.4768 40.425C65.1156 40.8263 64.4734 41.3481 63.5904 41.89C63.4298 41.9903 63.49 42.1709 63.6907 42.1709H64.4533C64.5737 42.1709 64.6339 42.3917 64.5336 42.472L63.2893 43.4754C62.6471 43.9771 62.025 44.3785 61.5233 44.6595C61.2423 44.8401 61.3627 45.2816 61.7039 45.2615C62.5067 45.2013 63.4499 45.1411 64.0118 45.101C64.2125 45.0809 64.3128 45.3418 64.1523 45.4622C63.2693 46.1245 60.9814 47.3085 59.4161 47.9909C59.095 48.1313 59.1953 48.5929 59.5365 48.5929C60.9614 48.613 63.1689 48.4926 65.0554 47.6698C65.1959 47.6096 65.3163 47.7902 65.2159 47.8905C64.3931 48.7133 62.7073 50.2586 60.7406 51.242C59.2957 51.9845 58.6535 52.3658 58.1718 52.6267C57.8708 52.7873 57.9912 53.2489 58.3324 53.2689C59.396 53.289 60.861 53.289 62.1053 53.1887C63.5703 53.0482 64.5737 52.8274 65.1156 52.6669C65.2561 52.6267 65.3765 52.7873 65.2761 52.9077C64.8748 53.4295 64.0319 54.3928 62.4866 55.3962C62.2257 55.5768 62.3461 55.9782 62.6672 55.9782C63.9717 55.9581 66.3398 55.8377 67.9453 55.1353V58.6072H70.5542V55.1353C72.1597 55.8377 74.4676 55.9782 75.7721 55.9782C76.0932 55.9782 76.1935 55.5568 75.9125 55.3962C74.3673 54.3928 73.5043 53.4295 73.123 52.9077C73.0226 52.7873 73.1431 52.6267 73.2835 52.6669C73.8254 52.8073 74.8489 53.0482 76.2938 53.1887C77.5381 53.3091 79.0031 53.3091 80.0668 53.2689C80.428 53.289 80.5484 52.8274 80.2474 52.6669Z" fill="#CBCDD5"/>
<g filter="url(#filter10_dd)">
<path d="M86.2474 64.4667C85.7858 64.2058 85.1436 63.8245 83.6786 63.0819C81.7119 62.0986 80.0261 60.5533 79.2033 59.7305C79.1029 59.6301 79.2233 59.4495 79.3638 59.5097C81.2503 60.3125 83.4578 60.4529 84.8827 60.4329C85.2239 60.4329 85.3242 59.9713 85.0031 59.8308C83.4578 59.1083 81.1499 57.9243 80.2669 57.262C80.1064 57.1416 80.2067 56.8807 80.4074 56.9008C80.9693 56.9409 81.9125 57.0011 82.7153 57.0613C83.0565 57.0814 83.1969 56.6399 82.8959 56.4593C82.3942 56.1582 81.7921 55.797 81.1299 55.2953L79.8856 54.2718C79.7853 54.1915 79.8455 53.9707 79.9659 53.9707H80.7285C80.9091 53.9707 80.9894 53.7901 80.8288 53.6898C79.9458 53.168 79.3036 52.586 78.9424 52.2047C78.8019 52.0642 78.9223 51.8435 79.123 51.8635L81.5714 52.1445C81.7921 52.1646 81.8724 51.8836 81.6918 51.7833C80.4676 51.0809 79.123 49.957 78.6815 49.2345C78.5611 49.0339 78.7016 48.773 78.9424 48.793L79.8856 48.8532C80.1064 48.8733 80.1866 48.5723 80.006 48.4719C78.9624 47.8699 78.0192 46.9868 77.6178 46.4851C77.4974 46.3246 77.6379 46.1038 77.8185 46.144L79.0427 46.3446C79.2635 46.3848 79.404 46.1038 79.2233 45.9633C78.1196 45.0201 77.2365 44.0568 76.7549 43.535C76.6746 43.4347 76.7549 43.2942 76.8753 43.3143C77.076 43.3544 77.3569 43.4146 77.6379 43.4748C77.8787 43.535 78.0393 43.2541 77.8587 43.0735C76.6144 41.8292 75.2096 39.7421 75.2096 38.9995C75.2096 39.7421 73.8048 41.8292 72.5605 43.0735C72.3799 43.234 72.5405 43.535 72.7813 43.4748C73.0623 43.4146 73.3432 43.3544 73.5439 43.3143C73.6643 43.2942 73.7446 43.4347 73.6643 43.535C73.1827 44.0368 72.2796 45.0201 71.1959 45.9633C71.0152 46.1038 71.1557 46.3848 71.3765 46.3446L72.6007 46.144C72.8014 46.1038 72.9218 46.3246 72.8014 46.4851C72.3799 47.0069 71.4568 47.8699 70.4132 48.4719C70.2326 48.5723 70.3128 48.8733 70.5336 48.8532L71.4768 48.793C71.7176 48.773 71.8581 49.0339 71.7377 49.2345C71.2761 49.957 69.9516 51.1009 68.7274 51.7833C68.5468 51.8836 68.6271 52.1646 68.8478 52.1445L71.2962 51.8635C71.4969 51.8435 71.6173 52.0843 71.4768 52.2248C71.1156 52.6261 70.4734 53.1479 69.5904 53.6898C69.4298 53.7901 69.49 53.9707 69.6907 53.9707H70.4533C70.5737 53.9707 70.6339 54.1915 70.5336 54.2718L69.2893 55.2752C68.6471 55.7769 68.025 56.1783 67.5233 56.4593C67.2423 56.6399 67.3627 57.0814 67.7039 57.0613C68.5067 57.0011 69.4499 56.9409 70.0118 56.9008C70.2125 56.8807 70.3128 57.1416 70.1523 57.262C69.2693 57.9243 66.9814 59.1083 65.4161 59.7907C65.095 59.9311 65.1953 60.3927 65.5365 60.3927C66.9614 60.4128 69.1689 60.2924 71.0554 59.4696C71.1959 59.4094 71.3163 59.59 71.2159 59.6903C70.3931 60.5131 68.7073 62.0584 66.7406 63.0418C65.2957 63.7843 64.6535 64.1656 64.1718 64.4265C63.8708 64.5871 63.9912 65.0487 64.3324 65.0687C65.396 65.0888 66.861 65.0888 68.1053 64.9885C69.5703 64.848 70.5737 64.6272 71.1156 64.4667C71.2561 64.4265 71.3765 64.5871 71.2761 64.7075C70.8748 65.2293 70.0319 66.1926 68.4866 67.196C68.2257 67.3766 68.3461 67.778 68.6672 67.778C69.9717 67.7579 72.3398 67.6375 73.9453 66.9351V70.407H76.5542V66.9351C78.1597 67.6375 80.4676 67.778 81.7721 67.778C82.0932 67.778 82.1935 67.3566 81.9125 67.196C80.3673 66.1926 79.5043 65.2293 79.123 64.7075C79.0226 64.5871 79.1431 64.4265 79.2835 64.4667C79.8254 64.6072 80.8489 64.848 82.2938 64.9885C83.5381 65.1089 85.0031 65.1089 86.0668 65.0687C86.428 65.0888 86.5484 64.6272 86.2474 64.4667Z" fill="white"/>
</g>
<path d="M86.2474 64.6669C85.7858 64.406 85.1436 64.0247 83.6786 63.2821C81.7119 62.2988 80.0261 60.7535 79.2033 59.9307C79.1029 59.8303 79.2233 59.6497 79.3638 59.7099C81.2503 60.5126 83.4578 60.6531 84.8827 60.6331C85.2239 60.6331 85.3242 60.1715 85.0031 60.031C83.4578 59.3085 81.1499 58.1245 80.2669 57.4622C80.1064 57.3418 80.2067 57.0809 80.4074 57.101C80.9693 57.1411 81.9125 57.2013 82.7153 57.2615C83.0565 57.2816 83.1969 56.8401 82.8959 56.6595C82.3942 56.3584 81.7921 55.9972 81.1299 55.4955L79.8856 54.472C79.7853 54.3917 79.8455 54.1709 79.9659 54.1709H80.7285C80.9091 54.1709 80.9894 53.9903 80.8288 53.89C79.9458 53.3682 79.3036 52.7862 78.9424 52.4049C78.8019 52.2644 78.9223 52.0437 79.123 52.0637L81.5714 52.3447C81.7921 52.3648 81.8724 52.0838 81.6918 51.9835C80.4676 51.2811 79.123 50.1572 78.6815 49.4347C78.5611 49.234 78.7016 48.9732 78.9424 48.9932L79.8856 49.0534C80.1064 49.0735 80.1866 48.7725 80.006 48.6721C78.9624 48.0701 78.0192 47.187 77.6178 46.6853C77.4974 46.5248 77.6379 46.304 77.8185 46.3442L79.0427 46.5448C79.2635 46.585 79.404 46.304 79.2233 46.1635C78.1196 45.2203 77.2365 44.257 76.7549 43.7352C76.6746 43.6349 76.7549 43.4944 76.8753 43.5145C77.076 43.5546 77.3569 43.6148 77.6379 43.675C77.8787 43.7352 78.0393 43.4543 77.8587 43.2736C76.6144 42.0294 75.2096 39.9422 75.2096 39.1997C75.2096 39.9422 73.8048 42.0294 72.5605 43.2736C72.3799 43.4342 72.5405 43.7352 72.7813 43.675C73.0623 43.6148 73.3432 43.5546 73.5439 43.5145C73.6643 43.4944 73.7446 43.6349 73.6643 43.7352C73.1827 44.2369 72.2796 45.2203 71.1959 46.1635C71.0152 46.304 71.1557 46.585 71.3765 46.5448L72.6007 46.3442C72.8014 46.304 72.9218 46.5248 72.8014 46.6853C72.3799 47.2071 71.4568 48.0701 70.4132 48.6721C70.2326 48.7725 70.3128 49.0735 70.5336 49.0534L71.4768 48.9932C71.7176 48.9732 71.8581 49.234 71.7377 49.4347C71.2761 50.1572 69.9516 51.3011 68.7274 51.9835C68.5468 52.0838 68.6271 52.3648 68.8478 52.3447L71.2962 52.0637C71.4969 52.0437 71.6173 52.2845 71.4768 52.425C71.1156 52.8263 70.4734 53.3481 69.5904 53.89C69.4298 53.9903 69.49 54.1709 69.6907 54.1709H70.4533C70.5737 54.1709 70.6339 54.3917 70.5336 54.472L69.2893 55.4754C68.6471 55.9771 68.025 56.3785 67.5233 56.6595C67.2423 56.8401 67.3627 57.2816 67.7039 57.2615C68.5067 57.2013 69.4499 57.1411 70.0118 57.101C70.2125 57.0809 70.3128 57.3418 70.1523 57.4622C69.2693 58.1245 66.9814 59.3085 65.4161 59.9909C65.095 60.1313 65.1953 60.5929 65.5365 60.5929C66.9614 60.613 69.1689 60.4926 71.0554 59.6698C71.1959 59.6096 71.3163 59.7902 71.2159 59.8905C70.3931 60.7133 68.7073 62.2586 66.7406 63.242C65.2957 63.9845 64.6535 64.3658 64.1718 64.6267C63.8708 64.7873 63.9912 65.2489 64.3324 65.2689C65.396 65.289 66.861 65.289 68.1053 65.1887C69.5703 65.0482 70.5737 64.8274 71.1156 64.6669C71.2561 64.6267 71.3765 64.7873 71.2761 64.9077C70.8748 65.4295 70.0319 66.3928 68.4866 67.3962C68.2257 67.5768 68.3461 67.9782 68.6672 67.9782C69.9717 67.9581 72.3398 67.8377 73.9453 67.1353V70.6072H76.5542V67.1353C78.1597 67.8377 80.4676 67.9782 81.7721 67.9782C82.0932 67.9782 82.1935 67.5568 81.9125 67.3962C80.3673 66.3928 79.5043 65.4295 79.123 64.9077C79.0226 64.7873 79.1431 64.6267 79.2835 64.6669C79.8254 64.8073 80.8489 65.0482 82.2938 65.1887C83.5381 65.3091 85.0031 65.3091 86.0668 65.2689C86.428 65.289 86.5484 64.8274 86.2474 64.6669Z" fill="#CBCDD5"/>
<g filter="url(#filter11_dd)">
<path d="M32.2474 64.4667C31.7858 64.2058 31.1436 63.8245 29.6786 63.0819C27.7119 62.0986 26.0261 60.5533 25.2033 59.7305C25.1029 59.6301 25.2233 59.4495 25.3638 59.5097C27.2503 60.3125 29.4578 60.4529 30.8827 60.4329C31.2239 60.4329 31.3242 59.9713 31.0031 59.8308C29.4578 59.1083 27.1499 57.9243 26.2669 57.262C26.1064 57.1416 26.2067 56.8807 26.4074 56.9008C26.9693 56.9409 27.9125 57.0011 28.7153 57.0613C29.0565 57.0814 29.1969 56.6399 28.8959 56.4593C28.3942 56.1582 27.7921 55.797 27.1299 55.2953L25.8856 54.2718C25.7853 54.1915 25.8455 53.9707 25.9659 53.9707H26.7285C26.9091 53.9707 26.9894 53.7901 26.8288 53.6898C25.9458 53.168 25.3036 52.586 24.9424 52.2047C24.8019 52.0642 24.9223 51.8435 25.123 51.8635L27.5714 52.1445C27.7921 52.1646 27.8724 51.8836 27.6918 51.7833C26.4676 51.0809 25.123 49.957 24.6815 49.2345C24.5611 49.0339 24.7016 48.773 24.9424 48.793L25.8856 48.8532C26.1064 48.8733 26.1866 48.5723 26.006 48.4719C24.9624 47.8699 24.0192 46.9868 23.6178 46.4851C23.4974 46.3246 23.6379 46.1038 23.8185 46.144L25.0427 46.3446C25.2635 46.3848 25.404 46.1038 25.2233 45.9633C24.1196 45.0201 23.2365 44.0568 22.7549 43.535C22.6746 43.4347 22.7549 43.2942 22.8753 43.3143C23.076 43.3544 23.3569 43.4146 23.6379 43.4748C23.8787 43.535 24.0393 43.2541 23.8587 43.0735C22.6144 41.8292 21.2096 39.7421 21.2096 38.9995C21.2096 39.7421 19.8048 41.8292 18.5605 43.0735C18.3799 43.234 18.5405 43.535 18.7813 43.4748C19.0623 43.4146 19.3432 43.3544 19.5439 43.3143C19.6643 43.2942 19.7446 43.4347 19.6643 43.535C19.1827 44.0368 18.2796 45.0201 17.1959 45.9633C17.0152 46.1038 17.1557 46.3848 17.3765 46.3446L18.6007 46.144C18.8014 46.1038 18.9218 46.3246 18.8014 46.4851C18.3799 47.0069 17.4568 47.8699 16.4132 48.4719C16.2326 48.5723 16.3128 48.8733 16.5336 48.8532L17.4768 48.793C17.7176 48.773 17.8581 49.0339 17.7377 49.2345C17.2761 49.957 15.9516 51.1009 14.7274 51.7833C14.5468 51.8836 14.6271 52.1646 14.8478 52.1445L17.2962 51.8635C17.4969 51.8435 17.6173 52.0843 17.4768 52.2248C17.1156 52.6261 16.4734 53.1479 15.5904 53.6898C15.4298 53.7901 15.49 53.9707 15.6907 53.9707H16.4533C16.5737 53.9707 16.6339 54.1915 16.5336 54.2718L15.2893 55.2752C14.6471 55.7769 14.025 56.1783 13.5233 56.4593C13.2423 56.6399 13.3627 57.0814 13.7039 57.0613C14.5067 57.0011 15.4499 56.9409 16.0118 56.9008C16.2125 56.8807 16.3128 57.1416 16.1523 57.262C15.2693 57.9243 12.9814 59.1083 11.4161 59.7907C11.095 59.9311 11.1953 60.3927 11.5365 60.3927C12.9614 60.4128 15.1689 60.2924 17.0554 59.4696C17.1959 59.4094 17.3163 59.59 17.2159 59.6903C16.3931 60.5131 14.7073 62.0584 12.7406 63.0418C11.2957 63.7843 10.6535 64.1656 10.1718 64.4265C9.87079 64.5871 9.99121 65.0487 10.3324 65.0687C11.396 65.0888 12.861 65.0888 14.1053 64.9885C15.5703 64.848 16.5737 64.6272 17.1156 64.4667C17.2561 64.4265 17.3765 64.5871 17.2761 64.7075C16.8748 65.2293 16.0319 66.1926 14.4866 67.196C14.2257 67.3766 14.3461 67.778 14.6672 67.778C15.9717 67.7579 18.3398 67.6375 19.9453 66.9351V70.407H22.5542V66.9351C24.1597 67.6375 26.4676 67.778 27.7721 67.778C28.0932 67.778 28.1935 67.3566 27.9125 67.196C26.3673 66.1926 25.5043 65.2293 25.123 64.7075C25.0226 64.5871 25.1431 64.4265 25.2835 64.4667C25.8254 64.6072 26.8489 64.848 28.2938 64.9885C29.5381 65.1089 31.0031 65.1089 32.0668 65.0687C32.428 65.0888 32.5484 64.6272 32.2474 64.4667Z" fill="white"/>
</g>
<path d="M32.2474 64.6669C31.7858 64.406 31.1436 64.0247 29.6786 63.2821C27.7119 62.2988 26.0261 60.7535 25.2033 59.9307C25.1029 59.8303 25.2233 59.6497 25.3638 59.7099C27.2503 60.5126 29.4578 60.6531 30.8827 60.6331C31.2239 60.6331 31.3242 60.1715 31.0031 60.031C29.4578 59.3085 27.1499 58.1245 26.2669 57.4622C26.1064 57.3418 26.2067 57.0809 26.4074 57.101C26.9693 57.1411 27.9125 57.2013 28.7153 57.2615C29.0565 57.2816 29.1969 56.8401 28.8959 56.6595C28.3942 56.3584 27.7921 55.9972 27.1299 55.4955L25.8856 54.472C25.7853 54.3917 25.8455 54.1709 25.9659 54.1709H26.7285C26.9091 54.1709 26.9894 53.9903 26.8288 53.89C25.9458 53.3682 25.3036 52.7862 24.9424 52.4049C24.8019 52.2644 24.9223 52.0437 25.123 52.0637L27.5714 52.3447C27.7921 52.3648 27.8724 52.0838 27.6918 51.9835C26.4676 51.2811 25.123 50.1572 24.6815 49.4347C24.5611 49.234 24.7016 48.9732 24.9424 48.9932L25.8856 49.0534C26.1064 49.0735 26.1866 48.7725 26.006 48.6721C24.9624 48.0701 24.0192 47.187 23.6178 46.6853C23.4974 46.5248 23.6379 46.304 23.8185 46.3442L25.0427 46.5448C25.2635 46.585 25.404 46.304 25.2233 46.1635C24.1196 45.2203 23.2365 44.257 22.7549 43.7352C22.6746 43.6349 22.7549 43.4944 22.8753 43.5145C23.076 43.5546 23.3569 43.6148 23.6379 43.675C23.8787 43.7352 24.0393 43.4543 23.8587 43.2736C22.6144 42.0294 21.2096 39.9422 21.2096 39.1997C21.2096 39.9422 19.8048 42.0294 18.5605 43.2736C18.3799 43.4342 18.5405 43.7352 18.7813 43.675C19.0623 43.6148 19.3432 43.5546 19.5439 43.5145C19.6643 43.4944 19.7446 43.6349 19.6643 43.7352C19.1827 44.2369 18.2796 45.2203 17.1959 46.1635C17.0152 46.304 17.1557 46.585 17.3765 46.5448L18.6007 46.3442C18.8014 46.304 18.9218 46.5248 18.8014 46.6853C18.3799 47.2071 17.4568 48.0701 16.4132 48.6721C16.2326 48.7725 16.3128 49.0735 16.5336 49.0534L17.4768 48.9932C17.7176 48.9732 17.8581 49.234 17.7377 49.4347C17.2761 50.1572 15.9516 51.3011 14.7274 51.9835C14.5468 52.0838 14.6271 52.3648 14.8478 52.3447L17.2962 52.0637C17.4969 52.0437 17.6173 52.2845 17.4768 52.425C17.1156 52.8263 16.4734 53.3481 15.5904 53.89C15.4298 53.9903 15.49 54.1709 15.6907 54.1709H16.4533C16.5737 54.1709 16.6339 54.3917 16.5336 54.472L15.2893 55.4754C14.6471 55.9771 14.025 56.3785 13.5233 56.6595C13.2423 56.8401 13.3627 57.2816 13.7039 57.2615C14.5067 57.2013 15.4499 57.1411 16.0118 57.101C16.2125 57.0809 16.3128 57.3418 16.1523 57.4622C15.2693 58.1245 12.9814 59.3085 11.4161 59.9909C11.095 60.1313 11.1953 60.5929 11.5365 60.5929C12.9614 60.613 15.1689 60.4926 17.0554 59.6698C17.1959 59.6096 17.3163 59.7902 17.2159 59.8905C16.3931 60.7133 14.7073 62.2586 12.7406 63.242C11.2957 63.9845 10.6535 64.3658 10.1718 64.6267C9.87079 64.7873 9.99121 65.2489 10.3324 65.2689C11.396 65.289 12.861 65.289 14.1053 65.1887C15.5703 65.0482 16.5737 64.8274 17.1156 64.6669C17.2561 64.6267 17.3765 64.7873 17.2761 64.9077C16.8748 65.4295 16.0319 66.3928 14.4866 67.3962C14.2257 67.5768 14.3461 67.9782 14.6672 67.9782C15.9717 67.9581 18.3398 67.8377 19.9453 67.1353V70.6072H22.5542V67.1353C24.1597 67.8377 26.4676 67.9782 27.7721 67.9782C28.0932 67.9782 28.1935 67.5568 27.9125 67.3962C26.3673 66.3928 25.5043 65.4295 25.123 64.9077C25.0226 64.7873 25.1431 64.6267 25.2835 64.6669C25.8254 64.8073 26.8489 65.0482 28.2938 65.1887C29.5381 65.3091 31.0031 65.3091 32.0668 65.2689C32.428 65.289 32.5484 64.8274 32.2474 64.6669Z" fill="#CBCDD5"/>
<g filter="url(#filter12_d)">
<path d="M42.7715 59.053C42.7715 59.053 44.5479 58.5249 44.3079 56.9645C44.5479 54.924 41.6432 50.7951 41.6432 50.7951C41.6432 50.7951 43.1796 50.243 42.9155 48.6106C42.6515 46.9782 39.4107 43.3534 39.5788 43.3294C39.7468 43.3054 40.539 43.0894 40.467 41.361C40.371 39.6326 36.242 34.9995 35.978 34.9995C35.7379 34.9995 31.609 39.6326 31.5129 41.361C31.4169 43.0894 32.2091 43.2814 32.4011 43.3294C32.5692 43.3534 29.3284 47.0022 29.0644 48.6346C28.8003 50.267 30.3367 50.8191 30.3367 50.8191C30.3367 50.8191 27.432 54.924 27.6721 56.9645C27.432 58.5249 29.2084 59.053 29.2084 59.053C29.2084 59.053 25.5836 63.35 26.0397 65.3424C26.4958 67.3349 29.3524 67.1428 31.969 66.5187C33.2893 66.2066 34.2736 65.9666 34.9937 65.8225V70.8877H37.1542V65.8465C37.8744 65.9906 38.8106 66.2066 40.0349 66.5187C42.6515 67.1428 45.5081 67.3349 45.9642 65.3424C46.3963 63.35 42.7715 59.053 42.7715 59.053Z" fill="white"/>
</g>
<path d="M42.7715 59.293C42.7715 59.293 44.5479 58.7649 44.3079 57.2045C44.5479 55.164 41.6432 51.0351 41.6432 51.0351C41.6432 51.0351 43.1796 50.483 42.9155 48.8506C42.6515 47.2182 39.4107 43.5934 39.5788 43.5694C39.7468 43.5454 40.539 43.3293 40.467 41.6009C40.371 39.8726 36.242 35.2395 35.978 35.2395C35.7379 35.2395 31.609 39.8726 31.5129 41.6009C31.4169 43.3293 32.2091 43.5214 32.4011 43.5694C32.5692 43.5934 29.3284 47.2422 29.0644 48.8746C28.8003 50.507 30.3367 51.0591 30.3367 51.0591C30.3367 51.0591 27.432 55.164 27.6721 57.2045C27.432 58.7649 29.2084 59.293 29.2084 59.293C29.2084 59.293 25.5836 63.59 26.0397 65.5824C26.4958 67.5749 29.3524 67.3828 31.969 66.7587C33.2893 66.4466 34.2736 66.2065 34.9937 66.0625V71.1277H37.1542V66.0865C37.8744 66.2306 38.8106 66.4466 40.0349 66.7587C42.6515 67.3828 45.5081 67.5749 45.9642 65.5824C46.3963 63.59 42.7715 59.293 42.7715 59.293Z" fill="#CBCDD5"/>
<g filter="url(#filter13_dd)">
<path d="M154.87 45.6496C154.747 45.5271 154.747 45.5271 154.624 45.5271C153.642 44.9145 152.537 44.4244 151.555 43.6893C150.204 42.5866 148.854 41.4839 147.503 40.2587C147.258 40.0137 146.89 39.7686 146.644 39.401C147.012 39.7686 147.381 40.0137 147.749 40.1362C148.117 40.2587 148.486 40.5037 148.854 40.5037C149.836 40.7488 150.695 40.9938 151.8 40.7488H151.923C151.923 40.7488 151.923 40.7488 151.923 40.6263C151.923 40.5037 151.923 40.5037 151.923 40.3812C151.309 39.4011 149.959 38.7884 149.222 37.9308C147.872 36.5831 146.521 35.3579 145.416 33.7651C144.925 33.03 144.311 32.2948 143.82 31.5597C143.82 31.5597 143.82 31.5597 143.943 31.5597C144.066 31.5597 144.311 31.6822 144.434 31.8047C144.68 31.9273 144.802 31.9273 144.68 31.9273C145.662 32.4173 146.521 32.7849 147.626 32.7849H147.749C147.749 32.7849 147.749 32.6624 147.626 32.6624C145.416 30.702 143.452 28.6192 141.61 26.2913C141.119 25.6787 140.628 25.0661 140.26 24.4535C139.892 23.8409 140.383 24.3309 140.628 24.576C140.628 24.576 140.628 24.576 140.751 24.576C141.488 25.0661 141.979 25.4336 142.838 25.5562C142.838 25.5562 142.838 25.5562 142.961 25.5562C143.084 25.5562 143.084 25.4336 142.961 25.3111C141.119 22.3706 139.278 19.4301 138.173 16.122C138.173 15.9995 138.05 15.9995 138.05 15.9995L137.927 16.122C137.313 17.8373 136.454 19.4301 135.595 21.0229C134.981 22.003 134.367 23.1057 133.753 24.0859C133.508 24.4535 133.262 24.821 133.016 25.3111C133.016 25.4336 133.016 25.5562 133.139 25.5562C133.999 25.4336 134.49 25.0661 135.226 24.576C135.472 24.4535 136.086 23.7183 135.717 24.4535C135.349 25.1886 134.858 25.8012 134.367 26.2913C132.525 28.6192 130.561 30.702 128.351 32.6624C128.228 32.7849 128.228 32.9074 128.474 32.9074C129.579 32.9074 130.438 32.4173 131.42 32.0498C131.298 32.1723 132.403 31.5597 132.403 31.6822C131.912 32.4173 131.298 33.1525 130.807 33.8876C130.193 34.7452 129.456 35.6029 128.72 36.338C128.228 35.7254 127.737 35.2353 127.246 34.6227C126.878 34.2552 126.51 33.7651 126.264 33.275C126.141 32.9074 126.141 33.03 126.387 33.1525L126.51 33.275L126.632 33.3975C127.123 33.7651 127.492 34.0101 128.106 34.1326V34.0101C126.878 31.9273 125.527 29.8444 124.668 27.5165C124.668 27.5165 124.668 27.394 124.545 27.394C124.545 27.394 124.423 27.394 124.423 27.5165C123.931 28.7417 123.318 29.9669 122.704 31.0696C122.09 32.0498 121.599 33.03 120.985 34.0101C120.985 34.1326 120.985 34.2552 121.108 34.1326C121.722 34.0101 122.09 33.7651 122.581 33.3975C122.827 33.275 123.195 32.7849 122.949 33.275C122.458 33.7651 122.213 34.1326 121.844 34.6227C120.494 36.338 119.143 37.8083 117.547 39.156C117.425 39.2785 117.425 39.401 117.547 39.401C118.284 39.401 119.021 39.0335 119.634 38.7884C119.512 38.7884 120.371 38.4209 120.248 38.5434C119.88 39.0335 119.512 39.6461 119.143 40.1362C118.53 41.1163 117.547 42.0965 116.565 42.9542C115.951 43.4443 115.092 43.9343 114.601 44.6695C114.601 44.792 114.601 44.9145 114.724 44.9145C115.46 45.1595 116.074 45.037 116.811 44.792C117.056 44.6695 117.425 44.5469 117.547 44.5469C117.793 44.4244 118.161 44.3019 118.407 44.0569C118.161 44.3019 118.038 44.4244 117.793 44.6695C116.934 45.5271 115.951 46.3848 114.969 47.1199C114.233 47.61 113.373 47.9775 112.637 48.5901C112.514 48.7127 112.391 48.9577 112.637 48.9577C113.987 48.9577 115.338 48.7127 116.688 48.1001C116.442 48.3451 116.32 48.4676 116.074 48.7127C115.338 49.4478 114.478 49.9379 113.496 50.5505C113.128 50.7955 113.005 50.7955 112.759 51.0406C112.637 51.1631 112.637 51.2856 112.882 51.2856C114.724 51.5306 116.565 51.2856 118.284 50.673C117.916 51.0406 117.302 51.1631 116.934 51.5306C116.811 51.6532 116.811 51.8982 116.934 51.8982C117.425 52.0207 117.916 51.8982 118.407 51.7757C119.757 51.6532 121.108 51.0406 121.844 49.8153C122.09 50.1829 122.335 50.5505 122.704 50.918C122.704 50.918 122.827 51.0406 122.827 51.1631C122.704 52.5108 122.704 53.736 123.072 54.8387C123.195 55.2063 123.931 55.5738 124.177 55.0838C124.545 54.1036 124.3 52.8784 124.3 51.8982C124.3 51.5306 124.3 51.1631 124.177 50.918C124.668 51.2856 125.159 51.5306 125.65 51.6532C126.51 51.8982 127.615 52.2658 128.474 52.0207C128.597 52.0207 128.597 51.7757 128.474 51.6532C128.228 51.4081 127.983 51.1631 127.737 50.918C127.983 51.0406 128.106 51.0406 128.351 51.1631C129.456 51.5306 130.807 52.0207 131.912 51.8982C132.157 51.8982 132.034 51.6532 131.912 51.5306C131.543 51.1631 131.052 51.0406 130.561 50.673C132.157 51.1631 133.753 51.4081 135.472 51.2856C135.472 52.5108 135.472 53.6135 135.84 54.5937C135.963 55.0838 137.068 55.6964 137.436 54.9612C137.927 53.6135 137.682 51.8982 137.559 50.5505C137.559 50.0604 137.436 49.5703 137.436 49.0802C138.05 49.5703 138.787 49.9379 139.646 50.0604C140.874 50.428 142.347 50.918 143.575 50.5505C143.82 50.428 143.82 50.1829 143.575 50.0604C143.206 49.6928 142.838 49.3253 142.47 49.0802C142.715 49.2027 143.084 49.3253 143.329 49.4478C144.925 49.9379 146.767 50.673 148.363 50.428C148.608 50.428 148.608 50.0604 148.486 49.9379C147.994 49.4478 147.258 49.2027 146.644 48.8352C149.099 49.6928 151.678 49.9379 154.256 49.6928C154.501 49.6928 154.501 49.4478 154.379 49.3253C154.01 48.8352 153.887 48.9577 153.396 48.5901C152.169 47.7325 150.941 46.8748 149.836 45.8947C149.59 45.6496 149.222 45.4046 148.977 45.1595C150.818 45.8947 152.783 46.3848 154.624 46.2622C155.238 46.1397 154.992 45.7722 154.87 45.6496ZM135.595 50.428C134.858 49.9379 134.121 49.3253 133.385 48.8352C133.508 48.7127 133.63 48.5901 133.753 48.4676C134.244 48.5901 134.735 48.7127 135.104 48.7127C135.226 48.8352 135.349 48.9577 135.472 49.2027C135.595 49.3253 135.595 49.3253 135.717 49.4478C135.717 49.8153 135.717 50.1829 135.595 50.428C135.595 50.428 135.595 50.5505 135.595 50.428Z" fill="white"/>
</g>
<path d="M154.375 46.0161C154.252 45.8936 154.252 45.8936 154.129 45.8936C153.147 45.281 152.042 44.7909 151.06 44.0557C149.71 42.9531 148.359 41.8504 147.009 40.6252C146.763 40.3801 146.395 40.1351 146.149 39.7675C146.518 40.1351 146.886 40.3801 147.254 40.5026C147.622 40.6252 147.991 40.8702 148.359 40.8702C149.341 41.1152 150.201 41.3603 151.306 41.1152H151.428C151.428 41.1152 151.428 41.1152 151.428 40.9927C151.428 40.8702 151.428 40.8702 151.428 40.7477C150.815 39.7675 149.464 39.1549 148.727 38.2973C147.377 36.9495 146.026 35.7243 144.922 34.1315C144.43 33.3964 143.817 32.6613 143.326 31.9262C143.326 31.9262 143.326 31.9262 143.448 31.9262C143.571 31.9262 143.817 32.0487 143.939 32.1712C144.185 32.2937 144.308 32.2937 144.185 32.2937C145.167 32.7838 146.026 33.1514 147.131 33.1514H147.254C147.254 33.1514 147.254 33.0288 147.131 33.0288C144.922 31.0685 142.957 28.9856 141.116 26.6577C140.625 26.0451 140.133 25.4325 139.765 24.8199C139.397 24.2073 139.888 24.6974 140.133 24.9424C140.133 24.9424 140.133 24.9424 140.256 24.9424C140.993 25.4325 141.484 25.8001 142.343 25.9226C142.343 25.9226 142.343 25.9226 142.466 25.9226C142.589 25.9226 142.589 25.8001 142.466 25.6776C140.625 22.7371 138.783 19.7966 137.678 16.4885C137.678 16.366 137.555 16.366 137.555 16.366L137.433 16.4885C136.819 18.2038 135.959 19.7966 135.1 21.3893C134.486 22.3695 133.872 23.4722 133.258 24.4524C133.013 24.8199 132.767 25.1875 132.522 25.6776C132.522 25.8001 132.522 25.9226 132.644 25.9226C133.504 25.8001 133.995 25.4325 134.732 24.9424C134.977 24.8199 135.591 24.0848 135.223 24.8199C134.854 25.5551 134.363 26.1677 133.872 26.6577C132.031 28.9856 130.066 31.0685 127.856 33.0288C127.734 33.1514 127.734 33.2739 127.979 33.2739C129.084 33.2739 129.944 32.7838 130.926 32.4162C130.803 32.5388 131.908 31.9262 131.908 32.0487C131.417 32.7838 130.803 33.5189 130.312 34.2541C129.698 35.1117 128.961 35.9693 128.225 36.7045C127.734 36.0919 127.243 35.6018 126.751 34.9892C126.383 34.6216 126.015 34.1315 125.769 33.6414C125.647 33.2739 125.647 33.3964 125.892 33.5189L126.015 33.6414L126.138 33.764C126.629 34.1315 126.997 34.3766 127.611 34.4991V34.3766C126.383 32.2937 125.033 30.2109 124.173 27.883C124.173 27.883 124.173 27.7604 124.051 27.7604C124.051 27.7604 123.928 27.7604 123.928 27.883C123.437 29.1082 122.823 30.3334 122.209 31.4361C121.595 32.4162 121.104 33.3964 120.49 34.3766C120.49 34.4991 120.49 34.6216 120.613 34.4991C121.227 34.3766 121.595 34.1315 122.086 33.764C122.332 33.6414 122.7 33.1514 122.455 33.6414C121.963 34.1315 121.718 34.4991 121.35 34.9892C119.999 36.7045 118.649 38.1747 117.053 39.5225C116.93 39.645 116.93 39.7675 117.053 39.7675C117.789 39.7675 118.526 39.3999 119.14 39.1549C119.017 39.1549 119.876 38.7873 119.754 38.9099C119.385 39.3999 119.017 40.0126 118.649 40.5026C118.035 41.4828 117.053 42.463 116.07 43.3206C115.457 43.8107 114.597 44.3008 114.106 45.0359C114.106 45.1584 114.106 45.281 114.229 45.281C114.966 45.526 115.579 45.4035 116.316 45.1584C116.562 45.0359 116.93 44.9134 117.053 44.9134C117.298 44.7909 117.666 44.6684 117.912 44.4233C117.666 44.6684 117.544 44.7909 117.298 45.0359C116.439 45.8936 115.457 46.7512 114.474 47.4863C113.738 47.9764 112.878 48.344 112.142 48.9566C112.019 49.0791 111.896 49.3242 112.142 49.3242C113.492 49.3242 114.843 49.0791 116.193 48.4665C115.948 48.7116 115.825 48.8341 115.579 49.0791C114.843 49.8142 113.983 50.3043 113.001 50.9169C112.633 51.162 112.51 51.162 112.265 51.407C112.142 51.5295 112.142 51.6521 112.387 51.6521C114.229 51.8971 116.07 51.6521 117.789 51.0395C117.421 51.407 116.807 51.5295 116.439 51.8971C116.316 52.0196 116.316 52.2647 116.439 52.2647C116.93 52.3872 117.421 52.2647 117.912 52.1421C119.262 52.0196 120.613 51.407 121.35 50.1818C121.595 50.5494 121.841 50.9169 122.209 51.2845C122.209 51.2845 122.332 51.407 122.332 51.5295C122.209 52.8773 122.209 54.1025 122.577 55.2052C122.7 55.5727 123.437 55.9403 123.682 55.4502C124.051 54.47 123.805 53.2448 123.805 52.2647C123.805 51.8971 123.805 51.5295 123.682 51.2845C124.173 51.6521 124.664 51.8971 125.155 52.0196C126.015 52.2647 127.12 52.6322 127.979 52.3872C128.102 52.3872 128.102 52.1421 127.979 52.0196C127.734 51.7746 127.488 51.5295 127.243 51.2845C127.488 51.407 127.611 51.407 127.856 51.5295C128.961 51.8971 130.312 52.3872 131.417 52.2647C131.662 52.2647 131.54 52.0196 131.417 51.8971C131.048 51.5295 130.557 51.407 130.066 51.0395C131.662 51.5295 133.258 51.7746 134.977 51.6521C134.977 52.8773 134.977 53.98 135.345 54.9601C135.468 55.4502 136.573 56.0628 136.941 55.3277C137.433 53.98 137.187 52.2647 137.064 50.9169C137.064 50.4268 136.941 49.9368 136.941 49.4467C137.555 49.9368 138.292 50.3043 139.151 50.4268C140.379 50.7944 141.852 51.2845 143.08 50.9169C143.326 50.7944 143.326 50.5494 143.08 50.4268C142.712 50.0593 142.343 49.6917 141.975 49.4467C142.221 49.5692 142.589 49.6917 142.834 49.8142C144.43 50.3043 146.272 51.0395 147.868 50.7944C148.114 50.7944 148.114 50.4268 147.991 50.3043C147.5 49.8142 146.763 49.5692 146.149 49.2016C148.605 50.0593 151.183 50.3043 153.761 50.0593C154.007 50.0593 154.007 49.8142 153.884 49.6917C153.515 49.2016 153.393 49.3242 152.902 48.9566C151.674 48.0989 150.446 47.2413 149.341 46.2611C149.096 46.0161 148.727 45.771 148.482 45.526C150.323 46.2611 152.288 46.7512 154.129 46.6287C154.743 46.5062 154.498 46.1386 154.375 46.0161ZM135.1 50.7944C134.363 50.3043 133.627 49.6917 132.89 49.2016C133.013 49.0791 133.136 48.9566 133.258 48.8341C133.749 48.9566 134.24 49.0791 134.609 49.0791C134.732 49.2016 134.854 49.3242 134.977 49.5692C135.1 49.6917 135.1 49.6917 135.223 49.8142C135.223 50.1818 135.223 50.5494 135.1 50.7944C135.1 50.7944 135.1 50.9169 135.1 50.7944Z" fill="#CBCDD5"/>
<defs>
<filter id="filter0_dd" x="128" y="8" width="47" height="58" filterUnits="userSpaceOnUse" color-interpolation-filters="sRGB">
<feFlood flood-opacity="0" result="BackgroundImageFix"/>
<feColorMatrix in="SourceAlpha" type="matrix" values="0 0 0 0 0 0 0 0 0 0 0 0 0 0 0 0 0 0 127 0"/>
<feOffset dy="9"/>
<feGaussianBlur stdDeviation="5"/>
<feColorMatrix type="matrix" values="0 0 0 0 0 0 0 0 0 0 0 0 0 0 0 0 0 0 0.05 0"/>
<feBlend mode="normal" in2="BackgroundImageFix" result="effect1_dropShadow"/>
<feColorMatrix in="SourceAlpha" type="matrix" values="0 0 0 0 0 0 0 0 0 0 0 0 0 0 0 0 0 0 127 0"/>
<feOffset dx="-1" dy="-1"/>
<feColorMatrix type="matrix" values="0 0 0 0 1 0 0 0 0 1 0 0 0 0 1 0 0 0 1 0"/>
<feBlend mode="normal" in2="effect1_dropShadow" result="effect2_dropShadow"/>
<feBlend mode="normal" in="SourceGraphic" in2="effect2_dropShadow" result="shape"/>
</filter>
<filter id="filter1_d" x="93" y="12.9995" width="22.6448" height="35.092" filterUnits="userSpaceOnUse" color-interpolation-filters="sRGB">
<feFlood flood-opacity="0" result="BackgroundImageFix"/>
<feColorMatrix in="SourceAlpha" type="matrix" values="0 0 0 0 0 0 0 0 0 0 0 0 0 0 0 0 0 0 127 0"/>
<feOffset dy="2"/>
<feGaussianBlur stdDeviation="1"/>
<feColorMatrix type="matrix" values="0 0 0 0 0.475284 0 0 0 0 0.475284 0 0 0 0 0.475284 0 0 0 0.25 0"/>
<feBlend mode="normal" in2="BackgroundImageFix" result="effect1_dropShadow"/>
<feBlend mode="normal" in="SourceGraphic" in2="effect1_dropShadow" result="shape"/>
</filter>
<filter id="filter2_d" x="115" y="13.9995" width="22.6448" height="35.092" filterUnits="userSpaceOnUse" color-interpolation-filters="sRGB">
<feFlood flood-opacity="0" result="BackgroundImageFix"/>
<feColorMatrix in="SourceAlpha" type="matrix" values="0 0 0 0 0 0 0 0 0 0 0 0 0 0 0 0 0 0 127 0"/>
<feOffset dy="2"/>
<feGaussianBlur stdDeviation="1"/>
<feColorMatrix type="matrix" values="0 0 0 0 0.475284 0 0 0 0 0.475284 0 0 0 0 0.475284 0 0 0 0.25 0"/>
<feBlend mode="normal" in2="BackgroundImageFix" result="effect1_dropShadow"/>
<feBlend mode="normal" in="SourceGraphic" in2="effect1_dropShadow" result="shape"/>
</filter>
<filter id="filter3_d" x="154" y="4.99951" width="22.6448" height="35.092" filterUnits="userSpaceOnUse" color-interpolation-filters="sRGB">
<feFlood flood-opacity="0" result="BackgroundImageFix"/>
<feColorMatrix in="SourceAlpha" type="matrix" values="0 0 0 0 0 0 0 0 0 0 0 0 0 0 0 0 0 0 127 0"/>
<feOffset dy="2"/>
<feGaussianBlur stdDeviation="1"/>
<feColorMatrix type="matrix" values="0 0 0 0 0.475284 0 0 0 0 0.475284 0 0 0 0 0.475284 0 0 0 0.25 0"/>
<feBlend mode="normal" in2="BackgroundImageFix" result="effect1_dropShadow"/>
<feBlend mode="normal" in="SourceGraphic" in2="effect1_dropShadow" result="shape"/>
</filter>
<filter id="filter4_d" x="131" y="-0.000488281" width="22.6448" height="35.092" filterUnits="userSpaceOnUse" color-interpolation-filters="sRGB">
<feFlood flood-opacity="0" result="BackgroundImageFix"/>
<feColorMatrix in="SourceAlpha" type="matrix" values="0 0 0 0 0 0 0 0 0 0 0 0 0 0 0 0 0 0 127 0"/>
<feOffset dy="2"/>
<feGaussianBlur stdDeviation="1"/>
<feColorMatrix type="matrix" values="0 0 0 0 0.475284 0 0 0 0 0.475284 0 0 0 0 0.475284 0 0 0 0.25 0"/>
<feBlend mode="normal" in2="BackgroundImageFix" result="effect1_dropShadow"/>
<feBlend mode="normal" in="SourceGraphic" in2="effect1_dropShadow" result="shape"/>
</filter>
<filter id="filter5_d" x="75" y="22.9995" width="22.6448" height="35.092" filterUnits="userSpaceOnUse" color-interpolation-filters="sRGB">
<feFlood flood-opacity="0" result="BackgroundImageFix"/>
<feColorMatrix in="SourceAlpha" type="matrix" values="0 0 0 0 0 0 0 0 0 0 0 0 0 0 0 0 0 0 127 0"/>
<feOffset dy="2"/>
<feGaussianBlur stdDeviation="1"/>
<feColorMatrix type="matrix" values="0 0 0 0 0.475284 0 0 0 0 0.475284 0 0 0 0 0.475284 0 0 0 0.25 0"/>
<feBlend mode="normal" in2="BackgroundImageFix" result="effect1_dropShadow"/>
<feBlend mode="normal" in="SourceGraphic" in2="effect1_dropShadow" result="shape"/>
</filter>
<filter id="filter6_d" x="99" y="32.9995" width="22.6448" height="35.092" filterUnits="userSpaceOnUse" color-interpolation-filters="sRGB">
<feFlood flood-opacity="0" result="BackgroundImageFix"/>
<feColorMatrix in="SourceAlpha" type="matrix" values="0 0 0 0 0 0 0 0 0 0 0 0 0 0 0 0 0 0 127 0"/>
<feOffset dy="2"/>
<feGaussianBlur stdDeviation="1"/>
<feColorMatrix type="matrix" values="0 0 0 0 0.475284 0 0 0 0 0.475284 0 0 0 0 0.475284 0 0 0 0.25 0"/>
<feBlend mode="normal" in2="BackgroundImageFix" result="effect1_dropShadow"/>
<feBlend mode="normal" in="SourceGraphic" in2="effect1_dropShadow" result="shape"/>
</filter>
<filter id="filter7_dd" x="70" y="30.9995" width="53.8782" height="59.7235" filterUnits="userSpaceOnUse" color-interpolation-filters="sRGB">
<feFlood flood-opacity="0" result="BackgroundImageFix"/>
<feColorMatrix in="SourceAlpha" type="matrix" values="0 0 0 0 0 0 0 0 0 0 0 0 0 0 0 0 0 0 127 0"/>
<feOffset dy="9"/>
<feGaussianBlur stdDeviation="5"/>
<feColorMatrix type="matrix" values="0 0 0 0 0 0 0 0 0 0 0 0 0 0 0 0 0 0 0.05 0"/>
<feBlend mode="normal" in2="BackgroundImageFix" result="effect1_dropShadow"/>
<feColorMatrix in="SourceAlpha" type="matrix" values="0 0 0 0 0 0 0 0 0 0 0 0 0 0 0 0 0 0 127 0"/>
<feOffset dx="-1" dy="-1"/>
<feColorMatrix type="matrix" values="0 0 0 0 1 0 0 0 0 1 0 0 0 0 1 0 0 0 1 0"/>
<feBlend mode="normal" in2="effect1_dropShadow" result="effect2_dropShadow"/>
<feBlend mode="normal" in="SourceGraphic" in2="effect2_dropShadow" result="shape"/>
</filter>
<filter id="filter8_dd" x="33" y="33.9995" width="42.418" height="51.4075" filterUnits="userSpaceOnUse" color-interpolation-filters="sRGB">
<feFlood flood-opacity="0" result="BackgroundImageFix"/>
<feColorMatrix in="SourceAlpha" type="matrix" values="0 0 0 0 0 0 0 0 0 0 0 0 0 0 0 0 0 0 127 0"/>
<feOffset dy="9"/>
<feGaussianBlur stdDeviation="5"/>
<feColorMatrix type="matrix" values="0 0 0 0 0 0 0 0 0 0 0 0 0 0 0 0 0 0 0.05 0"/>
<feBlend mode="normal" in2="BackgroundImageFix" result="effect1_dropShadow"/>
<feColorMatrix in="SourceAlpha" type="matrix" values="0 0 0 0 0 0 0 0 0 0 0 0 0 0 0 0 0 0 127 0"/>
<feOffset dx="-1" dy="-1"/>
<feColorMatrix type="matrix" values="0 0 0 0 1 0 0 0 0 1 0 0 0 0 1 0 0 0 1 0"/>
<feBlend mode="normal" in2="effect1_dropShadow" result="effect2_dropShadow"/>
<feBlend mode="normal" in="SourceGraphic" in2="effect2_dropShadow" result="shape"/>
</filter>
<filter id="filter9_dd" x="48" y="25.9995" width="42.418" height="51.4075" filterUnits="userSpaceOnUse" color-interpolation-filters="sRGB">
<feFlood flood-opacity="0" result="BackgroundImageFix"/>
<feColorMatrix in="SourceAlpha" type="matrix" values="0 0 0 0 0 0 0 0 0 0 0 0 0 0 0 0 0 0 127 0"/>
<feOffset dy="9"/>
<feGaussianBlur stdDeviation="5"/>
<feColorMatrix type="matrix" values="0 0 0 0 0 0 0 0 0 0 0 0 0 0 0 0 0 0 0.05 0"/>
<feBlend mode="normal" in2="BackgroundImageFix" result="effect1_dropShadow"/>
<feColorMatrix in="SourceAlpha" type="matrix" values="0 0 0 0 0 0 0 0 0 0 0 0 0 0 0 0 0 0 127 0"/>
<feOffset dx="-1" dy="-1"/>
<feColorMatrix type="matrix" values="0 0 0 0 1 0 0 0 0 1 0 0 0 0 1 0 0 0 1 0"/>
<feBlend mode="normal" in2="effect1_dropShadow" result="effect2_dropShadow"/>
<feBlend mode="normal" in="SourceGraphic" in2="effect2_dropShadow" result="shape"/>
</filter>
<filter id="filter10_dd" x="54" y="37.9995" width="42.418" height="51.4075" filterUnits="userSpaceOnUse" color-interpolation-filters="sRGB">
<feFlood flood-opacity="0" result="BackgroundImageFix"/>
<feColorMatrix in="SourceAlpha" type="matrix" values="0 0 0 0 0 0 0 0 0 0 0 0 0 0 0 0 0 0 127 0"/>
<feOffset dy="9"/>
<feGaussianBlur stdDeviation="5"/>
<feColorMatrix type="matrix" values="0 0 0 0 0 0 0 0 0 0 0 0 0 0 0 0 0 0 0.05 0"/>
<feBlend mode="normal" in2="BackgroundImageFix" result="effect1_dropShadow"/>
<feColorMatrix in="SourceAlpha" type="matrix" values="0 0 0 0 0 0 0 0 0 0 0 0 0 0 0 0 0 0 127 0"/>
<feOffset dx="-1" dy="-1"/>
<feColorMatrix type="matrix" values="0 0 0 0 1 0 0 0 0 1 0 0 0 0 1 0 0 0 1 0"/>
<feBlend mode="normal" in2="effect1_dropShadow" result="effect2_dropShadow"/>
<feBlend mode="normal" in="SourceGraphic" in2="effect2_dropShadow" result="shape"/>
</filter>
<filter id="filter11_dd" x="0" y="37.9995" width="42.418" height="51.4075" filterUnits="userSpaceOnUse" color-interpolation-filters="sRGB">
<feFlood flood-opacity="0" result="BackgroundImageFix"/>
<feColorMatrix in="SourceAlpha" type="matrix" values="0 0 0 0 0 0 0 0 0 0 0 0 0 0 0 0 0 0 127 0"/>
<feOffset dy="9"/>
<feGaussianBlur stdDeviation="5"/>
<feColorMatrix type="matrix" values="0 0 0 0 0 0 0 0 0 0 0 0 0 0 0 0 0 0 0.05 0"/>
<feBlend mode="normal" in2="BackgroundImageFix" result="effect1_dropShadow"/>
<feColorMatrix in="SourceAlpha" type="matrix" values="0 0 0 0 0 0 0 0 0 0 0 0 0 0 0 0 0 0 127 0"/>
<feOffset dx="-1" dy="-1"/>
<feColorMatrix type="matrix" values="0 0 0 0 1 0 0 0 0 1 0 0 0 0 1 0 0 0 1 0"/>
<feBlend mode="normal" in2="effect1_dropShadow" result="effect2_dropShadow"/>
<feBlend mode="normal" in="SourceGraphic" in2="effect2_dropShadow" result="shape"/>
</filter>
<filter id="filter12_d" x="24" y="34.9995" width="24" height="39.8882" filterUnits="userSpaceOnUse" color-interpolation-filters="sRGB">
<feFlood flood-opacity="0" result="BackgroundImageFix"/>
<feColorMatrix in="SourceAlpha" type="matrix" values="0 0 0 0 0 0 0 0 0 0 0 0 0 0 0 0 0 0 127 0"/>
<feOffset dy="2"/>
<feGaussianBlur stdDeviation="1"/>
<feColorMatrix type="matrix" values="0 0 0 0 0.475284 0 0 0 0 0.475284 0 0 0 0 0.475284 0 0 0 0.25 0"/>
<feBlend mode="normal" in2="BackgroundImageFix" result="effect1_dropShadow"/>
<feBlend mode="normal" in="SourceGraphic" in2="effect1_dropShadow" result="shape"/>
</filter>
<filter id="filter13_dd" x="102.495" y="14.9995" width="62.5283" height="59.3205" filterUnits="userSpaceOnUse" color-interpolation-filters="sRGB">
<feFlood flood-opacity="0" result="BackgroundImageFix"/>
<feColorMatrix in="SourceAlpha" type="matrix" values="0 0 0 0 0 0 0 0 0 0 0 0 0 0 0 0 0 0 127 0"/>
<feOffset dy="9"/>
<feGaussianBlur stdDeviation="5"/>
<feColorMatrix type="matrix" values="0 0 0 0 0 0 0 0 0 0 0 0 0 0 0 0 0 0 0.05 0"/>
<feBlend mode="normal" in2="BackgroundImageFix" result="effect1_dropShadow"/>
<feColorMatrix in="SourceAlpha" type="matrix" values="0 0 0 0 0 0 0 0 0 0 0 0 0 0 0 0 0 0 127 0"/>
<feOffset dx="-1" dy="-1"/>
<feColorMatrix type="matrix" values="0 0 0 0 1 0 0 0 0 1 0 0 0 0 1 0 0 0 1 0"/>
<feBlend mode="normal" in2="effect1_dropShadow" result="effect2_dropShadow"/>
<feBlend mode="normal" in="SourceGraphic" in2="effect2_dropShadow" result="shape"/>
</filter>
</defs>
</svg>
