<svg width="169" height="109" viewBox="0 0 169 109" fill="none" xmlns="http://www.w3.org/2000/svg">
<g filter="url(#filter0_d)">
<path d="M33.8813 56.0264C33.2314 55.5734 32.6012 55.0417 32.0301 54.5099C34.7873 55.1598 32.9754 52.5799 32.9754 52.5799C36.2249 52.7178 33.8813 50.8074 33.8813 50.8074C31.6559 49.2319 29.5486 46.711 29.5486 46.711C31.774 47.2625 30.4545 45.49 30.4545 45.49C33.3496 46.3172 31.0651 44.328 31.0651 44.328C29.6865 43.2449 28.0519 40.98 28.0519 40.98C30.2773 41.8663 29.0169 40.2317 29.0169 40.2317C31.5574 41.0588 29.4895 39.1485 29.4895 39.1485C26.496 36.4504 25.019 33.4766 24.5069 32.2555C24.4872 32.1768 24.4281 32.098 24.4084 31.9995C24.3887 32.0192 24.3494 32.0586 24.3494 32.0783C24.3494 32.0586 24.31 32.0192 24.2903 31.9995C24.2509 32.098 24.2115 32.1768 24.1721 32.2752C23.6601 33.4963 22.183 36.4701 19.2092 39.1485C19.2092 39.1485 17.161 41.0588 19.6818 40.2317C19.6818 40.2317 18.4214 41.8663 20.6469 40.98C20.6469 40.98 19.0122 43.2252 17.6337 44.328C17.6337 44.328 15.3491 46.3172 18.2442 45.49C18.2442 45.49 16.9247 47.2625 19.1501 46.711C19.1501 46.711 17.0428 49.2319 14.8174 50.8074C14.8174 50.8074 12.4738 52.7178 15.7233 52.5799C15.7233 52.5799 13.9115 55.1598 16.6686 54.5099C16.0975 55.0417 15.4673 55.5734 14.8174 56.0264C14.8174 56.0264 12.4738 57.9367 15.7233 57.7988C15.7233 57.7988 13.616 60.7924 17.417 59.4925C17.417 59.4925 15.4279 62.2891 19.7015 60.8514C19.7015 60.8514 18.382 63.3132 21.7497 61.6786C21.7497 61.6786 21.4543 62.5845 21.5528 62.7815H22.1436C22.2815 62.7815 22.5375 62.6633 22.9314 62.486V66.5233H26.0824V62.4467C26.2794 62.6436 26.4369 62.7815 26.5748 62.7815H27.1656C27.2641 62.5845 26.9687 61.6786 26.9687 61.6786C30.3364 63.3132 29.0169 60.8317 29.0169 60.8317C33.2905 62.2694 31.3014 59.4728 31.3014 59.4728C35.1024 60.7727 32.9951 57.7791 32.9951 57.7791C36.2249 57.917 33.8813 56.0264 33.8813 56.0264Z" fill="#6FCF97" fill-opacity="0.3"/>
</g>
<path d="M33.8813 56.2227C33.2314 55.7697 32.6012 55.2379 32.0301 54.7062C34.7873 55.3561 32.9754 52.7762 32.9754 52.7762C36.2249 52.914 33.8813 51.0037 33.8813 51.0037C31.6559 49.4282 29.5486 46.9073 29.5486 46.9073C31.774 47.4588 30.4545 45.6863 30.4545 45.6863C33.3496 46.5134 31.0651 44.5243 31.0651 44.5243C29.6865 43.4412 28.0519 41.1763 28.0519 41.1763C30.2773 42.0626 29.0169 40.428 29.0169 40.428C31.5574 41.2551 29.4895 39.3448 29.4895 39.3448C26.496 36.6467 25.019 33.6729 24.5069 32.4518C24.4872 32.373 24.4281 32.2943 24.4084 32.1958C24.3887 32.2155 24.3494 32.2549 24.3494 32.2746C24.3494 32.2549 24.31 32.2155 24.2903 32.1958C24.2509 32.2943 24.2115 32.373 24.1721 32.4715C23.6601 33.6926 22.183 36.6664 19.2092 39.3448C19.2092 39.3448 17.161 41.2551 19.6818 40.428C19.6818 40.428 18.4214 42.0626 20.6469 41.1763C20.6469 41.1763 19.0122 43.4215 17.6337 44.5243C17.6337 44.5243 15.3491 46.5134 18.2442 45.6863C18.2442 45.6863 16.9247 47.4588 19.1501 46.9073C19.1501 46.9073 17.0428 49.4282 14.8174 51.0037C14.8174 51.0037 12.4738 52.914 15.7233 52.7762C15.7233 52.7762 13.9115 55.3561 16.6686 54.7062C16.0975 55.2379 15.4673 55.7697 14.8174 56.2227C14.8174 56.2227 12.4738 58.133 15.7233 57.9951C15.7233 57.9951 13.616 60.9886 17.417 59.6888C17.417 59.6888 15.4279 62.4854 19.7015 61.0477C19.7015 61.0477 18.382 63.5095 21.7497 61.8749C21.7497 61.8749 21.4543 62.7808 21.5528 62.9777H22.1436C22.2815 62.9777 22.5375 62.8596 22.9314 62.6823V66.7196H26.0824V62.6429C26.2794 62.8399 26.4369 62.9777 26.5748 62.9777H27.1656C27.2641 62.7808 26.9687 61.8749 26.9687 61.8749C30.3364 63.5095 29.0169 61.028 29.0169 61.028C33.2905 62.4657 31.3014 59.6691 31.3014 59.6691C35.1024 60.9689 32.9951 57.9754 32.9951 57.9754C36.2249 58.1133 33.8813 56.2227 33.8813 56.2227Z" fill="#6FCF97" fill-opacity="0.3"/>
<g filter="url(#filter1_d)">
<path d="M45.0266 42.4104C44.3392 41.9313 43.6727 41.369 43.0687 40.8066C45.9847 41.4939 44.0684 38.7654 44.0684 38.7654C47.5052 38.9112 45.0266 36.8908 45.0266 36.8908C42.6729 35.2245 40.4443 32.5585 40.4443 32.5585C42.7979 33.1417 41.4024 31.2671 41.4024 31.2671C44.4642 32.1419 42.0481 30.0382 42.0481 30.0382C40.5901 28.8926 38.8613 26.4973 38.8613 26.4973C41.2149 27.4346 39.8819 25.7059 39.8819 25.7059C42.5688 26.5807 40.3818 24.5603 40.3818 24.5603C37.2158 21.7068 35.6537 18.5617 35.1121 17.2703C35.0913 17.187 35.0288 17.1037 35.008 16.9995C34.9872 17.0203 34.9455 17.062 34.9455 17.0828C34.9455 17.062 34.9039 17.0203 34.883 16.9995C34.8414 17.1037 34.7997 17.187 34.7581 17.2911C34.2165 18.5825 32.6544 21.7276 29.5092 24.5603C29.5092 24.5603 27.3431 26.5807 30.0091 25.7059C30.0091 25.7059 28.6761 27.4346 31.0297 26.4973C31.0297 26.4973 29.301 28.8718 27.843 30.0382C27.843 30.0382 25.4268 32.1419 28.4886 31.2671C28.4886 31.2671 27.0931 33.1417 29.4468 32.5585C29.4468 32.5585 27.2181 35.2245 24.8645 36.8908C24.8645 36.8908 22.3859 38.9112 25.8226 38.7654C25.8226 38.7654 23.9064 41.4939 26.8224 40.8066C26.2183 41.369 25.5518 41.9313 24.8645 42.4104C24.8645 42.4104 22.3859 44.4308 25.8226 44.285C25.8226 44.285 23.5939 47.4509 27.6138 46.0762C27.6138 46.0762 25.5102 49.0339 30.03 47.5134C30.03 47.5134 28.6344 50.117 32.1961 48.3882C32.1961 48.3882 31.8837 49.3463 31.9879 49.5546H32.6127C32.7585 49.5546 33.0293 49.4296 33.4459 49.2422V53.512H36.7784V49.2005C36.9867 49.4088 37.1533 49.5546 37.2991 49.5546H37.924C38.0281 49.3463 37.7157 48.3882 37.7157 48.3882C41.2774 50.117 39.8819 47.4926 39.8819 47.4926C44.4017 49.0131 42.298 46.0554 42.298 46.0554C46.3179 47.4301 44.0893 44.2641 44.0893 44.2641C47.5052 44.4099 45.0266 42.4104 45.0266 42.4104Z" fill="#6FCF97" fill-opacity="0.3"/>
</g>
<path d="M45.0266 42.6182C44.3392 42.1391 43.6727 41.5767 43.0687 41.0144C45.9847 41.7017 44.0684 38.9732 44.0684 38.9732C47.5052 39.119 45.0266 37.0986 45.0266 37.0986C42.6729 35.4323 40.4443 32.7662 40.4443 32.7662C42.7979 33.3494 41.4024 31.4749 41.4024 31.4749C44.4642 32.3497 42.0481 30.246 42.0481 30.246C40.5901 29.1004 38.8613 26.7051 38.8613 26.7051C41.2149 27.6424 39.8819 25.9136 39.8819 25.9136C42.5688 26.7884 40.3818 24.7681 40.3818 24.7681C37.2158 21.9145 35.6537 18.7694 35.1121 17.478C35.0913 17.3947 35.0288 17.3114 35.008 17.2073C34.9872 17.2281 34.9455 17.2698 34.9455 17.2906C34.9455 17.2698 34.9039 17.2281 34.883 17.2073C34.8414 17.3114 34.7997 17.3947 34.7581 17.4989C34.2165 18.7902 32.6544 21.9354 29.5092 24.7681C29.5092 24.7681 27.3431 26.7884 30.0091 25.9136C30.0091 25.9136 28.6761 27.6424 31.0297 26.7051C31.0297 26.7051 29.301 29.0796 27.843 30.246C27.843 30.246 25.4268 32.3497 28.4886 31.4749C28.4886 31.4749 27.0931 33.3494 29.4468 32.7662C29.4468 32.7662 27.2181 35.4323 24.8645 37.0986C24.8645 37.0986 22.3859 39.119 25.8226 38.9732C25.8226 38.9732 23.9064 41.7017 26.8224 41.0144C26.2183 41.5767 25.5518 42.1391 24.8645 42.6182C24.8645 42.6182 22.3859 44.6385 25.8226 44.4927C25.8226 44.4927 23.5939 47.6587 27.6138 46.284C27.6138 46.284 25.5102 49.2416 30.03 47.7212C30.03 47.7212 28.6344 50.3247 32.1961 48.596C32.1961 48.596 31.8837 49.5541 31.9879 49.7624H32.6127C32.7585 49.7624 33.0293 49.6374 33.4459 49.4499V53.7198H36.7784V49.4083C36.9867 49.6166 37.1533 49.7624 37.2991 49.7624H37.924C38.0281 49.5541 37.7157 48.596 37.7157 48.596C41.2774 50.3247 39.8819 47.7003 39.8819 47.7003C44.4017 49.2208 42.298 46.2632 42.298 46.2632C46.3179 47.6378 44.0893 44.4719 44.0893 44.4719C47.5052 44.6177 45.0266 42.6182 45.0266 42.6182Z" fill="#6FCF97" fill-opacity="0.3"/>
<g filter="url(#filter2_d)">
<path d="M23.0266 70.4104C22.3392 69.9313 21.6727 69.369 21.0687 68.8066C23.9847 69.4939 22.0684 66.7654 22.0684 66.7654C25.5052 66.9112 23.0266 64.8908 23.0266 64.8908C20.6729 63.2245 18.4443 60.5585 18.4443 60.5585C20.7979 61.1417 19.4024 59.2671 19.4024 59.2671C22.4642 60.1419 20.0481 58.0382 20.0481 58.0382C18.5901 56.8926 16.8613 54.4973 16.8613 54.4973C19.2149 55.4346 17.8819 53.7059 17.8819 53.7059C20.5688 54.5807 18.3818 52.5603 18.3818 52.5603C15.2158 49.7068 13.6537 46.5617 13.1121 45.2703C13.0913 45.187 13.0288 45.1037 13.008 44.9995C12.9872 45.0203 12.9455 45.062 12.9455 45.0828C12.9455 45.062 12.9039 45.0203 12.883 44.9995C12.8414 45.1037 12.7997 45.187 12.7581 45.2911C12.2165 46.5825 10.6544 49.7276 7.50925 52.5603C7.50925 52.5603 5.34307 54.5807 8.00913 53.7059C8.00913 53.7059 6.6761 55.4346 9.02974 54.4973C9.02974 54.4973 7.30096 56.8718 5.84296 58.0382C5.84296 58.0382 3.42684 60.1419 6.48865 59.2671C6.48865 59.2671 5.09313 61.1417 7.44676 60.5585C7.44676 60.5585 5.2181 63.2245 2.86447 64.8908C2.86447 64.8908 0.385869 66.9112 3.82259 66.7654C3.82259 66.7654 1.90636 69.4939 4.82236 68.8066C4.21833 69.369 3.55182 69.9313 2.86447 70.4104C2.86447 70.4104 0.385869 72.4308 3.82259 72.285C3.82259 72.285 1.59393 75.4509 5.61385 74.0762C5.61385 74.0762 3.51016 77.0339 8.02996 75.5134C8.02996 75.5134 6.63445 78.117 10.1961 76.3882C10.1961 76.3882 9.88371 77.3463 9.98785 77.5546H10.6127C10.7585 77.5546 11.0293 77.4296 11.4459 77.2422V81.512H14.7784V77.2005C14.9867 77.4088 15.1533 77.5546 15.2991 77.5546H15.924C16.0281 77.3463 15.7157 76.3882 15.7157 76.3882C19.2774 78.117 17.8819 75.4926 17.8819 75.4926C22.4017 77.0131 20.298 74.0554 20.298 74.0554C24.3179 75.4301 22.0893 72.2641 22.0893 72.2641C25.5052 72.4099 23.0266 70.4104 23.0266 70.4104Z" fill="#6FCF97" fill-opacity="0.3"/>
</g>
<path d="M23.0266 70.6182C22.3392 70.1391 21.6727 69.5767 21.0687 69.0144C23.9847 69.7017 22.0684 66.9732 22.0684 66.9732C25.5052 67.119 23.0266 65.0986 23.0266 65.0986C20.6729 63.4323 18.4443 60.7662 18.4443 60.7662C20.7979 61.3494 19.4024 59.4749 19.4024 59.4749C22.4642 60.3497 20.0481 58.246 20.0481 58.246C18.5901 57.1004 16.8613 54.7051 16.8613 54.7051C19.2149 55.6424 17.8819 53.9136 17.8819 53.9136C20.5688 54.7884 18.3818 52.7681 18.3818 52.7681C15.2158 49.9145 13.6537 46.7694 13.1121 45.478C13.0913 45.3947 13.0288 45.3114 13.008 45.2073C12.9872 45.2281 12.9455 45.2698 12.9455 45.2906C12.9455 45.2698 12.9039 45.2281 12.883 45.2073C12.8414 45.3114 12.7997 45.3947 12.7581 45.4989C12.2165 46.7902 10.6544 49.9354 7.50925 52.7681C7.50925 52.7681 5.34307 54.7884 8.00913 53.9136C8.00913 53.9136 6.6761 55.6424 9.02974 54.7051C9.02974 54.7051 7.30096 57.0796 5.84296 58.246C5.84296 58.246 3.42684 60.3497 6.48865 59.4749C6.48865 59.4749 5.09313 61.3494 7.44676 60.7662C7.44676 60.7662 5.2181 63.4323 2.86447 65.0986C2.86447 65.0986 0.385869 67.119 3.82259 66.9732C3.82259 66.9732 1.90636 69.7017 4.82236 69.0144C4.21833 69.5767 3.55182 70.1391 2.86447 70.6182C2.86447 70.6182 0.385869 72.6385 3.82259 72.4927C3.82259 72.4927 1.59393 75.6587 5.61385 74.284C5.61385 74.284 3.51016 77.2416 8.02996 75.7212C8.02996 75.7212 6.63445 78.3247 10.1961 76.596C10.1961 76.596 9.88371 77.5541 9.98785 77.7624H10.6127C10.7585 77.7624 11.0293 77.6374 11.4459 77.4499V81.7198H14.7784V77.4083C14.9867 77.6166 15.1533 77.7624 15.2991 77.7624H15.924C16.0281 77.5541 15.7157 76.596 15.7157 76.596C19.2774 78.3247 17.8819 75.7003 17.8819 75.7003C22.4017 77.2208 20.298 74.2632 20.298 74.2632C24.3179 75.6378 22.0893 72.4719 22.0893 72.4719C25.5052 72.6177 23.0266 70.6182 23.0266 70.6182Z" fill="#6FCF97" fill-opacity="0.3"/>
<g filter="url(#filter3_d)">
<path d="M64.0266 58.4104C63.3392 57.9313 62.6727 57.369 62.0687 56.8066C64.9847 57.4939 63.0684 54.7654 63.0684 54.7654C66.5052 54.9112 64.0266 52.8908 64.0266 52.8908C61.6729 51.2245 59.4443 48.5585 59.4443 48.5585C61.7979 49.1417 60.4024 47.2671 60.4024 47.2671C63.4642 48.1419 61.0481 46.0382 61.0481 46.0382C59.5901 44.8926 57.8613 42.4973 57.8613 42.4973C60.2149 43.4346 58.8819 41.7059 58.8819 41.7059C61.5688 42.5807 59.3818 40.5603 59.3818 40.5603C56.2158 37.7068 54.6537 34.5617 54.1121 33.2703C54.0913 33.187 54.0288 33.1037 54.008 32.9995C53.9872 33.0203 53.9455 33.062 53.9455 33.0828C53.9455 33.062 53.9039 33.0203 53.883 32.9995C53.8414 33.1037 53.7997 33.187 53.7581 33.2911C53.2165 34.5825 51.6544 37.7276 48.5092 40.5603C48.5092 40.5603 46.3431 42.5807 49.0091 41.7059C49.0091 41.7059 47.6761 43.4346 50.0297 42.4973C50.0297 42.4973 48.301 44.8718 46.843 46.0382C46.843 46.0382 44.4268 48.1419 47.4886 47.2671C47.4886 47.2671 46.0931 49.1417 48.4468 48.5585C48.4468 48.5585 46.2181 51.2245 43.8645 52.8908C43.8645 52.8908 41.3859 54.9112 44.8226 54.7654C44.8226 54.7654 42.9064 57.4939 45.8224 56.8066C45.2183 57.369 44.5518 57.9313 43.8645 58.4104C43.8645 58.4104 41.3859 60.4308 44.8226 60.285C44.8226 60.285 42.5939 63.4509 46.6138 62.0762C46.6138 62.0762 44.5102 65.0339 49.03 63.5134C49.03 63.5134 47.6344 66.117 51.1961 64.3882C51.1961 64.3882 50.8837 65.3463 50.9879 65.5546H51.6127C51.7585 65.5546 52.0293 65.4296 52.4459 65.2422V69.512H55.7784V65.2005C55.9867 65.4088 56.1533 65.5546 56.2991 65.5546H56.924C57.0281 65.3463 56.7157 64.3882 56.7157 64.3882C60.2774 66.117 58.8819 63.4926 58.8819 63.4926C63.4017 65.0131 61.298 62.0554 61.298 62.0554C65.3179 63.4301 63.0893 60.2641 63.0893 60.2641C66.5052 60.4099 64.0266 58.4104 64.0266 58.4104Z" fill="#6FCF97" fill-opacity="0.3"/>
</g>
<path d="M64.0266 58.6182C63.3392 58.1391 62.6727 57.5767 62.0687 57.0144C64.9847 57.7017 63.0684 54.9732 63.0684 54.9732C66.5052 55.119 64.0266 53.0986 64.0266 53.0986C61.6729 51.4323 59.4443 48.7662 59.4443 48.7662C61.7979 49.3494 60.4024 47.4749 60.4024 47.4749C63.4642 48.3497 61.0481 46.246 61.0481 46.246C59.5901 45.1004 57.8613 42.7051 57.8613 42.7051C60.2149 43.6424 58.8819 41.9136 58.8819 41.9136C61.5688 42.7884 59.3818 40.7681 59.3818 40.7681C56.2158 37.9145 54.6537 34.7694 54.1121 33.478C54.0913 33.3947 54.0288 33.3114 54.008 33.2073C53.9872 33.2281 53.9455 33.2698 53.9455 33.2906C53.9455 33.2698 53.9039 33.2281 53.883 33.2073C53.8414 33.3114 53.7997 33.3947 53.7581 33.4989C53.2165 34.7902 51.6544 37.9354 48.5092 40.7681C48.5092 40.7681 46.3431 42.7884 49.0091 41.9136C49.0091 41.9136 47.6761 43.6424 50.0297 42.7051C50.0297 42.7051 48.301 45.0796 46.843 46.246C46.843 46.246 44.4268 48.3497 47.4886 47.4749C47.4886 47.4749 46.0931 49.3494 48.4468 48.7662C48.4468 48.7662 46.2181 51.4323 43.8645 53.0986C43.8645 53.0986 41.3859 55.119 44.8226 54.9732C44.8226 54.9732 42.9064 57.7017 45.8224 57.0144C45.2183 57.5767 44.5518 58.1391 43.8645 58.6182C43.8645 58.6182 41.3859 60.6385 44.8226 60.4927C44.8226 60.4927 42.5939 63.6587 46.6138 62.284C46.6138 62.284 44.5102 65.2416 49.03 63.7212C49.03 63.7212 47.6344 66.3247 51.1961 64.596C51.1961 64.596 50.8837 65.5541 50.9879 65.7624H51.6127C51.7585 65.7624 52.0293 65.6374 52.4459 65.4499V69.7198H55.7784V65.4083C55.9867 65.6166 56.1533 65.7624 56.2991 65.7624H56.924C57.0281 65.5541 56.7157 64.596 56.7157 64.596C60.2774 66.3247 58.8819 63.7003 58.8819 63.7003C63.4017 65.2208 61.298 62.2632 61.298 62.2632C65.3179 63.6378 63.0893 60.4719 63.0893 60.4719C66.5052 60.6177 64.0266 58.6182 64.0266 58.6182Z" fill="#6FCF97" fill-opacity="0.3"/>
<g filter="url(#filter4_d)">
<path d="M80.0266 46.4104C79.3392 45.9313 78.6727 45.369 78.0687 44.8066C80.9847 45.4939 79.0684 42.7654 79.0684 42.7654C82.5052 42.9112 80.0266 40.8908 80.0266 40.8908C77.6729 39.2245 75.4443 36.5585 75.4443 36.5585C77.7979 37.1417 76.4024 35.2671 76.4024 35.2671C79.4642 36.1419 77.0481 34.0382 77.0481 34.0382C75.5901 32.8926 73.8613 30.4973 73.8613 30.4973C76.2149 31.4346 74.8819 29.7059 74.8819 29.7059C77.5688 30.5807 75.3818 28.5603 75.3818 28.5603C72.2158 25.7068 70.6537 22.5617 70.1121 21.2703C70.0913 21.187 70.0288 21.1037 70.008 20.9995C69.9872 21.0203 69.9455 21.062 69.9455 21.0828C69.9455 21.062 69.9039 21.0203 69.883 20.9995C69.8414 21.1037 69.7997 21.187 69.7581 21.2911C69.2165 22.5825 67.6544 25.7276 64.5092 28.5603C64.5092 28.5603 62.3431 30.5807 65.0091 29.7059C65.0091 29.7059 63.6761 31.4346 66.0297 30.4973C66.0297 30.4973 64.301 32.8718 62.843 34.0382C62.843 34.0382 60.4268 36.1419 63.4886 35.2671C63.4886 35.2671 62.0931 37.1417 64.4468 36.5585C64.4468 36.5585 62.2181 39.2245 59.8645 40.8908C59.8645 40.8908 57.3859 42.9112 60.8226 42.7654C60.8226 42.7654 58.9064 45.4939 61.8224 44.8066C61.2183 45.369 60.5518 45.9313 59.8645 46.4104C59.8645 46.4104 57.3859 48.4308 60.8226 48.285C60.8226 48.285 58.5939 51.4509 62.6138 50.0762C62.6138 50.0762 60.5102 53.0339 65.03 51.5134C65.03 51.5134 63.6344 54.117 67.1961 52.3882C67.1961 52.3882 66.8837 53.3463 66.9879 53.5546H67.6127C67.7585 53.5546 68.0293 53.4296 68.4459 53.2422V57.512H71.7784V53.2005C71.9867 53.4088 72.1533 53.5546 72.2991 53.5546H72.924C73.0281 53.3463 72.7157 52.3882 72.7157 52.3882C76.2774 54.117 74.8819 51.4926 74.8819 51.4926C79.4017 53.0131 77.298 50.0554 77.298 50.0554C81.3179 51.4301 79.0893 48.2641 79.0893 48.2641C82.5052 48.4099 80.0266 46.4104 80.0266 46.4104Z" fill="#6FCF97" fill-opacity="0.3"/>
</g>
<path d="M80.0266 46.6182C79.3392 46.1391 78.6727 45.5767 78.0687 45.0144C80.9847 45.7017 79.0684 42.9732 79.0684 42.9732C82.5052 43.119 80.0266 41.0986 80.0266 41.0986C77.6729 39.4323 75.4443 36.7662 75.4443 36.7662C77.7979 37.3494 76.4024 35.4749 76.4024 35.4749C79.4642 36.3497 77.0481 34.246 77.0481 34.246C75.5901 33.1004 73.8613 30.7051 73.8613 30.7051C76.2149 31.6424 74.8819 29.9136 74.8819 29.9136C77.5688 30.7884 75.3818 28.7681 75.3818 28.7681C72.2158 25.9145 70.6537 22.7694 70.1121 21.478C70.0913 21.3947 70.0288 21.3114 70.008 21.2073C69.9872 21.2281 69.9455 21.2698 69.9455 21.2906C69.9455 21.2698 69.9039 21.2281 69.883 21.2073C69.8414 21.3114 69.7997 21.3947 69.7581 21.4989C69.2165 22.7902 67.6544 25.9354 64.5092 28.7681C64.5092 28.7681 62.3431 30.7884 65.0091 29.9136C65.0091 29.9136 63.6761 31.6424 66.0297 30.7051C66.0297 30.7051 64.301 33.0796 62.843 34.246C62.843 34.246 60.4268 36.3497 63.4886 35.4749C63.4886 35.4749 62.0931 37.3494 64.4468 36.7662C64.4468 36.7662 62.2181 39.4323 59.8645 41.0986C59.8645 41.0986 57.3859 43.119 60.8226 42.9732C60.8226 42.9732 58.9064 45.7017 61.8224 45.0144C61.2183 45.5767 60.5518 46.1391 59.8645 46.6182C59.8645 46.6182 57.3859 48.6385 60.8226 48.4927C60.8226 48.4927 58.5939 51.6587 62.6138 50.284C62.6138 50.284 60.5102 53.2416 65.03 51.7212C65.03 51.7212 63.6344 54.3247 67.1961 52.596C67.1961 52.596 66.8837 53.5541 66.9879 53.7624H67.6127C67.7585 53.7624 68.0293 53.6374 68.4459 53.4499V57.7198H71.7784V53.4083C71.9867 53.6166 72.1533 53.7624 72.2991 53.7624H72.924C73.0281 53.5541 72.7157 52.596 72.7157 52.596C76.2774 54.3247 74.8819 51.7003 74.8819 51.7003C79.4017 53.2208 77.298 50.2632 77.298 50.2632C81.3179 51.6378 79.0893 48.4719 79.0893 48.4719C82.5052 48.6177 80.0266 46.6182 80.0266 46.6182Z" fill="#6FCF97" fill-opacity="0.3"/>
<g filter="url(#filter5_d)">
<path d="M64.0266 35.4104C63.3392 34.9313 62.6727 34.369 62.0687 33.8066C64.9847 34.4939 63.0684 31.7654 63.0684 31.7654C66.5052 31.9112 64.0266 29.8908 64.0266 29.8908C61.6729 28.2245 59.4443 25.5585 59.4443 25.5585C61.7979 26.1417 60.4024 24.2671 60.4024 24.2671C63.4642 25.1419 61.0481 23.0382 61.0481 23.0382C59.5901 21.8926 57.8613 19.4973 57.8613 19.4973C60.2149 20.4346 58.8819 18.7059 58.8819 18.7059C61.5688 19.5807 59.3818 17.5603 59.3818 17.5603C56.2158 14.7068 54.6537 11.5617 54.1121 10.2703C54.0913 10.187 54.0288 10.1037 54.008 9.99951C53.9872 10.0203 53.9455 10.062 53.9455 10.0828C53.9455 10.062 53.9039 10.0203 53.883 9.99951C53.8414 10.1037 53.7997 10.187 53.7581 10.2911C53.2165 11.5825 51.6544 14.7276 48.5092 17.5603C48.5092 17.5603 46.3431 19.5807 49.0091 18.7059C49.0091 18.7059 47.6761 20.4346 50.0297 19.4973C50.0297 19.4973 48.301 21.8718 46.843 23.0382C46.843 23.0382 44.4268 25.1419 47.4886 24.2671C47.4886 24.2671 46.0931 26.1417 48.4468 25.5585C48.4468 25.5585 46.2181 28.2245 43.8645 29.8908C43.8645 29.8908 41.3859 31.9112 44.8226 31.7654C44.8226 31.7654 42.9064 34.4939 45.8224 33.8066C45.2183 34.369 44.5518 34.9313 43.8645 35.4104C43.8645 35.4104 41.3859 37.4308 44.8226 37.285C44.8226 37.285 42.5939 40.4509 46.6138 39.0762C46.6138 39.0762 44.5102 42.0339 49.03 40.5134C49.03 40.5134 47.6344 43.117 51.1961 41.3882C51.1961 41.3882 50.8837 42.3463 50.9879 42.5546H51.6127C51.7585 42.5546 52.0293 42.4296 52.4459 42.2422V46.512H55.7784V42.2005C55.9867 42.4088 56.1533 42.5546 56.2991 42.5546H56.924C57.0281 42.3463 56.7157 41.3882 56.7157 41.3882C60.2774 43.117 58.8819 40.4926 58.8819 40.4926C63.4017 42.0131 61.298 39.0554 61.298 39.0554C65.3179 40.4301 63.0893 37.2641 63.0893 37.2641C66.5052 37.4099 64.0266 35.4104 64.0266 35.4104Z" fill="#6FCF97" fill-opacity="0.3"/>
</g>
<path d="M64.0266 35.6182C63.3392 35.1391 62.6727 34.5767 62.0687 34.0144C64.9847 34.7017 63.0684 31.9732 63.0684 31.9732C66.5052 32.119 64.0266 30.0986 64.0266 30.0986C61.6729 28.4323 59.4443 25.7662 59.4443 25.7662C61.7979 26.3494 60.4024 24.4749 60.4024 24.4749C63.4642 25.3497 61.0481 23.246 61.0481 23.246C59.5901 22.1004 57.8613 19.7051 57.8613 19.7051C60.2149 20.6424 58.8819 18.9136 58.8819 18.9136C61.5688 19.7884 59.3818 17.7681 59.3818 17.7681C56.2158 14.9145 54.6537 11.7694 54.1121 10.478C54.0913 10.3947 54.0288 10.3114 54.008 10.2073C53.9872 10.2281 53.9455 10.2698 53.9455 10.2906C53.9455 10.2698 53.9039 10.2281 53.883 10.2073C53.8414 10.3114 53.7997 10.3947 53.7581 10.4989C53.2165 11.7902 51.6544 14.9354 48.5092 17.7681C48.5092 17.7681 46.3431 19.7884 49.0091 18.9136C49.0091 18.9136 47.6761 20.6424 50.0297 19.7051C50.0297 19.7051 48.301 22.0796 46.843 23.246C46.843 23.246 44.4268 25.3497 47.4886 24.4749C47.4886 24.4749 46.0931 26.3494 48.4468 25.7662C48.4468 25.7662 46.2181 28.4323 43.8645 30.0986C43.8645 30.0986 41.3859 32.119 44.8226 31.9732C44.8226 31.9732 42.9064 34.7017 45.8224 34.0144C45.2183 34.5767 44.5518 35.1391 43.8645 35.6182C43.8645 35.6182 41.3859 37.6385 44.8226 37.4927C44.8226 37.4927 42.5939 40.6587 46.6138 39.284C46.6138 39.284 44.5102 42.2416 49.03 40.7212C49.03 40.7212 47.6344 43.3247 51.1961 41.596C51.1961 41.596 50.8837 42.5541 50.9879 42.7624H51.6127C51.7585 42.7624 52.0293 42.6374 52.4459 42.4499V46.7198H55.7784V42.4083C55.9867 42.6166 56.1533 42.7624 56.2991 42.7624H56.924C57.0281 42.5541 56.7157 41.596 56.7157 41.596C60.2774 43.3247 58.8819 40.7003 58.8819 40.7003C63.4017 42.2208 61.298 39.2632 61.298 39.2632C65.3179 40.6378 63.0893 37.4719 63.0893 37.4719C66.5052 37.6177 64.0266 35.6182 64.0266 35.6182Z" fill="#6FCF97" fill-opacity="0.3"/>
<g filter="url(#filter6_d)">
<path d="M106.027 36.4104C105.339 35.9313 104.673 35.369 104.069 34.8066C106.985 35.4939 105.068 32.7654 105.068 32.7654C108.505 32.9112 106.027 30.8908 106.027 30.8908C103.673 29.2245 101.444 26.5585 101.444 26.5585C103.798 27.1417 102.402 25.2671 102.402 25.2671C105.464 26.1419 103.048 24.0382 103.048 24.0382C101.59 22.8926 99.8613 20.4973 99.8613 20.4973C102.215 21.4346 100.882 19.7059 100.882 19.7059C103.569 20.5807 101.382 18.5603 101.382 18.5603C98.2158 15.7068 96.6537 12.5617 96.1121 11.2703C96.0913 11.187 96.0288 11.1037 96.008 10.9995C95.9872 11.0203 95.9455 11.062 95.9455 11.0828C95.9455 11.062 95.9039 11.0203 95.883 10.9995C95.8414 11.1037 95.7997 11.187 95.7581 11.2911C95.2165 12.5825 93.6544 15.7276 90.5092 18.5603C90.5092 18.5603 88.3431 20.5807 91.0091 19.7059C91.0091 19.7059 89.6761 21.4346 92.0297 20.4973C92.0297 20.4973 90.301 22.8718 88.843 24.0382C88.843 24.0382 86.4268 26.1419 89.4886 25.2671C89.4886 25.2671 88.0931 27.1417 90.4468 26.5585C90.4468 26.5585 88.2181 29.2245 85.8645 30.8908C85.8645 30.8908 83.3859 32.9112 86.8226 32.7654C86.8226 32.7654 84.9064 35.4939 87.8224 34.8066C87.2183 35.369 86.5518 35.9313 85.8645 36.4104C85.8645 36.4104 83.3859 38.4308 86.8226 38.285C86.8226 38.285 84.5939 41.4509 88.6138 40.0762C88.6138 40.0762 86.5102 43.0339 91.03 41.5134C91.03 41.5134 89.6344 44.117 93.1961 42.3882C93.1961 42.3882 92.8837 43.3463 92.9879 43.5546H93.6127C93.7585 43.5546 94.0293 43.4296 94.4459 43.2422V47.512H97.7784V43.2005C97.9867 43.4088 98.1533 43.5546 98.2991 43.5546H98.924C99.0281 43.3463 98.7157 42.3882 98.7157 42.3882C102.277 44.117 100.882 41.4926 100.882 41.4926C105.402 43.0131 103.298 40.0554 103.298 40.0554C107.318 41.4301 105.089 38.2641 105.089 38.2641C108.505 38.4099 106.027 36.4104 106.027 36.4104Z" fill="#6FCF97" fill-opacity="0.3"/>
</g>
<path d="M106.027 36.6182C105.339 36.1391 104.673 35.5767 104.069 35.0144C106.985 35.7017 105.068 32.9732 105.068 32.9732C108.505 33.119 106.027 31.0986 106.027 31.0986C103.673 29.4323 101.444 26.7662 101.444 26.7662C103.798 27.3494 102.402 25.4749 102.402 25.4749C105.464 26.3497 103.048 24.246 103.048 24.246C101.59 23.1004 99.8613 20.7051 99.8613 20.7051C102.215 21.6424 100.882 19.9136 100.882 19.9136C103.569 20.7884 101.382 18.7681 101.382 18.7681C98.2158 15.9145 96.6537 12.7694 96.1121 11.478C96.0913 11.3947 96.0288 11.3114 96.008 11.2073C95.9872 11.2281 95.9455 11.2698 95.9455 11.2906C95.9455 11.2698 95.9039 11.2281 95.883 11.2073C95.8414 11.3114 95.7997 11.3947 95.7581 11.4989C95.2165 12.7902 93.6544 15.9354 90.5092 18.7681C90.5092 18.7681 88.3431 20.7884 91.0091 19.9136C91.0091 19.9136 89.6761 21.6424 92.0297 20.7051C92.0297 20.7051 90.301 23.0796 88.843 24.246C88.843 24.246 86.4268 26.3497 89.4886 25.4749C89.4886 25.4749 88.0931 27.3494 90.4468 26.7662C90.4468 26.7662 88.2181 29.4323 85.8645 31.0986C85.8645 31.0986 83.3859 33.119 86.8226 32.9732C86.8226 32.9732 84.9064 35.7017 87.8224 35.0144C87.2183 35.5767 86.5518 36.1391 85.8645 36.6182C85.8645 36.6182 83.3859 38.6385 86.8226 38.4927C86.8226 38.4927 84.5939 41.6587 88.6138 40.284C88.6138 40.284 86.5102 43.2416 91.03 41.7212C91.03 41.7212 89.6344 44.3247 93.1961 42.596C93.1961 42.596 92.8837 43.5541 92.9879 43.7624H93.6127C93.7585 43.7624 94.0293 43.6374 94.4459 43.4499V47.7198H97.7784V43.4083C97.9867 43.6166 98.1533 43.7624 98.2991 43.7624H98.924C99.0281 43.5541 98.7157 42.596 98.7157 42.596C102.277 44.3247 100.882 41.7003 100.882 41.7003C105.402 43.2208 103.298 40.2632 103.298 40.2632C107.318 41.6378 105.089 38.4719 105.089 38.4719C108.505 38.6177 106.027 36.6182 106.027 36.6182Z" fill="#6FCF97" fill-opacity="0.3"/>
<g filter="url(#filter7_dd)">
<path d="M103.818 60.1471C103.673 60.0019 103.673 60.0018 103.527 60.0018C102.363 59.2757 101.053 58.6947 99.8887 57.8233C98.2878 56.5161 96.6869 55.209 95.086 53.7566C94.795 53.4661 94.3584 53.1757 94.0673 52.74C94.5039 53.1757 94.9405 53.4661 95.3771 53.6114C95.8137 53.7566 96.2503 54.0471 96.6869 54.0471C97.8512 54.3376 98.8699 54.628 100.18 54.3376H100.325C100.325 54.3376 100.325 54.3376 100.325 54.1923C100.325 54.0471 100.325 54.0471 100.325 53.9019C99.5976 52.74 97.9967 52.0138 97.1235 50.9971C95.5226 49.3995 93.9218 47.9471 92.612 46.059C92.0298 45.1876 91.3022 44.3162 90.72 43.4447C90.72 43.4447 90.72 43.4447 90.8656 43.4447C91.0111 43.4447 91.3022 43.59 91.4477 43.7352C91.7388 43.8804 91.8843 43.8804 91.7388 43.8804C92.903 44.4614 93.9218 44.8971 95.2316 44.8971H95.3771C95.3771 44.8971 95.3771 44.7519 95.2316 44.7519C92.612 42.4281 90.2834 39.959 88.1004 37.1995C87.5183 36.4733 86.9362 35.7471 86.4996 35.0209C86.063 34.2947 86.6451 34.8757 86.9362 35.1662C86.9362 35.1662 86.9362 35.1662 87.0817 35.1662C87.9549 35.7471 88.537 36.1828 89.5558 36.3281C89.5558 36.3281 89.5558 36.3281 89.7013 36.3281C89.8468 36.3281 89.8468 36.1828 89.7013 36.0376C87.5183 32.5519 85.3353 29.0662 84.0255 25.1447C84.0255 24.9995 83.88 24.9995 83.88 24.9995L83.7344 25.1447C83.0068 27.1781 81.988 29.0662 80.9693 30.9543C80.2416 32.1162 79.514 33.4233 78.7863 34.5852C78.4952 35.0209 78.2042 35.4566 77.9131 36.0376C77.9131 36.1828 77.9131 36.3281 78.0586 36.3281C79.0774 36.1828 79.6595 35.7471 80.5327 35.1662C80.8238 35.0209 81.5514 34.1495 81.1148 35.0209C80.6782 35.8924 80.0961 36.6185 79.514 37.1995C77.331 39.959 75.0024 42.4281 72.3828 44.7519C72.2373 44.8971 72.2373 45.0423 72.5284 45.0423C73.8382 45.0423 74.8569 44.4614 76.0212 44.0257C75.8756 44.1709 77.1854 43.4447 77.1854 43.59C76.6033 44.4614 75.8756 45.3328 75.2935 46.2042C74.5658 47.2209 73.6926 48.2376 72.8194 49.109C72.2373 48.3828 71.6552 47.8019 71.073 47.0757C70.6364 46.64 70.1998 46.059 69.9088 45.4781C69.7632 45.0423 69.7632 45.1876 70.0543 45.3328L70.1998 45.4781L70.3454 45.6233C70.9275 46.059 71.3641 46.3495 72.0918 46.4947V46.3495C70.6364 43.8804 69.0356 41.4114 68.0168 38.6519C68.0168 38.6519 68.0168 38.5066 67.8713 38.5066C67.8713 38.5066 67.7258 38.5066 67.7258 38.6519C67.1436 40.1043 66.4159 41.5566 65.6883 42.8638C64.9606 44.0257 64.3785 45.1876 63.6508 46.3495C63.6508 46.4947 63.6508 46.64 63.7963 46.4947C64.524 46.3495 64.9606 46.059 65.5427 45.6233C65.8338 45.4781 66.2704 44.8971 65.9793 45.4781C65.3972 46.059 65.1061 46.4947 64.6695 47.0757C63.0687 49.109 61.4678 50.8519 59.5759 52.4495C59.4303 52.5947 59.4303 52.74 59.5759 52.74C60.4491 52.74 61.3223 52.3042 62.0499 52.0138C61.9044 52.0138 62.9231 51.5781 62.7776 51.7233C62.341 52.3042 61.9044 53.0304 61.4678 53.6114C60.7401 54.7733 59.5759 55.9352 58.4116 56.9519C57.6839 57.5328 56.6652 58.1138 56.0831 58.9852C56.0831 59.1304 56.0831 59.2757 56.2286 59.2757C57.1018 59.5661 57.8295 59.4209 58.7027 59.1304C58.9937 58.9852 59.4303 58.8399 59.5759 58.8399C59.8669 58.6947 60.3035 58.5495 60.5946 58.259C60.3035 58.5495 60.158 58.6947 59.8669 58.9852C58.8482 60.0019 57.6839 61.0185 56.5197 61.8899C55.6465 62.4709 54.6277 62.9066 53.7545 63.6328C53.609 63.778 53.4635 64.0685 53.7545 64.0685C55.3554 64.0685 56.9563 63.778 58.5571 63.0518C58.2661 63.3423 58.1205 63.4876 57.8295 63.778C56.9563 64.6495 55.9375 65.2304 54.7733 65.9566C54.3367 66.2471 54.1911 66.2471 53.9001 66.5376C53.7545 66.6828 53.7545 66.828 54.0456 66.828C56.2286 67.1185 58.4116 66.828 60.4491 66.1018C60.0125 66.5376 59.2848 66.6828 58.8482 67.1185C58.7027 67.2637 58.7027 67.5542 58.8482 67.5542C59.4303 67.6995 60.0125 67.5542 60.5946 67.409C62.1955 67.2637 63.7963 66.5376 64.6695 65.0852C64.9606 65.5209 65.2517 65.9566 65.6883 66.3923C65.6883 66.3923 65.8338 66.5375 65.8338 66.6828C65.6883 68.2804 65.6883 69.7328 66.1249 71.0399C66.2704 71.4756 67.1436 71.9114 67.4347 71.3304C67.8713 70.1685 67.5802 68.7161 67.5802 67.5542C67.5802 67.1185 67.5802 66.6828 67.4347 66.3923C68.0168 66.828 68.599 67.1185 69.1811 67.2637C70.1998 67.5542 71.5096 67.9899 72.5284 67.6995C72.6739 67.6995 72.6739 67.409 72.5284 67.2637C72.2373 66.9733 71.9462 66.6828 71.6552 66.3923C71.9462 66.5376 72.0918 66.5375 72.3828 66.6828C73.6926 67.1185 75.2935 67.6995 76.6033 67.5542C76.8944 67.5542 76.7488 67.2637 76.6033 67.1185C76.1667 66.6828 75.5846 66.5376 75.0024 66.1018C76.8944 66.6828 78.7863 66.9733 80.8238 66.828C80.8238 68.2804 80.8238 69.5876 81.2604 70.7495C81.4059 71.3304 82.7157 72.0566 83.1523 71.1852C83.7344 69.5876 83.4434 67.5542 83.2978 65.9566C83.2978 65.3757 83.1523 64.7947 83.1523 64.2137C83.88 64.7947 84.7532 65.2304 85.7719 65.3756C87.2272 65.8114 88.9736 66.3923 90.429 65.9566C90.72 65.8114 90.72 65.5209 90.429 65.3756C89.9924 64.9399 89.5558 64.5042 89.1192 64.2137C89.4102 64.359 89.8468 64.5042 90.1379 64.6495C92.0298 65.2304 94.2128 66.1018 96.1048 65.8114C96.3959 65.8114 96.3959 65.3757 96.2503 65.2304C95.6682 64.6495 94.795 64.359 94.0673 63.9233C96.978 64.9399 100.034 65.2304 103.09 64.9399C103.381 64.9399 103.381 64.6495 103.236 64.5042C102.799 63.9233 102.654 64.0685 102.072 63.6328C100.616 62.6161 99.161 61.5995 97.8512 60.4376C97.5601 60.1471 97.1235 59.8566 96.8325 59.5661C99.0155 60.4376 101.344 61.0185 103.527 60.8733C104.255 60.728 103.964 60.2923 103.818 60.1471ZM80.9693 65.8114C80.0961 65.2304 79.2229 64.5042 78.3497 63.9233C78.4952 63.778 78.6408 63.6328 78.7863 63.4876C79.3684 63.6328 79.9506 63.778 80.3872 63.778C80.5327 63.9233 80.6782 64.0685 80.8238 64.359C80.9693 64.5042 80.9693 64.5042 81.1148 64.6495C81.1148 65.0852 81.1148 65.5209 80.9693 65.8114C80.9693 65.8114 80.9693 65.9566 80.9693 65.8114Z" fill="#6FCF97" fill-opacity="0.3"/>
</g>
<path d="M103.232 60.5817C103.086 60.4364 103.086 60.4364 102.941 60.4364C101.776 59.7102 100.466 59.1293 99.3022 58.2578C97.7013 56.9507 96.1004 55.6436 94.4996 54.1912C94.2085 53.9007 93.7719 53.6102 93.4808 53.1745C93.9174 53.6102 94.354 53.9007 94.7906 54.046C95.2272 54.1912 95.6638 54.4817 96.1004 54.4817C97.2647 54.7721 98.2834 55.0626 99.5932 54.7721H99.7388C99.7388 54.7721 99.7388 54.7721 99.7388 54.6269C99.7388 54.4817 99.7388 54.4817 99.7388 54.3364C99.0111 53.1745 97.4102 52.4483 96.537 51.4317C94.9362 49.8341 93.3353 48.3817 92.0255 46.4936C91.4434 45.6222 90.7157 44.7507 90.1336 43.8793C90.1336 43.8793 90.1336 43.8793 90.2791 43.8793C90.4246 43.8793 90.7157 44.0245 90.8612 44.1698C91.1523 44.315 91.2978 44.315 91.1523 44.315C92.3166 44.896 93.3353 45.3317 94.6451 45.3317H94.7906C94.7906 45.3317 94.7906 45.1864 94.6451 45.1864C92.0255 42.8626 89.697 40.3936 87.514 37.6341C86.9318 36.9079 86.3497 36.1817 85.9131 35.4555C85.4765 34.7293 86.0586 35.3103 86.3497 35.6007C86.3497 35.6007 86.3497 35.6007 86.4952 35.6007C87.3684 36.1817 87.9506 36.6174 88.9693 36.7626C88.9693 36.7626 88.9693 36.7626 89.1148 36.7626C89.2604 36.7626 89.2604 36.6174 89.1148 36.4722C86.9318 32.9865 84.7488 29.5007 83.439 25.5793C83.439 25.4341 83.2935 25.4341 83.2935 25.4341L83.1479 25.5793C82.4203 27.6126 81.4015 29.5007 80.3828 31.3888C79.6551 32.5507 78.9275 33.8579 78.1998 35.0198C77.9087 35.4555 77.6177 35.8912 77.3266 36.4722C77.3266 36.6174 77.3266 36.7626 77.4721 36.7626C78.4909 36.6174 79.073 36.1817 79.9462 35.6007C80.2373 35.4555 80.9649 34.5841 80.5283 35.4555C80.0917 36.3269 79.5096 37.0531 78.9275 37.6341C76.7445 40.3936 74.4159 42.8626 71.7963 45.1864C71.6508 45.3317 71.6508 45.4769 71.9419 45.4769C73.2517 45.4769 74.2704 44.896 75.4347 44.4602C75.2891 44.6055 76.5989 43.8793 76.5989 44.0245C76.0168 44.896 75.2891 45.7674 74.707 46.6388C73.9793 47.6555 73.1061 48.6721 72.2329 49.5436C71.6508 48.8174 71.0687 48.2364 70.4865 47.5102C70.0499 47.0745 69.6133 46.4936 69.3223 45.9126C69.1767 45.4769 69.1767 45.6222 69.4678 45.7674L69.6133 45.9126L69.7589 46.0579C70.341 46.4936 70.7776 46.7841 71.5053 46.9293V46.7841C70.0499 44.315 68.4491 41.846 67.4303 39.0864C67.4303 39.0864 67.4303 38.9412 67.2848 38.9412C67.2848 38.9412 67.1393 38.9412 67.1393 39.0864C66.5571 40.5388 65.8295 41.9912 65.1018 43.2983C64.3741 44.4602 63.792 45.6222 63.0643 46.7841C63.0643 46.9293 63.0643 47.0745 63.2099 46.9293C63.9375 46.7841 64.3741 46.4936 64.9563 46.0579C65.2473 45.9126 65.6839 45.3317 65.3929 45.9126C64.8107 46.4936 64.5197 46.9293 64.0831 47.5102C62.4822 49.5436 60.8813 51.2864 58.9894 52.884C58.8439 53.0293 58.8439 53.1745 58.9894 53.1745C59.8626 53.1745 60.7358 52.7388 61.4635 52.4483C61.3179 52.4483 62.3367 52.0126 62.1911 52.1579C61.7545 52.7388 61.3179 53.465 60.8813 54.046C60.1537 55.2079 58.9894 56.3698 57.8251 57.3864C57.0975 57.9674 56.0787 58.5483 55.4966 59.4198C55.4966 59.565 55.4966 59.7102 55.6421 59.7102C56.5153 60.0007 57.243 59.8555 58.1162 59.565C58.4073 59.4198 58.8439 59.2745 58.9894 59.2745C59.2805 59.1293 59.7171 58.984 60.0081 58.6936C59.7171 58.984 59.5715 59.1293 59.2805 59.4198C58.2617 60.4364 57.0975 61.4531 55.9332 62.3245C55.06 62.9055 54.0412 63.3412 53.168 64.0674C53.0225 64.2126 52.877 64.5031 53.168 64.5031C54.7689 64.5031 56.3698 64.2126 57.9707 63.4864C57.6796 63.7769 57.5341 63.9221 57.243 64.2126C56.3698 65.084 55.3511 65.665 54.1868 66.3912C53.7502 66.6816 53.6046 66.6816 53.3136 66.9721C53.168 67.1174 53.168 67.2626 53.4591 67.2626C55.6421 67.5531 57.8251 67.2626 59.8626 66.5364C59.426 66.9721 58.6983 67.1174 58.2617 67.5531C58.1162 67.6983 58.1162 67.9888 58.2617 67.9888C58.8439 68.134 59.426 67.9888 60.0081 67.8435C61.609 67.6983 63.2099 66.9721 64.0831 65.5197C64.3741 65.9555 64.6652 66.3912 65.1018 66.8269C65.1018 66.8269 65.2473 66.9721 65.2473 67.1174C65.1018 68.715 65.1018 70.1674 65.5384 71.4745C65.6839 71.9102 66.5571 72.3459 66.8482 71.765C67.2848 70.6031 66.9937 69.1507 66.9937 67.9888C66.9937 67.5531 66.9937 67.1174 66.8482 66.8269C67.4303 67.2626 68.0125 67.5531 68.5946 67.6983C69.6133 67.9888 70.9231 68.4245 71.9419 68.134C72.0874 68.134 72.0874 67.8436 71.9419 67.6983C71.6508 67.4078 71.3597 67.1174 71.0687 66.8269C71.3597 66.9721 71.5053 66.9721 71.7963 67.1174C73.1061 67.5531 74.707 68.134 76.0168 67.9888C76.3079 67.9888 76.1623 67.6983 76.0168 67.5531C75.5802 67.1174 74.9981 66.9721 74.4159 66.5364C76.3079 67.1174 78.1998 67.4078 80.2373 67.2626C80.2373 68.715 80.2373 70.0221 80.6739 71.184C80.8194 71.765 82.1292 72.4912 82.5658 71.6197C83.1479 70.0221 82.8569 67.9888 82.7113 66.3912C82.7113 65.8102 82.5658 65.2293 82.5658 64.6483C83.2935 65.2293 84.1667 65.665 85.1854 65.8102C86.6408 66.2459 88.3872 66.8269 89.8425 66.3912C90.1336 66.2459 90.1336 65.9555 89.8425 65.8102C89.4059 65.3745 88.9693 64.9388 88.5327 64.6483C88.8238 64.7936 89.2604 64.9388 89.5514 65.084C91.4434 65.665 93.6264 66.5364 95.5183 66.2459C95.8094 66.2459 95.8094 65.8102 95.6638 65.665C95.0817 65.084 94.2085 64.7936 93.4808 64.3578C96.3915 65.3745 99.4477 65.665 102.504 65.3745C102.795 65.3745 102.795 65.084 102.649 64.9388C102.213 64.3578 102.067 64.5031 101.485 64.0674C100.03 63.0507 98.5745 62.034 97.2647 60.8721C96.9736 60.5817 96.537 60.2912 96.246 60.0007C98.429 60.8721 100.758 61.4531 102.941 61.3078C103.668 61.1626 103.377 60.7269 103.232 60.5817ZM80.3828 66.2459C79.5096 65.665 78.6364 64.9388 77.7632 64.3578C77.9087 64.2126 78.0543 64.0674 78.1998 63.9221C78.7819 64.0674 79.3641 64.2126 79.8007 64.2126C79.9462 64.3578 80.0917 64.5031 80.2373 64.7936C80.3828 64.9388 80.3828 64.9388 80.5283 65.084C80.5283 65.5197 80.5283 65.9555 80.3828 66.2459C80.3828 66.2459 80.3828 66.3912 80.3828 66.2459Z" fill="#6FCF97" fill-opacity="0.3"/>
<g filter="url(#filter8_d)">
<path d="M51.0266 69.4104C50.3392 68.9313 49.6727 68.369 49.0687 67.8066C51.9847 68.4939 50.0684 65.7654 50.0684 65.7654C53.5052 65.9112 51.0266 63.8908 51.0266 63.8908C48.6729 62.2245 46.4443 59.5585 46.4443 59.5585C48.7979 60.1417 47.4024 58.2671 47.4024 58.2671C50.4642 59.1419 48.0481 57.0382 48.0481 57.0382C46.5901 55.8926 44.8613 53.4973 44.8613 53.4973C47.2149 54.4346 45.8819 52.7059 45.8819 52.7059C48.5688 53.5807 46.3818 51.5603 46.3818 51.5603C43.2158 48.7068 41.6537 45.5617 41.1121 44.2703C41.0913 44.187 41.0288 44.1037 41.008 43.9995C40.9872 44.0203 40.9455 44.062 40.9455 44.0828C40.9455 44.062 40.9039 44.0203 40.883 43.9995C40.8414 44.1037 40.7997 44.187 40.7581 44.2911C40.2165 45.5825 38.6544 48.7276 35.5092 51.5603C35.5092 51.5603 33.3431 53.5807 36.0091 52.7059C36.0091 52.7059 34.6761 54.4346 37.0297 53.4973C37.0297 53.4973 35.301 55.8718 33.843 57.0382C33.843 57.0382 31.4268 59.1419 34.4886 58.2671C34.4886 58.2671 33.0931 60.1417 35.4468 59.5585C35.4468 59.5585 33.2181 62.2245 30.8645 63.8908C30.8645 63.8908 28.3859 65.9112 31.8226 65.7654C31.8226 65.7654 29.9064 68.4939 32.8224 67.8066C32.2183 68.369 31.5518 68.9313 30.8645 69.4104C30.8645 69.4104 28.3859 71.4308 31.8226 71.285C31.8226 71.285 29.5939 74.4509 33.6138 73.0762C33.6138 73.0762 31.5102 76.0339 36.03 74.5134C36.03 74.5134 34.6344 77.117 38.1961 75.3882C38.1961 75.3882 37.8837 76.3463 37.9879 76.5546H38.6127C38.7585 76.5546 39.0293 76.4296 39.4459 76.2422V80.512H42.7784V76.2005C42.9867 76.4088 43.1533 76.5546 43.2991 76.5546H43.924C44.0281 76.3463 43.7157 75.3882 43.7157 75.3882C47.2774 77.117 45.8819 74.4926 45.8819 74.4926C50.4017 76.0131 48.298 73.0554 48.298 73.0554C52.3179 74.4301 50.0893 71.2641 50.0893 71.2641C53.5052 71.4099 51.0266 69.4104 51.0266 69.4104Z" fill="#6FCF97" fill-opacity="0.3"/>
</g>
<path d="M51.0266 69.6182C50.3392 69.1391 49.6727 68.5767 49.0687 68.0144C51.9847 68.7017 50.0684 65.9732 50.0684 65.9732C53.5052 66.119 51.0266 64.0986 51.0266 64.0986C48.6729 62.4323 46.4443 59.7662 46.4443 59.7662C48.7979 60.3494 47.4024 58.4749 47.4024 58.4749C50.4642 59.3497 48.0481 57.246 48.0481 57.246C46.5901 56.1004 44.8613 53.7051 44.8613 53.7051C47.2149 54.6424 45.8819 52.9136 45.8819 52.9136C48.5688 53.7884 46.3818 51.7681 46.3818 51.7681C43.2158 48.9145 41.6537 45.7694 41.1121 44.478C41.0913 44.3947 41.0288 44.3114 41.008 44.2073C40.9872 44.2281 40.9455 44.2698 40.9455 44.2906C40.9455 44.2698 40.9039 44.2281 40.883 44.2073C40.8414 44.3114 40.7997 44.3947 40.7581 44.4989C40.2165 45.7902 38.6544 48.9354 35.5092 51.7681C35.5092 51.7681 33.3431 53.7884 36.0091 52.9136C36.0091 52.9136 34.6761 54.6424 37.0297 53.7051C37.0297 53.7051 35.301 56.0796 33.843 57.246C33.843 57.246 31.4268 59.3497 34.4886 58.4749C34.4886 58.4749 33.0931 60.3494 35.4468 59.7662C35.4468 59.7662 33.2181 62.4323 30.8645 64.0986C30.8645 64.0986 28.3859 66.119 31.8226 65.9732C31.8226 65.9732 29.9064 68.7017 32.8224 68.0144C32.2183 68.5767 31.5518 69.1391 30.8645 69.6182C30.8645 69.6182 28.3859 71.6385 31.8226 71.4927C31.8226 71.4927 29.5939 74.6587 33.6138 73.284C33.6138 73.284 31.5102 76.2416 36.03 74.7212C36.03 74.7212 34.6344 77.3247 38.1961 75.596C38.1961 75.596 37.8837 76.5541 37.9879 76.7624H38.6127C38.7585 76.7624 39.0293 76.6374 39.4459 76.4499V80.7198H42.7784V76.4083C42.9867 76.6166 43.1533 76.7624 43.2991 76.7624H43.924C44.0281 76.5541 43.7157 75.596 43.7157 75.596C47.2774 77.3247 45.8819 74.7003 45.8819 74.7003C50.4017 76.2208 48.298 73.2632 48.298 73.2632C52.3179 74.6378 50.0893 71.4719 50.0893 71.4719C53.5052 71.6177 51.0266 69.6182 51.0266 69.6182Z" fill="#6FCF97" fill-opacity="0.3"/>
<g filter="url(#filter9_d)">
<path d="M138.027 57.4104C137.339 56.9313 136.673 56.369 136.069 55.8066C138.985 56.4939 137.068 53.7654 137.068 53.7654C140.505 53.9112 138.027 51.8908 138.027 51.8908C135.673 50.2245 133.444 47.5585 133.444 47.5585C135.798 48.1417 134.402 46.2671 134.402 46.2671C137.464 47.1419 135.048 45.0382 135.048 45.0382C133.59 43.8926 131.861 41.4973 131.861 41.4973C134.215 42.4346 132.882 40.7059 132.882 40.7059C135.569 41.5807 133.382 39.5603 133.382 39.5603C130.216 36.7068 128.654 33.5617 128.112 32.2703C128.091 32.187 128.029 32.1037 128.008 31.9995C127.987 32.0203 127.946 32.062 127.946 32.0828C127.946 32.062 127.904 32.0203 127.883 31.9995C127.841 32.1037 127.8 32.187 127.758 32.2911C127.217 33.5825 125.654 36.7276 122.509 39.5603C122.509 39.5603 120.343 41.5807 123.009 40.7059C123.009 40.7059 121.676 42.4346 124.03 41.4973C124.03 41.4973 122.301 43.8718 120.843 45.0382C120.843 45.0382 118.427 47.1419 121.489 46.2671C121.489 46.2671 120.093 48.1417 122.447 47.5585C122.447 47.5585 120.218 50.2245 117.864 51.8908C117.864 51.8908 115.386 53.9112 118.823 53.7654C118.823 53.7654 116.906 56.4939 119.822 55.8066C119.218 56.369 118.552 56.9313 117.864 57.4104C117.864 57.4104 115.386 59.4308 118.823 59.285C118.823 59.285 116.594 62.4509 120.614 61.0762C120.614 61.0762 118.51 64.0339 123.03 62.5134C123.03 62.5134 121.634 65.117 125.196 63.3882C125.196 63.3882 124.884 64.3463 124.988 64.5546H125.613C125.759 64.5546 126.029 64.4296 126.446 64.2422V68.512H129.778V64.2005C129.987 64.4088 130.153 64.5546 130.299 64.5546H130.924C131.028 64.3463 130.716 63.3882 130.716 63.3882C134.277 65.117 132.882 62.4926 132.882 62.4926C137.402 64.0131 135.298 61.0554 135.298 61.0554C139.318 62.4301 137.089 59.2641 137.089 59.2641C140.505 59.4099 138.027 57.4104 138.027 57.4104Z" fill="#6FCF97" fill-opacity="0.3"/>
</g>
<path d="M138.027 57.6182C137.339 57.1391 136.673 56.5767 136.069 56.0144C138.985 56.7017 137.068 53.9732 137.068 53.9732C140.505 54.119 138.027 52.0986 138.027 52.0986C135.673 50.4323 133.444 47.7662 133.444 47.7662C135.798 48.3494 134.402 46.4749 134.402 46.4749C137.464 47.3497 135.048 45.246 135.048 45.246C133.59 44.1004 131.861 41.7051 131.861 41.7051C134.215 42.6424 132.882 40.9136 132.882 40.9136C135.569 41.7884 133.382 39.7681 133.382 39.7681C130.216 36.9145 128.654 33.7694 128.112 32.478C128.091 32.3947 128.029 32.3114 128.008 32.2073C127.987 32.2281 127.946 32.2698 127.946 32.2906C127.946 32.2698 127.904 32.2281 127.883 32.2073C127.841 32.3114 127.8 32.3947 127.758 32.4989C127.217 33.7902 125.654 36.9354 122.509 39.7681C122.509 39.7681 120.343 41.7884 123.009 40.9136C123.009 40.9136 121.676 42.6424 124.03 41.7051C124.03 41.7051 122.301 44.0796 120.843 45.246C120.843 45.246 118.427 47.3497 121.489 46.4749C121.489 46.4749 120.093 48.3494 122.447 47.7662C122.447 47.7662 120.218 50.4323 117.864 52.0986C117.864 52.0986 115.386 54.119 118.823 53.9732C118.823 53.9732 116.906 56.7017 119.822 56.0144C119.218 56.5767 118.552 57.1391 117.864 57.6182C117.864 57.6182 115.386 59.6385 118.823 59.4927C118.823 59.4927 116.594 62.6587 120.614 61.284C120.614 61.284 118.51 64.2416 123.03 62.7212C123.03 62.7212 121.634 65.3247 125.196 63.596C125.196 63.596 124.884 64.5541 124.988 64.7624H125.613C125.759 64.7624 126.029 64.6374 126.446 64.4499V68.7198H129.778V64.4083C129.987 64.6166 130.153 64.7624 130.299 64.7624H130.924C131.028 64.5541 130.716 63.596 130.716 63.596C134.277 65.3247 132.882 62.7003 132.882 62.7003C137.402 64.2208 135.298 61.2632 135.298 61.2632C139.318 62.6378 137.089 59.4719 137.089 59.4719C140.505 59.6177 138.027 57.6182 138.027 57.6182Z" fill="#6FCF97" fill-opacity="0.3"/>
<g filter="url(#filter10_d)">
<path d="M124.853 46.2426C124.007 45.6536 123.188 44.9622 122.445 44.2707C126.031 45.1158 123.674 41.761 123.674 41.761C127.9 41.9403 124.853 39.4562 124.853 39.4562C121.959 37.4075 119.218 34.1295 119.218 34.1295C122.112 34.8466 120.397 32.5418 120.397 32.5418C124.161 33.6173 121.19 31.0308 121.19 31.0308C119.398 29.6223 117.272 26.6773 117.272 26.6773C120.166 27.8297 118.527 25.7041 118.527 25.7041C121.831 26.7797 119.142 24.2956 119.142 24.2956C115.249 20.7872 113.328 16.9202 112.663 15.3324C112.637 15.23 112.56 15.1276 112.535 14.9995C112.509 15.0251 112.458 15.0763 112.458 15.1019C112.458 15.0763 112.406 15.0251 112.381 14.9995C112.33 15.1276 112.278 15.23 112.227 15.358C111.561 16.9458 109.641 20.8128 105.774 24.2956C105.774 24.2956 103.11 26.7797 106.388 25.7041C106.388 25.7041 104.749 27.8297 107.643 26.6773C107.643 26.6773 105.518 29.5967 103.725 31.0308C103.725 31.0308 100.754 33.6173 104.519 32.5418C104.519 32.5418 102.803 34.8466 105.697 34.1295C105.697 34.1295 102.957 37.4075 100.063 39.4562C100.063 39.4562 97.0154 41.9403 101.241 41.761C101.241 41.761 98.8849 45.1158 102.47 44.2707C101.727 44.9622 100.908 45.6536 100.063 46.2426C100.063 46.2426 97.0154 48.7267 101.241 48.5474C101.241 48.5474 98.5007 52.44 103.443 50.7498C103.443 50.7498 100.857 54.3863 106.414 52.5169C106.414 52.5169 104.698 55.718 109.077 53.5924C109.077 53.5924 108.693 54.7705 108.821 55.0266H109.589C109.769 55.0266 110.102 54.8729 110.614 54.6424V59.8923H114.711V54.5912C114.967 54.8473 115.172 55.0266 115.352 55.0266H116.12C116.248 54.7705 115.864 53.5924 115.864 53.5924C120.243 55.718 118.527 52.4912 118.527 52.4912C124.084 54.3607 121.498 50.7242 121.498 50.7242C126.44 52.4144 123.7 48.5218 123.7 48.5218C127.9 48.7011 124.853 46.2426 124.853 46.2426Z" fill="#6FCF97" fill-opacity="0.3"/>
</g>
<path d="M124.853 46.498C124.007 45.909 123.188 45.2175 122.445 44.5261C126.031 45.3712 123.674 42.0164 123.674 42.0164C127.9 42.1957 124.853 39.7116 124.853 39.7116C121.959 37.6629 119.218 34.3849 119.218 34.3849C122.112 35.1019 120.397 32.7971 120.397 32.7971C124.161 33.8727 121.19 31.2862 121.19 31.2862C119.398 29.8777 117.272 26.9326 117.272 26.9326C120.166 28.085 118.527 25.9595 118.527 25.9595C121.831 27.0351 119.142 24.551 119.142 24.551C115.249 21.0425 113.328 17.1756 112.663 15.5878C112.637 15.4854 112.56 15.3829 112.535 15.2549C112.509 15.2805 112.458 15.3317 112.458 15.3573C112.458 15.3317 112.406 15.2805 112.381 15.2549C112.33 15.3829 112.278 15.4854 112.227 15.6134C111.561 17.2012 109.641 21.0682 105.774 24.551C105.774 24.551 103.11 27.0351 106.388 25.9595C106.388 25.9595 104.749 28.085 107.643 26.9326C107.643 26.9326 105.518 29.8521 103.725 31.2862C103.725 31.2862 100.754 33.8727 104.519 32.7971C104.519 32.7971 102.803 35.1019 105.697 34.3849C105.697 34.3849 102.957 37.6629 100.063 39.7116C100.063 39.7116 97.0154 42.1957 101.241 42.0164C101.241 42.0164 98.8849 45.3712 102.47 44.5261C101.727 45.2175 100.908 45.909 100.063 46.498C100.063 46.498 97.0154 48.9821 101.241 48.8028C101.241 48.8028 98.5007 52.6954 103.443 51.0052C103.443 51.0052 100.857 54.6417 106.414 52.7722C106.414 52.7722 104.698 55.9734 109.077 53.8478C109.077 53.8478 108.693 55.0258 108.821 55.2819H109.589C109.769 55.2819 110.102 55.1283 110.614 54.8978V60.1477H114.711V54.8466C114.967 55.1027 115.172 55.2819 115.352 55.2819H116.12C116.248 55.0258 115.864 53.8478 115.864 53.8478C120.243 55.9734 118.527 52.7466 118.527 52.7466C124.084 54.6161 121.498 50.9796 121.498 50.9796C126.44 52.6698 123.7 48.7772 123.7 48.7772C127.9 48.9565 124.853 46.498 124.853 46.498Z" fill="#6FCF97" fill-opacity="0.3"/>
<g filter="url(#filter11_d)">
<path d="M113.691 64.1704C113.145 63.7901 112.616 63.3437 112.137 62.8973C114.451 63.4429 112.93 61.277 112.93 61.277C115.658 61.3928 113.691 59.789 113.691 59.789C111.822 58.4663 110.053 56.3501 110.053 56.3501C111.922 56.813 110.814 55.325 110.814 55.325C113.244 56.0194 111.326 54.3495 111.326 54.3495C110.169 53.4402 108.797 51.5388 108.797 51.5388C110.665 52.2828 109.607 50.9105 109.607 50.9105C111.74 51.6049 110.004 50.0012 110.004 50.0012C107.491 47.7361 106.251 45.2395 105.821 44.2144C105.804 44.1483 105.755 44.0822 105.738 43.9995C105.722 44.016 105.688 44.0491 105.688 44.0656C105.688 44.0491 105.655 44.016 105.639 43.9995C105.606 44.0822 105.573 44.1483 105.54 44.231C105.11 45.2561 103.87 47.7526 101.373 50.0012C101.373 50.0012 99.6537 51.6049 101.77 50.9105C101.77 50.9105 100.712 52.2828 102.58 51.5388C102.58 51.5388 101.208 53.4236 100.051 54.3495C100.051 54.3495 98.1326 56.0194 100.563 55.325C100.563 55.325 99.4553 56.813 101.324 56.3501C101.324 56.3501 99.5545 58.4663 97.6862 59.789C97.6862 59.789 95.7187 61.3928 98.4468 61.277C98.4468 61.277 96.9257 63.4429 99.2404 62.8973C98.7609 63.3437 98.2318 63.7901 97.6862 64.1704C97.6862 64.1704 95.7187 65.7742 98.4468 65.6584C98.4468 65.6584 96.6777 68.1715 99.8686 67.0803C99.8686 67.0803 98.1987 69.4281 101.787 68.2211C101.787 68.2211 100.679 70.2878 103.506 68.9155C103.506 68.9155 103.258 69.6761 103.341 69.8414H103.837C103.952 69.8414 104.167 69.7422 104.498 69.5934V72.9828H107.143V69.5603C107.309 69.7257 107.441 69.8414 107.557 69.8414H108.053C108.135 69.6761 107.887 68.9155 107.887 68.9155C110.715 70.2878 109.607 68.2046 109.607 68.2046C113.195 69.4115 111.525 67.0638 111.525 67.0638C114.716 68.155 112.947 65.6419 112.947 65.6419C115.658 65.7576 113.691 64.1704 113.691 64.1704Z" fill="#6FCF97" fill-opacity="0.3"/>
</g>
<path d="M113.691 64.3352C113.145 63.9549 112.616 63.5085 112.137 63.0621C114.451 63.6077 112.93 61.4418 112.93 61.4418C115.658 61.5576 113.691 59.9538 113.691 59.9538C111.822 58.6311 110.053 56.5149 110.053 56.5149C111.922 56.9778 110.814 55.4898 110.814 55.4898C113.244 56.1842 111.326 54.5143 111.326 54.5143C110.169 53.605 108.797 51.7036 108.797 51.7036C110.665 52.4476 109.607 51.0753 109.607 51.0753C111.74 51.7697 110.004 50.166 110.004 50.166C107.491 47.9009 106.251 45.4043 105.821 44.3792C105.804 44.3131 105.755 44.247 105.738 44.1643C105.722 44.1808 105.688 44.2139 105.688 44.2304C105.688 44.2139 105.655 44.1808 105.639 44.1643C105.606 44.247 105.573 44.3131 105.54 44.3958C105.11 45.4209 103.87 47.9174 101.373 50.166C101.373 50.166 99.6537 51.7697 101.77 51.0753C101.77 51.0753 100.712 52.4476 102.58 51.7036C102.58 51.7036 101.208 53.5884 100.051 54.5143C100.051 54.5143 98.1326 56.1842 100.563 55.4898C100.563 55.4898 99.4553 56.9778 101.324 56.5149C101.324 56.5149 99.5545 58.6311 97.6862 59.9538C97.6862 59.9538 95.7187 61.5576 98.4468 61.4418C98.4468 61.4418 96.9257 63.6077 99.2404 63.0621C98.7609 63.5085 98.2318 63.9549 97.6862 64.3352C97.6862 64.3352 95.7187 65.939 98.4468 65.8232C98.4468 65.8232 96.6777 68.3363 99.8686 67.2451C99.8686 67.2451 98.1987 69.5929 101.787 68.3859C101.787 68.3859 100.679 70.4526 103.506 69.0803C103.506 69.0803 103.258 69.8409 103.341 70.0062H103.837C103.952 70.0062 104.167 69.907 104.498 69.7582V73.1476H107.143V69.7251C107.309 69.8905 107.441 70.0062 107.557 70.0062H108.053C108.135 69.8409 107.887 69.0803 107.887 69.0803C110.715 70.4526 109.607 68.3694 109.607 68.3694C113.195 69.5763 111.525 67.2286 111.525 67.2286C114.716 68.3198 112.947 65.8067 112.947 65.8067C115.658 65.9224 113.691 64.3352 113.691 64.3352Z" fill="#6FCF97" fill-opacity="0.3"/>
<g filter="url(#filter12_d)">
<path d="M84.6907 20.1705C84.1451 19.7903 83.616 19.3439 83.1365 18.8975C85.4512 19.4431 83.9301 17.2772 83.9301 17.2772C86.6582 17.3929 84.6907 15.7892 84.6907 15.7892C82.8224 14.4665 81.0533 12.3502 81.0533 12.3502C82.9216 12.8131 81.8138 11.3251 81.8138 11.3251C84.2443 12.0195 82.3264 10.3496 82.3264 10.3496C81.169 9.44028 79.7967 7.53892 79.7967 7.53892C81.665 8.28293 80.6069 6.91065 80.6069 6.91065C82.7397 7.60506 81.0037 6.0013 81.0037 6.0013C78.4906 3.73621 77.2506 1.23965 76.8207 0.21457C76.8042 0.148436 76.7546 0.0823014 76.738 -0.000366211C76.7215 0.0161673 76.6884 0.0492344 76.6884 0.0657679C76.6884 0.0492344 76.6554 0.0161673 76.6388 -0.000366211C76.6058 0.0823014 76.5727 0.148436 76.5396 0.231103C76.1098 1.25618 74.8697 3.75274 72.3732 6.0013C72.3732 6.0013 70.6537 7.60506 72.77 6.91065C72.77 6.91065 71.7118 8.28293 73.5801 7.53892C73.5801 7.53892 72.2079 9.42374 71.0505 10.3496C71.0505 10.3496 69.1326 12.0195 71.563 11.3251C71.563 11.3251 70.4553 12.8131 72.3236 12.3502C72.3236 12.3502 70.5545 14.4665 68.6862 15.7892C68.6862 15.7892 66.7187 17.3929 69.4468 17.2772C69.4468 17.2772 67.9257 19.4431 70.2404 18.8975C69.7609 19.3439 69.2318 19.7903 68.6862 20.1705C68.6862 20.1705 66.7187 21.7743 69.4468 21.6586C69.4468 21.6586 67.6777 24.1717 70.8686 23.0804C70.8686 23.0804 69.1987 25.4282 72.7865 24.2213C72.7865 24.2213 71.6788 26.2879 74.506 24.9157C74.506 24.9157 74.258 25.6762 74.3407 25.8415H74.8367C74.9524 25.8415 75.1674 25.7423 75.498 25.5935V28.9829H78.1434V25.5605C78.3087 25.7258 78.441 25.8415 78.5567 25.8415H79.0527C79.1354 25.6762 78.8874 24.9157 78.8874 24.9157C81.7146 26.2879 80.6069 24.2047 80.6069 24.2047C84.1947 25.4117 82.5248 23.0639 82.5248 23.0639C85.7157 24.1551 83.9467 21.642 83.9467 21.642C86.6582 21.7578 84.6907 20.1705 84.6907 20.1705Z" fill="#6FCF97" fill-opacity="0.3"/>
</g>
<path d="M84.6907 20.3355C84.1451 19.9552 83.616 19.5088 83.1365 19.0624C85.4512 19.608 83.9301 17.4421 83.9301 17.4421C86.6582 17.5578 84.6907 15.9541 84.6907 15.9541C82.8224 14.6314 81.0533 12.5151 81.0533 12.5151C82.9216 12.978 81.8138 11.49 81.8138 11.49C84.2443 12.1844 82.3264 10.5145 82.3264 10.5145C81.169 9.6052 79.7967 7.70384 79.7967 7.70384C81.665 8.44785 80.6069 7.07557 80.6069 7.07557C82.7397 7.76997 81.0037 6.16622 81.0037 6.16622C78.4906 3.90113 77.2506 1.40457 76.8207 0.379487C76.8042 0.313353 76.7546 0.247218 76.738 0.164551C76.7215 0.181084 76.6884 0.214151 76.6884 0.230685C76.6884 0.214151 76.6554 0.181084 76.6388 0.164551C76.6058 0.247218 76.5727 0.313353 76.5396 0.39602C76.1098 1.4211 74.8697 3.91766 72.3732 6.16622C72.3732 6.16622 70.6537 7.76997 72.77 7.07557C72.77 7.07557 71.7118 8.44785 73.5801 7.70384C73.5801 7.70384 72.2079 9.58866 71.0505 10.5145C71.0505 10.5145 69.1326 12.1844 71.563 11.49C71.563 11.49 70.4553 12.978 72.3236 12.5151C72.3236 12.5151 70.5545 14.6314 68.6862 15.9541C68.6862 15.9541 66.7187 17.5578 69.4468 17.4421C69.4468 17.4421 67.9257 19.608 70.2404 19.0624C69.7609 19.5088 69.2318 19.9552 68.6862 20.3355C68.6862 20.3355 66.7187 21.9392 69.4468 21.8235C69.4468 21.8235 67.6777 24.3366 70.8686 23.2454C70.8686 23.2454 69.1987 25.5931 72.7865 24.3862C72.7865 24.3862 71.6788 26.4529 74.506 25.0806C74.506 25.0806 74.258 25.8411 74.3407 26.0065H74.8367C74.9524 26.0065 75.1674 25.9073 75.498 25.7585V29.1478H78.1434V25.7254C78.3087 25.8907 78.441 26.0065 78.5567 26.0065H79.0527C79.1354 25.8411 78.8874 25.0806 78.8874 25.0806C81.7146 26.4529 80.6069 24.3696 80.6069 24.3696C84.1947 25.5766 82.5248 23.2288 82.5248 23.2288C85.7157 24.32 83.9467 21.8069 83.9467 21.8069C86.6582 21.9227 84.6907 20.3355 84.6907 20.3355Z" fill="#6FCF97" fill-opacity="0.3"/>
<g filter="url(#filter13_d)">
<path d="M151.691 66.1704C151.145 65.7901 150.616 65.3437 150.137 64.8973C152.451 65.4429 150.93 63.277 150.93 63.277C153.658 63.3928 151.691 61.789 151.691 61.789C149.822 60.4663 148.053 58.3501 148.053 58.3501C149.922 58.813 148.814 57.325 148.814 57.325C151.244 58.0194 149.326 56.3495 149.326 56.3495C148.169 55.4402 146.797 53.5388 146.797 53.5388C148.665 54.2828 147.607 52.9105 147.607 52.9105C149.74 53.6049 148.004 52.0012 148.004 52.0012C145.491 49.7361 144.251 47.2395 143.821 46.2144C143.804 46.1483 143.755 46.0822 143.738 45.9995C143.722 46.016 143.688 46.0491 143.688 46.0656C143.688 46.0491 143.655 46.016 143.639 45.9995C143.606 46.0822 143.573 46.1483 143.54 46.231C143.11 47.2561 141.87 49.7526 139.373 52.0012C139.373 52.0012 137.654 53.6049 139.77 52.9105C139.77 52.9105 138.712 54.2828 140.58 53.5388C140.58 53.5388 139.208 55.4236 138.051 56.3495C138.051 56.3495 136.133 58.0194 138.563 57.325C138.563 57.325 137.455 58.813 139.324 58.3501C139.324 58.3501 137.554 60.4663 135.686 61.789C135.686 61.789 133.719 63.3928 136.447 63.277C136.447 63.277 134.926 65.4429 137.24 64.8973C136.761 65.3437 136.232 65.7901 135.686 66.1704C135.686 66.1704 133.719 67.7742 136.447 67.6584C136.447 67.6584 134.678 70.1715 137.869 69.0803C137.869 69.0803 136.199 71.4281 139.787 70.2211C139.787 70.2211 138.679 72.2878 141.506 70.9155C141.506 70.9155 141.258 71.6761 141.341 71.8414H141.837C141.952 71.8414 142.167 71.7422 142.498 71.5934V74.9828H145.143V71.5603C145.309 71.7257 145.441 71.8414 145.557 71.8414H146.053C146.135 71.6761 145.887 70.9155 145.887 70.9155C148.715 72.2878 147.607 70.2046 147.607 70.2046C151.195 71.4115 149.525 69.0638 149.525 69.0638C152.716 70.155 150.947 67.6419 150.947 67.6419C153.658 67.7576 151.691 66.1704 151.691 66.1704Z" fill="#6FCF97" fill-opacity="0.3"/>
</g>
<path d="M151.691 66.3352C151.145 65.9549 150.616 65.5085 150.137 65.0621C152.451 65.6077 150.93 63.4418 150.93 63.4418C153.658 63.5576 151.691 61.9538 151.691 61.9538C149.822 60.6311 148.053 58.5149 148.053 58.5149C149.922 58.9778 148.814 57.4898 148.814 57.4898C151.244 58.1842 149.326 56.5143 149.326 56.5143C148.169 55.605 146.797 53.7036 146.797 53.7036C148.665 54.4476 147.607 53.0753 147.607 53.0753C149.74 53.7697 148.004 52.166 148.004 52.166C145.491 49.9009 144.251 47.4043 143.821 46.3792C143.804 46.3131 143.755 46.247 143.738 46.1643C143.722 46.1808 143.688 46.2139 143.688 46.2304C143.688 46.2139 143.655 46.1808 143.639 46.1643C143.606 46.247 143.573 46.3131 143.54 46.3958C143.11 47.4209 141.87 49.9174 139.373 52.166C139.373 52.166 137.654 53.7697 139.77 53.0753C139.77 53.0753 138.712 54.4476 140.58 53.7036C140.58 53.7036 139.208 55.5884 138.051 56.5143C138.051 56.5143 136.133 58.1842 138.563 57.4898C138.563 57.4898 137.455 58.9778 139.324 58.5149C139.324 58.5149 137.554 60.6311 135.686 61.9538C135.686 61.9538 133.719 63.5576 136.447 63.4418C136.447 63.4418 134.926 65.6077 137.24 65.0621C136.761 65.5085 136.232 65.9549 135.686 66.3352C135.686 66.3352 133.719 67.939 136.447 67.8232C136.447 67.8232 134.678 70.3363 137.869 69.2451C137.869 69.2451 136.199 71.5929 139.787 70.3859C139.787 70.3859 138.679 72.4526 141.506 71.0803C141.506 71.0803 141.258 71.8409 141.341 72.0062H141.837C141.952 72.0062 142.167 71.907 142.498 71.7582V75.1476H145.143V71.7251C145.309 71.8905 145.441 72.0062 145.557 72.0062H146.053C146.135 71.8409 145.887 71.0803 145.887 71.0803C148.715 72.4526 147.607 70.3694 147.607 70.3694C151.195 71.5763 149.525 69.2286 149.525 69.2286C152.716 70.3198 150.947 67.8067 150.947 67.8067C153.658 67.9224 151.691 66.3352 151.691 66.3352Z" fill="#6FCF97" fill-opacity="0.3"/>
<g filter="url(#filter14_d)">
<path d="M165.691 60.1704C165.145 59.7901 164.616 59.3437 164.137 58.8973C166.451 59.4429 164.93 57.277 164.93 57.277C167.658 57.3928 165.691 55.789 165.691 55.789C163.822 54.4663 162.053 52.3501 162.053 52.3501C163.922 52.813 162.814 51.325 162.814 51.325C165.244 52.0194 163.326 50.3495 163.326 50.3495C162.169 49.4402 160.797 47.5388 160.797 47.5388C162.665 48.2828 161.607 46.9105 161.607 46.9105C163.74 47.6049 162.004 46.0012 162.004 46.0012C159.491 43.7361 158.251 41.2395 157.821 40.2144C157.804 40.1483 157.755 40.0822 157.738 39.9995C157.722 40.016 157.688 40.0491 157.688 40.0656C157.688 40.0491 157.655 40.016 157.639 39.9995C157.606 40.0822 157.573 40.1483 157.54 40.231C157.11 41.2561 155.87 43.7526 153.373 46.0012C153.373 46.0012 151.654 47.6049 153.77 46.9105C153.77 46.9105 152.712 48.2828 154.58 47.5388C154.58 47.5388 153.208 49.4236 152.051 50.3495C152.051 50.3495 150.133 52.0194 152.563 51.325C152.563 51.325 151.455 52.813 153.324 52.3501C153.324 52.3501 151.554 54.4663 149.686 55.789C149.686 55.789 147.719 57.3928 150.447 57.277C150.447 57.277 148.926 59.4429 151.24 58.8973C150.761 59.3437 150.232 59.7901 149.686 60.1704C149.686 60.1704 147.719 61.7742 150.447 61.6584C150.447 61.6584 148.678 64.1715 151.869 63.0803C151.869 63.0803 150.199 65.4281 153.787 64.2211C153.787 64.2211 152.679 66.2878 155.506 64.9155C155.506 64.9155 155.258 65.6761 155.341 65.8414H155.837C155.952 65.8414 156.167 65.7422 156.498 65.5934V68.9828H159.143V65.5603C159.309 65.7257 159.441 65.8414 159.557 65.8414H160.053C160.135 65.6761 159.887 64.9155 159.887 64.9155C162.715 66.2878 161.607 64.2046 161.607 64.2046C165.195 65.4115 163.525 63.0638 163.525 63.0638C166.716 64.155 164.947 61.6419 164.947 61.6419C167.658 61.7576 165.691 60.1704 165.691 60.1704Z" fill="#6FCF97" fill-opacity="0.3"/>
</g>
<path d="M165.691 60.3352C165.145 59.9549 164.616 59.5085 164.137 59.0621C166.451 59.6077 164.93 57.4418 164.93 57.4418C167.658 57.5576 165.691 55.9538 165.691 55.9538C163.822 54.6311 162.053 52.5149 162.053 52.5149C163.922 52.9778 162.814 51.4898 162.814 51.4898C165.244 52.1842 163.326 50.5143 163.326 50.5143C162.169 49.605 160.797 47.7036 160.797 47.7036C162.665 48.4476 161.607 47.0753 161.607 47.0753C163.74 47.7697 162.004 46.166 162.004 46.166C159.491 43.9009 158.251 41.4043 157.821 40.3792C157.804 40.3131 157.755 40.247 157.738 40.1643C157.722 40.1808 157.688 40.2139 157.688 40.2304C157.688 40.2139 157.655 40.1808 157.639 40.1643C157.606 40.247 157.573 40.3131 157.54 40.3958C157.11 41.4209 155.87 43.9174 153.373 46.166C153.373 46.166 151.654 47.7697 153.77 47.0753C153.77 47.0753 152.712 48.4476 154.58 47.7036C154.58 47.7036 153.208 49.5884 152.051 50.5143C152.051 50.5143 150.133 52.1842 152.563 51.4898C152.563 51.4898 151.455 52.9778 153.324 52.5149C153.324 52.5149 151.554 54.6311 149.686 55.9538C149.686 55.9538 147.719 57.5576 150.447 57.4418C150.447 57.4418 148.926 59.6077 151.24 59.0621C150.761 59.5085 150.232 59.9549 149.686 60.3352C149.686 60.3352 147.719 61.939 150.447 61.8232C150.447 61.8232 148.678 64.3363 151.869 63.2451C151.869 63.2451 150.199 65.5929 153.787 64.3859C153.787 64.3859 152.679 66.4526 155.506 65.0803C155.506 65.0803 155.258 65.8409 155.341 66.0062H155.837C155.952 66.0062 156.167 65.907 156.498 65.7582V69.1476H159.143V65.7251C159.309 65.8905 159.441 66.0062 159.557 66.0062H160.053C160.135 65.8409 159.887 65.0803 159.887 65.0803C162.715 66.4526 161.607 64.3694 161.607 64.3694C165.195 65.5763 163.525 63.2286 163.525 63.2286C166.716 64.3198 164.947 61.8067 164.947 61.8067C167.658 61.9224 165.691 60.3352 165.691 60.3352Z" fill="#6FCF97" fill-opacity="0.3"/>
<g filter="url(#filter15_d)">
<path d="M137.691 33.1704C137.145 32.7901 136.616 32.3437 136.137 31.8973C138.451 32.4429 136.93 30.277 136.93 30.277C139.658 30.3928 137.691 28.789 137.691 28.789C135.822 27.4663 134.053 25.3501 134.053 25.3501C135.922 25.813 134.814 24.325 134.814 24.325C137.244 25.0194 135.326 23.3495 135.326 23.3495C134.169 22.4402 132.797 20.5388 132.797 20.5388C134.665 21.2828 133.607 19.9105 133.607 19.9105C135.74 20.6049 134.004 19.0012 134.004 19.0012C131.491 16.7361 130.251 14.2395 129.821 13.2144C129.804 13.1483 129.755 13.0822 129.738 12.9995C129.722 13.016 129.688 13.0491 129.688 13.0656C129.688 13.0491 129.655 13.016 129.639 12.9995C129.606 13.0822 129.573 13.1483 129.54 13.231C129.11 14.2561 127.87 16.7526 125.373 19.0012C125.373 19.0012 123.654 20.6049 125.77 19.9105C125.77 19.9105 124.712 21.2828 126.58 20.5388C126.58 20.5388 125.208 22.4236 124.051 23.3495C124.051 23.3495 122.133 25.0194 124.563 24.325C124.563 24.325 123.455 25.813 125.324 25.3501C125.324 25.3501 123.554 27.4663 121.686 28.789C121.686 28.789 119.719 30.3928 122.447 30.277C122.447 30.277 120.926 32.4429 123.24 31.8973C122.761 32.3437 122.232 32.7901 121.686 33.1704C121.686 33.1704 119.719 34.7742 122.447 34.6584C122.447 34.6584 120.678 37.1715 123.869 36.0803C123.869 36.0803 122.199 38.4281 125.787 37.2211C125.787 37.2211 124.679 39.2878 127.506 37.9155C127.506 37.9155 127.258 38.6761 127.341 38.8414H127.837C127.952 38.8414 128.167 38.7422 128.498 38.5934V41.9828H131.143V38.5603C131.309 38.7257 131.441 38.8414 131.557 38.8414H132.053C132.135 38.6761 131.887 37.9155 131.887 37.9155C134.715 39.2878 133.607 37.2046 133.607 37.2046C137.195 38.4115 135.525 36.0638 135.525 36.0638C138.716 37.155 136.947 34.6419 136.947 34.6419C139.658 34.7576 137.691 33.1704 137.691 33.1704Z" fill="#6FCF97" fill-opacity="0.3"/>
</g>
<path d="M137.691 33.3352C137.145 32.9549 136.616 32.5085 136.137 32.0621C138.451 32.6077 136.93 30.4418 136.93 30.4418C139.658 30.5576 137.691 28.9538 137.691 28.9538C135.822 27.6311 134.053 25.5149 134.053 25.5149C135.922 25.9778 134.814 24.4898 134.814 24.4898C137.244 25.1842 135.326 23.5143 135.326 23.5143C134.169 22.605 132.797 20.7036 132.797 20.7036C134.665 21.4476 133.607 20.0753 133.607 20.0753C135.74 20.7697 134.004 19.166 134.004 19.166C131.491 16.9009 130.251 14.4043 129.821 13.3792C129.804 13.3131 129.755 13.247 129.738 13.1643C129.722 13.1808 129.688 13.2139 129.688 13.2304C129.688 13.2139 129.655 13.1808 129.639 13.1643C129.606 13.247 129.573 13.3131 129.54 13.3958C129.11 14.4209 127.87 16.9174 125.373 19.166C125.373 19.166 123.654 20.7697 125.77 20.0753C125.77 20.0753 124.712 21.4476 126.58 20.7036C126.58 20.7036 125.208 22.5884 124.051 23.5143C124.051 23.5143 122.133 25.1842 124.563 24.4898C124.563 24.4898 123.455 25.9778 125.324 25.5149C125.324 25.5149 123.554 27.6311 121.686 28.9538C121.686 28.9538 119.719 30.5576 122.447 30.4418C122.447 30.4418 120.926 32.6077 123.24 32.0621C122.761 32.5085 122.232 32.9549 121.686 33.3352C121.686 33.3352 119.719 34.939 122.447 34.8232C122.447 34.8232 120.678 37.3363 123.869 36.2451C123.869 36.2451 122.199 38.5929 125.787 37.3859C125.787 37.3859 124.679 39.4526 127.506 38.0803C127.506 38.0803 127.258 38.8409 127.341 39.0062H127.837C127.952 39.0062 128.167 38.907 128.498 38.7582V42.1476H131.143V38.7251C131.309 38.8905 131.441 39.0062 131.557 39.0062H132.053C132.135 38.8409 131.887 38.0803 131.887 38.0803C134.715 39.4526 133.607 37.3694 133.607 37.3694C137.195 38.5763 135.525 36.2286 135.525 36.2286C138.716 37.3198 136.947 34.8067 136.947 34.8067C139.658 34.9224 137.691 33.3352 137.691 33.3352Z" fill="#6FCF97" fill-opacity="0.3"/>
<g filter="url(#filter16_d)">
<path d="M151.691 47.1704C151.145 46.7901 150.616 46.3437 150.137 45.8973C152.451 46.4429 150.93 44.277 150.93 44.277C153.658 44.3928 151.691 42.789 151.691 42.789C149.822 41.4663 148.053 39.3501 148.053 39.3501C149.922 39.813 148.814 38.325 148.814 38.325C151.244 39.0194 149.326 37.3495 149.326 37.3495C148.169 36.4402 146.797 34.5388 146.797 34.5388C148.665 35.2828 147.607 33.9105 147.607 33.9105C149.74 34.6049 148.004 33.0012 148.004 33.0012C145.491 30.7361 144.251 28.2395 143.821 27.2144C143.804 27.1483 143.755 27.0822 143.738 26.9995C143.722 27.016 143.688 27.0491 143.688 27.0656C143.688 27.0491 143.655 27.016 143.639 26.9995C143.606 27.0822 143.573 27.1483 143.54 27.231C143.11 28.2561 141.87 30.7526 139.373 33.0012C139.373 33.0012 137.654 34.6049 139.77 33.9105C139.77 33.9105 138.712 35.2828 140.58 34.5388C140.58 34.5388 139.208 36.4236 138.051 37.3495C138.051 37.3495 136.133 39.0194 138.563 38.325C138.563 38.325 137.455 39.813 139.324 39.3501C139.324 39.3501 137.554 41.4663 135.686 42.789C135.686 42.789 133.719 44.3928 136.447 44.277C136.447 44.277 134.926 46.4429 137.24 45.8973C136.761 46.3437 136.232 46.7901 135.686 47.1704C135.686 47.1704 133.719 48.7742 136.447 48.6584C136.447 48.6584 134.678 51.1715 137.869 50.0803C137.869 50.0803 136.199 52.4281 139.787 51.2211C139.787 51.2211 138.679 53.2878 141.506 51.9155C141.506 51.9155 141.258 52.6761 141.341 52.8414H141.837C141.952 52.8414 142.167 52.7422 142.498 52.5934V55.9828H145.143V52.5603C145.309 52.7257 145.441 52.8414 145.557 52.8414H146.053C146.135 52.6761 145.887 51.9155 145.887 51.9155C148.715 53.2878 147.607 51.2046 147.607 51.2046C151.195 52.4115 149.525 50.0638 149.525 50.0638C152.716 51.155 150.947 48.6419 150.947 48.6419C153.658 48.7576 151.691 47.1704 151.691 47.1704Z" fill="#6FCF97" fill-opacity="0.3"/>
</g>
<path d="M151.691 47.3352C151.145 46.9549 150.616 46.5085 150.137 46.0621C152.451 46.6077 150.93 44.4418 150.93 44.4418C153.658 44.5576 151.691 42.9538 151.691 42.9538C149.822 41.6311 148.053 39.5149 148.053 39.5149C149.922 39.9778 148.814 38.4898 148.814 38.4898C151.244 39.1842 149.326 37.5143 149.326 37.5143C148.169 36.605 146.797 34.7036 146.797 34.7036C148.665 35.4476 147.607 34.0753 147.607 34.0753C149.74 34.7697 148.004 33.166 148.004 33.166C145.491 30.9009 144.251 28.4043 143.821 27.3792C143.804 27.3131 143.755 27.247 143.738 27.1643C143.722 27.1808 143.688 27.2139 143.688 27.2304C143.688 27.2139 143.655 27.1808 143.639 27.1643C143.606 27.247 143.573 27.3131 143.54 27.3958C143.11 28.4209 141.87 30.9174 139.373 33.166C139.373 33.166 137.654 34.7697 139.77 34.0753C139.77 34.0753 138.712 35.4476 140.58 34.7036C140.58 34.7036 139.208 36.5884 138.051 37.5143C138.051 37.5143 136.133 39.1842 138.563 38.4898C138.563 38.4898 137.455 39.9778 139.324 39.5149C139.324 39.5149 137.554 41.6311 135.686 42.9538C135.686 42.9538 133.719 44.5576 136.447 44.4418C136.447 44.4418 134.926 46.6077 137.24 46.0621C136.761 46.5085 136.232 46.9549 135.686 47.3352C135.686 47.3352 133.719 48.939 136.447 48.8232C136.447 48.8232 134.678 51.3363 137.869 50.2451C137.869 50.2451 136.199 52.5929 139.787 51.3859C139.787 51.3859 138.679 53.4526 141.506 52.0803C141.506 52.0803 141.258 52.8409 141.341 53.0062H141.837C141.952 53.0062 142.167 52.907 142.498 52.7582V56.1476H145.143V52.7251C145.309 52.8905 145.441 53.0062 145.557 53.0062H146.053C146.135 52.8409 145.887 52.0803 145.887 52.0803C148.715 53.4526 147.607 51.3694 147.607 51.3694C151.195 52.5763 149.525 50.2286 149.525 50.2286C152.716 51.3198 150.947 48.8067 150.947 48.8067C153.658 48.9224 151.691 47.3352 151.691 47.3352Z" fill="#6FCF97" fill-opacity="0.3"/>
<g filter="url(#filter17_d)">
<path d="M100.61 68.6287C100.61 68.6287 102.475 68.0742 102.223 66.4358C102.475 64.2933 99.4254 59.9579 99.4254 59.9579C99.4254 59.9579 101.039 59.3782 100.761 57.6642C100.484 55.9502 97.0813 52.1441 97.2577 52.1189C97.4341 52.0937 98.2659 51.8669 98.1903 50.0521C98.0895 48.2373 93.7541 43.3726 93.4768 43.3726C93.2248 43.3726 88.8894 48.2373 88.7886 50.0521C88.6878 51.8669 89.5195 52.0685 89.7212 52.1189C89.8976 52.1441 86.4949 55.9754 86.2176 57.6894C85.9403 59.4034 87.5535 59.9831 87.5535 59.9831C87.5535 59.9831 84.5036 64.2933 84.7557 66.4358C84.5036 68.0742 86.3688 68.6287 86.3688 68.6287C86.3688 68.6287 82.5628 73.1405 83.0417 75.2326C83.5206 77.3247 86.5201 77.123 89.2675 76.4677C90.6538 76.14 91.6872 75.8879 92.4434 75.7367V81.0551H94.7119V75.7619C95.4681 75.9131 96.4511 76.14 97.7366 76.4677C100.484 77.123 103.484 77.3247 103.962 75.2326C104.416 73.1405 100.61 68.6287 100.61 68.6287Z" fill="#6FCF97" fill-opacity="0.3"/>
</g>
<path d="M100.61 68.8799C100.61 68.8799 102.475 68.3254 102.223 66.687C102.475 64.5445 99.4254 60.2091 99.4254 60.2091C99.4254 60.2091 101.039 59.6294 100.761 57.9154C100.484 56.2014 97.0813 52.3954 97.2577 52.3702C97.4341 52.345 98.2659 52.1181 98.1903 50.3033C98.0895 48.4885 93.7541 43.6238 93.4768 43.6238C93.2248 43.6238 88.8894 48.4885 88.7886 50.3033C88.6878 52.1181 89.5195 52.3198 89.7212 52.3702C89.8976 52.3954 86.4949 56.2266 86.2176 57.9406C85.9403 59.6546 87.5535 60.2343 87.5535 60.2343C87.5535 60.2343 84.5036 64.5445 84.7557 66.687C84.5036 68.3254 86.3688 68.8799 86.3688 68.8799C86.3688 68.8799 82.5628 73.3917 83.0417 75.4838C83.5206 77.5759 86.5201 77.3742 89.2675 76.7189C90.6538 76.3912 91.6872 76.1391 92.4434 75.9879V81.3063H94.7119V76.0131C95.4681 76.1644 96.4511 76.3912 97.7366 76.7189C100.484 77.3742 103.484 77.5759 103.962 75.4838C104.416 73.3917 100.61 68.8799 100.61 68.8799Z" fill="#6FCF97" fill-opacity="0.3"/>
<g filter="url(#filter18_dd)">
<path d="M42.4504 82.4227C41.8809 82.1008 41.0885 81.6304 39.2809 80.7142C36.8542 79.5008 34.7741 77.5941 33.7589 76.5789C33.6351 76.4551 33.7837 76.2322 33.957 76.3065C36.2846 77.297 39.0085 77.4703 40.7666 77.4455C41.1876 77.4455 41.3114 76.876 40.9152 76.7027C39.0085 75.8112 36.1608 74.3503 35.0713 73.5331C34.8732 73.3845 34.997 73.0626 35.2446 73.0874C35.938 73.1369 37.1018 73.2112 38.0923 73.2855C38.5132 73.3103 38.6866 72.7655 38.3151 72.5426C37.6961 72.1712 36.9532 71.7255 36.1361 71.1064L34.6008 69.8435C34.477 69.7445 34.5513 69.4721 34.6999 69.4721H35.6408C35.8637 69.4721 35.9627 69.2493 35.7646 69.1254C34.6751 68.4816 33.8827 67.7635 33.437 67.293C33.2637 67.1197 33.4122 66.8473 33.6599 66.8721L36.6808 67.2188C36.9532 67.2435 37.0523 66.8968 36.8294 66.773C35.3189 65.9064 33.6599 64.5197 33.1151 63.6282C32.9665 63.3806 33.1398 63.0587 33.437 63.0835L34.6008 63.1578C34.8732 63.1825 34.9722 62.8111 34.7494 62.6873C33.4618 61.9444 32.2979 60.8549 31.8027 60.2358C31.6541 60.0377 31.8274 59.7653 32.0503 59.8149L33.5608 60.0625C33.8332 60.112 34.0065 59.7653 33.7837 59.592C32.4217 58.4282 31.3322 57.2396 30.7379 56.5958C30.6389 56.472 30.7379 56.2986 30.8865 56.3234C31.1341 56.3729 31.4808 56.4472 31.8274 56.5215C32.1246 56.5958 32.3227 56.2491 32.0998 56.0262C30.5646 54.491 28.8312 51.9157 28.8312 50.9995C28.8312 51.9157 27.0979 54.491 25.5626 56.0262C25.3397 56.2243 25.5378 56.5958 25.835 56.5215C26.1817 56.4472 26.5283 56.3729 26.776 56.3234C26.9245 56.2986 27.0236 56.472 26.9245 56.5958C26.3302 57.2148 25.2159 58.4282 23.8788 59.592C23.6559 59.7653 23.8293 60.112 24.1016 60.0625L25.6121 59.8149C25.8598 59.7653 26.0083 60.0377 25.8598 60.2358C25.3398 60.8796 24.2007 61.9444 22.9131 62.6873C22.6902 62.8111 22.7892 63.1825 23.0616 63.1578L24.2255 63.0835C24.5226 63.0587 24.6959 63.3806 24.5474 63.6282C23.9778 64.5197 22.3435 65.9311 20.833 66.773C20.6102 66.8968 20.7092 67.2435 20.9816 67.2188L24.0026 66.8721C24.2502 66.8473 24.3988 67.1445 24.2255 67.3178C23.7797 67.813 22.9873 68.4569 21.8978 69.1254C21.6997 69.2493 21.774 69.4721 22.0216 69.4721H22.9626C23.1112 69.4721 23.1854 69.7445 23.0616 69.8435L21.5264 71.0817C20.734 71.7007 19.9664 72.196 19.3473 72.5426C19.0006 72.7655 19.1492 73.3103 19.5702 73.2855C20.5606 73.2112 21.7245 73.1369 22.4178 73.0874C22.6654 73.0626 22.7892 73.3845 22.5911 73.5331C21.5016 74.3503 18.6787 75.8112 16.7473 76.6532C16.3511 76.8265 16.4749 77.396 16.8958 77.396C18.654 77.4208 21.3778 77.2722 23.7054 76.257C23.8788 76.1827 24.0274 76.4055 23.9035 76.5293C22.8883 77.5446 20.8083 79.4513 18.3816 80.6646C16.5987 81.5808 15.8063 82.0513 15.212 82.3732C14.8406 82.5713 14.9891 83.1409 15.4101 83.1656C16.7225 83.1904 18.5301 83.1904 20.0654 83.0666C21.873 82.8932 23.1112 82.6208 23.7797 82.4227C23.9531 82.3732 24.1016 82.5713 23.9778 82.7199C23.4826 83.3637 22.4426 84.5523 20.5359 85.7904C20.214 86.0133 20.3625 86.5085 20.7587 86.5085C22.3683 86.4837 25.2902 86.3352 27.2712 85.4685V89.7524H30.4903V85.4685C32.4713 86.3352 35.3189 86.5085 36.9285 86.5085C37.3247 86.5085 37.4485 85.9885 37.1018 85.7904C35.1951 84.5523 34.1303 83.3637 33.6599 82.7199C33.536 82.5713 33.6846 82.3732 33.8579 82.4227C34.5265 82.5961 35.7894 82.8932 37.5723 83.0666C39.1075 83.2151 40.9152 83.2151 42.2276 83.1656C42.6733 83.1904 42.8219 82.6208 42.4504 82.4227Z" fill="#6FCF97" fill-opacity="0.3"/>
</g>
<path d="M42.4504 82.6696C41.8809 82.3477 41.0885 81.8772 39.2809 80.961C36.8542 79.7476 34.7741 77.8409 33.7589 76.8257C33.6351 76.7019 33.7837 76.479 33.957 76.5533C36.2846 77.5438 39.0085 77.7171 40.7666 77.6924C41.1876 77.6924 41.3114 77.1228 40.9152 76.9495C39.0085 76.0581 36.1608 74.5971 35.0713 73.7799C34.8732 73.6314 34.997 73.3095 35.2446 73.3342C35.938 73.3837 37.1018 73.458 38.0923 73.5323C38.5132 73.5571 38.6866 73.0123 38.3151 72.7895C37.6961 72.418 36.9532 71.9723 36.1361 71.3532L34.6008 70.0904C34.477 69.9913 34.5513 69.7189 34.6999 69.7189H35.6408C35.8637 69.7189 35.9627 69.4961 35.7646 69.3723C34.6751 68.7285 33.8827 68.0104 33.437 67.5399C33.2637 67.3665 33.4122 67.0941 33.6599 67.1189L36.6808 67.4656C36.9532 67.4903 37.0523 67.1437 36.8294 67.0199C35.3189 66.1532 33.6599 64.7665 33.1151 63.8751C32.9665 63.6274 33.1398 63.3055 33.437 63.3303L34.6008 63.4046C34.8732 63.4293 34.9722 63.0579 34.7494 62.9341C33.4618 62.1912 32.2979 61.1017 31.8027 60.4826C31.6541 60.2845 31.8274 60.0122 32.0503 60.0617L33.5608 60.3093C33.8332 60.3588 34.0065 60.0122 33.7837 59.8388C32.4217 58.675 31.3322 57.4864 30.7379 56.8426C30.6389 56.7188 30.7379 56.5454 30.8865 56.5702C31.1341 56.6197 31.4808 56.694 31.8274 56.7683C32.1246 56.8426 32.3227 56.4959 32.0998 56.2731C30.5646 54.7378 28.8312 52.1625 28.8312 51.2463C28.8312 52.1625 27.0979 54.7378 25.5626 56.2731C25.3397 56.4712 25.5378 56.8426 25.835 56.7683C26.1817 56.694 26.5283 56.6197 26.776 56.5702C26.9245 56.5454 27.0236 56.7188 26.9245 56.8426C26.3302 57.4617 25.2159 58.675 23.8788 59.8388C23.6559 60.0122 23.8293 60.3588 24.1016 60.3093L25.6121 60.0617C25.8598 60.0122 26.0083 60.2845 25.8598 60.4826C25.3398 61.1265 24.2007 62.1912 22.9131 62.9341C22.6902 63.0579 22.7892 63.4293 23.0616 63.4046L24.2255 63.3303C24.5226 63.3055 24.6959 63.6274 24.5474 63.8751C23.9778 64.7665 22.3435 66.1779 20.833 67.0199C20.6102 67.1437 20.7092 67.4903 20.9816 67.4656L24.0026 67.1189C24.2502 67.0941 24.3988 67.3913 24.2255 67.5646C23.7797 68.0599 22.9873 68.7037 21.8978 69.3723C21.6997 69.4961 21.774 69.7189 22.0216 69.7189H22.9626C23.1112 69.7189 23.1854 69.9913 23.0616 70.0904L21.5264 71.3285C20.734 71.9475 19.9664 72.4428 19.3473 72.7895C19.0006 73.0123 19.1492 73.5571 19.5702 73.5323C20.5606 73.458 21.7245 73.3837 22.4178 73.3342C22.6654 73.3095 22.7892 73.6314 22.5911 73.7799C21.5016 74.5971 18.6787 76.0581 16.7473 76.9C16.3511 77.0733 16.4749 77.6428 16.8958 77.6428C18.654 77.6676 21.3778 77.519 23.7054 76.5038C23.8788 76.4295 24.0274 76.6524 23.9035 76.7762C22.8883 77.7914 20.8083 79.6981 18.3816 80.9115C16.5987 81.8277 15.8063 82.2981 15.212 82.6201C14.8406 82.8181 14.9891 83.3877 15.4101 83.4124C16.7225 83.4372 18.5301 83.4372 20.0654 83.3134C21.873 83.1401 23.1112 82.8677 23.7797 82.6696C23.9531 82.6201 24.1016 82.8181 23.9778 82.9667C23.4826 83.6105 22.4426 84.7991 20.5359 86.0372C20.214 86.2601 20.3625 86.7553 20.7587 86.7553C22.3683 86.7306 25.2902 86.582 27.2712 85.7153V89.9992H30.4903V85.7153C32.4713 86.582 35.3189 86.7553 36.9285 86.7553C37.3247 86.7553 37.4485 86.2353 37.1018 86.0372C35.1951 84.7991 34.1303 83.6105 33.6599 82.9667C33.536 82.8181 33.6846 82.6201 33.8579 82.6696C34.5265 82.8429 35.7894 83.1401 37.5723 83.3134C39.1075 83.462 40.9152 83.462 42.2276 83.4124C42.6733 83.4372 42.8219 82.8677 42.4504 82.6696Z" fill="#6FCF97" fill-opacity="0.3"/>
<defs>
<filter id="filter0_d" x="12" y="31.9995" width="24.7028" height="38.5238" filterUnits="userSpaceOnUse" color-interpolation-filters="sRGB">
<feFlood flood-opacity="0" result="BackgroundImageFix"/>
<feColorMatrix in="SourceAlpha" type="matrix" values="0 0 0 0 0 0 0 0 0 0 0 0 0 0 0 0 0 0 127 0"/>
<feOffset dy="2"/>
<feGaussianBlur stdDeviation="1"/>
<feColorMatrix type="matrix" values="0 0 0 0 0.475284 0 0 0 0 0.475284 0 0 0 0 0.475284 0 0 0 0.25 0"/>
<feBlend mode="normal" in2="BackgroundImageFix" result="effect1_dropShadow"/>
<feBlend mode="normal" in="SourceGraphic" in2="effect1_dropShadow" result="shape"/>
</filter>
<filter id="filter1_d" x="22" y="16.9995" width="25.8953" height="40.5125" filterUnits="userSpaceOnUse" color-interpolation-filters="sRGB">
<feFlood flood-opacity="0" result="BackgroundImageFix"/>
<feColorMatrix in="SourceAlpha" type="matrix" values="0 0 0 0 0 0 0 0 0 0 0 0 0 0 0 0 0 0 127 0"/>
<feOffset dy="2"/>
<feGaussianBlur stdDeviation="1"/>
<feColorMatrix type="matrix" values="0 0 0 0 0.475284 0 0 0 0 0.475284 0 0 0 0 0.475284 0 0 0 0.25 0"/>
<feBlend mode="normal" in2="BackgroundImageFix" result="effect1_dropShadow"/>
<feBlend mode="normal" in="SourceGraphic" in2="effect1_dropShadow" result="shape"/>
</filter>
<filter id="filter2_d" x="0" y="44.9995" width="25.8953" height="40.5125" filterUnits="userSpaceOnUse" color-interpolation-filters="sRGB">
<feFlood flood-opacity="0" result="BackgroundImageFix"/>
<feColorMatrix in="SourceAlpha" type="matrix" values="0 0 0 0 0 0 0 0 0 0 0 0 0 0 0 0 0 0 127 0"/>
<feOffset dy="2"/>
<feGaussianBlur stdDeviation="1"/>
<feColorMatrix type="matrix" values="0 0 0 0 0.475284 0 0 0 0 0.475284 0 0 0 0 0.475284 0 0 0 0.25 0"/>
<feBlend mode="normal" in2="BackgroundImageFix" result="effect1_dropShadow"/>
<feBlend mode="normal" in="SourceGraphic" in2="effect1_dropShadow" result="shape"/>
</filter>
<filter id="filter3_d" x="41" y="32.9995" width="25.8953" height="40.5125" filterUnits="userSpaceOnUse" color-interpolation-filters="sRGB">
<feFlood flood-opacity="0" result="BackgroundImageFix"/>
<feColorMatrix in="SourceAlpha" type="matrix" values="0 0 0 0 0 0 0 0 0 0 0 0 0 0 0 0 0 0 127 0"/>
<feOffset dy="2"/>
<feGaussianBlur stdDeviation="1"/>
<feColorMatrix type="matrix" values="0 0 0 0 0.475284 0 0 0 0 0.475284 0 0 0 0 0.475284 0 0 0 0.25 0"/>
<feBlend mode="normal" in2="BackgroundImageFix" result="effect1_dropShadow"/>
<feBlend mode="normal" in="SourceGraphic" in2="effect1_dropShadow" result="shape"/>
</filter>
<filter id="filter4_d" x="57" y="20.9995" width="25.8953" height="40.5125" filterUnits="userSpaceOnUse" color-interpolation-filters="sRGB">
<feFlood flood-opacity="0" result="BackgroundImageFix"/>
<feColorMatrix in="SourceAlpha" type="matrix" values="0 0 0 0 0 0 0 0 0 0 0 0 0 0 0 0 0 0 127 0"/>
<feOffset dy="2"/>
<feGaussianBlur stdDeviation="1"/>
<feColorMatrix type="matrix" values="0 0 0 0 0.475284 0 0 0 0 0.475284 0 0 0 0 0.475284 0 0 0 0.25 0"/>
<feBlend mode="normal" in2="BackgroundImageFix" result="effect1_dropShadow"/>
<feBlend mode="normal" in="SourceGraphic" in2="effect1_dropShadow" result="shape"/>
</filter>
<filter id="filter5_d" x="41" y="9.99951" width="25.8953" height="40.5125" filterUnits="userSpaceOnUse" color-interpolation-filters="sRGB">
<feFlood flood-opacity="0" result="BackgroundImageFix"/>
<feColorMatrix in="SourceAlpha" type="matrix" values="0 0 0 0 0 0 0 0 0 0 0 0 0 0 0 0 0 0 127 0"/>
<feOffset dy="2"/>
<feGaussianBlur stdDeviation="1"/>
<feColorMatrix type="matrix" values="0 0 0 0 0.475284 0 0 0 0 0.475284 0 0 0 0 0.475284 0 0 0 0.25 0"/>
<feBlend mode="normal" in2="BackgroundImageFix" result="effect1_dropShadow"/>
<feBlend mode="normal" in="SourceGraphic" in2="effect1_dropShadow" result="shape"/>
</filter>
<filter id="filter6_d" x="83" y="10.9995" width="25.8953" height="40.5125" filterUnits="userSpaceOnUse" color-interpolation-filters="sRGB">
<feFlood flood-opacity="0" result="BackgroundImageFix"/>
<feColorMatrix in="SourceAlpha" type="matrix" values="0 0 0 0 0 0 0 0 0 0 0 0 0 0 0 0 0 0 127 0"/>
<feOffset dy="2"/>
<feGaussianBlur stdDeviation="1"/>
<feColorMatrix type="matrix" values="0 0 0 0 0.475284 0 0 0 0 0.475284 0 0 0 0 0.475284 0 0 0 0.25 0"/>
<feBlend mode="normal" in2="BackgroundImageFix" result="effect1_dropShadow"/>
<feBlend mode="normal" in="SourceGraphic" in2="effect1_dropShadow" result="shape"/>
</filter>
<filter id="filter7_dd" x="43.5865" y="23.9995" width="70.4135" height="66.6109" filterUnits="userSpaceOnUse" color-interpolation-filters="sRGB">
<feFlood flood-opacity="0" result="BackgroundImageFix"/>
<feColorMatrix in="SourceAlpha" type="matrix" values="0 0 0 0 0 0 0 0 0 0 0 0 0 0 0 0 0 0 127 0"/>
<feOffset dy="9"/>
<feGaussianBlur stdDeviation="5"/>
<feColorMatrix type="matrix" values="0 0 0 0 0 0 0 0 0 0 0 0 0 0 0 0 0 0 0.05 0"/>
<feBlend mode="normal" in2="BackgroundImageFix" result="effect1_dropShadow"/>
<feColorMatrix in="SourceAlpha" type="matrix" values="0 0 0 0 0 0 0 0 0 0 0 0 0 0 0 0 0 0 127 0"/>
<feOffset dx="-1" dy="-1"/>
<feColorMatrix type="matrix" values="0 0 0 0 1 0 0 0 0 1 0 0 0 0 1 0 0 0 1 0"/>
<feBlend mode="normal" in2="effect1_dropShadow" result="effect2_dropShadow"/>
<feBlend mode="normal" in="SourceGraphic" in2="effect2_dropShadow" result="shape"/>
</filter>
<filter id="filter8_d" x="28" y="43.9995" width="25.8953" height="40.5125" filterUnits="userSpaceOnUse" color-interpolation-filters="sRGB">
<feFlood flood-opacity="0" result="BackgroundImageFix"/>
<feColorMatrix in="SourceAlpha" type="matrix" values="0 0 0 0 0 0 0 0 0 0 0 0 0 0 0 0 0 0 127 0"/>
<feOffset dy="2"/>
<feGaussianBlur stdDeviation="1"/>
<feColorMatrix type="matrix" values="0 0 0 0 0.475284 0 0 0 0 0.475284 0 0 0 0 0.475284 0 0 0 0.25 0"/>
<feBlend mode="normal" in2="BackgroundImageFix" result="effect1_dropShadow"/>
<feBlend mode="normal" in="SourceGraphic" in2="effect1_dropShadow" result="shape"/>
</filter>
<filter id="filter9_d" x="115" y="31.9995" width="25.8953" height="40.5125" filterUnits="userSpaceOnUse" color-interpolation-filters="sRGB">
<feFlood flood-opacity="0" result="BackgroundImageFix"/>
<feColorMatrix in="SourceAlpha" type="matrix" values="0 0 0 0 0 0 0 0 0 0 0 0 0 0 0 0 0 0 127 0"/>
<feOffset dy="2"/>
<feGaussianBlur stdDeviation="1"/>
<feColorMatrix type="matrix" values="0 0 0 0 0.475284 0 0 0 0 0.475284 0 0 0 0 0.475284 0 0 0 0.25 0"/>
<feBlend mode="normal" in2="BackgroundImageFix" result="effect1_dropShadow"/>
<feBlend mode="normal" in="SourceGraphic" in2="effect1_dropShadow" result="shape"/>
</filter>
<filter id="filter10_d" x="97" y="14.9995" width="30.9207" height="48.8928" filterUnits="userSpaceOnUse" color-interpolation-filters="sRGB">
<feFlood flood-opacity="0" result="BackgroundImageFix"/>
<feColorMatrix in="SourceAlpha" type="matrix" values="0 0 0 0 0 0 0 0 0 0 0 0 0 0 0 0 0 0 127 0"/>
<feOffset dy="2"/>
<feGaussianBlur stdDeviation="1"/>
<feColorMatrix type="matrix" values="0 0 0 0 0.475284 0 0 0 0 0.475284 0 0 0 0 0.475284 0 0 0 0.25 0"/>
<feBlend mode="normal" in2="BackgroundImageFix" result="effect1_dropShadow"/>
<feBlend mode="normal" in="SourceGraphic" in2="effect1_dropShadow" result="shape"/>
</filter>
<filter id="filter11_d" x="95" y="43.9995" width="21.3803" height="32.9833" filterUnits="userSpaceOnUse" color-interpolation-filters="sRGB">
<feFlood flood-opacity="0" result="BackgroundImageFix"/>
<feColorMatrix in="SourceAlpha" type="matrix" values="0 0 0 0 0 0 0 0 0 0 0 0 0 0 0 0 0 0 127 0"/>
<feOffset dy="2"/>
<feGaussianBlur stdDeviation="1"/>
<feColorMatrix type="matrix" values="0 0 0 0 0.475284 0 0 0 0 0.475284 0 0 0 0 0.475284 0 0 0 0.25 0"/>
<feBlend mode="normal" in2="BackgroundImageFix" result="effect1_dropShadow"/>
<feBlend mode="normal" in="SourceGraphic" in2="effect1_dropShadow" result="shape"/>
</filter>
<filter id="filter12_d" x="66" y="-0.000366211" width="21.3803" height="32.9833" filterUnits="userSpaceOnUse" color-interpolation-filters="sRGB">
<feFlood flood-opacity="0" result="BackgroundImageFix"/>
<feColorMatrix in="SourceAlpha" type="matrix" values="0 0 0 0 0 0 0 0 0 0 0 0 0 0 0 0 0 0 127 0"/>
<feOffset dy="2"/>
<feGaussianBlur stdDeviation="1"/>
<feColorMatrix type="matrix" values="0 0 0 0 0.475284 0 0 0 0 0.475284 0 0 0 0 0.475284 0 0 0 0.25 0"/>
<feBlend mode="normal" in2="BackgroundImageFix" result="effect1_dropShadow"/>
<feBlend mode="normal" in="SourceGraphic" in2="effect1_dropShadow" result="shape"/>
</filter>
<filter id="filter13_d" x="133" y="45.9995" width="21.3803" height="32.9833" filterUnits="userSpaceOnUse" color-interpolation-filters="sRGB">
<feFlood flood-opacity="0" result="BackgroundImageFix"/>
<feColorMatrix in="SourceAlpha" type="matrix" values="0 0 0 0 0 0 0 0 0 0 0 0 0 0 0 0 0 0 127 0"/>
<feOffset dy="2"/>
<feGaussianBlur stdDeviation="1"/>
<feColorMatrix type="matrix" values="0 0 0 0 0.475284 0 0 0 0 0.475284 0 0 0 0 0.475284 0 0 0 0.25 0"/>
<feBlend mode="normal" in2="BackgroundImageFix" result="effect1_dropShadow"/>
<feBlend mode="normal" in="SourceGraphic" in2="effect1_dropShadow" result="shape"/>
</filter>
<filter id="filter14_d" x="147" y="39.9995" width="21.3803" height="32.9833" filterUnits="userSpaceOnUse" color-interpolation-filters="sRGB">
<feFlood flood-opacity="0" result="BackgroundImageFix"/>
<feColorMatrix in="SourceAlpha" type="matrix" values="0 0 0 0 0 0 0 0 0 0 0 0 0 0 0 0 0 0 127 0"/>
<feOffset dy="2"/>
<feGaussianBlur stdDeviation="1"/>
<feColorMatrix type="matrix" values="0 0 0 0 0.475284 0 0 0 0 0.475284 0 0 0 0 0.475284 0 0 0 0.25 0"/>
<feBlend mode="normal" in2="BackgroundImageFix" result="effect1_dropShadow"/>
<feBlend mode="normal" in="SourceGraphic" in2="effect1_dropShadow" result="shape"/>
</filter>
<filter id="filter15_d" x="119" y="12.9995" width="21.3803" height="32.9833" filterUnits="userSpaceOnUse" color-interpolation-filters="sRGB">
<feFlood flood-opacity="0" result="BackgroundImageFix"/>
<feColorMatrix in="SourceAlpha" type="matrix" values="0 0 0 0 0 0 0 0 0 0 0 0 0 0 0 0 0 0 127 0"/>
<feOffset dy="2"/>
<feGaussianBlur stdDeviation="1"/>
<feColorMatrix type="matrix" values="0 0 0 0 0.475284 0 0 0 0 0.475284 0 0 0 0 0.475284 0 0 0 0.25 0"/>
<feBlend mode="normal" in2="BackgroundImageFix" result="effect1_dropShadow"/>
<feBlend mode="normal" in="SourceGraphic" in2="effect1_dropShadow" result="shape"/>
</filter>
<filter id="filter16_d" x="133" y="26.9995" width="21.3803" height="32.9833" filterUnits="userSpaceOnUse" color-interpolation-filters="sRGB">
<feFlood flood-opacity="0" result="BackgroundImageFix"/>
<feColorMatrix in="SourceAlpha" type="matrix" values="0 0 0 0 0 0 0 0 0 0 0 0 0 0 0 0 0 0 127 0"/>
<feOffset dy="2"/>
<feGaussianBlur stdDeviation="1"/>
<feColorMatrix type="matrix" values="0 0 0 0 0.475284 0 0 0 0 0.475284 0 0 0 0 0.475284 0 0 0 0.25 0"/>
<feBlend mode="normal" in2="BackgroundImageFix" result="effect1_dropShadow"/>
<feBlend mode="normal" in="SourceGraphic" in2="effect1_dropShadow" result="shape"/>
</filter>
<filter id="filter17_d" x="81" y="43.3726" width="25" height="41.6825" filterUnits="userSpaceOnUse" color-interpolation-filters="sRGB">
<feFlood flood-opacity="0" result="BackgroundImageFix"/>
<feColorMatrix in="SourceAlpha" type="matrix" values="0 0 0 0 0 0 0 0 0 0 0 0 0 0 0 0 0 0 127 0"/>
<feOffset dy="2"/>
<feGaussianBlur stdDeviation="1"/>
<feColorMatrix type="matrix" values="0 0 0 0 0.475284 0 0 0 0 0.475284 0 0 0 0 0.475284 0 0 0 0.25 0"/>
<feBlend mode="normal" in2="BackgroundImageFix" result="effect1_dropShadow"/>
<feBlend mode="normal" in="SourceGraphic" in2="effect1_dropShadow" result="shape"/>
</filter>
<filter id="filter18_dd" x="5" y="49.9995" width="47.661" height="58.7528" filterUnits="userSpaceOnUse" color-interpolation-filters="sRGB">
<feFlood flood-opacity="0" result="BackgroundImageFix"/>
<feColorMatrix in="SourceAlpha" type="matrix" values="0 0 0 0 0 0 0 0 0 0 0 0 0 0 0 0 0 0 127 0"/>
<feOffset dy="9"/>
<feGaussianBlur stdDeviation="5"/>
<feColorMatrix type="matrix" values="0 0 0 0 0 0 0 0 0 0 0 0 0 0 0 0 0 0 0.05 0"/>
<feBlend mode="normal" in2="BackgroundImageFix" result="effect1_dropShadow"/>
<feColorMatrix in="SourceAlpha" type="matrix" values="0 0 0 0 0 0 0 0 0 0 0 0 0 0 0 0 0 0 127 0"/>
<feOffset dx="-1" dy="-1"/>
<feColorMatrix type="matrix" values="0 0 0 0 1 0 0 0 0 1 0 0 0 0 1 0 0 0 1 0"/>
<feBlend mode="normal" in2="effect1_dropShadow" result="effect2_dropShadow"/>
<feBlend mode="normal" in="SourceGraphic" in2="effect2_dropShadow" result="shape"/>
</filter>
</defs>
</svg>
