<svg width="386" height="243" viewBox="0 0 386 243" fill="none" xmlns="http://www.w3.org/2000/svg">
<path d="M96 -0.000488281H0V243C73.3333 210.666 230.2 140.4 271 118C322 89.9995 406 21.9995 381 16.9995C356 11.9995 305 8.99951 258 5.99951C220.4 3.59951 134.333 0.999512 96 -0.000488281Z" fill="#D5E2EE"/>
<path d="M96 -0.000488281H0V243C73.3333 210.666 230.2 140.4 271 118C322 89.9995 406 21.9995 381 16.9995C356 11.9995 305 8.99951 258 5.99951C220.4 3.59951 134.333 0.999512 96 -0.000488281Z" fill="url(#paint0_linear)"/>
<defs>
<linearGradient id="paint0_linear" x1="224.538" y1="4.12931" x2="224.538" y2="140.035" gradientUnits="userSpaceOnUse">
<stop stop-color="#FEFEFF"/>
<stop offset="1" stop-color="#D3E5FF" stop-opacity="0"/>
</linearGradient>
</defs>
</svg>
