<svg width="330" height="176" viewBox="0 0 330 176" fill="none" xmlns="http://www.w3.org/2000/svg">
<g filter="url(#filter0_d)">
<rect x="14" y="10" width="302" height="148" rx="8" fill="white"/>
<path d="M31.664 33.672V45H33.392V35.208H39.536V45H41.264V33.672H31.664ZM45.6419 40.968C45.6419 38.28 45.6419 38.2 48.1379 38.2C50.6339 38.2 50.6339 38.28 50.6339 40.968C50.6339 43.656 50.6339 43.736 48.1379 43.736C45.6419 43.736 45.6419 43.656 45.6419 40.968ZM43.9139 41.352C43.9139 42.888 43.9139 45.192 47.7539 45.192H48.5219C52.3619 45.192 52.3619 42.888 52.3619 41.352V40.584C52.3619 39.048 52.3619 36.744 48.5219 36.744H47.7539C43.9139 36.744 43.9139 39.048 43.9139 40.584V41.352ZM60.7994 38.36V45H62.4314V36.936H55.9194C55.8714 38.6 55.7754 39.976 55.4874 42.056C55.2954 43.448 55.1354 43.72 53.7594 43.72V45.032C56.3514 45.032 56.6234 44.728 56.9434 42.344C57.1834 40.584 57.2954 39.352 57.3274 38.36H60.7994ZM66.5325 40.968C66.5325 38.28 66.5325 38.2 69.0285 38.2C71.5245 38.2 71.5245 38.28 71.5245 40.968C71.5245 43.656 71.5245 43.736 69.0285 43.736C66.5325 43.736 66.5325 43.656 66.5325 40.968ZM64.8045 41.352C64.8045 42.888 64.8045 45.192 68.6445 45.192H69.4125C73.2525 45.192 73.2525 42.888 73.2525 41.352V40.584C73.2525 39.048 73.2525 36.744 69.4125 36.744H68.6445C64.8045 36.744 64.8045 39.048 64.8045 40.584V41.352ZM75.626 45H79.354C81.274 45 83.21 45 83.21 42.984C83.21 42.312 83.05 41.448 81.514 41.064V40.872C83.05 40.488 83.05 39.624 83.05 38.952C83.05 36.936 81.274 36.936 79.354 36.936H75.626V45ZM79.946 41.544C81.37 41.544 81.386 41.544 81.386 42.6C81.386 43.64 81.386 43.656 79.946 43.656H77.258V41.544H79.946ZM79.786 38.28C81.21 38.28 81.226 38.28 81.226 39.336C81.226 40.376 81.226 40.392 79.786 40.392H77.258V38.28H79.786ZM87.8031 45C91.9791 39.448 91.9791 39.16 91.9791 38.312H92.3951V45H94.0271V36.936H91.8191C87.6431 42.488 87.6431 42.776 87.6431 43.624H87.2111V36.936H85.5791V45H87.8031ZM103.118 36.936V40.184H98.4143V36.936H96.7823V45H98.4143V41.592H103.118V45H104.75V36.936H103.118ZM110.173 43.272C110.173 42.696 110.173 42.696 108.525 38.376V36.936H106.797C106.797 38.616 106.797 38.616 109.357 44.616H110.973L110.397 46.152C110.093 46.92 109.965 46.92 109.053 46.92H107.789V48.456H108.621C109.869 48.456 111.117 48.408 111.837 46.664L114.493 39.512C114.861 38.616 114.861 38.616 114.861 37.256V36.936H113.181V38.376C111.661 42.728 111.677 42.728 111.677 43.272H110.173ZM121.392 45H125.12C127.04 45 128.976 45 128.976 42.984C128.976 42.312 128.816 41.448 127.28 41.064V40.872C128.816 40.488 128.816 39.624 128.816 38.952C128.816 36.936 127.04 36.936 125.12 36.936H121.392V45ZM125.712 41.544C127.136 41.544 127.152 41.544 127.152 42.6C127.152 43.64 127.152 43.656 125.712 43.656H123.024V41.544H125.712ZM125.552 38.28C126.976 38.28 126.992 38.28 126.992 39.336C126.992 40.376 126.992 40.392 125.552 40.392H123.024V38.28H125.552ZM140.177 36.936V45H141.809V36.936H140.177ZM131.345 45H134.801C136.817 45 138.545 45 138.545 42.312C138.545 41.352 138.545 39.432 135.185 39.432C134.513 39.432 133.745 39.528 132.977 39.72V36.936H131.345V45ZM134.993 40.968C136.817 40.968 136.817 40.968 136.817 42.312C136.817 43.656 136.817 43.656 134.993 43.656H132.977V40.968H134.993ZM144.564 36.936V48.264H146.196V44.808C146.964 45 147.732 45.192 149.172 45.192C152.82 45.192 152.82 42.696 152.82 41.352V40.584C152.82 39.048 152.82 36.744 149.364 36.744C147.444 36.744 146.388 37.544 146.004 37.832L145.332 36.936H144.564ZM151.092 40.968C151.092 43.64 151.092 43.656 148.5 43.656C147.924 43.656 146.964 43.656 146.196 43.464V38.856L148.5 38.28H148.772C151.092 38.28 151.092 38.376 151.092 40.968ZM157.767 43.272C157.767 42.696 157.767 42.696 156.119 38.376V36.936H154.391C154.391 38.616 154.391 38.616 156.951 44.616H158.567L157.991 46.152C157.687 46.92 157.559 46.92 156.647 46.92H155.383V48.456H156.215C157.463 48.456 158.711 48.408 159.431 46.664L162.087 39.512C162.455 38.616 162.455 38.616 162.455 37.256V36.936H160.775V38.376C159.255 42.728 159.271 42.728 159.271 43.272H157.767ZM169.721 35.592C170.585 35.384 171.433 35.16 171.737 33.96L171.833 33.576L170.297 33.192C170.105 33.768 170.121 33.768 169.337 33.96L167.417 34.44C164.153 35.256 164.153 37.416 164.153 39.912V40.536C164.153 43.224 164.153 45.192 168.089 45.192H168.857C172.697 45.192 172.697 43.272 172.697 41.832V40.968C172.697 39.528 172.697 37.608 169.241 37.608C166.937 37.608 166.169 38.136 165.817 38.568L165.529 38.472C166.009 36.552 166.009 36.52 167.801 36.072L169.721 35.592ZM168.473 39.032C170.969 39.032 170.969 39.384 170.969 41.4C170.969 43.416 170.969 43.768 168.345 43.768C165.977 43.768 165.977 43.416 165.977 41.4C165.977 39.384 165.977 39.032 168.473 39.032ZM183.13 37.384V36.936H181.306C180.154 38.472 179.482 39.368 179.482 40.2H176.602V36.936H174.97V45H176.602V41.736H179.482C179.482 42.568 180.154 43.464 181.306 45H183.13V44.552L180.426 40.968L183.13 37.384ZM187.428 45C191.604 39.448 191.604 39.16 191.604 38.312H192.02V45H193.652V36.936H191.444C187.268 42.488 187.268 42.776 187.268 43.624H186.836V36.936H185.204V45H187.428ZM203.064 35.208H206.424C208.888 35.208 208.92 35.208 208.92 37.608C208.92 39.976 208.92 40.008 206.424 40.008H203.064V35.208ZM201.336 45H203.064V41.544H205.272C208.92 41.544 210.744 41.544 210.744 37.608C210.744 33.672 208.92 33.672 205.272 33.672H201.336V45ZM211.967 44.424V45H213.887C215.903 42.312 216.959 40.904 216.959 40.104H219.359V45H221.087V40.104H223.487C223.487 40.904 224.543 42.312 226.559 45H228.479V44.424L224.655 39.336L228.479 34.248V33.672H226.559C224.543 36.36 223.487 37.768 223.487 38.568H221.087V33.672H219.359V38.568H216.959C216.959 37.768 215.903 36.36 213.887 33.672H211.967V34.248L215.791 39.336L211.967 44.424ZM233.974 35.208H238.326V43.464H232.438C233.814 40.392 233.974 37.736 233.974 35.208ZM239.862 45V47.464H241.398V43.464H240.054V33.672H232.31V35.208C232.31 37.736 232.07 40.376 230.63 43.464H229.654V47.464H231.19V45H239.862ZM250.642 43.272C250.642 42.696 250.642 42.696 248.994 38.376V36.936H247.266C247.266 38.616 247.266 38.616 249.826 44.616H251.442L250.866 46.152C250.562 46.92 250.434 46.92 249.522 46.92H248.258V48.456H249.09C250.338 48.456 251.586 48.408 252.306 46.664L254.962 39.512C255.33 38.616 255.33 38.616 255.33 37.256V36.936H253.65V38.376C252.13 42.728 252.146 42.728 252.146 43.272H250.642ZM262.372 36.936V40.2H260.196C260.196 39.368 259.524 38.472 258.372 36.936H256.548V37.384L259.236 40.968L256.548 44.552V45H258.372C259.524 43.464 260.196 42.568 260.196 41.736H262.372V45H264.004V41.736H266.18C266.18 42.568 266.852 43.464 268.004 45H269.828V44.552L267.124 40.968L269.828 37.384V36.936H268.004C266.852 38.472 266.18 39.368 266.18 40.2H264.004V36.936H262.372ZM275.366 43.656C273.158 43.656 273.158 43.656 273.158 41.64H275.366C277.67 41.64 278.054 41.64 278.918 41.448L279.302 41.352V40.584C279.302 39.048 279.302 36.744 275.75 36.744H274.982C271.43 36.744 271.43 39.048 271.43 40.584V41.352C271.43 43.08 271.43 45.192 275.366 45.192C276.038 45.192 277.19 45.192 278.726 44.808V43.272H278.342L276.806 43.656H275.366ZM273.158 40.392C273.158 38.28 273.158 38.28 275.366 38.28C277.574 38.28 277.574 38.28 277.574 40.392H273.158ZM31.376 74H35.104C37.024 74 38.96 74 38.96 71.984C38.96 71.312 38.8 70.448 37.264 70.064V69.872C38.8 69.488 38.8 68.624 38.8 67.952C38.8 65.936 37.024 65.936 35.104 65.936H31.376V74ZM35.696 70.544C37.12 70.544 37.136 70.544 37.136 71.6C37.136 72.64 37.136 72.656 35.696 72.656H33.008V70.544H35.696ZM35.536 67.28C36.96 67.28 36.976 67.28 36.976 68.336C36.976 69.376 36.976 69.392 35.536 69.392H33.008V67.28H35.536ZM42.6731 69.968C42.6731 67.28 42.6731 67.2 45.1691 67.2C47.6651 67.2 47.6651 67.28 47.6651 69.968C47.6651 72.656 47.6651 72.736 45.1691 72.736C42.6731 72.736 42.6731 72.656 42.6731 69.968ZM40.9451 70.352C40.9451 71.888 40.9451 74.192 44.7851 74.192H45.5531C49.3931 74.192 49.3931 71.888 49.3931 70.352V69.584C49.3931 68.048 49.3931 65.744 45.5531 65.744H44.7851C40.9451 65.744 40.9451 68.048 40.9451 69.584V70.352ZM55.3186 74.192C55.8946 74.192 57.1426 74.192 58.6786 73.808V72.272H58.2946L56.7426 72.656H55.8946C53.1106 72.656 53.1106 72.656 53.1106 69.968C53.1106 67.28 53.1106 67.28 55.3186 67.28C57.1426 67.28 57.1426 67.28 57.5266 68.816L59.0626 68.432C59.0626 67.664 59.0626 65.744 55.7026 65.744H54.9346C51.3826 65.744 51.3826 67.856 51.3826 69.584V70.352C51.3826 72.08 51.3826 74.192 55.3186 74.192ZM64.7874 74.192C65.3634 74.192 66.6114 74.192 68.1474 73.808V72.272H67.7634L66.2114 72.656H65.3634C62.5794 72.656 62.5794 72.656 62.5794 69.968C62.5794 67.28 62.5794 67.28 64.7874 67.28C66.6114 67.28 66.6114 67.28 66.9954 68.816L68.5314 68.432C68.5314 67.664 68.5314 65.744 65.1714 65.744H64.4034C60.8514 65.744 60.8514 67.856 60.8514 69.584V70.352C60.8514 72.08 60.8514 74.192 64.7874 74.192ZM77.9521 65.936H69.8881V67.344H73.0721V74H74.7681V67.344H77.9521V65.936ZM86.5476 74.192L87.7636 73.28C87.1876 72.512 87.1876 72.512 87.1876 70.928V69.584C87.1876 67.664 87.1876 65.744 83.4436 65.744C82.8676 65.744 81.6196 65.744 80.0836 66.128V67.664H80.4676L82.0036 67.28H83.4436C85.5556 67.28 85.5556 67.28 85.5556 69.296H83.4436C79.4116 69.296 79.4116 70.64 79.4116 71.888C79.4116 72.656 79.4116 74.192 82.2916 74.192C84.2756 74.192 85.3476 73.392 85.7316 73.104L86.5476 74.192ZM81.2356 71.696C81.2356 70.544 81.2356 70.544 83.4436 70.544H85.5556V72.08L83.2516 72.656H82.3876C81.2356 72.656 81.2356 72.656 81.2356 71.696ZM96.1808 65.936V69.184H91.4768V65.936H89.8448V74H91.4768V70.592H96.1808V74H97.8128V65.936H96.1808ZM101.908 69.968C101.908 67.28 101.908 67.2 104.404 67.2C106.9 67.2 106.9 67.28 106.9 69.968C106.9 72.656 106.9 72.736 104.404 72.736C101.908 72.736 101.908 72.656 101.908 69.968ZM100.18 70.352C100.18 71.888 100.18 74.192 104.02 74.192H104.788C108.628 74.192 108.628 71.888 108.628 70.352V69.584C108.628 68.048 108.628 65.744 104.788 65.744H104.02C100.18 65.744 100.18 68.048 100.18 69.584V70.352ZM111.001 74H114.729C116.649 74 118.585 74 118.585 71.984C118.585 71.312 118.425 70.448 116.889 70.064V69.872C118.425 69.488 118.425 68.624 118.425 67.952C118.425 65.936 116.649 65.936 114.729 65.936H111.001V74ZM115.321 70.544C116.745 70.544 116.761 70.544 116.761 71.6C116.761 72.64 116.761 72.656 115.321 72.656H112.633V70.544H115.321ZM115.161 67.28C116.585 67.28 116.601 67.28 116.601 68.336C116.601 69.376 116.601 69.392 115.161 69.392H112.633V67.28H115.161ZM123.178 74C127.354 68.448 127.354 68.16 127.354 67.312H127.77V74H129.402V65.936H127.194C123.018 71.488 123.018 71.776 123.018 72.624H122.586V65.936H120.954V74H123.178ZM138.221 67.36V74H139.853V65.936H133.341C133.293 67.6 133.197 68.976 132.909 71.056C132.717 72.448 132.557 72.72 131.181 72.72V74.032C133.773 74.032 134.045 73.728 134.365 71.344C134.605 69.584 134.717 68.352 134.749 67.36H138.221ZM144.834 74C149.01 68.448 149.01 68.16 149.01 67.312H149.426V74H151.058V65.936H148.85C144.674 71.488 144.674 71.776 144.674 72.624H144.242V65.936H142.61V74H144.834ZM154.294 76.496V76.688H155.158C155.734 75.92 156.598 74.768 156.598 73.424V73.232C156.598 72.848 156.598 71.696 155.158 71.696H154.678C153.718 71.696 153.718 72.272 153.718 72.656V73.04C153.718 73.424 153.718 74 154.678 74H154.822V74.384L154.294 76.496ZM163.892 74H167.62C169.54 74 171.476 74 171.476 71.984C171.476 71.312 171.316 70.448 169.78 70.064V69.872C171.316 69.488 171.316 68.624 171.316 67.952C171.316 65.936 169.54 65.936 167.62 65.936H163.892V74ZM168.212 70.544C169.636 70.544 169.652 70.544 169.652 71.6C169.652 72.64 169.652 72.656 168.212 72.656H165.524V70.544H168.212ZM168.052 67.28C169.476 67.28 169.492 67.28 169.492 68.336C169.492 69.376 169.492 69.392 168.052 69.392H165.524V67.28H168.052ZM182.677 65.936V74H184.309V65.936H182.677ZM173.845 74H177.301C179.317 74 181.045 74 181.045 71.312C181.045 70.352 181.045 68.432 177.685 68.432C177.013 68.432 176.245 68.528 175.477 68.72V65.936H173.845V74ZM177.493 69.968C179.317 69.968 179.317 69.968 179.317 71.312C179.317 72.656 179.317 72.656 177.493 72.656H175.477V69.968H177.493ZM190.616 74.192C191.192 74.192 192.44 74.192 193.976 73.808V72.272H193.592L192.04 72.656H191.192C188.408 72.656 188.408 72.656 188.408 69.968C188.408 67.28 188.408 67.28 190.616 67.28C192.44 67.28 192.44 67.28 192.824 68.816L194.36 68.432C194.36 67.664 194.36 65.744 191 65.744H190.232C186.68 65.744 186.68 67.856 186.68 69.584V70.352C186.68 72.08 186.68 74.192 190.616 74.192ZM203.188 74.192L204.404 73.28C203.828 72.512 203.828 72.512 203.828 70.928V69.584C203.828 67.664 203.828 65.744 200.084 65.744C199.508 65.744 198.26 65.744 196.724 66.128V67.664H197.108L198.644 67.28H200.084C202.196 67.28 202.196 67.28 202.196 69.296H200.084C196.052 69.296 196.052 70.64 196.052 71.888C196.052 72.656 196.052 74.192 198.932 74.192C200.916 74.192 201.988 73.392 202.372 73.104L203.188 74.192ZM197.876 71.696C197.876 70.544 197.876 70.544 200.084 70.544H202.196V72.08L199.892 72.656H199.028C197.876 72.656 197.876 72.656 197.876 71.696ZM207.237 74H214.261V76.304H215.829V72.656H214.485V65.936H207.925V66.896C207.925 68.8 207.717 70.832 206.773 72.656H205.669V76.304H207.237V74ZM209.493 67.344H212.853V72.656H208.533C209.301 70.816 209.493 68.864 209.493 67.344ZM219.991 74C224.167 68.448 224.167 68.16 224.167 67.312H224.583V74H226.215V65.936H224.007C219.831 71.488 219.831 71.776 219.831 72.624H219.399V65.936H217.767V74H219.991ZM228.97 74H232.698C234.618 74 236.554 74 236.554 71.984C236.554 71.312 236.394 70.448 234.858 70.064V69.872C236.394 69.488 236.394 68.624 236.394 67.952C236.394 65.936 234.618 65.936 232.698 65.936H228.97V74ZM233.29 70.544C234.714 70.544 234.73 70.544 234.73 71.6C234.73 72.64 234.73 72.656 233.29 72.656H230.602V70.544H233.29ZM233.13 67.28C234.554 67.28 234.57 67.28 234.57 68.336C234.57 69.376 234.57 69.392 233.13 69.392H230.602V67.28H233.13ZM31.376 103H35.104C37.024 103 38.96 103 38.96 100.984C38.96 100.312 38.8 99.448 37.264 99.064V98.872C38.8 98.488 38.8 97.624 38.8 96.952C38.8 94.936 37.024 94.936 35.104 94.936H31.376V103ZM35.696 99.544C37.12 99.544 37.136 99.544 37.136 100.6C37.136 101.64 37.136 101.656 35.696 101.656H33.008V99.544H35.696ZM35.536 96.28C36.96 96.28 36.976 96.28 36.976 97.336C36.976 98.376 36.976 98.392 35.536 98.392H33.008V96.28H35.536ZM47.0948 94.936V106.264H48.7268V102.808C49.4948 103 50.2628 103.192 51.7028 103.192C55.3508 103.192 55.3508 100.696 55.3508 99.352V98.584C55.3508 97.048 55.3508 94.744 51.8948 94.744C49.9748 94.744 48.9188 95.544 48.5348 95.832L47.8628 94.936H47.0948ZM53.6228 98.968C53.6228 101.64 53.6228 101.656 51.0308 101.656C50.4548 101.656 49.4948 101.656 48.7268 101.464V96.856L51.0308 96.28H51.3028C53.6228 96.28 53.6228 96.376 53.6228 98.968ZM64.3758 103.192L65.5918 102.28C65.0158 101.512 65.0158 101.512 65.0158 99.928V98.584C65.0158 96.664 65.0158 94.744 61.2718 94.744C60.6958 94.744 59.4478 94.744 57.9118 95.128V96.664H58.2958L59.8318 96.28H61.2718C63.3838 96.28 63.3838 96.28 63.3838 98.296H61.2718C57.2398 98.296 57.2398 99.64 57.2398 100.888C57.2398 101.656 57.2398 103.192 60.1198 103.192C62.1038 103.192 63.1758 102.392 63.5598 102.104L64.3758 103.192ZM59.0638 100.696C59.0638 99.544 59.0638 99.544 61.2718 99.544H63.3838V101.08L61.0798 101.656H60.2158C59.0638 101.656 59.0638 101.656 59.0638 100.696ZM72.4249 93.72C73.5129 93.72 74.2809 93.72 75.2889 92.536L74.1369 91.672C73.6249 92.376 73.6089 92.376 72.7289 92.376H71.2249C70.3609 92.376 70.3449 92.376 69.8169 91.672L68.6649 92.536C69.6729 93.72 70.4409 93.72 71.5289 93.72H72.4249ZM69.8969 103C74.0729 97.448 74.0729 97.16 74.0729 96.312H74.4889V103H76.1209V94.936H73.9129C69.7369 100.488 69.7369 100.776 69.7369 101.624H69.3049V94.936H67.6729V103H69.8969ZM80.22 98.968C80.22 96.28 80.22 96.2 82.716 96.2C85.212 96.2 85.212 96.28 85.212 98.968C85.212 101.656 85.212 101.736 82.716 101.736C80.22 101.736 80.22 101.656 80.22 98.968ZM78.492 99.352C78.492 100.888 78.492 103.192 82.332 103.192H83.1C86.94 103.192 86.94 100.888 86.94 99.352V98.584C86.94 97.048 86.94 94.744 83.1 94.744H82.332C78.492 94.744 78.492 97.048 78.492 98.584V99.352ZM95.6495 94.936V98.184H90.9455V94.936H89.3135V103H90.9455V99.592H95.6495V103H97.2815V94.936H95.6495ZM103.584 101.656C101.376 101.656 101.376 101.656 101.376 99.64H103.584C105.888 99.64 106.272 99.64 107.136 99.448L107.52 99.352V98.584C107.52 97.048 107.52 94.744 103.968 94.744H103.2C99.6483 94.744 99.6483 97.048 99.6483 98.584V99.352C99.6483 101.08 99.6483 103.192 103.584 103.192C104.256 103.192 105.408 103.192 106.944 102.808V101.272H106.56L105.024 101.656H103.584ZM101.376 98.392C101.376 96.28 101.376 96.28 103.584 96.28C105.792 96.28 105.792 96.28 105.792 98.392H101.376ZM116.548 96.152V93.208H123.268V91.672H114.82V103H118.852C122.404 103 124.228 102.92 124.228 99.576C124.228 96.232 122.404 96.152 118.852 96.152H116.548ZM116.548 97.688H120.004C122.372 97.688 122.404 97.688 122.404 99.576C122.404 101.432 122.404 101.464 120.004 101.464H116.548V97.688ZM133.063 103.192L134.279 102.28C133.703 101.512 133.703 101.512 133.703 99.928V98.584C133.703 96.664 133.703 94.744 129.959 94.744C129.383 94.744 128.135 94.744 126.599 95.128V96.664H126.983L128.519 96.28H129.959C132.071 96.28 132.071 96.28 132.071 98.296H129.959C125.927 98.296 125.927 99.64 125.927 100.888C125.927 101.656 125.927 103.192 128.807 103.192C130.791 103.192 131.863 102.392 132.247 102.104L133.063 103.192ZM127.751 100.696C127.751 99.544 127.751 99.544 129.959 99.544H132.071V101.08L129.767 101.656H128.903C127.751 101.656 127.751 101.656 127.751 100.696ZM141.112 93.72C142.2 93.72 142.968 93.72 143.976 92.536L142.824 91.672C142.312 92.376 142.296 92.376 141.416 92.376H139.912C139.048 92.376 139.032 92.376 138.504 91.672L137.352 92.536C138.36 93.72 139.128 93.72 140.216 93.72H141.112ZM138.584 103C142.76 97.448 142.76 97.16 142.76 96.312H143.176V103H144.808V94.936H142.6C138.424 100.488 138.424 100.776 138.424 101.624H137.992V94.936H136.36V103H138.584ZM155.724 95.384V94.936H153.9C152.748 96.472 152.076 97.368 152.076 98.2H149.196V94.936H147.564V103H149.196V99.736H152.076C152.076 100.568 152.748 101.464 153.9 103H155.724V102.552L153.02 98.968L155.724 95.384ZM164.454 103.192L165.67 102.28C165.094 101.512 165.094 101.512 165.094 99.928V98.584C165.094 96.664 165.094 94.744 161.35 94.744C160.774 94.744 159.526 94.744 157.99 95.128V96.664H158.374L159.91 96.28H161.35C163.462 96.28 163.462 96.28 163.462 98.296H161.35C157.318 98.296 157.318 99.64 157.318 100.888C157.318 101.656 157.318 103.192 160.198 103.192C162.182 103.192 163.254 102.392 163.638 102.104L164.454 103.192ZM159.142 100.696C159.142 99.544 159.142 99.544 161.35 99.544H163.462V101.08L161.158 101.656H160.294C159.142 101.656 159.142 101.656 159.142 100.696ZM173.815 96.36V103H175.447V94.936H168.935C168.887 96.6 168.791 97.976 168.503 100.056C168.311 101.448 168.151 101.72 166.775 101.72V103.032C169.367 103.032 169.639 102.728 169.959 100.344C170.199 98.584 170.311 97.352 170.343 96.36H173.815ZM184.86 103.192L186.076 102.28C185.5 101.512 185.5 101.512 185.5 99.928V98.584C185.5 96.664 185.5 94.744 181.756 94.744C181.18 94.744 179.932 94.744 178.396 95.128V96.664H178.78L180.316 96.28H181.756C183.868 96.28 183.868 96.28 183.868 98.296H181.756C177.724 98.296 177.724 99.64 177.724 100.888C177.724 101.656 177.724 103.192 180.604 103.192C182.588 103.192 183.66 102.392 184.044 102.104L184.86 103.192ZM179.548 100.696C179.548 99.544 179.548 99.544 181.756 99.544H183.868V101.08L181.564 101.656H180.7C179.548 101.656 179.548 101.656 179.548 100.696ZM199.486 96.92C201.534 96.408 201.534 95.128 201.534 94.36C201.534 93.4 201.534 91.416 197.022 91.416C192.51 91.416 192.51 93.4 192.51 94.744C192.51 95.32 192.51 96.856 194.558 97.368V97.752C192.51 98.264 192.51 99.544 192.51 100.312C192.51 101.272 192.51 103.256 197.022 103.256C201.534 103.256 201.534 101.272 201.534 99.928C201.534 99.352 201.534 97.816 199.486 97.304V96.92ZM195.39 96.056C194.238 95.768 194.238 95.768 194.238 94.456C194.238 93.016 194.238 93.016 197.022 93.016C199.806 93.016 199.806 93.016 199.806 94.456C199.806 95.432 199.806 95.432 198.846 96.152L198.078 96.728L195.39 96.056ZM198.654 98.616C199.806 98.904 199.806 98.904 199.806 100.216C199.806 101.656 199.806 101.656 197.022 101.656C194.238 101.656 194.238 101.656 194.238 100.216C194.238 99.24 194.238 99.24 195.198 98.52L195.966 97.944L198.654 98.616ZM208.033 91.416C205.729 91.416 203.521 91.48 203.521 96.856V97.816C203.521 103.256 205.729 103.256 208.033 103.256H208.417C210.721 103.256 212.929 103.256 212.929 97.816V96.856C212.929 91.48 210.721 91.416 208.417 91.416H208.033ZM205.345 97.144C205.345 93.016 205.345 93.016 208.225 93.016C211.105 93.016 211.105 93.016 211.105 97.144V97.528C211.105 101.656 211.105 101.656 208.225 101.656C205.345 101.656 205.345 101.656 205.345 97.528V97.144ZM223.877 91.416C221.573 91.416 219.365 91.48 219.365 96.856V97.816C219.365 103.256 221.573 103.256 223.877 103.256H224.261C226.565 103.256 228.773 103.256 228.773 97.816V96.856C228.773 91.48 226.565 91.416 224.261 91.416H223.877ZM221.189 97.144C221.189 93.016 221.189 93.016 224.069 93.016C226.949 93.016 226.949 93.016 226.949 97.144V97.528C226.949 101.656 226.949 101.656 224.069 101.656C221.189 101.656 221.189 101.656 221.189 97.528V97.144ZM235.08 91.416C232.776 91.416 230.568 91.48 230.568 96.856V97.816C230.568 103.256 232.776 103.256 235.08 103.256H235.464C237.768 103.256 239.976 103.256 239.976 97.816V96.856C239.976 91.48 237.768 91.416 235.464 91.416H235.08ZM232.392 97.144C232.392 93.016 232.392 93.016 235.272 93.016C238.152 93.016 238.152 93.016 238.152 97.144V97.528C238.152 101.656 238.152 101.656 235.272 101.656C232.392 101.656 232.392 101.656 232.392 97.528V97.144ZM246.283 91.416C243.979 91.416 241.771 91.48 241.771 96.856V97.816C241.771 103.256 243.979 103.256 246.283 103.256H246.667C248.971 103.256 251.179 103.256 251.179 97.816V96.856C251.179 91.48 248.971 91.416 246.667 91.416H246.283ZM243.595 97.144C243.595 93.016 243.595 93.016 246.475 93.016C249.355 93.016 249.355 93.016 249.355 97.144V97.528C249.355 101.656 249.355 101.656 246.475 101.656C243.595 101.656 243.595 101.656 243.595 97.528V97.144ZM34.928 132.192C35.504 132.192 36.752 132.192 38.288 131.808V130.272H37.904L36.352 130.656H35.504C32.72 130.656 32.72 130.656 32.72 127.968C32.72 125.28 32.72 125.28 34.928 125.28C36.752 125.28 36.752 125.28 37.136 126.816L38.672 126.432C38.672 125.664 38.672 123.744 35.312 123.744H34.544C30.992 123.744 30.992 125.856 30.992 127.584V128.352C30.992 130.08 30.992 132.192 34.928 132.192ZM42.1888 127.968C42.1888 125.28 42.1888 125.2 44.6848 125.2C47.1808 125.2 47.1808 125.28 47.1808 127.968C47.1808 130.656 47.1808 130.736 44.6848 130.736C42.1888 130.736 42.1888 130.656 42.1888 127.968ZM40.4608 128.352C40.4608 129.888 40.4608 132.192 44.3008 132.192H45.0688C48.9088 132.192 48.9088 129.888 48.9088 128.352V127.584C48.9088 126.048 48.9088 123.744 45.0688 123.744H44.3008C40.4608 123.744 40.4608 126.048 40.4608 127.584V128.352ZM54.8343 132.192C55.4103 132.192 56.6583 132.192 58.1943 131.808V130.272H57.8103L56.2583 130.656H55.4103C52.6263 130.656 52.6263 130.656 52.6263 127.968C52.6263 125.28 52.6263 125.28 54.8343 125.28C56.6583 125.28 56.6583 125.28 57.0423 126.816L58.5783 126.432C58.5783 125.664 58.5783 123.744 55.2183 123.744H54.4503C50.8983 123.744 50.8983 125.856 50.8983 127.584V128.352C50.8983 130.08 50.8983 132.192 54.8343 132.192ZM64.303 130.656C62.095 130.656 62.095 130.656 62.095 128.64H64.303C66.607 128.64 66.991 128.64 67.855 128.448L68.239 128.352V127.584C68.239 126.048 68.239 123.744 64.687 123.744H63.919C60.367 123.744 60.367 126.048 60.367 127.584V128.352C60.367 130.08 60.367 132.192 64.303 132.192C64.975 132.192 66.127 132.192 67.663 131.808V130.272H67.279L65.743 130.656H64.303ZM62.095 127.392C62.095 125.28 62.095 125.28 64.303 125.28C66.511 125.28 66.511 125.28 66.511 127.392H62.095ZM76.9464 123.936V127.184H72.2424V123.936H70.6104V132H72.2424V128.592H76.9464V132H78.5784V123.936H76.9464ZM92.3058 123.936V127.184H87.6018V123.936H85.9698V132H87.6018V128.592H92.3058V132H93.9378V123.936H92.3058ZM103.345 132.192L104.561 131.28C103.985 130.512 103.985 130.512 103.985 128.928V127.584C103.985 125.664 103.985 123.744 100.241 123.744C99.6645 123.744 98.4165 123.744 96.8805 124.128V125.664H97.2645L98.8005 125.28H100.241C102.353 125.28 102.353 125.28 102.353 127.296H100.241C96.2085 127.296 96.2085 128.64 96.2085 129.888C96.2085 130.656 96.2085 132.192 99.0885 132.192C101.073 132.192 102.145 131.392 102.529 131.104L103.345 132.192ZM98.0325 129.696C98.0325 128.544 98.0325 128.544 100.241 128.544H102.353V130.08L100.049 130.656H99.1845C98.0325 130.656 98.0325 130.656 98.0325 129.696ZM115.442 120.416C111.154 120.416 111.154 122.976 111.154 123.744V123.84L112.626 124.224C113.202 122.016 113.202 122.016 115.442 122.016C118.034 122.016 118.034 122.016 118.034 123.744C118.034 125.376 118.034 125.536 115.634 126.144L113.714 126.624C111.218 127.248 111.218 128.576 111.218 129.728V132H119.666V130.464H112.754V129.728C112.754 128.48 112.754 128.48 113.906 128.192L116.594 127.52C119.858 126.704 119.858 125.28 119.858 123.76C119.858 122.4 119.858 120.416 115.442 120.416ZM126.517 120.416C124.213 120.416 122.005 120.48 122.005 125.856V126.816C122.005 132.256 124.213 132.256 126.517 132.256H126.901C129.205 132.256 131.413 132.256 131.413 126.816V125.856C131.413 120.48 129.205 120.416 126.901 120.416H126.517ZM123.829 126.144C123.829 122.016 123.829 122.016 126.709 122.016C129.589 122.016 129.589 122.016 129.589 126.144V126.528C129.589 130.656 129.589 130.656 126.709 130.656C123.829 130.656 123.829 130.656 123.829 126.528V126.144ZM144.825 123.936H138.329V132H139.961V125.344H144.825V123.936ZM153.251 132.192L154.467 131.28C153.891 130.512 153.891 130.512 153.891 128.928V127.584C153.891 125.664 153.891 123.744 150.147 123.744C149.571 123.744 148.323 123.744 146.787 124.128V125.664H147.171L148.707 125.28H150.147C152.259 125.28 152.259 125.28 152.259 127.296H150.147C146.115 127.296 146.115 128.64 146.115 129.888C146.115 130.656 146.115 132.192 148.995 132.192C150.979 132.192 152.051 131.392 152.435 131.104L153.251 132.192ZM147.939 129.696C147.939 128.544 147.939 128.544 150.147 128.544H152.259V130.08L149.955 130.656H149.091C147.939 130.656 147.939 130.656 147.939 129.696ZM157.412 129.696C156.452 129.696 156.452 130.272 156.452 130.656V131.04C156.452 131.424 156.452 132 157.412 132H158.18C159.14 132 159.14 131.424 159.14 131.04V130.656C159.14 130.272 159.14 129.696 158.18 129.696H157.412Z" fill="#363636"/>
<rect x="14.5" y="10.5" width="301" height="147" rx="7.5" stroke="white"/>
</g>
<defs>
<filter id="filter0_d" x="0" y="0" width="330" height="176" filterUnits="userSpaceOnUse" color-interpolation-filters="sRGB">
<feFlood flood-opacity="0" result="BackgroundImageFix"/>
<feColorMatrix in="SourceAlpha" type="matrix" values="0 0 0 0 0 0 0 0 0 0 0 0 0 0 0 0 0 0 127 0"/>
<feOffset dy="4"/>
<feGaussianBlur stdDeviation="7"/>
<feColorMatrix type="matrix" values="0 0 0 0 0.738225 0 0 0 0 0.744365 0 0 0 0 0.762784 0 0 0 0.6 0"/>
<feBlend mode="normal" in2="BackgroundImageFix" result="effect1_dropShadow"/>
<feBlend mode="normal" in="SourceGraphic" in2="effect1_dropShadow" result="shape"/>
</filter>
</defs>
</svg>
