<svg width="301" height="147" viewBox="0 0 301 147" fill="none" xmlns="http://www.w3.org/2000/svg">
<g filter="url(#filter0_d)">
<rect x="14" y="10" width="273" height="119" rx="8" fill="white"/>
<path d="M30.464 33.672V35.208H34.448V45H36.176V35.208H40.16V33.672H30.464ZM42.3919 40.968C42.3919 38.28 42.3919 38.2 44.8879 38.2C47.3839 38.2 47.3839 38.28 47.3839 40.968C47.3839 43.656 47.3839 43.736 44.8879 43.736C42.3919 43.736 42.3919 43.656 42.3919 40.968ZM40.6639 41.352C40.6639 42.888 40.6639 45.192 44.5039 45.192H45.2719C49.1119 45.192 49.1119 42.888 49.1119 41.352V40.584C49.1119 39.048 49.1119 36.744 45.2719 36.744H44.5039C40.6639 36.744 40.6639 39.048 40.6639 40.584V41.352ZM51.0054 36.936V39.432C51.0054 40.584 51.0054 42.504 54.1734 42.504C55.0374 42.504 56.1894 42.216 56.9574 42.024V45H58.5894V36.936H56.9574V40.68L55.8054 40.968H54.6534C52.7334 40.968 52.7334 40.968 52.7334 39.432V36.936H51.0054ZM64.8968 43.656C62.6888 43.656 62.6888 43.656 62.6888 41.64H64.8968C67.2008 41.64 67.5848 41.64 68.4488 41.448L68.8328 41.352V40.584C68.8328 39.048 68.8328 36.744 65.2808 36.744H64.5128C60.9608 36.744 60.9608 39.048 60.9608 40.584V41.352C60.9608 43.08 60.9608 45.192 64.8968 45.192C65.5688 45.192 66.7208 45.192 68.2568 44.808V43.272H67.8728L66.3368 43.656H64.8968ZM62.6888 40.392C62.6888 38.28 62.6888 38.28 64.8968 38.28C67.1048 38.28 67.1048 38.28 67.1048 40.392H62.6888ZM70.7241 36.936V39.432C70.7241 40.584 70.7241 42.504 73.8921 42.504C74.7561 42.504 75.9081 42.216 76.6761 42.024V45H78.3081V36.936H76.6761V40.68L75.5241 40.968H74.3721C72.4521 40.968 72.4521 40.968 72.4521 39.432V36.936H70.7241ZM87.3995 36.936V40.184H82.6955V36.936H81.0635V45H82.6955V41.592H87.3995V45H89.0315V36.936H87.3995ZM100.614 36.936V45H102.246V36.936H100.614ZM91.7823 45H95.2383C97.2543 45 98.9823 45 98.9823 42.312C98.9823 41.352 98.9823 39.432 95.6223 39.432C94.9503 39.432 94.1823 39.528 93.4143 39.72V36.936H91.7823V45ZM95.4303 40.968C97.2543 40.968 97.2543 40.968 97.2543 42.312C97.2543 43.656 97.2543 43.656 95.4303 43.656H93.4143V40.968H95.4303ZM108.553 43.656C106.345 43.656 106.345 43.656 106.345 41.64H108.553C110.857 41.64 111.241 41.64 112.105 41.448L112.489 41.352V40.584C112.489 39.048 112.489 36.744 108.937 36.744H108.169C104.617 36.744 104.617 39.048 104.617 40.584V41.352C104.617 43.08 104.617 45.192 108.553 45.192C109.225 45.192 110.377 45.192 111.913 44.808V43.272H111.529L109.993 43.656H108.553ZM106.345 40.392C106.345 38.28 106.345 38.28 108.553 38.28C110.761 38.28 110.761 38.28 110.761 40.392H106.345ZM119.501 36.936V48.264H121.133V44.808C121.901 45 122.669 45.192 124.109 45.192C127.757 45.192 127.757 42.696 127.757 41.352V40.584C127.757 39.048 127.757 36.744 124.301 36.744C122.381 36.744 121.325 37.544 120.941 37.832L120.269 36.936H119.501ZM126.029 40.968C126.029 43.64 126.029 43.656 123.437 43.656C122.861 43.656 121.901 43.656 121.133 43.464V38.856L123.437 38.28H123.709C126.029 38.28 126.029 38.376 126.029 40.968ZM132.704 43.272C132.704 42.696 132.704 42.696 131.056 38.376V36.936H129.328C129.328 38.616 129.328 38.616 131.888 44.616H133.504L132.928 46.152C132.624 46.92 132.496 46.92 131.584 46.92H130.32V48.456H131.152C132.4 48.456 133.648 48.408 134.368 46.664L137.024 39.512C137.392 38.616 137.392 38.616 137.392 37.256V36.936H135.712V38.376C134.192 42.728 134.208 42.728 134.208 43.272H132.704ZM144.658 35.592C145.522 35.384 146.37 35.16 146.674 33.96L146.77 33.576L145.234 33.192C145.042 33.768 145.058 33.768 144.274 33.96L142.354 34.44C139.09 35.256 139.09 37.416 139.09 39.912V40.536C139.09 43.224 139.09 45.192 143.026 45.192H143.794C147.634 45.192 147.634 43.272 147.634 41.832V40.968C147.634 39.528 147.634 37.608 144.178 37.608C141.874 37.608 141.106 38.136 140.754 38.568L140.466 38.472C140.946 36.552 140.946 36.52 142.738 36.072L144.658 35.592ZM143.41 39.032C145.906 39.032 145.906 39.384 145.906 41.4C145.906 43.416 145.906 43.768 143.282 43.768C140.914 43.768 140.914 43.416 140.914 41.4C140.914 39.384 140.914 39.032 143.41 39.032ZM158.067 37.384V36.936H156.243C155.091 38.472 154.419 39.368 154.419 40.2H151.539V36.936H149.907V45H151.539V41.736H154.419C154.419 42.568 155.091 43.464 156.243 45H158.067V44.552L155.363 40.968L158.067 37.384ZM162.366 45C166.542 39.448 166.542 39.16 166.542 38.312H166.958V45H168.59V36.936H166.382C162.206 42.488 162.206 42.776 162.206 43.624H161.774V36.936H160.142V45H162.366ZM182.049 38.36V45H183.681V36.936H177.169C177.121 38.6 177.025 39.976 176.737 42.056C176.545 43.448 176.385 43.72 175.009 43.72V45.032C177.601 45.032 177.873 44.728 178.193 42.344C178.433 40.584 178.545 39.352 178.577 38.36H182.049ZM189.991 43.656C187.783 43.656 187.783 43.656 187.783 41.64H189.991C192.295 41.64 192.679 41.64 193.543 41.448L193.927 41.352V40.584C193.927 39.048 193.927 36.744 190.375 36.744H189.607C186.055 36.744 186.055 39.048 186.055 40.584V41.352C186.055 43.08 186.055 45.192 189.991 45.192C190.663 45.192 191.815 45.192 193.351 44.808V43.272H192.967L191.431 43.656H189.991ZM187.783 40.392C187.783 38.28 187.783 38.28 189.991 38.28C192.199 38.28 192.199 38.28 192.199 40.392H187.783ZM199.85 45.192C200.426 45.192 201.674 45.192 203.21 44.808V43.272H202.826L201.274 43.656H200.426C197.642 43.656 197.642 43.656 197.642 40.968C197.642 38.28 197.642 38.28 199.85 38.28C201.674 38.28 201.674 38.28 202.058 39.816L203.594 39.432C203.594 38.664 203.594 36.744 200.234 36.744H199.466C195.914 36.744 195.914 38.856 195.914 40.584V41.352C195.914 43.08 195.914 45.192 199.85 45.192ZM212.423 45.192L213.639 44.28C213.063 43.512 213.063 43.512 213.063 41.928V40.584C213.063 38.664 213.063 36.744 209.319 36.744C208.743 36.744 207.495 36.744 205.959 37.128V38.664H206.343L207.879 38.28H209.319C211.431 38.28 211.431 38.28 211.431 40.296H209.319C205.287 40.296 205.287 41.64 205.287 42.888C205.287 43.656 205.287 45.192 208.167 45.192C210.151 45.192 211.223 44.392 211.607 44.104L212.423 45.192ZM207.111 42.696C207.111 41.544 207.111 41.544 209.319 41.544H211.431V43.08L209.127 43.656H208.263C207.111 43.656 207.111 43.656 207.111 42.696ZM220.36 45H224.088C226.008 45 227.944 45 227.944 42.984C227.944 42.312 227.784 41.448 226.248 41.064V40.872C227.784 40.488 227.784 39.624 227.784 38.952C227.784 36.936 226.008 36.936 224.088 36.936H220.36V45ZM224.68 41.544C226.104 41.544 226.12 41.544 226.12 42.6C226.12 43.64 226.12 43.656 224.68 43.656H221.992V41.544H224.68ZM224.52 38.28C225.944 38.28 225.96 38.28 225.96 39.336C225.96 40.376 225.96 40.392 224.52 40.392H221.992V38.28H224.52ZM231.066 45H238.09V47.304H239.658V43.656H238.314V36.936H231.754V37.896C231.754 39.8 231.546 41.832 230.602 43.656H229.498V47.304H231.066V45ZM233.322 38.344H236.682V43.656H232.362C233.13 41.816 233.322 39.864 233.322 38.344ZM242.939 40.968C242.939 38.28 242.939 38.2 245.435 38.2C247.931 38.2 247.931 38.28 247.931 40.968C247.931 43.656 247.931 43.736 245.435 43.736C242.939 43.736 242.939 43.656 242.939 40.968ZM241.211 41.352C241.211 42.888 241.211 45.192 245.051 45.192H245.819C249.659 45.192 249.659 42.888 249.659 41.352V40.584C249.659 39.048 249.659 36.744 245.819 36.744H245.051C241.211 36.744 241.211 39.048 241.211 40.584V41.352ZM258.096 38.36V45H259.728V36.936H253.216C253.168 38.6 253.072 39.976 252.784 42.056C252.592 43.448 252.432 43.72 251.056 43.72V45.032C253.648 45.032 253.92 44.728 254.24 42.344C254.48 40.584 254.592 39.352 254.624 38.36H258.096ZM266.325 45C268.245 45 269.973 45 269.973 42.312C269.973 41.352 269.973 39.432 266.517 39.432C265.749 39.432 264.885 39.528 264.117 39.72V36.936H262.485V45H266.325ZM266.517 40.968C268.245 40.968 268.245 40.968 268.245 42.312C268.245 43.656 268.245 43.656 266.517 43.656H264.117V40.968H266.517ZM36.752 64.592C37.616 64.384 38.464 64.16 38.768 62.96L38.864 62.576L37.328 62.192C37.136 62.768 37.152 62.768 36.368 62.96L34.448 63.44C31.184 64.256 31.184 66.416 31.184 68.912V69.536C31.184 72.224 31.184 74.192 35.12 74.192H35.888C39.728 74.192 39.728 72.272 39.728 70.832V69.968C39.728 68.528 39.728 66.608 36.272 66.608C33.968 66.608 33.2 67.136 32.848 67.568L32.56 67.472C33.04 65.552 33.04 65.52 34.832 65.072L36.752 64.592ZM35.504 68.032C38 68.032 38 68.384 38 70.4C38 72.416 38 72.768 35.376 72.768C33.008 72.768 33.008 72.416 33.008 70.4C33.008 68.384 33.008 68.032 35.504 68.032ZM45.553 72.656C43.345 72.656 43.345 72.656 43.345 70.64H45.553C47.857 70.64 48.241 70.64 49.105 70.448L49.489 70.352V69.584C49.489 68.048 49.489 65.744 45.937 65.744H45.169C41.617 65.744 41.617 68.048 41.617 69.584V70.352C41.617 72.08 41.617 74.192 45.553 74.192C46.225 74.192 47.377 74.192 48.913 73.808V72.272H48.529L46.993 72.656H45.553ZM43.345 69.392C43.345 67.28 43.345 67.28 45.553 67.28C47.761 67.28 47.761 67.28 47.761 69.392H43.345ZM51.8604 65.936V77.264H53.4924V73.808C54.2604 74 55.0284 74.192 56.4684 74.192C60.1164 74.192 60.1164 71.696 60.1164 70.352V69.584C60.1164 68.048 60.1164 65.744 56.6604 65.744C54.7404 65.744 53.6844 66.544 53.3004 66.832L52.6284 65.936H51.8604ZM58.3884 69.968C58.3884 72.64 58.3884 72.656 55.7964 72.656C55.2204 72.656 54.2604 72.656 53.4924 72.464V67.856L55.7964 67.28H56.0684C58.3884 67.28 58.3884 67.376 58.3884 69.968ZM66.0374 72.656C63.8294 72.656 63.8294 72.656 63.8294 70.64H66.0374C68.3414 70.64 68.7254 70.64 69.5894 70.448L69.9734 70.352V69.584C69.9734 68.048 69.9734 65.744 66.4214 65.744H65.6534C62.1014 65.744 62.1014 68.048 62.1014 69.584V70.352C62.1014 72.08 62.1014 74.192 66.0374 74.192C66.7094 74.192 67.8614 74.192 69.3974 73.808V72.272H69.0134L67.4774 72.656H66.0374ZM63.8294 69.392C63.8294 67.28 63.8294 67.28 66.0374 67.28C68.2454 67.28 68.2454 67.28 68.2454 69.392H63.8294ZM78.8408 65.936H72.3448V74H73.9768V67.344H78.8408V65.936ZM81.9544 69.968C81.9544 67.28 81.9544 67.2 84.4504 67.2C86.9464 67.2 86.9464 67.28 86.9464 69.968C86.9464 72.656 86.9464 72.736 84.4504 72.736C81.9544 72.736 81.9544 72.656 81.9544 69.968ZM80.2264 70.352C80.2264 71.888 80.2264 74.192 84.0664 74.192H84.8344C88.6744 74.192 88.6744 71.888 88.6744 70.352V69.584C88.6744 68.048 88.6744 65.744 84.8344 65.744H84.0664C80.2264 65.744 80.2264 68.048 80.2264 69.584V70.352ZM91.0479 74H94.7759C96.6959 74 98.6319 74 98.6319 71.984C98.6319 71.312 98.4719 70.448 96.9359 70.064V69.872C98.4719 69.488 98.4719 68.624 98.4719 67.952C98.4719 65.936 96.6959 65.936 94.7759 65.936H91.0479V74ZM95.3679 70.544C96.7919 70.544 96.8079 70.544 96.8079 71.6C96.8079 72.64 96.8079 72.656 95.3679 72.656H92.6799V70.544H95.3679ZM95.2079 67.28C96.6319 67.28 96.6479 67.28 96.6479 68.336C96.6479 69.376 96.6479 69.392 95.2079 69.392H92.6799V67.28H95.2079ZM107.658 67.152V64.208H114.378V62.672H105.93V74H109.962C113.514 74 115.338 73.92 115.338 70.576C115.338 67.232 113.514 67.152 109.962 67.152H107.658ZM107.658 68.688H111.114C113.482 68.688 113.514 68.688 113.514 70.576C113.514 72.432 113.514 72.464 111.114 72.464H107.658V68.688ZM124.173 74.192L125.389 73.28C124.813 72.512 124.813 72.512 124.813 70.928V69.584C124.813 67.664 124.813 65.744 121.069 65.744C120.493 65.744 119.245 65.744 117.709 66.128V67.664H118.093L119.629 67.28H121.069C123.181 67.28 123.181 67.28 123.181 69.296H121.069C117.037 69.296 117.037 70.64 117.037 71.888C117.037 72.656 117.037 74.192 119.917 74.192C121.901 74.192 122.973 73.392 123.357 73.104L124.173 74.192ZM118.861 71.696C118.861 70.544 118.861 70.544 121.069 70.544H123.181V72.08L120.877 72.656H120.013C118.861 72.656 118.861 72.656 118.861 71.696ZM132.222 64.72C133.31 64.72 134.078 64.72 135.086 63.536L133.934 62.672C133.422 63.376 133.406 63.376 132.526 63.376H131.022C130.158 63.376 130.142 63.376 129.614 62.672L128.462 63.536C129.47 64.72 130.238 64.72 131.326 64.72H132.222ZM129.694 74C133.87 68.448 133.87 68.16 133.87 67.312H134.286V74H135.918V65.936H133.71C129.534 71.488 129.534 71.776 129.534 72.624H129.102V65.936H127.47V74H129.694ZM146.833 66.384V65.936H145.009C143.857 67.472 143.185 68.368 143.185 69.2H140.305V65.936H138.673V74H140.305V70.736H143.185C143.185 71.568 143.857 72.464 145.009 74H146.833V73.552L144.129 69.968L146.833 66.384ZM155.563 74.192L156.779 73.28C156.203 72.512 156.203 72.512 156.203 70.928V69.584C156.203 67.664 156.203 65.744 152.459 65.744C151.883 65.744 150.635 65.744 149.099 66.128V67.664H149.483L151.019 67.28H152.459C154.571 67.28 154.571 67.28 154.571 69.296H152.459C148.427 69.296 148.427 70.64 148.427 71.888C148.427 72.656 148.427 74.192 151.307 74.192C153.291 74.192 154.363 73.392 154.747 73.104L155.563 74.192ZM150.251 71.696C150.251 70.544 150.251 70.544 152.459 70.544H154.571V72.08L152.267 72.656H151.403C150.251 72.656 150.251 72.656 150.251 71.696ZM164.924 67.36V74H166.556V65.936H160.044C159.996 67.6 159.9 68.976 159.612 71.056C159.42 72.448 159.26 72.72 157.884 72.72V74.032C160.476 74.032 160.748 73.728 161.068 71.344C161.308 69.584 161.42 68.352 161.452 67.36H164.924ZM175.97 74.192L177.186 73.28C176.61 72.512 176.61 72.512 176.61 70.928V69.584C176.61 67.664 176.61 65.744 172.866 65.744C172.29 65.744 171.042 65.744 169.506 66.128V67.664H169.89L171.426 67.28H172.866C174.978 67.28 174.978 67.28 174.978 69.296H172.866C168.834 69.296 168.834 70.64 168.834 71.888C168.834 72.656 168.834 74.192 171.714 74.192C173.698 74.192 174.77 73.392 175.154 73.104L175.97 74.192ZM170.658 71.696C170.658 70.544 170.658 70.544 172.866 70.544H174.978V72.08L172.674 72.656H171.81C170.658 72.656 170.658 72.656 170.658 71.696ZM180.131 65.936C179.171 65.936 179.171 66.512 179.171 66.896V67.28C179.171 67.664 179.171 68.24 180.131 68.24H180.899C181.859 68.24 181.859 67.664 181.859 67.28V66.896C181.859 66.512 181.859 65.936 180.899 65.936H180.131ZM180.131 71.696C179.171 71.696 179.171 72.272 179.171 72.656V73.04C179.171 73.424 179.171 74 180.131 74H180.899C181.859 74 181.859 73.424 181.859 73.04V72.656C181.859 72.272 181.859 71.696 180.899 71.696H180.131ZM195.681 65.936H189.345V74H190.977V67.344H195.681V74H197.313V65.936H195.681ZM201.408 69.968C201.408 67.28 201.408 67.2 203.904 67.2C206.4 67.2 206.4 67.28 206.4 69.968C206.4 72.656 206.4 72.736 203.904 72.736C201.408 72.736 201.408 72.656 201.408 69.968ZM199.68 70.352C199.68 71.888 199.68 74.192 203.52 74.192H204.288C208.128 74.192 208.128 71.888 208.128 70.352V69.584C208.128 68.048 208.128 65.744 204.288 65.744H203.52C199.68 65.744 199.68 68.048 199.68 69.584V70.352ZM216.565 67.36V74H218.197V65.936H211.685C211.637 67.6 211.541 68.976 211.253 71.056C211.061 72.448 210.901 72.72 209.525 72.72V74.032C212.117 74.032 212.389 73.728 212.709 71.344C212.949 69.584 213.061 68.352 213.093 67.36H216.565ZM222.298 69.968C222.298 67.28 222.298 67.2 224.794 67.2C227.29 67.2 227.29 67.28 227.29 69.968C227.29 72.656 227.29 72.736 224.794 72.736C222.298 72.736 222.298 72.656 222.298 69.968ZM220.57 70.352C220.57 71.888 220.57 74.192 224.41 74.192H225.178C229.018 74.192 229.018 71.888 229.018 70.352V69.584C229.018 68.048 229.018 65.744 225.178 65.744H224.41C220.57 65.744 220.57 68.048 220.57 69.584V70.352ZM234.944 74.192C235.52 74.192 236.768 74.192 238.304 73.808V72.272H237.92L236.368 72.656H235.52C232.736 72.656 232.736 72.656 232.736 69.968C232.736 67.28 232.736 67.28 234.944 67.28C236.768 67.28 236.768 67.28 237.152 68.816L238.688 68.432C238.688 67.664 238.688 65.744 235.328 65.744H234.56C231.008 65.744 231.008 67.856 231.008 69.584V70.352C231.008 72.08 231.008 74.192 234.944 74.192ZM247.516 74.192L248.732 73.28C248.156 72.512 248.156 72.512 248.156 70.928V69.584C248.156 67.664 248.156 65.744 244.412 65.744C243.836 65.744 242.588 65.744 241.052 66.128V67.664H241.436L242.972 67.28H244.412C246.524 67.28 246.524 67.28 246.524 69.296H244.412C240.38 69.296 240.38 70.64 240.38 71.888C240.38 72.656 240.38 74.192 243.26 74.192C245.244 74.192 246.316 73.392 246.7 73.104L247.516 74.192ZM242.204 71.696C242.204 70.544 242.204 70.544 244.412 70.544H246.524V72.08L244.22 72.656H243.356C242.204 72.656 242.204 72.656 242.204 71.696ZM31.472 103H39.728V101.464H36.752V91.672H35.312L31.472 92.632V93.496H35.12V101.464H31.472V103ZM46.6111 91.416C44.3071 91.416 42.0991 91.48 42.0991 96.856V97.816C42.0991 103.256 44.3071 103.256 46.6111 103.256H46.9951C49.2991 103.256 51.5071 103.256 51.5071 97.816V96.856C51.5071 91.48 49.2991 91.416 46.9951 91.416H46.6111ZM43.9231 97.144C43.9231 93.016 43.9231 93.016 46.8031 93.016C49.6831 93.016 49.6831 93.016 49.6831 97.144V97.528C49.6831 101.656 49.6831 101.656 46.8031 101.656C43.9231 101.656 43.9231 101.656 43.9231 97.528V97.144ZM54.2623 97.72V99.16H65.0143V97.72H54.2623ZM68.347 103H76.603V101.464H73.627V91.672H72.187L68.347 92.632V93.496H71.995V101.464H68.347V103ZM87.9981 99.16C87.9981 97.72 87.9981 95.512 84.4461 95.512C83.7741 95.512 82.9101 95.512 80.9901 95.992V93.208H87.4221V91.672H79.5501V98.008L81.0861 98.392C81.4701 97.048 81.4701 97.048 83.6781 97.048C86.1741 97.048 86.1741 97.048 86.1741 99.352C86.1741 101.656 86.1741 101.656 83.5821 101.656H82.2381L79.9341 101.08H79.3581V102.648C81.7901 103.256 83.0061 103.256 83.7741 103.256C87.9981 103.256 87.9981 101.176 87.9981 99.544V99.16ZM95.2979 94.936V103H96.9299V96.376H97.3459C97.3459 96.76 97.3459 96.76 99.8419 103H101.986C104.482 96.76 104.482 96.76 104.482 96.28H104.898V103H106.53V94.936H103.618C101.122 100.936 101.122 100.936 101.122 101.656H100.706C100.706 100.936 100.706 100.936 98.2099 94.936H95.2979ZM118.627 106.264V105.688C115.747 103.528 115.747 103.528 115.747 100.504V95.512C115.747 92.488 115.747 92.488 118.627 90.328V89.752H116.995C113.923 92.056 113.923 94.552 113.923 96.856V99.16C113.923 101.464 113.923 103.96 116.995 106.264H118.627ZM119.36 103H123.088C125.008 103 126.944 103 126.944 100.984C126.944 100.312 126.784 99.448 125.248 99.064V98.872C126.784 98.488 126.784 97.624 126.784 96.952C126.784 94.936 125.008 94.936 123.088 94.936H119.36V103ZM123.68 99.544C125.104 99.544 125.12 99.544 125.12 100.6C125.12 101.64 125.12 101.656 123.68 101.656H120.992V99.544H123.68ZM123.52 96.28C124.944 96.28 124.96 96.28 124.96 97.336C124.96 98.376 124.96 98.392 123.52 98.392H120.992V96.28H123.52ZM132.866 103.192C133.442 103.192 134.69 103.192 136.226 102.808V101.272H135.842L134.29 101.656H133.442C130.658 101.656 130.658 101.656 130.658 98.968C130.658 96.28 130.658 96.28 132.866 96.28C134.69 96.28 134.69 96.28 135.074 97.816L136.61 97.432C136.61 96.664 136.61 94.744 133.25 94.744H132.482C128.93 94.744 128.93 96.856 128.93 98.584V99.352C128.93 101.08 128.93 103.192 132.866 103.192ZM142.334 101.656C140.126 101.656 140.126 101.656 140.126 99.64H142.334C144.638 99.64 145.022 99.64 145.886 99.448L146.27 99.352V98.584C146.27 97.048 146.27 94.744 142.718 94.744H141.95C138.398 94.744 138.398 97.048 138.398 98.584V99.352C138.398 101.08 138.398 103.192 142.334 103.192C143.006 103.192 144.158 103.192 145.694 102.808V101.272H145.31L143.774 101.656H142.334ZM140.126 98.392C140.126 96.28 140.126 96.28 142.334 96.28C144.542 96.28 144.542 96.28 144.542 98.392H140.126ZM155.138 94.936H148.642V103H150.274V96.344H155.138V94.936ZM158.251 98.968C158.251 96.28 158.251 96.2 160.747 96.2C163.243 96.2 163.243 96.28 163.243 98.968C163.243 101.656 163.243 101.736 160.747 101.736C158.251 101.736 158.251 101.656 158.251 98.968ZM156.523 99.352C156.523 100.888 156.523 103.192 160.363 103.192H161.131C164.971 103.192 164.971 100.888 164.971 99.352V98.584C164.971 97.048 164.971 94.744 161.131 94.744H160.363C156.523 94.744 156.523 97.048 156.523 98.584V99.352ZM177.649 100.696V103H179.281V100.696H181.009V99.256H179.281V95.032H178.801L177.649 95.32V99.256H173.233V98.872L175.729 95.544C176.785 94.136 177.361 93.368 177.361 92.056V91.672H175.537V91.864C175.537 93.272 175.537 93.272 173.137 96.472L171.409 98.776V100.696H177.649ZM187.221 91.416C184.917 91.416 182.709 91.48 182.709 96.856V97.816C182.709 103.256 184.917 103.256 187.221 103.256H187.605C189.909 103.256 192.117 103.256 192.117 97.816V96.856C192.117 91.48 189.909 91.416 187.605 91.416H187.221ZM184.533 97.144C184.533 93.016 184.533 93.016 187.413 93.016C190.293 93.016 190.293 93.016 190.293 97.144V97.528C190.293 101.656 190.293 101.656 187.413 101.656C184.533 101.656 184.533 101.656 184.533 97.528V97.144ZM206.653 94.936H200.157V103H201.789V96.344H206.653V94.936ZM215.079 103.192L216.295 102.28C215.719 101.512 215.719 101.512 215.719 99.928V98.584C215.719 96.664 215.719 94.744 211.975 94.744C211.399 94.744 210.151 94.744 208.615 95.128V96.664H208.999L210.535 96.28H211.975C214.087 96.28 214.087 96.28 214.087 98.296H211.975C207.943 98.296 207.943 99.64 207.943 100.888C207.943 101.656 207.943 103.192 210.823 103.192C212.807 103.192 213.879 102.392 214.263 102.104L215.079 103.192ZM209.767 100.696C209.767 99.544 209.767 99.544 211.975 99.544H214.087V101.08L211.783 101.656H210.919C209.767 101.656 209.767 101.656 209.767 100.696ZM218.184 106.264C221.256 103.96 221.256 101.464 221.256 99.16V96.856C221.256 94.552 221.256 92.056 218.184 89.752H216.552V90.328C219.432 92.488 219.432 92.488 219.432 95.512V100.504C219.432 103.528 219.432 103.528 216.552 105.688V106.264H218.184Z" fill="#E21A1A"/>
<rect x="14.5" y="10.5" width="272" height="118" rx="7.5" stroke="white"/>
</g>
<defs>
<filter id="filter0_d" x="0" y="0" width="301" height="147" filterUnits="userSpaceOnUse" color-interpolation-filters="sRGB">
<feFlood flood-opacity="0" result="BackgroundImageFix"/>
<feColorMatrix in="SourceAlpha" type="matrix" values="0 0 0 0 0 0 0 0 0 0 0 0 0 0 0 0 0 0 127 0"/>
<feOffset dy="4"/>
<feGaussianBlur stdDeviation="7"/>
<feColorMatrix type="matrix" values="0 0 0 0 0.738225 0 0 0 0 0.744365 0 0 0 0 0.762784 0 0 0 0.6 0"/>
<feBlend mode="normal" in2="BackgroundImageFix" result="effect1_dropShadow"/>
<feBlend mode="normal" in="SourceGraphic" in2="effect1_dropShadow" result="shape"/>
</filter>
</defs>
</svg>
