<svg width="305" height="229" viewBox="0 0 305 229" fill="none" xmlns="http://www.w3.org/2000/svg">
<g filter="url(#filter0_dd)">
<path d="M293.833 27.6507C293.905 27.5543 293.978 27.4579 293.978 27.3374C293.978 27.0242 293.688 26.8555 293.447 26.7591C293.158 26.6145 292.869 26.5422 292.58 26.4699C292.484 26.3976 292.411 26.3254 292.339 26.2772C292.411 26.2772 292.459 26.2772 292.532 26.2531C292.749 26.229 292.845 25.9157 292.724 25.747C292.532 25.4338 292.267 25.241 291.953 25.0964C291.953 24.8795 291.833 24.6627 291.592 24.5663C291.279 24.4217 290.869 24.4458 290.532 24.4458C290.508 24.4458 290.508 24.4458 290.483 24.4458C290.291 24.3494 290.122 24.253 289.953 24.1566C289.905 24.1084 289.857 24.0602 289.809 24.012C289.857 24.0361 289.905 24.0602 289.953 24.0843C290.218 24.1807 290.387 23.9639 290.363 23.747C290.58 23.5783 290.628 23.3373 290.58 23.0723C291.014 23.0964 291.351 22.9277 291.182 22.3253C291.014 21.6747 290.604 21.0963 290.146 20.5903C290.339 20.4698 290.459 20.2529 290.363 20.0361C290.339 19.9879 290.315 19.9397 290.267 19.8915C290.676 19.8192 290.869 19.6746 290.893 19.4577C292.267 19.1204 290.556 17.6023 289.881 17.0721C289.905 17.048 289.905 17.048 289.929 17.0239C290.146 16.7348 289.953 16.4456 289.736 16.2288C289.399 15.9155 288.941 15.7468 288.532 15.5781C288.363 15.5058 288.194 15.4336 288.026 15.3372C288.194 15.3372 288.363 15.2167 288.363 15.0239C288.363 14.807 288.315 14.6143 288.242 14.4215C288.339 14.4215 288.435 14.3974 288.532 14.3251C288.797 14.1564 288.869 13.8191 288.797 13.5299C288.676 12.9998 288.146 12.5178 287.64 12.1323C288.05 12.0841 288.218 11.9154 288.194 11.7226C289.712 11.4576 287.327 9.72259 287.327 9.72259C287.014 9.50572 286.7 9.21655 286.387 8.90329C286.507 8.8551 286.58 8.75871 286.652 8.63823C286.773 8.32497 286.58 8.1081 286.363 7.91532C285.616 7.2888 284.893 6.68638 284.194 6.03576C284.363 5.98757 284.483 5.86708 284.532 5.67431C284.604 5.28876 284.218 5.04779 283.977 4.85502C283.375 4.32488 282.676 3.74656 282.098 3.09594C281.736 2.49352 281.495 2.13207 281.495 2.13207C281.278 1.57784 281.086 1.21638 280.724 0.999512C280.387 1.21638 280.194 1.57784 279.953 2.13207C279.953 2.13207 279.712 2.51762 279.351 3.09594C278.748 3.74656 278.049 4.32488 277.471 4.85502C277.23 5.07189 276.845 5.31286 276.917 5.67431C276.965 5.86708 277.086 5.98757 277.254 6.03576C276.555 6.68638 275.833 7.2888 275.086 7.91532C274.869 8.1081 274.676 8.32497 274.796 8.63823C274.845 8.75871 274.941 8.8551 275.061 8.90329C274.748 9.21655 274.411 9.50572 274.122 9.72259C274.122 9.72259 271.736 11.4576 273.254 11.7226C273.254 11.9154 273.399 12.0841 273.808 12.1323C273.302 12.5178 272.772 12.9998 272.652 13.5299C272.579 13.8191 272.676 14.1564 272.917 14.3251C273.013 14.3974 273.11 14.4215 273.206 14.4215C273.134 14.5902 273.086 14.807 273.086 15.0239C273.086 15.2408 273.254 15.3372 273.423 15.3372C273.254 15.4095 273.086 15.5058 272.917 15.5781C272.483 15.7468 272.049 15.9155 271.712 16.2288C271.495 16.4215 271.302 16.7348 271.519 17.0239C271.543 17.048 271.543 17.048 271.567 17.0721C270.893 17.6023 269.182 19.1204 270.555 19.4577C270.604 19.6505 270.796 19.8192 271.182 19.8915C271.134 19.9397 271.11 19.9879 271.085 20.0361C270.989 20.2529 271.11 20.4939 271.302 20.5903C270.845 21.1204 270.435 21.6747 270.266 22.3253C270.122 22.9277 270.459 23.0964 270.869 23.0723C270.82 23.3373 270.869 23.5783 271.085 23.747C271.061 23.9639 271.23 24.1807 271.495 24.0843C271.543 24.0602 271.592 24.0361 271.64 24.012C271.592 24.0602 271.543 24.1084 271.495 24.1566C271.326 24.253 271.134 24.3494 270.965 24.4458C270.941 24.4458 270.941 24.4458 270.917 24.4458C270.579 24.4458 270.17 24.3976 269.857 24.5663C269.616 24.6868 269.495 24.9036 269.495 25.0964C269.182 25.241 268.941 25.4338 268.724 25.747C268.603 25.9157 268.724 26.2049 268.917 26.2531C268.989 26.2531 269.037 26.2772 269.11 26.2772C269.037 26.3254 268.965 26.3976 268.869 26.4699C268.579 26.5422 268.29 26.6386 268.001 26.7591C267.76 26.8796 267.471 27.0483 267.471 27.3374C267.471 27.4579 267.543 27.5543 267.616 27.6507C266.989 28.3736 266.652 29.1206 267.543 29.4098C267.64 29.6507 267.929 29.8435 268.531 29.9158C268.387 30.0845 268.266 30.2531 268.363 30.4941C268.459 30.7351 268.652 30.8074 268.844 30.8074C268.073 32.0363 267.254 33.6749 268.363 33.8677C268.483 34.2773 268.941 34.4219 269.977 34.1327C270.025 34.3496 270.194 34.5183 270.555 34.4942C271.037 34.4701 271.495 33.9641 271.832 33.6749C271.953 33.5785 272.073 33.5062 272.218 33.4098C272.098 33.6026 271.977 33.8195 271.929 34.0123C271.857 34.3496 272.025 34.5665 272.266 34.6147C272.17 35.5545 272.218 36.3738 272.796 36.2774C272.965 36.8557 273.447 36.928 274.555 35.7954C274.628 35.8677 274.748 35.9159 274.869 35.94C275.351 36.0123 275.64 35.5063 275.857 35.1448C275.977 34.9279 276.098 34.7111 276.218 34.4942C276.29 35.6508 276.483 36.9762 277.062 36.8557C277.375 37.5786 277.929 37.5304 278.965 35.3376C279.037 35.6027 279.327 35.8436 279.543 35.9159C279.543 35.94 279.736 35.94 279.736 35.9641V40.4702H282.387V35.9641C282.387 35.94 282.291 35.94 282.291 35.9159C282.507 35.8195 282.58 35.5786 282.652 35.3376C283.688 37.5304 284.218 37.5786 284.532 36.8557C285.11 36.9762 285.303 35.6508 285.351 34.4942C285.447 34.7111 285.568 34.9279 285.688 35.1448C285.905 35.4822 286.194 35.9882 286.676 35.94C286.821 35.9159 286.917 35.8677 286.989 35.7954C288.122 36.928 288.604 36.8557 288.749 36.2774C289.327 36.3738 289.375 35.5304 289.279 34.6147C289.52 34.5665 289.688 34.3496 289.616 34.0123C289.568 33.8195 289.447 33.6026 289.327 33.4098C289.471 33.5062 289.592 33.5785 289.712 33.6749C290.05 33.9641 290.508 34.446 290.99 34.4942C291.351 34.5183 291.52 34.3737 291.568 34.1327C292.604 34.446 293.062 34.2773 293.182 33.8677C294.291 33.699 293.471 32.0363 292.7 30.8074C292.917 30.8074 293.11 30.7351 293.182 30.4941C293.255 30.2531 293.158 30.0845 293.014 29.9158C293.592 29.8435 293.905 29.6748 294.002 29.4098C294.797 29.1206 294.459 28.3736 293.833 27.6507Z" fill="#F9D1D1" fill-opacity="0.6"/>
</g>
<path d="M293.833 27.8916C293.905 27.7953 293.978 27.6989 293.978 27.5784C293.978 27.2651 293.688 27.0964 293.447 27.0001C293.158 26.8555 292.869 26.7832 292.58 26.7109C292.484 26.6386 292.411 26.5663 292.339 26.5181C292.411 26.5181 292.459 26.5181 292.532 26.494C292.749 26.4699 292.845 26.1567 292.725 25.988C292.532 25.6747 292.267 25.482 291.953 25.3374C291.953 25.1205 291.833 24.9036 291.592 24.8072C291.279 24.6627 290.869 24.6868 290.532 24.6868C290.508 24.6868 290.508 24.6868 290.484 24.6868C290.291 24.5904 290.122 24.494 289.953 24.3976C289.905 24.3494 289.857 24.3012 289.809 24.253C289.857 24.2771 289.905 24.3012 289.953 24.3253C290.218 24.4217 290.387 24.2048 290.363 23.9879C290.58 23.8193 290.628 23.5783 290.58 23.3132C291.014 23.3373 291.351 23.1687 291.182 22.5662C291.014 21.9156 290.604 21.3373 290.146 20.8313C290.339 20.7108 290.459 20.4939 290.363 20.277C290.339 20.2288 290.315 20.1806 290.267 20.1324C290.676 20.0602 290.869 19.9156 290.893 19.6987C292.267 19.3613 290.556 17.8432 289.881 17.3131C289.905 17.289 289.905 17.289 289.929 17.2649C290.146 16.9758 289.953 16.6866 289.737 16.4697C289.399 16.1565 288.941 15.9878 288.532 15.8191C288.363 15.7468 288.194 15.6745 288.026 15.5781C288.194 15.5781 288.363 15.4576 288.363 15.2649C288.363 15.048 288.315 14.8552 288.242 14.6625C288.339 14.6625 288.435 14.6384 288.532 14.5661C288.797 14.3974 288.869 14.06 288.797 13.7709C288.676 13.2407 288.146 12.7588 287.64 12.3732C288.05 12.3251 288.218 12.1564 288.194 11.9636C289.712 11.6985 287.327 9.96356 287.327 9.96356C287.014 9.74668 286.7 9.45752 286.387 9.14426C286.508 9.09607 286.58 8.99968 286.652 8.8792C286.773 8.56594 286.58 8.34906 286.363 8.15629C285.616 7.52977 284.893 6.92735 284.194 6.27673C284.363 6.22854 284.483 6.10805 284.532 5.91528C284.604 5.52973 284.218 5.28876 283.977 5.09598C283.375 4.56585 282.676 3.98752 282.098 3.33691C281.736 2.73449 281.495 2.37303 281.495 2.37303C281.278 1.8188 281.086 1.45735 280.724 1.24048C280.387 1.45735 280.194 1.8188 279.953 2.37303C279.953 2.37303 279.712 2.75858 279.351 3.33691C278.748 3.98752 278.05 4.56585 277.471 5.09598C277.23 5.31285 276.845 5.55382 276.917 5.91528C276.965 6.10805 277.086 6.22854 277.254 6.27673C276.556 6.92735 275.833 7.52977 275.086 8.15629C274.869 8.34906 274.676 8.56594 274.796 8.8792C274.845 8.99968 274.941 9.09607 275.061 9.14426C274.748 9.45752 274.411 9.74668 274.122 9.96356C274.122 9.96356 271.736 11.6985 273.254 11.9636C273.254 12.1564 273.399 12.3251 273.808 12.3732C273.302 12.7588 272.772 13.2407 272.652 13.7709C272.58 14.06 272.676 14.3974 272.917 14.5661C273.013 14.6384 273.11 14.6625 273.206 14.6625C273.134 14.8311 273.086 15.048 273.086 15.2649C273.086 15.4817 273.254 15.5781 273.423 15.5781C273.254 15.6504 273.086 15.7468 272.917 15.8191C272.483 15.9878 272.049 16.1565 271.712 16.4697C271.495 16.6625 271.302 16.9758 271.519 17.2649C271.543 17.289 271.543 17.289 271.567 17.3131C270.893 17.8432 269.182 19.3613 270.555 19.6987C270.604 19.8915 270.796 20.0602 271.182 20.1324C271.134 20.1806 271.11 20.2288 271.086 20.277C270.989 20.4939 271.11 20.7349 271.302 20.8313C270.845 21.3614 270.435 21.9156 270.266 22.5662C270.122 23.1687 270.459 23.3373 270.869 23.3132C270.82 23.5783 270.869 23.8193 271.086 23.9879C271.061 24.2048 271.23 24.4217 271.495 24.3253C271.543 24.3012 271.592 24.2771 271.64 24.253C271.592 24.3012 271.543 24.3494 271.495 24.3976C271.326 24.494 271.134 24.5904 270.965 24.6868C270.941 24.6868 270.941 24.6868 270.917 24.6868C270.579 24.6868 270.17 24.6386 269.857 24.8072C269.616 24.9277 269.495 25.1446 269.495 25.3374C269.182 25.482 268.941 25.6747 268.724 25.988C268.604 26.1567 268.724 26.4458 268.917 26.494C268.989 26.494 269.037 26.5181 269.11 26.5181C269.037 26.5663 268.965 26.6386 268.869 26.7109C268.579 26.7832 268.29 26.8796 268.001 27.0001C267.76 27.1205 267.471 27.2892 267.471 27.5784C267.471 27.6989 267.543 27.7953 267.616 27.8916C266.989 28.6146 266.652 29.3616 267.543 29.6507C267.64 29.8917 267.929 30.0845 268.531 30.1568C268.387 30.3254 268.266 30.4941 268.363 30.7351C268.459 30.976 268.652 31.0483 268.844 31.0483C268.073 32.2773 267.254 33.9159 268.363 34.1086C268.483 34.5183 268.941 34.6629 269.977 34.3737C270.025 34.5906 270.194 34.7593 270.555 34.7352C271.037 34.7111 271.495 34.205 271.833 33.9159C271.953 33.8195 272.073 33.7472 272.218 33.6508C272.098 33.8436 271.977 34.0605 271.929 34.2532C271.857 34.5906 272.025 34.8075 272.266 34.8557C272.17 35.7954 272.218 36.6147 272.796 36.5183C272.965 37.0967 273.447 37.1689 274.555 36.0364C274.628 36.1087 274.748 36.1569 274.869 36.181C275.351 36.2533 275.64 35.7472 275.857 35.3858C275.977 35.1689 276.098 34.952 276.218 34.7352C276.29 35.8918 276.483 37.2171 277.062 37.0967C277.375 37.8196 277.929 37.7714 278.965 35.5786C279.037 35.8436 279.327 36.0846 279.544 36.1569C279.544 36.181 279.736 36.181 279.736 36.2051V40.7112H282.387V36.2051C282.387 36.181 282.291 36.181 282.291 36.1569C282.507 36.0605 282.58 35.8195 282.652 35.5786C283.688 37.7714 284.218 37.8196 284.532 37.0967C285.11 37.2171 285.303 35.8918 285.351 34.7352C285.447 34.952 285.568 35.1689 285.688 35.3858C285.905 35.7231 286.194 36.2292 286.676 36.181C286.821 36.1569 286.917 36.1087 286.989 36.0364C288.122 37.1689 288.604 37.0967 288.749 36.5183C289.327 36.6147 289.375 35.7713 289.279 34.8557C289.52 34.8075 289.688 34.5906 289.616 34.2532C289.568 34.0605 289.447 33.8436 289.327 33.6508C289.471 33.7472 289.592 33.8195 289.712 33.9159C290.05 34.205 290.508 34.687 290.99 34.7352C291.351 34.7593 291.52 34.6147 291.568 34.3737C292.604 34.687 293.062 34.5183 293.182 34.1086C294.291 33.94 293.472 32.2773 292.7 31.0483C292.917 31.0483 293.11 30.976 293.182 30.7351C293.255 30.4941 293.158 30.3254 293.014 30.1568C293.592 30.0845 293.905 29.9158 294.002 29.6507C294.797 29.3616 294.459 28.6146 293.833 27.8916Z" fill="#F9D1D1" fill-opacity="0.6"/>
<g filter="url(#filter1_dd)">
<path d="M283.936 42.9917C283.211 42.582 282.203 41.9833 279.902 40.8172C276.814 39.273 274.166 36.8464 272.874 35.5542C272.717 35.3967 272.906 35.113 273.126 35.2076C276.089 36.4682 279.555 36.6888 281.793 36.6573C282.329 36.6573 282.486 35.9324 281.982 35.7118C279.555 34.5773 275.931 32.7179 274.545 31.6779C274.293 31.4888 274.45 31.0791 274.765 31.1107C275.648 31.1737 277.129 31.2682 278.389 31.3628C278.925 31.3943 279.146 30.701 278.673 30.4173C277.885 29.9446 276.94 29.3774 275.9 28.5895L273.946 26.9822C273.788 26.8562 273.883 26.5095 274.072 26.5095H275.269C275.553 26.5095 275.679 26.2259 275.427 26.0683C274.04 25.2489 273.032 24.335 272.465 23.7362C272.244 23.5156 272.433 23.1689 272.748 23.2005L276.593 23.6417C276.94 23.6732 277.066 23.232 276.782 23.0744C274.86 21.9714 272.748 20.2066 272.055 19.072C271.866 18.7569 272.086 18.3472 272.465 18.3787L273.946 18.4733C274.293 18.5048 274.419 18.032 274.135 17.8745C272.496 16.929 271.015 15.5424 270.385 14.7545C270.196 14.5024 270.416 14.1557 270.7 14.2188L272.622 14.5339C272.969 14.5969 273.19 14.1557 272.906 13.9351C271.173 12.4539 269.786 10.9412 269.03 10.1218C268.904 9.96427 269.03 9.74367 269.219 9.77518C269.534 9.83821 269.975 9.93276 270.416 10.0273C270.794 10.1218 271.047 9.68064 270.763 9.39701C268.809 7.44309 266.603 4.16556 266.603 2.99951C266.603 4.16556 264.397 7.44309 262.443 9.39701C262.159 9.64912 262.411 10.1218 262.79 10.0273C263.231 9.93276 263.672 9.83821 263.987 9.77518C264.176 9.74367 264.302 9.96427 264.176 10.1218C263.42 10.9097 262.002 12.4539 260.3 13.9351C260.016 14.1557 260.237 14.5969 260.584 14.5339L262.506 14.2188C262.821 14.1557 263.01 14.5024 262.821 14.7545C262.159 15.5739 260.71 16.929 259.071 17.8745C258.787 18.032 258.913 18.5048 259.26 18.4733L260.741 18.3787C261.119 18.3472 261.34 18.7569 261.151 19.072C260.426 20.2066 258.346 22.0029 256.424 23.0744C256.14 23.232 256.266 23.6732 256.613 23.6417L260.458 23.2005C260.773 23.1689 260.962 23.5471 260.741 23.7677C260.174 24.398 259.165 25.2174 257.779 26.0683C257.527 26.2259 257.621 26.5095 257.936 26.5095H259.134C259.323 26.5095 259.418 26.8562 259.26 26.9822L257.306 28.558C256.298 29.3458 255.321 29.9761 254.533 30.4173C254.092 30.701 254.281 31.3943 254.816 31.3628C256.077 31.2682 257.558 31.1737 258.441 31.1107C258.756 31.0791 258.913 31.4888 258.661 31.6779C257.275 32.7179 253.682 34.5773 251.224 35.6488C250.719 35.8694 250.877 36.5942 251.413 36.5942C253.65 36.6257 257.117 36.4367 260.079 35.1446C260.3 35.05 260.489 35.3336 260.331 35.4912C259.039 36.7833 256.392 39.21 253.304 40.7542C251.035 41.9202 250.026 42.519 249.27 42.9287C248.797 43.1808 248.986 43.9057 249.522 43.9372C251.192 43.9687 253.493 43.9687 255.447 43.8111C257.747 43.5905 259.323 43.2438 260.174 42.9917C260.395 42.9287 260.584 43.1808 260.426 43.3699C259.796 44.1893 258.472 45.702 256.045 47.2777C255.636 47.5614 255.825 48.1917 256.329 48.1917C258.378 48.1601 262.096 47.9711 264.618 46.868V52.3201H268.714V46.868C271.236 47.9711 274.86 48.1917 276.908 48.1917C277.412 48.1917 277.57 47.5298 277.129 47.2777C274.702 45.702 273.347 44.1893 272.748 43.3699C272.591 43.1808 272.78 42.9287 273 42.9917C273.851 43.2123 275.459 43.5905 277.728 43.8111C279.682 44.0002 281.982 44.0002 283.652 43.9372C284.22 43.9687 284.409 43.2438 283.936 42.9917Z" fill="#F9D1D1" fill-opacity="0.6"/>
</g>
<path d="M283.936 43.3059C283.211 42.8962 282.203 42.2975 279.902 41.1314C276.814 39.5872 274.166 37.1606 272.874 35.8685C272.717 35.7109 272.906 35.4272 273.126 35.5218C276.089 36.7824 279.555 37.003 281.793 36.9715C282.329 36.9715 282.486 36.2466 281.982 36.026C279.555 34.8915 275.931 33.0321 274.545 31.9921C274.293 31.8031 274.45 31.3934 274.765 31.4249C275.648 31.4879 277.129 31.5824 278.389 31.677C278.925 31.7085 279.146 31.0152 278.673 30.7316C277.885 30.2588 276.94 29.6916 275.9 28.9037L273.946 27.2964C273.788 27.1704 273.883 26.8237 274.072 26.8237H275.269C275.553 26.8237 275.679 26.5401 275.427 26.3825C274.04 25.5631 273.032 24.6492 272.465 24.0504C272.244 23.8298 272.433 23.4832 272.748 23.5147L276.593 23.9559C276.94 23.9874 277.066 23.5462 276.782 23.3886C274.86 22.2856 272.748 20.5208 272.055 19.3862C271.866 19.0711 272.086 18.6614 272.465 18.6929L273.946 18.7875C274.293 18.819 274.419 18.3463 274.135 18.1887C272.496 17.2432 271.015 15.8566 270.385 15.0687C270.196 14.8166 270.416 14.4699 270.7 14.533L272.622 14.8481C272.969 14.9111 273.19 14.4699 272.906 14.2493C271.173 12.7681 269.786 11.2554 269.03 10.4361C268.904 10.2785 269.03 10.0579 269.219 10.0894C269.534 10.1524 269.975 10.247 270.416 10.3415C270.794 10.4361 271.047 9.99485 270.763 9.71121C268.809 7.7573 266.603 4.47977 266.603 3.31372C266.603 4.47977 264.397 7.7573 262.443 9.71121C262.159 9.96333 262.411 10.4361 262.79 10.3415C263.231 10.247 263.672 10.1524 263.987 10.0894C264.176 10.0579 264.302 10.2785 264.176 10.4361C263.42 11.2239 262.002 12.7681 260.3 14.2493C260.016 14.4699 260.237 14.9111 260.584 14.8481L262.506 14.533C262.821 14.4699 263.01 14.8166 262.821 15.0687C262.159 15.8881 260.71 17.2432 259.071 18.1887C258.787 18.3463 258.913 18.819 259.26 18.7875L260.741 18.6929C261.119 18.6614 261.34 19.0711 261.151 19.3862C260.426 20.5208 258.346 22.3171 256.424 23.3886C256.14 23.5462 256.266 23.9874 256.613 23.9559L260.458 23.5147C260.773 23.4832 260.962 23.8613 260.741 24.0819C260.174 24.7122 259.165 25.5316 257.779 26.3825C257.527 26.5401 257.621 26.8237 257.936 26.8237H259.134C259.323 26.8237 259.418 27.1704 259.26 27.2964L257.306 28.8722C256.298 29.66 255.321 30.2903 254.533 30.7316C254.092 31.0152 254.281 31.7085 254.816 31.677C256.077 31.5824 257.558 31.4879 258.441 31.4249C258.756 31.3934 258.913 31.8031 258.661 31.9921C257.275 33.0321 253.682 34.8915 251.224 35.963C250.719 36.1836 250.877 36.9084 251.413 36.9084C253.65 36.94 257.117 36.7509 260.079 35.4588C260.3 35.3642 260.489 35.6479 260.331 35.8054C259.039 37.0975 256.392 39.5242 253.304 41.0684C251.035 42.2344 250.026 42.8332 249.27 43.2429C248.797 43.495 248.986 44.2199 249.522 44.2514C251.192 44.2829 253.493 44.2829 255.447 44.1253C257.747 43.9047 259.323 43.5581 260.174 43.3059C260.395 43.2429 260.584 43.495 260.426 43.6841C259.796 44.5035 258.472 46.0162 256.045 47.5919C255.636 47.8756 255.825 48.5059 256.329 48.5059C258.378 48.4743 262.096 48.2853 264.618 47.1822V52.6343H268.714V47.1822C271.236 48.2853 274.86 48.5059 276.908 48.5059C277.412 48.5059 277.57 47.8441 277.129 47.5919C274.702 46.0162 273.347 44.5035 272.748 43.6841C272.591 43.495 272.78 43.2429 273 43.3059C273.851 43.5265 275.459 43.9047 277.728 44.1253C279.682 44.3144 281.982 44.3144 283.652 44.2514C284.22 44.2829 284.409 43.5581 283.936 43.3059Z" fill="#F9D1D1" fill-opacity="0.6"/>
<g filter="url(#filter2_d)">
<path d="M260.104 44.8329C260.104 44.8329 262.234 44.1998 261.946 42.3294C262.234 39.8834 258.752 34.934 258.752 34.934C258.752 34.934 260.594 34.2722 260.277 32.3154C259.96 30.3587 256.076 26.0135 256.277 25.9847C256.479 25.9559 257.428 25.697 257.342 23.6251C257.227 21.5532 252.277 15.9995 251.961 15.9995C251.673 15.9995 246.724 21.5532 246.608 23.6251C246.493 25.697 247.443 25.9272 247.673 25.9847C247.875 26.0135 243.99 30.3874 243.673 32.3442C243.357 34.3009 245.198 34.9628 245.198 34.9628C245.198 34.9628 241.717 39.8834 242.004 42.3294C241.717 44.1998 243.846 44.8329 243.846 44.8329C243.846 44.8329 239.501 49.9838 240.048 52.3722C240.594 54.7606 244.019 54.5303 247.155 53.7822C248.738 53.4081 249.918 53.1203 250.781 52.9477V59.0194H253.371V52.9765C254.234 53.1491 255.356 53.4081 256.824 53.7822C259.96 54.5303 263.385 54.7606 263.932 52.3722C264.449 49.9838 260.104 44.8329 260.104 44.8329Z" fill="#F9D1D1" fill-opacity="0.6"/>
</g>
<path d="M260.104 45.1198C260.104 45.1198 262.234 44.4867 261.946 42.6163C262.234 40.1703 258.752 35.2209 258.752 35.2209C258.752 35.2209 260.594 34.559 260.277 32.6023C259.96 30.6455 256.076 26.3004 256.277 26.2716C256.479 26.2428 257.428 25.9838 257.342 23.912C257.227 21.8401 252.277 16.2864 251.961 16.2864C251.673 16.2864 246.724 21.8401 246.608 23.912C246.493 25.9838 247.443 26.214 247.673 26.2716C247.875 26.3004 243.99 30.6743 243.673 32.631C243.357 34.5878 245.198 35.2496 245.198 35.2496C245.198 35.2496 241.717 40.1703 242.004 42.6163C241.717 44.4867 243.846 45.1198 243.846 45.1198C243.846 45.1198 239.501 50.2706 240.048 52.659C240.594 55.0474 244.019 54.8172 247.155 54.069C248.738 53.695 249.918 53.4072 250.781 53.2345V59.3062H253.371V53.2633C254.234 53.436 255.356 53.695 256.824 54.069C259.96 54.8172 263.385 55.0474 263.932 52.659C264.449 50.2706 260.104 45.1198 260.104 45.1198Z" fill="#F9D1D1" fill-opacity="0.6"/>
<g filter="url(#filter3_d)">
<path d="M248.157 60.1952C248.157 60.1952 250.822 59.403 250.462 57.0625C250.822 54.0018 246.465 47.8084 246.465 47.8084C246.465 47.8084 248.769 46.9802 248.373 44.5316C247.977 42.0831 243.116 36.6458 243.368 36.6098C243.62 36.5738 244.808 36.2497 244.7 33.6572C244.556 31.0646 238.363 24.115 237.967 24.115C237.607 24.115 231.413 31.0646 231.269 33.6572C231.125 36.2497 232.314 36.5378 232.602 36.6098C232.854 36.6458 227.993 42.1191 227.597 44.5676C227.2 47.0162 229.505 47.8444 229.505 47.8444C229.505 47.8444 225.148 54.0018 225.508 57.0625C225.148 59.403 227.813 60.1952 227.813 60.1952C227.813 60.1952 222.375 66.6407 223.06 69.6293C223.744 72.618 228.029 72.3299 231.954 71.3937C233.934 70.9256 235.41 70.5655 236.491 70.3495V77.9472H239.731V70.3855C240.812 70.6016 242.216 70.9256 244.052 71.3937C247.977 72.3299 252.262 72.618 252.946 69.6293C253.594 66.6407 248.157 60.1952 248.157 60.1952Z" fill="#F9D1D1" fill-opacity="0.6"/>
</g>
<path d="M248.157 60.5543C248.157 60.5543 250.822 59.7621 250.462 57.4216C250.822 54.3609 246.465 48.1675 246.465 48.1675C246.465 48.1675 248.769 47.3393 248.373 44.8908C247.977 42.4422 243.116 37.005 243.368 36.969C243.62 36.933 244.808 36.6089 244.7 34.0163C244.556 31.4237 238.363 24.4741 237.967 24.4741C237.607 24.4741 231.413 31.4237 231.269 34.0163C231.125 36.6089 232.314 36.8969 232.602 36.969C232.854 37.005 227.993 42.4782 227.597 44.9268C227.2 47.3753 229.505 48.2035 229.505 48.2035C229.505 48.2035 225.148 54.3609 225.508 57.4216C225.148 59.7621 227.813 60.5543 227.813 60.5543C227.813 60.5543 222.375 66.9998 223.06 69.9885C223.744 72.9771 228.029 72.6891 231.954 71.7529C233.934 71.2848 235.41 70.9247 236.491 70.7086V78.3064H239.731V70.7446C240.812 70.9607 242.216 71.2848 244.052 71.7529C247.977 72.6891 252.262 72.9771 252.946 69.9885C253.594 66.9998 248.157 60.5543 248.157 60.5543Z" fill="#F9D1D1" fill-opacity="0.6"/>
<g filter="url(#filter4_d)">
<path d="M236.849 73.8824C235.939 73.2479 235.056 72.503 234.256 71.7582C238.118 72.6685 235.58 69.0546 235.58 69.0546C240.132 69.2477 236.849 66.5718 236.849 66.5718C233.732 64.3648 230.78 60.8337 230.78 60.8337C233.897 61.6061 232.049 59.1233 232.049 59.1233C236.104 60.2819 232.904 57.4956 232.904 57.4956C230.973 55.9783 228.684 52.8058 228.684 52.8058C231.801 54.0472 230.035 51.7575 230.035 51.7575C233.594 52.9161 230.697 50.2402 230.697 50.2402C226.504 46.4608 224.435 42.2951 223.718 40.5847C223.69 40.4744 223.607 40.364 223.58 40.2261C223.552 40.2537 223.497 40.3088 223.497 40.3364C223.497 40.3088 223.442 40.2537 223.414 40.2261C223.359 40.364 223.304 40.4744 223.249 40.6123C222.532 42.3227 220.463 46.4883 216.297 50.2402C216.297 50.2402 213.428 52.9161 216.959 51.7575C216.959 51.7575 215.193 54.0472 218.311 52.8058C218.311 52.8058 216.021 55.9507 214.09 57.4956C214.09 57.4956 210.89 60.2819 214.945 59.1233C214.945 59.1233 213.097 61.6061 216.214 60.8337C216.214 60.8337 213.262 64.3648 210.145 66.5718C210.145 66.5718 206.862 69.2477 211.414 69.0546C211.414 69.0546 208.876 72.6685 212.738 71.7582C211.938 72.503 211.055 73.2479 210.145 73.8824C210.145 73.8824 206.862 76.5583 211.414 76.3652C211.414 76.3652 208.462 80.5584 213.786 78.7377C213.786 78.7377 211 82.6551 216.987 80.6412C216.987 80.6412 215.138 84.0896 219.856 81.7999C219.856 81.7999 219.442 83.0689 219.58 83.3447H220.407C220.6 83.3447 220.959 83.1792 221.511 82.9309V88.5863H225.925V82.8758C226.201 83.1516 226.421 83.3447 226.614 83.3447H227.442C227.58 83.0689 227.166 81.7999 227.166 81.7999C231.884 84.0896 230.035 80.6136 230.035 80.6136C236.022 82.6275 233.235 78.7101 233.235 78.7101C238.56 80.5309 235.608 76.3376 235.608 76.3376C240.132 76.5307 236.849 73.8824 236.849 73.8824Z" fill="#F9D1D1" fill-opacity="0.6"/>
</g>
<path d="M236.849 74.1575C235.939 73.523 235.056 72.7781 234.256 72.0333C238.118 72.9437 235.58 69.3298 235.58 69.3298C240.132 69.5229 236.849 66.8469 236.849 66.8469C233.732 64.6399 230.78 61.1088 230.78 61.1088C233.897 61.8812 232.049 59.3984 232.049 59.3984C236.104 60.5571 232.904 57.7708 232.904 57.7708C230.973 56.2535 228.684 53.0809 228.684 53.0809C231.801 54.3224 230.035 52.0326 230.035 52.0326C233.594 53.1913 230.697 50.5153 230.697 50.5153C226.504 46.7359 224.435 42.5703 223.718 40.8599C223.69 40.7495 223.607 40.6392 223.58 40.5012C223.552 40.5288 223.497 40.584 223.497 40.6116C223.497 40.584 223.442 40.5288 223.414 40.5012C223.359 40.6392 223.304 40.7495 223.249 40.8874C222.532 42.5978 220.463 46.7635 216.297 50.5153C216.297 50.5153 213.428 53.1913 216.959 52.0326C216.959 52.0326 215.193 54.3224 218.311 53.0809C218.311 53.0809 216.021 56.2259 214.09 57.7708C214.09 57.7708 210.89 60.5571 214.945 59.3984C214.945 59.3984 213.097 61.8812 216.214 61.1088C216.214 61.1088 213.262 64.6399 210.145 66.8469C210.145 66.8469 206.862 69.5229 211.414 69.3298C211.414 69.3298 208.876 72.9437 212.738 72.0333C211.938 72.7781 211.055 73.523 210.145 74.1575C210.145 74.1575 206.862 76.8335 211.414 76.6403C211.414 76.6403 208.462 80.8336 213.786 79.0128C213.786 79.0128 211 82.9302 216.987 80.9164C216.987 80.9164 215.138 84.3647 219.856 82.075C219.856 82.075 219.442 83.344 219.58 83.6199H220.407C220.6 83.6199 220.959 83.4544 221.511 83.2061V88.8614H225.925V83.1509C226.201 83.4268 226.421 83.6199 226.614 83.6199H227.442C227.58 83.344 227.166 82.075 227.166 82.075C231.884 84.3647 230.035 80.8888 230.035 80.8888C236.022 82.9026 233.235 78.9853 233.235 78.9853C238.56 80.806 235.608 76.6128 235.608 76.6128C240.132 76.8059 236.849 74.1575 236.849 74.1575Z" fill="#F9D1D1" fill-opacity="0.6"/>
<g filter="url(#filter5_dd)">
<path d="M220.764 85.2159C220.126 84.8552 219.238 84.3279 217.212 83.3011C214.492 81.9413 212.161 79.8044 211.023 78.6666C210.885 78.5279 211.051 78.2781 211.245 78.3613C213.854 79.4714 216.907 79.6657 218.877 79.6379C219.349 79.6379 219.487 78.9996 219.043 78.8054C216.907 77.8063 213.715 76.169 212.494 75.2532C212.272 75.0867 212.411 74.7259 212.688 74.7537C213.465 74.8092 214.77 74.8924 215.88 74.9757C216.352 75.0034 216.546 74.3929 216.13 74.1432C215.436 73.7269 214.603 73.2274 213.687 72.5336L211.967 71.1183C211.828 71.0073 211.911 70.702 212.078 70.702H213.132C213.382 70.702 213.493 70.4522 213.271 70.3135C212.05 69.5919 211.162 68.7871 210.663 68.2599C210.468 68.0656 210.635 67.7603 210.912 67.7881L214.298 68.1766C214.603 68.2044 214.714 67.8159 214.464 67.6771C212.772 66.7058 210.912 65.1517 210.302 64.1527C210.135 63.8752 210.33 63.5144 210.663 63.5422L211.967 63.6254C212.272 63.6532 212.383 63.2369 212.133 63.0981C210.69 62.2656 209.386 61.0445 208.831 60.3507C208.664 60.1287 208.859 59.8235 209.108 59.879L210.801 60.1565C211.107 60.212 211.301 59.8235 211.051 59.6292C209.525 58.3249 208.304 56.9928 207.638 56.2713C207.527 56.1326 207.638 55.9383 207.804 55.966C208.082 56.0215 208.47 56.1048 208.859 56.1881C209.192 56.2713 209.414 55.8828 209.164 55.633C207.443 53.9124 205.501 51.0263 205.501 49.9995C205.501 51.0263 203.558 53.9124 201.838 55.633C201.588 55.855 201.81 56.2713 202.143 56.1881C202.531 56.1048 202.92 56.0215 203.197 55.966C203.364 55.9383 203.475 56.1326 203.364 56.2713C202.698 56.9651 201.449 58.3249 199.951 59.6292C199.701 59.8235 199.895 60.212 200.2 60.1565L201.893 59.879C202.171 59.8235 202.337 60.1287 202.171 60.3507C201.588 61.0723 200.311 62.2656 198.868 63.0981C198.618 63.2369 198.729 63.6532 199.035 63.6254L200.339 63.5422C200.672 63.5144 200.866 63.8752 200.7 64.1527C200.062 65.1517 198.23 66.7336 196.537 67.6771C196.287 67.8159 196.398 68.2044 196.704 68.1766L200.089 67.7881C200.367 67.7603 200.533 68.0934 200.339 68.2876C199.84 68.8427 198.952 69.5642 197.73 70.3135C197.508 70.4522 197.592 70.702 197.869 70.702H198.924C199.09 70.702 199.174 71.0073 199.035 71.1183L197.314 72.5058C196.426 73.1996 195.566 73.7546 194.872 74.1432C194.484 74.3929 194.65 75.0034 195.122 74.9757C196.232 74.8924 197.536 74.8092 198.313 74.7537C198.591 74.7259 198.73 75.0867 198.507 75.2532C197.286 76.169 194.123 77.8063 191.958 78.7499C191.514 78.9441 191.653 79.5824 192.125 79.5824C194.095 79.6102 197.148 79.4436 199.756 78.3058C199.951 78.2226 200.117 78.4724 199.978 78.6111C198.841 79.7489 196.509 81.8858 193.79 83.2456C191.792 84.2724 190.904 84.7997 190.238 85.1604C189.821 85.3824 189.988 86.0207 190.46 86.0485C191.93 86.0762 193.956 86.0762 195.677 85.9375C197.703 85.7432 199.09 85.4379 199.84 85.2159C200.034 85.1604 200.2 85.3824 200.062 85.5489C199.507 86.2705 198.341 87.6025 196.204 88.9901C195.843 89.2399 196.01 89.7949 196.454 89.7949C198.258 89.7671 201.532 89.6006 203.752 88.6293V93.4303H207.36V88.6293C209.58 89.6006 212.772 89.7949 214.575 89.7949C215.02 89.7949 215.158 89.2121 214.77 88.9901C212.633 87.6025 211.44 86.2705 210.912 85.5489C210.774 85.3824 210.94 85.1604 211.134 85.2159C211.884 85.4102 213.299 85.7432 215.297 85.9375C217.018 86.104 219.043 86.104 220.514 86.0485C221.014 86.0762 221.18 85.4379 220.764 85.2159Z" fill="#F9D1D1" fill-opacity="0.6"/>
</g>
<path d="M220.764 85.4925C220.126 85.1318 219.238 84.6045 217.212 83.5777C214.492 82.2179 212.161 80.081 211.023 78.9432C210.885 78.8045 211.051 78.5547 211.245 78.638C213.854 79.748 216.907 79.9423 218.877 79.9145C219.349 79.9145 219.488 79.2762 219.043 79.082C216.907 78.0829 213.715 76.4456 212.494 75.5298C212.272 75.3633 212.411 75.0025 212.688 75.0303C213.465 75.0858 214.77 75.169 215.88 75.2523C216.352 75.2801 216.546 74.6695 216.13 74.4198C215.436 74.0035 214.603 73.504 213.687 72.8102L211.967 71.3949C211.828 71.2839 211.911 70.9786 212.078 70.9786H213.132C213.382 70.9786 213.493 70.7288 213.271 70.5901C212.05 69.8685 211.162 69.0638 210.663 68.5365C210.468 68.3422 210.635 68.037 210.912 68.0647L214.298 68.4532C214.603 68.481 214.714 68.0925 214.465 67.9537C212.772 66.9824 210.912 65.4283 210.302 64.4293C210.135 64.1518 210.33 63.791 210.663 63.8188L211.967 63.902C212.272 63.9298 212.383 63.5135 212.133 63.3747C210.69 62.5422 209.386 61.3211 208.831 60.6274C208.664 60.4054 208.859 60.1001 209.109 60.1556L210.801 60.4331C211.107 60.4886 211.301 60.1001 211.051 59.9058C209.525 58.6015 208.304 57.2695 207.638 56.5479C207.527 56.4092 207.638 56.2149 207.804 56.2427C208.082 56.2982 208.47 56.3814 208.859 56.4647C209.192 56.5479 209.414 56.1594 209.164 55.9096C207.443 54.1891 205.501 51.3029 205.501 50.2761C205.501 51.3029 203.558 54.1891 201.838 55.9096C201.588 56.1316 201.81 56.5479 202.143 56.4647C202.531 56.3814 202.92 56.2982 203.197 56.2427C203.364 56.2149 203.475 56.4092 203.364 56.5479C202.698 57.2417 201.449 58.6015 199.951 59.9058C199.701 60.1001 199.895 60.4886 200.2 60.4331L201.893 60.1556C202.171 60.1001 202.337 60.4054 202.171 60.6274C201.588 61.3489 200.311 62.5422 198.868 63.3747C198.619 63.5135 198.73 63.9298 199.035 63.902L200.339 63.8188C200.672 63.791 200.866 64.1518 200.7 64.4293C200.062 65.4283 198.23 67.0102 196.537 67.9537C196.287 68.0925 196.398 68.481 196.704 68.4532L200.089 68.0647C200.367 68.037 200.533 68.37 200.339 68.5642C199.84 69.1193 198.952 69.8408 197.73 70.5901C197.508 70.7288 197.592 70.9786 197.869 70.9786H198.924C199.09 70.9786 199.174 71.2839 199.035 71.3949L197.314 72.7824C196.426 73.4762 195.566 74.0312 194.872 74.4198C194.484 74.6695 194.65 75.2801 195.122 75.2523C196.232 75.169 197.536 75.0858 198.313 75.0303C198.591 75.0025 198.73 75.3633 198.508 75.5298C197.286 76.4456 194.123 78.0829 191.958 79.0265C191.514 79.2207 191.653 79.859 192.125 79.859C194.095 79.8868 197.148 79.7203 199.756 78.5825C199.951 78.4992 200.117 78.749 199.978 78.8877C198.841 80.0255 196.509 82.1624 193.79 83.5222C191.792 84.549 190.904 85.0763 190.238 85.437C189.821 85.659 189.988 86.2973 190.46 86.3251C191.93 86.3528 193.956 86.3528 195.677 86.2141C197.703 86.0198 199.09 85.7145 199.84 85.4925C200.034 85.437 200.2 85.659 200.062 85.8256C199.507 86.5471 198.341 87.8791 196.204 89.2667C195.843 89.5165 196.01 90.0715 196.454 90.0715C198.258 90.0437 201.532 89.8772 203.753 88.9059V93.7069H207.36V88.9059C209.58 89.8772 212.772 90.0715 214.576 90.0715C215.02 90.0715 215.158 89.4887 214.77 89.2667C212.633 87.8791 211.44 86.5471 210.912 85.8256C210.774 85.659 210.94 85.437 211.134 85.4925C211.884 85.6868 213.299 86.0198 215.297 86.2141C217.018 86.3806 219.043 86.3806 220.514 86.3251C221.014 86.3528 221.18 85.7145 220.764 85.4925Z" fill="#F9D1D1" fill-opacity="0.6"/>
<g filter="url(#filter6_dd)">
<path d="M216.786 98.2114C216.615 98.0405 216.615 98.0405 216.444 98.0405C215.074 97.1862 213.533 96.5027 212.163 95.4775C210.28 93.9397 208.396 92.4019 206.513 90.6932C206.171 90.3515 205.657 90.0097 205.315 89.4971C205.828 90.0097 206.342 90.3515 206.855 90.5223C207.369 90.6932 207.883 91.0349 208.396 91.0349C209.766 91.3767 210.965 91.7184 212.506 91.3767H212.677C212.677 91.3767 212.677 91.3767 212.677 91.2058C212.677 91.0349 212.677 91.035 212.677 90.8641C211.821 89.4971 209.937 88.6428 208.91 87.4467C207.027 85.5672 205.143 83.8585 203.602 81.6372C202.918 80.612 202.061 79.5868 201.377 78.5616C201.377 78.5616 201.377 78.5616 201.548 78.5616C201.719 78.5616 202.061 78.7324 202.233 78.9033C202.575 79.0742 202.746 79.0742 202.575 79.0742C203.945 79.7577 205.143 80.2703 206.684 80.2703H206.855C206.855 80.2703 206.856 80.0994 206.684 80.0994C203.602 77.3655 200.863 74.4607 198.295 71.2143C197.61 70.3599 196.925 69.5056 196.411 68.6512C195.898 67.7969 196.583 68.4804 196.925 68.8221C196.925 68.8221 196.925 68.8221 197.096 68.8221C198.123 69.5056 198.808 70.0182 200.007 70.189C200.007 70.189 200.007 70.189 200.178 70.189C200.349 70.189 200.349 70.0182 200.178 69.8473C197.61 65.7465 195.042 61.6456 193.501 57.0322C193.501 56.8613 193.329 56.8613 193.329 56.8613L193.158 57.0322C192.302 59.4243 191.104 61.6456 189.905 63.8669C189.049 65.2339 188.193 66.7717 187.337 68.1386C186.994 68.6512 186.652 69.1638 186.31 69.8473C186.31 70.0182 186.31 70.189 186.481 70.189C187.679 70.0182 188.364 69.5056 189.391 68.8221C189.734 68.6512 190.59 67.626 190.076 68.6512C189.563 69.6764 188.878 70.5308 188.193 71.2143C185.625 74.4607 182.885 77.3655 179.803 80.0994C179.632 80.2703 179.632 80.4411 179.975 80.4411C181.516 80.4411 182.714 79.7577 184.084 79.245C183.913 79.4159 185.454 78.5616 185.454 78.7324C184.769 79.7577 183.913 80.7829 183.228 81.8081C182.372 83.0041 181.344 84.2002 180.317 85.2254C179.632 84.3711 178.947 83.6876 178.262 82.8333C177.749 82.3207 177.235 81.6372 176.893 80.9537C176.722 80.4411 176.722 80.612 177.064 80.7829L177.235 80.9537L177.406 81.1246C178.091 81.6372 178.605 81.9789 179.461 82.1498V81.9789C177.749 79.0742 175.865 76.1694 174.667 72.9229C174.667 72.9229 174.667 72.7521 174.496 72.7521C174.496 72.7521 174.324 72.7521 174.324 72.9229C173.64 74.6316 172.784 76.3403 171.927 77.8781C171.071 79.245 170.387 80.612 169.53 81.9789C169.53 82.1498 169.53 82.3207 169.702 82.1498C170.558 81.9789 171.071 81.6372 171.756 81.1246C172.099 80.9537 172.612 80.2703 172.27 80.9537C171.585 81.6372 171.243 82.1498 170.729 82.8333C168.846 85.2254 166.962 87.2759 164.736 89.1554C164.565 89.3263 164.565 89.4971 164.736 89.4971C165.764 89.4971 166.791 88.9845 167.647 88.6428C167.476 88.6428 168.674 88.1302 168.503 88.3011C167.99 88.9845 167.476 89.8389 166.962 90.5223C166.106 91.8893 164.736 93.2562 163.367 94.4523C162.511 95.1358 161.312 95.8193 160.627 96.8445C160.627 97.0153 160.627 97.1862 160.798 97.1862C161.826 97.5279 162.682 97.3571 163.709 97.0153C164.052 96.8445 164.565 96.6736 164.736 96.6736C165.079 96.5027 165.592 96.3319 165.935 95.9901C165.592 96.3319 165.421 96.5027 165.079 96.8445C163.88 98.0405 162.511 99.2366 161.141 100.262C160.114 100.945 158.915 101.458 157.888 102.312C157.717 102.483 157.545 102.825 157.888 102.825C159.771 102.825 161.655 102.483 163.538 101.629C163.195 101.971 163.024 102.141 162.682 102.483C161.655 103.508 160.456 104.192 159.086 105.046C158.573 105.388 158.401 105.388 158.059 105.73C157.888 105.9 157.888 106.071 158.23 106.071C160.798 106.413 163.367 106.071 165.764 105.217C165.25 105.73 164.394 105.9 163.88 106.413C163.709 106.584 163.709 106.926 163.88 106.926C164.565 107.097 165.25 106.926 165.935 106.755C167.818 106.584 169.702 105.73 170.729 104.021C171.071 104.534 171.414 105.046 171.927 105.559C171.927 105.559 172.099 105.73 172.099 105.9C171.927 107.78 171.927 109.489 172.441 111.027C172.612 111.539 173.64 112.052 173.982 111.368C174.496 110.001 174.153 108.293 174.153 106.926C174.153 106.413 174.153 105.9 173.982 105.559C174.667 106.071 175.352 106.413 176.037 106.584C177.235 106.926 178.776 107.438 179.975 107.097C180.146 107.097 180.146 106.755 179.975 106.584C179.632 106.242 179.29 105.9 178.947 105.559C179.29 105.73 179.461 105.73 179.803 105.9C181.344 106.413 183.228 107.097 184.769 106.926C185.111 106.926 184.94 106.584 184.769 106.413C184.255 105.9 183.57 105.73 182.885 105.217C185.111 105.9 187.337 106.242 189.734 106.071C189.734 107.78 189.734 109.318 190.248 110.685C190.419 111.368 191.96 112.223 192.473 111.197C193.158 109.318 192.816 106.926 192.645 105.046C192.645 104.363 192.473 103.679 192.473 102.996C193.329 103.679 194.357 104.192 195.555 104.363C197.267 104.875 199.322 105.559 201.034 105.046C201.377 104.875 201.377 104.534 201.034 104.363C200.521 103.85 200.007 103.337 199.493 102.996C199.836 103.167 200.349 103.337 200.692 103.508C202.918 104.192 205.486 105.217 207.712 104.875C208.054 104.875 208.054 104.363 207.883 104.192C207.198 103.508 206.171 103.167 205.315 102.654C208.739 103.85 212.334 104.192 215.93 103.85C216.272 103.85 216.272 103.508 216.101 103.337C215.588 102.654 215.416 102.825 214.731 102.312C213.019 101.116 211.307 99.9201 209.766 98.5531C209.424 98.2114 208.91 97.8697 208.568 97.5279C211.136 98.5531 213.875 99.2366 216.444 99.0658C217.3 98.8949 216.957 98.3823 216.786 98.2114ZM189.905 104.875C188.878 104.192 187.851 103.337 186.823 102.654C186.994 102.483 187.166 102.312 187.337 102.141C188.022 102.312 188.707 102.483 189.22 102.483C189.391 102.654 189.563 102.825 189.734 103.167C189.905 103.337 189.905 103.337 190.076 103.508C190.076 104.021 190.076 104.534 189.905 104.875C189.905 104.875 189.905 105.046 189.905 104.875Z" fill="#F9D1D1" fill-opacity="0.6"/>
</g>
<path d="M216.096 98.7224C215.925 98.5515 215.925 98.5515 215.754 98.5515C214.384 97.6972 212.843 97.0137 211.473 95.9885C209.59 94.4507 207.706 92.9129 205.823 91.2042C205.481 90.8625 204.967 90.5207 204.625 90.0081C205.138 90.5207 205.652 90.8625 206.165 91.0333C206.679 91.2042 207.193 91.5459 207.706 91.5459C209.076 91.8877 210.275 92.2294 211.816 91.8877H211.987C211.987 91.8877 211.987 91.8877 211.987 91.7168C211.987 91.5459 211.987 91.5459 211.987 91.3751C211.131 90.0081 209.247 89.1538 208.22 87.9577C206.337 86.0782 204.453 84.3695 202.912 82.1482C202.228 81.123 201.371 80.0978 200.687 79.0726C200.687 79.0726 200.687 79.0726 200.858 79.0726C201.029 79.0726 201.371 79.2434 201.543 79.4143C201.885 79.5852 202.056 79.5852 201.885 79.5852C203.255 80.2686 204.453 80.7812 205.994 80.7812H206.165C206.165 80.7812 206.165 80.6104 205.994 80.6104C202.912 77.8765 200.173 74.9717 197.605 71.7252C196.92 70.8709 196.235 70.0166 195.721 69.1622C195.208 68.3079 195.893 68.9913 196.235 69.3331C196.235 69.3331 196.235 69.3331 196.406 69.3331C197.433 70.0166 198.118 70.5292 199.317 70.7C199.317 70.7 199.317 70.7 199.488 70.7C199.659 70.7 199.659 70.5292 199.488 70.3583C196.92 66.2575 194.352 62.1566 192.811 57.5432C192.811 57.3723 192.639 57.3723 192.639 57.3723L192.468 57.5432C191.612 59.9353 190.414 62.1566 189.215 64.3779C188.359 65.7448 187.503 67.2827 186.647 68.6496C186.304 69.1622 185.962 69.6748 185.62 70.3583C185.62 70.5292 185.62 70.7 185.791 70.7C186.989 70.5292 187.674 70.0166 188.701 69.3331C189.044 69.1622 189.9 68.137 189.386 69.1622C188.873 70.1874 188.188 71.0418 187.503 71.7252C184.935 74.9717 182.195 77.8765 179.113 80.6104C178.942 80.7812 178.942 80.9521 179.285 80.9521C180.826 80.9521 182.024 80.2686 183.394 79.756C183.223 79.9269 184.763 79.0726 184.763 79.2434C184.079 80.2686 183.223 81.2938 182.538 82.3191C181.682 83.5151 180.654 84.7112 179.627 85.7364C178.942 84.8821 178.257 84.1986 177.572 83.3443C177.059 82.8317 176.545 82.1482 176.203 81.4647C176.031 80.9521 176.031 81.123 176.374 81.2938L176.545 81.4647L176.716 81.6356C177.401 82.1482 177.915 82.4899 178.771 82.6608V82.4899C177.059 79.5852 175.175 76.6804 173.977 73.4339C173.977 73.4339 173.977 73.263 173.806 73.263C173.806 73.263 173.634 73.2631 173.634 73.4339C172.95 75.1426 172.094 76.8513 171.237 78.3891C170.381 79.756 169.696 81.123 168.84 82.4899C168.84 82.6608 168.84 82.8317 169.012 82.6608C169.868 82.4899 170.381 82.1482 171.066 81.6356C171.409 81.4647 171.922 80.7812 171.58 81.4647C170.895 82.1482 170.553 82.6608 170.039 83.3443C168.156 85.7364 166.272 87.7868 164.046 89.6664C163.875 89.8373 163.875 90.0081 164.046 90.0081C165.074 90.0081 166.101 89.4955 166.957 89.1538C166.786 89.1538 167.984 88.6412 167.813 88.812C167.299 89.4955 166.786 90.3499 166.272 91.0333C165.416 92.4003 164.046 93.7672 162.677 94.9633C161.821 95.6468 160.622 96.3302 159.937 97.3555C159.937 97.5263 159.937 97.6972 160.108 97.6972C161.136 98.0389 161.992 97.8681 163.019 97.5263C163.362 97.3554 163.875 97.1846 164.046 97.1846C164.389 97.0137 164.902 96.8428 165.245 96.5011C164.902 96.8428 164.731 97.0137 164.389 97.3555C163.19 98.5515 161.821 99.7476 160.451 100.773C159.424 101.456 158.225 101.969 157.198 102.823C157.027 102.994 156.855 103.336 157.198 103.336C159.081 103.336 160.964 102.994 162.848 102.14C162.505 102.481 162.334 102.652 161.992 102.994C160.964 104.019 159.766 104.703 158.396 105.557C157.883 105.899 157.711 105.899 157.369 106.241C157.198 106.411 157.198 106.582 157.54 106.582C160.108 106.924 162.677 106.582 165.074 105.728C164.56 106.241 163.704 106.411 163.19 106.924C163.019 107.095 163.019 107.437 163.19 107.437C163.875 107.608 164.56 107.437 165.245 107.266C167.128 107.095 169.012 106.241 170.039 104.532C170.381 105.045 170.724 105.557 171.237 106.07C171.237 106.07 171.409 106.241 171.409 106.411C171.237 108.291 171.237 110 171.751 111.537C171.922 112.05 172.95 112.563 173.292 111.879C173.806 110.512 173.463 108.804 173.463 107.437C173.463 106.924 173.463 106.411 173.292 106.07C173.977 106.582 174.662 106.924 175.347 107.095C176.545 107.437 178.086 107.949 179.285 107.608C179.456 107.608 179.456 107.266 179.285 107.095C178.942 106.753 178.6 106.411 178.257 106.07C178.6 106.241 178.771 106.241 179.113 106.411C180.654 106.924 182.538 107.608 184.079 107.437C184.421 107.437 184.25 107.095 184.079 106.924C183.565 106.411 182.88 106.241 182.195 105.728C184.421 106.411 186.647 106.753 189.044 106.582C189.044 108.291 189.044 109.829 189.558 111.196C189.729 111.879 191.27 112.734 191.783 111.708C192.468 109.829 192.126 107.437 191.955 105.557C191.955 104.874 191.783 104.19 191.783 103.507C192.639 104.19 193.667 104.703 194.865 104.874C196.577 105.386 198.632 106.07 200.344 105.557C200.687 105.386 200.687 105.045 200.344 104.874C199.83 104.361 199.317 103.848 198.803 103.507C199.146 103.678 199.659 103.848 200.002 104.019C202.228 104.703 204.796 105.728 207.022 105.386C207.364 105.386 207.364 104.874 207.193 104.703C206.508 104.019 205.481 103.678 204.625 103.165C208.049 104.361 211.644 104.703 215.24 104.361C215.582 104.361 215.582 104.019 215.411 103.848C214.897 103.165 214.726 103.336 214.041 102.823C212.329 101.627 210.617 100.431 209.076 99.0641C208.734 98.7224 208.22 98.3807 207.878 98.0389C210.446 99.0641 213.185 99.7476 215.754 99.5767C216.61 99.4059 216.267 98.8933 216.096 98.7224ZM189.215 105.386C188.188 104.703 187.161 103.848 186.133 103.165C186.304 102.994 186.476 102.823 186.647 102.652C187.332 102.823 188.017 102.994 188.53 102.994C188.701 103.165 188.873 103.336 189.044 103.678C189.215 103.848 189.215 103.848 189.386 104.019C189.386 104.532 189.386 105.045 189.215 105.386C189.215 105.386 189.215 105.557 189.215 105.386Z" fill="#F9D1D1" fill-opacity="0.6"/>
<g filter="url(#filter7_d)">
<path d="M177.144 118.055C176.061 117.3 175.01 116.413 174.058 115.527C178.655 116.61 175.634 112.309 175.634 112.309C181.051 112.539 177.144 109.354 177.144 109.354C173.434 106.728 169.921 102.525 169.921 102.525C173.631 103.444 171.431 100.49 171.431 100.49C176.258 101.869 172.449 98.5525 172.449 98.5525C170.151 96.7467 167.426 92.971 167.426 92.971C171.136 94.4484 169.035 91.7234 169.035 91.7234C173.27 93.1023 169.823 89.9176 169.823 89.9176C164.832 85.4196 162.37 80.4619 161.516 78.4263C161.483 78.295 161.385 78.1637 161.352 77.9995C161.319 78.0323 161.253 78.098 161.253 78.1308C161.253 78.098 161.188 78.0323 161.155 77.9995C161.089 78.1637 161.024 78.295 160.958 78.4592C160.104 80.4948 157.642 85.4524 152.684 89.9176C152.684 89.9176 149.27 93.1023 153.472 91.7234C153.472 91.7234 151.371 94.4484 155.081 92.971C155.081 92.971 152.356 96.7139 150.058 98.5525C150.058 98.5525 146.249 101.869 151.075 100.49C151.075 100.49 148.876 103.444 152.586 102.525C152.586 102.525 149.073 106.728 145.363 109.354C145.363 109.354 141.456 112.539 146.873 112.309C146.873 112.309 143.852 116.61 148.449 115.527C147.497 116.413 146.446 117.3 145.363 118.055C145.363 118.055 141.456 121.24 146.873 121.01C146.873 121.01 143.36 126 149.697 123.833C149.697 123.833 146.38 128.495 153.505 126.099C153.505 126.099 151.305 130.203 156.92 127.478C156.92 127.478 156.427 128.988 156.591 129.316H157.576C157.806 129.316 158.233 129.119 158.89 128.824V135.554H164.143V128.758C164.471 129.086 164.734 129.316 164.963 129.316H165.948C166.113 128.988 165.62 127.478 165.62 127.478C171.234 130.203 169.035 126.066 169.035 126.066C176.159 128.463 172.843 123.8 172.843 123.8C179.18 125.967 175.667 120.977 175.667 120.977C181.051 121.207 177.144 118.055 177.144 118.055Z" fill="#F9D1D1" fill-opacity="0.6"/>
</g>
<path d="M177.144 118.382C176.061 117.627 175.01 116.741 174.058 115.854C178.654 116.938 175.634 112.637 175.634 112.637C181.051 112.866 177.144 109.682 177.144 109.682C173.434 107.055 169.921 102.853 169.921 102.853C173.631 103.772 171.431 100.817 171.431 100.817C176.258 102.196 172.449 98.8799 172.449 98.8799C170.151 97.0741 167.426 93.2984 167.426 93.2984C171.136 94.7758 169.035 92.0508 169.035 92.0508C173.27 93.4297 169.823 90.245 169.823 90.245C164.832 85.747 162.37 80.7893 161.516 78.7537C161.483 78.6224 161.385 78.4911 161.352 78.3269C161.319 78.3597 161.253 78.4254 161.253 78.4582C161.253 78.4254 161.188 78.3597 161.155 78.3269C161.089 78.4911 161.024 78.6224 160.958 78.7866C160.104 80.8222 157.642 85.7798 152.684 90.245C152.684 90.245 149.27 93.4297 153.472 92.0508C153.472 92.0508 151.371 94.7758 155.081 93.2984C155.081 93.2984 152.356 97.0413 150.058 98.8799C150.058 98.8799 146.249 102.196 151.075 100.817C151.075 100.817 148.876 103.772 152.586 102.853C152.586 102.853 149.073 107.055 145.363 109.682C145.363 109.682 141.456 112.866 146.873 112.637C146.873 112.637 143.852 116.938 148.449 115.854C147.497 116.741 146.446 117.627 145.363 118.382C145.363 118.382 141.456 121.567 146.873 121.337C146.873 121.337 143.36 126.328 149.696 124.161C149.696 124.161 146.38 128.823 153.505 126.426C153.505 126.426 151.305 130.53 156.92 127.805C156.92 127.805 156.427 129.315 156.591 129.644H157.576C157.806 129.644 158.233 129.447 158.89 129.151V135.882H164.143V129.085C164.471 129.414 164.734 129.644 164.963 129.644H165.948C166.113 129.315 165.62 127.805 165.62 127.805C171.234 130.53 169.035 126.393 169.035 126.393C176.159 128.79 172.843 124.128 172.843 124.128C179.18 126.295 175.667 121.304 175.667 121.304C181.051 121.534 177.144 118.382 177.144 118.382Z" fill="#F9D1D1" fill-opacity="0.6"/>
<g filter="url(#filter8_dd)">
<path d="M161.198 134.476C161.005 134.284 161.006 134.284 160.813 134.284C159.274 133.324 157.542 132.555 156.002 131.403C153.885 129.675 151.768 127.946 149.651 126.026C149.267 125.642 148.689 125.257 148.304 124.681C148.882 125.257 149.459 125.642 150.036 125.834C150.614 126.026 151.191 126.41 151.768 126.41C153.308 126.794 154.655 127.178 156.387 126.794H156.579C156.579 126.794 156.579 126.794 156.579 126.602C156.579 126.41 156.579 126.41 156.579 126.218C155.617 124.681 153.5 123.721 152.346 122.377C150.229 120.264 148.112 118.344 146.38 115.847C145.61 114.695 144.648 113.542 143.878 112.39C143.878 112.39 143.878 112.39 144.071 112.39C144.263 112.39 144.648 112.582 144.84 112.774C145.225 112.966 145.418 112.966 145.225 112.966C146.765 113.734 148.112 114.311 149.844 114.311H150.036C150.036 114.311 150.036 114.119 149.844 114.119C146.38 111.046 143.301 107.781 140.414 104.132C139.644 103.172 138.875 102.211 138.297 101.251C137.72 100.291 138.49 101.059 138.875 101.443C138.875 101.443 138.875 101.443 139.067 101.443C140.222 102.211 140.991 102.787 142.339 102.98C142.339 102.98 142.339 102.98 142.531 102.98C142.723 102.98 142.723 102.787 142.531 102.595C139.644 97.9862 136.758 93.3769 135.026 88.1916C135.026 87.9995 134.833 87.9995 134.833 87.9995L134.641 88.1916C133.679 90.8803 132.332 93.3769 130.984 95.8736C130.022 97.41 129.06 99.1385 128.098 100.675C127.713 101.251 127.328 101.827 126.943 102.595C126.943 102.787 126.943 102.98 127.136 102.98C128.483 102.787 129.253 102.211 130.407 101.443C130.792 101.251 131.754 100.099 131.177 101.251C130.6 102.403 129.83 103.364 129.06 104.132C126.173 107.781 123.094 111.046 119.63 114.119C119.438 114.311 119.438 114.503 119.823 114.503C121.555 114.503 122.902 113.734 124.441 113.158C124.249 113.35 125.981 112.39 125.981 112.582C125.211 113.734 124.249 114.887 123.479 116.039C122.517 117.383 121.362 118.728 120.208 119.88C119.438 118.92 118.668 118.152 117.898 117.191C117.321 116.615 116.744 115.847 116.359 115.079C116.166 114.503 116.166 114.695 116.551 114.887L116.744 115.079L116.936 115.271C117.706 115.847 118.283 116.231 119.246 116.423V116.231C117.321 112.966 115.204 109.701 113.857 106.052C113.857 106.052 113.857 105.86 113.665 105.86C113.665 105.86 113.472 105.86 113.472 106.052C112.702 107.973 111.74 109.893 110.778 111.622C109.816 113.158 109.046 114.695 108.084 116.231C108.084 116.423 108.084 116.615 108.276 116.423C109.239 116.231 109.816 115.847 110.586 115.271C110.97 115.079 111.548 114.311 111.163 115.079C110.393 115.847 110.008 116.423 109.431 117.191C107.314 119.88 105.197 122.185 102.695 124.297C102.503 124.489 102.503 124.681 102.695 124.681C103.85 124.681 105.005 124.105 105.967 123.721C105.775 123.721 107.122 123.145 106.929 123.337C106.352 124.105 105.775 125.065 105.197 125.834C104.235 127.37 102.695 128.906 101.156 130.251C100.194 131.019 98.8466 131.787 98.0769 132.94C98.0769 133.132 98.0769 133.324 98.2693 133.324C99.424 133.708 100.386 133.516 101.541 133.132C101.926 132.94 102.503 132.747 102.695 132.747C103.08 132.555 103.658 132.363 104.043 131.979C103.658 132.363 103.465 132.555 103.08 132.94C101.733 134.284 100.194 135.628 98.6542 136.781C97.4995 137.549 96.1524 138.125 94.9978 139.085C94.8053 139.277 94.6129 139.661 94.9978 139.661C97.1147 139.661 99.2315 139.277 101.348 138.317C100.963 138.701 100.771 138.893 100.386 139.277C99.2315 140.43 97.8844 141.198 96.3449 142.158C95.7676 142.542 95.5751 142.542 95.1902 142.926C94.9978 143.118 94.9978 143.31 95.3827 143.31C98.2693 143.694 101.156 143.31 103.85 142.35C103.273 142.926 102.311 143.118 101.733 143.694C101.541 143.886 101.541 144.271 101.733 144.271C102.503 144.463 103.273 144.271 104.043 144.079C106.159 143.886 108.276 142.926 109.431 141.006C109.816 141.582 110.201 142.158 110.778 142.734C110.778 142.734 110.97 142.926 110.97 143.118C110.778 145.231 110.778 147.151 111.355 148.88C111.548 149.456 112.702 150.032 113.087 149.264C113.665 147.728 113.28 145.807 113.28 144.271C113.28 143.694 113.28 143.118 113.087 142.734C113.857 143.31 114.627 143.694 115.397 143.886C116.744 144.271 118.476 144.847 119.823 144.463C120.015 144.463 120.015 144.079 119.823 143.886C119.438 143.502 119.053 143.118 118.668 142.734C119.053 142.926 119.246 142.926 119.63 143.118C121.362 143.694 123.479 144.463 125.211 144.271C125.596 144.271 125.404 143.886 125.211 143.694C124.634 143.118 123.864 142.926 123.094 142.35C125.596 143.118 128.098 143.502 130.792 143.31C130.792 145.231 130.792 146.959 131.369 148.496C131.562 149.264 133.294 150.224 133.871 149.072C134.641 146.959 134.256 144.271 134.064 142.158C134.064 141.39 133.871 140.622 133.871 139.853C134.833 140.622 135.988 141.198 137.335 141.39C139.26 141.966 141.569 142.734 143.493 142.158C143.878 141.966 143.878 141.582 143.493 141.39C142.916 140.814 142.339 140.238 141.761 139.853C142.146 140.045 142.723 140.237 143.108 140.43C145.61 141.198 148.497 142.35 150.998 141.966C151.383 141.966 151.383 141.39 151.191 141.198C150.421 140.43 149.267 140.045 148.304 139.469C152.153 140.814 156.194 141.198 160.236 140.814C160.621 140.814 160.621 140.43 160.428 140.238C159.851 139.469 159.658 139.661 158.889 139.085C156.964 137.741 155.04 136.396 153.308 134.86C152.923 134.476 152.346 134.092 151.961 133.708C154.847 134.86 157.926 135.628 160.813 135.436C161.775 135.244 161.39 134.668 161.198 134.476ZM130.984 141.966C129.83 141.198 128.675 140.237 127.521 139.469C127.713 139.277 127.905 139.085 128.098 138.893C128.868 139.085 129.637 139.277 130.215 139.277C130.407 139.469 130.6 139.661 130.792 140.045C130.984 140.237 130.985 140.237 131.177 140.43C131.177 141.006 131.177 141.582 130.984 141.966C130.984 141.966 130.984 142.158 130.984 141.966Z" fill="#F9D1D1" fill-opacity="0.6"/>
</g>
<path d="M160.422 135.05C160.23 134.858 160.23 134.858 160.037 134.858C158.498 133.898 156.766 133.13 155.226 131.978C153.11 130.249 150.993 128.521 148.876 126.6C148.491 126.216 147.914 125.832 147.529 125.256C148.106 125.832 148.683 126.216 149.261 126.408C149.838 126.6 150.415 126.984 150.993 126.984C152.532 127.368 153.879 127.752 155.611 127.368H155.804C155.804 127.368 155.804 127.368 155.804 127.176C155.804 126.984 155.804 126.984 155.804 126.792C154.842 125.256 152.725 124.296 151.57 122.951C149.453 120.839 147.336 118.918 145.604 116.421C144.835 115.269 143.872 114.117 143.103 112.965C143.103 112.965 143.103 112.965 143.295 112.965C143.487 112.965 143.872 113.157 144.065 113.349C144.45 113.541 144.642 113.541 144.45 113.541C145.989 114.309 147.336 114.885 149.068 114.885H149.261C149.261 114.885 149.261 114.693 149.068 114.693C145.604 111.62 142.525 108.355 139.639 104.706C138.869 103.746 138.099 102.786 137.522 101.826C136.944 100.865 137.714 101.633 138.099 102.018C138.099 102.018 138.099 102.018 138.292 102.018C139.446 102.786 140.216 103.362 141.563 103.554C141.563 103.554 141.563 103.554 141.755 103.554C141.948 103.554 141.948 103.362 141.755 103.17C138.869 98.5606 135.982 93.9514 134.25 88.766C134.25 88.574 134.058 88.574 134.058 88.574L133.865 88.766C132.903 91.4547 131.556 93.9514 130.209 96.4481C129.247 97.9845 128.285 99.713 127.322 101.249C126.937 101.826 126.553 102.402 126.168 103.17C126.168 103.362 126.168 103.554 126.36 103.554C127.707 103.362 128.477 102.786 129.632 102.018C130.016 101.826 130.979 100.673 130.401 101.826C129.824 102.978 129.054 103.938 128.285 104.706C125.398 108.355 122.319 111.62 118.855 114.693C118.662 114.885 118.662 115.077 119.047 115.077C120.779 115.077 122.126 114.309 123.666 113.733C123.473 113.925 125.205 112.965 125.205 113.157C124.436 114.309 123.473 115.461 122.704 116.613C121.741 117.958 120.587 119.302 119.432 120.455C118.662 119.494 117.893 118.726 117.123 117.766C116.546 117.19 115.968 116.421 115.583 115.653C115.391 115.077 115.391 115.269 115.776 115.461L115.968 115.653L116.161 115.845C116.93 116.421 117.508 116.806 118.47 116.998V116.806C116.546 113.541 114.429 110.276 113.082 106.627C113.082 106.627 113.082 106.435 112.889 106.435C112.889 106.435 112.697 106.435 112.697 106.627C111.927 108.547 110.965 110.468 110.002 112.196C109.04 113.733 108.271 115.269 107.308 116.806C107.308 116.998 107.308 117.19 107.501 116.998C108.463 116.806 109.04 116.421 109.81 115.845C110.195 115.653 110.772 114.885 110.387 115.653C109.618 116.421 109.233 116.998 108.655 117.766C106.539 120.455 104.422 122.759 101.92 124.872C101.727 125.064 101.727 125.256 101.92 125.256C103.075 125.256 104.229 124.68 105.191 124.296C104.999 124.296 106.346 123.719 106.154 123.911C105.576 124.68 104.999 125.64 104.422 126.408C103.459 127.945 101.92 129.481 100.38 130.825C99.4182 131.593 98.0711 132.362 97.3013 133.514C97.3013 133.706 97.3013 133.898 97.4937 133.898C98.6484 134.282 99.6106 134.09 100.765 133.706C101.15 133.514 101.727 133.322 101.92 133.322C102.305 133.13 102.882 132.938 103.267 132.554C102.882 132.938 102.69 133.13 102.305 133.514C100.958 134.858 99.4182 136.203 97.8786 137.355C96.724 138.123 95.3769 138.699 94.2222 139.66C94.0298 139.852 93.8373 140.236 94.2222 140.236C96.3391 140.236 98.4559 139.852 100.573 138.891C100.188 139.276 99.9955 139.468 99.6106 139.852C98.4559 141.004 97.1088 141.772 95.5693 142.732C94.992 143.117 94.7995 143.117 94.4147 143.501C94.2222 143.693 94.2222 143.885 94.6071 143.885C97.4937 144.269 100.38 143.885 103.075 142.925C102.497 143.501 101.535 143.693 100.958 144.269C100.765 144.461 100.765 144.845 100.958 144.845C101.727 145.037 102.497 144.845 103.267 144.653C105.384 144.461 107.501 143.501 108.655 141.58C109.04 142.156 109.425 142.732 110.002 143.309C110.002 143.309 110.195 143.501 110.195 143.693C110.002 145.805 110.002 147.726 110.58 149.454C110.772 150.03 111.927 150.607 112.312 149.838C112.889 148.302 112.504 146.381 112.504 144.845C112.504 144.269 112.504 143.693 112.312 143.309C113.082 143.885 113.851 144.269 114.621 144.461C115.968 144.845 117.7 145.421 119.047 145.037C119.24 145.037 119.24 144.653 119.047 144.461C118.662 144.077 118.278 143.693 117.893 143.309C118.278 143.501 118.47 143.501 118.855 143.693C120.587 144.269 122.704 145.037 124.436 144.845C124.821 144.845 124.628 144.461 124.436 144.269C123.858 143.693 123.089 143.501 122.319 142.925C124.821 143.693 127.322 144.077 130.016 143.885C130.016 145.805 130.016 147.534 130.594 149.07C130.786 149.838 132.518 150.799 133.096 149.646C133.865 147.534 133.48 144.845 133.288 142.732C133.288 141.964 133.096 141.196 133.096 140.428C134.058 141.196 135.212 141.772 136.56 141.964C138.484 142.54 140.793 143.309 142.718 142.732C143.103 142.54 143.103 142.156 142.718 141.964C142.14 141.388 141.563 140.812 140.986 140.428C141.371 140.62 141.948 140.812 142.333 141.004C144.835 141.772 147.721 142.925 150.223 142.54C150.608 142.54 150.608 141.964 150.415 141.772C149.646 141.004 148.491 140.62 147.529 140.044C151.378 141.388 155.419 141.772 159.46 141.388C159.845 141.388 159.845 141.004 159.653 140.812C159.075 140.044 158.883 140.236 158.113 139.66C156.189 138.315 154.264 136.971 152.532 135.435C152.147 135.05 151.57 134.666 151.185 134.282C154.072 135.435 157.151 136.203 160.037 136.011C161 135.819 160.615 135.242 160.422 135.05ZM130.209 142.54C129.054 141.772 127.9 140.812 126.745 140.044C126.937 139.852 127.13 139.66 127.322 139.468C128.092 139.66 128.862 139.852 129.439 139.852C129.632 140.044 129.824 140.236 130.016 140.62C130.209 140.812 130.209 140.812 130.401 141.004C130.401 141.58 130.401 142.156 130.209 142.54C130.209 142.54 130.209 142.732 130.209 142.54Z" fill="#F9D1D1" fill-opacity="0.6"/>
<g filter="url(#filter9_dd)">
<path d="M65.2091 149.788C63.96 151.151 65.4362 151.208 65.8337 151.321C64.9252 152.911 65.8337 154.16 67.1964 153.479C66.7989 155.125 69.1837 154.103 69.1837 154.103C69.0134 155.182 69.8083 156.091 70.8303 156.488H70.8871C71.0006 156.545 71.0574 156.545 71.171 156.602C71.2278 156.602 71.2278 156.602 71.2845 156.602C71.3981 156.602 71.4549 156.659 71.5684 156.659C71.6252 156.659 71.6252 156.659 71.682 156.659C71.7388 156.659 71.8523 156.659 71.9091 156.659C71.9659 156.659 72.0227 156.659 72.0795 156.659C72.1362 156.659 72.193 156.659 72.3066 156.659C72.3634 156.659 72.4201 156.659 72.4769 156.602C72.5337 156.602 72.5905 156.602 72.6473 156.545C72.704 156.545 72.7608 156.488 72.8176 156.431C72.8744 156.431 72.8744 156.375 72.9312 156.375C72.9879 156.318 73.0447 156.261 73.1583 156.204L73.2151 156.148C73.2718 156.091 73.3854 155.977 73.4422 155.864C73.7829 157.51 75.3727 156.602 75.3727 156.602C75.3727 156.715 75.4295 156.829 75.4862 156.942C75.2023 156.942 74.1235 156.999 74.0668 158.248C73.9532 159.725 75.7701 159.895 75.7701 159.895C75.7701 159.895 75.543 160.065 75.3727 160.292C75.3159 160.349 75.2591 160.406 75.2591 160.52C75.2591 160.52 75.2591 160.52 75.2591 160.576V160.633V160.69V160.747V160.803V160.86V160.917C75.2591 160.917 75.2591 160.974 75.3159 160.974C75.3159 160.974 75.3727 161.031 75.3727 161.087L75.4295 161.144C75.4295 161.201 75.4862 161.201 75.543 161.258L75.5998 161.314C75.6566 161.371 75.7701 161.428 75.8269 161.485C75.3159 161.882 75.7701 163.018 77.36 162.791C77.2464 163.302 78.2117 163.472 78.5524 162.848C78.7795 163.472 80.0854 163.813 80.8803 163.302C81.1074 163.813 81.9024 163.642 82.243 163.075C82.8108 163.756 85.2524 164.267 85.4227 162.507C85.5363 162.507 85.6498 162.507 85.8202 162.507C85.8769 162.507 85.8769 162.507 85.9337 162.507C86.0473 162.507 86.1608 162.507 86.2744 162.564C86.3312 162.564 86.3879 162.564 86.5015 162.62C86.5015 162.62 86.5015 162.62 86.5583 162.62C86.6718 162.62 86.8422 162.677 86.9557 162.677C87.0693 162.677 87.1261 162.734 87.2396 162.734C87.7507 162.848 88.2617 163.075 88.7727 163.302C88.7727 163.302 88.7727 163.302 88.8295 163.302C88.9998 163.359 89.1702 163.472 89.2837 163.586C89.7947 163.926 90.249 164.324 90.4761 164.835C90.5329 164.948 90.5896 165.005 90.5896 165.119C90.8168 165.687 91.0439 166.595 91.2142 167.674C91.271 167.958 91.271 168.185 91.3278 168.469C91.3278 168.525 91.3278 168.639 91.3846 168.696C91.3846 168.923 91.4413 169.093 91.4413 169.32C91.4413 169.434 91.4413 169.491 91.4981 169.604C91.4981 169.888 91.5549 170.172 91.5549 170.456C91.5549 170.513 91.5549 170.626 91.5549 170.683C91.5549 170.91 91.5549 171.137 91.6117 171.364C91.6117 171.478 91.6117 171.592 91.6117 171.705C91.6117 171.932 91.6117 172.103 91.6117 172.33C91.6117 172.443 91.6117 172.5 91.6117 172.614C91.6117 172.898 91.6117 173.181 91.6117 173.465C91.6117 173.579 91.6117 173.636 91.6117 173.749C91.6117 173.976 91.6117 174.147 91.5549 174.374C91.5549 174.487 91.5549 174.544 91.5549 174.658C91.4981 174.942 91.4981 175.226 91.4413 175.453C91.4413 175.453 91.3278 176.134 94.2236 176.02C97.1193 175.907 98.5956 175.737 98.3117 174.998C98.0278 174.26 97.46 172.784 97.2897 171.648C97.1193 170.513 96.4947 166.822 96.6651 163.926C96.8354 161.031 98.3117 158.475 100.583 157.681C101.264 157.453 101.889 157.283 102.513 157.113C103.252 158.021 105.239 158.419 105.92 157.283C106.261 157.737 106.829 157.113 106.829 157.113C106.829 157.737 107.964 158.021 108.929 157.226C109.668 158.816 114.096 159.1 113.131 155.637C114.04 155.864 114.494 155.296 114.267 154.842C114.891 155.353 115.8 154.558 114.835 153.649C116.992 154.387 118.525 152.116 118.128 151.151C118.071 151.037 118.014 150.981 117.957 150.867C117.957 150.867 117.957 150.81 117.901 150.81C117.844 150.753 117.787 150.697 117.73 150.583L117.674 150.526C117.617 150.47 117.503 150.413 117.446 150.356L117.39 150.299C117.333 150.242 117.276 150.242 117.163 150.186C117.106 150.186 117.106 150.129 117.049 150.129C116.992 150.129 116.935 150.072 116.879 150.072C116.822 150.072 116.822 150.072 116.765 150.015C116.708 150.015 116.652 149.959 116.538 149.959C116.481 149.959 116.481 149.959 116.424 149.902C116.368 149.902 116.311 149.902 116.311 149.845C116.254 149.845 116.197 149.845 116.197 149.788H116.141C116.084 149.788 116.084 149.788 116.084 149.788C116.084 149.788 118.071 148.312 115.857 147.176C116.197 146.722 116.311 145.984 116.027 145.359C116.027 145.359 116.027 145.303 115.97 145.303C115.913 145.246 115.913 145.189 115.857 145.075L115.8 145.019C115.743 144.962 115.686 144.905 115.63 144.848C115.573 144.848 115.573 144.792 115.516 144.792C115.459 144.735 115.402 144.678 115.346 144.678C115.289 144.678 115.289 144.621 115.232 144.621C115.175 144.564 115.118 144.564 115.005 144.508C114.948 144.508 114.891 144.451 114.835 144.451C114.778 144.451 114.664 144.394 114.551 144.394C114.494 144.394 114.437 144.394 114.38 144.337C114.267 144.337 114.153 144.337 114.04 144.337C113.983 144.337 113.926 144.337 113.869 144.337C113.756 144.337 113.585 144.337 113.415 144.394C113.358 144.394 113.302 144.394 113.245 144.394C113.018 144.451 112.791 144.451 112.563 144.508C112.45 144.224 112.109 144.11 112.109 144.11C113.018 143.656 111.712 141.725 109.611 143.031C109.554 142.804 109.497 142.634 109.441 142.464C111.371 143.088 116.141 139.568 112.45 136.615C114.267 134.798 113.074 130.994 109.327 130.71C109.611 130.142 108.816 129.915 108.816 129.915C108.816 129.915 109.554 127.02 106.261 126.565C106.204 126.168 105.92 125.6 105.92 125.6C105.92 125.6 106.034 122.818 103.763 121.796C103.649 121.739 103.479 121.682 103.365 121.625C103.308 121.625 103.308 121.625 103.252 121.569C103.138 121.569 103.081 121.512 102.968 121.512C102.911 121.512 102.911 121.512 102.854 121.512C102.741 121.512 102.684 121.455 102.57 121.455H102.513C102.4 121.455 102.286 121.455 102.173 121.455C102.116 121.455 102.116 121.455 102.059 121.455C102.002 121.455 101.889 121.455 101.832 121.455C101.775 121.455 101.775 121.455 101.718 121.455C101.662 121.455 101.548 121.455 101.491 121.512H101.435C100.469 121.739 99.8447 122.364 99.8447 122.364C99.1634 121.058 97.8007 121.682 97.8007 121.682C97.5736 120.32 95.9837 119.695 95.1888 121.001C95.1888 121.001 94.3939 119.014 92.5769 120.32C91.5549 119.241 89.7947 119.809 89.3973 120.376C89.5676 118.332 84.7981 118.389 85.0252 121.739C83.7761 121.285 82.9812 121.966 82.754 122.704C82.0159 121.569 81.221 123.499 81.221 123.499C79.3473 121.853 76.2244 125.259 79.0634 127.417C77.5303 127.701 78.3252 128.95 78.3252 128.95C77.0193 128.553 77.1329 129.688 77.1329 129.688C75.2591 129.177 73.3854 131.448 76.3379 133.72C74.8049 134.06 75.0888 135.593 75.7134 135.764C74.2939 135.82 75.1456 137.524 75.9973 137.694C75.5998 137.864 75.3727 138.092 75.2023 138.262C75.1456 138.262 75.1456 138.262 75.0888 138.262C75.032 138.262 74.9752 138.262 74.9184 138.262C74.8617 138.262 74.8617 138.262 74.8049 138.262C74.7481 138.262 74.6913 138.262 74.5778 138.262H74.521C74.4642 138.262 74.4074 138.262 74.2939 138.319H74.2371C73.5557 138.489 72.9312 139.057 72.8744 139.681C71.9659 137.694 67.31 138.489 68.1049 141.896C66.5718 141.328 66.2312 142.464 66.3447 143.145C64.8684 142.407 62.7676 144.735 64.9252 146.438C63.3922 147.517 63.96 149.731 65.2091 149.788ZM90.9871 161.882C90.9871 161.996 90.9871 162.166 90.9871 162.28C90.9871 162.337 90.9871 162.393 90.9871 162.507C90.9871 162.677 90.9871 162.848 91.0439 162.961C91.2142 163.983 90.8735 164.153 90.3057 163.699C89.738 163.188 88.7159 162.223 87.8642 161.655C87.6939 161.542 87.5235 161.371 87.2964 161.201C87.2964 161.087 87.3532 161.031 87.2964 160.917C87.2964 160.917 88.7727 160.236 88.3752 158.93C87.9778 157.624 86.0473 157.908 85.7066 158.078C86.2176 156.886 85.1388 156.375 84.571 156.602C84.571 156.204 84.3439 156.204 84.1735 156.261C84.2871 155.977 84.1735 155.693 83.9464 155.466C83.8896 155.409 83.8896 155.409 83.8329 155.353C83.8329 155.353 83.8329 155.353 83.7761 155.353C83.7193 155.353 83.7193 155.296 83.6625 155.296C83.6625 155.296 83.6057 155.296 83.6057 155.239C83.6057 155.239 83.549 155.239 83.549 155.182C83.4922 155.182 83.4922 155.182 83.4354 155.125H83.3786C83.3218 155.125 83.2651 155.125 83.2651 155.125C83.2083 155.125 83.1515 155.125 83.0947 155.125C83.0379 155.125 82.9812 155.125 82.9244 155.182C82.8108 155.239 82.6973 155.296 82.5837 155.353C82.5269 155.409 82.4701 155.409 82.4134 155.466C82.4134 155.466 82.4134 155.466 82.3566 155.523C82.3566 155.523 82.2998 155.523 82.2998 155.466C82.2998 155.466 82.2998 155.466 82.2998 155.409C82.2998 155.353 82.3566 155.296 82.3566 155.296V155.239C82.3566 155.182 82.3566 155.125 82.3566 155.069V155.012C82.3566 154.955 82.3566 154.898 82.2998 154.842C83.3218 155.182 84.5142 154.671 85.1388 153.763C86.2744 154.614 87.2396 155.353 88.0346 155.864C89.4541 156.772 90.249 158.248 90.5896 159.27C90.9871 159.895 90.9871 160.974 90.9871 161.882ZM93.9964 152.003C93.9964 152.003 93.9964 152.059 93.9964 152.003C93.8829 152.116 93.8829 152.173 93.8261 152.173C93.8261 152.173 93.8261 152.173 93.7693 152.173C93.7125 152.173 93.7125 152.23 93.6558 152.23C93.2583 152.287 93.3719 150.299 93.4854 148.539C93.9964 148.369 94.5074 148.142 94.8481 147.914C94.9617 148.425 95.2456 148.766 95.5863 149.05C95.0752 150.299 94.4507 151.492 93.9964 152.003ZM90.7032 155.409C90.7032 155.466 90.7032 155.466 90.6464 155.523C90.6464 155.58 90.5896 155.58 90.5896 155.58C90.5896 155.58 90.5896 155.637 90.5329 155.637C90.4761 155.637 90.4193 155.693 90.3625 155.637C89.7947 155.523 87.5235 154.274 86.5583 153.309C86.1608 152.968 85.8769 152.627 85.593 152.343C85.593 152.23 85.593 152.173 85.593 152.059C85.593 152.059 89.3405 151.094 86.9557 148.653C87.0125 148.425 87.0125 148.255 86.899 148.085C87.4668 148.142 88.1481 147.744 88.4888 147.517C89.4541 149.22 90.0219 150.981 90.3057 152.627C90.3625 153.025 90.4193 153.422 90.4761 153.763C90.4761 153.82 90.4761 153.876 90.5329 153.933C90.5329 153.99 90.5329 154.103 90.5896 154.16C90.6464 154.331 90.6464 154.501 90.6464 154.671C90.6464 154.728 90.6464 154.728 90.6464 154.785C90.6464 154.842 90.6464 154.898 90.6464 154.955C90.6464 155.012 90.6464 155.069 90.6464 155.069C90.6464 155.125 90.6464 155.182 90.6464 155.182C90.7032 155.353 90.7032 155.409 90.7032 155.409ZM86.1608 147.46C86.1041 147.46 86.1041 147.46 86.1608 147.46C86.1041 147.46 86.1041 147.46 86.1608 147.46C86.1608 147.46 86.1041 147.46 86.1608 147.46ZM92.1795 151.548C92.1227 151.605 92.1227 151.605 92.0659 151.605C92.0091 151.605 92.0091 151.605 91.9524 151.605C91.5549 151.492 91.1007 150.242 90.9303 149.561C90.8735 149.391 90.76 149.107 90.6464 148.88C91.271 148.936 91.8956 148.937 92.5769 148.823C92.4634 150.526 92.4066 151.321 92.1795 151.548ZM97.1193 157.226C97.0058 157.283 96.949 157.34 96.8354 157.397C96.8354 157.397 96.8354 157.397 96.7786 157.397C96.7219 157.453 96.6651 157.453 96.6083 157.453C96.5515 157.453 96.5515 157.453 96.4947 157.397C96.2676 157.056 96.3812 155.296 96.2108 153.706C96.1541 152.968 96.1541 152.23 96.2108 151.548C96.2676 151.605 96.2676 151.662 96.3244 151.662C96.6083 152.003 96.8922 152.116 97.1761 152.116C97.2329 152.116 97.3464 152.116 97.4032 152.116C97.46 152.116 97.5168 152.116 97.5736 152.059C97.6871 152.003 97.7439 152.003 97.7439 152.003C97.7439 152.003 96.7786 154.331 99.4473 154.103C99.4473 154.558 99.9015 154.785 100.299 154.842C99.1066 155.636 98.1413 156.431 97.46 156.942C97.3464 157.113 97.2329 157.17 97.1193 157.226ZM100.583 156.886C100.753 156.602 100.924 156.318 101.094 156.034C101.207 156.318 101.378 156.602 101.662 156.772C101.264 156.886 100.867 156.942 100.583 156.886Z" fill="#F9D1D1" fill-opacity="0.6"/>
</g>
<path d="M65.2091 150.356C63.9599 151.719 65.4362 151.776 65.8337 151.889C64.9252 153.479 65.8337 154.728 67.1964 154.047C66.7989 155.693 69.1837 154.671 69.1837 154.671C69.0133 155.75 69.8082 156.659 70.8303 157.056H70.8871C71.0006 157.113 71.0574 157.113 71.171 157.17C71.2277 157.17 71.2277 157.17 71.2845 157.17C71.3981 157.17 71.4549 157.226 71.5684 157.226C71.6252 157.226 71.6252 157.226 71.682 157.226C71.7388 157.226 71.8523 157.226 71.9091 157.226C71.9659 157.226 72.0227 157.226 72.0794 157.226C72.1362 157.226 72.193 157.226 72.3066 157.226C72.3633 157.226 72.4201 157.226 72.4769 157.17C72.5337 157.17 72.5904 157.17 72.6472 157.113C72.704 157.113 72.7608 157.056 72.8176 156.999C72.8743 156.999 72.8743 156.943 72.9311 156.943C72.9879 156.886 73.0447 156.829 73.1582 156.772L73.215 156.715C73.2718 156.659 73.3854 156.545 73.4421 156.431C73.7828 158.078 75.3727 157.17 75.3727 157.17C75.3727 157.283 75.4294 157.397 75.4862 157.51C75.2023 157.51 74.1235 157.567 74.0667 158.816C73.9532 160.293 75.7701 160.463 75.7701 160.463C75.7701 160.463 75.543 160.633 75.3727 160.86C75.3159 160.917 75.2591 160.974 75.2591 161.087C75.2591 161.087 75.2591 161.087 75.2591 161.144V161.201V161.258V161.315V161.371V161.428V161.485C75.2591 161.485 75.2591 161.542 75.3159 161.542C75.3159 161.542 75.3727 161.598 75.3727 161.655L75.4294 161.712C75.4294 161.769 75.4862 161.769 75.543 161.826L75.5998 161.882C75.6566 161.939 75.7701 161.996 75.8269 162.053C75.3159 162.45 75.7701 163.586 77.3599 163.359C77.2464 163.87 78.2116 164.04 78.5523 163.415C78.7794 164.04 80.0854 164.381 80.8803 163.87C81.1074 164.381 81.9023 164.21 82.243 163.643C82.8108 164.324 85.2523 164.835 85.4227 163.075C85.5362 163.075 85.6498 163.075 85.8201 163.075C85.8769 163.075 85.8769 163.075 85.9337 163.075C86.0472 163.075 86.1608 163.075 86.2744 163.131C86.3311 163.131 86.3879 163.131 86.5015 163.188C86.5015 163.188 86.5015 163.188 86.5583 163.188C86.6718 163.188 86.8422 163.245 86.9557 163.245C87.0693 163.245 87.1261 163.302 87.2396 163.302C87.7506 163.415 88.2616 163.643 88.7727 163.87C88.7727 163.87 88.7727 163.87 88.8294 163.87C88.9998 163.926 89.1701 164.04 89.2837 164.154C89.7947 164.494 90.2489 164.892 90.4761 165.403C90.5328 165.516 90.5896 165.573 90.5896 165.687C90.8167 166.254 91.0439 167.163 91.2142 168.242C91.271 168.526 91.271 168.753 91.3278 169.037C91.3278 169.093 91.3278 169.207 91.3845 169.264C91.3845 169.491 91.4413 169.661 91.4413 169.888C91.4413 170.002 91.4413 170.059 91.4981 170.172C91.4981 170.456 91.5549 170.74 91.5549 171.024C91.5549 171.081 91.5549 171.194 91.5549 171.251C91.5549 171.478 91.5549 171.705 91.6117 171.932C91.6117 172.046 91.6117 172.159 91.6117 172.273C91.6117 172.5 91.6117 172.67 91.6117 172.898C91.6117 173.011 91.6117 173.068 91.6117 173.182C91.6117 173.465 91.6117 173.749 91.6117 174.033C91.6117 174.147 91.6117 174.204 91.6117 174.317C91.6117 174.544 91.6117 174.715 91.5549 174.942C91.5549 175.055 91.5549 175.112 91.5549 175.226C91.4981 175.509 91.4981 175.793 91.4413 176.02C91.4413 176.02 91.3278 176.702 94.2235 176.588C97.1193 176.475 98.5956 176.304 98.3117 175.566C98.0278 174.828 97.46 173.352 97.2896 172.216C97.1193 171.081 96.4947 167.39 96.665 164.494C96.8354 161.598 98.3117 159.043 100.583 158.248C101.264 158.021 101.889 157.851 102.513 157.681C103.251 158.589 105.239 158.987 105.92 157.851C106.261 158.305 106.829 157.681 106.829 157.681C106.829 158.305 107.964 158.589 108.929 157.794C109.668 159.384 114.096 159.668 113.131 156.204C114.04 156.431 114.494 155.864 114.267 155.409C114.891 155.92 115.8 155.126 114.835 154.217C116.992 154.955 118.525 152.684 118.128 151.719C118.071 151.605 118.014 151.548 117.957 151.435C117.957 151.435 117.957 151.378 117.901 151.378C117.844 151.321 117.787 151.265 117.73 151.151L117.674 151.094C117.617 151.037 117.503 150.981 117.446 150.924L117.39 150.867C117.333 150.81 117.276 150.81 117.163 150.754C117.106 150.754 117.106 150.697 117.049 150.697C116.992 150.697 116.935 150.64 116.879 150.64C116.822 150.64 116.822 150.64 116.765 150.583C116.708 150.583 116.652 150.526 116.538 150.526C116.481 150.526 116.481 150.526 116.424 150.47C116.368 150.47 116.311 150.47 116.311 150.413C116.254 150.413 116.197 150.413 116.197 150.356H116.14C116.084 150.356 116.084 150.356 116.084 150.356C116.084 150.356 118.071 148.88 115.857 147.744C116.197 147.29 116.311 146.552 116.027 145.927C116.027 145.927 116.027 145.87 115.97 145.87C115.913 145.814 115.913 145.757 115.857 145.643L115.8 145.587C115.743 145.53 115.686 145.473 115.629 145.416C115.573 145.416 115.573 145.359 115.516 145.359C115.459 145.303 115.402 145.246 115.346 145.246C115.289 145.246 115.289 145.189 115.232 145.189C115.175 145.132 115.118 145.132 115.005 145.076C114.948 145.076 114.891 145.019 114.835 145.019C114.778 145.019 114.664 144.962 114.551 144.962C114.494 144.962 114.437 144.962 114.38 144.905C114.267 144.905 114.153 144.905 114.04 144.905C113.983 144.905 113.926 144.905 113.869 144.905C113.756 144.905 113.585 144.905 113.415 144.962C113.358 144.962 113.302 144.962 113.245 144.962C113.018 145.019 112.79 145.019 112.563 145.076C112.45 144.792 112.109 144.678 112.109 144.678C113.018 144.224 111.712 142.293 109.611 143.599C109.554 143.372 109.497 143.202 109.44 143.031C111.371 143.656 116.14 140.136 112.45 137.183C114.267 135.366 113.074 131.562 109.327 131.278C109.611 130.71 108.816 130.483 108.816 130.483C108.816 130.483 109.554 127.587 106.261 127.133C106.204 126.736 105.92 126.168 105.92 126.168C105.92 126.168 106.034 123.386 103.763 122.364C103.649 122.307 103.479 122.25 103.365 122.193C103.308 122.193 103.308 122.193 103.251 122.137C103.138 122.137 103.081 122.08 102.968 122.08C102.911 122.08 102.911 122.08 102.854 122.08C102.74 122.08 102.684 122.023 102.57 122.023H102.513C102.4 122.023 102.286 122.023 102.173 122.023C102.116 122.023 102.116 122.023 102.059 122.023C102.002 122.023 101.889 122.023 101.832 122.023C101.775 122.023 101.775 122.023 101.718 122.023C101.662 122.023 101.548 122.023 101.491 122.08H101.435C100.469 122.307 99.8447 122.931 99.8447 122.931C99.1634 121.626 97.8006 122.25 97.8006 122.25C97.5735 120.887 95.9837 120.263 95.1888 121.569C95.1888 121.569 94.3939 119.581 92.5769 120.887C91.5549 119.809 89.7947 120.376 89.3972 120.944C89.5676 118.9 84.7981 118.957 85.0252 122.307C83.7761 121.853 82.9811 122.534 82.754 123.272C82.0159 122.137 81.221 124.067 81.221 124.067C79.3472 122.42 76.2244 125.827 79.0633 127.985C77.5303 128.269 78.3252 129.518 78.3252 129.518C77.0193 129.12 77.1328 130.256 77.1328 130.256C75.2591 129.745 73.3854 132.016 76.3379 134.287C74.8049 134.628 75.0888 136.161 75.7133 136.331C74.2938 136.388 75.1455 138.092 75.9972 138.262C75.5998 138.432 75.3727 138.659 75.2023 138.83C75.1455 138.83 75.1455 138.83 75.0888 138.83C75.032 138.83 74.9752 138.83 74.9184 138.83C74.8616 138.83 74.8616 138.83 74.8049 138.83C74.7481 138.83 74.6913 138.83 74.5777 138.83H74.521C74.4642 138.83 74.4074 138.83 74.2938 138.887H74.2371C73.5557 139.057 72.9311 139.625 72.8743 140.249C71.9659 138.262 67.3099 139.057 68.1049 142.464C66.5718 141.896 66.2311 143.031 66.3447 143.713C64.8684 142.975 62.7676 145.303 64.9252 147.006C63.3921 148.085 63.9599 150.299 65.2091 150.356ZM90.9871 162.45C90.9871 162.564 90.9871 162.734 90.9871 162.848C90.9871 162.904 90.9871 162.961 90.9871 163.075C90.9871 163.245 90.9871 163.415 91.0439 163.529C91.2142 164.551 90.8735 164.721 90.3057 164.267C89.7379 163.756 88.7159 162.791 87.8642 162.223C87.6939 162.109 87.5235 161.939 87.2964 161.769C87.2964 161.655 87.3532 161.598 87.2964 161.485C87.2964 161.485 88.7727 160.804 88.3752 159.498C87.9778 158.192 86.0472 158.476 85.7066 158.646C86.2176 157.454 85.1388 156.943 84.571 157.17C84.571 156.772 84.3438 156.772 84.1735 156.829C84.2871 156.545 84.1735 156.261 83.9464 156.034C83.8896 155.977 83.8896 155.977 83.8328 155.92C83.8328 155.92 83.8328 155.92 83.7761 155.92C83.7193 155.92 83.7193 155.864 83.6625 155.864C83.6625 155.864 83.6057 155.864 83.6057 155.807C83.6057 155.807 83.5489 155.807 83.5489 155.75C83.4922 155.75 83.4922 155.75 83.4354 155.693H83.3786C83.3218 155.693 83.265 155.693 83.265 155.693C83.2083 155.693 83.1515 155.693 83.0947 155.693C83.0379 155.693 82.9811 155.693 82.9244 155.75C82.8108 155.807 82.6972 155.864 82.5837 155.92C82.5269 155.977 82.4701 155.977 82.4133 156.034C82.4133 156.034 82.4133 156.034 82.3566 156.091C82.3566 156.091 82.2998 156.091 82.2998 156.034C82.2998 156.034 82.2998 156.034 82.2998 155.977C82.2998 155.92 82.3566 155.864 82.3566 155.864V155.807C82.3566 155.75 82.3566 155.693 82.3566 155.637V155.58C82.3566 155.523 82.3566 155.466 82.2998 155.409C83.3218 155.75 84.5142 155.239 85.1388 154.331C86.2744 155.182 87.2396 155.92 88.0345 156.431C89.454 157.34 90.2489 158.816 90.5896 159.838C90.9871 160.463 90.9871 161.542 90.9871 162.45ZM93.9964 152.57C93.9964 152.57 93.9964 152.627 93.9964 152.57C93.8828 152.684 93.8828 152.741 93.8261 152.741C93.8261 152.741 93.8261 152.741 93.7693 152.741C93.7125 152.741 93.7125 152.798 93.6557 152.798C93.2583 152.854 93.3718 150.867 93.4854 149.107C93.9964 148.937 94.5074 148.709 94.8481 148.482C94.9617 148.993 95.2456 149.334 95.5862 149.618C95.0752 150.867 94.4506 152.059 93.9964 152.57ZM90.7032 155.977C90.7032 156.034 90.7032 156.034 90.6464 156.091C90.6464 156.148 90.5896 156.148 90.5896 156.148C90.5896 156.148 90.5896 156.204 90.5328 156.204C90.4761 156.204 90.4193 156.261 90.3625 156.204C89.7947 156.091 87.5235 154.842 86.5583 153.876C86.1608 153.536 85.8769 153.195 85.593 152.911C85.593 152.798 85.593 152.741 85.593 152.627C85.593 152.627 89.3405 151.662 86.9557 149.22C87.0125 148.993 87.0125 148.823 86.8989 148.653C87.4667 148.709 88.1481 148.312 88.4888 148.085C89.454 149.788 90.0218 151.548 90.3057 153.195C90.3625 153.593 90.4193 153.99 90.4761 154.331C90.4761 154.387 90.4761 154.444 90.5328 154.501C90.5328 154.558 90.5328 154.671 90.5896 154.728C90.6464 154.898 90.6464 155.069 90.6464 155.239C90.6464 155.296 90.6464 155.296 90.6464 155.353C90.6464 155.409 90.6464 155.466 90.6464 155.523C90.6464 155.58 90.6464 155.637 90.6464 155.637C90.6464 155.693 90.6464 155.75 90.6464 155.75C90.7032 155.92 90.7032 155.977 90.7032 155.977ZM86.1608 148.028C86.104 148.028 86.104 148.028 86.1608 148.028C86.104 148.028 86.104 148.028 86.1608 148.028C86.1608 148.028 86.104 148.028 86.1608 148.028ZM92.1794 152.116C92.1227 152.173 92.1227 152.173 92.0659 152.173C92.0091 152.173 92.0091 152.173 91.9523 152.173C91.5549 152.059 91.1006 150.81 90.9303 150.129C90.8735 149.959 90.76 149.675 90.6464 149.448C91.271 149.504 91.8956 149.504 92.5769 149.391C92.4633 151.094 92.4066 151.889 92.1794 152.116ZM97.1193 157.794C97.0057 157.851 96.9489 157.908 96.8354 157.965C96.8354 157.965 96.8354 157.965 96.7786 157.965C96.7218 158.021 96.665 158.021 96.6083 158.021C96.5515 158.021 96.5515 158.021 96.4947 157.965C96.2676 157.624 96.3811 155.864 96.2108 154.274C96.154 153.536 96.154 152.798 96.2108 152.116C96.2676 152.173 96.2676 152.23 96.3244 152.23C96.6083 152.57 96.8922 152.684 97.1761 152.684C97.2328 152.684 97.3464 152.684 97.4032 152.684C97.46 152.684 97.5167 152.684 97.5735 152.627C97.6871 152.57 97.7439 152.57 97.7439 152.57C97.7439 152.57 96.7786 154.898 99.4473 154.671C99.4473 155.126 99.9015 155.353 100.299 155.409C99.1066 156.204 98.1413 156.999 97.46 157.51C97.3464 157.681 97.2328 157.737 97.1193 157.794ZM100.583 157.454C100.753 157.17 100.924 156.886 101.094 156.602C101.207 156.886 101.378 157.17 101.662 157.34C101.264 157.454 100.867 157.51 100.583 157.454Z" fill="#F9D1D1" fill-opacity="0.6"/>
<g filter="url(#filter10_d)">
<path d="M81.0587 170.65C81.0587 170.65 84.878 169.515 84.3619 166.16C84.878 161.773 78.633 152.896 78.633 152.896C78.633 152.896 81.9361 151.709 81.3684 148.199C80.8007 144.69 73.8331 136.896 74.1944 136.845C74.5556 136.793 76.2588 136.329 76.104 132.613C75.8976 128.897 67.0203 118.936 66.4526 118.936C65.9365 118.936 57.0593 128.897 56.8528 132.613C56.6464 136.329 58.3496 136.742 58.7625 136.845C59.1237 136.896 52.1562 144.741 51.5884 148.251C51.0207 151.761 54.3239 152.948 54.3239 152.948C54.3239 152.948 48.0788 161.773 48.595 166.16C48.0788 169.515 51.8981 170.65 51.8981 170.65C51.8981 170.65 44.1047 179.889 45.0854 184.173C46.066 188.457 52.2078 188.044 57.8335 186.702C60.6721 186.031 62.7882 185.515 64.3365 185.205V196.095H68.9816V185.257C70.5299 185.566 72.5428 186.031 75.175 186.702C80.8007 188.044 86.9425 188.457 87.9231 184.173C88.8521 179.889 81.0587 170.65 81.0587 170.65Z" fill="#F9D1D1" fill-opacity="0.6"/>
</g>
<path d="M81.0587 171.165C81.0587 171.165 84.878 170.03 84.3619 166.675C84.878 162.288 78.633 153.411 78.633 153.411C78.633 153.411 81.9361 152.224 81.3684 148.714C80.8006 145.204 73.8331 137.411 74.1943 137.359C74.5556 137.308 76.2588 136.843 76.104 133.127C75.8975 129.411 67.0203 119.45 66.4526 119.45C65.9365 119.45 57.0593 129.411 56.8528 133.127C56.6464 136.843 58.3496 137.256 58.7625 137.359C59.1237 137.411 52.1562 145.256 51.5884 148.766C51.0207 152.275 54.3238 153.462 54.3238 153.462C54.3238 153.462 48.0788 162.288 48.5949 166.675C48.0788 170.03 51.8981 171.165 51.8981 171.165C51.8981 171.165 44.1047 180.404 45.0853 184.687C46.066 188.971 52.2078 188.558 57.8334 187.216C60.6721 186.545 62.7882 186.029 64.3365 185.72V196.61H68.9816V185.771C70.5299 186.081 72.5428 186.545 75.175 187.216C80.8006 188.558 86.9424 188.971 87.9231 184.687C88.8521 180.404 81.0587 171.165 81.0587 171.165Z" fill="#F9D1D1" fill-opacity="0.6"/>
<g filter="url(#filter11_d)">
<path d="M64.6279 191.686C62.5806 190.259 60.5954 188.584 58.7963 186.909C67.4816 188.957 61.7741 180.829 61.7741 180.829C72.0104 181.264 64.6279 175.246 64.6279 175.246C57.6176 170.283 50.9795 162.342 50.9795 162.342C57.9898 164.079 53.8332 158.496 53.8332 158.496C62.9529 161.101 55.7564 154.835 55.7564 154.835C51.4137 151.423 46.2646 144.289 46.2646 144.289C53.2749 147.081 49.3044 141.932 49.3044 141.932C57.3074 144.537 50.7934 138.519 50.7934 138.519C41.3635 130.02 36.7107 120.652 35.0977 116.806C35.0356 116.558 34.8495 116.31 34.7875 116C34.7254 116.062 34.6014 116.186 34.6014 116.248C34.6014 116.186 34.4773 116.062 34.4152 116C34.2912 116.31 34.1671 116.558 34.043 116.868C32.43 120.714 27.7772 130.082 18.4094 138.519C18.4094 138.519 11.9574 144.537 19.8983 141.932C19.8983 141.932 15.9278 147.081 22.9382 144.289C22.9382 144.289 17.789 151.361 13.4463 154.835C13.4463 154.835 6.24988 161.101 15.3695 158.496C15.3695 158.496 11.2129 164.079 18.2233 162.342C18.2233 162.342 11.5852 170.283 4.57484 175.246C4.57484 175.246 -2.80771 181.264 7.4286 180.829C7.4286 180.829 1.72108 188.957 10.4064 186.909C8.60733 188.584 6.6221 190.259 4.57484 191.686C4.57484 191.686 -2.80771 197.704 7.4286 197.27C7.4286 197.27 0.790508 206.699 12.7639 202.605C12.7639 202.605 6.49803 211.414 19.9603 206.886C19.9603 206.886 15.8038 214.64 26.4123 209.491C26.4123 209.491 25.4817 212.345 25.7919 212.965H27.6531C28.0873 212.965 28.8938 212.593 30.1346 212.035V224.753H40.0607V211.911C40.6811 212.531 41.1774 212.965 41.6117 212.965H43.4728C43.783 212.345 42.8525 209.491 42.8525 209.491C53.461 214.64 49.3044 206.824 49.3044 206.824C62.7667 211.352 56.5009 202.543 56.5009 202.543C68.4743 206.637 61.8362 197.208 61.8362 197.208C72.0104 197.642 64.6279 191.686 64.6279 191.686Z" fill="#F9D1D1" fill-opacity="0.6"/>
</g>
<path d="M64.6279 192.305C62.5806 190.878 60.5954 189.203 58.7963 187.528C67.4816 189.575 61.7741 181.448 61.7741 181.448C72.0104 181.882 64.6279 175.865 64.6279 175.865C57.6176 170.902 50.9795 162.961 50.9795 162.961C57.9898 164.698 53.8332 159.114 53.8332 159.114C62.9529 161.72 55.7564 155.454 55.7564 155.454C51.4137 152.042 46.2646 144.908 46.2646 144.908C53.2749 147.699 49.3044 142.55 49.3044 142.55C57.3074 145.156 50.7934 139.138 50.7934 139.138C41.3635 130.639 36.7107 121.271 35.0977 117.425C35.0356 117.177 34.8495 116.928 34.7875 116.618C34.7254 116.68 34.6014 116.804 34.6014 116.866C34.6014 116.804 34.4773 116.68 34.4152 116.618C34.2912 116.928 34.1671 117.177 34.043 117.487C32.43 121.333 27.7772 130.701 18.4094 139.138C18.4094 139.138 11.9574 145.156 19.8983 142.55C19.8983 142.55 15.9278 147.699 22.9382 144.908C22.9382 144.908 17.789 151.98 13.4463 155.454C13.4463 155.454 6.24988 161.72 15.3695 159.114C15.3695 159.114 11.2129 164.698 18.2233 162.961C18.2233 162.961 11.5852 170.902 4.57484 175.865C4.57484 175.865 -2.80771 181.882 7.4286 181.448C7.4286 181.448 1.72108 189.575 10.4064 187.528C8.60733 189.203 6.6221 190.878 4.57484 192.305C4.57484 192.305 -2.80771 198.323 7.4286 197.888C7.4286 197.888 0.790508 207.318 12.7639 203.224C12.7639 203.224 6.49803 212.033 19.9603 207.504C19.9603 207.504 15.8038 215.259 26.4123 210.11C26.4123 210.11 25.4817 212.964 25.7919 213.584H27.6531C28.0873 213.584 28.8938 213.212 30.1346 212.653V225.371H40.0607V212.529C40.6811 213.15 41.1774 213.584 41.6117 213.584H43.4728C43.783 212.964 42.8525 210.11 42.8525 210.11C53.461 215.259 49.3044 207.442 49.3044 207.442C62.7667 211.971 56.5009 203.162 56.5009 203.162C68.4743 207.256 61.8362 197.826 61.8362 197.826C72.0104 198.261 64.6279 192.305 64.6279 192.305Z" fill="#F9D1D1" fill-opacity="0.6"/>
<defs>
<filter id="filter0_dd" x="257" y="-0.000488281" width="47.4668" height="59.4707" filterUnits="userSpaceOnUse" color-interpolation-filters="sRGB">
<feFlood flood-opacity="0" result="BackgroundImageFix"/>
<feColorMatrix in="SourceAlpha" type="matrix" values="0 0 0 0 0 0 0 0 0 0 0 0 0 0 0 0 0 0 127 0"/>
<feOffset dy="9"/>
<feGaussianBlur stdDeviation="5"/>
<feColorMatrix type="matrix" values="0 0 0 0 0 0 0 0 0 0 0 0 0 0 0 0 0 0 0.05 0"/>
<feBlend mode="normal" in2="BackgroundImageFix" result="effect1_dropShadow"/>
<feColorMatrix in="SourceAlpha" type="matrix" values="0 0 0 0 0 0 0 0 0 0 0 0 0 0 0 0 0 0 127 0"/>
<feOffset dx="-1" dy="-1"/>
<feColorMatrix type="matrix" values="0 0 0 0 1 0 0 0 0 1 0 0 0 0 1 0 0 0 1 0"/>
<feBlend mode="normal" in2="effect1_dropShadow" result="effect2_dropShadow"/>
<feBlend mode="normal" in="SourceGraphic" in2="effect2_dropShadow" result="shape"/>
</filter>
<filter id="filter1_dd" x="239" y="1.99951" width="55.204" height="69.3206" filterUnits="userSpaceOnUse" color-interpolation-filters="sRGB">
<feFlood flood-opacity="0" result="BackgroundImageFix"/>
<feColorMatrix in="SourceAlpha" type="matrix" values="0 0 0 0 0 0 0 0 0 0 0 0 0 0 0 0 0 0 127 0"/>
<feOffset dy="9"/>
<feGaussianBlur stdDeviation="5"/>
<feColorMatrix type="matrix" values="0 0 0 0 0 0 0 0 0 0 0 0 0 0 0 0 0 0 0.05 0"/>
<feBlend mode="normal" in2="BackgroundImageFix" result="effect1_dropShadow"/>
<feColorMatrix in="SourceAlpha" type="matrix" values="0 0 0 0 0 0 0 0 0 0 0 0 0 0 0 0 0 0 127 0"/>
<feOffset dx="-1" dy="-1"/>
<feColorMatrix type="matrix" values="0 0 0 0 1 0 0 0 0 1 0 0 0 0 1 0 0 0 1 0"/>
<feBlend mode="normal" in2="effect1_dropShadow" result="effect2_dropShadow"/>
<feBlend mode="normal" in="SourceGraphic" in2="effect2_dropShadow" result="shape"/>
</filter>
<filter id="filter2_d" x="238" y="15.9995" width="27.9744" height="47.0199" filterUnits="userSpaceOnUse" color-interpolation-filters="sRGB">
<feFlood flood-opacity="0" result="BackgroundImageFix"/>
<feColorMatrix in="SourceAlpha" type="matrix" values="0 0 0 0 0 0 0 0 0 0 0 0 0 0 0 0 0 0 127 0"/>
<feOffset dy="2"/>
<feGaussianBlur stdDeviation="1"/>
<feColorMatrix type="matrix" values="0 0 0 0 0.475284 0 0 0 0 0.475284 0 0 0 0 0.475284 0 0 0 0.25 0"/>
<feBlend mode="normal" in2="BackgroundImageFix" result="effect1_dropShadow"/>
<feBlend mode="normal" in="SourceGraphic" in2="effect1_dropShadow" result="shape"/>
</filter>
<filter id="filter3_d" x="221" y="24.115" width="34" height="57.8322" filterUnits="userSpaceOnUse" color-interpolation-filters="sRGB">
<feFlood flood-opacity="0" result="BackgroundImageFix"/>
<feColorMatrix in="SourceAlpha" type="matrix" values="0 0 0 0 0 0 0 0 0 0 0 0 0 0 0 0 0 0 127 0"/>
<feOffset dy="2"/>
<feGaussianBlur stdDeviation="1"/>
<feColorMatrix type="matrix" values="0 0 0 0 0.475284 0 0 0 0 0.475284 0 0 0 0 0.475284 0 0 0 0.25 0"/>
<feBlend mode="normal" in2="BackgroundImageFix" result="effect1_dropShadow"/>
<feBlend mode="normal" in="SourceGraphic" in2="effect1_dropShadow" result="shape"/>
</filter>
<filter id="filter4_d" x="207" y="40.2261" width="33" height="52.3602" filterUnits="userSpaceOnUse" color-interpolation-filters="sRGB">
<feFlood flood-opacity="0" result="BackgroundImageFix"/>
<feColorMatrix in="SourceAlpha" type="matrix" values="0 0 0 0 0 0 0 0 0 0 0 0 0 0 0 0 0 0 127 0"/>
<feOffset dy="2"/>
<feGaussianBlur stdDeviation="1"/>
<feColorMatrix type="matrix" values="0 0 0 0 0.475284 0 0 0 0 0.475284 0 0 0 0 0.475284 0 0 0 0.25 0"/>
<feBlend mode="normal" in2="BackgroundImageFix" result="effect1_dropShadow"/>
<feBlend mode="normal" in="SourceGraphic" in2="effect1_dropShadow" result="shape"/>
</filter>
<filter id="filter5_dd" x="180" y="48.9995" width="51" height="63.4308" filterUnits="userSpaceOnUse" color-interpolation-filters="sRGB">
<feFlood flood-opacity="0" result="BackgroundImageFix"/>
<feColorMatrix in="SourceAlpha" type="matrix" values="0 0 0 0 0 0 0 0 0 0 0 0 0 0 0 0 0 0 127 0"/>
<feOffset dy="9"/>
<feGaussianBlur stdDeviation="5"/>
<feColorMatrix type="matrix" values="0 0 0 0 0 0 0 0 0 0 0 0 0 0 0 0 0 0 0.05 0"/>
<feBlend mode="normal" in2="BackgroundImageFix" result="effect1_dropShadow"/>
<feColorMatrix in="SourceAlpha" type="matrix" values="0 0 0 0 0 0 0 0 0 0 0 0 0 0 0 0 0 0 127 0"/>
<feOffset dx="-1" dy="-1"/>
<feColorMatrix type="matrix" values="0 0 0 0 1 0 0 0 0 1 0 0 0 0 1 0 0 0 1 0"/>
<feBlend mode="normal" in2="effect1_dropShadow" result="effect2_dropShadow"/>
<feBlend mode="normal" in="SourceGraphic" in2="effect2_dropShadow" result="shape"/>
</filter>
<filter id="filter6_dd" x="147.69" y="55.8613" width="79.31" height="74.8363" filterUnits="userSpaceOnUse" color-interpolation-filters="sRGB">
<feFlood flood-opacity="0" result="BackgroundImageFix"/>
<feColorMatrix in="SourceAlpha" type="matrix" values="0 0 0 0 0 0 0 0 0 0 0 0 0 0 0 0 0 0 127 0"/>
<feOffset dy="9"/>
<feGaussianBlur stdDeviation="5"/>
<feColorMatrix type="matrix" values="0 0 0 0 0 0 0 0 0 0 0 0 0 0 0 0 0 0 0.05 0"/>
<feBlend mode="normal" in2="BackgroundImageFix" result="effect1_dropShadow"/>
<feColorMatrix in="SourceAlpha" type="matrix" values="0 0 0 0 0 0 0 0 0 0 0 0 0 0 0 0 0 0 127 0"/>
<feOffset dx="-1" dy="-1"/>
<feColorMatrix type="matrix" values="0 0 0 0 1 0 0 0 0 1 0 0 0 0 1 0 0 0 1 0"/>
<feBlend mode="normal" in2="effect1_dropShadow" result="effect2_dropShadow"/>
<feBlend mode="normal" in="SourceGraphic" in2="effect2_dropShadow" result="shape"/>
</filter>
<filter id="filter7_d" x="142" y="77.9995" width="38.5137" height="61.5548" filterUnits="userSpaceOnUse" color-interpolation-filters="sRGB">
<feFlood flood-opacity="0" result="BackgroundImageFix"/>
<feColorMatrix in="SourceAlpha" type="matrix" values="0 0 0 0 0 0 0 0 0 0 0 0 0 0 0 0 0 0 127 0"/>
<feOffset dy="2"/>
<feGaussianBlur stdDeviation="1"/>
<feColorMatrix type="matrix" values="0 0 0 0 0.475284 0 0 0 0 0.475284 0 0 0 0 0.475284 0 0 0 0.25 0"/>
<feBlend mode="normal" in2="BackgroundImageFix" result="effect1_dropShadow"/>
<feBlend mode="normal" in="SourceGraphic" in2="effect1_dropShadow" result="shape"/>
</filter>
<filter id="filter8_dd" x="84.7756" y="86.9995" width="86.6629" height="81.6347" filterUnits="userSpaceOnUse" color-interpolation-filters="sRGB">
<feFlood flood-opacity="0" result="BackgroundImageFix"/>
<feColorMatrix in="SourceAlpha" type="matrix" values="0 0 0 0 0 0 0 0 0 0 0 0 0 0 0 0 0 0 127 0"/>
<feOffset dy="9"/>
<feGaussianBlur stdDeviation="5"/>
<feColorMatrix type="matrix" values="0 0 0 0 0 0 0 0 0 0 0 0 0 0 0 0 0 0 0.05 0"/>
<feBlend mode="normal" in2="BackgroundImageFix" result="effect1_dropShadow"/>
<feColorMatrix in="SourceAlpha" type="matrix" values="0 0 0 0 0 0 0 0 0 0 0 0 0 0 0 0 0 0 127 0"/>
<feOffset dx="-1" dy="-1"/>
<feColorMatrix type="matrix" values="0 0 0 0 1 0 0 0 0 1 0 0 0 0 1 0 0 0 1 0"/>
<feBlend mode="normal" in2="effect1_dropShadow" result="effect2_dropShadow"/>
<feBlend mode="normal" in="SourceGraphic" in2="effect2_dropShadow" result="shape"/>
</filter>
<filter id="filter9_dd" x="54" y="118" width="74.1907" height="77.0337" filterUnits="userSpaceOnUse" color-interpolation-filters="sRGB">
<feFlood flood-opacity="0" result="BackgroundImageFix"/>
<feColorMatrix in="SourceAlpha" type="matrix" values="0 0 0 0 0 0 0 0 0 0 0 0 0 0 0 0 0 0 127 0"/>
<feOffset dy="9"/>
<feGaussianBlur stdDeviation="5"/>
<feColorMatrix type="matrix" values="0 0 0 0 0 0 0 0 0 0 0 0 0 0 0 0 0 0 0.05 0"/>
<feBlend mode="normal" in2="BackgroundImageFix" result="effect1_dropShadow"/>
<feColorMatrix in="SourceAlpha" type="matrix" values="0 0 0 0 0 0 0 0 0 0 0 0 0 0 0 0 0 0 127 0"/>
<feOffset dx="-1" dy="-1"/>
<feColorMatrix type="matrix" values="0 0 0 0 1 0 0 0 0 1 0 0 0 0 1 0 0 0 1 0"/>
<feBlend mode="normal" in2="effect1_dropShadow" result="effect2_dropShadow"/>
<feBlend mode="normal" in="SourceGraphic" in2="effect2_dropShadow" result="shape"/>
</filter>
<filter id="filter10_d" x="43" y="118.936" width="47" height="81.1595" filterUnits="userSpaceOnUse" color-interpolation-filters="sRGB">
<feFlood flood-opacity="0" result="BackgroundImageFix"/>
<feColorMatrix in="SourceAlpha" type="matrix" values="0 0 0 0 0 0 0 0 0 0 0 0 0 0 0 0 0 0 127 0"/>
<feOffset dy="2"/>
<feGaussianBlur stdDeviation="1"/>
<feColorMatrix type="matrix" values="0 0 0 0 0.475284 0 0 0 0 0.475284 0 0 0 0 0.475284 0 0 0 0.25 0"/>
<feBlend mode="normal" in2="BackgroundImageFix" result="effect1_dropShadow"/>
<feBlend mode="normal" in="SourceGraphic" in2="effect1_dropShadow" result="shape"/>
</filter>
<filter id="filter11_d" x="0" y="116" width="69.2156" height="112.753" filterUnits="userSpaceOnUse" color-interpolation-filters="sRGB">
<feFlood flood-opacity="0" result="BackgroundImageFix"/>
<feColorMatrix in="SourceAlpha" type="matrix" values="0 0 0 0 0 0 0 0 0 0 0 0 0 0 0 0 0 0 127 0"/>
<feOffset dy="2"/>
<feGaussianBlur stdDeviation="1"/>
<feColorMatrix type="matrix" values="0 0 0 0 0.475284 0 0 0 0 0.475284 0 0 0 0 0.475284 0 0 0 0.25 0"/>
<feBlend mode="normal" in2="BackgroundImageFix" result="effect1_dropShadow"/>
<feBlend mode="normal" in="SourceGraphic" in2="effect1_dropShadow" result="shape"/>
</filter>
</defs>
</svg>
