<svg width="1440" height="448" viewBox="0 0 1440 448" fill="none" xmlns="http://www.w3.org/2000/svg">
<path d="M1440 448H6.10352e-05V79.65C240.46 51.6896 255.803 79.65 497.476 79.65H781.748C773.204 88.9704 753.32 109.475 742.136 116.932C728.155 126.252 746.214 161.786 708.932 173.436C679.107 182.757 604.66 195.378 609.32 203.145H756.117H1440V448Z" fill="#D5E2EE"/>
<path d="M1440 448H6.10352e-05V79.65C240.46 51.6896 255.803 79.65 497.476 79.65H781.748C773.204 88.9704 753.32 109.475 742.136 116.932C728.155 126.252 746.214 161.786 708.932 173.436C679.107 182.757 604.66 195.378 609.32 203.145H756.117H1440V448Z" fill="url(#paint0_linear)"/>
<path d="M125.825 25.6695C114.175 25.6695 10.4854 11.689 0 11.689L3.05176e-05 95.5725L1123.11 89.7472L937.864 64.1162L815.534 50.1356H690.874H617.476H552.233C540.583 50.1356 456.699 39.6501 447.379 39.6501H384.466H342.524H300.583C288.932 39.6501 137.476 25.6695 125.825 25.6695Z" fill="#E6E8ED"/>
<path d="M23.301 33.8252L0 44.3106L4.57764e-05 95.5728H742.136L521.942 64.1165L452.039 53.631H443.883L406.602 44.3106L382.136 53.631L350.68 44.3106L328.544 64.1165C317.67 57.5145 294.524 44.3106 288.932 44.3106H255.146L228.35 40.8155L212.039 53.631L223.689 76.932L167.767 37.3203H106.019L101.359 44.3106L88.5437 53.631L68.7379 33.8252H23.301Z" fill="#F2F4F7"/>
<g filter="url(#filter0_d)">
<path d="M555.728 191.107H513.786V214.407C603.495 211.689 795.262 206.252 844.66 206.252C906.408 206.252 930.874 213.242 949.515 214.407C964.427 215.34 1031.07 220.233 1062.52 222.563H1440L1440 19.8444C1419.81 26.8347 1375.22 40.8153 1367.77 52.4657H1282.72L1244.27 66.4463L979.806 2.36865L836.505 14.0191C824.466 16.7376 799.456 34.524 795.728 37.3201C792 40.1162 745.243 102.951 733.981 116.543L672.233 148C664.078 154.213 645.903 167.573 638.447 171.301C630.99 175.029 580.194 186.058 555.728 191.107Z" fill="white"/>
</g>
<path d="M555.728 191.107H513.786V214.407L575.534 205.087L611.651 191.107L641.942 195.767L685.049 160.815L713.01 171.301L815.534 116.543L871.456 52.4657L954.175 90.9123L998.447 205.087H1440V19.8444C1419.81 26.8347 1375.22 40.8153 1367.77 52.4657H1282.72L1244.27 66.4463L979.806 2.36865L836.505 14.0191C824.466 16.7376 799.456 34.524 795.728 37.3201C792 40.1162 745.243 102.951 733.981 116.543L672.233 148C664.078 154.213 645.903 167.573 638.447 171.301C630.99 175.029 580.194 186.058 555.728 191.107Z" fill="#E2E4EB"/>
<path d="M555.728 191.107H513.786V214.407L575.534 205.087L611.651 191.107L641.942 195.767L685.049 160.815L713.01 171.301L815.534 116.543L871.456 52.4657L954.175 90.9123L998.447 205.087H1440V19.8444C1419.81 26.8347 1375.22 40.8153 1367.77 52.4657H1282.72L1244.27 66.4463L979.806 2.36865L836.505 14.0191C824.466 16.7376 799.456 34.524 795.728 37.3201C792 40.1162 745.243 102.951 733.981 116.543L672.233 148C664.078 154.213 645.903 167.573 638.447 171.301C630.99 175.029 580.194 186.058 555.728 191.107Z" fill="url(#paint1_linear)"/>
<path d="M513.786 191.107H555.728C580.194 186.058 630.99 175.029 638.447 171.301C645.903 167.573 664.078 154.213 672.233 148L733.981 116.543C745.243 102.951 792 40.1162 795.728 37.3201C799.456 34.524 824.466 16.7376 836.505 14.0191L979.806 2.36865L1244.27 66.4463L1282.72 52.4657H1367.77C1375.22 40.8153 1419.81 26.8347 1440 19.8444V108.388L1367.77 66.4463L1268.74 95.5725L1166.21 73.4366L1100.97 116.543L1005.44 79.2619L968.155 25.6696L874.952 37.3201H795.728L713.01 171.301L685.049 160.815L641.942 195.767L603.495 191.107L542.913 202.757L513.786 191.107Z" fill="#D6DBE3"/>
<g filter="url(#filter1_d)">
<path d="M260.971 167.806L251.651 208.582H284.272L308.738 215.573H333.204L385.631 208.582V130.524L377.476 103.728L361.165 78.0968L344.854 66.4463L333.204 85.0871L318.058 96.7376H292.427L284.272 130.524L273.786 142.174L260.971 167.806Z" fill="#E4E5EC"/>
</g>
<g filter="url(#filter2_d)">
<path d="M505.631 159.65L518.447 193.437V215.573H439.223H334.369L353.01 193.437L358.835 159.65L377.476 137.514L396.117 131.689L410.097 121.204L425.243 102.563L449.709 113.048L459.029 131.689H481.165L492.816 152.66L505.631 159.65Z" fill="#D6DBE3"/>
</g>
<defs>
<filter id="filter0_d" x="513.786" y="0.368652" width="926.214" height="222.194" filterUnits="userSpaceOnUse" color-interpolation-filters="sRGB">
<feFlood flood-opacity="0" result="BackgroundImageFix"/>
<feColorMatrix in="SourceAlpha" type="matrix" values="0 0 0 0 0 0 0 0 0 0 0 0 0 0 0 0 0 0 127 0"/>
<feOffset dy="-2"/>
<feColorMatrix type="matrix" values="0 0 0 0 1 0 0 0 0 1 0 0 0 0 1 0 0 0 1 0"/>
<feBlend mode="normal" in2="BackgroundImageFix" result="effect1_dropShadow"/>
<feBlend mode="normal" in="SourceGraphic" in2="effect1_dropShadow" result="shape"/>
</filter>
<filter id="filter1_d" x="251.651" y="64.4463" width="133.981" height="151.126" filterUnits="userSpaceOnUse" color-interpolation-filters="sRGB">
<feFlood flood-opacity="0" result="BackgroundImageFix"/>
<feColorMatrix in="SourceAlpha" type="matrix" values="0 0 0 0 0 0 0 0 0 0 0 0 0 0 0 0 0 0 127 0"/>
<feOffset dy="-2"/>
<feColorMatrix type="matrix" values="0 0 0 0 1 0 0 0 0 1 0 0 0 0 1 0 0 0 1 0"/>
<feBlend mode="normal" in2="BackgroundImageFix" result="effect1_dropShadow"/>
<feBlend mode="normal" in="SourceGraphic" in2="effect1_dropShadow" result="shape"/>
</filter>
<filter id="filter2_d" x="334.369" y="100.563" width="184.078" height="115.01" filterUnits="userSpaceOnUse" color-interpolation-filters="sRGB">
<feFlood flood-opacity="0" result="BackgroundImageFix"/>
<feColorMatrix in="SourceAlpha" type="matrix" values="0 0 0 0 0 0 0 0 0 0 0 0 0 0 0 0 0 0 127 0"/>
<feOffset dy="-2"/>
<feColorMatrix type="matrix" values="0 0 0 0 1 0 0 0 0 1 0 0 0 0 1 0 0 0 1 0"/>
<feBlend mode="normal" in2="BackgroundImageFix" result="effect1_dropShadow"/>
<feBlend mode="normal" in="SourceGraphic" in2="effect1_dropShadow" result="shape"/>
</filter>
<linearGradient id="paint0_linear" x1="679.964" y1="89.3122" x2="674.563" y2="508" gradientUnits="userSpaceOnUse">
<stop stop-color="#FEFEFF"/>
<stop offset="0.648982" stop-color="#D3E0FF" stop-opacity="0"/>
<stop offset="0.993861" stop-color="white" stop-opacity="0.26"/>
</linearGradient>
<linearGradient id="paint1_linear" x1="976.311" y1="2.36865" x2="976.311" y2="214.407" gradientUnits="userSpaceOnUse">
<stop stop-color="white"/>
<stop offset="1" stop-color="white" stop-opacity="0"/>
</linearGradient>
</defs>
</svg>
