<svg width="736" height="103" viewBox="0 0 736 103" fill="none" xmlns="http://www.w3.org/2000/svg">
<path d="M602 33.0001C580.4 25.8001 519.667 36.0001 492 42.0001L554 101H736C719.333 85.6667 685 54 681 50C676 45 629 42.0001 602 33.0001Z" fill="#F2F4F7"/>
<path d="M109.885 33.4597C79.0787 26.3083 39.459 36.4394 0 42.3988V101H301C277.23 85.7703 228.262 54.3177 222.557 50.3447C215.426 45.3785 148.393 42.3988 109.885 33.4597Z" fill="#E4E5EC"/>
<path d="M222 15.3524L174 39.8305L194 69.9153L236 100H566C554.667 87.5659 529.6 62.4107 520 61.2629C508 59.8282 484 25.3953 468 15.3524C452 5.30951 350 6.74416 314 1.00534C285.2 -3.58572 240.667 8.6571 222 15.3524Z" fill="#CBCDD5"/>
<path d="M136 103H240L197.5 72L175 41L146.5 63.6216L136 103Z" fill="#F2F4F7"/>
</svg>
