<svg width="1440" height="124" viewBox="0 0 1440 124" fill="none" xmlns="http://www.w3.org/2000/svg">
<path d="M804 1.0003C752.8 -0.599702 634.667 81.667 582 123H1046L976 61.0002C940 41.6669 855.2 2.6003 804 1.0003Z" fill="#F2F4F7"/>
<path d="M1020 58.5641C986.4 63.3641 855.333 103.231 794 122.564H1558V30.5641C1474.67 24.5641 1298.8 13.3641 1262 16.5641C1216 20.5641 1062 52.5641 1020 58.5641Z" fill="#CBCDD5"/>
<path d="M925 93L855 124H1440V38L1329 30H1282L1274 44L1267 63L1259 89L1255 63L1246 30L1214 38L1189 53L1153 44L1101 53L1090 63L1080 74V98L1060 63L1017 69L1004 93L998 74L964 82L952 98L925 93Z" fill="#F2F4F7"/>
<path d="M925 93L855 124H1440V38L1329 30H1282L1274 44L1267 63L1259 89L1255 63L1246 30L1214 38L1189 53L1153 44L1101 53L1090 63L1080 74V98L1060 63L1017 69L1004 93L998 74L964 82L952 98L925 93Z" fill="url(#paint0_linear)"/>
<path d="M204 7.00052C167.2 5.40052 47.3334 17.0005 -7.99994 23.0005V123H940C917.333 113.667 862.8 92.6005 826 83.0005C789.2 73.4005 612 52.3338 528 43.0005C435.333 31.6672 240.8 8.60052 204 7.00052Z" fill="#E6E8ED"/>
<path d="M204 7.00052C167.2 5.40052 47.3334 17.0005 -7.99994 23.0005V123H940C917.333 113.667 862.8 92.6005 826 83.0005C789.2 73.4005 612 52.3338 528 43.0005C435.333 31.6672 240.8 8.60052 204 7.00052Z" fill="url(#paint1_linear)" fill-opacity="0.8"/>
<defs>
<linearGradient id="paint0_linear" x1="1223" y1="124" x2="1220" y2="65" gradientUnits="userSpaceOnUse">
<stop stop-color="white"/>
<stop offset="1" stop-color="white" stop-opacity="0"/>
</linearGradient>
<linearGradient id="paint1_linear" x1="466" y1="-19" x2="471" y2="163" gradientUnits="userSpaceOnUse">
<stop stop-color="white"/>
<stop offset="1" stop-color="white" stop-opacity="0"/>
</linearGradient>
</defs>
</svg>
