<svg width="1296" height="214" viewBox="0 0 1296 214" fill="none" xmlns="http://www.w3.org/2000/svg">
<path d="M1017 184H0" stroke="#CBCED5" stroke-width="2"/>
<g filter="url(#filter0_d)">
<rect x="648.282" y="159.567" width="168.574" height="1.89346" fill="#CBCDD5"/>
<rect x="648.282" y="162.723" width="168.574" height="1.89346" fill="#CBCDD5"/>
<rect x="648.282" y="165.879" width="168.574" height="1.89346" fill="#CBCDD5"/>
<rect x="648.282" y="169.034" width="168.574" height="1.89346" fill="#CBCDD5"/>
<rect x="648.282" y="172.19" width="168.574" height="1.89346" fill="#CBCDD5"/>
<rect x="648.282" y="175.346" width="168.574" height="1.89346" fill="#CBCDD5"/>
<rect x="648.282" y="178.502" width="168.574" height="1.89346" fill="#CBCDD5"/>
<rect x="648.282" y="181.658" width="168.574" height="1.89346" fill="#CBCDD5"/>
</g>
<g filter="url(#filter1_d)">
<rect x="476" y="159.288" width="168.574" height="1.89346" fill="#CBCDD5"/>
<rect x="476" y="162.444" width="168.574" height="1.89346" fill="#CBCDD5"/>
<rect x="476" y="165.6" width="168.574" height="1.89346" fill="#CBCDD5"/>
<rect x="476" y="168.755" width="168.574" height="1.89346" fill="#CBCDD5"/>
<rect x="476" y="171.911" width="168.574" height="1.89346" fill="#CBCDD5"/>
<rect x="476" y="175.067" width="168.574" height="1.89346" fill="#CBCDD5"/>
<rect x="476" y="178.223" width="168.574" height="1.89346" fill="#CBCDD5"/>
<rect x="476" y="181.379" width="168.574" height="1.89346" fill="#CBCDD5"/>
</g>
<g filter="url(#filter2_d)">
<rect x="476" y="134" width="168.574" height="1.89346" fill="#CBCDD5"/>
<rect x="476" y="137.156" width="168.574" height="1.89346" fill="#CBCDD5"/>
<rect x="476" y="140.312" width="168.574" height="1.89346" fill="#CBCDD5"/>
<rect x="476" y="143.467" width="168.574" height="1.89346" fill="#CBCDD5"/>
<rect x="476" y="146.623" width="168.574" height="1.89346" fill="#CBCDD5"/>
<rect x="476" y="149.779" width="168.574" height="1.89346" fill="#CBCDD5"/>
<rect x="476" y="152.935" width="168.574" height="1.89346" fill="#CBCDD5"/>
<rect x="476" y="156.091" width="168.574" height="1.89346" fill="#CBCDD5"/>
</g>
<g filter="url(#filter3_dd)">
<path d="M973.776 101.723H965.041H963.359L949.042 93.3189H949.586V91.5707H947.528V84.4183V84.225L955.033 87.289L954.987 89.6844L956.832 90.5923L958.902 88.9483L958.939 88.8747L959.769 87.2492L959.748 87.24L959.788 87.1572L959.84 84.5225L957.995 83.6147L955.925 85.2556L955.885 85.3353L946.486 80.7071L922.834 55.2625C923.972 54.143 924.074 52.3212 923.019 51.0882C921.918 49.7908 919.971 49.6313 918.67 50.7293C918.498 50.8735 918.347 51.036 918.218 51.2047L907.192 50.6619L881.353 60.5962L880.793 60.8109C879.775 60.2281 878.456 60.3048 877.509 61.1053C876.3 62.1267 876.152 63.9332 877.177 65.1385C877.29 65.2704 877.413 65.39 877.546 65.4974V90.2518L876.232 90.2641V92.0154L876.648 92.0124L872.68 93.9569H858V111.007H900.185V93.9569H886.271L882.507 91.9357V90.2028L881.384 90.215V65.3164C881.864 64.841 882.144 64.2337 882.211 63.5988L882.71 63.4915L910.212 57.5107L912.073 61.366L934.466 108.112C931.873 108.112 929.013 108.112 928.453 108.112C927.146 108.112 927.146 109.323 927.146 109.323V109.584V111.252V111.872H926.909V112.448H927.146V114.93V114.96L929.216 120.184C929.216 120.184 929.358 120.503 929.708 120.503C930.013 120.503 930.33 120.503 930.64 120.503C931.009 120.503 932.067 120.503 933.288 120.503C933.894 120.503 934.543 120.503 935.164 120.503C936.887 120.503 938.425 120.503 938.425 120.503H938.954H939.018V122.53V124.744H934.891V128.023H937.271V133.047V133.234V133.912H938.046L922.994 153.216L924.138 155.55H924.157L924.061 164H927.848L929.112 157.041H959.791L961.052 164H964.835L964.74 155.55H964.9L966.047 153.222L951.115 133.912H951.837V133.047V129.78V128.029H952.569H954.218V124.75H950.09V121.509V120.506H963.897V119.359H964.029V119.23H964.106C964.783 119.23 965.862 119.061 966.505 118.856L973.831 116.512C974.474 116.307 975 115.586 975 114.911V114.841V114.365V114.23V114.184V113.924V113.571V111.016V110.403V107.848V107.234V104.679V104.066V103.486V102.94C975.006 102.272 974.452 101.723 973.776 101.723ZM873.879 93.96L877.872 92.0032L881.461 91.9664L885.17 93.96H873.879ZM878.075 90.2518V65.847C878.945 66.2856 880.003 66.2549 880.861 65.7305V90.2212L878.075 90.2518ZM918.937 55.6183C919.685 56.1274 920.614 56.2746 921.472 56.0446L941.863 77.9866L941.079 78.7748L939.753 78.4497L939.166 79.8084L940.381 80.5844L940.494 81.3542L933.716 92.543L914.81 57.6916L914.241 56.6396L918.937 55.6183ZM951.751 101.723H951.016C950.933 101.723 950.85 101.732 950.773 101.747C950.77 101.747 950.767 101.747 950.764 101.75C950.699 101.763 950.641 101.784 950.583 101.806C950.118 101.98 949.786 102.425 949.786 102.95V104.075V104.689V107.244V107.857V110.412V111.025V113.58V113.933H949.632V114.85H949.786V118.08V118.285H949.552V118.417H948.571H947.532V117.028V116.334V94.2207L960.332 101.735H951.751V101.723ZM938.849 91.5707V93.3189H940.907V101.52L938.557 101.474L934.559 94.1072L941.556 82.5565L943.509 83.2681L941.239 91.5738L938.849 91.5707ZM927.768 110.203H932.682V111.878H927.768V110.203ZM927.768 114.847V112.455H932.682V115.678V119.892H929.767L927.768 114.847ZM938.963 111.084L940.91 111.933V117.012V118.374V118.402H938.963V111.084ZM940.91 143.043H938.886V144.791H940.91V152.538L935.835 141.475L940.91 134.964V143.043ZM947.532 152.664V145.916V144.791H949.623V143.043H947.532V135.295V134.01L953.046 141.141L947.759 152.664H947.532ZM934.128 143.662L938.258 152.667H927.109L934.128 143.662ZM950.463 152.664L954.741 143.337L961.953 152.664H950.463Z" fill="#F2F4F7"/>
</g>
<g filter="url(#filter4_dd)">
<path d="M617.68 57.5836H622.533H623.467L631.421 52.9394H631.119V51.9733H632.262V48.0206V47.9138L628.093 49.6071L628.118 50.9309L627.093 51.4326L625.943 50.5241L625.923 50.4834L625.461 49.5851L625.473 49.58L625.451 49.5342L625.422 48.0782L626.447 47.5765L627.597 48.4833L627.619 48.5274L632.841 45.9697L645.981 31.9082C645.349 31.2896 645.292 30.2828 645.878 29.6014C646.49 28.8844 647.572 28.7963 648.295 29.4031C648.39 29.4827 648.474 29.5726 648.546 29.6658L654.671 29.3658L669.026 34.8558L669.337 34.9744C669.903 34.6524 670.636 34.6948 671.162 35.1371C671.833 35.7016 671.915 36.6999 671.346 37.366C671.283 37.4389 671.215 37.505 671.141 37.5643V51.2444L671.871 51.2512V52.219L671.64 52.2174L673.844 53.292H682V62.7143H658.564V53.292H666.294L668.385 52.175V51.2173L669.009 51.2241V37.4643C668.742 37.2016 668.587 36.866 668.549 36.5152L668.272 36.4558L652.993 33.1506L651.96 35.2812L639.519 61.1143C640.959 61.1143 642.548 61.1143 642.859 61.1143C643.585 61.1143 643.585 61.7838 643.585 61.7838V61.9278V62.8499V63.1923H643.717V63.5109H643.585V64.8822V64.8991L642.435 67.7857C642.435 67.7857 642.357 67.9619 642.162 67.9619C641.993 67.9619 641.817 67.9619 641.644 67.9619C641.439 67.9619 640.852 67.9619 640.173 67.9619C639.837 67.9619 639.476 67.9619 639.131 67.9619C638.174 67.9619 637.32 67.9619 637.32 67.9619H637.026H636.99V69.0823V70.3061H639.283V72.118H637.96V74.8944V74.9978V75.3723H637.53L645.892 86.0405L645.256 87.3304H645.246L645.299 92H643.196L642.494 88.1541H625.449L624.749 92H622.647L622.7 87.3304H622.611L621.974 86.0439L630.27 75.3723H629.868V74.8944V73.0892V72.1214H629.461H628.546V70.3095H630.839V68.5179V67.9636H623.168V67.3297H623.095V67.2585H623.052C622.676 67.2585 622.077 67.1653 621.719 67.0517L617.649 65.7568C617.292 65.6432 617 65.2449 617 64.872V64.833V64.5703V64.4957V64.4703V64.3262V64.1313V62.7194V62.3804V60.9685V60.6295V59.2176V58.8786V58.5582V58.2565C616.997 57.887 617.304 57.5836 617.68 57.5836ZM673.178 53.2937L670.96 52.2123L668.966 52.1919L666.905 53.2937H673.178ZM670.847 51.2444V37.7576C670.364 37.9999 669.776 37.983 669.299 37.6932V51.2275L670.847 51.2444ZM648.146 32.1048C647.731 32.3862 647.215 32.4676 646.738 32.3404L635.409 44.4663L635.845 44.9019L636.582 44.7222L636.908 45.4731L636.233 45.9019L636.17 46.3273L639.936 52.5106L650.439 33.2506L650.755 32.6693L648.146 32.1048ZM629.916 57.5836H630.324C630.37 57.5836 630.417 57.5887 630.459 57.5972C630.461 57.5972 630.463 57.5972 630.464 57.5989C630.5 57.6057 630.533 57.6175 630.565 57.6294C630.823 57.726 631.008 57.9718 631.008 58.2616V58.8837V59.2227V60.6346V60.9736V62.3855V62.7245V64.1364V64.3313H631.093V64.8381H631.008V66.6229V66.7365H631.138V66.8094H631.683H632.26V66.0415V65.6585V53.4377L625.149 57.5904H629.916V57.5836ZM637.084 51.9733V52.9394H635.941V57.4718L637.246 57.4463L639.467 53.375L635.58 46.9918L634.495 47.385L635.756 51.975L637.084 51.9733ZM643.24 62.2702H640.51V63.1957H643.24V62.2702ZM643.24 64.8364V63.5143H640.51V65.2957V67.6246H642.13L643.24 64.8364ZM637.021 62.7567L635.939 63.2262V66.0331V66.7856V66.8009H637.021V62.7567ZM635.939 80.4183H637.063V81.3844H635.939V85.6659L638.758 79.5521L635.939 75.9537V80.4183ZM632.26 85.7354V82.0065V81.3844H631.098V80.4183H632.26V76.1368V75.4266L629.197 79.3674L632.134 85.7354H632.26ZM639.707 80.7607L637.412 85.7371H643.606L639.707 80.7607ZM630.632 85.7354L628.255 80.581L624.248 85.7354H630.632Z" fill="#F2F4F7"/>
</g>
<g filter="url(#filter5_d)">
<path d="M933.02 174.54C930.936 177.818 923.472 190.586 920 196.561H1072.18C1070.45 191.269 1065.65 173.516 1062.64 169.419C1058.88 164.297 1059.16 160.201 1055.11 154.568C1051.06 148.934 1043.54 141.765 1039.2 141.765C1035.73 141.765 1011.91 138.692 1000.43 137.156C997.153 136.985 990.19 136.746 988.57 137.156C986.544 137.668 973.236 140.741 970.632 141.765C968.028 142.789 962.241 145.35 960.216 148.423C958.191 151.495 955.297 146.886 953.851 148.423C952.404 149.959 951.247 155.08 949.511 157.129C947.775 159.177 941.989 164.298 940.542 165.834C939.095 167.371 935.623 170.443 933.02 174.54Z" fill="white"/>
</g>
<g filter="url(#filter6_d)">
<path d="M966.618 170.685C961.063 173.963 957.552 182.976 956.491 187.073L1155.55 191.17C1156.32 186.561 1157.4 176.319 1155.55 172.222C1153.23 167.101 1145.13 142.007 1136.16 127.668C1127.19 113.329 1092.76 112.817 1085.53 110.257C1078.3 107.696 1067.3 111.793 1058.04 112.817C1048.79 113.841 1051.39 111.281 1045.89 107.184C1040.4 103.087 1039.53 107.184 1036.92 107.184C1034.32 107.184 1027.09 114.866 1025.35 118.45C1023.61 122.035 1020.14 121.011 1016.38 125.108C1012.62 129.205 1013.78 132.277 1009.73 138.935C1005.68 145.592 992.078 154.81 985.134 159.419C978.191 164.028 973.561 166.588 966.618 170.685Z" fill="white"/>
</g>
<g filter="url(#filter7_d)">
<path d="M1060.07 132.789C1052.2 139.344 1033.64 173.416 1025.35 189.633L1108.68 205.509H1295V50.3398C1287.38 46.9257 1271.22 39.3807 1267.51 36.5129C1262.88 32.9281 1252.76 31.3918 1246.39 29.3433C1240.03 27.2949 1224.4 17.0525 1209.94 16.0283C1195.47 15.004 1159.89 42.1458 1153.52 44.1942C1147.16 46.2427 1129.22 65.1907 1126.9 67.7513C1124.59 70.3118 1097.97 98.9899 1091.89 103.599C1085.82 108.208 1069.91 124.595 1060.07 132.789Z" fill="white"/>
</g>
<defs>
<filter id="filter0_d" x="648.282" y="158.567" width="168.574" height="24.984" filterUnits="userSpaceOnUse" color-interpolation-filters="sRGB">
<feFlood flood-opacity="0" result="BackgroundImageFix"/>
<feColorMatrix in="SourceAlpha" type="matrix" values="0 0 0 0 0 0 0 0 0 0 0 0 0 0 0 0 0 0 127 0"/>
<feOffset dy="-1"/>
<feColorMatrix type="matrix" values="0 0 0 0 1 0 0 0 0 1 0 0 0 0 1 0 0 0 1 0"/>
<feBlend mode="normal" in2="BackgroundImageFix" result="effect1_dropShadow"/>
<feBlend mode="normal" in="SourceGraphic" in2="effect1_dropShadow" result="shape"/>
</filter>
<filter id="filter1_d" x="476" y="158.288" width="168.574" height="24.984" filterUnits="userSpaceOnUse" color-interpolation-filters="sRGB">
<feFlood flood-opacity="0" result="BackgroundImageFix"/>
<feColorMatrix in="SourceAlpha" type="matrix" values="0 0 0 0 0 0 0 0 0 0 0 0 0 0 0 0 0 0 127 0"/>
<feOffset dy="-1"/>
<feColorMatrix type="matrix" values="0 0 0 0 1 0 0 0 0 1 0 0 0 0 1 0 0 0 1 0"/>
<feBlend mode="normal" in2="BackgroundImageFix" result="effect1_dropShadow"/>
<feBlend mode="normal" in="SourceGraphic" in2="effect1_dropShadow" result="shape"/>
</filter>
<filter id="filter2_d" x="476" y="133" width="168.574" height="24.984" filterUnits="userSpaceOnUse" color-interpolation-filters="sRGB">
<feFlood flood-opacity="0" result="BackgroundImageFix"/>
<feColorMatrix in="SourceAlpha" type="matrix" values="0 0 0 0 0 0 0 0 0 0 0 0 0 0 0 0 0 0 127 0"/>
<feOffset dy="-1"/>
<feColorMatrix type="matrix" values="0 0 0 0 1 0 0 0 0 1 0 0 0 0 1 0 0 0 1 0"/>
<feBlend mode="normal" in2="BackgroundImageFix" result="effect1_dropShadow"/>
<feBlend mode="normal" in="SourceGraphic" in2="effect1_dropShadow" result="shape"/>
</filter>
<filter id="filter3_dd" x="848" y="37" width="137" height="134" filterUnits="userSpaceOnUse" color-interpolation-filters="sRGB">
<feFlood flood-opacity="0" result="BackgroundImageFix"/>
<feColorMatrix in="SourceAlpha" type="matrix" values="0 0 0 0 0 0 0 0 0 0 0 0 0 0 0 0 0 0 127 0"/>
<feOffset dy="-3"/>
<feGaussianBlur stdDeviation="5"/>
<feColorMatrix type="matrix" values="0 0 0 0 0.574269 0 0 0 0 0.569878 0 0 0 0 0.604451 0 0 0 0.2 0"/>
<feBlend mode="normal" in2="BackgroundImageFix" result="effect1_dropShadow"/>
<feColorMatrix in="SourceAlpha" type="matrix" values="0 0 0 0 0 0 0 0 0 0 0 0 0 0 0 0 0 0 127 0"/>
<feOffset dy="-1"/>
<feColorMatrix type="matrix" values="0 0 0 0 1 0 0 0 0 1 0 0 0 0 1 0 0 0 1 0"/>
<feBlend mode="normal" in2="effect1_dropShadow" result="effect2_dropShadow"/>
<feBlend mode="normal" in="SourceGraphic" in2="effect2_dropShadow" result="shape"/>
</filter>
<filter id="filter4_dd" x="612" y="22" width="75" height="73" filterUnits="userSpaceOnUse" color-interpolation-filters="sRGB">
<feFlood flood-opacity="0" result="BackgroundImageFix"/>
<feColorMatrix in="SourceAlpha" type="matrix" values="0 0 0 0 0 0 0 0 0 0 0 0 0 0 0 0 0 0 127 0"/>
<feOffset dy="-2"/>
<feGaussianBlur stdDeviation="2.5"/>
<feColorMatrix type="matrix" values="0 0 0 0 0.574269 0 0 0 0 0.569878 0 0 0 0 0.604451 0 0 0 0.17 0"/>
<feBlend mode="normal" in2="BackgroundImageFix" result="effect1_dropShadow"/>
<feColorMatrix in="SourceAlpha" type="matrix" values="0 0 0 0 0 0 0 0 0 0 0 0 0 0 0 0 0 0 127 0"/>
<feOffset dy="-1"/>
<feColorMatrix type="matrix" values="0 0 0 0 1 0 0 0 0 1 0 0 0 0 1 0 0 0 1 0"/>
<feBlend mode="normal" in2="effect1_dropShadow" result="effect2_dropShadow"/>
<feBlend mode="normal" in="SourceGraphic" in2="effect2_dropShadow" result="shape"/>
</filter>
<filter id="filter5_d" x="908" y="120.93" width="176.184" height="83.631" filterUnits="userSpaceOnUse" color-interpolation-filters="sRGB">
<feFlood flood-opacity="0" result="BackgroundImageFix"/>
<feColorMatrix in="SourceAlpha" type="matrix" values="0 0 0 0 0 0 0 0 0 0 0 0 0 0 0 0 0 0 127 0"/>
<feOffset dy="-4"/>
<feGaussianBlur stdDeviation="6"/>
<feColorMatrix type="matrix" values="0 0 0 0 0.701961 0 0 0 0 0.717647 0 0 0 0 0.745098 0 0 0 0.2 0"/>
<feBlend mode="normal" in2="BackgroundImageFix" result="effect1_dropShadow"/>
<feBlend mode="normal" in="SourceGraphic" in2="effect1_dropShadow" result="shape"/>
</filter>
<filter id="filter6_d" x="944.491" y="89.363" width="224.077" height="109.807" filterUnits="userSpaceOnUse" color-interpolation-filters="sRGB">
<feFlood flood-opacity="0" result="BackgroundImageFix"/>
<feColorMatrix in="SourceAlpha" type="matrix" values="0 0 0 0 0 0 0 0 0 0 0 0 0 0 0 0 0 0 127 0"/>
<feOffset dy="-4"/>
<feGaussianBlur stdDeviation="6"/>
<feColorMatrix type="matrix" values="0 0 0 0 0.701961 0 0 0 0 0.717647 0 0 0 0 0.745098 0 0 0 0.2 0"/>
<feBlend mode="normal" in2="BackgroundImageFix" result="effect1_dropShadow"/>
<feBlend mode="normal" in="SourceGraphic" in2="effect1_dropShadow" result="shape"/>
</filter>
<filter id="filter7_d" x="1013.35" y="0" width="293.649" height="213.509" filterUnits="userSpaceOnUse" color-interpolation-filters="sRGB">
<feFlood flood-opacity="0" result="BackgroundImageFix"/>
<feColorMatrix in="SourceAlpha" type="matrix" values="0 0 0 0 0 0 0 0 0 0 0 0 0 0 0 0 0 0 127 0"/>
<feOffset dy="-4"/>
<feGaussianBlur stdDeviation="6"/>
<feColorMatrix type="matrix" values="0 0 0 0 0.701961 0 0 0 0 0.717647 0 0 0 0 0.745098 0 0 0 0.2 0"/>
<feBlend mode="normal" in2="BackgroundImageFix" result="effect1_dropShadow"/>
<feBlend mode="normal" in="SourceGraphic" in2="effect1_dropShadow" result="shape"/>
</filter>
</defs>
</svg>
