<svg width="115" height="44" viewBox="0 0 115 44" fill="none" xmlns="http://www.w3.org/2000/svg">
<g filter="url(#filter0_dd)">
<path d="M104.792 11.7532H100.873V20.1328H98.0615V16.2172H94.1424L94.146 6H91.3347V16.2172H86.1333V20.99H88.211V28.3162H4L12.4813 41.5852H102.519C107.204 41.5852 111 37.7859 111 33.1039V28.3203H104.789L104.792 11.7532Z" fill="#F2F4F7"/>
<path d="M78.545 13.5879H68.5742V18.9128H78.545V13.5879Z" fill="#F2F4F7"/>
<path d="M66.7404 13.5879H56.7659V18.9128H66.7404V13.5879Z" fill="#F2F4F7"/>
<path d="M54.936 13.5879H44.9614V18.9128H54.936V13.5879Z" fill="#F2F4F7"/>
<path d="M78.545 21.1243H68.5742V26.4492H78.545V21.1243Z" fill="#F2F4F7"/>
<path d="M66.7404 21.1243H56.7659V26.4492H66.7404V21.1243Z" fill="#F2F4F7"/>
<path d="M54.936 21.1243H44.9614V26.4492H54.936V21.1243Z" fill="#F2F4F7"/>
<path d="M43.075 21.1243H33.1004V26.4492H43.075V21.1243Z" fill="#F2F4F7"/>
</g>
<defs>
<filter id="filter0_dd" x="0" y="0" width="115" height="43.5852" filterUnits="userSpaceOnUse" color-interpolation-filters="sRGB">
<feFlood flood-opacity="0" result="BackgroundImageFix"/>
<feColorMatrix in="SourceAlpha" type="matrix" values="0 0 0 0 0 0 0 0 0 0 0 0 0 0 0 0 0 0 127 0"/>
<feOffset dy="-2"/>
<feGaussianBlur stdDeviation="2"/>
<feColorMatrix type="matrix" values="0 0 0 0 0.574269 0 0 0 0 0.569878 0 0 0 0 0.604451 0 0 0 0.1 0"/>
<feBlend mode="normal" in2="BackgroundImageFix" result="effect1_dropShadow"/>
<feColorMatrix in="SourceAlpha" type="matrix" values="0 0 0 0 0 0 0 0 0 0 0 0 0 0 0 0 0 0 127 0"/>
<feOffset dy="-1"/>
<feColorMatrix type="matrix" values="0 0 0 0 1 0 0 0 0 1 0 0 0 0 1 0 0 0 1 0"/>
<feBlend mode="normal" in2="effect1_dropShadow" result="effect2_dropShadow"/>
<feBlend mode="normal" in="SourceGraphic" in2="effect2_dropShadow" result="shape"/>
</filter>
</defs>
</svg>
