<svg width="820" height="214" viewBox="0 0 820 214" fill="none" xmlns="http://www.w3.org/2000/svg">
<g filter="url(#filter0_d)">
<rect x="172.282" y="159.567" width="168.574" height="1.89346" fill="#CBCDD5"/>
<rect x="172.282" y="162.723" width="168.574" height="1.89346" fill="#CBCDD5"/>
<rect x="172.282" y="165.879" width="168.574" height="1.89346" fill="#CBCDD5"/>
<rect x="172.282" y="169.034" width="168.574" height="1.89346" fill="#CBCDD5"/>
<rect x="172.282" y="172.19" width="168.574" height="1.89346" fill="#CBCDD5"/>
<rect x="172.282" y="175.346" width="168.574" height="1.89346" fill="#CBCDD5"/>
<rect x="172.282" y="178.502" width="168.574" height="1.89346" fill="#CBCDD5"/>
<rect x="172.282" y="181.658" width="168.574" height="1.89346" fill="#CBCDD5"/>
</g>
<g filter="url(#filter1_d)">
<rect y="159.288" width="168.574" height="1.89346" fill="#CBCDD5"/>
<rect y="162.444" width="168.574" height="1.89346" fill="#CBCDD5"/>
<rect y="165.6" width="168.574" height="1.89346" fill="#CBCDD5"/>
<rect y="168.755" width="168.574" height="1.89346" fill="#CBCDD5"/>
<rect y="171.911" width="168.574" height="1.89346" fill="#CBCDD5"/>
<rect y="175.067" width="168.574" height="1.89346" fill="#CBCDD5"/>
<rect y="178.223" width="168.574" height="1.89346" fill="#CBCDD5"/>
<rect y="181.379" width="168.574" height="1.89346" fill="#CBCDD5"/>
</g>
<g filter="url(#filter2_d)">
<rect y="134" width="168.574" height="1.89346" fill="#CBCDD5"/>
<rect y="137.156" width="168.574" height="1.89346" fill="#CBCDD5"/>
<rect y="140.312" width="168.574" height="1.89346" fill="#CBCDD5"/>
<rect y="143.467" width="168.574" height="1.89346" fill="#CBCDD5"/>
<rect y="146.623" width="168.574" height="1.89346" fill="#CBCDD5"/>
<rect y="149.779" width="168.574" height="1.89346" fill="#CBCDD5"/>
<rect y="152.935" width="168.574" height="1.89346" fill="#CBCDD5"/>
<rect y="156.091" width="168.574" height="1.89346" fill="#CBCDD5"/>
</g>
<g filter="url(#filter3_dd)">
<path d="M497.776 101.723H489.041H487.359L473.042 93.3189H473.586V91.5707H471.528V84.4183V84.225L479.033 87.289L478.987 89.6844L480.832 90.5923L482.902 88.9483L482.939 88.8747L483.769 87.2492L483.748 87.24L483.788 87.1572L483.84 84.5225L481.995 83.6147L479.925 85.2556L479.885 85.3353L470.486 80.7071L446.834 55.2625C447.972 54.143 448.074 52.3212 447.019 51.0882C445.918 49.7908 443.971 49.6313 442.67 50.7293C442.498 50.8735 442.347 51.036 442.218 51.2047L431.192 50.6619L405.353 60.5962L404.793 60.8109C403.775 60.2281 402.456 60.3048 401.509 61.1053C400.3 62.1267 400.152 63.9332 401.177 65.1385C401.29 65.2704 401.413 65.39 401.546 65.4974V90.2518L400.232 90.2641V92.0154L400.648 92.0124L396.68 93.9569H382V111.007H424.185V93.9569H410.271L406.507 91.9357V90.2028L405.384 90.215V65.3164C405.864 64.841 406.144 64.2337 406.211 63.5988L406.71 63.4915L434.212 57.5107L436.073 61.366L458.466 108.112C455.873 108.112 453.013 108.112 452.453 108.112C451.146 108.112 451.146 109.323 451.146 109.323V109.584V111.252V111.872H450.909V112.448H451.146V114.93V114.96L453.216 120.184C453.216 120.184 453.358 120.503 453.708 120.503C454.013 120.503 454.33 120.503 454.64 120.503C455.009 120.503 456.067 120.503 457.288 120.503C457.894 120.503 458.543 120.503 459.164 120.503C460.887 120.503 462.425 120.503 462.425 120.503H462.954H463.018V122.53V124.744H458.891V128.023H461.271V133.047V133.234V133.912H462.046L446.994 153.216L448.138 155.55H448.157L448.061 164H451.848L453.112 157.041H483.791L485.052 164H488.835L488.74 155.55H488.9L490.047 153.222L475.115 133.912H475.837V133.047V129.78V128.029H476.569H478.218V124.75H474.09V121.509V120.506H487.897V119.359H488.029V119.23H488.106C488.783 119.23 489.862 119.061 490.505 118.856L497.831 116.512C498.474 116.307 499 115.586 499 114.911V114.841V114.365V114.23V114.184V113.924V113.571V111.016V110.403V107.848V107.234V104.679V104.066V103.486V102.94C499.006 102.272 498.452 101.723 497.776 101.723ZM397.879 93.96L401.872 92.0032L405.461 91.9664L409.17 93.96H397.879ZM402.075 90.2518V65.847C402.945 66.2856 404.003 66.2549 404.861 65.7305V90.2212L402.075 90.2518ZM442.937 55.6183C443.685 56.1274 444.614 56.2746 445.472 56.0446L465.863 77.9866L465.079 78.7748L463.753 78.4497L463.166 79.8084L464.381 80.5844L464.494 81.3542L457.716 92.543L438.81 57.6916L438.241 56.6396L442.937 55.6183ZM475.751 101.723H475.016C474.933 101.723 474.85 101.732 474.773 101.747C474.77 101.747 474.767 101.747 474.764 101.75C474.699 101.763 474.641 101.784 474.583 101.806C474.118 101.98 473.786 102.425 473.786 102.95V104.075V104.689V107.244V107.857V110.412V111.025V113.58V113.933H473.632V114.85H473.786V118.08V118.285H473.552V118.417H472.571H471.532V117.028V116.334V94.2207L484.332 101.735H475.751V101.723ZM462.849 91.5707V93.3189H464.907V101.52L462.557 101.474L458.559 94.1072L465.556 82.5565L467.509 83.2681L465.239 91.5738L462.849 91.5707ZM451.768 110.203H456.682V111.878H451.768V110.203ZM451.768 114.847V112.455H456.682V115.678V119.892H453.767L451.768 114.847ZM462.963 111.084L464.91 111.933V117.012V118.374V118.402H462.963V111.084ZM464.91 143.043H462.886V144.791H464.91V152.538L459.835 141.475L464.91 134.964V143.043ZM471.532 152.664V145.916V144.791H473.623V143.043H471.532V135.295V134.01L477.046 141.141L471.759 152.664H471.532ZM458.128 143.662L462.258 152.667H451.109L458.128 143.662ZM474.463 152.664L478.741 143.337L485.953 152.664H474.463Z" fill="#F2F4F7"/>
</g>
<g filter="url(#filter4_dd)">
<path d="M141.68 57.5836H146.533H147.467L155.421 52.9394H155.119V51.9733H156.262V48.0206V47.9138L152.093 49.6071L152.118 50.9309L151.093 51.4326L149.943 50.5241L149.923 50.4834L149.461 49.5851L149.473 49.58L149.451 49.5342L149.422 48.0782L150.447 47.5765L151.597 48.4833L151.619 48.5274L156.841 45.9697L169.981 31.9082C169.349 31.2896 169.292 30.2828 169.878 29.6014C170.49 28.8844 171.572 28.7963 172.295 29.4031C172.39 29.4827 172.474 29.5726 172.546 29.6658L178.671 29.3658L193.026 34.8558L193.337 34.9744C193.903 34.6524 194.636 34.6948 195.162 35.1371C195.833 35.7016 195.915 36.6999 195.346 37.366C195.283 37.4389 195.215 37.505 195.141 37.5643V51.2444L195.871 51.2512V52.219L195.64 52.2174L197.844 53.292H206V62.7143H182.564V53.292H190.294L192.385 52.175V51.2173L193.009 51.2241V37.4643C192.742 37.2016 192.587 36.866 192.549 36.5152L192.272 36.4558L176.993 33.1506L175.96 35.2812L163.519 61.1143C164.959 61.1143 166.548 61.1143 166.859 61.1143C167.585 61.1143 167.585 61.7838 167.585 61.7838V61.9278V62.8499V63.1923H167.717V63.5109H167.585V64.8822V64.8991L166.435 67.7857C166.435 67.7857 166.357 67.9619 166.162 67.9619C165.993 67.9619 165.817 67.9619 165.644 67.9619C165.439 67.9619 164.852 67.9619 164.173 67.9619C163.837 67.9619 163.476 67.9619 163.131 67.9619C162.174 67.9619 161.32 67.9619 161.32 67.9619H161.026H160.99V69.0823V70.3061H163.283V72.118H161.96V74.8944V74.9978V75.3723H161.53L169.892 86.0405L169.256 87.3304H169.246L169.299 92H167.196L166.494 88.1541H149.449L148.749 92H146.647L146.7 87.3304H146.611L145.974 86.0439L154.27 75.3723H153.868V74.8944V73.0892V72.1214H153.461H152.546V70.3095H154.839V68.5179V67.9636H147.168V67.3297H147.095V67.2585H147.052C146.676 67.2585 146.077 67.1653 145.719 67.0517L141.649 65.7568C141.292 65.6432 141 65.2449 141 64.872V64.833V64.5703V64.4957V64.4703V64.3262V64.1313V62.7194V62.3804V60.9685V60.6295V59.2176V58.8786V58.5582V58.2565C140.997 57.887 141.304 57.5836 141.68 57.5836ZM197.178 53.2937L194.96 52.2123L192.966 52.1919L190.905 53.2937H197.178ZM194.847 51.2444V37.7576C194.364 37.9999 193.776 37.983 193.299 37.6932V51.2275L194.847 51.2444ZM172.146 32.1048C171.731 32.3862 171.215 32.4676 170.738 32.3404L159.409 44.4663L159.845 44.9019L160.582 44.7222L160.908 45.4731L160.233 45.9019L160.17 46.3273L163.936 52.5106L174.439 33.2506L174.755 32.6693L172.146 32.1048ZM153.916 57.5836H154.324C154.37 57.5836 154.417 57.5887 154.459 57.5972C154.461 57.5972 154.463 57.5972 154.464 57.5989C154.5 57.6057 154.533 57.6175 154.565 57.6294C154.823 57.726 155.008 57.9718 155.008 58.2616V58.8837V59.2227V60.6346V60.9736V62.3855V62.7245V64.1364V64.3313H155.093V64.8381H155.008V66.6229V66.7365H155.138V66.8094H155.683H156.26V66.0415V65.6585V53.4377L149.149 57.5904H153.916V57.5836ZM161.084 51.9733V52.9394H159.941V57.4718L161.246 57.4463L163.467 53.375L159.58 46.9918L158.495 47.385L159.756 51.975L161.084 51.9733ZM167.24 62.2702H164.51V63.1957H167.24V62.2702ZM167.24 64.8364V63.5143H164.51V65.2957V67.6246H166.13L167.24 64.8364ZM161.021 62.7567L159.939 63.2262V66.0331V66.7856V66.8009H161.021V62.7567ZM159.939 80.4183H161.063V81.3844H159.939V85.6659L162.758 79.5521L159.939 75.9537V80.4183ZM156.26 85.7354V82.0065V81.3844H155.098V80.4183H156.26V76.1368V75.4266L153.197 79.3674L156.134 85.7354H156.26ZM163.707 80.7607L161.412 85.7371H167.606L163.707 80.7607ZM154.632 85.7354L152.255 80.581L148.248 85.7354H154.632Z" fill="#F2F4F7"/>
</g>
<g filter="url(#filter5_d)">
<path d="M457.02 174.54C454.936 177.818 447.472 190.586 444 196.561H596.184C594.448 191.269 589.645 173.516 586.636 169.419C582.875 164.297 583.165 160.201 579.114 154.568C575.064 148.934 567.541 141.765 563.201 141.765C559.729 141.765 535.908 138.692 524.432 137.156C521.153 136.985 514.19 136.746 512.57 137.156C510.544 137.668 497.236 140.741 494.632 141.765C492.028 142.789 486.241 145.35 484.216 148.423C482.191 151.495 479.297 146.886 477.851 148.423C476.404 149.959 475.247 155.08 473.511 157.129C471.775 159.177 465.989 164.298 464.542 165.834C463.095 167.371 459.623 170.443 457.02 174.54Z" fill="white"/>
</g>
<g filter="url(#filter6_d)">
<path d="M490.618 170.685C485.063 173.963 481.552 182.976 480.491 187.073L679.546 191.17C680.317 186.561 681.398 176.319 679.546 172.222C677.231 167.101 669.13 142.007 660.161 127.668C651.192 113.329 616.763 112.817 609.53 110.257C602.297 107.696 591.302 111.793 582.044 112.817C572.786 113.841 575.389 111.281 569.892 107.184C564.395 103.087 563.527 107.184 560.923 107.184C558.319 107.184 551.086 114.866 549.35 118.45C547.614 122.035 544.143 121.011 540.381 125.108C536.62 129.205 537.777 132.277 533.727 138.935C529.676 145.592 516.078 154.81 509.134 159.419C502.191 164.028 497.561 166.588 490.618 170.685Z" fill="white"/>
</g>
<g filter="url(#filter7_d)">
<path d="M584.069 132.789C576.2 139.344 557.644 173.416 549.35 189.633L632.676 205.509H819V50.3398C811.381 46.9257 795.217 39.3807 791.514 36.5129C786.885 32.9281 776.759 31.3918 770.394 29.3433C764.028 27.2949 748.405 17.0525 733.939 16.0283C719.473 15.004 683.886 42.1458 677.521 44.1942C671.156 46.2427 653.218 65.1907 650.903 67.7513C648.588 70.3118 621.971 98.9899 615.895 103.599C609.819 108.208 593.906 124.595 584.069 132.789Z" fill="white"/>
</g>
<defs>
<filter id="filter0_d" x="172.282" y="158.567" width="168.574" height="24.984" filterUnits="userSpaceOnUse" color-interpolation-filters="sRGB">
<feFlood flood-opacity="0" result="BackgroundImageFix"/>
<feColorMatrix in="SourceAlpha" type="matrix" values="0 0 0 0 0 0 0 0 0 0 0 0 0 0 0 0 0 0 127 0"/>
<feOffset dy="-1"/>
<feColorMatrix type="matrix" values="0 0 0 0 1 0 0 0 0 1 0 0 0 0 1 0 0 0 1 0"/>
<feBlend mode="normal" in2="BackgroundImageFix" result="effect1_dropShadow"/>
<feBlend mode="normal" in="SourceGraphic" in2="effect1_dropShadow" result="shape"/>
</filter>
<filter id="filter1_d" x="0" y="158.288" width="168.574" height="24.984" filterUnits="userSpaceOnUse" color-interpolation-filters="sRGB">
<feFlood flood-opacity="0" result="BackgroundImageFix"/>
<feColorMatrix in="SourceAlpha" type="matrix" values="0 0 0 0 0 0 0 0 0 0 0 0 0 0 0 0 0 0 127 0"/>
<feOffset dy="-1"/>
<feColorMatrix type="matrix" values="0 0 0 0 1 0 0 0 0 1 0 0 0 0 1 0 0 0 1 0"/>
<feBlend mode="normal" in2="BackgroundImageFix" result="effect1_dropShadow"/>
<feBlend mode="normal" in="SourceGraphic" in2="effect1_dropShadow" result="shape"/>
</filter>
<filter id="filter2_d" x="0" y="133" width="168.574" height="24.984" filterUnits="userSpaceOnUse" color-interpolation-filters="sRGB">
<feFlood flood-opacity="0" result="BackgroundImageFix"/>
<feColorMatrix in="SourceAlpha" type="matrix" values="0 0 0 0 0 0 0 0 0 0 0 0 0 0 0 0 0 0 127 0"/>
<feOffset dy="-1"/>
<feColorMatrix type="matrix" values="0 0 0 0 1 0 0 0 0 1 0 0 0 0 1 0 0 0 1 0"/>
<feBlend mode="normal" in2="BackgroundImageFix" result="effect1_dropShadow"/>
<feBlend mode="normal" in="SourceGraphic" in2="effect1_dropShadow" result="shape"/>
</filter>
<filter id="filter3_dd" x="372" y="37" width="137" height="134" filterUnits="userSpaceOnUse" color-interpolation-filters="sRGB">
<feFlood flood-opacity="0" result="BackgroundImageFix"/>
<feColorMatrix in="SourceAlpha" type="matrix" values="0 0 0 0 0 0 0 0 0 0 0 0 0 0 0 0 0 0 127 0"/>
<feOffset dy="-3"/>
<feGaussianBlur stdDeviation="5"/>
<feColorMatrix type="matrix" values="0 0 0 0 0.574269 0 0 0 0 0.569878 0 0 0 0 0.604451 0 0 0 0.2 0"/>
<feBlend mode="normal" in2="BackgroundImageFix" result="effect1_dropShadow"/>
<feColorMatrix in="SourceAlpha" type="matrix" values="0 0 0 0 0 0 0 0 0 0 0 0 0 0 0 0 0 0 127 0"/>
<feOffset dy="-1"/>
<feColorMatrix type="matrix" values="0 0 0 0 1 0 0 0 0 1 0 0 0 0 1 0 0 0 1 0"/>
<feBlend mode="normal" in2="effect1_dropShadow" result="effect2_dropShadow"/>
<feBlend mode="normal" in="SourceGraphic" in2="effect2_dropShadow" result="shape"/>
</filter>
<filter id="filter4_dd" x="136" y="22" width="75" height="73" filterUnits="userSpaceOnUse" color-interpolation-filters="sRGB">
<feFlood flood-opacity="0" result="BackgroundImageFix"/>
<feColorMatrix in="SourceAlpha" type="matrix" values="0 0 0 0 0 0 0 0 0 0 0 0 0 0 0 0 0 0 127 0"/>
<feOffset dy="-2"/>
<feGaussianBlur stdDeviation="2.5"/>
<feColorMatrix type="matrix" values="0 0 0 0 0.574269 0 0 0 0 0.569878 0 0 0 0 0.604451 0 0 0 0.17 0"/>
<feBlend mode="normal" in2="BackgroundImageFix" result="effect1_dropShadow"/>
<feColorMatrix in="SourceAlpha" type="matrix" values="0 0 0 0 0 0 0 0 0 0 0 0 0 0 0 0 0 0 127 0"/>
<feOffset dy="-1"/>
<feColorMatrix type="matrix" values="0 0 0 0 1 0 0 0 0 1 0 0 0 0 1 0 0 0 1 0"/>
<feBlend mode="normal" in2="effect1_dropShadow" result="effect2_dropShadow"/>
<feBlend mode="normal" in="SourceGraphic" in2="effect2_dropShadow" result="shape"/>
</filter>
<filter id="filter5_d" x="432" y="120.93" width="176.184" height="83.631" filterUnits="userSpaceOnUse" color-interpolation-filters="sRGB">
<feFlood flood-opacity="0" result="BackgroundImageFix"/>
<feColorMatrix in="SourceAlpha" type="matrix" values="0 0 0 0 0 0 0 0 0 0 0 0 0 0 0 0 0 0 127 0"/>
<feOffset dy="-4"/>
<feGaussianBlur stdDeviation="6"/>
<feColorMatrix type="matrix" values="0 0 0 0 0.701961 0 0 0 0 0.717647 0 0 0 0 0.745098 0 0 0 0.2 0"/>
<feBlend mode="normal" in2="BackgroundImageFix" result="effect1_dropShadow"/>
<feBlend mode="normal" in="SourceGraphic" in2="effect1_dropShadow" result="shape"/>
</filter>
<filter id="filter6_d" x="468.491" y="89.363" width="224.077" height="109.807" filterUnits="userSpaceOnUse" color-interpolation-filters="sRGB">
<feFlood flood-opacity="0" result="BackgroundImageFix"/>
<feColorMatrix in="SourceAlpha" type="matrix" values="0 0 0 0 0 0 0 0 0 0 0 0 0 0 0 0 0 0 127 0"/>
<feOffset dy="-4"/>
<feGaussianBlur stdDeviation="6"/>
<feColorMatrix type="matrix" values="0 0 0 0 0.701961 0 0 0 0 0.717647 0 0 0 0 0.745098 0 0 0 0.2 0"/>
<feBlend mode="normal" in2="BackgroundImageFix" result="effect1_dropShadow"/>
<feBlend mode="normal" in="SourceGraphic" in2="effect1_dropShadow" result="shape"/>
</filter>
<filter id="filter7_d" x="537.35" y="0" width="293.649" height="213.509" filterUnits="userSpaceOnUse" color-interpolation-filters="sRGB">
<feFlood flood-opacity="0" result="BackgroundImageFix"/>
<feColorMatrix in="SourceAlpha" type="matrix" values="0 0 0 0 0 0 0 0 0 0 0 0 0 0 0 0 0 0 127 0"/>
<feOffset dy="-4"/>
<feGaussianBlur stdDeviation="6"/>
<feColorMatrix type="matrix" values="0 0 0 0 0.701961 0 0 0 0 0.717647 0 0 0 0 0.745098 0 0 0 0.2 0"/>
<feBlend mode="normal" in2="BackgroundImageFix" result="effect1_dropShadow"/>
<feBlend mode="normal" in="SourceGraphic" in2="effect1_dropShadow" result="shape"/>
</filter>
</defs>
</svg>
