<svg width="561" height="148" viewBox="0 0 561 148" fill="none" xmlns="http://www.w3.org/2000/svg">
<g filter="url(#filter0_dd)">
<path fill-rule="evenodd" clip-rule="evenodd" d="M416.876 67.1663L416.877 67.1581L415.143 67.0377L414.134 66.9869L413.886 66.9707L412.87 66.8571L411.495 66.7969L410.232 86.2776C409.855 86.5087 409.576 86.6911 409.522 86.7272C409.402 85.523 409.103 83.4155 408.565 81.6091C408.555 81.4862 408.546 81.3614 408.538 81.2361C408.497 80.6254 408.454 80.0013 408.206 79.5017C407.907 78.9598 407.429 78.7189 406.951 78.7792C406.772 78.659 406.593 78.5389 406.414 78.5383C406.393 78.4327 406.355 78.3309 406.293 78.2372C406.173 78.0566 404.918 77.6351 404.858 77.876C404.846 77.9585 404.834 78.0409 404.822 78.1233C404.522 78.064 404.271 78.0372 404.176 78.0844C404.087 77.8543 404.006 77.6243 403.961 77.3943V77.2739C403.931 77.0953 403.902 76.9166 403.879 76.7454C404.005 76.6012 404.111 76.4299 404.2 76.2502C404.224 76.1771 404.258 76.1039 404.294 76.0267C404.347 75.9134 404.404 75.7914 404.439 75.6481L404.488 75.4995L404.604 75.4746C404.709 75.452 404.814 75.4293 404.918 75.4073C405.276 75.3471 405.755 75.1062 405.695 74.7449C405.695 74.6406 405.635 74.5563 405.573 74.4689C405.528 74.4051 405.481 74.3395 405.456 74.2632C405.32 73.9557 405.415 73.6094 405.512 73.2573C405.586 72.989 405.661 72.7173 405.635 72.4569C405.616 72.3066 405.569 72.1622 405.499 72.0254C405.742 71.955 405.839 71.8259 405.874 71.6139C405.878 71.594 405.881 71.5735 405.884 71.5524C405.901 71.405 405.884 71.2291 405.863 71.0067L405.854 70.92C405.835 70.7121 405.814 70.4659 405.814 70.1688C405.811 70.1312 405.807 70.094 405.803 70.0573C405.739 69.5069 405.624 69.0624 405.456 68.7237C405.091 68.0717 404.508 67.8334 403.65 67.7474C403.626 67.6852 403.59 67.6281 403.542 67.5797C403.423 67.399 403.183 67.399 403.004 67.399C402.876 67.399 402.748 67.4163 402.629 67.4324C402.526 67.4463 402.43 67.4593 402.346 67.4593C402.227 67.4593 402.167 67.4593 402.107 67.5195C402.036 67.567 401.993 67.6334 401.967 67.7111C401.043 67.7912 400.463 68.3019 400.134 68.9646C399.596 69.9882 399.536 71.3128 399.596 71.6139V71.6741C399.646 71.7662 399.753 71.8408 399.905 71.901C399.68 72.2453 399.777 72.7212 399.87 73.1771C399.878 73.2182 399.887 73.2592 399.895 73.2998C399.954 73.5407 400.014 73.7815 400.014 74.0224C400.014 74.0826 399.999 74.1579 399.984 74.2331C399.969 74.3084 399.954 74.3837 399.954 74.4439C399.954 74.8052 400.134 75.1664 400.433 75.4073C400.608 75.5486 400.804 75.6277 401.009 75.6811C401.1 75.9311 401.2 76.1743 401.294 76.3591C401.286 76.3628 401.278 76.3666 401.27 76.3707C401.21 76.4911 401.21 76.6115 401.21 76.7319C401.21 76.9126 401.21 77.033 401.15 77.2136C401.187 77.2359 401.227 77.2581 401.269 77.2802C401.209 77.6386 401.089 77.9379 400.851 78.2373C400.851 78.2674 400.836 78.3125 400.822 78.3577C400.817 78.3706 400.813 78.3835 400.809 78.3961C400.739 78.3064 400.673 78.2129 400.612 78.1168C400.535 78.0135 400.106 78.0654 399.617 78.1678C399.196 78.0526 398.46 77.9968 398.46 78.1771C398.46 78.2724 398.46 78.3676 398.461 78.4627C398.26 78.5219 398.107 78.572 398.041 78.5985C398.011 78.6286 397.981 78.6437 397.951 78.6587C397.921 78.6738 397.892 78.6888 397.862 78.7189C397.084 78.7189 396.367 78.9598 396.008 79.7426C395.769 80.3447 395.649 81.007 395.649 81.7296C395.41 82.693 395.171 83.8972 394.991 84.8606C394.924 85.1172 394.88 85.986 394.852 87.1192C394.829 87.3907 394.812 87.675 394.812 87.9315C394.812 88.0342 394.817 88.2245 394.827 88.4795C394.796 90.7586 394.806 93.4633 394.811 94.6393C394.811 94.8837 394.812 95.0621 394.812 95.1569C394.925 95.0957 395.036 95.0522 395.145 95.0227L395.163 95.3726C395 95.6753 394.939 96.1178 394.898 96.4197C394.889 96.489 394.88 96.551 394.872 96.602C394.812 96.7827 394.812 96.9633 394.872 97.0837C394.932 97.2042 394.991 97.2644 395.111 97.3848C395.171 97.445 395.171 97.5052 395.171 97.5655C395.187 97.5337 395.198 97.5061 395.208 97.4805C395.33 97.5991 395.46 97.7178 395.589 97.8364C395.754 97.9869 395.918 98.1375 396.068 98.288C396.187 98.4084 396.307 98.5288 396.486 98.5288C396.606 98.5288 396.726 98.4686 396.785 98.4084C397.144 98.2278 397.503 97.8665 397.323 97.5052C397.281 97.4188 397.222 97.3556 397.154 97.3073C397.17 97.3131 397.187 97.3188 397.204 97.3246V96.301C397.174 96.2408 397.129 96.1806 397.084 96.1204C397.039 96.0601 396.995 95.9999 396.965 95.9397C396.856 95.8307 396.685 95.6585 396.489 95.4947L396.528 95.1005C396.723 95.1321 396.926 95.1569 397.144 95.1569C397.214 95.1569 397.387 92.4916 397.53 90.2835C397.631 88.7222 397.717 87.3895 397.742 87.3895C397.742 87.19 397.783 87.0318 397.831 86.8465C397.841 86.8082 397.851 86.7684 397.862 86.7272C397.892 86.6369 397.921 86.5616 397.951 86.4864C397.981 86.4111 398.011 86.3358 398.041 86.2455C398.062 86.3241 398.082 86.4028 398.101 86.4814C398.103 88.0565 398.202 89.3007 398.297 90.4947C398.347 91.1335 398.397 91.758 398.43 92.4111C398.368 92.4449 398.316 92.4955 398.28 92.5678V93.2904C398.22 93.3506 398.22 93.3506 398.22 93.4108C398.191 93.4409 398.176 93.456 398.176 93.471C398.176 93.4861 398.191 93.5011 398.22 93.5312C398.262 93.5733 398.304 93.6153 398.346 93.6369C398.284 93.8791 398.222 94.0966 398.161 94.314C398.161 94.4344 398.146 94.5398 398.131 94.6452C398.116 94.7505 398.101 94.8559 398.101 94.9763V95.6387C398.101 98.7697 398.041 104.49 397.682 108.042C397.264 112.257 397.742 115.81 397.921 117.074C398.082 117.085 398.282 117.094 398.506 117.101C398.466 117.157 398.431 117.208 398.4 117.255C397.981 117.737 397.981 118.218 398.161 118.519C398.28 118.76 398.46 118.881 398.699 119.001C399.186 119.219 399.698 119.573 400.213 119.929C400.834 120.359 401.459 120.79 402.047 120.988C402.645 121.169 404.2 121.169 404.08 120.266C404.026 119.777 403.194 119.19 402.725 118.859C402.673 118.823 402.627 118.79 402.585 118.76C402.526 118.73 402.466 118.685 402.406 118.64C402.346 118.595 402.287 118.549 402.227 118.519C401.971 118.319 401.851 118.133 401.73 117.947C401.597 117.741 401.465 117.537 401.15 117.315C401.06 117.255 400.97 117.194 400.872 117.133C401.239 117.135 401.567 117.135 401.808 117.135L402.287 98.7095C402.46 98.6992 402.611 98.6609 402.742 98.6003L402.765 98.7095C403.124 100.456 403.482 102.202 404.08 103.888C404.14 104.008 404.185 104.129 404.23 104.249C404.275 104.369 404.32 104.49 404.379 104.61C404.32 104.791 404.32 105.032 404.32 105.212C404.267 105.844 404.169 106.429 404.066 107.049L404.021 107.32L404.004 107.467C403.95 107.951 403.901 108.393 403.901 108.885C403.901 109.278 403.839 110.576 403.77 112.033C403.659 114.372 403.528 117.121 403.602 117.195C403.721 117.225 403.888 117.243 404.08 117.255C403.961 117.496 403.901 117.797 403.901 117.917C403.722 118.399 403.901 118.7 404.2 118.881C404.379 119.001 404.678 119.061 404.918 119.061C405.316 119.061 405.728 119.068 406.14 119.075C406.814 119.086 407.489 119.097 408.105 119.078L408.087 119.362L409.163 119.423L409.686 119.475L409.685 119.493L411.263 119.596L412.153 119.663H412.272L412.351 119.667L415.055 119.844L418.446 67.2689L416.876 67.1663ZM410.016 89.6078L408.208 117.492C408.071 117.466 407.935 117.439 407.8 117.412C407.384 117.33 406.976 117.249 406.587 117.206C406.756 117.185 406.918 117.16 407.07 117.134C407.1 116.833 407.115 116.427 407.13 116.021C407.145 115.614 407.16 115.208 407.19 114.907C407.309 114.064 407.369 113.221 407.429 112.378L407.437 112.266C407.554 110.735 407.675 109.151 407.967 107.681C408.206 106.537 408.386 105.574 408.266 104.43L407.907 101.178C407.795 100.332 407.696 99.4999 407.598 98.6744C407.487 97.7368 407.377 96.808 407.25 95.8795C407.222 95.7383 407.207 95.6104 407.193 95.4895C407.177 95.3526 407.162 95.2247 407.13 95.0967C407.07 94.7355 407.01 94.3742 407.01 94.0129C407.01 93.9146 407.01 93.8099 407.008 93.7029C407.107 93.6729 407.199 93.572 407.25 93.471C407.13 93.2904 407.07 93.1097 407.07 92.8689C407.07 92.7485 407.07 92.628 407.13 92.5076C407.093 92.3965 407.034 92.3309 406.938 92.325C406.862 91.5529 406.873 90.7809 406.883 90.0088C406.887 89.7378 406.891 89.4669 406.891 89.1959V87.3895C406.891 87.2114 406.859 87.0655 406.808 86.9337C406.833 86.5618 406.847 86.1908 406.831 85.824C406.831 85.8842 407.309 89.0755 408.206 89.9185C408.439 90.1296 409.153 89.9477 410.016 89.6078Z" fill="#CBCDD5"/>
</g>
<path fill-rule="evenodd" clip-rule="evenodd" d="M560.705 114.26L373.735 124.331H44.5063V121.705H373.664L560.564 111.637L560.705 114.26Z" fill="white"/>
<path d="M269.069 124.332H276.073V127.834H269.069V124.332Z" fill="white"/>
<path d="M164 124.332H171.005V127.834H164V124.332Z" fill="white"/>
<path d="M282.202 124.332H289.207V127.834H282.202V124.332Z" fill="white"/>
<path d="M177.134 124.332H184.138V127.834H177.134V124.332Z" fill="white"/>
<path d="M295.336 124.332H302.34V127.834H295.336V124.332Z" fill="white"/>
<path d="M190.267 124.332H197.272V127.834H190.267V124.332Z" fill="white"/>
<path d="M308.469 124.332H315.474V127.834H308.469V124.332Z" fill="white"/>
<path d="M203.401 124.332H210.405V127.834H203.401V124.332Z" fill="white"/>
<path d="M321.603 124.332H328.608V127.834H321.603V124.332Z" fill="white"/>
<path d="M216.534 124.332H223.539V127.834H216.534V124.332Z" fill="white"/>
<path d="M334.737 124.332H341.741V127.834H334.737V124.332Z" fill="white"/>
<path d="M229.668 124.332H236.673V127.834H229.668V124.332Z" fill="white"/>
<path d="M347.87 124.332H354.875V127.834H347.87V124.332Z" fill="white"/>
<path d="M242.802 124.332H249.806V127.834H242.802V124.332Z" fill="white"/>
<path d="M361.004 124.332H368.008V127.834H361.004V124.332Z" fill="white"/>
<path d="M255.935 124.332H262.94V127.834H255.935V124.332Z" fill="white"/>
<path d="M60 124.125H67.0046V127.627H60V124.125Z" fill="white"/>
<path d="M73.1336 124.125H80.1382V127.627H73.1336V124.125Z" fill="white"/>
<path d="M86.2672 124.125H93.2718V127.627H86.2672V124.125Z" fill="white"/>
<path d="M99.4008 124.125H106.405V127.627H99.4008V124.125Z" fill="white"/>
<path d="M112.534 124.125H119.539V127.627H112.534V124.125Z" fill="white"/>
<path d="M125.668 124.125H132.673V127.627H125.668V124.125Z" fill="white"/>
<path d="M138.802 124.125H145.806V127.627H138.802V124.125Z" fill="white"/>
<path d="M151.935 124.125H158.94V127.627H151.935V124.125Z" fill="white"/>
<path d="M374.176 123.697L381.17 123.311L381.363 126.808L374.369 127.194L374.176 123.697Z" fill="white"/>
<path d="M387.29 122.973L394.284 122.587L394.477 126.084L387.483 126.47L387.29 122.973Z" fill="white"/>
<path d="M400.403 122.25L407.397 121.864L407.59 125.361L400.596 125.747L400.403 122.25Z" fill="white"/>
<path d="M413.517 121.526L420.511 121.14L420.704 124.637L413.71 125.023L413.517 121.526Z" fill="white"/>
<path d="M426.631 120.802L433.625 120.416L433.818 123.913L426.824 124.299L426.631 120.802Z" fill="white"/>
<path d="M439.744 120.079L446.738 119.693L446.931 123.19L439.937 123.576L439.744 120.079Z" fill="white"/>
<path d="M452.858 119.355L459.852 118.969L460.045 122.466L453.051 122.852L452.858 119.355Z" fill="white"/>
<path d="M465.972 118.631L472.966 118.245L473.159 121.742L466.165 122.128L465.972 118.631Z" fill="white"/>
<path d="M479.085 117.908L486.079 117.522L486.272 121.019L479.278 121.405L479.085 117.908Z" fill="white"/>
<path d="M492.199 117.184L499.193 116.798L499.386 120.295L492.392 120.681L492.199 117.184Z" fill="white"/>
<path d="M505.313 116.46L512.307 116.075L512.499 119.571L505.506 119.957L505.313 116.46Z" fill="white"/>
<path d="M518.426 115.737L525.42 115.351L525.613 118.848L518.619 119.234L518.426 115.737Z" fill="white"/>
<path d="M531.54 115.013L538.534 114.627L538.727 118.124L531.733 118.51L531.54 115.013Z" fill="white"/>
<path d="M544.654 114.29L551.648 113.904L551.84 117.401L544.847 117.787L544.654 114.29Z" fill="white"/>
<path fill-rule="evenodd" clip-rule="evenodd" d="M351.515 121.654C347.264 121.659 343.799 118.285 343.66 114.066L342.643 114.068C342.643 114.068 342.643 114.068 342.643 114.068C342.645 115.746 341.286 117.108 339.608 117.11L330.998 117.121C329.32 117.123 327.958 115.764 327.956 114.086C327.956 114.086 327.956 114.086 327.956 114.086L325.926 114.088C325.798 118.306 322.34 121.689 318.09 121.694C313.754 121.7 310.235 118.189 310.23 113.854C310.225 109.519 313.735 106 318.07 105.995C320.122 105.992 321.991 106.777 323.392 108.064L323.391 108.014L346.235 107.986C347.626 106.725 349.471 105.956 351.496 105.954C355.831 105.949 359.35 109.459 359.355 113.794C359.361 118.13 355.85 121.648 351.515 121.654Z" fill="white"/>
<path fill-rule="evenodd" clip-rule="evenodd" d="M102.294 121.654C98.0438 121.659 94.5781 118.285 94.4393 114.066L93.4225 114.068C93.4225 114.068 93.4225 114.068 93.4225 114.068C93.4246 115.746 92.0657 117.108 90.3875 117.11L81.7779 117.121C80.0997 117.123 78.7376 115.764 78.7356 114.086C78.7356 114.086 78.7356 114.086 78.7356 114.086L76.7057 114.088C76.5773 118.306 73.1198 121.689 68.8691 121.694C64.5337 121.7 61.0149 118.189 61.0096 113.854C61.0043 109.519 64.5146 106 68.8499 105.995C70.9019 105.992 72.7709 106.777 74.171 108.064L74.1709 108.014L97.0148 107.986C98.4055 106.725 100.25 105.956 102.275 105.954C106.611 105.949 110.13 109.459 110.135 113.794C110.14 118.13 106.63 121.648 102.294 121.654Z" fill="white"/>
<path d="M344.806 92.8108H368.044C369.031 92.8108 369.87 93.531 370.02 94.5067L371.511 104.193H344.806V92.8108Z" fill="white"/>
<path d="M93 57.7878H326.856V60.4146H93V57.7878Z" fill="white"/>
<path d="M93 62.1655H326.856V64.7923H93V62.1655Z" fill="white"/>
<path d="M93 66.5437H326.856V69.1704H93V66.5437Z" fill="white"/>
<path d="M93 70.9214H326.856V73.5481H93V70.9214Z" fill="white"/>
<path d="M93 75.2993H326.856V77.926H93V75.2993Z" fill="white"/>
<path d="M93 79.6772H326.856V82.304H93V79.6772Z" fill="white"/>
<path d="M93 84.0549H326.856V86.6817H93V84.0549Z" fill="white"/>
<path d="M93 88.4331H326.856V91.0598H93V88.4331Z" fill="white"/>
<path d="M375.013 103.318C375.013 102.834 375.405 102.442 375.889 102.442C376.372 102.442 376.764 102.834 376.764 103.318V109.447C376.764 109.93 376.372 110.322 375.889 110.322C375.405 110.322 375.013 109.93 375.013 109.447V103.318Z" fill="white"/>
<path d="M372.386 105.944H375.013V106.82H372.386V105.944Z" fill="white"/>
<path fill-rule="evenodd" clip-rule="evenodd" d="M290.438 54.1744L291.834 53.2234H294.46L295.851 54.1609L308.721 85.9779V54.7234H311.721V93.6864L308.83 94.2489L293.449 56.2234H292.855L277.907 94.2354L275.011 93.6864V64.4895L265.684 94.1366L262.822 93.2363L275.08 54.2732L278.011 54.7234V85.7735L290.438 54.1744Z" fill="white"/>
<path fill-rule="evenodd" clip-rule="evenodd" d="M292.085 94.9999V56.0369H295.085V94.9999H292.085Z" fill="white"/>
<path fill-rule="evenodd" clip-rule="evenodd" d="M186.185 54.1744L187.581 53.2234H190.207L191.598 54.1609L204.468 85.9779V54.7234H207.468V93.6864L204.577 94.2489L189.196 56.2234H188.602L173.654 94.2354L170.758 93.6864V64.4895L161.431 94.1366L158.569 93.2363L170.827 54.2732L173.758 54.7234V85.7735L186.185 54.1744Z" fill="white"/>
<path fill-rule="evenodd" clip-rule="evenodd" d="M187.832 94.9999V56.0369H190.832V94.9999H187.832Z" fill="white"/>
<path fill-rule="evenodd" clip-rule="evenodd" d="M134.783 54.1744L133.387 53.2234H130.76L129.37 54.1609L116.5 85.9779V54.7234H113.5V93.6864L116.391 94.2489L131.772 56.2234H132.365L147.314 94.2354L150.21 93.6864V64.4895L159.537 94.1366L162.398 93.2363L150.14 54.2732L147.21 54.7234V85.7735L134.783 54.1744Z" fill="white"/>
<path fill-rule="evenodd" clip-rule="evenodd" d="M133.136 94.9999V56.0369H130.136V94.9999H133.136Z" fill="white"/>
<path fill-rule="evenodd" clip-rule="evenodd" d="M237.783 54.1744L236.387 53.2234H233.76L232.37 54.1609L219.5 85.9779V54.7234H216.5V93.6864L219.391 94.2489L234.772 56.2234H235.365L250.314 94.2354L253.21 93.6864V64.4895L262.537 94.1366L265.398 93.2363L253.14 54.2732L250.21 54.7234V85.7735L237.783 54.1744Z" fill="white"/>
<path fill-rule="evenodd" clip-rule="evenodd" d="M236.136 94.9999V56.0369H233.136V94.9999H236.136Z" fill="white"/>
<path d="M69 93.1245H341C342.105 93.1245 343 94.0199 343 95.1245V104.125H69V93.1245Z" fill="white"/>
<path fill-rule="evenodd" clip-rule="evenodd" d="M269.069 113.318H122.802C119.883 111.567 113.608 108.065 111.857 108.065H54.9447H44V104.125H270V104.193H372.824V108.133H361.879H304.967C303.216 108.133 296.941 111.635 294.022 113.387H269.069V113.318Z" fill="white"/>
<path d="M436.052 111.744L437.368 113.817L415.727 115.138L416.952 112.701C417.276 112.058 417.92 111.638 418.639 111.602L434.264 110.819C434.983 110.783 435.666 111.136 436.052 111.744Z" fill="white"/>
<path d="M537.409 105.615L538.724 107.688L517.084 109.009L518.308 106.572C518.632 105.929 519.276 105.509 519.995 105.473L535.62 104.689C536.339 104.653 537.023 105.007 537.409 105.615Z" fill="white"/>
<path d="M560.635 111.636L393.838 120.391V118.202L410.474 115.138L539.183 107.258L560.635 108.571V111.636Z" fill="white"/>
<path fill-rule="evenodd" clip-rule="evenodd" d="M419.543 24.9539L420.543 23.9539H424.483L425.483 24.9539V111.511H428.736V24.9539L429.736 23.9539H434.114L435.114 24.9539V112.511H433.114V25.9539H430.736V112.511L429.736 113.511H424.483L423.483 112.511V25.9539H421.543V112.511H419.543V24.9539Z" fill="white"/>
<path fill-rule="evenodd" clip-rule="evenodd" d="M520.234 25.3916L521.234 24.3916H525.301L526.301 25.3916V104.944H529.724V25.3916L530.724 24.3916H535.243L536.243 25.3916V105.944H534.243V26.3916H531.724V105.944L530.724 106.944H525.301L524.301 105.944V26.3916H522.234V105.944H520.234V25.3916Z" fill="white"/>
<path fill-rule="evenodd" clip-rule="evenodd" d="M328.17 55.7856H92.5V52.7856H328.17V55.7856Z" fill="white"/>
<path d="M322.041 87.9952V104.193H330.797L332.548 71.7971H336.488L339.552 104.193H349.184V87.9952L342.617 52.5344H328.17L322.041 87.9952Z" fill="white"/>
<path d="M74 87.9952V104.193H82.7557L84.5069 71.7971H88.447L91.5115 104.193H101.143V87.9952L94.576 52.5344H80.129L74 87.9952Z" fill="white"/>
<path d="M276.949 98.0644C276.949 99.0315 276.165 99.8155 275.198 99.8155C274.23 99.8155 273.446 99.0315 273.446 98.0644C273.446 97.0972 274.23 96.3132 275.198 96.3132C276.165 96.3132 276.949 97.0972 276.949 98.0644Z" fill="white"/>
<path d="M223.502 98.0644C223.502 99.0315 222.718 99.8155 221.751 99.8155C220.784 99.8155 220 99.0315 220 98.0644C220 97.0972 220.784 96.3132 221.751 96.3132C222.718 96.3132 223.502 97.0972 223.502 98.0644Z" fill="white"/>
<path d="M170.056 98.0644C170.056 99.0315 169.272 99.8155 168.305 99.8155C167.338 99.8155 166.554 99.0315 166.554 98.0644C166.554 97.0972 167.338 96.3132 168.305 96.3132C169.272 96.3132 170.056 97.0972 170.056 98.0644Z" fill="white"/>
<path d="M116.609 98.0644C116.609 99.0315 115.825 99.8155 114.858 99.8155C113.891 99.8155 113.107 99.0315 113.107 98.0644C113.107 97.0972 113.891 96.3132 114.858 96.3132C115.825 96.3132 116.609 97.0972 116.609 98.0644Z" fill="white"/>
<path d="M288.331 98.0644C288.331 99.0315 287.547 99.8155 286.58 99.8155C285.613 99.8155 284.829 99.0315 284.829 98.0644C284.829 97.0972 285.613 96.3132 286.58 96.3132C287.547 96.3132 288.331 97.0972 288.331 98.0644Z" fill="white"/>
<path d="M234.885 98.0644C234.885 99.0315 234.101 99.8155 233.134 99.8155C232.167 99.8155 231.383 99.0315 231.383 98.0644C231.383 97.0972 232.167 96.3132 233.134 96.3132C234.101 96.3132 234.885 97.0972 234.885 98.0644Z" fill="white"/>
<path d="M181.438 98.0644C181.438 99.0315 180.654 99.8155 179.687 99.8155C178.72 99.8155 177.936 99.0315 177.936 98.0644C177.936 97.0972 178.72 96.3132 179.687 96.3132C180.654 96.3132 181.438 97.0972 181.438 98.0644Z" fill="white"/>
<path d="M127.992 98.0644C127.992 99.0315 127.208 99.8155 126.241 99.8155C125.274 99.8155 124.49 99.0315 124.49 98.0644C124.49 97.0972 125.274 96.3132 126.241 96.3132C127.208 96.3132 127.992 97.0972 127.992 98.0644Z" fill="white"/>
<path d="M303.216 98.0644C303.216 99.0315 302.432 99.8155 301.465 99.8155C300.498 99.8155 299.714 99.0315 299.714 98.0644C299.714 97.0972 300.498 96.3132 301.465 96.3132C302.432 96.3132 303.216 97.0972 303.216 98.0644Z" fill="white"/>
<path d="M249.77 98.0644C249.77 99.0315 248.985 99.8155 248.018 99.8155C247.051 99.8155 246.267 99.0315 246.267 98.0644C246.267 97.0972 247.051 96.3132 248.018 96.3132C248.985 96.3132 249.77 97.0972 249.77 98.0644Z" fill="white"/>
<path d="M196.323 98.0644C196.323 99.0315 195.539 99.8155 194.572 99.8155C193.605 99.8155 192.821 99.0315 192.821 98.0644C192.821 97.0972 193.605 96.3132 194.572 96.3132C195.539 96.3132 196.323 97.0972 196.323 98.0644Z" fill="white"/>
<path d="M142.877 98.0644C142.877 99.0315 142.093 99.8155 141.126 99.8155C140.158 99.8155 139.374 99.0315 139.374 98.0644C139.374 97.0972 140.158 96.3132 141.126 96.3132C142.093 96.3132 142.877 97.0972 142.877 98.0644Z" fill="white"/>
<path d="M356.626 98.0644C356.626 99.0315 355.842 99.8155 354.875 99.8155C353.908 99.8155 353.124 99.0315 353.124 98.0644C353.124 97.0972 353.908 96.3132 354.875 96.3132C355.842 96.3132 356.626 97.0972 356.626 98.0644Z" fill="white"/>
<path d="M312.847 98.0644C312.847 99.0315 312.063 99.8155 311.096 99.8155C310.129 99.8155 309.345 99.0315 309.345 98.0644C309.345 97.0972 310.129 96.3132 311.096 96.3132C312.063 96.3132 312.847 97.0972 312.847 98.0644Z" fill="white"/>
<path d="M259.401 98.0644C259.401 99.0315 258.617 99.8155 257.65 99.8155C256.683 99.8155 255.899 99.0315 255.899 98.0644C255.899 97.0972 256.683 96.3132 257.65 96.3132C258.617 96.3132 259.401 97.0972 259.401 98.0644Z" fill="white"/>
<path d="M205.954 98.0644C205.954 99.0315 205.17 99.8155 204.203 99.8155C203.236 99.8155 202.452 99.0315 202.452 98.0644C202.452 97.0972 203.236 96.3132 204.203 96.3132C205.17 96.3132 205.954 97.0972 205.954 98.0644Z" fill="white"/>
<path d="M152.508 98.0644C152.508 99.0315 151.724 99.8155 150.757 99.8155C149.79 99.8155 149.006 99.0315 149.006 98.0644C149.006 97.0972 149.79 96.3132 150.757 96.3132C151.724 96.3132 152.508 97.0972 152.508 98.0644Z" fill="white"/>
<path d="M324.511 29.3909C324.362 28.1972 325.292 27.1428 326.495 27.1428H343.854C345.057 27.1428 345.987 28.1972 345.838 29.3909L344.587 39.4001C344.462 40.4009 343.611 41.152 342.602 41.152H327.746C326.738 41.152 325.887 40.4009 325.762 39.4001L324.511 29.3909Z" fill="white"/>
<path d="M366.257 98.0644C366.257 99.0315 365.473 99.8155 364.506 99.8155C363.539 99.8155 362.755 99.0315 362.755 98.0644C362.755 97.0972 363.539 96.3132 364.506 96.3132C365.473 96.3132 366.257 97.0972 366.257 98.0644Z" fill="white"/>
<path d="M330.359 27.1428H339.99V55.1612H330.359V27.1428Z" fill="white"/>
<path d="M82.318 27.1428H91.9493V55.1612H82.318V27.1428Z" fill="white"/>
<path d="M333.861 22.7649H336.488V27.1428H333.861V22.7649Z" fill="white"/>
<path d="M85.8203 22.7649H88.447V27.1428H85.8203V22.7649Z" fill="white"/>
<path d="M415.786 23.8768L415.289 21.8894H436.303L435.477 24.0939C435.184 24.8746 434.438 25.3917 433.604 25.3917H417.727C416.809 25.3917 416.009 24.7671 415.786 23.8768Z" fill="white"/>
<path d="M518.229 23.8768L517.732 21.8894H538.745L537.919 24.0939C537.626 24.8746 536.88 25.3917 536.046 25.3917H520.169C519.251 25.3917 518.451 24.7671 518.229 23.8768Z" fill="white"/>
<path fill-rule="evenodd" clip-rule="evenodd" d="M301.465 1.75122H355.75V18.3871H301.465V1.75122ZM306.718 9.00454C306.718 7.89997 307.614 7.00453 308.718 7.00453H318.727C319.832 7.00453 320.727 7.89996 320.727 9.00453V11.1336C320.727 12.2381 319.832 13.1336 318.727 13.1336H308.718C307.614 13.1336 306.718 12.2381 306.718 11.1336V9.00454ZM340.239 7.00453C339.134 7.00453 338.239 7.89997 338.239 9.00454V11.1336C338.239 12.2381 339.134 13.1336 340.239 13.1336H350.248C351.353 13.1336 352.248 12.2381 352.248 11.1336V9.00453C352.248 7.89996 351.353 7.00453 350.248 7.00453H340.239Z" fill="white"/>
<path d="M403.031 1.75122H406.534V19.2627H403.031V1.75122Z" fill="white"/>
<path d="M456.317 1.75122H459.819V19.2627H456.317V1.75122Z" fill="white"/>
<path fill-rule="evenodd" clip-rule="evenodd" d="M454.252 2.62672H461.492L462.57 2.96878V18.387H454.252V2.62672ZM451.626 2.62672H440.15L451.626 16.1273V2.62672ZM436.741 2.62672H425.266L436.741 16.1273V2.62672ZM421.856 2.62672H411.193L421.856 15.9562V2.62672ZM407.847 2.62672H402.156V18.387H407.847V2.62672ZM399.529 2.62672H388.054L399.529 16.1273V2.62672ZM384.644 2.62672H373.169L384.644 16.1273V2.62672ZM369.76 2.62672H359.096L369.76 15.9562V2.62672ZM355.75 2.62672H302.038L287.431 18.387H355.75V2.62672ZM298.457 2.62672H286.142V15.9136L298.457 2.62672ZM282.034 2.62672H271.257V15.6215L282.034 2.62672ZM270.382 1.31349V0H461.695L462.092 0.0614251L515.94 17.1351L516.014 17.1612L519.201 18.387H550.128V22.7649H269.069V19.4207L268.631 19.2628V1.31349H270.382ZM511.197 18.387L494.967 13.2408V18.387H511.197ZM492.34 12.4079L481.626 9.0107L492.34 16.703V12.4079ZM475.279 6.99824L466.827 4.31838L475.266 15.3769V7.00464L475.279 6.99824ZM368.34 18.387H358.377V5.93296L368.34 18.387ZM383.118 18.387H372.386V5.76188L383.118 18.387ZM398.002 18.387H387.271V5.76188L398.002 18.387ZM420.437 18.387H410.474V5.93296L420.437 18.387ZM435.214 18.387H424.483V5.76188L435.214 18.387ZM450.099 18.387H439.368V5.76188L450.099 18.387ZM474.259 18.387H465.197V6.51259L474.259 18.387ZM490.182 18.387H477.893V9.56437L490.182 18.387ZM272.377 18.387H283.515V4.95473L272.377 18.387Z" fill="white"/>
<path fill-rule="evenodd" clip-rule="evenodd" d="M239.663 1.75122H185.377V18.3871H239.663V1.75122ZM234.41 9.00454C234.41 7.89997 233.514 7.00453 232.41 7.00453H222.4C221.296 7.00453 220.4 7.89996 220.4 9.00453V11.1336C220.4 12.2381 221.296 13.1336 222.4 13.1336H232.41C233.514 13.1336 234.41 12.2381 234.41 11.1336V9.00454ZM200.889 7.00453C201.993 7.00453 202.889 7.89997 202.889 9.00454V11.1336C202.889 12.2381 201.993 13.1336 200.889 13.1336H190.88C189.775 13.1336 188.88 12.2381 188.88 11.1336V9.00453C188.88 7.89996 189.775 7.00453 190.88 7.00453H200.889Z" fill="white"/>
<path d="M138.096 1.75122H134.594V19.2627H138.096V1.75122Z" fill="white"/>
<path d="M84.8108 1.75122H81.3085V19.2627H84.8108V1.75122Z" fill="white"/>
<path fill-rule="evenodd" clip-rule="evenodd" d="M86.8754 2.62672H79.6362L78.5574 2.96878V18.387H86.8754V2.62672ZM89.5021 2.62672H100.978L89.5021 16.1273V2.62672ZM104.387 2.62672H115.862L104.387 16.1273V2.62672ZM119.272 2.62672H129.935L119.272 15.9562V2.62672ZM133.281 2.62672H138.972V18.387H133.281V2.62672ZM141.599 2.62672H153.074L141.599 16.1273V2.62672ZM156.484 2.62672H167.959L156.484 16.1273V2.62672ZM171.368 2.62672H182.032L171.368 15.9562V2.62672ZM185.377 2.62672H239.09L253.697 18.387H185.377V2.62672ZM242.671 2.62672H254.986V15.9136L242.671 2.62672ZM259.094 2.62672H269.87V15.6215L259.094 2.62672ZM270.746 1.31349V0H79.433L79.036 0.0614251L25.1882 17.1351L25.1137 17.1612L21.9266 18.387H-9V22.7649H272.059V19.4207L272.497 19.2628V1.31349H270.746ZM29.9306 18.387L46.1612 13.2408V18.387H29.9306ZM48.7879 12.4079L59.5021 9.0107L48.7879 16.703V12.4079ZM65.8491 6.99824L74.301 4.31838L65.8616 15.3769V7.00464L65.8491 6.99824ZM172.787 18.387H182.751V5.93296L172.787 18.387ZM158.01 18.387H168.742V5.76188L158.01 18.387ZM143.125 18.387H153.857V5.76188L143.125 18.387ZM120.691 18.387H130.654V5.93296L120.691 18.387ZM105.913 18.387H116.645V5.76188L105.913 18.387ZM91.0287 18.387H101.76V5.76188L91.0287 18.387ZM66.8686 18.387H75.9307V6.51259L66.8686 18.387ZM50.9461 18.387H63.2349V9.56437L50.9461 18.387ZM268.751 18.387H257.612V4.95473L268.751 18.387Z" fill="white"/>
<path fill-rule="evenodd" clip-rule="evenodd" d="M560.705 115.26L373.735 125.331H44.5063V122.705H373.664L560.564 112.637L560.705 115.26Z" fill="#CBCDD5"/>
<rect x="269.069" y="125.332" width="7.00459" height="3.5023" fill="#CBCDD5"/>
<rect x="164" y="125.332" width="7.00459" height="3.5023" fill="#CBCDD5"/>
<rect x="282.202" y="125.332" width="7.00459" height="3.5023" fill="#CBCDD5"/>
<rect x="177.134" y="125.332" width="7.00459" height="3.5023" fill="#CBCDD5"/>
<rect x="295.336" y="125.332" width="7.00459" height="3.5023" fill="#CBCDD5"/>
<rect x="190.267" y="125.332" width="7.00459" height="3.5023" fill="#CBCDD5"/>
<rect x="308.469" y="125.332" width="7.00459" height="3.5023" fill="#CBCDD5"/>
<rect x="203.401" y="125.332" width="7.00459" height="3.5023" fill="#CBCDD5"/>
<rect x="321.603" y="125.332" width="7.00459" height="3.5023" fill="#CBCDD5"/>
<rect x="216.534" y="125.332" width="7.00459" height="3.5023" fill="#CBCDD5"/>
<rect x="334.737" y="125.332" width="7.00459" height="3.5023" fill="#CBCDD5"/>
<rect x="229.668" y="125.332" width="7.00459" height="3.5023" fill="#CBCDD5"/>
<rect x="347.87" y="125.332" width="7.00459" height="3.5023" fill="#CBCDD5"/>
<rect x="242.802" y="125.332" width="7.00459" height="3.5023" fill="#CBCDD5"/>
<rect x="361.004" y="125.332" width="7.00459" height="3.5023" fill="#CBCDD5"/>
<rect x="255.935" y="125.332" width="7.00459" height="3.5023" fill="#CBCDD5"/>
<rect x="60" y="125.125" width="7.00459" height="3.5023" fill="#CBCDD5"/>
<rect x="73.1336" y="125.125" width="7.00459" height="3.5023" fill="#CBCDD5"/>
<rect x="86.2672" y="125.125" width="7.00459" height="3.5023" fill="#CBCDD5"/>
<rect x="99.4009" y="125.125" width="7.00459" height="3.5023" fill="#CBCDD5"/>
<rect x="112.534" y="125.125" width="7.00459" height="3.5023" fill="#CBCDD5"/>
<rect x="125.668" y="125.125" width="7.00459" height="3.5023" fill="#CBCDD5"/>
<rect x="138.802" y="125.125" width="7.00459" height="3.5023" fill="#CBCDD5"/>
<rect x="151.935" y="125.125" width="7.00459" height="3.5023" fill="#CBCDD5"/>
<rect x="374.176" y="124.697" width="7.00459" height="3.5023" transform="rotate(-3.15851 374.176 124.697)" fill="#CBCDD5"/>
<rect x="387.29" y="123.973" width="7.00459" height="3.5023" transform="rotate(-3.15851 387.29 123.973)" fill="#CBCDD5"/>
<rect x="400.403" y="123.25" width="7.00459" height="3.5023" transform="rotate(-3.15851 400.403 123.25)" fill="#CBCDD5"/>
<rect x="413.517" y="122.526" width="7.00459" height="3.5023" transform="rotate(-3.15851 413.517 122.526)" fill="#CBCDD5"/>
<rect x="426.631" y="121.802" width="7.00459" height="3.5023" transform="rotate(-3.15851 426.631 121.802)" fill="#CBCDD5"/>
<rect x="439.744" y="121.079" width="7.00459" height="3.5023" transform="rotate(-3.15851 439.744 121.079)" fill="#CBCDD5"/>
<rect x="452.858" y="120.355" width="7.00459" height="3.5023" transform="rotate(-3.15851 452.858 120.355)" fill="#CBCDD5"/>
<rect x="465.972" y="119.631" width="7.00459" height="3.5023" transform="rotate(-3.15851 465.972 119.631)" fill="#CBCDD5"/>
<rect x="479.085" y="118.908" width="7.00459" height="3.5023" transform="rotate(-3.15851 479.085 118.908)" fill="#CBCDD5"/>
<rect x="492.199" y="118.184" width="7.00459" height="3.5023" transform="rotate(-3.15851 492.199 118.184)" fill="#CBCDD5"/>
<rect x="505.313" y="117.46" width="7.00459" height="3.5023" transform="rotate(-3.15851 505.313 117.46)" fill="#CBCDD5"/>
<rect x="518.426" y="116.737" width="7.00459" height="3.5023" transform="rotate(-3.15851 518.426 116.737)" fill="#CBCDD5"/>
<rect x="531.54" y="116.013" width="7.00459" height="3.5023" transform="rotate(-3.15851 531.54 116.013)" fill="#CBCDD5"/>
<rect x="544.654" y="115.29" width="7.00459" height="3.5023" transform="rotate(-3.15851 544.654 115.29)" fill="#CBCDD5"/>
<path fill-rule="evenodd" clip-rule="evenodd" d="M351.515 122.654C347.264 122.659 343.799 119.285 343.66 115.066L342.643 115.068C342.643 115.068 342.643 115.068 342.643 115.068C342.645 116.746 341.286 118.108 339.608 118.11L330.998 118.121C329.32 118.123 327.958 116.764 327.956 115.086C327.956 115.086 327.956 115.086 327.956 115.086L325.926 115.088C325.798 119.306 322.34 122.689 318.09 122.694C313.754 122.7 310.235 119.189 310.23 114.854C310.225 110.519 313.735 107 318.07 106.995C320.122 106.992 321.991 107.777 323.392 109.064L323.391 109.014L346.235 108.986C347.626 107.725 349.471 106.956 351.496 106.954C355.831 106.949 359.35 110.459 359.355 114.794C359.361 119.13 355.85 122.648 351.515 122.654Z" fill="#CBCDD5"/>
<path fill-rule="evenodd" clip-rule="evenodd" d="M351.515 122.654C347.264 122.659 343.799 119.285 343.66 115.066L342.643 115.068C342.643 115.068 342.643 115.068 342.643 115.068C342.645 116.746 341.286 118.108 339.608 118.11L330.998 118.121C329.32 118.123 327.958 116.764 327.956 115.086C327.956 115.086 327.956 115.086 327.956 115.086L325.926 115.088C325.798 119.306 322.34 122.689 318.09 122.694C313.754 122.7 310.235 119.189 310.23 114.854C310.225 110.519 313.735 107 318.07 106.995C320.122 106.992 321.991 107.777 323.392 109.064L323.391 109.014L346.235 108.986C347.626 107.725 349.471 106.956 351.496 106.954C355.831 106.949 359.35 110.459 359.355 114.794C359.361 119.13 355.85 122.648 351.515 122.654Z" fill="url(#paint0_linear)"/>
<path fill-rule="evenodd" clip-rule="evenodd" d="M102.294 122.654C98.0438 122.659 94.5781 119.285 94.4393 115.066L93.4225 115.068C93.4225 115.068 93.4225 115.068 93.4225 115.068C93.4246 116.746 92.0657 118.108 90.3875 118.11L81.7779 118.121C80.0997 118.123 78.7376 116.764 78.7356 115.086C78.7356 115.086 78.7356 115.086 78.7356 115.086L76.7057 115.088C76.5773 119.306 73.1198 122.689 68.8691 122.694C64.5337 122.7 61.0149 119.189 61.0096 114.854C61.0043 110.519 64.5146 107 68.8499 106.995C70.9019 106.992 72.7709 107.777 74.171 109.064L74.1709 109.014L97.0148 108.986C98.4055 107.725 100.25 106.956 102.275 106.954C106.611 106.949 110.13 110.459 110.135 114.794C110.14 119.13 106.63 122.648 102.294 122.654Z" fill="#CBCDD5"/>
<path fill-rule="evenodd" clip-rule="evenodd" d="M102.294 122.654C98.0438 122.659 94.5781 119.285 94.4393 115.066L93.4225 115.068C93.4225 115.068 93.4225 115.068 93.4225 115.068C93.4246 116.746 92.0657 118.108 90.3875 118.11L81.7779 118.121C80.0997 118.123 78.7376 116.764 78.7356 115.086C78.7356 115.086 78.7356 115.086 78.7356 115.086L76.7057 115.088C76.5773 119.306 73.1198 122.689 68.8691 122.694C64.5337 122.7 61.0149 119.189 61.0096 114.854C61.0043 110.519 64.5146 107 68.8499 106.995C70.9019 106.992 72.7709 107.777 74.171 109.064L74.1709 109.014L97.0148 108.986C98.4055 107.725 100.25 106.956 102.275 106.954C106.611 106.949 110.13 110.459 110.135 114.794C110.14 119.13 106.63 122.648 102.294 122.654Z" fill="url(#paint1_linear)"/>
<path d="M344.806 93.8108H368.044C369.031 93.8108 369.87 94.531 370.02 95.5067L371.511 105.193H344.806V93.8108Z" fill="#CBCDD5"/>
<rect x="93" y="58.7878" width="233.856" height="2.62672" fill="#CBCDD5"/>
<rect x="93" y="63.1655" width="233.856" height="2.62672" fill="#CBCDD5"/>
<rect x="93" y="67.5437" width="233.856" height="2.62672" fill="#CBCDD5"/>
<rect x="93" y="71.9214" width="233.856" height="2.62672" fill="#CBCDD5"/>
<rect x="93" y="76.2993" width="233.856" height="2.62672" fill="#CBCDD5"/>
<rect x="93" y="80.6772" width="233.856" height="2.62672" fill="#CBCDD5"/>
<rect x="93" y="85.0549" width="233.856" height="2.62672" fill="#CBCDD5"/>
<rect x="93" y="89.4331" width="233.856" height="2.62672" fill="#CBCDD5"/>
<path d="M375.013 104.318C375.013 103.834 375.405 103.442 375.889 103.442C376.372 103.442 376.764 103.834 376.764 104.318V110.447C376.764 110.93 376.372 111.322 375.889 111.322C375.405 111.322 375.013 110.93 375.013 110.447V104.318Z" fill="#E6E8ED"/>
<rect x="372.386" y="106.944" width="2.62672" height="0.875574" fill="#CBCDD5"/>
<path d="M310.221 55.7234V94.6864L294.46 55.7234H291.834L276.511 94.6864V55.7234L264.253 94.6864" stroke="#E6E8ED" stroke-width="3" stroke-linejoin="bevel"/>
<path d="M293.585 57.0369V95.9999" stroke="#E6E8ED" stroke-width="3" stroke-linejoin="bevel"/>
<path d="M205.968 55.7234V94.6864L190.207 55.7234H187.581L172.258 94.6864V55.7234L160 94.6864" stroke="#E6E8ED" stroke-width="3" stroke-linejoin="bevel"/>
<path d="M189.332 57.0369V95.9999" stroke="#E6E8ED" stroke-width="3" stroke-linejoin="bevel"/>
<path d="M115 55.7234V94.6864L130.76 55.7234H133.387L148.71 94.6864V55.7234L160.968 94.6864" stroke="#E6E8ED" stroke-width="3" stroke-linejoin="bevel"/>
<path d="M131.636 57.0369V95.9999" stroke="#E6E8ED" stroke-width="3" stroke-linejoin="bevel"/>
<path d="M218 55.7234V94.6864L233.76 55.7234H236.387L251.71 94.6864V55.7234L263.968 94.6864" stroke="#E6E8ED" stroke-width="3" stroke-linejoin="bevel"/>
<path d="M234.636 57.0369V95.9999" stroke="#E6E8ED" stroke-width="3" stroke-linejoin="bevel"/>
<path d="M69 94.1245H341C342.105 94.1245 343 95.0199 343 96.1245V105.125H69V94.1245Z" fill="#CBCDD5"/>
<path fill-rule="evenodd" clip-rule="evenodd" d="M269.069 114.318H122.802C119.883 112.567 113.608 109.065 111.857 109.065H54.9447H44V105.125H270V105.193H372.824V109.133H361.879H304.967C303.216 109.133 296.941 112.635 294.022 114.387H269.069V114.318Z" fill="white"/>
<path d="M436.052 112.744L437.368 114.817L415.727 116.138L416.952 113.701C417.276 113.058 417.92 112.638 418.639 112.602L434.264 111.819C434.983 111.783 435.666 112.136 436.052 112.744Z" fill="#E6E8ED"/>
<path d="M537.409 106.615L538.724 108.688L517.084 110.009L518.308 107.572C518.632 106.929 519.276 106.509 519.995 106.473L535.62 105.689C536.339 105.653 537.023 106.007 537.409 106.615Z" fill="#E6E8ED"/>
<path d="M560.635 112.636L393.838 121.391V119.202L410.474 116.138L539.183 108.258L560.635 109.571V112.636Z" fill="#E6E8ED"/>
<g filter="url(#filter1_d)">
<path d="M420.543 113.511V25.9539H424.483V113.511H429.736V25.9539H434.114V113.511" stroke="#E6E8ED" stroke-width="2" stroke-linejoin="bevel"/>
</g>
<g filter="url(#filter2_d)">
<path d="M521.234 106.944V26.3916H525.301V106.944H530.724V26.3916H535.243V106.944" stroke="#E6E8ED" stroke-width="2" stroke-linejoin="bevel"/>
</g>
<path d="M92.5 55.2856H328.17" stroke="#E6E8ED" stroke-width="3" stroke-linejoin="bevel"/>
<path d="M322.041 88.9952V105.193H330.797L332.548 72.7971H336.488L339.552 105.193H349.184V88.9952L342.617 53.5344H328.17L322.041 88.9952Z" fill="white"/>
<path d="M74 88.9952V105.193H82.7557L84.5069 72.7971H88.447L91.5115 105.193H101.143V88.9952L94.576 53.5344H80.129L74 88.9952Z" fill="white"/>
<circle cx="275.198" cy="99.0644" r="1.75115" fill="#E6E8ED"/>
<circle cx="221.751" cy="99.0644" r="1.75115" fill="#E6E8ED"/>
<circle cx="168.305" cy="99.0644" r="1.75115" fill="#E6E8ED"/>
<circle cx="114.858" cy="99.0644" r="1.75115" fill="#E6E8ED"/>
<circle cx="286.58" cy="99.0644" r="1.75115" fill="#E6E8ED"/>
<circle cx="233.134" cy="99.0644" r="1.75115" fill="#E6E8ED"/>
<circle cx="179.687" cy="99.0644" r="1.75115" fill="#E6E8ED"/>
<circle cx="126.241" cy="99.0644" r="1.75115" fill="#E6E8ED"/>
<circle cx="301.465" cy="99.0644" r="1.75115" fill="#E6E8ED"/>
<circle cx="248.018" cy="99.0644" r="1.75115" fill="#E6E8ED"/>
<circle cx="194.572" cy="99.0644" r="1.75115" fill="#E6E8ED"/>
<circle cx="141.126" cy="99.0644" r="1.75115" fill="#E6E8ED"/>
<circle cx="354.875" cy="99.0644" r="1.75115" fill="#E6E8ED"/>
<circle cx="311.096" cy="99.0644" r="1.75115" fill="#E6E8ED"/>
<circle cx="257.65" cy="99.0644" r="1.75115" fill="#E6E8ED"/>
<circle cx="204.203" cy="99.0644" r="1.75115" fill="#E6E8ED"/>
<circle cx="150.757" cy="99.0644" r="1.75115" fill="#E6E8ED"/>
<path d="M324.511 30.3909C324.362 29.1972 325.292 28.1428 326.495 28.1428H343.854C345.057 28.1428 345.987 29.1972 345.838 30.3909L344.587 40.4001C344.462 41.4009 343.611 42.152 342.602 42.152H327.746C326.738 42.152 325.887 41.4009 325.762 40.4001L324.511 30.3909Z" fill="#E6E8ED"/>
<circle cx="364.506" cy="99.0644" r="1.75115" fill="#E6E8ED"/>
<rect x="330.359" y="28.1428" width="9.63132" height="28.0184" fill="white"/>
<rect x="82.318" y="28.1428" width="9.63132" height="28.0184" fill="white"/>
<rect x="333.861" y="23.7649" width="2.62672" height="4.37787" fill="white"/>
<rect x="85.8203" y="23.7649" width="2.62672" height="4.37787" fill="white"/>
<path d="M415.786 24.8768L415.289 22.8894H436.303L435.477 25.0939C435.184 25.8746 434.438 26.3917 433.604 26.3917H417.727C416.809 26.3917 416.009 25.7671 415.786 24.8768Z" fill="#E6E8ED"/>
<path d="M518.229 24.8768L517.732 22.8894H538.745L537.919 25.0939C537.626 25.8746 536.88 26.3917 536.046 26.3917H520.169C519.251 26.3917 518.451 25.7671 518.229 24.8768Z" fill="#E6E8ED"/>
<path fill-rule="evenodd" clip-rule="evenodd" d="M301.465 2.75122H355.75V19.3871H301.465V2.75122ZM306.718 10.0045C306.718 8.89997 307.614 8.00453 308.718 8.00453H318.727C319.832 8.00453 320.727 8.89996 320.727 10.0045V12.1336C320.727 13.2381 319.832 14.1336 318.727 14.1336H308.718C307.614 14.1336 306.718 13.2381 306.718 12.1336V10.0045ZM340.239 8.00453C339.134 8.00453 338.239 8.89997 338.239 10.0045V12.1336C338.239 13.2381 339.134 14.1336 340.239 14.1336H350.248C351.353 14.1336 352.248 13.2381 352.248 12.1336V10.0045C352.248 8.89996 351.353 8.00453 350.248 8.00453H340.239Z" fill="#F2F4F7"/>
<rect x="403.031" y="2.75122" width="3.5023" height="17.5115" fill="#F2F4F7"/>
<rect x="456.317" y="2.75122" width="3.5023" height="17.5115" fill="#F2F4F7"/>
<path fill-rule="evenodd" clip-rule="evenodd" d="M454.252 3.62672H461.492L462.57 3.96878V19.387H454.252V3.62672ZM451.626 3.62672H440.15L451.626 17.1273V3.62672ZM436.741 3.62672H425.266L436.741 17.1273V3.62672ZM421.856 3.62672H411.193L421.856 16.9562V3.62672ZM407.847 3.62672H402.156V19.387H407.847V3.62672ZM399.529 3.62672H388.054L399.529 17.1273V3.62672ZM384.644 3.62672H373.169L384.644 17.1273V3.62672ZM369.76 3.62672H359.096L369.76 16.9562V3.62672ZM355.75 3.62672H302.038L287.431 19.387H355.75V3.62672ZM298.457 3.62672H286.142V16.9136L298.457 3.62672ZM282.034 3.62672H271.257V16.6215L282.034 3.62672ZM270.382 2.31349V1H461.695L462.092 1.06143L515.94 18.1351L516.014 18.1612L519.201 19.387H550.128V23.7649H269.069V20.4207L268.631 20.2628V2.31349H270.382ZM511.197 19.387L494.967 14.2408V19.387H511.197ZM492.34 13.4079L481.626 10.0107L492.34 17.703V13.4079ZM475.279 7.99824L466.827 5.31838L475.266 16.3769V8.00464L475.279 7.99824ZM368.34 19.387H358.377V6.93296L368.34 19.387ZM383.118 19.387H372.386V6.76188L383.118 19.387ZM398.002 19.387H387.271V6.76188L398.002 19.387ZM420.437 19.387H410.474V6.93296L420.437 19.387ZM435.214 19.387H424.483V6.76188L435.214 19.387ZM450.099 19.387H439.368V6.76188L450.099 19.387ZM474.259 19.387H465.197V7.51259L474.259 19.387ZM490.182 19.387H477.893V10.5644L490.182 19.387ZM272.377 19.387H283.515V5.95473L272.377 19.387Z" fill="#F2F4F7"/>
<path fill-rule="evenodd" clip-rule="evenodd" d="M239.663 2.75122H185.377V19.3871H239.663V2.75122ZM234.41 10.0045C234.41 8.89997 233.514 8.00453 232.41 8.00453H222.4C221.296 8.00453 220.4 8.89996 220.4 10.0045V12.1336C220.4 13.2381 221.296 14.1336 222.4 14.1336H232.41C233.514 14.1336 234.41 13.2381 234.41 12.1336V10.0045ZM200.889 8.00453C201.993 8.00453 202.889 8.89997 202.889 10.0045V12.1336C202.889 13.2381 201.993 14.1336 200.889 14.1336H190.88C189.775 14.1336 188.88 13.2381 188.88 12.1336V10.0045C188.88 8.89996 189.775 8.00453 190.88 8.00453H200.889Z" fill="#F2F4F7"/>
<rect width="3.5023" height="17.5115" transform="matrix(-1 0 0 1 138.096 2.75122)" fill="#F2F4F7"/>
<rect width="3.5023" height="17.5115" transform="matrix(-1 0 0 1 84.8108 2.75122)" fill="#F2F4F7"/>
<path fill-rule="evenodd" clip-rule="evenodd" d="M86.8754 3.62672H79.6362L78.5574 3.96878V19.387H86.8754V3.62672ZM89.5021 3.62672H100.978L89.5021 17.1273V3.62672ZM104.387 3.62672H115.862L104.387 17.1273V3.62672ZM119.272 3.62672H129.935L119.272 16.9562V3.62672ZM133.281 3.62672H138.972V19.387H133.281V3.62672ZM141.599 3.62672H153.074L141.599 17.1273V3.62672ZM156.484 3.62672H167.959L156.484 17.1273V3.62672ZM171.368 3.62672H182.032L171.368 16.9562V3.62672ZM185.377 3.62672H239.09L253.697 19.387H185.377V3.62672ZM242.671 3.62672H254.986V16.9136L242.671 3.62672ZM259.094 3.62672H269.87V16.6215L259.094 3.62672ZM270.746 2.31349V1H79.433L79.036 1.06143L25.1882 18.1351L25.1137 18.1612L21.9266 19.387H-9V23.7649H272.059V20.4207L272.497 20.2628V2.31349H270.746ZM29.9306 19.387L46.1612 14.2408V19.387H29.9306ZM48.7879 13.4079L59.5021 10.0107L48.7879 17.703V13.4079ZM65.8491 7.99824L74.301 5.31838L65.8616 16.3769V8.00464L65.8491 7.99824ZM172.787 19.387H182.751V6.93296L172.787 19.387ZM158.01 19.387H168.742V6.76188L158.01 19.387ZM143.125 19.387H153.857V6.76188L143.125 19.387ZM120.691 19.387H130.654V6.93296L120.691 19.387ZM105.913 19.387H116.645V6.76188L105.913 19.387ZM91.0287 19.387H101.76V6.76188L91.0287 19.387ZM66.8686 19.387H75.9307V7.51259L66.8686 19.387ZM50.9461 19.387H63.2349V10.5644L50.9461 19.387ZM268.751 19.387H257.612V5.95473L268.751 19.387Z" fill="#F2F4F7"/>
<g filter="url(#filter3_dd)">
<path d="M503.545 76.5733C503.584 76.7694 504.029 77.1549 504.376 77.4313C504.358 77.4992 504.339 77.5668 504.321 77.6339L504.285 77.7682C504.256 77.882 504.228 77.9815 504.199 78.0811C504.171 78.1807 504.143 78.2803 504.114 78.3941L503.943 79.0769C503.915 79.1907 503.887 79.2903 503.858 79.3898C503.83 79.4894 503.801 79.589 503.773 79.7028C503.659 80.1011 503.602 80.4994 503.716 80.8977C503.716 80.9546 503.709 81.0115 503.703 81.0684C503.691 81.1822 503.678 81.296 503.716 81.4098C503.773 81.865 504.228 82.0926 504.569 82.2064C504.706 82.2746 504.851 82.3337 505.002 82.3729C504.991 82.4712 504.979 82.6006 504.968 82.7754C504.986 82.7813 505.005 82.7864 505.025 82.791V82.8892C504.974 83.1926 504.878 83.4511 504.778 83.7046L504.74 83.6289C504.704 83.5562 504.487 83.5648 504.201 83.6122C504.191 83.5418 504.181 83.4716 504.171 83.4013C504.114 83.1737 502.862 83.572 502.749 83.7427L502.744 83.7482C502.6 83.7466 502.447 83.7487 502.294 83.7508C501.776 83.7579 501.262 83.765 501.098 83.6289C500.768 83.3931 500.497 83.2746 500.243 83.164C499.885 83.0077 499.564 82.8672 499.164 82.434C498.013 81.1943 496.792 79.4032 495.745 77.8652C495.446 77.4268 495.161 77.0088 494.896 76.6301C494.809 76.7067 494.711 76.796 494.607 76.8937C494.515 76.7858 494.452 76.7099 494.441 76.687C494.213 76.4025 493.758 75.9473 493.474 75.8335C493.445 75.8335 493.36 75.8051 493.275 75.7766C493.189 75.7482 493.104 75.7197 493.075 75.7197C492.911 75.5886 492.842 75.6842 492.758 75.7996C492.696 75.8845 492.627 75.9801 492.506 76.0042C492.433 76.041 492.383 76.1015 492.326 76.1703C492.295 76.2081 492.262 76.2484 492.222 76.2887C492.49 76.021 492.102 76.61 492.103 76.4906C492.106 76.4802 492.108 76.4698 492.108 76.4594C492.105 76.4728 492.103 76.4831 492.103 76.4906C492.098 76.5086 492.089 76.5267 492.08 76.5448C492.065 76.5732 492.051 76.6017 492.051 76.6301V76.687C492.051 76.9716 492.051 77.2561 491.994 77.5406C492.165 77.7682 492.393 77.9389 492.677 78.0527C492.901 78.1521 493.136 78.2407 493.372 78.2995C493.858 79.0984 494.293 79.983 494.734 80.8794C495.423 82.2781 496.125 83.7054 497.058 84.8808C497.672 85.6364 500.717 88.0386 502.287 89.2238C502.369 90.1319 502.399 91.0502 502.398 91.9682C502.277 92.175 502.179 92.389 502.179 92.7331V94.497C502.179 94.7504 502.183 95.0073 502.186 95.2669C502.191 95.5874 502.195 95.912 502.193 96.2389C502.155 96.6545 502.123 97.0703 502.123 97.342C502.123 97.3875 502.12 97.4248 502.117 97.4558C502.036 97.468 501.985 97.5285 501.952 97.6265C502.009 97.7403 502.009 97.8541 502.009 97.9679C502.009 98.1955 501.952 98.4231 501.838 98.5938C501.886 98.6893 501.974 98.7847 502.068 98.813C502.066 98.9141 502.066 99.013 502.066 99.1059C502.066 99.4474 502.009 99.8457 501.952 100.187C501.923 100.301 501.909 100.429 501.895 100.557C501.881 100.685 501.867 100.813 501.838 100.927C501.61 102.634 501.383 104.398 501.212 106.105C501.155 106.645 501.098 107.172 501.041 107.698C500.985 108.224 500.928 108.751 500.871 109.291C500.757 110.429 500.928 111.34 501.155 112.478C501.44 113.957 501.61 115.55 501.724 117.087C501.781 117.94 501.838 118.737 501.952 119.59C501.98 119.875 501.995 120.273 502.009 120.671C502.023 121.07 502.037 121.468 502.066 121.752C502.28 121.788 502.539 121.824 502.787 121.846C502.755 121.851 502.723 121.858 502.692 121.866C502.287 121.928 501.9 122.008 501.521 122.085C501.206 122.15 500.896 122.213 500.586 122.265C500.535 122.265 500.484 122.276 500.428 122.289C500.359 122.304 500.282 122.321 500.188 122.321C499.733 122.378 499.221 122.492 498.936 122.834C498.709 123.061 498.765 123.403 499.107 123.516C499.505 123.63 500.017 123.687 500.586 123.744C501.305 123.782 502.099 123.769 502.902 123.757C503.307 123.75 503.714 123.744 504.114 123.744C504.342 123.744 504.626 123.687 504.797 123.573C505.081 123.403 505.252 123.061 505.195 122.492C505.167 122.435 505.138 122.35 505.103 122.243C505.067 122.137 505.025 122.008 504.968 121.866C505.152 121.856 505.311 121.837 505.423 121.809C505.453 121.779 505.356 119.791 505.257 117.781C505.17 115.992 505.081 114.185 505.081 113.729C505.081 113.217 505.025 112.705 504.968 112.193C504.854 111.51 504.74 110.828 504.683 110.088C504.683 109.917 504.683 109.633 504.626 109.519C504.695 109.381 504.743 109.243 504.796 109.093C504.83 108.995 504.866 108.891 504.911 108.779C505.536 107.131 505.877 105.426 506.218 103.722C506.349 103.781 506.5 103.819 506.675 103.829L507.13 121.866C507.367 121.866 507.695 121.866 508.066 121.865C508.016 121.898 507.965 121.933 507.917 121.966C507.881 121.991 507.846 122.015 507.813 122.037C507.517 122.244 507.39 122.42 507.257 122.605C507.134 122.777 507.005 122.956 506.732 123.175C506.618 123.232 506.504 123.289 506.39 123.403C506.359 123.425 506.324 123.449 506.286 123.476C505.838 123.793 504.963 124.41 504.911 124.882C504.797 125.792 506.276 125.849 506.902 125.622C507.475 125.431 508.101 125.009 508.731 124.584C509.227 124.249 509.726 123.913 510.202 123.687C510.373 123.63 510.601 123.459 510.715 123.232C510.885 122.89 510.885 122.435 510.544 121.866L510.534 121.856L510.523 121.845L510.509 121.83C510.671 121.824 510.817 121.817 510.942 121.809C511.17 120.558 511.625 117.03 511.284 113.104C510.942 109.576 510.885 103.999 510.885 100.927V100.244C510.885 100.13 510.871 100.016 510.857 99.9026C510.843 99.7888 510.828 99.675 510.828 99.5612C510.732 99.3049 510.654 99.0667 510.584 98.8262L510.601 98.8214C510.658 98.8214 510.715 98.7645 510.772 98.7076C510.715 98.6507 510.715 98.6507 510.715 98.5938C510.715 98.5369 510.715 98.5369 510.658 98.48V97.7972C510.62 97.7221 510.564 97.6718 510.497 97.6381C510.521 96.8143 510.579 96.0355 510.642 95.2093C510.718 94.191 510.801 93.1007 510.828 91.7657C510.862 91.732 510.951 91.3086 511.077 90.6865C511.147 90.8214 511.202 90.9388 511.227 91.026C511.853 93.9849 511.739 97.342 511.511 100.358C511.624 100.369 511.756 100.374 511.901 100.372C511.903 100.439 511.904 100.499 511.905 100.552C511.908 100.662 511.91 100.736 511.91 100.756C511.927 100.844 511.939 100.964 511.953 101.096C511.983 101.394 512.019 101.754 512.137 101.951C512.137 102.008 512.308 102.292 512.365 102.292C512.396 102.482 512.498 102.461 512.63 102.434C512.737 102.413 512.864 102.387 512.991 102.463C513.078 102.419 513.165 102.409 513.278 102.407C513.267 102.417 513.294 102.42 513.389 102.406C513.349 102.406 513.313 102.406 513.278 102.407C513.315 102.374 513.747 102.263 513.617 102.349C513.673 102.349 513.73 102.292 513.73 102.292L513.787 102.235C513.958 102.008 514.186 101.78 514.356 101.61C514.356 101.325 514.299 101.041 514.129 100.756C514.02 100.54 513.886 100.323 513.727 100.131C513.728 100.131 513.729 100.131 513.73 100.13C514.129 97.7403 514.299 94.2694 514.356 91.8227C514.356 90.9723 513.784 88.9462 513.377 87.5016C513.239 87.013 513.119 86.5909 513.048 86.3033C512.906 85.641 512.646 85.2934 512.039 84.9988C511.693 84.5795 511.267 84.2398 510.715 84.0272C510.666 84.0078 510.564 83.9735 510.428 83.9313C510.43 83.8305 510.43 83.7297 510.43 83.6289C510.43 83.4572 509.685 83.5122 509.27 83.6229C508.732 83.5044 508.233 83.4397 508.154 83.572L508.136 83.5994C507.972 83.321 507.811 82.9913 507.756 82.6616C507.744 82.626 507.732 82.5929 507.721 82.5611C507.709 82.5284 507.698 82.4971 507.688 82.4663C507.718 82.4046 507.741 82.3368 507.756 82.2633V82.1495C508.04 82.1495 508.268 81.9788 508.439 81.6943L508.609 81.3529C509.008 81.4098 509.463 81.2391 509.577 80.727C509.662 80.3572 509.747 80.0016 509.833 79.646L509.833 79.6439C509.889 79.4114 509.945 79.1788 510.001 78.9423C510.075 78.909 510.143 78.8602 510.202 78.7924C510.231 78.7639 510.259 78.7213 510.288 78.6786C510.316 78.6359 510.345 78.5932 510.373 78.5648C510.658 78.1096 510.772 77.3699 510.828 76.9147C510.885 76.6302 510.885 76.2887 510.828 76.0042C510.772 75.7197 510.658 75.4921 510.487 75.2645C509.406 73.7282 507.016 73.2161 505.594 74.6386C505.366 74.8662 505.195 75.1507 505.025 75.4352C504.958 75.5347 504.911 75.6534 504.861 75.7803C504.825 75.8711 504.788 75.9661 504.74 76.0611C504.74 76.0611 503.488 76.2887 503.545 76.5733Z" fill="#CBCDD5"/>
</g>
<g filter="url(#filter4_dd)">
<path fill-rule="evenodd" clip-rule="evenodd" d="M443.571 74.8875C443.711 74.8698 443.852 74.8607 443.993 74.8607C444.301 74.8607 444.609 74.8607 444.855 74.983C445.162 75.1052 445.409 75.2887 445.655 75.5332C446.024 75.9001 446.578 76.4503 446.701 77.0006C446.717 77.0334 446.734 77.0618 446.749 77.0881C446.761 77.1095 446.773 77.1295 446.783 77.1495C446.798 77.161 446.812 77.1725 446.824 77.184C447.07 77.0618 447.316 77.1229 447.501 77.3063C447.624 77.4286 447.747 77.5509 447.747 77.7343V77.8566C447.993 77.8566 448.301 77.9789 448.362 78.2846V78.5903C448.731 78.8349 448.977 79.324 448.731 79.6908C448.67 79.752 448.608 79.8131 448.547 79.8131C448.547 79.9354 448.547 80.0577 448.485 80.18C448.362 80.3634 448.177 80.4857 448.116 80.4857C447.993 80.608 447.87 80.6691 447.685 80.6691L447.624 80.7302C447.546 80.9222 447.469 81.0901 447.346 81.2036C447.349 81.221 447.352 81.2385 447.355 81.2559C447.649 81.6472 447.956 82.0389 448.054 82.1365C448.101 82.1902 448.146 82.243 448.191 82.2949L448.192 82.2968C448.411 82.5511 448.612 82.7853 448.825 83.0135C448.813 82.8864 448.793 82.809 448.793 82.809C448.793 82.809 448.839 82.7992 448.918 82.7844C448.916 82.7425 448.916 82.7076 448.916 82.6868C449.131 82.6258 449.33 82.5648 449.53 82.5038L449.531 82.5034L449.532 82.5032L449.532 82.503C449.732 82.442 449.932 82.3809 450.146 82.3199L450.148 82.322C450.149 82.3234 450.151 82.3254 450.152 82.328C450.218 82.2845 450.305 82.2411 450.393 82.1976C450.577 82.1569 450.762 82.0957 450.946 82.0346C451.316 81.9123 451.685 81.79 452.054 81.8308C452.485 81.8308 452.854 82.0142 453.161 82.3199C453.408 82.3199 455.746 83.2982 455.807 83.4205L455.809 83.4225C456.527 83.5706 457.231 83.774 457.899 84.093C458.33 84.3376 458.761 84.5821 459.007 84.949C459.13 85.1324 459.192 85.3158 459.253 85.4993C459.684 85.9273 459.93 86.5387 460.053 87.0278C460.099 87.1751 460.146 87.3245 460.195 87.4757C460.407 88.1399 460.63 88.8373 460.73 89.5346C460.853 90.0237 460.914 90.4517 460.914 90.9408C460.927 91.017 460.929 91.0984 460.925 91.183C461.006 91.1936 461.085 91.2144 461.161 91.2466C461.212 91.4501 461.252 91.6564 461.283 91.8642L463.622 89.3512C463.745 89.2289 463.991 89.2289 464.114 89.3512C464.237 89.4735 464.237 89.718 464.114 89.8403L461.362 92.7978C461.374 93.2844 461.343 93.7706 461.284 94.2425C461.263 94.3036 461.249 94.3648 461.236 94.4259C461.208 94.5482 461.181 94.6705 461.099 94.7928C460.914 95.0373 460.607 95.1596 460.299 95.2207C460.284 95.2245 460.269 95.2283 460.254 95.2321C460.228 95.2388 460.202 95.2454 460.177 95.2519C459.988 95.3011 459.826 95.343 459.622 95.343C459.448 95.343 459.274 95.2817 459.165 95.1589L458.697 95.6615C458.693 95.7578 458.68 95.8629 458.643 95.944C458.845 96.3251 458.951 96.9236 459.007 97.4218L459.037 97.7298C459.149 98.9024 459.258 100.032 459.315 101.213C459.438 103.353 459.499 104.881 459.561 107.021C459.561 107.388 459.438 114.236 459.376 116.865C459.376 117.021 459.386 117.185 459.395 117.351C459.435 118.028 459.477 118.746 458.884 119.188C458.667 119.35 458.392 119.432 458.092 119.462C458.096 119.525 458.1 119.589 458.106 119.653C458.191 119.86 458.268 120.074 458.33 120.289C458.376 120.425 458.43 120.736 458.476 121.094C459.408 121.26 460.331 121.429 461.222 121.695C463.437 122.429 465.591 124.813 464.606 126.953C463.929 128.42 462.145 128.971 460.545 129.093C459.315 129.215 458.022 129.154 456.792 129.032C456.151 128.968 455.506 128.888 454.857 128.807C453.016 128.578 451.151 128.346 449.285 128.482C449.07 128.512 448.854 128.527 448.639 128.543C448.424 128.558 448.208 128.573 447.993 128.604C446.913 128.742 445.852 128.979 444.8 129.214C443.995 129.393 443.194 129.572 442.394 129.704C440.671 129.949 438.825 129.888 437.225 129.276C436.24 128.91 435.748 128.665 436.363 127.748C436.794 127.137 437.225 126.525 436.979 125.914C436.917 125.791 436.856 125.669 436.733 125.486C436.487 125.241 436.179 125.119 435.871 124.997C434.967 124.707 433.26 124.967 431.538 125.229C429.628 125.52 427.7 125.814 426.826 125.363C426.518 125.241 426.395 124.997 426.334 124.691C426.088 121.94 431.81 119.433 433.902 119.616C434.019 119.632 434.136 119.65 434.251 119.67C434.161 115.839 437.04 113.502 437.04 113.502L439.135 115.427L440.363 114.113L440.48 114.221L446.003 108.285C446 108.179 445.996 108.074 445.993 107.969C445.953 106.755 445.914 105.574 445.716 104.392C445.47 102.802 445.285 101.396 446.824 100.357C446.981 100.239 447.164 100.122 447.355 100.005C447.023 98.8404 446.71 97.6872 446.455 96.5047C446.332 95.8933 446.208 95.343 446.024 94.7316C445.788 94.0035 445.553 93.2755 445.332 92.5427L445.285 92.5305C445.255 92.5 445.224 92.4847 445.193 92.4694C445.162 92.4541 445.132 92.4388 445.101 92.4082C445.039 92.3471 444.978 92.2248 444.978 92.1637C444.978 92.1025 444.962 92.0414 444.947 91.9802C444.932 91.9191 444.916 91.858 444.916 91.7968C444.081 90.193 442.844 87.1384 444.528 86.0268L444.547 85.9884C444.583 85.9577 444.622 85.927 444.662 85.8964C444.621 85.821 444.582 85.7496 444.547 85.6827C444.855 85.6215 445.162 85.4381 445.409 85.1936C445.446 85.2463 445.485 85.299 445.523 85.3515C445.776 85.1997 446.018 85.0478 446.199 84.8959C446.167 84.8348 446.13 84.7541 446.085 84.6598C446.033 84.5478 445.971 84.4166 445.901 84.2764C445.874 84.2095 445.844 84.1425 445.812 84.0756C445.528 84.1674 445.225 84.1959 444.978 84.0319C444.855 83.9707 444.732 83.8484 444.609 83.665C444.239 83.4205 443.932 83.1148 443.686 82.7479L443.671 82.7254C443.524 82.7212 443.379 82.6872 443.255 82.6256C443.132 82.6868 443.009 82.6868 442.824 82.6256C442.394 82.5033 442.27 82.1365 442.209 81.7696C442.144 81.7696 442.061 81.7525 441.98 81.7182C441.852 81.7596 441.723 81.797 441.594 81.8308C441.409 81.8919 441.224 81.8919 441.04 81.8919C440.855 81.8308 440.732 81.6474 440.794 81.4639L440.798 81.4601C440.833 81.1372 441.048 80.5973 441.16 80.3586C441.038 80.1164 440.916 79.9342 440.794 79.752C440.609 79.4463 440.486 79.1406 440.425 78.7737C440.251 77.7689 440.593 76.8451 441.209 76.1476C441.342 75.7291 441.568 75.3495 441.901 75.0441C442.27 74.7384 442.763 74.6772 443.193 74.6772C443.44 74.6772 443.624 74.8607 443.624 74.8607C443.606 74.8692 443.588 74.8782 443.571 74.8875ZM459.565 91.7338C459.569 91.8407 459.575 91.9985 459.576 92.1565C459.522 92.199 459.458 92.2248 459.376 92.2248L459.253 92.3471C459.007 92.8362 458.822 93.3254 458.699 93.8756C458.857 93.7712 459.059 93.9789 459.115 94.1941L458.516 94.8383C458.406 94.5911 458.248 94.3617 458.035 94.1702L457.838 93.3865C457.715 92.8362 457.53 92.2248 457.346 91.6745C456.73 90.0849 455.684 88.7398 454.638 87.3946L454.454 87.2112C454.401 87.1851 454.348 87.1813 454.296 87.1855C454.094 86.9398 453.881 86.7034 453.654 86.4775C453.622 86.3837 453.575 86.2739 453.519 86.1645C454.164 86.2022 454.81 86.2047 455.438 86.1718C455.5 86.1718 455.561 86.1718 455.623 86.1107C455.658 86.0755 455.673 86.0606 455.68 86.0426C455.684 86.0293 455.684 86.0144 455.684 85.9884L455.695 85.8661H456.3C456.382 85.8798 456.468 85.8873 456.553 85.8949C456.852 85.9213 457.154 85.948 457.346 86.233C457.521 86.4764 457.636 86.7792 457.748 87.0738C457.833 87.2971 457.916 87.5158 458.022 87.7004C458.822 88.9843 459.315 90.146 459.561 91.6134C459.561 91.6334 459.562 91.6762 459.565 91.7338ZM439.929 116.168L441.163 114.847L440.991 114.689L446.039 109.264L446.043 109.385C446.096 110.924 446.184 113.528 446.962 114.602C446.936 114.618 446.911 114.638 446.885 114.664C446.843 114.714 446.801 114.767 446.758 114.821C446.74 114.829 446.72 114.837 446.701 114.847L446.697 114.848C446.659 114.827 446.619 114.807 446.578 114.786C446.578 114.786 446.516 114.847 446.578 114.847C446.599 114.854 446.619 114.862 446.639 114.871C446.509 114.921 446.383 114.976 446.26 115.033C446.222 115.031 446.185 115.031 446.147 115.031V115.087C445.985 115.166 445.828 115.25 445.672 115.337C445.666 115.336 445.661 115.336 445.655 115.336C445.523 115.336 445.462 115.383 445.435 115.451C445.427 115.46 445.421 115.469 445.417 115.48L445.347 115.52C445.323 115.544 445.185 115.634 445.027 115.734C444.99 115.725 444.953 115.715 444.916 115.703C444.944 115.722 444.972 115.737 444.999 115.751C444.878 115.828 444.747 115.909 444.648 115.97C444.527 115.982 444.41 115.993 444.301 116.009C443.927 116.062 443.6 116.161 443.4 116.386C442.93 116.51 442.802 116.855 442.918 117.142C442.422 117.275 441.932 117.429 441.448 117.604L439.929 116.168ZM445.435 115.451C445.458 115.423 445.497 115.403 445.561 115.399L445.506 115.43L445.427 115.474C445.429 115.466 445.432 115.458 445.435 115.451ZM450.202 104.791L452.247 102.593L452.279 102.572L452.3 102.558C452.669 102.313 453.038 102.191 453.408 102.069C453.859 101.901 454.258 101.835 454.7 101.825C454.704 104.088 454.768 105.82 454.946 108.122C454.946 108.305 455.007 112.035 455.192 113.441C455.438 115.092 455.438 116.62 455.315 118.332C455.315 118.699 455.561 119.005 455.93 119.127C456.009 119.151 456.094 119.176 456.183 119.202C456.187 119.445 456.164 119.816 456.137 120.235L456.137 120.235L456.137 120.236C456.13 120.347 456.123 120.462 456.116 120.579C455.516 120.411 454.933 120.208 454.392 119.922C453.757 119.578 453.123 119.072 452.539 118.607L452.423 118.516C451.582 117.859 450.8 117.261 449.847 116.891C449.857 116.696 449.801 116.493 449.701 116.325C449.684 116.254 449.663 116.186 449.642 116.119C449.625 116.061 449.607 116.004 449.593 115.948C449.573 115.811 449.553 115.694 449.532 115.587C449.711 115.552 449.878 115.49 450.023 115.397C451.077 114.717 450.822 112.018 450.689 110.604C450.667 110.367 450.648 110.166 450.639 110.017L450.63 109.902C450.523 108.404 450.409 106.819 450.044 105.349L450.27 105.126C450.242 105.017 450.221 104.904 450.202 104.791ZM450.331 96.4436C450.368 96.4436 450.405 96.4437 450.442 96.4438C450.355 96.2231 450.22 96.0113 450.085 95.8322C449.882 95.5403 449.67 95.2485 449.456 94.9536L449.456 94.9531L449.455 94.9526L449.455 94.9521C449.087 94.4444 448.712 93.9276 448.362 93.3865C448.31 93.3085 448.255 93.2305 448.199 93.1519C448.101 93.0132 448.002 92.8725 447.914 92.7269C447.895 92.7328 447.876 92.7385 447.856 92.744C447.861 92.7747 447.865 92.8054 447.87 92.8362C447.89 92.9585 447.924 93.074 447.959 93.1895C448.027 93.4205 448.095 93.6514 448.054 93.9368C448.054 94.2125 448.08 94.4121 448.115 94.6827C448.134 94.8321 448.156 95.0032 448.177 95.2207C448.177 95.4653 448.239 95.9544 448.362 96.199C448.447 96.5073 448.518 96.8284 448.589 97.1447C448.672 97.5184 448.754 97.8855 448.854 98.2167C448.888 98.3405 448.922 98.4999 448.956 98.6842L450.142 97.6039C450.102 97.5857 450.063 97.5658 450.023 97.5441C450.27 97.6664 450.331 96.5047 450.331 96.4436Z" fill="#CBCDD5"/>
</g>
<defs>
<filter id="filter0_dd" x="374.805" y="44.7969" width="63.6405" height="94.2856" filterUnits="userSpaceOnUse" color-interpolation-filters="sRGB">
<feFlood flood-opacity="0" result="BackgroundImageFix"/>
<feColorMatrix in="SourceAlpha" type="matrix" values="0 0 0 0 0 0 0 0 0 0 0 0 0 0 0 0 0 0 127 0"/>
<feOffset dy="-2"/>
<feGaussianBlur stdDeviation="10"/>
<feColorMatrix type="matrix" values="0 0 0 0 0.721569 0 0 0 0 0.737851 0 0 0 0 0.784314 0 0 0 0.3 0"/>
<feBlend mode="normal" in2="BackgroundImageFix" result="effect1_dropShadow"/>
<feColorMatrix in="SourceAlpha" type="matrix" values="0 0 0 0 0 0 0 0 0 0 0 0 0 0 0 0 0 0 127 0"/>
<feOffset dy="-1"/>
<feColorMatrix type="matrix" values="0 0 0 0 1 0 0 0 0 1 0 0 0 0 1 0 0 0 1 0"/>
<feBlend mode="normal" in2="effect1_dropShadow" result="effect2_dropShadow"/>
<feBlend mode="normal" in="SourceGraphic" in2="effect2_dropShadow" result="shape"/>
</filter>
<filter id="filter1_d" x="418.543" y="24.9539" width="16.5714" height="89.5574" filterUnits="userSpaceOnUse" color-interpolation-filters="sRGB">
<feFlood flood-opacity="0" result="BackgroundImageFix"/>
<feColorMatrix in="SourceAlpha" type="matrix" values="0 0 0 0 0 0 0 0 0 0 0 0 0 0 0 0 0 0 127 0"/>
<feOffset dx="-1"/>
<feColorMatrix type="matrix" values="0 0 0 0 1 0 0 0 0 1 0 0 0 0 1 0 0 0 1 0"/>
<feBlend mode="normal" in2="BackgroundImageFix" result="effect1_dropShadow"/>
<feBlend mode="normal" in="SourceGraphic" in2="effect1_dropShadow" result="shape"/>
</filter>
<filter id="filter2_d" x="519.234" y="25.3916" width="17.0092" height="82.5528" filterUnits="userSpaceOnUse" color-interpolation-filters="sRGB">
<feFlood flood-opacity="0" result="BackgroundImageFix"/>
<feColorMatrix in="SourceAlpha" type="matrix" values="0 0 0 0 0 0 0 0 0 0 0 0 0 0 0 0 0 0 127 0"/>
<feOffset dx="-1"/>
<feColorMatrix type="matrix" values="0 0 0 0 1 0 0 0 0 1 0 0 0 0 1 0 0 0 1 0"/>
<feBlend mode="normal" in2="BackgroundImageFix" result="effect1_dropShadow"/>
<feBlend mode="normal" in="SourceGraphic" in2="effect1_dropShadow" result="shape"/>
</filter>
<filter id="filter3_dd" x="471.994" y="51.8018" width="62.362" height="91.9327" filterUnits="userSpaceOnUse" color-interpolation-filters="sRGB">
<feFlood flood-opacity="0" result="BackgroundImageFix"/>
<feColorMatrix in="SourceAlpha" type="matrix" values="0 0 0 0 0 0 0 0 0 0 0 0 0 0 0 0 0 0 127 0"/>
<feOffset dy="-2"/>
<feGaussianBlur stdDeviation="10"/>
<feColorMatrix type="matrix" values="0 0 0 0 0.721569 0 0 0 0 0.737851 0 0 0 0 0.784314 0 0 0 0.3 0"/>
<feBlend mode="normal" in2="BackgroundImageFix" result="effect1_dropShadow"/>
<feColorMatrix in="SourceAlpha" type="matrix" values="0 0 0 0 0 0 0 0 0 0 0 0 0 0 0 0 0 0 127 0"/>
<feOffset dy="-1"/>
<feColorMatrix type="matrix" values="0 0 0 0 1 0 0 0 0 1 0 0 0 0 1 0 0 0 1 0"/>
<feBlend mode="normal" in2="effect1_dropShadow" result="effect2_dropShadow"/>
<feBlend mode="normal" in="SourceGraphic" in2="effect2_dropShadow" result="shape"/>
</filter>
<filter id="filter4_dd" x="406.326" y="52.6772" width="78.5253" height="95.1612" filterUnits="userSpaceOnUse" color-interpolation-filters="sRGB">
<feFlood flood-opacity="0" result="BackgroundImageFix"/>
<feColorMatrix in="SourceAlpha" type="matrix" values="0 0 0 0 0 0 0 0 0 0 0 0 0 0 0 0 0 0 127 0"/>
<feOffset dy="-2"/>
<feGaussianBlur stdDeviation="10"/>
<feColorMatrix type="matrix" values="0 0 0 0 0.721569 0 0 0 0 0.737851 0 0 0 0 0.784314 0 0 0 0.3 0"/>
<feBlend mode="normal" in2="BackgroundImageFix" result="effect1_dropShadow"/>
<feColorMatrix in="SourceAlpha" type="matrix" values="0 0 0 0 0 0 0 0 0 0 0 0 0 0 0 0 0 0 127 0"/>
<feOffset dy="-1"/>
<feColorMatrix type="matrix" values="0 0 0 0 1 0 0 0 0 1 0 0 0 0 1 0 0 0 1 0"/>
<feBlend mode="normal" in2="effect1_dropShadow" result="effect2_dropShadow"/>
<feBlend mode="normal" in="SourceGraphic" in2="effect2_dropShadow" result="shape"/>
</filter>
<linearGradient id="paint0_linear" x1="334.783" y1="106.974" x2="334.802" y2="122.674" gradientUnits="userSpaceOnUse">
<stop stop-color="#B7BBBF"/>
<stop offset="1" stop-color="#858C95" stop-opacity="0"/>
</linearGradient>
<linearGradient id="paint1_linear" x1="85.5626" y1="106.974" x2="85.5818" y2="122.674" gradientUnits="userSpaceOnUse">
<stop stop-color="#B7BBBF"/>
<stop offset="1" stop-color="#858C95" stop-opacity="0"/>
</linearGradient>
</defs>
</svg>
