<svg width="1440" height="261" viewBox="0 0 1440 261" fill="none" xmlns="http://www.w3.org/2000/svg">
<path d="M273 24L772 1L-0.999939 0V261C-0.999939 257.8 960.333 259.667 1441 261V96C1283.67 104.667 959.6 123.2 922 128C875 134 400.592 85.8779 417 81C454 70 751 75 806 70C861 65 860 58 837 55C814 52 778 48 764 49C750 50 688 39 653 39H566H72.0001L273 24Z" fill="#DEE1EA"/>
<path d="M273 24L772 1L-0.999939 0V261C-0.999939 257.8 960.333 259.667 1441 261V96C1283.67 104.667 959.6 123.2 922 128C875 134 400.592 85.8779 417 81C454 70 751 75 806 70C861 65 860 58 837 55C814 52 778 48 764 49C750 50 688 39 653 39H566H72.0001L273 24Z" fill="url(#paint0_linear)"/>
<defs>
<linearGradient id="paint0_linear" x1="764" y1="163" x2="562" y2="6.00002" gradientUnits="userSpaceOnUse">
<stop stop-color="white"/>
<stop offset="1" stop-color="white" stop-opacity="0"/>
</linearGradient>
</defs>
</svg>
