<svg width="530" height="356" viewBox="0 0 530 356" fill="none" xmlns="http://www.w3.org/2000/svg">
<g filter="url(#filter0_d)">
<path d="M1.06805 257.553H34.8545H128.058C136.602 260.66 157.418 259.184 172.33 265.709C190.971 273.864 211.942 271.534 225.922 271.534H271.359L324.952 284.349C356.408 286.291 422.117 291.107 433.301 294.835C447.282 299.495 451.942 302.99 458.932 312.311C462.994 317.726 466.269 336.908 468.3 354.544H528.835V2.40771H512.524C500.485 7.84461 475.243 18.7184 470.583 18.7184H387.864H349.418H281.845C272.524 18.7184 232.913 64.1553 225.922 64.1553C220.33 64.1553 193.301 59.8834 187.476 64.1553L172.33 106.097L128.058 73.4757L107.087 64.1553L83.7865 73.4757L50.0001 92.1164V127.068C44.9515 129.786 34.8545 136.155 34.8545 139.883V176L1.06805 257.553Z" fill="#E4E5EC"/>
<path d="M1.06805 257.553H34.8545H128.058C136.602 260.66 157.418 259.184 172.33 265.709C190.971 273.864 211.942 271.534 225.922 271.534H271.359L324.952 284.349C356.408 286.291 422.117 291.107 433.301 294.835C447.282 299.495 451.942 302.99 458.932 312.311C462.994 317.726 466.269 336.908 468.3 354.544H528.835V2.40771H512.524C500.485 7.84461 475.243 18.7184 470.583 18.7184H387.864H349.418H281.845C272.524 18.7184 232.913 64.1553 225.922 64.1553C220.33 64.1553 193.301 59.8834 187.476 64.1553L172.33 106.097L128.058 73.4757L107.087 64.1553L83.7865 73.4757L50.0001 92.1164V127.068C44.9515 129.786 34.8545 136.155 34.8545 139.883V176L1.06805 257.553Z" fill="url(#paint0_linear)"/>
</g>
<path d="M65.1457 92.1162H124.563L188.641 142.213L145.534 179.495L90.7767 142.213L38.3495 173.67L54.6602 142.213L65.1457 92.1162Z" fill="#F2F4F7"/>
<g filter="url(#filter1_d)">
<path d="M34.8544 176L50.0001 146.874L69.8059 127.068V92.1165L101.262 121.243L119.903 92.1165L187.476 146.874L215.437 92.1165C229.418 96.7766 273 132.893 273 132.893L323.786 127.068L405.34 132.893L486.893 121.243L528.835 146.874V2.40771H512.524C500.486 7.84461 475.243 18.7184 470.583 18.7184H387.864H349.418H281.845C272.524 18.7184 232.913 64.1553 225.922 64.1553C220.33 64.1553 193.301 59.8834 187.476 64.1553L172.33 106.097L128.058 73.4757L107.087 64.1553L83.7865 73.4757L50.0001 92.1165V127.068C44.9515 129.786 34.8544 136.155 34.8544 139.883V176Z" fill="#D6DBE3"/>
</g>
<path d="M433.301 231.34L300.486 221.437C271.359 230.175 264.369 224.349 136.796 228.427L105.922 237.747H89.0292L61.9419 247.65L0.485535 257.553H128.059C136.602 260.66 157.418 259.184 172.33 265.709C190.971 273.864 211.942 271.534 225.923 271.534H271.359L324.952 284.349C356.408 286.291 422.117 291.107 433.301 294.835C447.282 299.495 451.942 302.99 458.932 312.311C462.641 317.255 465.694 337.284 467.743 355L528.835 354.544V262.796L496.214 245.903L478.155 240.66H465.922L433.301 231.34Z" fill="#F2F4F7"/>
<path d="M90.0001 238H106V196L90.0001 197.167V238Z" fill="#E6E8ED"/>
<path d="M90.0001 238H106V196L90.0001 197.167V238Z" fill="url(#paint1_linear)"/>
<path d="M106 237L110.679 235.24L137 228.787V193L106 194.76V237Z" fill="#F2F4F7"/>
<path d="M111 222.983C111 222.983 112.437 203 122.5 203C132.562 203 134 220.697 134 220.697V230.152L111 235V222.983Z" fill="#CBCDD5"/>
<path d="M111 222.983C111 222.983 112.437 203 122.5 203C132.562 203 134 220.697 134 220.697V230.152L111 235V222.983Z" fill="url(#paint2_linear)"/>
<path d="M112 232.491C141.109 232.878 224.01 236.796 271.515 242.381C330.897 249.362 370.813 255.767 412.401 262.16C457.811 269.142 476.44 277.286 493.905 299.393C508.256 317.558 516.137 330.289 521.774 355.5M112 229C136.451 230.939 190.743 231.152 212.716 232.491C260.454 235.399 405.339 253.338 443.838 259.833C488.666 267.396 511.759 278.644 530 294.157" stroke="#E4E5EC" stroke-width="2"/>
<defs>
<filter id="filter0_d" x="1.06805" y="0.407715" width="527.767" height="354.136" filterUnits="userSpaceOnUse" color-interpolation-filters="sRGB">
<feFlood flood-opacity="0" result="BackgroundImageFix"/>
<feColorMatrix in="SourceAlpha" type="matrix" values="0 0 0 0 0 0 0 0 0 0 0 0 0 0 0 0 0 0 127 0"/>
<feOffset dy="-2"/>
<feColorMatrix type="matrix" values="0 0 0 0 1 0 0 0 0 1 0 0 0 0 1 0 0 0 1 0"/>
<feBlend mode="normal" in2="BackgroundImageFix" result="effect1_dropShadow"/>
<feBlend mode="normal" in="SourceGraphic" in2="effect1_dropShadow" result="shape"/>
</filter>
<filter id="filter1_d" x="34.8544" y="0.407715" width="493.981" height="175.592" filterUnits="userSpaceOnUse" color-interpolation-filters="sRGB">
<feFlood flood-opacity="0" result="BackgroundImageFix"/>
<feColorMatrix in="SourceAlpha" type="matrix" values="0 0 0 0 0 0 0 0 0 0 0 0 0 0 0 0 0 0 127 0"/>
<feOffset dy="-2"/>
<feColorMatrix type="matrix" values="0 0 0 0 1 0 0 0 0 1 0 0 0 0 1 0 0 0 1 0"/>
<feBlend mode="normal" in2="BackgroundImageFix" result="effect1_dropShadow"/>
<feBlend mode="normal" in="SourceGraphic" in2="effect1_dropShadow" result="shape"/>
</filter>
<linearGradient id="paint0_linear" x1="1.06806" y1="259.883" x2="408.835" y2="217.942" gradientUnits="userSpaceOnUse">
<stop stop-color="white"/>
<stop offset="1" stop-color="white" stop-opacity="0"/>
</linearGradient>
<linearGradient id="paint1_linear" x1="106" y1="212.333" x2="92.8572" y2="212.333" gradientUnits="userSpaceOnUse">
<stop stop-color="white"/>
<stop offset="1" stop-color="#EEEEF1"/>
</linearGradient>
<linearGradient id="paint2_linear" x1="136.875" y1="218.515" x2="109.559" y2="220.41" gradientUnits="userSpaceOnUse">
<stop stop-color="#ECECF0"/>
<stop offset="1" stop-color="#CBCDD5"/>
</linearGradient>
</defs>
</svg>
