<svg width="160" height="119" viewBox="0 0 160 119" fill="none" xmlns="http://www.w3.org/2000/svg">
<g filter="url(#filter0_d)">
<path d="M38.5366 13.0109C31.1497 13.321 24.6272 17.9237 21.8544 24.7739C17.7942 36.1494 15.8031 48.1625 15.9818 60.2353C16.1607 72.3979 22.2479 83.714 32.2992 90.57C32.6927 90.7846 33.0802 90.9933 33.4737 91.196C36.1923 86.17 35.8882 80.053 32.6867 75.3197C32.4303 74.9203 32.5317 74.3896 32.9252 74.1273C33.3187 73.859 33.8493 73.9604 34.1235 74.3479C39.0542 81.6453 37.6233 91.5002 30.8146 97.0924C29.6103 98.0881 27.9528 98.3206 26.516 97.6946C20.7806 95.1846 14.0734 97.5217 11.1403 103.054C11.0032 103.364 10.8899 103.674 10.7945 103.996C10.3355 105.57 10.5799 107.264 11.4623 108.647C12.3447 110.03 13.7755 110.972 15.3972 111.222C22.7007 112.361 30.177 111.544 37.0626 108.855C47.5498 105.272 57.0766 99.3341 64.911 91.5002C67.3435 86.8738 67.576 81.4065 65.537 76.5952C65.3581 76.154 65.5668 75.6532 66.002 75.4684C66.4372 75.2836 66.944 75.4863 67.1348 75.9215C69.4123 81.2933 69.1142 87.4162 66.324 92.5442C63.6589 95.2211 60.8031 97.6953 57.7685 99.9371C59.7239 100.349 61.6974 100.694 63.6768 100.98C76.6442 101.75 89.6417 99.9669 101.924 95.722C109.931 93.224 117.312 89.0386 123.566 83.4462C125.814 81.437 126.905 78.4382 126.47 75.4511C126.04 72.4702 124.144 69.9005 121.42 68.6127C112.912 64.5824 104.046 61.3748 94.9359 59.0197C84.6933 57.6187 74.5342 55.6751 64.5005 53.1949C62.4675 52.6881 60.7386 51.3467 59.7428 49.5043C58.7412 47.6562 58.5743 45.48 59.2718 43.5006C61.8653 36.1316 61.2334 28.0059 57.525 21.1316C53.751 16.517 48.2422 13.6612 42.298 13.2319C41.0579 13.0351 39.8 12.9636 38.548 13.0173L38.5366 13.0109ZM31.3465 18.6748H31.3524C31.895 18.6629 32.4256 18.8775 32.8131 19.265C33.2006 19.6466 33.4153 20.1772 33.4093 20.7198C33.4093 21.8406 32.5031 22.7468 31.3823 22.7468C30.2674 22.7468 29.3612 21.8406 29.3612 20.7198C29.3493 19.6108 30.2376 18.6927 31.3525 18.6749L31.3465 18.6748ZM48.2545 22.5918C48.803 22.5799 49.3277 22.7945 49.7152 23.1761C50.1027 23.5636 50.3233 24.0883 50.3174 24.6308C50.3293 25.1793 50.1206 25.704 49.739 26.0915C49.3634 26.485 48.8388 26.7056 48.2962 26.7056C47.7477 26.7056 47.229 26.485 46.8475 26.0915C46.4659 25.704 46.2632 25.1793 46.2751 24.6308C46.2632 23.5219 47.1456 22.6157 48.2545 22.5919L48.2545 22.5918ZM37.7733 27.9875C39.0313 27.9756 40.2475 28.4048 41.2193 29.1978C41.583 29.5018 41.7797 29.9609 41.7499 30.4319C41.7201 30.9029 41.4638 31.3322 41.0583 31.5826C40.4025 32.0059 39.6454 32.2384 38.8643 32.2742L38.7093 33.2817C38.6795 33.5202 38.7212 33.7647 38.8286 33.9853H38.7928C39.1744 34.8676 39.9315 35.5294 40.8498 35.7918C41.7739 36.0601 42.7635 35.8991 43.5564 35.3625C43.9499 35.1002 44.4865 35.2015 44.7548 35.601C45.0171 35.9945 44.9158 36.5251 44.5283 36.7993C43.4014 37.5565 42.0183 37.8248 40.6947 37.5327C39.3711 37.2405 38.2205 36.4237 37.517 35.2611C36.4916 36.1554 35.1441 36.5847 33.7848 36.4535C32.4314 36.3224 31.1914 35.6367 30.3567 34.5635C30.0765 34.1879 30.148 33.6514 30.5176 33.3592C30.8932 33.073 31.4239 33.1327 31.722 33.5023C32.3122 34.2595 33.2065 34.7126 34.1664 34.7424C35.1264 34.7722 36.0505 34.3728 36.6823 33.6514C36.8433 33.4665 36.9506 33.246 36.9864 33.0075L37.1414 31.9999C36.4141 31.7256 35.7642 31.2666 35.2633 30.6644C34.9652 30.3007 34.8579 29.8178 34.9772 29.3587C35.0904 28.8996 35.4243 28.53 35.8595 28.3571C36.4677 28.1186 37.1115 27.9874 37.7614 27.9815L37.7733 27.9875Z" fill="#F2F4F7"/>
<path d="M10.1997 78.0863C11.3444 75.4272 14.0153 73.752 16.9128 73.8772C18.0993 76.9238 19.6613 79.8093 21.5632 82.4684C18.7909 81.3237 15.7622 80.966 12.7991 81.437C11.9286 81.5741 11.0522 81.2283 10.5096 80.5308C9.96706 79.8332 9.84787 78.8972 10.1996 78.0863L10.1997 78.0863Z" fill="#F2F4F7"/>
<path d="M126.488 82.6826C129.314 78.4377 128.76 72.7916 125.164 69.1726C128.563 69.8761 131.8 71.2056 134.71 73.1015C138.674 74.0614 142.746 74.5026 146.824 74.3953C148.983 75.1227 150.27 77.3405 149.817 79.5762C149.37 81.8119 147.331 83.3621 145.06 83.2011C138.978 81.6927 132.647 81.5198 126.488 82.6884L126.488 82.6826Z" fill="#F2F4F7"/>
</g>
<defs>
<filter id="filter0_d" x="3.05176e-05" y="0" width="159.908" height="118.722" filterUnits="userSpaceOnUse" color-interpolation-filters="sRGB">
<feFlood flood-opacity="0" result="BackgroundImageFix"/>
<feColorMatrix in="SourceAlpha" type="matrix" values="0 0 0 0 0 0 0 0 0 0 0 0 0 0 0 0 0 0 127 0"/>
<feOffset dy="-3"/>
<feGaussianBlur stdDeviation="5"/>
<feColorMatrix type="matrix" values="0 0 0 0 0.574269 0 0 0 0 0.569878 0 0 0 0 0.604451 0 0 0 0.2 0"/>
<feBlend mode="normal" in2="BackgroundImageFix" result="effect1_dropShadow"/>
<feBlend mode="normal" in="SourceGraphic" in2="effect1_dropShadow" result="shape"/>
</filter>
</defs>
</svg>
