<svg width="239" height="105" viewBox="0 0 239 105" fill="none" xmlns="http://www.w3.org/2000/svg">
<g filter="url(#filter0_d)">
<path d="M73.5698 53.9935L75.3882 53.9744L75.4021 55.2968C75.1934 55.3282 75.0299 55.505 75.0322 55.7238L75.0354 56.0301C75.0377 56.2489 75.2049 56.4222 75.4143 56.4492L75.4144 56.4637L75.5408 56.4624L75.5407 56.4478C75.7494 56.4165 75.9129 56.2397 75.9106 56.0209L75.9074 55.7146C75.9051 55.4958 75.7379 55.3225 75.5285 55.2955L75.5146 53.973L76.6767 53.9608L76.679 54.1844L76.6881 55.0499L76.7029 56.4502L77.4468 56.4423L77.432 55.0421L77.4229 54.1766L77.4111 53.0535C77.4092 52.8736 77.2764 52.7339 77.1108 52.7016L77.0853 50.2852L76.9394 50.2867L76.9649 52.7032C76.7951 52.739 76.6702 52.8862 76.672 53.0612L76.6732 53.1682L73.5711 53.2009C73.3524 53.2032 73.1792 53.3801 73.1815 53.5989C73.1741 53.8226 73.351 53.9958 73.5698 53.9935Z" fill="white"/>
<path d="M192.917 73.3989C192.917 73.394 192.916 73.3843 192.921 73.3794C192.94 73.2771 192.958 73.1796 192.972 73.0919C193.008 72.8289 192.674 73.0123 191.645 73.1594C190.639 73.2818 183.581 73.2443 183.581 73.2443C183.581 73.2443 183.56 71.2309 183.538 69.1008C183.53 68.3179 183.637 67.8693 183.637 67.8693L146.253 68.263L144.733 60.176L144.724 59.286L138.314 57.0092L136.421 54.5875L136.33 49.1946L136.038 49.1976L136.057 54.2217L136.057 54.2266L136.077 58.9247L135.562 59.3873L135.571 60.2773L135.656 68.3794L133.808 68.3989L131.366 72.0238L95.8013 72.3983L95.7248 65.1327L97.0135 65.1191L97.0002 63.8498L95.731 62.0295L95.6921 62.03L95.691 61.9278L95.4089 61.9259L95.365 57.7582L96.2696 57.7486C96.2696 57.7486 96.3052 55.1267 96.238 54.7529C96.1708 54.3791 95.3239 53.8579 95.3239 53.8579L92.2635 54.6732L93.7093 49.7164C94.0833 49.6686 94.9859 49.9364 95.2085 50.2842C95.4854 50.7142 96.6022 51.004 96.8748 51.0254C97.1475 51.0517 96.999 49.886 97.0779 49.5301C97.1569 49.1742 97.5851 48.7368 97.2888 48.7691C96.9924 48.8014 96.279 48.4831 95.9251 48.1318C95.5664 47.7853 94.8069 47.7107 94.5342 47.6844C94.4758 47.6801 94.4072 47.6322 94.3433 47.5696L96.8922 38.8221L97.0191 38.8597C97.2143 38.9208 97.4223 38.8165 97.4932 38.6212C97.7566 38.6963 98.0299 38.7809 98.3275 38.8702C102.646 40.1963 135.674 49.2355 136.005 49.3244L136.047 49.1684C135.716 49.0794 102.688 40.0402 98.3745 38.7141C98.0623 38.6201 97.7841 38.5306 97.5157 38.4507C97.4996 38.305 97.401 38.1796 97.2545 38.1276L96.6494 37.9346C96.4933 37.8876 96.3334 37.9428 96.2374 38.0654C94.9152 37.6756 94.3641 37.5355 94.1302 37.4942C94.0131 37.4614 93.838 37.4535 93.6051 37.5143C93.091 37.6462 91.0125 38.8791 90.27 40.8762C90.3261 35.5887 90.5102 18.4275 90.5448 16.6324C90.6027 16.1308 90.3574 16.3863 90.3574 16.3863L89.7615 42.01L89.0466 42.0175L87.6595 49.7849L87.4938 49.7526L85.5298 49.3794L85.5237 48.8006C86.2968 48.773 86.9126 48.1343 86.9043 47.3513C86.896 46.5586 86.2473 45.9234 85.4546 45.9317C84.6619 45.9401 84.0267 46.5888 84.0351 47.3815C84.043 48.1402 84.638 48.7565 85.3875 48.7972L85.3922 49.2446L85.3377 49.1479C85.3377 49.1479 84.3404 49.1292 84.1219 49.1607C83.9033 49.1922 84.098 49.6619 84.098 49.6619L85.2846 49.6495L87.4945 50.74L87.0949 52.9766C86.8325 52.994 86.0694 53.0458 85.7873 53.0488C85.442 53.0524 85.6412 53.955 85.5528 54.3304C84.4491 54.3663 82.3132 54.3013 81.3839 54.2722L81.378 53.7129L81.6941 53.7096C82.0102 53.7063 82.2656 53.4798 82.2627 53.2026L82.2557 52.5315C82.2527 52.2543 81.9926 52.0333 81.6765 52.0366L81.3604 52.04L80.7428 52.0465L80.7604 53.7145L80.7888 56.4185L75.2642 56.4767C74.987 56.4796 74.7657 56.7057 74.7686 56.9829L74.7966 59.6479L74.8201 61.8753L57.174 61.8374L56.9947 44.8064L56.8293 44.8081L56.7583 61.618L56.0191 61.6258L55.7058 41.1138L55.3702 41.1173L55.3966 61.6323L55.2021 61.6344C55.134 61.6351 55.0762 61.6941 55.0769 61.7622C55.0777 61.8303 55.1366 61.888 55.2047 61.8873L55.3992 61.8852L55.4076 67.2985C51.4625 67.2379 48.5778 67.1905 47.8285 67.1692C45.3231 67.108 43.5873 65.3218 42.9913 64.6083C42.9814 64.5938 42.9667 64.5794 42.9569 64.5697C42.9174 64.5215 42.8829 64.4781 42.8583 64.4443C42.8582 64.4395 42.8533 64.4346 42.8484 64.4347C42.7893 64.3575 42.7596 64.314 42.7596 64.314L17.511 63.7677L15.5425 61.5803L15.5087 58.3754C15.644 58.2913 15.7348 58.1396 15.733 57.9645C15.7302 57.697 15.5139 57.4853 15.2464 57.4881C14.979 57.4909 14.7672 57.7072 14.7701 57.9746C14.7719 58.1497 14.8658 58.2946 15.0029 58.3807L15.0371 61.6294L14.9986 61.6638L15.038 61.7072L15.0591 63.7157L14.8694 63.7128C15.371 64.2328 15.8531 64.7482 16.3253 65.2539C16.4188 65.355 16.5123 65.4562 16.6057 65.5525C17.0484 66.0293 17.4766 66.5015 17.89 66.964C17.9933 67.0797 18.0918 67.1905 18.1903 67.3062C18.5595 67.7255 18.9238 68.1399 19.2734 68.5496C19.3571 68.646 19.4408 68.7473 19.5245 68.8437C19.8644 69.2438 20.1943 69.6343 20.5146 70.0249C20.6328 70.1647 20.7461 70.3045 20.8595 70.4444C24.9097 75.4065 27.3696 79.4516 28.6403 82.3419C28.6802 82.4339 28.7152 82.5211 28.755 82.6131C28.8249 82.7825 28.8948 82.952 28.9597 83.1118C28.9947 83.199 29.0296 83.2814 29.0596 83.3637C29.1497 83.6011 29.2299 83.8288 29.3052 84.0469C30.5768 87.9537 32.4797 87.5981 37.0741 87.8853C41.6685 88.1725 82.3398 90.5457 107.762 90.9492C133.184 91.3526 189.882 84.0387 189.882 84.0387C189.882 84.0387 190.018 83.6092 190.235 82.9212C190.244 82.8919 190.254 82.8577 190.263 82.8285C190.437 82.2819 190.654 81.5841 190.889 80.8132C190.893 80.8034 190.893 80.7888 190.898 80.779C191.645 78.2566 192.626 74.934 192.917 73.3989ZM138.13 57.0695L138.226 56.9809L137.763 57.3943L136.414 54.894L136.414 54.8745L138.13 57.0695ZM136.444 56.3917L136.785 58.285L136.94 58.1472L136.428 55.3073L136.428 55.283L137.633 57.5222L137.667 57.4926L136.482 58.5557L136.444 56.3917ZM131.074 72.45L130.513 73.2827L130.389 73.4689L128.57 73.4978L128.559 72.4765L131.074 72.45ZM127.961 72.4828L127.972 73.5089L124.451 73.5655L124.44 72.5199L127.961 72.4828ZM123.837 72.5262L123.848 73.5718L120.328 73.6283L120.316 72.5584L123.837 72.5214L123.837 72.5262ZM119.713 72.5697L119.725 73.6395L116.204 73.6961L116.192 72.6067L119.713 72.5697ZM115.589 72.6131L115.601 73.7073L112.08 73.7638L112.068 72.6502L115.589 72.6131ZM91.726 46.5855L90.5582 46.5443L90.5431 45.5717L91.7255 46.0748L91.726 46.5855ZM91.9356 46.1699L93.0203 46.6351L91.9353 46.5979L91.9356 46.1699ZM90.5609 46.7972L91.7238 46.8385L91.7246 47.3784C91.5986 47.4186 91.5074 47.5363 91.5089 47.6773L91.5108 47.8621C91.5123 47.9983 91.6059 48.114 91.7279 48.1565L91.7513 52.6844C91.5719 52.7349 91.4374 52.8969 91.4394 53.0914L91.445 53.6215C91.447 53.8111 91.58 53.9702 91.7557 54.0219L91.7589 54.7952L90.6919 55.0788L90.5609 46.7972ZM91.9773 54.7443L91.9746 54.0293C92.1104 53.9938 92.2213 53.8954 92.2686 53.7685L91.9821 54.7442L91.9773 54.7443ZM90.1294 55.2355L88.0673 52.018L90.1474 51.8648L90.2021 55.2153L90.1294 55.2355ZM89.7559 55.3367L87.0253 56.0659L87.7236 52.1724L89.7559 55.3367ZM111.46 72.6566L111.472 73.7751L107.951 73.8316L107.939 72.6936L111.46 72.6566ZM107.336 72.7L107.348 73.8429L103.828 73.8994L103.815 72.7371L107.336 72.7ZM103.212 72.7434L103.225 73.9106L99.7039 73.9671L99.6914 72.7805L103.212 72.7434ZM99.0884 72.7869L99.1009 73.9735L95.8136 74.0275L95.8009 72.8215L99.0884 72.7869ZM94.1415 47.3383C93.9638 47.0921 93.8101 46.8116 93.8101 46.8116L92.4703 53.0708L92.2732 53.7441C92.2873 53.705 92.2966 53.6612 92.2961 53.6174L92.2906 53.0873C92.2885 52.8928 92.1506 52.7288 91.9702 52.6821L91.9467 48.1493C92.0629 48.0995 92.1396 47.9868 92.1382 47.8555L92.1362 47.6707C92.1348 47.5394 92.0559 47.4284 91.9436 47.3858L91.9427 46.8459L93.6895 46.9053L93.6943 46.9053C93.7527 46.9047 93.8009 46.8652 93.8149 46.8067C93.8288 46.7482 93.799 46.6902 93.7404 46.6665L91.9376 45.8975L91.9243 43.2518C92.0939 43.1868 92.2134 42.991 92.211 42.7624L92.2058 42.2712L92.8283 42.2646L92.8231 41.7637L92.3708 41.7685L93.7832 37.7994C93.8268 37.7795 93.8704 37.7596 93.9139 37.7396C94.2402 37.7751 94.8932 37.8947 96.1565 38.2365C96.1292 38.4167 96.2284 38.6005 96.409 38.6569L96.6481 38.7322L94.1415 47.3383ZM93.4592 37.9682L92.3302 41.1464L91.9168 41.1507L91.9061 39.2151C92.2761 38.7783 92.787 38.34 93.4592 37.9682ZM91.69 39.4751L91.698 41.153L90.8518 41.1619C90.8518 41.1619 91.0136 40.3674 91.69 39.4751ZM91.3937 42.2798L91.3988 42.7709C91.4014 43.0092 91.5348 43.2073 91.7104 43.2589L91.7227 45.8074L90.5403 45.3043L90.4892 42.2941L91.3937 42.2846L91.3937 42.2798ZM89.4457 42.5094L89.9904 42.5037L90.0572 46.5399L88.7432 46.4564L89.4457 42.5094ZM88.1185 49.9503L88.708 46.8167L89.9588 46.896L88.068 50.2378L88.1185 49.9503ZM87.8704 51.3343L90.0716 47.4395L90.1386 51.4952L87.835 51.6654L87.8152 51.6364L87.8704 51.3343ZM55.9974 61.8789L56.3184 61.8755L56.3757 67.3175C56.2784 67.3136 56.1811 67.3147 56.0838 67.3108L55.9974 61.8789ZM15.5157 62.2761L16.8494 63.7552L15.531 63.7253L15.5157 62.2761Z" fill="white"/>
<path d="M184.587 67.0856L150.014 67.4497L150.021 68.1111L184.594 67.747L184.587 67.0856Z" fill="white"/>
<path d="M182.576 92.3837C185.87 92.3837 215.986 91.8633 224.049 91.8633L199.56 88.2192L199.56 85.6166L195.443 82.4931L199.56 80.4109L205.736 80.4109L202.648 77.2876L219.971 70L204.192 72.0821L189.267 75.2054L169.195 83.5344C166.45 83.3609 159.931 83.118 155.814 83.5344C150.668 84.055 150.153 85.6166 147.065 85.6166L135.742 85.6166L122.876 85.6166L111.039 91.8633C121.675 91.8633 143.256 91.3426 146.55 91.3426C149.844 91.3426 155.986 91.8633 158.387 91.8633C160.103 91.8633 164.975 91.3426 172.798 91.3426C175.371 91.3426 178.459 92.3837 182.576 92.3837Z" fill="#BECEE6"/>
<path d="M74.0612 54.475L75.8796 54.4558L75.8935 55.7783C75.6848 55.8097 75.5213 55.9864 75.5236 56.2052L75.5268 56.5116C75.5291 56.7303 75.6963 56.9036 75.9057 56.9306L75.9058 56.9452L76.0323 56.9439L76.0321 56.9293C76.2409 56.8979 76.4043 56.7211 76.402 56.5023L76.3988 56.196C76.3965 55.9772 76.2293 55.8039 76.02 55.777L76.006 54.4545L77.1681 54.4422L77.1704 54.6659L77.1795 55.5313L77.1943 56.9316L77.9382 56.9238L77.9234 55.5235L77.9143 54.6581L77.9025 53.5349C77.9006 53.355 77.7678 53.2154 77.6022 53.1831L77.5767 50.7666L77.4309 50.7682L77.4563 53.1846C77.2865 53.2205 77.1616 53.3677 77.1635 53.5427L77.1646 53.6497L74.0626 53.6823C73.8438 53.6846 73.6706 53.8615 73.6729 54.0803C73.6655 54.3041 73.8424 54.4773 74.0612 54.475Z" fill="#E3E5EA"/>
<path d="M74.0612 54.475L75.8796 54.4558L75.8935 55.7783C75.6848 55.8097 75.5213 55.9864 75.5236 56.2052L75.5268 56.5116C75.5291 56.7303 75.6963 56.9036 75.9057 56.9306L75.9058 56.9452L76.0323 56.9439L76.0321 56.9293C76.2409 56.8979 76.4043 56.7211 76.402 56.5023L76.3988 56.196C76.3965 55.9772 76.2293 55.8039 76.02 55.777L76.006 54.4545L77.1681 54.4422L77.1704 54.6659L77.1795 55.5313L77.1943 56.9316L77.9382 56.9238L77.9234 55.5235L77.9143 54.6581L77.9025 53.5349C77.9006 53.355 77.7678 53.2154 77.6022 53.1831L77.5767 50.7666L77.4309 50.7682L77.4563 53.1846C77.2865 53.2205 77.1616 53.3677 77.1635 53.5427L77.1646 53.6497L74.0626 53.6823C73.8438 53.6846 73.6706 53.8615 73.6729 54.0803C73.6655 54.3041 73.8424 54.4773 74.0612 54.475Z" fill="url(#paint0_linear)"/>
<path d="M193.407 73.8789C193.407 73.874 193.407 73.8643 193.412 73.8594C193.43 73.757 193.449 73.6596 193.463 73.5719C193.499 73.3089 193.165 73.4923 192.135 73.6394C191.13 73.7618 184.072 73.7243 184.072 73.7243C184.072 73.7243 184.051 71.7109 184.029 69.5808C184.02 68.7978 184.127 68.3493 184.127 68.3493L146.744 68.7429L145.224 60.6559L145.215 59.766L138.805 57.4892L136.911 55.0675L136.821 49.6745L136.529 49.6776L136.548 54.7017L136.548 54.7065L136.568 59.4047L136.052 59.8673L136.062 60.7573L136.147 68.8594L134.299 68.8789L131.857 72.5038L96.2921 72.8783L96.2155 65.6127L97.5043 65.5991L97.4909 64.3298L96.2218 62.5095L96.1829 62.5099L96.1818 62.4078L95.8997 62.4059L95.8558 58.2381L96.7603 58.2286C96.7603 58.2286 96.796 55.6067 96.7288 55.2329C96.6616 54.8591 95.8147 54.3379 95.8147 54.3379L92.7543 55.1531L94.2001 50.1963C94.5741 50.1486 95.4767 50.4164 95.6993 50.7642C95.9762 51.1942 97.093 51.484 97.3656 51.5054C97.6382 51.5317 97.4898 50.366 97.5687 50.0101C97.6477 49.6542 98.0759 49.2168 97.7796 49.2491C97.4832 49.2814 96.7698 48.9631 96.4159 48.6117C96.0572 48.2653 95.2977 48.1907 95.025 48.1643C94.9666 48.1601 94.898 48.1122 94.8341 48.0496L97.383 39.3021L97.5099 39.3396C97.705 39.4008 97.9131 39.2965 97.984 39.1012C98.2474 39.1762 98.5207 39.2609 98.8183 39.3502C103.137 40.6763 136.164 49.7155 136.496 49.8044L136.538 49.6483C136.206 49.5594 103.179 40.5202 98.8653 39.194C98.553 39.1001 98.2749 39.0106 98.0065 38.9307C97.9904 38.785 97.8918 38.6596 97.7453 38.6076L97.1402 38.4146C96.9841 38.3676 96.8241 38.4227 96.7282 38.5454C95.406 38.1556 94.8549 38.0155 94.621 37.9742C94.5039 37.9414 94.3287 37.9335 94.0959 37.9943C93.5818 38.1262 91.5033 39.3591 90.7607 41.3562C90.8169 36.0687 91.001 18.9075 91.0356 17.1124C91.0935 16.6108 90.8482 16.8663 90.8482 16.8663L90.2523 42.49L89.5374 42.4975L88.1503 50.2649L87.9846 50.2326L86.0206 49.8593L86.0145 49.2806C86.7875 49.253 87.4034 48.6143 87.3951 47.8313C87.3868 47.0386 86.7381 46.4034 85.9454 46.4117C85.1527 46.4201 84.5175 47.0688 84.5258 47.8615C84.5338 48.6202 85.1288 49.2364 85.8783 49.2772L85.883 49.7246L85.8285 49.6279C85.8285 49.6279 84.8312 49.6092 84.6127 49.6407C84.3941 49.6722 84.5888 50.1419 84.5888 50.1419L85.7754 50.1294L87.9853 51.2199L87.5857 53.4566C87.3232 53.474 86.5602 53.5258 86.2781 53.5288C85.9328 53.5324 86.132 54.4349 86.0435 54.8104C84.9399 54.8463 82.804 54.7813 81.8747 54.7522L81.8688 54.1929L82.1849 54.1896C82.501 54.1862 82.7564 53.9598 82.7535 53.6826L82.7464 53.0115C82.7435 52.7343 82.4834 52.5133 82.1673 52.5166L81.8512 52.5199L81.2336 52.5264L81.2511 54.1945L81.2796 56.8985L75.755 56.9567C75.4778 56.9596 75.2564 57.1856 75.2594 57.4628L75.2874 60.1279L75.3109 62.3552L57.6648 62.3173L57.4854 45.2864L57.3201 45.2881L57.2491 62.098L56.5099 62.1058L56.1966 41.5938L55.861 41.5973L55.8874 62.1123L55.6928 62.1144C55.6248 62.1151 55.567 62.1741 55.5677 62.2422C55.5684 62.3102 55.6274 62.368 55.6955 62.3673L55.89 62.3652L55.8984 67.7785C51.9533 67.7179 49.0686 67.6704 48.3193 67.6492C45.8138 67.588 44.0781 65.8018 43.4821 65.0883C43.4722 65.0738 43.4575 65.0593 43.4476 65.0497C43.4082 65.0015 43.3737 64.9581 43.349 64.9243C43.349 64.9194 43.3441 64.9146 43.3392 64.9147C43.28 64.8375 43.2504 64.794 43.2504 64.794L18.0018 64.2477L16.0332 62.0603L15.9995 58.8554C16.1348 58.7713 16.2256 58.6196 16.2238 58.4445C16.2209 58.177 16.0047 57.9653 15.7372 57.9681C15.4698 57.9709 15.258 58.1871 15.2608 58.4546C15.2627 58.6297 15.3566 58.7746 15.4937 58.8607L15.5279 62.1093L15.4894 62.1438L15.5287 62.1872L15.5499 64.1957L15.3602 64.1928C15.8618 64.7128 16.3438 65.2282 16.8161 65.7339C16.9096 65.835 17.003 65.9362 17.0965 66.0325C17.5392 66.5093 17.9673 66.9815 18.3808 67.444C18.4841 67.5597 18.5826 67.6705 18.6811 67.7862C19.0503 68.2054 19.4145 68.6199 19.7642 69.0296C19.8479 69.126 19.9316 69.2273 20.0153 69.3237C20.3551 69.7238 20.6851 70.1143 21.0054 70.5049C21.1236 70.6447 21.2369 70.7845 21.3503 70.9244C25.4005 75.8865 27.8604 79.9316 29.1311 82.8218C29.171 82.9138 29.2059 83.001 29.2458 83.093C29.3157 83.2625 29.3856 83.432 29.4505 83.5918C29.4855 83.679 29.5204 83.7613 29.5504 83.8437C29.6405 84.0811 29.7207 84.3088 29.7959 84.5269C31.0676 88.4337 32.9705 88.078 37.5649 88.3653C42.1593 88.6525 82.8306 91.0257 108.253 91.4291C133.675 91.8326 190.373 84.5187 190.373 84.5187C190.373 84.5187 190.509 84.0892 190.726 83.4012C190.735 83.3719 190.744 83.3377 190.754 83.3084C190.928 82.7619 191.144 82.0641 191.379 81.2932C191.384 81.2834 191.384 81.2688 191.389 81.259C192.136 78.7366 193.117 75.414 193.407 73.8789ZM138.62 57.5495L138.717 57.4609L138.254 57.8743L136.905 55.374L136.905 55.3545L138.62 57.5495ZM136.935 56.8717L137.276 58.765L137.43 58.6272L136.919 55.7872L136.919 55.7629L138.124 58.0021L138.158 57.9726L136.973 59.0357L136.935 56.8717ZM131.565 72.93L131.004 73.7627L130.88 73.9489L129.061 73.9777L129.05 72.9565L131.565 72.93ZM128.452 72.9628L128.463 73.9889L124.942 74.0454L124.931 72.9999L128.452 72.9628ZM124.328 73.0062L124.339 74.0518L120.818 74.1083L120.807 73.0384L124.328 73.0013L124.328 73.0062ZM120.204 73.0496L120.215 74.1195L116.695 74.1761L116.683 73.0867L120.204 73.0496ZM116.08 73.0931L116.092 74.1873L112.571 74.2438L112.559 73.1301L116.08 73.0931ZM92.2168 47.0655L91.049 47.0243L91.0339 46.0517L92.2163 46.5548L92.2168 47.0655ZM92.4264 46.6499L93.511 47.1151L92.426 47.0779L92.4264 46.6499ZM91.0517 47.2772L92.2146 47.3185L92.2154 47.8583C92.0894 47.8986 91.9982 48.0163 91.9997 48.1573L92.0016 48.3421C92.0031 48.4783 92.0967 48.594 92.2187 48.6365L92.2421 53.1644C92.0627 53.2149 91.9282 53.3768 91.9302 53.5714L91.9358 54.1015C91.9378 54.2911 92.0708 54.4502 92.2465 54.5019L92.2497 55.2752L91.1827 55.5588L91.0517 47.2772ZM92.4681 55.2243L92.4654 54.5093C92.6012 54.4738 92.712 54.3754 92.7593 54.2484L92.4729 55.2242L92.4681 55.2243ZM90.6201 55.7155L88.5581 52.498L90.6381 52.3447L90.6929 55.6953L90.6201 55.7155ZM90.2467 55.8167L87.5161 56.5458L88.2144 52.6523L90.2467 55.8167ZM111.951 73.1365L111.963 74.2551L108.442 74.3116L108.43 73.1736L111.951 73.1365ZM107.827 73.18L107.839 74.3228L104.318 74.3794L104.306 73.2171L107.827 73.18ZM103.703 73.2234L103.715 74.3906L100.195 74.4471L100.182 73.2605L103.703 73.2234ZM99.5792 73.2668L99.5917 74.4535L96.3044 74.5075L96.2917 73.3015L99.5792 73.2668ZM94.6322 47.8183C94.4546 47.5721 94.3008 47.2916 94.3008 47.2916L92.9611 53.5508L92.7639 54.2241C92.7781 54.185 92.7874 54.1411 92.7869 54.0974L92.7813 53.5673C92.7793 53.3728 92.6414 53.2088 92.4609 53.1621L92.4375 48.6293C92.5537 48.5795 92.6303 48.4668 92.629 48.3355L92.627 48.1507C92.6256 48.0194 92.5467 47.9083 92.4343 47.8657L92.4335 47.3259L94.1802 47.3853L94.1851 47.3852C94.2434 47.3846 94.2917 47.3452 94.3056 47.2867C94.3196 47.2282 94.2898 47.1701 94.2312 47.1464L92.4284 46.3775L92.4151 43.7318C92.5847 43.6667 92.7042 43.4709 92.7018 43.2424L92.6966 42.7512L93.3191 42.7446L93.3138 42.2437L92.8616 42.2485L94.274 38.2794C94.3176 38.2595 94.3612 38.2395 94.4047 38.2196C94.731 38.2551 95.384 38.3747 96.6473 38.7164C96.62 38.8967 96.7192 39.0805 96.8997 39.1369L97.1389 39.2122L94.6322 47.8183ZM93.9499 38.4482L92.821 41.6263L92.4076 41.6307L92.3969 39.695C92.7668 39.2583 93.2778 38.82 93.9499 38.4482ZM92.1808 39.9551L92.1887 41.633L91.3425 41.6419C91.3425 41.6419 91.5044 40.8474 92.1808 39.9551ZM91.8845 42.7597L91.8896 43.2509C91.8921 43.4892 92.0255 43.6872 92.2012 43.7389L92.2134 46.2874L91.0311 45.7843L90.98 42.7741L91.8845 42.7646L91.8845 42.7597ZM89.9365 42.9894L90.4812 42.9837L90.548 47.0199L89.2339 46.9364L89.9365 42.9894ZM88.6092 50.4303L89.1988 47.2967L90.4496 47.376L88.5588 50.7178L88.6092 50.4303ZM88.3612 51.8142L90.5624 47.9195L90.6294 51.9752L88.3258 52.1453L88.306 52.1164L88.3612 51.8142ZM56.4882 62.3589L56.8092 62.3555L56.8665 67.7975C56.7692 67.7936 56.6719 67.7947 56.5746 67.7908L56.4882 62.3589ZM16.0065 62.756L17.3402 64.2352L16.0218 64.2053L16.0065 62.756Z" fill="white"/>
<path d="M185.078 67.5675L150.506 67.9316L150.512 68.593L185.085 68.2289L185.078 67.5675Z" fill="#E3E5EA"/>
<path d="M185.078 67.5675L150.506 67.9316L150.512 68.593L185.085 68.2289L185.078 67.5675Z" fill="url(#paint1_linear)"/>
</g>
<defs>
<filter id="filter0_d" x="0.770035" y="0.321289" width="237.279" height="104.062" filterUnits="userSpaceOnUse" color-interpolation-filters="sRGB">
<feFlood flood-opacity="0" result="BackgroundImageFix"/>
<feColorMatrix in="SourceAlpha" type="matrix" values="0 0 0 0 0 0 0 0 0 0 0 0 0 0 0 0 0 0 127 0"/>
<feOffset dy="-2"/>
<feGaussianBlur stdDeviation="7"/>
<feColorMatrix type="matrix" values="0 0 0 0 0 0 0 0 0 0 0 0 0 0 0 0 0 0 0.04 0"/>
<feBlend mode="normal" in2="BackgroundImageFix" result="effect1_dropShadow"/>
<feBlend mode="normal" in="SourceGraphic" in2="effect1_dropShadow" result="shape"/>
</filter>
<linearGradient id="paint0_linear" x1="75.7557" y1="50.7858" x2="75.8206" y2="56.9461" gradientUnits="userSpaceOnUse">
<stop stop-color="#E3E5EA"/>
<stop offset="1" stop-color="#DCDEE6"/>
</linearGradient>
<linearGradient id="paint1_linear" x1="167.792" y1="67.7496" x2="167.799" y2="68.411" gradientUnits="userSpaceOnUse">
<stop stop-color="#E3E5EA"/>
<stop offset="1" stop-color="#DCDEE6"/>
</linearGradient>
</defs>
</svg>
