<svg width="310" height="319" viewBox="0 0 310 319" fill="none" xmlns="http://www.w3.org/2000/svg">
<rect y="277.56" width="371.648" height="40.9443" fill="#CBCDD5"/>
<rect y="268.636" width="371.648" height="23.0968" fill="#E6E8ED"/>
<rect width="371.648" height="11.5484" transform="matrix(1 0 0 -1 0 303.281)" fill="#BEC0C9"/>
<rect y="0.871094" width="371.648" height="253.54" fill="#F2F4F7"/>
<rect y="0.871094" width="371.648" height="253.54" fill="url(#paint0_linear)"/>
<g filter="url(#filter0_d)">
<path d="M322.305 184.07C341.202 184.07 355.9 194.044 370.598 204.542V259.66H0V201.698C3.32454 201.553 12.1783 201.349 20.9971 201.698C32.0205 202.134 56.1672 209.978 72.4399 209.978C88.7126 209.978 147.504 215.644 153.804 215.644C160.103 215.644 204.091 216.731 220.994 215.644C262.988 212.941 265.285 203.556 275.586 197.718C291.334 188.795 308.025 184.07 322.305 184.07Z" fill="#F2F4F7"/>
</g>
<defs>
<filter id="filter0_d" x="0" y="182.07" width="370.598" height="77.5894" filterUnits="userSpaceOnUse" color-interpolation-filters="sRGB">
<feFlood flood-opacity="0" result="BackgroundImageFix"/>
<feColorMatrix in="SourceAlpha" type="matrix" values="0 0 0 0 0 0 0 0 0 0 0 0 0 0 0 0 0 0 127 0"/>
<feOffset dy="-2"/>
<feColorMatrix type="matrix" values="0 0 0 0 1 0 0 0 0 1 0 0 0 0 1 0 0 0 1 0"/>
<feBlend mode="normal" in2="BackgroundImageFix" result="effect1_dropShadow"/>
<feBlend mode="normal" in="SourceGraphic" in2="effect1_dropShadow" result="shape"/>
</filter>
<linearGradient id="paint0_linear" x1="185.824" y1="103.232" x2="185.666" y2="254.41" gradientUnits="userSpaceOnUse">
<stop stop-color="white"/>
<stop offset="1" stop-color="#DBDDE3"/>
</linearGradient>
</defs>
</svg>
