<svg width="160" height="100" viewBox="0 0 160 100" fill="none" xmlns="http://www.w3.org/2000/svg">
<g filter="url(#filter0_dd)">
<path d="M129.415 47.4692H75.5136C64.5786 47.4692 63.7977 38.1876 70.7912 34.5279C70.7912 34.5279 67.7221 26.846 73.4461 21.3805C79.7513 15.36 84.865 17.1446 89.32 17.9989C88.6112 15.4362 91.218 6.91494 99.9426 6.0784C108.667 5.24186 113.924 11.336 113.924 13.1298C117.569 12.0194 118.14 9.5628 126.615 11.3463C135.09 13.1298 138.082 21.3805 136.401 26.1993C139.945 28.0786 146.059 30.9129 146.059 36.9334C146.059 42.9539 143.388 47.4692 129.415 47.4692Z" fill="#F2F4F7"/>
</g>
<g filter="url(#filter1_dd)">
<circle cx="67.8446" cy="26.4721" r="17.8475" fill="#FFD6AF"/>
</g>
<g filter="url(#filter2_dd)">
<path d="M111.046 65.3167H65.6552C56.4467 65.3167 55.7891 57.445 61.6784 54.3411C61.6784 54.3411 59.0938 47.8261 63.9141 43.1908C69.2238 38.0848 73.53 39.5984 77.2815 40.3229C76.6847 38.1495 78.8799 30.9226 86.227 30.2131C93.574 29.5036 98.0005 34.6721 98.0005 36.1934C101.07 35.2516 101.551 33.1682 108.688 34.6808C115.825 36.1934 118.344 43.1908 116.929 47.2777C119.913 48.8715 125.061 51.2752 125.061 56.3812C125.061 61.4872 122.812 65.3167 111.046 65.3167Z" fill="#E4E5EC"/>
</g>
<g filter="url(#filter3_d)">
<path d="M79.2023 47.4893C79.2023 48.536 78.9929 49.3733 78.7836 50.42C78.5742 51.4666 77.5276 52.0947 76.481 52.0947H18.2869C17.6589 52.0947 16.8215 51.6759 16.4028 51.2573C15.1468 49.5826 14.5188 47.6987 14.3095 45.396C14.1002 39.744 18.2869 34.7201 23.9388 34.0921C24.9855 33.8828 26.0321 34.0921 26.8694 34.0921C27.4974 25.9281 34.4053 19.6482 42.5693 19.6482C49.6865 19.6482 55.5478 24.2535 57.6412 30.7428C57.8505 30.7428 58.0598 30.7428 58.2691 30.7428C62.0371 30.7428 65.1771 33.4641 66.0144 36.8134C66.6424 36.604 67.4797 36.604 68.317 36.604C74.3876 36.604 79.2023 41.4187 79.2023 47.4893Z" fill="url(#paint0_linear)"/>
<path d="M28.3349 32.8361C27.9163 32.8361 27.707 32.8361 27.2883 32.6268C27.9163 29.0681 29.8002 25.9281 32.3121 23.6255C30.0095 26.1375 28.5442 29.4868 28.3349 32.8361Z" fill="#F2F4F7"/>
<path d="M78.7843 50.6293C78.3656 51.4667 77.5283 52.0947 76.6909 52.0947H18.4963C17.8683 52.0947 17.031 51.676 16.6124 51.2573C15.3564 49.5826 14.7284 47.6987 14.519 45.396C14.3097 42.0467 15.775 38.6974 18.287 36.6041C16.6124 38.6974 15.5657 41.4187 15.5657 44.14C15.5657 46.2333 16.403 48.3267 17.659 50.0014C18.0777 50.6294 18.7056 50.8387 19.543 50.8387H77.7376C78.1563 50.8387 78.5749 50.8387 78.7843 50.6293Z" fill="#F2F4F7"/>
</g>
<defs>
<filter id="filter0_dd" x="46.2698" y="0" width="119.789" height="81.4692" filterUnits="userSpaceOnUse" color-interpolation-filters="sRGB">
<feFlood flood-opacity="0" result="BackgroundImageFix"/>
<feColorMatrix in="SourceAlpha" type="matrix" values="0 0 0 0 0 0 0 0 0 0 0 0 0 0 0 0 0 0 127 0"/>
<feOffset dy="14"/>
<feGaussianBlur stdDeviation="10"/>
<feColorMatrix type="matrix" values="0 0 0 0 0 0 0 0 0 0 0 0 0 0 0 0 0 0 0.05 0"/>
<feBlend mode="normal" in2="BackgroundImageFix" result="effect1_dropShadow"/>
<feColorMatrix in="SourceAlpha" type="matrix" values="0 0 0 0 0 0 0 0 0 0 0 0 0 0 0 0 0 0 127 0"/>
<feOffset dx="-1" dy="-1"/>
<feColorMatrix type="matrix" values="0 0 0 0 1 0 0 0 0 1 0 0 0 0 1 0 0 0 1 0"/>
<feBlend mode="normal" in2="effect1_dropShadow" result="effect2_dropShadow"/>
<feBlend mode="normal" in="SourceGraphic" in2="effect2_dropShadow" result="shape"/>
</filter>
<filter id="filter1_dd" x="29.9971" y="2.62463" width="75.695" height="75.695" filterUnits="userSpaceOnUse" color-interpolation-filters="sRGB">
<feFlood flood-opacity="0" result="BackgroundImageFix"/>
<feColorMatrix in="SourceAlpha" type="matrix" values="0 0 0 0 0 0 0 0 0 0 0 0 0 0 0 0 0 0 127 0"/>
<feOffset dy="14"/>
<feGaussianBlur stdDeviation="10"/>
<feColorMatrix type="matrix" values="0 0 0 0 0 0 0 0 0 0 0 0 0 0 0 0 0 0 0.05 0"/>
<feBlend mode="normal" in2="BackgroundImageFix" result="effect1_dropShadow"/>
<feColorMatrix in="SourceAlpha" type="matrix" values="0 0 0 0 0 0 0 0 0 0 0 0 0 0 0 0 0 0 127 0"/>
<feOffset dx="-1" dy="-1"/>
<feColorMatrix type="matrix" values="0 0 0 0 1 0 0 0 0 1 0 0 0 0 1 0 0 0 1 0"/>
<feBlend mode="normal" in2="effect1_dropShadow" result="effect2_dropShadow"/>
<feBlend mode="normal" in="SourceGraphic" in2="effect2_dropShadow" result="shape"/>
</filter>
<filter id="filter2_dd" x="37.8708" y="24.1466" width="107.191" height="75.1701" filterUnits="userSpaceOnUse" color-interpolation-filters="sRGB">
<feFlood flood-opacity="0" result="BackgroundImageFix"/>
<feColorMatrix in="SourceAlpha" type="matrix" values="0 0 0 0 0 0 0 0 0 0 0 0 0 0 0 0 0 0 127 0"/>
<feOffset dy="14"/>
<feGaussianBlur stdDeviation="10"/>
<feColorMatrix type="matrix" values="0 0 0 0 0 0 0 0 0 0 0 0 0 0 0 0 0 0 0.05 0"/>
<feBlend mode="normal" in2="BackgroundImageFix" result="effect1_dropShadow"/>
<feColorMatrix in="SourceAlpha" type="matrix" values="0 0 0 0 0 0 0 0 0 0 0 0 0 0 0 0 0 0 127 0"/>
<feOffset dx="-1" dy="-1"/>
<feColorMatrix type="matrix" values="0 0 0 0 1 0 0 0 0 1 0 0 0 0 1 0 0 0 1 0"/>
<feBlend mode="normal" in2="effect1_dropShadow" result="effect2_dropShadow"/>
<feBlend mode="normal" in="SourceGraphic" in2="effect2_dropShadow" result="shape"/>
</filter>
<filter id="filter3_d" x="0.302002" y="0.648193" width="92.9003" height="60.4465" filterUnits="userSpaceOnUse" color-interpolation-filters="sRGB">
<feFlood flood-opacity="0" result="BackgroundImageFix"/>
<feColorMatrix in="SourceAlpha" type="matrix" values="0 0 0 0 0 0 0 0 0 0 0 0 0 0 0 0 0 0 127 0"/>
<feOffset dy="-5"/>
<feGaussianBlur stdDeviation="7"/>
<feColorMatrix type="matrix" values="0 0 0 0 0.741176 0 0 0 0 0.74902 0 0 0 0 0.780392 0 0 0 0.2 0"/>
<feBlend mode="normal" in2="BackgroundImageFix" result="effect1_dropShadow"/>
<feBlend mode="normal" in="SourceGraphic" in2="effect1_dropShadow" result="shape"/>
</filter>
<linearGradient id="paint0_linear" x1="14.6283" y1="35.8666" x2="79.2908" y2="35.8666" gradientUnits="userSpaceOnUse">
<stop stop-color="#F2F4F7"/>
<stop offset="1" stop-color="white"/>
</linearGradient>
</defs>
</svg>
