<svg width="253" height="71" viewBox="0 0 253 71" fill="none" xmlns="http://www.w3.org/2000/svg">
<path d="M122 56.6611C108.142 52.6717 89.2795 44.5003 81.5805 40.9133L66.3577 25.1655C92.1666 29.1899 146.461 37.9737 157.17 40.9133C170.556 44.5878 240.896 28.0526 247.457 31.4646C254.019 34.8767 261.368 40.9133 263.468 47.2124C265.567 53.5116 254.806 66.6347 243.783 66.8972C232.759 67.1597 209.925 70.3092 198.114 70.8341C186.303 71.3591 139.322 61.6479 122 56.6611Z" fill="url(#paint0_linear)"/>
<path d="M183.03 61.6479C163.982 60.7523 118.279 45.0657 103.241 42.379C66.1484 42.379 -18.1151 8.19961 4.55504 4.76482C34.4758 0.231471 174.106 0.23142 193.529 0.231445C207.819 0.231464 199.574 5.66041 207.594 4.76483C215.614 3.86926 231.654 4.76484 238.672 18.1985C241.251 23.135 276.961 46.9365 252.845 55.8737C235.93 62.1427 202.078 62.5434 183.03 61.6479Z" fill="#D5E2EE"/>
<path d="M183.03 61.6479C163.982 60.7523 118.279 45.0657 103.241 42.379C66.1484 42.379 -18.1151 8.19961 4.55504 4.76482C34.4758 0.231471 174.106 0.23142 193.529 0.231445C207.819 0.231464 199.574 5.66041 207.594 4.76483C215.614 3.86926 231.654 4.76484 238.672 18.1985C241.251 23.135 276.961 46.9365 252.845 55.8737C235.93 62.1427 202.078 62.5434 183.03 61.6479Z" fill="url(#paint1_linear)"/>
<defs>
<linearGradient id="paint0_linear" x1="158.22" y1="49.3121" x2="153.758" y2="69.7842" gradientUnits="userSpaceOnUse">
<stop offset="0.608922" stop-color="white"/>
<stop offset="1" stop-color="white" stop-opacity="0"/>
</linearGradient>
<linearGradient id="paint1_linear" x1="152.412" y1="1.2813" x2="152.412" y2="35.8304" gradientUnits="userSpaceOnUse">
<stop stop-color="#FEFEFF"/>
<stop offset="1" stop-color="#D3E5FF" stop-opacity="0"/>
</linearGradient>
</defs>
</svg>
