<svg width="165" height="56" viewBox="0 0 165 56" fill="none" xmlns="http://www.w3.org/2000/svg">
<g filter="url(#filter0_d)">
<path fill-rule="evenodd" clip-rule="evenodd" d="M493.272 41.2795C493.621 39.8087 494.358 35.9848 494.522 32.4556C494.727 28.0442 492.828 21.3248 491.564 18.5956C490.553 16.4123 489.037 13.3473 488.406 12.0878L489.45 7.04518L483.358 7.0526C482.307 6.63377 479.954 5.79641 478.945 5.79764L471.804 5.80634L470.961 3.70681L448.695 3.73392L448.698 5.83447L447.227 5.83626L447.225 4.36588L445.125 4.36844L445.122 2.26789C445.121 1.42767 445.121 0.797508 443.86 0.799043L427.896 0.81848C426.636 0.820014 426.427 1.66049 426.427 2.29065L426.43 4.3912L423.699 4.39452L423.695 0.823595L338.623 0.927174C338.474 0.927355 338.326 0.925393 338.179 0.92345C336.87 0.906161 335.682 0.890459 335.684 2.40114L335.698 14.1643L327.506 14.1742L327.496 5.56199L326.235 5.56352L326.232 2.62276C326.231 1.99259 326.021 1.57274 324.97 1.57402L262.584 1.64998C261.604 2.1413 259.645 3.16595 259.645 3.334C259.646 3.50204 255.724 3.40879 253.764 3.34116L253.765 4.39143L238.431 4.4101L238.43 3.35983C238.429 2.72966 238.008 2.10001 237.168 2.10103L219.523 2.12252C219.063 2.12308 218.855 2.12333 218.761 2.22704C218.683 2.31264 218.684 2.46874 218.684 2.7537L218.686 4.85425C206.223 4.93944 181.087 5.11008 180.247 5.11111C179.406 5.11213 174.993 2.87692 172.891 1.75918L171.42 1.76098L171.432 11.0034L169.541 11.0057L169.571 35.7921C169.572 36.4223 169.783 36.8421 170.203 36.8416L171.463 36.8401L171.469 42.0915L188.065 42.0712C187.794 42.7897 187.645 43.5687 187.646 44.3824C187.651 47.9787 190.57 50.8905 194.166 50.8862C197.692 50.8819 200.56 48.0758 200.667 44.5765L202.351 44.5746C202.352 45.9667 203.482 47.0938 204.874 47.0921L212.016 47.0834C213.408 47.0817 214.535 45.9517 214.534 44.5596L215.377 44.5586C215.492 48.0576 218.367 50.8567 221.893 50.8524C225.49 50.848 228.401 47.9291 228.397 44.3328C228.396 43.5191 228.246 42.7404 227.972 42.0227L230.285 42.0198L230.294 49.3718L232.394 49.3692C233.234 49.3682 233.864 48.9473 233.863 48.3171L233.861 46.6367L245.624 46.6224L245.618 41.7911L261.162 41.7722C261.936 44.2219 263.692 49.121 264.532 49.12L266.843 49.1172L266.834 41.7653L268.81 41.7629C268.485 42.5386 268.306 43.3904 268.307 44.2841C268.312 47.8804 271.231 50.7922 274.827 50.7878C278.353 50.7836 281.221 47.9775 281.328 44.4782L283.011 44.4762C283.013 45.8684 284.143 46.9955 285.535 46.9938L292.677 46.9851C294.069 46.9834 295.196 45.8534 295.195 44.4613L296.038 44.4603C296.153 47.9593 299.028 50.7584 302.554 50.7541C306.151 50.7497 309.062 47.8308 309.058 44.2345C309.057 43.3408 308.876 42.4894 308.549 41.7145L325.229 41.6942L325.433 36.4426L327.113 36.4405C327.715 36.4398 327.67 36.2242 327.596 35.8702C327.566 35.7301 327.532 35.5684 327.532 35.3897L327.532 35.1797L335.724 35.1697L335.725 35.7998C335.725 36.472 335.726 36.64 337.616 36.6377L337.622 41.8891L354.429 41.8686C354.157 42.5871 354.009 43.3661 354.01 44.1798C354.014 47.7761 356.933 50.6879 360.529 50.6835C364.055 50.6792 366.923 47.8731 367.03 44.3739L367.873 44.373C367.875 45.7651 369.005 46.8922 370.397 46.8905L377.539 46.8818C378.931 46.8802 380.058 45.7501 380.057 44.358L381.74 44.356C381.855 47.855 384.73 50.6541 388.256 50.6498C391.853 50.6454 394.765 47.7265 394.76 44.1302C394.759 43.2438 394.581 42.399 394.259 41.6292L395.899 41.6081L395.908 49.1701C401.488 49.1633 402.162 41.8105 402.162 41.8105L418.073 41.7911L418.078 45.7822L428.791 45.7691C428.932 46.4692 429.382 47.953 430.054 48.2883C430.727 48.6235 432.295 48.4256 432.995 48.2847L432.987 41.773L435.09 41.7704C434.818 42.4888 434.669 43.2679 434.67 44.0815C434.675 47.6778 437.594 50.5897 441.19 50.5853C444.716 50.581 447.584 47.7749 447.691 44.2756L448.534 44.2747C448.536 45.6668 449.666 46.794 451.058 46.7923L458.2 46.7836C459.592 46.7819 460.719 45.6519 460.718 44.2598L462.401 44.2577C462.516 47.7567 465.391 50.5558 468.917 50.5515C472.514 50.5472 475.425 47.6282 475.421 44.0319C475.42 43.2182 475.27 42.4396 474.996 41.7218L482.35 41.7129C483.541 42.0615 486.091 43.0527 486.764 44.2282C486.911 44.4835 487.051 44.7451 487.189 45.0032L487.19 45.0054C487.846 46.2318 488.458 47.3769 489.499 47.3757C490.193 47.3748 490.505 47.6291 490.786 47.8576C491.015 48.0443 491.223 48.2138 491.6 48.2133L493.281 48.2113L493.279 46.3208L492.228 45.6919C492.529 44.4312 493.159 41.7837 493.272 41.2795ZM478.547 23.6528L487.369 23.6421C488.21 23.641 489.259 22.5895 488.838 21.7498C488.501 21.078 486.592 17.4114 485.679 15.662L478.117 15.6712C477.067 15.6725 476.647 16.0931 476.648 16.7233L476.655 22.1847C476.656 22.8149 476.657 23.6551 478.547 23.6528ZM161.185 36.0124L161.185 35.3822L169.571 35.372L169.545 14.3666L161.159 14.3768L161.145 2.61373C161.143 1.10306 159.954 1.12165 158.646 1.14213L158.646 1.14213C158.499 1.14443 158.351 1.14675 158.202 1.14693L73.13 1.25051L73.1343 4.82144L70.4036 4.82476L70.401 2.72422C70.4003 2.09406 70.1892 1.25409 68.9289 1.25563L52.9647 1.27506C51.7044 1.2766 51.7052 1.90676 51.7062 2.74698L51.7087 4.84753L49.6082 4.85008L49.61 6.32047L48.1396 6.32226L48.137 4.22171L25.8713 4.24882L25.0336 6.35039L17.8917 6.35908C16.8835 6.36031 14.5319 7.20339 13.4821 7.62478L7.39055 7.6322L8.44696 12.6722C7.81833 13.9333 6.30967 17.002 5.30407 19.1878C4.04707 21.92 2.16476 28.6441 2.38018 33.0549C2.55252 36.5836 3.29937 40.4057 3.65126 41.8757C3.76556 42.3797 4.40265 45.0256 4.7069 46.2856L3.65739 46.917L3.6597 48.8075L5.34013 48.8055C5.7178 48.805 5.9255 48.635 6.1542 48.4478C6.43429 48.2185 6.74584 47.9635 7.43965 47.9627C8.48037 47.9614 9.09 46.8148 9.74294 45.5868C9.88071 45.3277 10.0204 45.0649 10.1665 44.8085C10.8373 43.6314 13.3847 42.6341 14.5746 42.2825L21.9283 42.2736C21.6566 42.992 21.5083 43.771 21.5093 44.5847C21.5136 48.181 24.4326 51.0928 28.0289 51.0884C31.5549 51.0841 34.423 48.278 34.5296 44.7787L36.2133 44.7767C36.215 46.1688 37.3449 47.2961 38.737 47.2944L45.8789 47.2857C47.271 47.284 48.3982 46.1541 48.3965 44.762L49.24 44.7608C49.3551 48.2598 52.23 51.0589 55.756 51.0547C59.3523 51.0503 62.2642 48.1313 62.2598 44.535C62.2588 43.7214 62.1086 42.9427 61.8351 42.225L63.9374 42.2224L63.9454 48.7341C64.6457 48.8733 66.2144 49.0674 66.8861 48.7305C67.5579 48.3936 68.0042 46.9087 68.1434 46.2083L78.8562 46.1953L78.8513 42.2043L94.7629 42.1849C94.7629 42.1849 95.4545 49.536 101.034 49.5292L101.025 41.9672L102.665 41.9843C102.345 42.7549 102.169 43.6001 102.17 44.4865C102.175 48.0828 105.094 50.9946 108.69 50.9903C112.216 50.986 115.084 48.1799 115.191 44.6806L116.874 44.6785C116.876 46.0707 118.006 47.1979 119.398 47.1963L126.54 47.1876C127.932 47.1859 129.059 46.0559 129.057 44.6638L129.901 44.6627C130.016 48.1617 132.891 50.9608 136.417 50.9565C140.013 50.9521 142.925 48.0332 142.921 44.4369C142.92 43.6232 142.77 42.8445 142.496 42.1268L159.302 42.1063L159.296 36.8549C161.186 36.8526 161.186 36.6846 161.185 36.0124ZM9.51136 24.224L18.3337 24.2132C20.2241 24.2109 20.2231 23.3707 20.2224 22.7405L20.2157 17.2791C20.2149 16.6489 19.7943 16.2293 18.744 16.2306L11.1821 16.2398C10.274 17.9914 8.37395 21.6627 8.03867 22.3353C7.61959 23.176 8.67114 24.225 9.51136 24.224Z" fill="#CBCDD5"/>
</g>
<path d="M161.144 14.7956L169.546 14.7853L169.571 35.7908L161.169 35.801L161.144 14.7956Z" fill="#CBCDD5"/>
<path fill-rule="evenodd" clip-rule="evenodd" d="M109.409 51.0697C105.813 51.0653 102.901 48.1464 102.906 44.5501C102.91 40.9538 105.829 38.0419 109.425 38.0463C111.127 38.0484 112.676 38.7033 113.835 39.774L113.835 39.732L132.785 39.7551C133.941 38.7122 135.473 38.078 137.153 38.0801C140.749 38.0844 143.661 41.0034 143.656 44.5997C143.652 48.196 140.733 51.1078 137.137 51.1035C133.611 51.0992 130.743 48.2931 130.636 44.7938L129.792 44.7928C129.792 44.7928 129.792 44.7928 129.792 44.7929C129.791 46.185 128.661 47.3122 127.269 47.3105L120.127 47.3018C118.735 47.3001 117.608 46.1702 117.609 44.778C117.609 44.778 117.609 44.778 117.609 44.7779L115.926 44.7759C115.81 48.2749 112.936 51.074 109.409 51.0697Z" fill="#CBCDD5"/>
<path fill-rule="evenodd" clip-rule="evenodd" d="M109.409 51.0697C105.813 51.0653 102.901 48.1464 102.906 44.5501C102.91 40.9538 105.829 38.0419 109.425 38.0463C111.127 38.0484 112.676 38.7033 113.835 39.774L113.835 39.732L132.785 39.7551C133.941 38.7122 135.473 38.078 137.153 38.0801C140.749 38.0844 143.661 41.0034 143.656 44.5997C143.652 48.196 140.733 51.1078 137.137 51.1035C133.611 51.0992 130.743 48.2931 130.636 44.7938L129.792 44.7928C129.792 44.7928 129.792 44.7928 129.792 44.7929C129.791 46.185 128.661 47.3122 127.269 47.3105L120.127 47.3018C118.735 47.3001 117.608 46.1702 117.609 44.778C117.609 44.778 117.609 44.778 117.609 44.7779L115.926 44.7759C115.81 48.2749 112.936 51.074 109.409 51.0697Z" fill="url(#paint0_linear)"/>
<path fill-rule="evenodd" clip-rule="evenodd" d="M28.7489 50.9705C25.1526 50.9661 22.2408 48.0472 22.2451 44.4509C22.2495 40.8546 25.1685 37.9427 28.7648 37.9471C30.4669 37.9492 32.0157 38.6041 33.1745 39.6748L33.1746 39.6328L52.1241 39.6559C53.2803 38.613 54.8123 37.9788 56.492 37.9809C60.0883 37.9853 63.0001 40.9042 62.9957 44.5005C62.9914 48.0968 60.0724 51.0087 56.4761 51.0043C52.95 51 50.082 48.1939 49.9754 44.6946L49.1319 44.6936C49.1319 44.6936 49.1319 44.6937 49.1319 44.6937C49.1302 46.0858 48.0003 47.213 46.6081 47.2113L39.4663 47.2026C38.0742 47.2009 36.947 46.071 36.9487 44.6789C36.9487 44.6788 36.9487 44.6788 36.9487 44.6787L35.265 44.6767C35.1499 48.1757 32.275 50.9748 28.7489 50.9705Z" fill="#CBCDD5"/>
<path fill-rule="evenodd" clip-rule="evenodd" d="M28.7489 50.9705C25.1526 50.9661 22.2408 48.0472 22.2451 44.4509C22.2495 40.8546 25.1685 37.9427 28.7648 37.9471C30.4669 37.9492 32.0157 38.6041 33.1745 39.6748L33.1746 39.6328L52.1241 39.6559C53.2803 38.613 54.8123 37.9788 56.492 37.9809C60.0883 37.9853 63.0001 40.9042 62.9957 44.5005C62.9914 48.0968 60.0724 51.0087 56.4761 51.0043C52.95 51 50.082 48.1939 49.9754 44.6946L49.1319 44.6936C49.1319 44.6936 49.1319 44.6937 49.1319 44.6937C49.1302 46.0858 48.0003 47.213 46.6081 47.2113L39.4663 47.2026C38.0742 47.2009 36.947 46.071 36.9487 44.6789C36.9487 44.6788 36.9487 44.6788 36.9487 44.6787L35.265 44.6767C35.1499 48.1757 32.275 50.9748 28.7489 50.9705Z" fill="url(#paint1_linear)"/>
<path fill-rule="evenodd" clip-rule="evenodd" d="M4.37472 41.8118C4.02642 40.341 3.28888 36.5171 3.12514 32.9879C2.92045 28.5765 4.81914 21.8571 6.08278 19.1279C7.09371 16.9446 8.60983 13.8796 9.24154 12.62L8.1974 7.57744L14.289 7.58486C15.3398 7.16603 17.6934 6.32867 18.7017 6.3299L24.7933 6.33732L25.8435 6.3386L26.6863 4.23907L48.9521 4.26618L48.9495 6.36673L50.4199 6.36852L50.4217 4.89814L52.5223 4.90069L52.5248 2.80014C52.5258 1.95992 52.5266 1.32976 53.7869 1.33129L69.7511 1.35073C71.0114 1.35227 71.2204 2.19274 71.2197 2.82291L71.2171 4.92345L73.9478 4.92678L73.9522 1.35585L95.1677 1.38168L159.024 1.45943C159.173 1.45961 159.321 1.45764 159.468 1.4557C160.777 1.43841 161.965 1.42271 161.963 2.93339L161.923 36.3321C161.922 37.0043 161.922 37.1723 160.031 37.17L160.025 42.4214L147.054 42.4056L119.799 42.3724L101.748 42.1404L101.739 49.7024C96.1591 49.6956 95.4854 42.3428 95.4854 42.3428L79.5738 42.3235L79.5689 46.3145L68.8561 46.3015C68.7152 47.0015 68.2653 48.4853 67.5927 48.8206C66.9202 49.1558 65.352 48.9579 64.652 48.817L64.6599 42.3053L15.2971 42.2452C14.1063 42.5938 11.5565 43.585 10.8828 44.7605C10.7361 45.0165 10.5958 45.2789 10.4574 45.5377C9.80144 46.7642 9.18902 47.9092 8.14829 47.908C7.45448 47.9071 7.14231 48.1614 6.86166 48.39C6.63251 48.5766 6.42439 48.7461 6.04672 48.7456L4.36628 48.7436L4.36858 46.8531L5.41963 46.2242C5.11844 44.9635 4.4878 42.316 4.37472 41.8118ZM19.1 24.1851L10.2777 24.1743C9.43752 24.1733 8.38853 23.1218 8.80965 22.2821C9.14656 21.6103 11.0555 17.9436 11.9679 16.1943L19.5299 16.2035C20.5801 16.2048 20.9997 16.6254 20.999 17.2556L20.9923 22.717C20.9915 23.3472 20.9905 24.1874 19.1 24.1851Z" fill="white"/>
<path fill-rule="evenodd" clip-rule="evenodd" d="M4.37472 41.8118C4.02642 40.341 3.28888 36.5171 3.12514 32.9879C2.92045 28.5765 4.81914 21.8571 6.08278 19.1279C7.09371 16.9446 8.60983 13.8796 9.24154 12.62L8.1974 7.57744L14.289 7.58486C15.3398 7.16603 17.6934 6.32867 18.7017 6.3299L24.7933 6.33732L25.8435 6.3386L26.6863 4.23907L48.9521 4.26618L48.9495 6.36673L50.4199 6.36852L50.4217 4.89814L52.5223 4.90069L52.5248 2.80014C52.5258 1.95992 52.5266 1.32976 53.7869 1.33129L69.7511 1.35073C71.0114 1.35227 71.2204 2.19274 71.2197 2.82291L71.2171 4.92345L73.9478 4.92678L73.9522 1.35585L95.1677 1.38168L159.024 1.45943C159.173 1.45961 159.321 1.45764 159.468 1.4557C160.777 1.43841 161.965 1.42271 161.963 2.93339L161.923 36.3321C161.922 37.0043 161.922 37.1723 160.031 37.17L160.025 42.4214L147.054 42.4056L119.799 42.3724L101.748 42.1404L101.739 49.7024C96.1591 49.6956 95.4854 42.3428 95.4854 42.3428L79.5738 42.3235L79.5689 46.3145L68.8561 46.3015C68.7152 47.0015 68.2653 48.4853 67.5927 48.8206C66.9202 49.1558 65.352 48.9579 64.652 48.817L64.6599 42.3053L15.2971 42.2452C14.1063 42.5938 11.5565 43.585 10.8828 44.7605C10.7361 45.0165 10.5958 45.2789 10.4574 45.5377C9.80144 46.7642 9.18902 47.9092 8.14829 47.908C7.45448 47.9071 7.14231 48.1614 6.86166 48.39C6.63251 48.5766 6.42439 48.7461 6.04672 48.7456L4.36628 48.7436L4.36858 46.8531L5.41963 46.2242C5.11844 44.9635 4.4878 42.316 4.37472 41.8118ZM19.1 24.1851L10.2777 24.1743C9.43752 24.1733 8.38853 23.1218 8.80965 22.2821C9.14656 21.6103 11.0555 17.9436 11.9679 16.1943L19.5299 16.2035C20.5801 16.2048 20.9997 16.6254 20.999 17.2556L20.9923 22.717C20.9915 23.3472 20.9905 24.1874 19.1 24.1851Z" fill="url(#paint2_linear)"/>
<mask id="mask0" mask-type="alpha" maskUnits="userSpaceOnUse" x="3" y="1" width="159" height="49">
<path fill-rule="evenodd" clip-rule="evenodd" d="M4.37646 41.9351C4.02817 40.4643 3.29062 36.6404 3.12686 33.1112C2.9222 28.6998 4.82086 21.9804 6.08452 19.2512C7.09544 17.0679 8.61157 14.0029 9.24327 12.7433L8.19913 7.70075L14.2907 7.70817C15.3415 7.28934 17.6951 6.45198 18.7034 6.45321L25.8453 6.46191L26.688 4.36238L48.9538 4.38949L48.9513 6.49004L50.4217 6.49183L50.4235 5.02145L52.524 5.024L52.5266 2.92346C52.5276 2.08324 52.5284 1.45307 53.7887 1.45461L69.7528 1.47405C71.0132 1.47558 71.2222 2.31605 71.2214 2.94622L71.2189 5.04677L73.9496 5.05009L73.9539 1.47916L159.026 1.58274C159.175 1.58292 159.323 1.58096 159.47 1.57902C160.779 1.56173 161.967 1.54602 161.965 3.0567L161.924 36.4554C161.924 37.1276 161.923 37.2956 160.033 37.2933L160.027 42.5447L119.801 42.4957L101.75 42.2637L101.741 49.8257C96.1609 49.8189 95.4872 42.4661 95.4872 42.4661L79.5755 42.4468L79.5707 46.4378L68.8579 46.4248C68.717 47.1248 68.2671 48.6086 67.5945 48.9439C66.9219 49.2791 65.3537 49.0812 64.6537 48.9403L64.6617 42.4286L15.2988 42.3685C14.1081 42.7171 11.5582 43.7083 10.8846 44.8838C10.7379 45.1398 10.5975 45.4022 10.4591 45.661C9.80318 46.8874 9.19075 48.0325 8.15002 48.0313C7.45621 48.0304 7.14404 48.2847 6.86339 48.5133C6.63423 48.6999 6.42613 48.8694 6.04845 48.8689L4.36803 48.8669L4.37033 46.9764L5.42137 46.3475C5.12018 45.0868 4.48955 42.4393 4.37646 41.9351ZM19.1018 24.3084L10.2795 24.2976C9.43925 24.2966 8.39026 23.2451 8.81139 22.4054C9.1483 21.7336 11.0573 18.067 11.9696 16.3176L19.5316 16.3268C20.5819 16.3281 21.0015 16.7487 21.0007 17.3789L20.994 22.8403C20.9933 23.4705 20.9923 24.3107 19.1018 24.3084Z" fill="white"/>
<path fill-rule="evenodd" clip-rule="evenodd" d="M4.37646 41.9351C4.02817 40.4643 3.29062 36.6404 3.12686 33.1112C2.9222 28.6998 4.82086 21.9804 6.08452 19.2512C7.09544 17.0679 8.61157 14.0029 9.24327 12.7433L8.19913 7.70075L14.2907 7.70817C15.3415 7.28934 17.6951 6.45198 18.7034 6.45321L25.8453 6.46191L26.688 4.36238L48.9538 4.38949L48.9513 6.49004L50.4217 6.49183L50.4235 5.02145L52.524 5.024L52.5266 2.92346C52.5276 2.08324 52.5284 1.45307 53.7887 1.45461L69.7528 1.47405C71.0132 1.47558 71.2222 2.31605 71.2214 2.94622L71.2189 5.04677L73.9496 5.05009L73.9539 1.47916L159.026 1.58274C159.175 1.58292 159.323 1.58096 159.47 1.57902C160.779 1.56173 161.967 1.54602 161.965 3.0567L161.924 36.4554C161.924 37.1276 161.923 37.2956 160.033 37.2933L160.027 42.5447L119.801 42.4957L101.75 42.2637L101.741 49.8257C96.1609 49.8189 95.4872 42.4661 95.4872 42.4661L79.5755 42.4468L79.5707 46.4378L68.8579 46.4248C68.717 47.1248 68.2671 48.6086 67.5945 48.9439C66.9219 49.2791 65.3537 49.0812 64.6537 48.9403L64.6617 42.4286L15.2988 42.3685C14.1081 42.7171 11.5582 43.7083 10.8846 44.8838C10.7379 45.1398 10.5975 45.4022 10.4591 45.661C9.80318 46.8874 9.19075 48.0325 8.15002 48.0313C7.45621 48.0304 7.14404 48.2847 6.86339 48.5133C6.63423 48.6999 6.42613 48.8694 6.04845 48.8689L4.36803 48.8669L4.37033 46.9764L5.42137 46.3475C5.12018 45.0868 4.48955 42.4393 4.37646 41.9351ZM19.1018 24.3084L10.2795 24.2976C9.43925 24.2966 8.39026 23.2451 8.81139 22.4054C9.1483 21.7336 11.0573 18.067 11.9696 16.3176L19.5316 16.3268C20.5819 16.3281 21.0015 16.7487 21.0007 17.3789L20.994 22.8403C20.9933 23.4705 20.9923 24.3107 19.1018 24.3084Z" fill="url(#paint3_linear)"/>
</mask>
<g mask="url(#mask0)">
<path d="M161.966 33.4128C161.966 33.4128 49.0244 33.4128 47.0271 33.4128C45.0297 33.4128 43.9402 37.7707 41.035 37.7707C38.1298 37.7707 2.90375 37.7707 2.90375 37.7707L2.90375 58.1074L161.966 58.1074L161.966 33.4128Z" fill="#E4E5EC"/>
<path d="M108.835 5.88853C108.836 5.08627 108.186 4.43512 107.384 4.43414L98.5262 4.42336C97.724 4.42238 97.0728 5.07195 97.0718 5.87421L97.058 17.2527C97.057 18.055 97.7066 18.7061 98.5088 18.7071L107.367 18.7179C108.169 18.7189 108.82 18.0693 108.821 17.267L108.835 5.88853Z" fill="#E4E5EC"/>
<path d="M68.5041 5.8397C68.5051 5.03744 67.8555 4.38629 67.0532 4.38532L58.1954 4.37453C57.3932 4.37355 56.742 5.02312 56.741 5.82538L56.7272 17.2039C56.7262 18.0061 57.3758 18.6573 58.178 18.6583L67.0359 18.669C67.8381 18.67 68.4893 18.0205 68.4902 17.2182L68.5041 5.8397Z" fill="#E4E5EC"/>
<path d="M53.7455 11.6225C57.377 11.6225 -2.18038 11.6225 -2.18038 11.6225L-2.18038 28.3276C-2.18038 28.3276 37.4035 28.3276 38.8561 28.3276C40.3087 28.3276 41.208 26.875 41.208 26.875L49.7507 13.0751C49.7507 13.0751 50.1139 11.6225 53.7455 11.6225Z" fill="#E21A1A"/>
<path d="M161.966 10.1711L8.71422 10.1711L8.71422 11.6237L161.966 11.6237L161.966 10.1711Z" fill="#E21A1A"/>
</g>
<path d="M142.421 22.2361C142.422 21.4338 141.772 20.7827 140.97 20.7817L132.112 20.7709C131.31 20.7699 130.659 21.4195 130.658 22.2218L130.648 30.2394C130.647 31.0416 131.297 31.6928 132.099 31.6938L140.957 31.7046C141.759 31.7055 142.41 31.056 142.411 30.2537L142.421 22.2361Z" fill="#E4E5EC"/>
<path fill-rule="evenodd" clip-rule="evenodd" d="M33.9828 18.4183C33.9849 16.7096 32.6014 15.3228 30.8927 15.3207C29.184 15.3186 27.7972 16.7021 27.7951 18.4108L27.7797 31.0141C27.7777 32.7228 29.1611 34.1096 30.8698 34.1117C32.5785 34.1138 33.9654 32.7303 33.9675 31.0216L33.9828 18.4183ZM30.8918 16.047C32.1994 16.0486 33.2581 17.1099 33.2565 18.4174L33.2412 31.0207C33.2396 32.3283 32.1783 33.387 30.8707 33.3854C29.5631 33.3838 28.5044 32.3225 28.506 31.015L28.5214 18.4117C28.523 17.1041 29.5843 16.0454 30.8918 16.047Z" fill="#CBCDD5"/>
<path fill-rule="evenodd" clip-rule="evenodd" d="M126.869 28.4394C126.869 28.0383 126.544 27.7127 126.143 27.7123L43.7566 27.6164C43.3555 27.6159 43.0299 27.9407 43.0294 28.3418C43.029 28.743 43.3538 29.0685 43.7549 29.069L126.142 29.1649C126.543 29.1653 126.868 28.8405 126.869 28.4394Z" fill="#E4E5EC"/>
<path fill-rule="evenodd" clip-rule="evenodd" d="M126.872 25.9634C126.873 25.5623 126.548 25.2367 126.147 25.2363L45.9392 25.1404C45.5381 25.1399 45.2125 25.4647 45.212 25.8658C45.2116 26.2669 45.5363 26.5925 45.9375 26.593L126.145 26.6889C126.546 26.6893 126.872 26.3646 126.872 25.9634Z" fill="#E4E5EC"/>
<path fill-rule="evenodd" clip-rule="evenodd" d="M126.877 23.2844C126.877 22.8833 126.552 22.5577 126.151 22.5572L47.396 22.4613C46.9949 22.4609 46.6693 22.7856 46.6688 23.1868C46.6683 23.5879 46.9931 23.9135 47.3942 23.914L126.149 24.0099C126.55 24.0103 126.876 23.6856 126.877 23.2844Z" fill="#E4E5EC"/>
<path fill-rule="evenodd" clip-rule="evenodd" d="M155.032 18.0496C155.032 17.6485 154.708 17.3229 154.306 17.3224L112.908 17.272C112.507 17.2715 112.181 17.5963 112.181 17.9975C112.18 18.3986 112.505 18.7242 112.906 18.7246L154.305 18.7751C154.706 18.7755 155.031 18.4508 155.032 18.0496Z" fill="#E4E5EC"/>
<path fill-rule="evenodd" clip-rule="evenodd" d="M155.035 15.1097C155.035 14.7086 154.711 14.383 154.31 14.3825L112.911 14.3321C112.51 14.3316 112.184 14.6564 112.184 15.0575C112.183 15.4587 112.508 15.7842 112.909 15.7847L154.308 15.8351C154.709 15.8356 155.035 15.5108 155.035 15.1097Z" fill="#E4E5EC"/>
<path fill-rule="evenodd" clip-rule="evenodd" d="M93.6959 17.9755C93.6964 17.5744 93.3716 17.2488 92.9705 17.2484L73.4176 17.2245C73.0165 17.2241 72.6909 17.5488 72.6904 17.95C72.6899 18.3511 73.0147 18.6767 73.4159 18.6772L92.9687 18.701C93.3698 18.7015 93.6954 18.3767 93.6959 17.9755Z" fill="#E4E5EC"/>
<path fill-rule="evenodd" clip-rule="evenodd" d="M93.6998 15.0341C93.7003 14.6329 93.3755 14.3074 92.9744 14.3069L73.4215 14.2831C73.0204 14.2826 72.6948 14.6074 72.6943 15.0085C72.6938 15.4096 73.0186 15.7352 73.4198 15.7357L92.9726 15.7595C93.3737 15.76 93.6993 15.4352 93.6998 15.0341Z" fill="#E4E5EC"/>
<defs>
<filter id="filter0_d" x="0.325439" y="0.728989" width="496.235" height="54.3907" filterUnits="userSpaceOnUse" color-interpolation-filters="sRGB">
<feFlood flood-opacity="0" result="BackgroundImageFix"/>
<feColorMatrix in="SourceAlpha" type="matrix" values="0 0 0 0 0 0 0 0 0 0 0 0 0 0 0 0 0 0 127 0"/>
<feOffset dy="2"/>
<feGaussianBlur stdDeviation="1"/>
<feColorMatrix type="matrix" values="0 0 0 0 0.475284 0 0 0 0 0.475284 0 0 0 0 0.475284 0 0 0 0.25 0"/>
<feBlend mode="normal" in2="BackgroundImageFix" result="effect1_dropShadow"/>
<feBlend mode="normal" in="SourceGraphic" in2="effect1_dropShadow" result="shape"/>
</filter>
<linearGradient id="paint0_linear" x1="123.289" y1="38.0632" x2="123.273" y2="51.0866" gradientUnits="userSpaceOnUse">
<stop stop-color="#B7BBBF"/>
<stop offset="1" stop-color="#858C95" stop-opacity="0"/>
</linearGradient>
<linearGradient id="paint1_linear" x1="42.6284" y1="37.964" x2="42.6125" y2="50.9874" gradientUnits="userSpaceOnUse">
<stop stop-color="#B7BBBF"/>
<stop offset="1" stop-color="#858C95" stop-opacity="0"/>
</linearGradient>
<linearGradient id="paint2_linear" x1="82.5564" y1="1.35792" x2="82.4975" y2="49.6789" gradientUnits="userSpaceOnUse">
<stop offset="0.57813" stop-color="white"/>
<stop offset="0.953152" stop-color="#E4EBF2"/>
</linearGradient>
<linearGradient id="paint3_linear" x1="82.5582" y1="1.48125" x2="82.4994" y2="49.8023" gradientUnits="userSpaceOnUse">
<stop offset="0.57813" stop-color="white"/>
<stop offset="0.953152" stop-color="#E4EBF2"/>
</linearGradient>
</defs>
</svg>
