<svg width="322" height="459" viewBox="0 0 322 459" fill="none" xmlns="http://www.w3.org/2000/svg">
<g filter="url(#filter0_d)">
<path d="M219 94C219 98.4183 215.418 102 211 102L68 102C63.5817 102 60 98.4183 60 94L60 32.696C60 28.2777 63.5817 24.696 68 24.696L191.749 24.696C193.009 24.696 194.251 24.3984 195.374 23.8273L206.836 18L206.822 18.3761C206.692 21.8274 209.455 24.696 212.909 24.696C216.273 24.696 219 27.4231 219 30.7871L219 94Z" fill="white"/>
</g>
<path d="M71.4769 82.1266V83.8066H75.5089V82.1266H71.4769ZM84.1693 83.7106C84.1693 82.5106 84.1693 80.1906 81.3373 80.1906C81.0013 80.1906 80.4253 80.1906 78.8413 80.5746V78.2386H83.6893V76.2226H76.9693V82.6546L79.0653 83.1666C79.3853 81.9826 79.3853 81.9826 80.5693 81.9826C81.8173 81.9826 81.8173 81.9826 81.8173 83.9026C81.8173 85.7746 81.8173 85.7746 79.8493 85.7746H79.2733L77.3533 85.2946H76.7773V87.3266C78.8253 87.8386 79.7053 87.8386 80.2333 87.8386C84.1693 87.8386 84.1693 85.4866 84.1693 84.0946V83.7106ZM86.8746 84.4146C86.2986 85.1826 85.6746 86.0146 85.6746 87.1826V87.5506H87.9786V86.5106C87.9786 85.2786 87.9786 85.3586 89.0346 83.9026L92.4426 79.3586C93.0026 78.6066 93.6426 77.7586 93.6426 76.5906V76.2226H91.3386V77.2626C91.3386 78.4786 91.3386 78.4786 90.2826 79.8706L86.8746 84.4146ZM89.3706 78.4306C89.3706 76.1586 87.8826 76.1586 87.3546 76.1586H87.1626C86.6346 76.1586 85.1466 76.1586 85.1466 78.4306V78.9106C85.1466 81.1826 86.6346 81.1826 87.1626 81.1826H87.3546C87.8826 81.1826 89.3706 81.1826 89.3706 78.9106V78.4306ZM86.7786 78.5266C86.7786 77.4706 86.7786 77.4706 87.2586 77.4706C87.7386 77.4706 87.7386 77.4706 87.7386 78.5266V78.8146C87.7386 79.8706 87.7386 79.8706 87.2586 79.8706C86.7786 79.8706 86.7786 79.8706 86.7786 78.8146V78.5266ZM94.1706 84.8626C94.1706 82.5906 92.6826 82.5906 92.1546 82.5906H91.9626C91.4346 82.5906 89.9466 82.5906 89.9466 84.8626V85.3426C89.9466 87.6146 91.4346 87.6146 91.9626 87.6146H92.1546C92.6826 87.6146 94.1706 87.6146 94.1706 85.3426V84.8626ZM91.5786 84.9586C91.5786 83.9026 91.5786 83.9026 92.0586 83.9026C92.5386 83.9026 92.5386 83.9026 92.5386 84.9586V85.2466C92.5386 86.3026 92.5386 86.3026 92.0586 86.3026C91.5786 86.3026 91.5786 86.3026 91.5786 85.2466V84.9586Z" fill="#E21A1A"/>
<path d="M100.665 89.8546H102.009V73.9186H100.665V89.8546Z" fill="#CBCDD5"/>
<path d="M108.686 80.0926V82.4026H114.23V80.0926H108.686ZM116.172 87.5506H125.676V84.7786H122.904V71.9746H121.188L116.172 73.2286V75.0766H119.934V84.7786H116.172V87.5506ZM128.934 87.5506H138.438V84.7786H135.666V71.9746H133.95L128.934 73.2286V75.0766H132.696V84.7786H128.934V87.5506ZM142.113 90.8946V91.2466H143.609C144.533 89.9926 145.523 88.3426 145.523 86.6266V86.2306C145.523 85.7026 145.523 83.9866 143.279 83.9866H142.619C141.101 83.9866 141.101 84.9106 141.101 85.4386V86.0986C141.101 86.6266 141.101 87.5506 142.619 87.5506H142.817V88.0786L142.113 90.8946ZM147.531 71.9746V76.4626H150.039V74.6146H154.659V76.5506L151.689 80.5106C150.237 82.4466 150.237 83.7226 150.237 86.4946V87.5506H153.537V86.4946C153.537 82.7546 153.537 82.7546 154.395 81.6326L156.375 79.0586C157.563 77.5186 157.563 77.0566 157.563 74.6806V71.9746H147.531ZM161.547 83.2386C160.755 84.2946 159.897 85.4386 159.897 87.0446V87.5506H163.065V86.1206C163.065 84.4266 163.065 84.5366 164.517 82.5346L169.203 76.2866C169.973 75.2526 170.853 74.0866 170.853 72.4806V71.9746H167.685V73.4046C167.685 75.0766 167.685 75.0766 166.233 76.9906L161.547 83.2386ZM164.979 75.0106C164.979 71.8866 162.933 71.8866 162.207 71.8866H161.943C161.217 71.8866 159.171 71.8866 159.171 75.0106V75.6706C159.171 78.7946 161.217 78.7946 161.943 78.7946H162.207C162.933 78.7946 164.979 78.7946 164.979 75.6706V75.0106ZM161.415 75.1426C161.415 73.6906 161.415 73.6906 162.075 73.6906C162.735 73.6906 162.735 73.6906 162.735 75.1426V75.5386C162.735 76.9906 162.735 76.9906 162.075 76.9906C161.415 76.9906 161.415 76.9906 161.415 75.5386V75.1426ZM171.579 83.8546C171.579 80.7306 169.533 80.7306 168.807 80.7306H168.543C167.817 80.7306 165.771 80.7306 165.771 83.8546V84.5146C165.771 87.6386 167.817 87.6386 168.543 87.6386H168.807C169.533 87.6386 171.579 87.6386 171.579 84.5146V83.8546ZM168.015 83.9866C168.015 82.5346 168.015 82.5346 168.675 82.5346C169.335 82.5346 169.335 82.5346 169.335 83.9866V84.3826C169.335 85.8346 169.335 85.8346 168.675 85.8346C168.015 85.8346 168.015 85.8346 168.015 84.3826V83.9866Z" fill="#7A4FF4"/>
<path d="M77.496 40.576C79.008 40.576 79.008 40.646 79.008 42.116C79.008 43.586 79.008 43.656 77.496 43.656H73.968V40.576H77.496ZM77.356 36.432C78.868 36.432 78.868 36.446 78.868 37.832C78.868 39.218 78.868 39.232 77.356 39.232H73.968V36.432H77.356ZM76.404 45C79.008 45 80.688 44.93 80.688 42.242C80.688 41.906 80.548 40.352 79.316 40.044V39.764C80.548 39.456 80.548 38.042 80.548 37.706C80.548 35.102 78.868 35.088 76.264 35.088H72.456V45H76.404ZM90.7465 37.944V45H92.1745V37.944H90.7465ZM83.0185 45H86.0425C87.8065 45 89.3185 45 89.3185 42.648C89.3185 41.808 89.3185 40.128 86.3785 40.128C85.7905 40.128 85.1185 40.212 84.4465 40.38V37.944H83.0185V45ZM86.2105 41.472C87.8065 41.472 87.8065 41.472 87.8065 42.648C87.8065 43.824 87.8065 43.824 86.2105 43.824H84.4465V41.472H86.2105ZM99.2889 36.768C100.045 36.586 100.787 36.39 101.053 35.34L101.137 35.004L99.7929 34.668C99.6249 35.172 99.6389 35.172 98.9529 35.34L97.2729 35.76C94.4169 36.474 94.4169 38.364 94.4169 40.548V41.094C94.4169 43.446 94.4169 45.168 97.8609 45.168H98.5329C101.893 45.168 101.893 43.488 101.893 42.228V41.472C101.893 40.212 101.893 38.532 98.8689 38.532C96.8529 38.532 96.1809 38.994 95.8729 39.372L95.6209 39.288C96.0409 37.608 96.0409 37.58 97.6089 37.188L99.2889 36.768ZM98.1969 39.778C100.381 39.778 100.381 40.086 100.381 41.85C100.381 43.614 100.381 43.922 98.0849 43.922C96.0129 43.922 96.0129 43.614 96.0129 41.85C96.0129 40.086 96.0129 39.778 98.1969 39.778ZM103.882 37.944V47.856H105.31V44.832C105.982 45 106.654 45.168 107.914 45.168C111.106 45.168 111.106 42.984 111.106 41.808V41.136C111.106 39.792 111.106 37.776 108.082 37.776C106.402 37.776 105.478 38.476 105.142 38.728L104.554 37.944H103.882ZM109.594 41.472C109.594 43.81 109.594 43.824 107.326 43.824C106.822 43.824 105.982 43.824 105.31 43.656V39.624L107.326 39.12H107.564C109.594 39.12 109.594 39.204 109.594 41.472ZM114.355 41.472C114.355 39.12 114.355 39.05 116.539 39.05C118.723 39.05 118.723 39.12 118.723 41.472C118.723 43.824 118.723 43.894 116.539 43.894C114.355 43.894 114.355 43.824 114.355 41.472ZM112.843 41.808C112.843 43.152 112.843 45.168 116.203 45.168H116.875C120.235 45.168 120.235 43.152 120.235 41.808V41.136C120.235 39.792 120.235 37.776 116.875 37.776H116.203C112.843 37.776 112.843 39.792 112.843 41.136V41.808ZM125.419 45.168C125.923 45.168 127.015 45.168 128.359 44.832V43.488H128.023L126.665 43.824H125.923C123.487 43.824 123.487 43.824 123.487 41.472C123.487 39.12 123.487 39.12 125.419 39.12C127.015 39.12 127.015 39.12 127.351 40.464L128.695 40.128C128.695 39.456 128.695 37.776 125.755 37.776H125.083C121.975 37.776 121.975 39.624 121.975 41.136V41.808C121.975 43.32 121.975 45.168 125.419 45.168ZM138.325 37.944V45H139.753V37.944H138.325ZM130.597 45H133.621C135.385 45 136.897 45 136.897 42.648C136.897 41.808 136.897 40.128 133.957 40.128C133.369 40.128 132.697 40.212 132.025 40.38V37.944H130.597V45ZM133.789 41.472C135.385 41.472 135.385 41.472 135.385 42.648C135.385 43.824 135.385 43.824 133.789 43.824H132.025V41.472H133.789ZM77.748 54.944H72.204V62H73.632V56.176H77.748V62H79.176V54.944H77.748ZM87.4069 62.168L88.4709 61.37C87.9669 60.698 87.9669 60.698 87.9669 59.312V58.136C87.9669 56.456 87.9669 54.776 84.6909 54.776C84.1869 54.776 83.0949 54.776 81.7509 55.112V56.456H82.0869L83.4309 56.12H84.6909C86.5389 56.12 86.5389 56.12 86.5389 57.884H84.6909C81.1629 57.884 81.1629 59.06 81.1629 60.152C81.1629 60.824 81.1629 62.168 83.6829 62.168C85.4189 62.168 86.3569 61.468 86.6929 61.216L87.4069 62.168ZM82.7589 59.984C82.7589 58.976 82.7589 58.976 84.6909 58.976H86.5389V60.32L84.5229 60.824H83.7669C82.7589 60.824 82.7589 60.824 82.7589 59.984ZM90.2919 54.944V64.856H91.7199V61.832C92.3919 62 93.0639 62.168 94.3239 62.168C97.5159 62.168 97.5159 59.984 97.5159 58.808V58.136C97.5159 56.792 97.5159 54.776 94.4919 54.776C92.8119 54.776 91.8879 55.476 91.5519 55.728L90.9639 54.944H90.2919ZM96.0039 58.472C96.0039 60.81 96.0039 60.824 93.7359 60.824C93.2319 60.824 92.3919 60.824 91.7199 60.656V56.624L93.7359 56.12H93.9739C96.0039 56.12 96.0039 56.204 96.0039 58.472ZM105.133 54.944V57.786H101.017V54.944H99.5888V62H101.017V59.018H105.133V62H106.561V54.944H105.133ZM110.914 62C114.568 57.142 114.568 56.89 114.568 56.148H114.932V62H116.36V54.944H114.428C110.774 59.802 110.774 60.054 110.774 60.796H110.396V54.944H108.968V62H110.914ZM125.91 55.336V54.944H124.314C123.306 56.288 122.718 57.072 122.718 57.8H120.198V54.944H118.77V62H120.198V59.144H122.718C122.718 59.872 123.306 60.656 124.314 62H125.91V61.608L123.544 58.472L125.91 55.336ZM128.819 58.472C128.819 56.12 128.819 56.05 131.003 56.05C133.187 56.05 133.187 56.12 133.187 58.472C133.187 60.824 133.187 60.894 131.003 60.894C128.819 60.894 128.819 60.824 128.819 58.472ZM127.307 58.808C127.307 60.152 127.307 62.168 130.667 62.168H131.339C134.699 62.168 134.699 60.152 134.699 58.808V58.136C134.699 56.792 134.699 54.776 131.339 54.776H130.667C127.307 54.776 127.307 56.792 127.307 58.136V58.808ZM136.776 62H140.038C141.718 62 143.412 62 143.412 60.236C143.412 59.648 143.272 58.892 141.928 58.556V58.388C143.272 58.052 143.272 57.296 143.272 56.708C143.272 54.944 141.718 54.944 140.038 54.944H136.776V62ZM140.556 58.976C141.802 58.976 141.816 58.976 141.816 59.9C141.816 60.81 141.816 60.824 140.556 60.824H138.204V58.976H140.556ZM140.416 56.12C141.662 56.12 141.676 56.12 141.676 57.044C141.676 57.954 141.676 57.968 140.416 57.968H138.204V56.12H140.416ZM153.213 54.944V62H154.641V54.944H153.213ZM145.485 62H148.509C150.273 62 151.785 62 151.785 59.648C151.785 58.808 151.785 57.128 148.845 57.128C148.257 57.128 147.585 57.212 146.913 57.38V54.944H145.485V62ZM148.677 58.472C150.273 58.472 150.273 58.472 150.273 59.648C150.273 60.824 150.273 60.824 148.677 60.824H146.913V58.472H148.677ZM157.976 62C158.984 60.656 159.572 59.872 159.572 59.144H160.664C160.664 59.872 161.252 60.656 162.26 62H163.856V61.608L161.504 58.472L163.856 55.336V54.944H162.26C161.252 56.288 160.664 57.072 160.664 57.8H159.572C159.572 57.072 158.984 56.288 157.976 54.944H156.38V55.336L158.732 58.472L156.38 61.608V62H157.976ZM175.341 54.944H169.657V62H171.085V56.176H175.341V54.944ZM182.714 62.168L183.778 61.37C183.274 60.698 183.274 60.698 183.274 59.312V58.136C183.274 56.456 183.274 54.776 179.998 54.776C179.494 54.776 178.402 54.776 177.058 55.112V56.456H177.394L178.738 56.12H179.998C181.846 56.12 181.846 56.12 181.846 57.884H179.998C176.47 57.884 176.47 59.06 176.47 60.152C176.47 60.824 176.47 62.168 178.99 62.168C180.726 62.168 181.664 61.468 182 61.216L182.714 62.168ZM178.066 59.984C178.066 58.976 178.066 58.976 179.998 58.976H181.846V60.32L179.83 60.824H179.074C178.066 60.824 178.066 60.824 178.066 59.984ZM186.859 60.824L185.515 60.488H185.179V61.832C186.523 62.168 187.601 62.168 188.105 62.168C191.283 62.168 191.437 60.824 191.437 60.152C191.437 59.816 191.437 58.892 190.093 58.556V58.388C191.437 58.052 191.437 57.128 191.437 56.792C191.437 56.12 191.297 54.776 188.105 54.776C187.601 54.776 186.523 54.776 185.179 55.112V56.456H185.515L186.859 56.12H188.581C189.841 56.12 189.841 56.12 189.841 57.016C189.841 57.884 189.841 57.884 188.581 57.884H186.859V59.06H188.581C189.841 59.06 189.841 59.06 189.841 59.928C189.841 60.824 189.841 60.824 188.581 60.824H186.859ZM194.663 58.472C194.663 56.12 194.663 56.05 196.847 56.05C199.031 56.05 199.031 56.12 199.031 58.472C199.031 60.824 199.031 60.894 196.847 60.894C194.663 60.894 194.663 60.824 194.663 58.472ZM193.151 58.808C193.151 60.152 193.151 62.168 196.511 62.168H197.183C200.543 62.168 200.543 60.152 200.543 58.808V58.136C200.543 56.792 200.543 54.776 197.183 54.776H196.511C193.151 54.776 193.151 56.792 193.151 58.136V58.808ZM202.62 62H205.882C207.562 62 209.256 62 209.256 60.236C209.256 59.648 209.116 58.892 207.772 58.556V58.388C209.116 58.052 209.116 57.296 209.116 56.708C209.116 54.944 207.562 54.944 205.882 54.944H202.62V62ZM206.4 58.976C207.646 58.976 207.66 58.976 207.66 59.9C207.66 60.81 207.66 60.824 206.4 60.824H204.048V58.976H206.4ZM206.26 56.12C207.506 56.12 207.52 56.12 207.52 57.044C207.52 57.954 207.52 57.968 206.26 57.968H204.048V56.12H206.26Z" fill="black"/>
<g filter="url(#filter1_d)">
<path d="M60 128C60 123.582 63.5817 120 68 120H162C166.418 120 170 123.582 170 128V171.732C170 173.632 168.46 175.172 166.56 175.172C164.61 175.172 163.05 176.792 163.123 178.741L163.245 182L151.531 176.042C150.407 175.47 149.164 175.172 147.904 175.172H68C63.5817 175.172 60 171.591 60 167.172V128Z" fill="white"/>
</g>
<path d="M67.5729 157.414V159.094H71.6049V157.414H67.5729ZM76.5213 151.222C72.7933 151.222 72.7933 153.814 72.7933 154.646V154.758L74.7453 155.254C75.2733 153.19 75.2733 153.19 76.5213 153.19C77.8173 153.19 77.8173 153.19 77.8173 154.678C77.8173 156.598 77.8173 156.598 75.9453 157.062L75.3693 157.206C72.8733 157.83 72.8733 159.094 72.8733 160.822V162.838H79.9773V160.822H74.8413V160.39C74.8413 159.398 74.8413 159.398 75.7533 159.142L77.2893 158.71C80.1693 157.91 80.1693 156.214 80.1693 154.694C80.1693 153.574 80.1693 151.222 76.5213 151.222ZM87.9145 156.518C89.5465 156.118 89.5465 155.014 89.5465 154.102C89.5465 153.238 89.5465 151.254 85.7545 151.254C81.9625 151.254 81.9625 153.334 81.9625 154.774C81.9625 155.59 81.9625 157.03 83.5945 157.43V157.83C81.9625 158.246 81.9625 159.334 81.9625 160.246C81.9625 161.11 81.9625 163.094 85.7545 163.094C89.5465 163.094 89.5465 161.014 89.5465 159.574C89.5465 158.758 89.5465 157.334 87.9145 156.918V156.518ZM85.0825 155.942C84.1865 155.718 84.1865 155.718 84.1865 154.438C84.1865 153.19 84.1865 153.19 85.7545 153.19C87.3225 153.19 87.3225 153.19 87.3225 154.438C87.3225 155.446 87.3225 155.446 86.7145 155.894L86.2665 156.23L85.0825 155.942ZM86.4265 158.422C87.3225 158.646 87.3225 158.646 87.3225 159.91C87.3225 161.158 87.3225 161.158 85.7545 161.158C84.1865 161.158 84.1865 161.158 84.1865 159.91C84.1865 158.918 84.1865 158.918 84.7945 158.454L85.2425 158.118L86.4265 158.422ZM92.2518 159.702C91.6758 160.47 91.0518 161.302 91.0518 162.47V162.838H93.3558V161.798C93.3558 160.566 93.3558 160.646 94.4118 159.19L97.8198 154.646C98.3798 153.894 99.0198 153.046 99.0198 151.878V151.51H96.7158V152.55C96.7158 153.766 96.7158 153.766 95.6598 155.158L92.2518 159.702ZM94.7478 153.718C94.7478 151.446 93.2598 151.446 92.7318 151.446H92.5398C92.0118 151.446 90.5238 151.446 90.5238 153.718V154.198C90.5238 156.47 92.0118 156.47 92.5398 156.47H92.7318C93.2598 156.47 94.7478 156.47 94.7478 154.198V153.718ZM92.1558 153.814C92.1558 152.758 92.1558 152.758 92.6358 152.758C93.1158 152.758 93.1158 152.758 93.1158 153.814V154.102C93.1158 155.158 93.1158 155.158 92.6358 155.158C92.1558 155.158 92.1558 155.158 92.1558 154.102V153.814ZM99.5478 160.15C99.5478 157.878 98.0598 157.878 97.5318 157.878H97.3398C96.8118 157.878 95.3238 157.878 95.3238 160.15V160.63C95.3238 162.902 96.8118 162.902 97.3398 162.902H97.5318C98.0598 162.902 99.5478 162.902 99.5478 160.63V160.15ZM96.9558 160.246C96.9558 159.19 96.9558 159.19 97.4358 159.19C97.9158 159.19 97.9158 159.19 97.9158 160.246V160.534C97.9158 161.59 97.9158 161.59 97.4358 161.59C96.9558 161.59 96.9558 161.59 96.9558 160.534V160.246Z" fill="#E21A1A"/>
<path d="M106.042 165.142H107.386V149.206H106.042V165.142Z" fill="#CBCDD5"/>
<path d="M114.063 155.38V157.69H119.607V155.38H114.063ZM126.499 156.458C128.149 156.458 128.149 156.458 128.149 158.35C128.149 160.396 128.149 160.396 125.641 160.396H124.651L122.011 159.736H121.219V162.53C124.035 163.234 125.377 163.234 126.103 163.234C131.383 163.234 131.383 159.802 131.383 158.548V157.888C131.383 154.39 128.875 154.39 128.171 154.39H127.775V153.884L129.051 152.938C130.987 151.486 130.987 151.486 130.987 149.77V147.262H121.219V151.772H123.727V149.902H128.083V150.936L123.375 154.456L125.179 156.876C125.751 156.458 126.235 156.458 126.499 156.458ZM139.261 156.458C140.911 156.458 140.911 156.458 140.911 158.35C140.911 160.396 140.911 160.396 138.403 160.396H137.413L134.773 159.736H133.981V162.53C136.797 163.234 138.139 163.234 138.865 163.234C144.145 163.234 144.145 159.802 144.145 158.548V157.888C144.145 154.39 141.637 154.39 140.933 154.39H140.537V153.884L141.813 152.938C143.749 151.486 143.749 151.486 143.749 149.77V147.262H133.981V151.772H136.489V149.902H140.845V150.936L136.137 154.456L137.941 156.876C138.513 156.458 138.997 156.458 139.261 156.458ZM147.997 158.526C147.205 159.582 146.347 160.726 146.347 162.332V162.838H149.515V161.408C149.515 159.714 149.515 159.824 150.967 157.822L155.653 151.574C156.423 150.54 157.303 149.374 157.303 147.768V147.262H154.135V148.692C154.135 150.364 154.135 150.364 152.683 152.278L147.997 158.526ZM151.429 150.298C151.429 147.174 149.383 147.174 148.657 147.174H148.393C147.667 147.174 145.621 147.174 145.621 150.298V150.958C145.621 154.082 147.667 154.082 148.393 154.082H148.657C149.383 154.082 151.429 154.082 151.429 150.958V150.298ZM147.865 150.43C147.865 148.978 147.865 148.978 148.525 148.978C149.185 148.978 149.185 148.978 149.185 150.43V150.826C149.185 152.278 149.185 152.278 148.525 152.278C147.865 152.278 147.865 152.278 147.865 150.826V150.43ZM158.029 159.142C158.029 156.018 155.983 156.018 155.257 156.018H154.993C154.267 156.018 152.221 156.018 152.221 159.142V159.802C152.221 162.926 154.267 162.926 154.993 162.926H155.257C155.983 162.926 158.029 162.926 158.029 159.802V159.142ZM154.465 159.274C154.465 157.822 154.465 157.822 155.125 157.822C155.785 157.822 155.785 157.822 155.785 159.274V159.67C155.785 161.122 155.785 161.122 155.125 161.122C154.465 161.122 154.465 161.122 154.465 159.67V159.274Z" fill="#7A4FF4"/>
<path d="M70.3169 131.256H73.2569C75.4129 131.256 75.4409 131.256 75.4409 133.356C75.4409 135.428 75.4409 135.456 73.2569 135.456H70.3169V131.256ZM68.8049 139.824H70.3169V136.8H72.2489C75.4409 136.8 77.0369 136.8 77.0369 133.356C77.0369 129.912 75.4409 129.912 72.2489 129.912H68.8049V139.824ZM84.6855 139.992L85.7495 139.194C85.2455 138.522 85.2455 138.522 85.2455 137.136V135.96C85.2455 134.28 85.2455 132.6 81.9695 132.6C81.4655 132.6 80.3735 132.6 79.0295 132.936V134.28H79.3655L80.7095 133.944H81.9695C83.8175 133.944 83.8175 133.944 83.8175 135.708H81.9695C78.4415 135.708 78.4415 136.884 78.4415 137.976C78.4415 138.648 78.4415 139.992 80.9615 139.992C82.6975 139.992 83.6355 139.292 83.9715 139.04L84.6855 139.992ZM80.0375 137.808C80.0375 136.8 80.0375 136.8 81.9695 136.8H83.8175V138.144L81.8015 138.648H81.0455C80.0375 138.648 80.0375 138.648 80.0375 137.808ZM90.6785 139.992C91.1825 139.992 92.2745 139.992 93.6185 139.656V138.312H93.2825L91.9245 138.648H91.1825C88.7465 138.648 88.7465 138.648 88.7465 136.296C88.7465 133.944 88.7465 133.944 90.6785 133.944C92.2745 133.944 92.2745 133.944 92.6105 135.288L93.9545 134.952C93.9545 134.28 93.9545 132.6 91.0145 132.6H90.3425C87.2345 132.6 87.2345 134.448 87.2345 135.96V136.632C87.2345 138.144 87.2345 139.992 90.6785 139.992ZM96.7796 139.824C97.7876 138.48 98.3756 137.696 98.3756 136.968H99.4676C99.4676 137.696 100.056 138.48 101.064 139.824H102.66V139.432L100.308 136.296L102.66 133.16V132.768H101.064C100.056 134.112 99.4676 134.896 99.4676 135.624H98.3756C98.3756 134.896 97.7876 134.112 96.7796 132.768H95.1836V133.16L97.5356 136.296L95.1836 139.432V139.824H96.7796ZM105.495 136.296C105.495 133.944 105.495 133.874 107.679 133.874C109.863 133.874 109.863 133.944 109.863 136.296C109.863 138.648 109.863 138.718 107.679 138.718C105.495 138.718 105.495 138.648 105.495 136.296ZM103.983 136.632C103.983 137.976 103.983 139.992 107.343 139.992H108.015C111.375 139.992 111.375 137.976 111.375 136.632V135.96C111.375 134.616 111.375 132.6 108.015 132.6H107.343C103.983 132.6 103.983 134.616 103.983 135.96V136.632ZM114.109 139.824H120.255V141.84H121.627V138.648H120.451V132.768H114.711V133.608C114.711 135.274 114.529 137.052 113.703 138.648H112.737V141.84H114.109V139.824ZM116.083 134H119.023V138.648H115.243C115.915 137.038 116.083 135.33 116.083 134ZM127.383 139.824H130.645C132.325 139.824 134.019 139.824 134.019 138.06C134.019 137.472 133.879 136.716 132.535 136.38V136.212C133.879 135.876 133.879 135.12 133.879 134.532C133.879 132.768 132.325 132.768 130.645 132.768H127.383V139.824ZM131.163 136.8C132.409 136.8 132.423 136.8 132.423 137.724C132.423 138.634 132.423 138.648 131.163 138.648H128.811V136.8H131.163ZM131.023 133.944C132.269 133.944 132.283 133.944 132.283 134.868C132.283 135.778 132.283 135.792 131.023 135.792H128.811V133.944H131.023ZM137.268 136.296C137.268 133.944 137.268 133.874 139.452 133.874C141.636 133.874 141.636 133.944 141.636 136.296C141.636 138.648 141.636 138.718 139.452 138.718C137.268 138.718 137.268 138.648 137.268 136.296ZM135.756 136.632C135.756 137.976 135.756 139.992 139.116 139.992H139.788C143.148 139.992 143.148 137.976 143.148 136.632V135.96C143.148 134.616 143.148 132.6 139.788 132.6H139.116C135.756 132.6 135.756 134.616 135.756 135.96V136.632ZM145.883 139.824H152.029V141.84H153.401V138.648H152.225V132.768H146.485V133.608C146.485 135.274 146.303 137.052 145.477 138.648H144.511V141.84H145.883V139.824ZM147.857 134H150.797V138.648H147.017C147.689 137.038 147.857 135.33 147.857 134ZM162.824 132.768V139.824H164.252V132.768H162.824ZM155.096 139.824H158.12C159.884 139.824 161.396 139.824 161.396 137.472C161.396 136.632 161.396 134.952 158.456 134.952C157.868 134.952 157.196 135.036 156.524 135.204V132.768H155.096V139.824ZM158.288 136.296C159.884 136.296 159.884 136.296 159.884 137.472C159.884 138.648 159.884 138.648 158.288 138.648H156.524V136.296H158.288Z" fill="black"/>
<g filter="url(#filter2_d)">
<path d="M177 93C177 88.5817 180.582 85 185 85H299C303.418 85 307 88.5817 307 93V165.34C307 169.758 303.418 173.34 299 173.34H211.435C210.166 173.34 208.915 173.642 207.786 174.22L192.606 182L192.627 181.447C192.792 177.019 189.247 173.34 184.816 173.34C180.499 173.34 177 169.84 177 165.524V93Z" fill="white"/>
</g>
<path d="M184.34 155.017V156.697H188.372V155.017H184.34ZM189.784 160.441H196.696V158.425H194.68V149.113H193.432L189.784 150.025V151.369H192.52V158.425H189.784V160.441ZM202.377 148.857C200.745 148.857 198.537 148.889 198.537 154.297V155.257C198.537 160.729 200.745 160.729 202.377 160.729H202.665C204.297 160.729 206.505 160.729 206.505 155.257V154.297C206.505 148.889 204.297 148.857 202.665 148.857H202.377ZM200.889 154.585C200.889 150.889 200.889 150.889 202.521 150.889C204.153 150.889 204.153 150.889 204.153 154.585V154.969C204.153 158.665 204.153 158.665 202.521 158.665C200.889 158.665 200.889 158.665 200.889 154.969V154.585ZM211.659 148.857C210.027 148.857 207.819 148.889 207.819 154.297V155.257C207.819 160.729 210.027 160.729 211.659 160.729H211.947C213.579 160.729 215.787 160.729 215.787 155.257V154.297C215.787 148.889 213.579 148.857 211.947 148.857H211.659ZM210.171 154.585C210.171 150.889 210.171 150.889 211.803 150.889C213.435 150.889 213.435 150.889 213.435 154.585V154.969C213.435 158.665 213.435 158.665 211.803 158.665C210.171 158.665 210.171 158.665 210.171 154.969V154.585ZM218.3 157.305C217.724 158.073 217.1 158.905 217.1 160.073V160.441H219.404V159.401C219.404 158.169 219.404 158.249 220.46 156.793L223.868 152.249C224.428 151.497 225.068 150.649 225.068 149.481V149.113H222.764V150.153C222.764 151.369 222.764 151.369 221.708 152.761L218.3 157.305ZM220.796 151.321C220.796 149.049 219.308 149.049 218.78 149.049H218.588C218.06 149.049 216.572 149.049 216.572 151.321V151.801C216.572 154.073 218.06 154.073 218.588 154.073H218.78C219.308 154.073 220.796 154.073 220.796 151.801V151.321ZM218.204 151.417C218.204 150.361 218.204 150.361 218.684 150.361C219.164 150.361 219.164 150.361 219.164 151.417V151.705C219.164 152.761 219.164 152.761 218.684 152.761C218.204 152.761 218.204 152.761 218.204 151.705V151.417ZM225.596 157.753C225.596 155.481 224.108 155.481 223.58 155.481H223.388C222.86 155.481 221.372 155.481 221.372 157.753V158.233C221.372 160.505 222.86 160.505 223.388 160.505H223.58C224.108 160.505 225.596 160.505 225.596 158.233V157.753ZM223.004 157.849C223.004 156.793 223.004 156.793 223.484 156.793C223.964 156.793 223.964 156.793 223.964 157.849V158.137C223.964 159.193 223.964 159.193 223.484 159.193C223.004 159.193 223.004 159.193 223.004 158.137V157.849Z" fill="#E21A1A"/>
<path d="M232.09 162.745H233.434V146.809H232.09V162.745Z" fill="#CBCDD5"/>
<path d="M240.111 152.983V155.293H245.655V152.983H240.111ZM247.597 160.441H257.101V157.669H254.329V144.865H252.613L247.597 146.119V147.967H251.359V157.669H247.597V160.441ZM264.913 144.513C262.669 144.513 259.633 144.557 259.633 151.993V153.313C259.633 160.837 262.669 160.837 264.913 160.837H265.309C267.553 160.837 270.589 160.837 270.589 153.313V151.993C270.589 144.557 267.553 144.513 265.309 144.513H264.913ZM262.867 152.389C262.867 147.307 262.867 147.307 265.111 147.307C267.355 147.307 267.355 147.307 267.355 152.389V152.917C267.355 157.999 267.355 157.999 265.111 157.999C262.867 157.999 262.867 157.999 262.867 152.917V152.389ZM277.675 144.513C275.431 144.513 272.395 144.557 272.395 151.993V153.313C272.395 160.837 275.431 160.837 277.675 160.837H278.071C280.315 160.837 283.351 160.837 283.351 153.313V151.993C283.351 144.557 280.315 144.513 278.071 144.513H277.675ZM275.629 152.389C275.629 147.307 275.629 147.307 277.873 147.307C280.117 147.307 280.117 147.307 280.117 152.389V152.917C280.117 157.999 280.117 157.999 277.873 157.999C275.629 157.999 275.629 157.999 275.629 152.917V152.389ZM286.806 156.129C286.014 157.185 285.156 158.329 285.156 159.935V160.441H288.324V159.011C288.324 157.317 288.324 157.427 289.776 155.425L294.462 149.177C295.232 148.143 296.112 146.977 296.112 145.371V144.865H292.944V146.295C292.944 147.967 292.944 147.967 291.492 149.881L286.806 156.129ZM290.238 147.901C290.238 144.777 288.192 144.777 287.466 144.777H287.202C286.476 144.777 284.43 144.777 284.43 147.901V148.561C284.43 151.685 286.476 151.685 287.202 151.685H287.466C288.192 151.685 290.238 151.685 290.238 148.561V147.901ZM286.674 148.033C286.674 146.581 286.674 146.581 287.334 146.581C287.994 146.581 287.994 146.581 287.994 148.033V148.429C287.994 149.881 287.994 149.881 287.334 149.881C286.674 149.881 286.674 149.881 286.674 148.429V148.033ZM296.838 156.745C296.838 153.621 294.792 153.621 294.066 153.621H293.802C293.076 153.621 291.03 153.621 291.03 156.745V157.405C291.03 160.529 293.076 160.529 293.802 160.529H294.066C294.792 160.529 296.838 160.529 296.838 157.405V156.745ZM293.274 156.877C293.274 155.425 293.274 155.425 293.934 155.425C294.594 155.425 294.594 155.425 294.594 156.877V157.273C294.594 158.725 294.594 158.725 293.934 158.725C293.274 158.725 293.274 158.725 293.274 157.273V156.877Z" fill="#7A4FF4"/>
<path d="M193.604 99C193.604 98.02 193.604 95.864 189.656 95.864H189.152C185.036 95.864 185.036 98.44 185.036 100.624V101.464C185.036 103.816 185.036 106.224 189.404 106.224C190.244 106.224 191.224 106.224 193.352 105.692V104.236H192.848L190.832 104.74H190.244C186.716 104.74 186.716 104.74 186.716 101.296V100.792C186.716 97.348 186.716 97.348 189.404 97.348C191.644 97.348 191.644 97.348 192.148 99.364L193.604 99ZM200.217 97.768C200.973 97.586 201.715 97.39 201.981 96.34L202.065 96.004L200.721 95.668C200.553 96.172 200.567 96.172 199.881 96.34L198.201 96.76C195.345 97.474 195.345 99.364 195.345 101.548V102.094C195.345 104.446 195.345 106.168 198.789 106.168H199.461C202.821 106.168 202.821 104.488 202.821 103.228V102.472C202.821 101.212 202.821 99.532 199.797 99.532C197.781 99.532 197.109 99.994 196.801 100.372L196.549 100.288C196.969 98.608 196.969 98.58 198.537 98.188L200.217 97.768ZM199.125 100.778C201.309 100.778 201.309 101.086 201.309 102.85C201.309 104.614 201.309 104.922 199.013 104.922C196.941 104.922 196.941 104.614 196.941 102.85C196.941 101.086 196.941 100.778 199.125 100.778ZM204.809 98.944V108.856H206.237V105.832C206.909 106 207.581 106.168 208.841 106.168C212.033 106.168 212.033 103.984 212.033 102.808V102.136C212.033 100.792 212.033 98.776 209.009 98.776C207.329 98.776 206.405 99.476 206.069 99.728L205.481 98.944H204.809ZM210.521 102.472C210.521 104.81 210.521 104.824 208.253 104.824C207.749 104.824 206.909 104.824 206.237 104.656V100.624L208.253 100.12H208.491C210.521 100.12 210.521 100.204 210.521 102.472ZM215.282 102.472C215.282 100.12 215.282 100.05 217.466 100.05C219.65 100.05 219.65 100.12 219.65 102.472C219.65 104.824 219.65 104.894 217.466 104.894C215.282 104.894 215.282 104.824 215.282 102.472ZM213.77 102.808C213.77 104.152 213.77 106.168 217.13 106.168H217.802C221.162 106.168 221.162 104.152 221.162 102.808V102.136C221.162 100.792 221.162 98.776 217.802 98.776H217.13C213.77 98.776 213.77 100.792 213.77 102.136V102.808ZM226.347 106.168C226.851 106.168 227.943 106.168 229.287 105.832V104.488H228.951L227.593 104.824H226.851C224.415 104.824 224.415 104.824 224.415 102.472C224.415 100.12 224.415 100.12 226.347 100.12C227.943 100.12 227.943 100.12 228.279 101.464L229.623 101.128C229.623 100.456 229.623 98.776 226.683 98.776H226.011C222.903 98.776 222.903 100.624 222.903 102.136V102.808C222.903 104.32 222.903 106.168 226.347 106.168ZM186.464 121.824L185.12 121.488H184.784V122.832C186.128 123.168 187.206 123.168 187.71 123.168C190.888 123.168 191.042 121.824 191.042 121.152C191.042 120.816 191.042 119.892 189.698 119.556V119.388C191.042 119.052 191.042 118.128 191.042 117.792C191.042 117.12 190.902 115.776 187.71 115.776C187.206 115.776 186.128 115.776 184.784 116.112V117.456H185.12L186.464 117.12H188.186C189.446 117.12 189.446 117.12 189.446 118.016C189.446 118.884 189.446 118.884 188.186 118.884H186.464V120.06H188.186C189.446 120.06 189.446 120.06 189.446 120.928C189.446 121.824 189.446 121.824 188.186 121.824H186.464ZM198.917 123.168L199.981 122.37C199.477 121.698 199.477 121.698 199.477 120.312V119.136C199.477 117.456 199.477 115.776 196.201 115.776C195.697 115.776 194.605 115.776 193.261 116.112V117.456H193.597L194.941 117.12H196.201C198.049 117.12 198.049 117.12 198.049 118.884H196.201C192.673 118.884 192.673 120.06 192.673 121.152C192.673 121.824 192.673 123.168 195.193 123.168C196.929 123.168 197.867 122.468 198.203 122.216L198.917 123.168ZM194.269 120.984C194.269 119.976 194.269 119.976 196.201 119.976H198.049V121.32L196.033 121.824H195.277C194.269 121.824 194.269 121.824 194.269 120.984ZM207.486 115.944H201.802V123H203.23V117.176H207.486V115.944ZM209.034 115.944V125.856H210.462V122.832C211.134 123 211.806 123.168 213.066 123.168C216.258 123.168 216.258 120.984 216.258 119.808V119.136C216.258 117.792 216.258 115.776 213.234 115.776C211.554 115.776 210.63 116.476 210.294 116.728L209.706 115.944H209.034ZM214.746 119.472C214.746 121.81 214.746 121.824 212.478 121.824C211.974 121.824 211.134 121.824 210.462 121.656V117.624L212.478 117.12H212.716C214.746 117.12 214.746 117.204 214.746 119.472ZM224.715 123V115.944H221.691C219.591 115.944 217.911 115.944 217.911 118.212C217.911 119.444 218.331 119.766 219.507 120.648L218.037 122.608V123H219.633C220.137 122.356 220.683 121.684 220.683 120.648H223.287V123H224.715ZM221.103 119.472C219.521 119.472 219.507 119.472 219.507 118.296C219.507 117.134 219.507 117.12 221.103 117.12H223.287V119.472H221.103ZM228.382 121.824L227.038 121.488H226.702V122.832C228.046 123.168 229.124 123.168 229.628 123.168C232.806 123.168 232.96 121.824 232.96 121.152C232.96 120.816 232.96 119.892 231.616 119.556V119.388C232.96 119.052 232.96 118.128 232.96 117.792C232.96 117.12 232.82 115.776 229.628 115.776C229.124 115.776 228.046 115.776 226.702 116.112V117.456H227.038L228.382 117.12H230.104C231.364 117.12 231.364 117.12 231.364 118.016C231.364 118.884 231.364 118.884 230.104 118.884H228.382V120.06H230.104C231.364 120.06 231.364 120.06 231.364 120.928C231.364 121.824 231.364 121.824 230.104 121.824H228.382ZM240.555 115.944V118.786H236.439V115.944H235.011V123H236.439V120.018H240.555V123H241.983V115.944H240.555ZM247.498 121.824C245.566 121.824 245.566 121.824 245.566 120.06H247.498C249.514 120.06 249.85 120.06 250.606 119.892L250.942 119.808V119.136C250.942 117.792 250.942 115.776 247.834 115.776H247.162C244.054 115.776 244.054 117.792 244.054 119.136V119.808C244.054 121.32 244.054 123.168 247.498 123.168C248.086 123.168 249.094 123.168 250.438 122.832V121.488H250.102L248.758 121.824H247.498ZM245.566 118.968C245.566 117.12 245.566 117.12 247.498 117.12C249.43 117.12 249.43 117.12 249.43 118.968H245.566ZM258.561 115.944V118.786H254.445V115.944H253.017V123H254.445V120.018H258.561V123H259.989V115.944H258.561ZM267.939 115.944V118.786H263.823V115.944H262.395V123H263.823V120.018H267.939V123H269.367V115.944H267.939ZM279.502 115.944V123H280.93V115.944H279.502ZM271.774 123H274.798C276.562 123 278.074 123 278.074 120.648C278.074 119.808 278.074 118.128 275.134 118.128C274.546 118.128 273.874 118.212 273.202 118.38V115.944H271.774V123ZM274.966 119.472C276.562 119.472 276.562 119.472 276.562 120.648C276.562 121.824 276.562 121.824 274.966 121.824H273.202V119.472H274.966ZM284.265 123C285.273 121.656 285.861 120.872 285.861 120.144H286.953C286.953 120.872 287.541 121.656 288.549 123H290.145V122.608L287.793 119.472L290.145 116.336V115.944H288.549C287.541 117.288 286.953 118.072 286.953 118.8H285.861C285.861 118.072 285.273 117.288 284.265 115.944H282.669V116.336L285.021 119.472L282.669 122.608V123H284.265ZM185.204 140H188.466C190.146 140 191.84 140 191.84 138.236C191.84 137.648 191.7 136.892 190.356 136.556V136.388C191.7 136.052 191.7 135.296 191.7 134.708C191.7 132.944 190.146 132.944 188.466 132.944H185.204V140ZM188.984 136.976C190.23 136.976 190.244 136.976 190.244 137.9C190.244 138.81 190.244 138.824 188.984 138.824H186.632V136.976H188.984ZM188.844 134.12C190.09 134.12 190.104 134.12 190.104 135.044C190.104 135.954 190.104 135.968 188.844 135.968H186.632V134.12H188.844ZM195.089 136.472C195.089 134.12 195.089 134.05 197.273 134.05C199.457 134.05 199.457 134.12 199.457 136.472C199.457 138.824 199.457 138.894 197.273 138.894C195.089 138.894 195.089 138.824 195.089 136.472ZM193.577 136.808C193.577 138.152 193.577 140.168 196.937 140.168H197.609C200.969 140.168 200.969 138.152 200.969 136.808V136.136C200.969 134.792 200.969 132.776 197.609 132.776H196.937C193.577 132.776 193.577 134.792 193.577 136.136V136.808ZM203.704 140H209.85V142.016H211.222V138.824H210.046V132.944H204.306V133.784C204.306 135.45 204.124 137.228 203.298 138.824H202.332V142.016H203.704V140ZM205.678 134.176H208.618V138.824H204.838C205.51 137.214 205.678 135.506 205.678 134.176Z" fill="black"/>
<g filter="url(#filter3_d)">
<path d="M14.0925 187.414C14.0925 182.996 17.6743 179.414 22.0925 179.414H130.587C135.005 179.414 138.587 182.996 138.587 187.414V264.326C138.587 266.922 136.482 269.026 133.887 269.026C131.222 269.026 129.09 271.239 129.19 273.902L129.204 274.275L120.613 269.898C119.488 269.325 118.244 269.026 116.981 269.026H22.0925C17.6743 269.026 14.0925 265.444 14.0925 261.026V187.414Z" fill="white"/>
</g>
<path d="M21.2457 250.237V251.917H25.2777V250.237H21.2457ZM30.1941 244.045C26.4661 244.045 26.4661 246.637 26.4661 247.469V247.581L28.4181 248.077C28.9461 246.013 28.9461 246.013 30.1941 246.013C31.4901 246.013 31.4901 246.013 31.4901 247.501C31.4901 249.421 31.4901 249.421 29.6181 249.885L29.0421 250.029C26.5461 250.653 26.5461 251.917 26.5461 253.645V255.661H33.6501V253.645H28.5141V253.213C28.5141 252.221 28.5141 252.221 29.4261 251.965L30.9621 251.533C33.8421 250.733 33.8421 249.037 33.8421 247.517C33.8421 246.397 33.8421 244.045 30.1941 244.045ZM40.1954 253.549V255.661H42.3554V253.549H43.5554V251.677H42.3554V248.653H41.7314L40.1954 249.037V251.677H37.7954V251.229L39.3314 248.157C40.4034 246.013 40.5954 245.629 40.5954 244.717V244.333H38.1474V244.525C38.1474 245.933 38.1474 245.933 36.5954 249.037L35.5874 251.053V253.549H40.1954ZM45.9246 252.525C45.3486 253.293 44.7246 254.125 44.7246 255.293V255.661H47.0286V254.621C47.0286 253.389 47.0286 253.469 48.0846 252.013L51.4926 247.469C52.0526 246.717 52.6926 245.869 52.6926 244.701V244.333H50.3886V245.373C50.3886 246.589 50.3886 246.589 49.3326 247.981L45.9246 252.525ZM48.4206 246.541C48.4206 244.269 46.9326 244.269 46.4046 244.269H46.2126C45.6846 244.269 44.1966 244.269 44.1966 246.541V247.021C44.1966 249.293 45.6846 249.293 46.2126 249.293H46.4046C46.9326 249.293 48.4206 249.293 48.4206 247.021V246.541ZM45.8286 246.637C45.8286 245.581 45.8286 245.581 46.3086 245.581C46.7886 245.581 46.7886 245.581 46.7886 246.637V246.925C46.7886 247.981 46.7886 247.981 46.3086 247.981C45.8286 247.981 45.8286 247.981 45.8286 246.925V246.637ZM53.2206 252.973C53.2206 250.701 51.7326 250.701 51.2046 250.701H51.0126C50.4846 250.701 48.9966 250.701 48.9966 252.973V253.453C48.9966 255.725 50.4846 255.725 51.0126 255.725H51.2046C51.7326 255.725 53.2206 255.725 53.2206 253.453V252.973ZM50.6286 253.069C50.6286 252.013 50.6286 252.013 51.1086 252.013C51.5886 252.013 51.5886 252.013 51.5886 253.069V253.357C51.5886 254.413 51.5886 254.413 51.1086 254.413C50.6286 254.413 50.6286 254.413 50.6286 253.357V253.069Z" fill="#E21A1A"/>
<path d="M59.7147 257.965H61.0587V242.029H59.7147V257.965Z" fill="#CBCDD5"/>
<path d="M67.736 248.203V250.513H73.28V248.203H67.736ZM80.172 249.281C81.822 249.281 81.822 249.281 81.822 251.173C81.822 253.219 81.822 253.219 79.314 253.219H78.324L75.684 252.559H74.892V255.353C77.708 256.057 79.05 256.057 79.776 256.057C85.056 256.057 85.056 252.625 85.056 251.371V250.711C85.056 247.213 82.548 247.213 81.844 247.213H81.448V246.707L82.724 245.761C84.66 244.309 84.66 244.309 84.66 242.593V240.085H74.892V244.595H77.4V242.725H81.756V243.759L77.048 247.279L78.852 249.699C79.424 249.281 79.908 249.281 80.172 249.281ZM97.9497 250.381C97.9497 248.731 97.9497 245.541 94.0557 245.541C93.5937 245.541 92.8017 245.541 90.6237 246.069V242.857H97.2897V240.085H88.0497V248.929L90.9317 249.633C91.3717 248.005 91.3717 248.005 92.9997 248.005C94.7157 248.005 94.7157 248.005 94.7157 250.645C94.7157 253.219 94.7157 253.219 92.0097 253.219H91.2177L88.5777 252.559H87.7857V255.353C90.6017 256.057 91.8117 256.057 92.5377 256.057C97.9497 256.057 97.9497 252.823 97.9497 250.909V250.381ZM101.669 251.349C100.877 252.405 100.019 253.549 100.019 255.155V255.661H103.187V254.231C103.187 252.537 103.187 252.647 104.639 250.645L109.325 244.397C110.095 243.363 110.975 242.197 110.975 240.591V240.085H107.807V241.515C107.807 243.187 107.807 243.187 106.355 245.101L101.669 251.349ZM105.101 243.121C105.101 239.997 103.055 239.997 102.329 239.997H102.065C101.339 239.997 99.2934 239.997 99.2934 243.121V243.781C99.2934 246.905 101.339 246.905 102.065 246.905H102.329C103.055 246.905 105.101 246.905 105.101 243.781V243.121ZM101.537 243.253C101.537 241.801 101.537 241.801 102.197 241.801C102.857 241.801 102.857 241.801 102.857 243.253V243.649C102.857 245.101 102.857 245.101 102.197 245.101C101.537 245.101 101.537 245.101 101.537 243.649V243.253ZM111.701 251.965C111.701 248.841 109.655 248.841 108.929 248.841H108.665C107.939 248.841 105.893 248.841 105.893 251.965V252.625C105.893 255.749 107.939 255.749 108.665 255.749H108.929C109.655 255.749 111.701 255.749 111.701 252.625V251.965ZM108.137 252.097C108.137 250.645 108.137 250.645 108.797 250.645C109.457 250.645 109.457 250.645 109.457 252.097V252.493C109.457 253.945 109.457 253.945 108.797 253.945C108.137 253.945 108.137 253.945 108.137 252.493V252.097Z" fill="#7A4FF4"/>
<path d="M27.496 194.576C29.008 194.576 29.008 194.646 29.008 196.116C29.008 197.586 29.008 197.656 27.496 197.656H23.968V194.576H27.496ZM27.356 190.432C28.868 190.432 28.868 190.446 28.868 191.832C28.868 193.218 28.868 193.232 27.356 193.232H23.968V190.432H27.356ZM26.404 199C29.008 199 30.688 198.93 30.688 196.242C30.688 195.906 30.548 194.352 29.316 194.044V193.764C30.548 193.456 30.548 192.042 30.548 191.706C30.548 189.102 28.868 189.088 26.264 189.088H22.456V199H26.404ZM40.7465 191.944V199H42.1745V191.944H40.7465ZM33.0185 199H36.0425C37.8065 199 39.3185 199 39.3185 196.648C39.3185 195.808 39.3185 194.128 36.3785 194.128C35.7905 194.128 35.1185 194.212 34.4465 194.38V191.944H33.0185V199ZM36.2105 195.472C37.8065 195.472 37.8065 195.472 37.8065 196.648C37.8065 197.824 37.8065 197.824 36.2105 197.824H34.4465V195.472H36.2105ZM49.2889 190.768C50.0449 190.586 50.7869 190.39 51.0529 189.34L51.1369 189.004L49.7929 188.668C49.6249 189.172 49.6389 189.172 48.9529 189.34L47.2729 189.76C44.4169 190.474 44.4169 192.364 44.4169 194.548V195.094C44.4169 197.446 44.4169 199.168 47.8609 199.168H48.5329C51.8929 199.168 51.8929 197.488 51.8929 196.228V195.472C51.8929 194.212 51.8929 192.532 48.8689 192.532C46.8529 192.532 46.1809 192.994 45.8729 193.372L45.6209 193.288C46.0409 191.608 46.0409 191.58 47.6089 191.188L49.2889 190.768ZM48.1969 193.778C50.3809 193.778 50.3809 194.086 50.3809 195.85C50.3809 197.614 50.3809 197.922 48.0849 197.922C46.0129 197.922 46.0129 197.614 46.0129 195.85C46.0129 194.086 46.0129 193.778 48.1969 193.778ZM53.8817 191.944V201.856H55.3097V198.832C55.9817 199 56.6537 199.168 57.9137 199.168C61.1057 199.168 61.1057 196.984 61.1057 195.808V195.136C61.1057 193.792 61.1057 191.776 58.0817 191.776C56.4017 191.776 55.4777 192.476 55.1417 192.728L54.5537 191.944H53.8817ZM59.5937 195.472C59.5937 197.81 59.5937 197.824 57.3257 197.824C56.8217 197.824 55.9817 197.824 55.3097 197.656V193.624L57.3257 193.12H57.5637C59.5937 193.12 59.5937 193.204 59.5937 195.472ZM64.3546 195.472C64.3546 193.12 64.3546 193.05 66.5386 193.05C68.7226 193.05 68.7226 193.12 68.7226 195.472C68.7226 197.824 68.7226 197.894 66.5386 197.894C64.3546 197.894 64.3546 197.824 64.3546 195.472ZM62.8426 195.808C62.8426 197.152 62.8426 199.168 66.2026 199.168H66.8746C70.2346 199.168 70.2346 197.152 70.2346 195.808V195.136C70.2346 193.792 70.2346 191.776 66.8746 191.776H66.2026C62.8426 191.776 62.8426 193.792 62.8426 195.136V195.808ZM75.4194 199.168C75.9234 199.168 77.0154 199.168 78.3594 198.832V197.488H78.0234L76.6654 197.824H75.9234C73.4874 197.824 73.4874 197.824 73.4874 195.472C73.4874 193.12 73.4874 193.12 75.4194 193.12C77.0154 193.12 77.0154 193.12 77.3514 194.464L78.6954 194.128C78.6954 193.456 78.6954 191.776 75.7554 191.776H75.0834C71.9754 191.776 71.9754 193.624 71.9754 195.136V195.808C71.9754 197.32 71.9754 199.168 75.4194 199.168ZM88.3246 191.944V199H89.7526V191.944H88.3246ZM80.5966 199H83.6206C85.3846 199 86.8966 199 86.8966 196.648C86.8966 195.808 86.8966 194.128 83.9566 194.128C83.3686 194.128 82.6966 194.212 82.0246 194.38V191.944H80.5966V199ZM83.7886 195.472C85.3846 195.472 85.3846 195.472 85.3846 196.648C85.3846 197.824 85.3846 197.824 83.7886 197.824H82.0246V195.472H83.7886ZM97.3995 195.472C97.3995 193.12 97.3995 193.05 99.5835 193.05C101.768 193.05 101.768 193.12 101.768 195.472C101.768 197.824 101.768 197.894 99.5835 197.894C97.3995 197.894 97.3995 197.824 97.3995 195.472ZM95.8875 195.808C95.8875 197.152 95.8875 199.168 99.2475 199.168H99.9195C103.28 199.168 103.28 197.152 103.28 195.808V195.136C103.28 193.792 103.28 191.776 99.9195 191.776H99.2475C95.8875 191.776 95.8875 193.792 95.8875 195.136V195.808ZM111.698 191.944H104.642V193.176H107.428V199H108.912V193.176H111.698V191.944ZM25.312 216.168C25.816 216.168 26.908 216.168 28.252 215.832V214.488H27.916L26.558 214.824H25.816C23.38 214.824 23.38 214.824 23.38 212.472C23.38 210.12 23.38 210.12 25.312 210.12C26.908 210.12 26.908 210.12 27.244 211.464L28.588 211.128C28.588 210.456 28.588 208.776 25.648 208.776H24.976C21.868 208.776 21.868 210.624 21.868 212.136V212.808C21.868 214.32 21.868 216.168 25.312 216.168ZM36.8312 208.944H29.7752V210.176H32.5612V216H34.0452V210.176H36.8312V208.944ZM44.3522 216.168L45.4162 215.37C44.9122 214.698 44.9122 214.698 44.9122 213.312V212.136C44.9122 210.456 44.9122 208.776 41.6362 208.776C41.1322 208.776 40.0402 208.776 38.6962 209.112V210.456H39.0322L40.3762 210.12H41.6362C43.4842 210.12 43.4842 210.12 43.4842 211.884H41.6362C38.1082 211.884 38.1082 213.06 38.1082 214.152C38.1082 214.824 38.1082 216.168 40.6282 216.168C42.3642 216.168 43.3022 215.468 43.6382 215.216L44.3522 216.168ZM39.7042 213.984C39.7042 212.976 39.7042 212.976 41.6362 212.976H43.4842V214.32L41.4682 214.824H40.7122C39.7042 214.824 39.7042 214.824 39.7042 213.984ZM55.3852 218.016V214.824H54.2092V208.944H52.7812V214.824H48.6652V208.944H47.2372V216H54.0132V218.016H55.3852ZM59.027 216C62.681 211.142 62.681 210.89 62.681 210.148H63.045V216H64.473V208.944H62.541C58.887 213.802 58.887 214.054 58.887 214.796H58.509V208.944H57.081V216H59.027ZM68.0597 212.472C68.0597 210.12 68.0597 210.05 70.2437 210.05C72.4277 210.05 72.4277 210.12 72.4277 212.472C72.4277 214.824 72.4277 214.894 70.2437 214.894C68.0597 214.894 68.0597 214.824 68.0597 212.472ZM66.5477 212.808C66.5477 214.152 66.5477 216.168 69.9077 216.168H70.5797C73.9397 216.168 73.9397 214.152 73.9397 212.808V212.136C73.9397 210.792 73.9397 208.776 70.5797 208.776H69.9077C66.5477 208.776 66.5477 210.792 66.5477 212.136V212.808ZM81.5605 208.944V211.786H77.4445V208.944H76.0165V216H77.4445V213.018H81.5605V216H82.9885V208.944H81.5605ZM91.2194 216.168L92.2834 215.37C91.7794 214.698 91.7794 214.698 91.7794 213.312V212.136C91.7794 210.456 91.7794 208.776 88.5034 208.776C87.9994 208.776 86.9074 208.776 85.5634 209.112V210.456H85.8994L87.2434 210.12H88.5034C90.3514 210.12 90.3514 210.12 90.3514 211.884H88.5034C84.9754 211.884 84.9754 213.06 84.9754 214.152C84.9754 214.824 84.9754 216.168 87.4954 216.168C89.2314 216.168 90.1694 215.468 90.5054 215.216L91.2194 216.168ZM86.5714 213.984C86.5714 212.976 86.5714 212.976 88.5034 212.976H90.3514V214.32L88.3354 214.824H87.5794C86.5714 214.824 86.5714 214.824 86.5714 213.984ZM94.1044 208.944V218.856H95.5324V215.832C96.2044 216 96.8764 216.168 98.1364 216.168C101.328 216.168 101.328 213.984 101.328 212.808V212.136C101.328 210.792 101.328 208.776 98.3044 208.776C96.6244 208.776 95.7004 209.476 95.3644 209.728L94.7764 208.944H94.1044ZM99.8164 212.472C99.8164 214.81 99.8164 214.824 97.5484 214.824C97.0444 214.824 96.2044 214.824 95.5324 214.656V210.624L97.5484 210.12H97.7864C99.8164 210.12 99.8164 210.204 99.8164 212.472ZM108.945 208.944V211.786H104.829V208.944H103.401V216H104.829V213.018H108.945V216H110.373V208.944H108.945ZM120.508 208.944V216H121.936V208.944H120.508ZM112.78 216H115.804C117.568 216 119.08 216 119.08 213.648C119.08 212.808 119.08 211.128 116.14 211.128C115.552 211.128 114.88 211.212 114.208 211.38V208.944H112.78V216ZM115.972 212.472C117.568 212.472 117.568 212.472 117.568 213.648C117.568 214.824 117.568 214.824 115.972 214.824H114.208V212.472H115.972ZM125.271 216C126.279 214.656 126.867 213.872 126.867 213.144H127.959C127.959 213.872 128.547 214.656 129.555 216H131.151V215.608L128.799 212.472L131.151 209.336V208.944H129.555C128.547 210.288 127.959 211.072 127.959 211.8H126.867C126.867 211.072 126.279 210.288 125.271 208.944H123.675V209.336L126.027 212.472L123.675 215.608V216H125.271ZM24.15 233C27.804 228.142 27.804 227.89 27.804 227.148H28.168V233H29.596V225.944H27.664C24.01 230.802 24.01 231.054 24.01 231.796H23.632V225.944H22.204V233H24.15ZM35.1147 233.168C35.6187 233.168 36.7107 233.168 38.0547 232.832V231.488H37.7187L36.3607 231.824H35.6187C33.1827 231.824 33.1827 231.824 33.1827 229.472C33.1827 227.12 33.1827 227.12 35.1147 227.12C36.7107 227.12 36.7107 227.12 37.0467 228.464L38.3907 228.128C38.3907 227.456 38.3907 225.776 35.4507 225.776H34.7787C31.6707 225.776 31.6707 227.624 31.6707 229.136V229.808C31.6707 231.32 31.6707 233.168 35.1147 233.168ZM46.6339 225.944H39.5779V227.176H42.3639V233H43.8479V227.176H46.6339V225.944ZM49.507 229.472C49.507 227.12 49.507 227.05 51.691 227.05C53.875 227.05 53.875 227.12 53.875 229.472C53.875 231.824 53.875 231.894 51.691 231.894C49.507 231.894 49.507 231.824 49.507 229.472ZM47.995 229.808C47.995 231.152 47.995 233.168 51.355 233.168H52.027C55.387 233.168 55.387 231.152 55.387 229.808V229.136C55.387 227.792 55.387 225.776 52.027 225.776H51.355C47.995 225.776 47.995 227.792 47.995 229.136V229.808ZM57.0438 225.944V228.128C57.0438 229.136 57.0438 230.816 59.8158 230.816C60.5718 230.816 61.5798 230.564 62.2518 230.396V233H63.6798V225.944H62.2518V229.22L61.2438 229.472H60.2358C58.5558 229.472 58.5558 229.472 58.5558 228.128V225.944H57.0438ZM71.6347 225.944V228.786H67.5187V225.944H66.0907V233H67.5187V230.018H71.6347V233H73.0627V225.944H71.6347ZM77.4156 233C81.0696 228.142 81.0696 227.89 81.0696 227.148H81.4336V233H82.8616V225.944H80.9296C77.2756 230.802 77.2756 231.054 77.2756 231.796H76.8976V225.944H75.4696V233H77.4156ZM92.4124 226.336V225.944H90.8164C89.8084 227.288 89.2204 228.072 89.2204 228.8H86.7004V225.944H85.2724V233H86.7004V230.144H89.2204C89.2204 230.872 89.8084 231.656 90.8164 233H92.4124V232.608L90.0464 229.472L92.4124 226.336ZM95.3214 229.472C95.3214 227.12 95.3214 227.05 97.5054 227.05C99.6894 227.05 99.6894 227.12 99.6894 229.472C99.6894 231.824 99.6894 231.894 97.5054 231.894C95.3214 231.894 95.3214 231.824 95.3214 229.472ZM93.8094 229.808C93.8094 231.152 93.8094 233.168 97.1694 233.168H97.8414C101.201 233.168 101.201 231.152 101.201 229.808V229.136C101.201 227.792 101.201 225.776 97.8414 225.776H97.1694C93.8094 225.776 93.8094 227.792 93.8094 229.136V229.808ZM103.278 233H106.54C108.22 233 109.914 233 109.914 231.236C109.914 230.648 109.774 229.892 108.43 229.556V229.388C109.774 229.052 109.774 228.296 109.774 227.708C109.774 225.944 108.22 225.944 106.54 225.944H103.278V233ZM107.058 229.976C108.304 229.976 108.318 229.976 108.318 230.9C108.318 231.81 108.318 231.824 107.058 231.824H104.706V229.976H107.058ZM106.918 227.12C108.164 227.12 108.178 227.12 108.178 228.044C108.178 228.954 108.178 228.968 106.918 228.968H104.706V227.12H106.918Z" fill="black"/>
<g filter="url(#filter4_d)">
<path d="M188 253C188 248.582 191.582 245 196 245H300C304.418 245 308 248.582 308 253V309.367C308 313.785 304.418 317.367 300 317.367H218.468C217.194 317.367 215.939 317.671 214.807 318.253L201.698 325L201.717 324.482C201.862 320.596 198.75 317.367 194.861 317.367C191.072 317.367 188 314.295 188 310.506V253Z" fill="white"/>
</g>
<path d="M198.394 301.151V302.831H202.426V301.151H198.394ZM207.439 301.935C208.639 301.935 208.639 301.935 208.639 303.311C208.639 304.799 208.639 304.799 206.815 304.799H206.095L204.175 304.319H203.599V306.351C205.647 306.863 206.623 306.863 207.151 306.863C210.991 306.863 210.991 304.367 210.991 303.455V302.975C210.991 300.431 209.167 300.431 208.655 300.431H208.367V300.063L209.295 299.375C210.703 298.319 210.703 298.319 210.703 297.071V295.247H203.599V298.527H205.423V297.167H208.591V297.919L205.167 300.479L206.479 302.239C206.895 301.935 207.247 301.935 207.439 301.935ZM213.424 309.007V309.263H214.512C215.184 308.351 215.904 307.151 215.904 305.903V305.615C215.904 305.231 215.904 303.983 214.272 303.983H213.792C212.688 303.983 212.688 304.655 212.688 305.039V305.519C212.688 305.903 212.688 306.575 213.792 306.575H213.936V306.959L213.424 309.007ZM224.852 302.735C224.852 301.535 224.852 299.215 222.02 299.215C221.684 299.215 221.108 299.215 219.524 299.599V297.263H224.372V295.247H217.652V301.679L219.748 302.191C220.068 301.007 220.068 301.007 221.252 301.007C222.5 301.007 222.5 301.007 222.5 302.927C222.5 304.799 222.5 304.799 220.532 304.799H219.956L218.036 304.319H217.46V306.351C219.508 306.863 220.388 306.863 220.916 306.863C224.852 306.863 224.852 304.511 224.852 303.119V302.735ZM227.557 303.439C226.981 304.207 226.357 305.039 226.357 306.207V306.575H228.661V305.535C228.661 304.303 228.661 304.383 229.717 302.927L233.125 298.383C233.685 297.631 234.325 296.783 234.325 295.615V295.247H232.021V296.287C232.021 297.503 232.021 297.503 230.965 298.895L227.557 303.439ZM230.053 297.455C230.053 295.183 228.565 295.183 228.037 295.183H227.845C227.317 295.183 225.829 295.183 225.829 297.455V297.935C225.829 300.207 227.317 300.207 227.845 300.207H228.037C228.565 300.207 230.053 300.207 230.053 297.935V297.455ZM227.461 297.551C227.461 296.495 227.461 296.495 227.941 296.495C228.421 296.495 228.421 296.495 228.421 297.551V297.839C228.421 298.895 228.421 298.895 227.941 298.895C227.461 298.895 227.461 298.895 227.461 297.839V297.551ZM234.853 303.887C234.853 301.615 233.365 301.615 232.837 301.615H232.645C232.117 301.615 230.629 301.615 230.629 303.887V304.367C230.629 306.639 232.117 306.639 232.645 306.639H232.837C233.365 306.639 234.853 306.639 234.853 304.367V303.887ZM232.261 303.983C232.261 302.927 232.261 302.927 232.741 302.927C233.221 302.927 233.221 302.927 233.221 303.983V304.271C233.221 305.327 233.221 305.327 232.741 305.327C232.261 305.327 232.261 305.327 232.261 304.271V303.983Z" fill="#E21A1A"/>
<path d="M241.348 308.879H242.692V292.943H241.348V308.879Z" fill="#CBCDD5"/>
<path d="M250.568 299.117V301.427H256.112V299.117H250.568ZM257.724 290.999V295.487H260.232V293.639H264.852V295.575L261.882 299.535C260.43 301.471 260.43 302.747 260.43 305.519V306.575H263.73V305.519C263.73 301.779 263.73 301.779 264.588 300.657L266.568 298.083C267.756 296.543 267.756 296.081 267.756 293.705V290.999H257.724ZM271.234 309.919V310.271H272.73C273.654 309.017 274.644 307.367 274.644 305.651V305.255C274.644 304.727 274.644 303.011 272.4 303.011H271.74C270.222 303.011 270.222 303.935 270.222 304.463V305.123C270.222 305.651 270.222 306.575 271.74 306.575H271.938V307.103L271.234 309.919ZM282.79 303.671V306.575H285.76V303.671H287.41V301.097H285.76V296.939H284.902L282.79 297.467V301.097H279.49V300.481L281.602 296.257C283.076 293.309 283.34 292.781 283.34 291.527V290.999H279.974V291.263C279.974 293.199 279.974 293.199 277.84 297.467L276.454 300.239V303.671H282.79ZM290.667 302.263C289.875 303.319 289.017 304.463 289.017 306.069V306.575H292.185V305.145C292.185 303.451 292.185 303.561 293.637 301.559L298.323 295.311C299.093 294.277 299.973 293.111 299.973 291.505V290.999H296.805V292.429C296.805 294.101 296.805 294.101 295.353 296.015L290.667 302.263ZM294.099 294.035C294.099 290.911 292.053 290.911 291.327 290.911H291.063C290.337 290.911 288.291 290.911 288.291 294.035V294.695C288.291 297.819 290.337 297.819 291.063 297.819H291.327C292.053 297.819 294.099 297.819 294.099 294.695V294.035ZM290.535 294.167C290.535 292.715 290.535 292.715 291.195 292.715C291.855 292.715 291.855 292.715 291.855 294.167V294.563C291.855 296.015 291.855 296.015 291.195 296.015C290.535 296.015 290.535 296.015 290.535 294.563V294.167ZM300.699 302.879C300.699 299.755 298.653 299.755 297.927 299.755H297.663C296.937 299.755 294.891 299.755 294.891 302.879V303.539C294.891 306.663 296.937 306.663 297.663 306.663H297.927C298.653 306.663 300.699 306.663 300.699 303.539V302.879ZM297.135 303.011C297.135 301.559 297.135 301.559 297.795 301.559C298.455 301.559 298.455 301.559 298.455 303.011V303.407C298.455 304.859 298.455 304.859 297.795 304.859C297.135 304.859 297.135 304.859 297.135 303.407V303.011Z" fill="#7A4FF4"/>
<path d="M204.496 261.576C206.008 261.576 206.008 261.646 206.008 263.116C206.008 264.586 206.008 264.656 204.496 264.656H200.968V261.576H204.496ZM204.356 257.432C205.868 257.432 205.868 257.446 205.868 258.832C205.868 260.218 205.868 260.232 204.356 260.232H200.968V257.432H204.356ZM203.404 266C206.008 266 207.688 265.93 207.688 263.242C207.688 262.906 207.548 261.352 206.316 261.044V260.764C207.548 260.456 207.548 259.042 207.548 258.706C207.548 256.102 205.868 256.088 203.264 256.088H199.456V266H203.404ZM217.746 258.944V266H219.174V258.944H217.746ZM210.018 266H213.042C214.806 266 216.318 266 216.318 263.648C216.318 262.808 216.318 261.128 213.378 261.128C212.79 261.128 212.118 261.212 211.446 261.38V258.944H210.018V266ZM213.21 262.472C214.806 262.472 214.806 262.472 214.806 263.648C214.806 264.824 214.806 264.824 213.21 264.824H211.446V262.472H213.21ZM226.289 257.768C227.045 257.586 227.787 257.39 228.053 256.34L228.137 256.004L226.793 255.668C226.625 256.172 226.639 256.172 225.953 256.34L224.273 256.76C221.417 257.474 221.417 259.364 221.417 261.548V262.094C221.417 264.446 221.417 266.168 224.861 266.168H225.533C228.893 266.168 228.893 264.488 228.893 263.228V262.472C228.893 261.212 228.893 259.532 225.869 259.532C223.853 259.532 223.181 259.994 222.873 260.372L222.621 260.288C223.041 258.608 223.041 258.58 224.609 258.188L226.289 257.768ZM225.197 260.778C227.381 260.778 227.381 261.086 227.381 262.85C227.381 264.614 227.381 264.922 225.085 264.922C223.013 264.922 223.013 264.614 223.013 262.85C223.013 261.086 223.013 260.778 225.197 260.778ZM230.882 258.944V268.856H232.31V265.832C232.982 266 233.654 266.168 234.914 266.168C238.106 266.168 238.106 263.984 238.106 262.808V262.136C238.106 260.792 238.106 258.776 235.082 258.776C233.402 258.776 232.478 259.476 232.142 259.728L231.554 258.944H230.882ZM236.594 262.472C236.594 264.81 236.594 264.824 234.326 264.824C233.822 264.824 232.982 264.824 232.31 264.656V260.624L234.326 260.12H234.564C236.594 260.12 236.594 260.204 236.594 262.472ZM241.355 262.472C241.355 260.12 241.355 260.05 243.539 260.05C245.723 260.05 245.723 260.12 245.723 262.472C245.723 264.824 245.723 264.894 243.539 264.894C241.355 264.894 241.355 264.824 241.355 262.472ZM239.843 262.808C239.843 264.152 239.843 266.168 243.203 266.168H243.875C247.235 266.168 247.235 264.152 247.235 262.808V262.136C247.235 260.792 247.235 258.776 243.875 258.776H243.203C239.843 258.776 239.843 260.792 239.843 262.136V262.808ZM252.419 266.168C252.923 266.168 254.015 266.168 255.359 265.832V264.488H255.023L253.665 264.824H252.923C250.487 264.824 250.487 264.824 250.487 262.472C250.487 260.12 250.487 260.12 252.419 260.12C254.015 260.12 254.015 260.12 254.351 261.464L255.695 261.128C255.695 260.456 255.695 258.776 252.755 258.776H252.083C248.975 258.776 248.975 260.624 248.975 262.136V262.808C248.975 264.32 248.975 266.168 252.419 266.168ZM265.325 258.944V266H266.753V258.944H265.325ZM257.597 266H260.621C262.385 266 263.897 266 263.897 263.648C263.897 262.808 263.897 261.128 260.957 261.128C260.369 261.128 259.697 261.212 259.025 261.38V258.944H257.597V266ZM260.789 262.472C262.385 262.472 262.385 262.472 262.385 263.648C262.385 264.824 262.385 264.824 260.789 264.824H259.025V262.472H260.789ZM274.4 262.472C274.4 260.12 274.4 260.05 276.584 260.05C278.768 260.05 278.768 260.12 278.768 262.472C278.768 264.824 278.768 264.894 276.584 264.894C274.4 264.894 274.4 264.824 274.4 262.472ZM272.888 262.808C272.888 264.152 272.888 266.168 276.248 266.168H276.92C280.28 266.168 280.28 264.152 280.28 262.808V262.136C280.28 260.792 280.28 258.776 276.92 258.776H276.248C272.888 258.776 272.888 260.792 272.888 262.136V262.808ZM288.698 258.944H281.642V260.176H284.428V266H285.912V260.176H288.698V258.944ZM204.51 277.19V283H205.938V275.944H200.24C200.198 277.4 200.114 278.604 199.862 280.424C199.694 281.642 199.554 281.88 198.35 281.88V283.028C200.618 283.028 200.856 282.762 201.136 280.676C201.346 279.136 201.444 278.058 201.472 277.19H204.51ZM209.526 279.472C209.526 277.12 209.526 277.05 211.71 277.05C213.894 277.05 213.894 277.12 213.894 279.472C213.894 281.824 213.894 281.894 211.71 281.894C209.526 281.894 209.526 281.824 209.526 279.472ZM208.014 279.808C208.014 281.152 208.014 283.168 211.374 283.168H212.046C215.406 283.168 215.406 281.152 215.406 279.808V279.136C215.406 277.792 215.406 275.776 212.046 275.776H211.374C208.014 275.776 208.014 277.792 208.014 279.136V279.808ZM224.623 276.336V275.944H223.027C222.019 277.288 221.431 278.072 221.431 278.8H218.911V275.944H217.483V283H218.911V280.144H221.431C221.431 280.872 222.019 281.656 223.027 283H224.623V282.608L222.257 279.472L224.623 276.336ZM227.532 279.472C227.532 277.12 227.532 277.05 229.716 277.05C231.9 277.05 231.9 277.12 231.9 279.472C231.9 281.824 231.9 281.894 229.716 281.894C227.532 281.894 227.532 281.824 227.532 279.472ZM226.02 279.808C226.02 281.152 226.02 283.168 229.38 283.168H230.052C233.412 283.168 233.412 281.152 233.412 279.808V279.136C233.412 277.792 233.412 275.776 230.052 275.776H229.38C226.02 275.776 226.02 277.792 226.02 279.136V279.808ZM235.489 275.944V283H236.917V277.204H237.281C237.281 277.54 237.281 277.54 239.465 283H241.341C243.525 277.54 243.525 277.54 243.525 277.12H243.889V283H245.317V275.944H242.769C240.585 281.194 240.585 281.194 240.585 281.824H240.221C240.221 281.194 240.221 281.194 238.037 275.944H235.489ZM248.901 279.472C248.901 277.12 248.901 277.05 251.085 277.05C253.269 277.05 253.269 277.12 253.269 279.472C253.269 281.824 253.269 281.894 251.085 281.894C248.901 281.894 248.901 281.824 248.901 279.472ZM247.389 279.808C247.389 281.152 247.389 283.168 250.749 283.168H251.421C254.781 283.168 254.781 281.152 254.781 279.808V279.136C254.781 277.792 254.781 275.776 251.421 275.776H250.749C247.389 275.776 247.389 277.792 247.389 279.136V279.808ZM263.2 275.944H256.144V277.176H258.93V283H260.414V277.176H263.2V275.944ZM266.843 283C270.497 278.142 270.497 277.89 270.497 277.148H270.861V283H272.289V275.944H270.357C266.703 280.802 266.703 281.054 266.703 281.796H266.325V275.944H264.897V283H266.843ZM274.7 283H277.962C279.642 283 281.336 283 281.336 281.236C281.336 280.648 281.196 279.892 279.852 279.556V279.388C281.196 279.052 281.196 278.296 281.196 277.708C281.196 275.944 279.642 275.944 277.962 275.944H274.7V283ZM278.48 279.976C279.726 279.976 279.74 279.976 279.74 280.9C279.74 281.81 279.74 281.824 278.48 281.824H276.128V279.976H278.48ZM278.34 277.12C279.586 277.12 279.6 277.12 279.6 278.044C279.6 278.954 279.6 278.968 278.34 278.968H276.128V277.12H278.34ZM284.585 279.472C284.585 277.12 284.585 277.05 286.769 277.05C288.953 277.05 288.953 277.12 288.953 279.472C288.953 281.824 288.953 281.894 286.769 281.894C284.585 281.894 284.585 281.824 284.585 279.472ZM283.073 279.808C283.073 281.152 283.073 283.168 286.433 283.168H287.105C290.465 283.168 290.465 281.152 290.465 279.808V279.136C290.465 277.792 290.465 275.776 287.105 275.776H286.433C283.073 275.776 283.073 277.792 283.073 279.136V279.808ZM292.542 283H295.804C297.484 283 299.178 283 299.178 281.236C299.178 280.648 299.038 279.892 297.694 279.556V279.388C299.038 279.052 299.038 278.296 299.038 277.708C299.038 275.944 297.484 275.944 295.804 275.944H292.542V283ZM296.322 279.976C297.568 279.976 297.582 279.976 297.582 280.9C297.582 281.81 297.582 281.824 296.322 281.824H293.97V279.976H296.322ZM296.182 277.12C297.428 277.12 297.442 277.12 297.442 278.044C297.442 278.954 297.442 278.968 296.182 278.968H293.97V277.12H296.182Z" fill="black"/>
<rect x="322" y="459" width="62" height="347" transform="rotate(-180 322 459)" fill="url(#paint0_linear)"/>
<defs>
<filter id="filter0_d" x="46" y="0" width="187" height="112" filterUnits="userSpaceOnUse" color-interpolation-filters="sRGB">
<feFlood flood-opacity="0" result="BackgroundImageFix"/>
<feColorMatrix in="SourceAlpha" type="matrix" values="0 0 0 0 0 0 0 0 0 0 0 0 0 0 0 0 0 0 127 0"/>
<feOffset dy="-4"/>
<feGaussianBlur stdDeviation="7"/>
<feColorMatrix type="matrix" values="0 0 0 0 0.741176 0 0 0 0 0.756863 0 0 0 0 0.815686 0 0 0 0.3 0"/>
<feBlend mode="normal" in2="BackgroundImageFix" result="effect1_dropShadow"/>
<feBlend mode="normal" in="SourceGraphic" in2="effect1_dropShadow" result="shape"/>
</filter>
<filter id="filter1_d" x="46" y="102" width="138" height="90" filterUnits="userSpaceOnUse" color-interpolation-filters="sRGB">
<feFlood flood-opacity="0" result="BackgroundImageFix"/>
<feColorMatrix in="SourceAlpha" type="matrix" values="0 0 0 0 0 0 0 0 0 0 0 0 0 0 0 0 0 0 127 0"/>
<feOffset dy="-4"/>
<feGaussianBlur stdDeviation="7"/>
<feColorMatrix type="matrix" values="0 0 0 0 0.741176 0 0 0 0 0.756863 0 0 0 0 0.815686 0 0 0 0.3 0"/>
<feBlend mode="normal" in2="BackgroundImageFix" result="effect1_dropShadow"/>
<feBlend mode="normal" in="SourceGraphic" in2="effect1_dropShadow" result="shape"/>
</filter>
<filter id="filter2_d" x="163" y="67" width="158" height="125" filterUnits="userSpaceOnUse" color-interpolation-filters="sRGB">
<feFlood flood-opacity="0" result="BackgroundImageFix"/>
<feColorMatrix in="SourceAlpha" type="matrix" values="0 0 0 0 0 0 0 0 0 0 0 0 0 0 0 0 0 0 127 0"/>
<feOffset dy="-4"/>
<feGaussianBlur stdDeviation="7"/>
<feColorMatrix type="matrix" values="0 0 0 0 0.741176 0 0 0 0 0.756863 0 0 0 0 0.815686 0 0 0 0.3 0"/>
<feBlend mode="normal" in2="BackgroundImageFix" result="effect1_dropShadow"/>
<feBlend mode="normal" in="SourceGraphic" in2="effect1_dropShadow" result="shape"/>
</filter>
<filter id="filter3_d" x="0.0925293" y="161.414" width="152.494" height="122.861" filterUnits="userSpaceOnUse" color-interpolation-filters="sRGB">
<feFlood flood-opacity="0" result="BackgroundImageFix"/>
<feColorMatrix in="SourceAlpha" type="matrix" values="0 0 0 0 0 0 0 0 0 0 0 0 0 0 0 0 0 0 127 0"/>
<feOffset dy="-4"/>
<feGaussianBlur stdDeviation="7"/>
<feColorMatrix type="matrix" values="0 0 0 0 0.741176 0 0 0 0 0.756863 0 0 0 0 0.815686 0 0 0 0.3 0"/>
<feBlend mode="normal" in2="BackgroundImageFix" result="effect1_dropShadow"/>
<feBlend mode="normal" in="SourceGraphic" in2="effect1_dropShadow" result="shape"/>
</filter>
<filter id="filter4_d" x="174" y="227" width="148" height="108" filterUnits="userSpaceOnUse" color-interpolation-filters="sRGB">
<feFlood flood-opacity="0" result="BackgroundImageFix"/>
<feColorMatrix in="SourceAlpha" type="matrix" values="0 0 0 0 0 0 0 0 0 0 0 0 0 0 0 0 0 0 127 0"/>
<feOffset dy="-4"/>
<feGaussianBlur stdDeviation="7"/>
<feColorMatrix type="matrix" values="0 0 0 0 0.741176 0 0 0 0 0.756863 0 0 0 0 0.815686 0 0 0 0.3 0"/>
<feBlend mode="normal" in2="BackgroundImageFix" result="effect1_dropShadow"/>
<feBlend mode="normal" in="SourceGraphic" in2="effect1_dropShadow" result="shape"/>
</filter>
<linearGradient id="paint0_linear" x1="322" y1="580.758" x2="384" y2="580.758" gradientUnits="userSpaceOnUse">
<stop offset="0.137615" stop-color="white"/>
<stop offset="0.954439" stop-color="white" stop-opacity="0"/>
</linearGradient>
</defs>
</svg>
