<svg width="1152" height="620" viewBox="0 0 1152 620" fill="none" xmlns="http://www.w3.org/2000/svg">
<path d="M64.6677 178.205C66.8832 178.205 68.6792 176.409 68.6792 174.193C68.6792 171.978 66.8832 170.182 64.6677 170.182C62.4523 170.182 60.6562 171.978 60.6562 174.193C60.6562 176.409 62.4523 178.205 64.6677 178.205Z" fill="#E21A1A"/>
<path fill-rule="evenodd" clip-rule="evenodd" d="M64.6677 170.682C62.7284 170.682 61.1562 172.254 61.1562 174.193C61.1562 176.132 62.7284 177.705 64.6677 177.705C66.6071 177.705 68.1792 176.132 68.1792 174.193C68.1792 172.254 66.6071 170.682 64.6677 170.682ZM60.1562 174.193C60.1562 171.702 62.1761 169.682 64.6677 169.682C67.1594 169.682 69.1792 171.702 69.1792 174.193C69.1792 176.685 67.1594 178.705 64.6677 178.705C62.1761 178.705 60.1562 176.685 60.1562 174.193Z" fill="white"/>
<path d="M111.123 167.723C112.624 167.723 113.841 166.506 113.841 165.006C113.841 163.505 112.624 162.288 111.123 162.288C109.622 162.288 108.406 163.505 108.406 165.006C108.406 166.506 109.622 167.723 111.123 167.723Z" fill="#E21A1A"/>
<path fill-rule="evenodd" clip-rule="evenodd" d="M111.123 162.788C109.899 162.788 108.906 163.781 108.906 165.006C108.906 166.23 109.899 167.223 111.123 167.223C112.348 167.223 113.341 166.23 113.341 165.006C113.341 163.781 112.348 162.788 111.123 162.788ZM107.906 165.006C107.906 163.229 109.346 161.788 111.123 161.788C112.9 161.788 114.341 163.229 114.341 165.006C114.341 166.782 112.9 168.223 111.123 168.223C109.346 168.223 107.906 166.782 107.906 165.006Z" fill="white"/>
<path d="M192 232.812C193.501 232.812 194.717 231.596 194.717 230.095C194.717 228.594 193.501 227.377 192 227.377C190.499 227.377 189.282 228.594 189.282 230.095C189.282 231.596 190.499 232.812 192 232.812Z" fill="#E21A1A"/>
<path fill-rule="evenodd" clip-rule="evenodd" d="M192 227.877C190.775 227.877 189.782 228.87 189.782 230.095C189.782 231.32 190.775 232.312 192 232.312C193.225 232.312 194.217 231.32 194.217 230.095C194.217 228.87 193.225 227.877 192 227.877ZM188.782 230.095C188.782 228.318 190.223 226.877 192 226.877C193.777 226.877 195.217 228.318 195.217 230.095C195.217 231.872 193.777 233.312 192 233.312C190.223 233.312 188.782 231.872 188.782 230.095Z" fill="white"/>
<path d="M238.714 281.597C240.215 281.597 241.432 280.38 241.432 278.88C241.432 277.379 240.215 276.162 238.714 276.162C237.213 276.162 235.997 277.379 235.997 278.88C235.997 280.38 237.213 281.597 238.714 281.597Z" fill="#E21A1A"/>
<path fill-rule="evenodd" clip-rule="evenodd" d="M238.714 276.662C237.49 276.662 236.497 277.655 236.497 278.88C236.497 280.104 237.49 281.097 238.714 281.097C239.939 281.097 240.932 280.104 240.932 278.88C240.932 277.655 239.939 276.662 238.714 276.662ZM235.497 278.88C235.497 277.103 236.937 275.662 238.714 275.662C240.491 275.662 241.932 277.103 241.932 278.88C241.932 280.657 240.491 282.097 238.714 282.097C236.937 282.097 235.497 280.657 235.497 278.88Z" fill="white"/>
<path d="M263.172 317.571C264.672 317.571 265.889 316.355 265.889 314.854C265.889 313.353 264.672 312.136 263.172 312.136C261.671 312.136 260.454 313.353 260.454 314.854C260.454 316.355 261.671 317.571 263.172 317.571Z" fill="#E21A1A"/>
<path fill-rule="evenodd" clip-rule="evenodd" d="M263.172 312.636C261.947 312.636 260.954 313.629 260.954 314.854C260.954 316.079 261.947 317.071 263.172 317.071C264.396 317.071 265.389 316.079 265.389 314.854C265.389 313.629 264.396 312.636 263.172 312.636ZM259.954 314.854C259.954 313.077 261.395 311.636 263.172 311.636C264.949 311.636 266.389 313.077 266.389 314.854C266.389 316.631 264.949 318.071 263.172 318.071C261.395 318.071 259.954 316.631 259.954 314.854Z" fill="white"/>
<path d="M305.874 341.77C307.375 341.77 308.592 340.553 308.592 339.052C308.592 337.551 307.375 336.335 305.874 336.335C304.374 336.335 303.157 337.551 303.157 339.052C303.157 340.553 304.374 341.77 305.874 341.77Z" fill="#E21A1A"/>
<path fill-rule="evenodd" clip-rule="evenodd" d="M305.874 336.835C304.65 336.835 303.657 337.828 303.657 339.052C303.657 340.277 304.65 341.27 305.874 341.27C307.099 341.27 308.092 340.277 308.092 339.052C308.092 337.828 307.099 336.835 305.874 336.835ZM302.657 339.052C302.657 337.275 304.097 335.835 305.874 335.835C307.651 335.835 309.092 337.275 309.092 339.052C309.092 340.829 307.651 342.27 305.874 342.27C304.098 342.27 302.657 340.829 302.657 339.052Z" fill="white"/>
<path d="M363.2 409.318C364.701 409.318 365.917 408.101 365.917 406.601C365.917 405.1 364.701 403.883 363.2 403.883C361.699 403.883 360.482 405.1 360.482 406.601C360.482 408.101 361.699 409.318 363.2 409.318Z" fill="#E21A1A"/>
<path fill-rule="evenodd" clip-rule="evenodd" d="M363.2 404.383C361.975 404.383 360.982 405.376 360.982 406.601C360.982 407.825 361.975 408.818 363.2 408.818C364.425 408.818 365.417 407.825 365.417 406.601C365.417 405.376 364.425 404.383 363.2 404.383ZM359.982 406.601C359.982 404.824 361.423 403.383 363.2 403.383C364.977 403.383 366.417 404.824 366.417 406.601C366.417 408.377 364.977 409.818 363.2 409.818C361.423 409.818 359.982 408.377 359.982 406.601Z" fill="white"/>
<path d="M566.621 441.151C568.122 441.151 569.338 439.934 569.338 438.434C569.338 436.933 568.122 435.716 566.621 435.716C565.12 435.716 563.903 436.933 563.903 438.434C563.903 439.934 565.12 441.151 566.621 441.151Z" fill="#E21A1A"/>
<path fill-rule="evenodd" clip-rule="evenodd" d="M566.621 436.216C565.396 436.216 564.403 437.209 564.403 438.434C564.403 439.658 565.396 440.651 566.621 440.651C567.845 440.651 568.838 439.658 568.838 438.434C568.838 437.209 567.845 436.216 566.621 436.216ZM563.403 438.434C563.403 436.657 564.844 435.216 566.621 435.216C568.398 435.216 569.838 436.657 569.838 438.434C569.838 440.21 568.398 441.651 566.621 441.651C564.844 441.651 563.403 440.21 563.403 438.434Z" fill="white"/>
<path d="M742.609 518.792C744.109 518.792 745.326 517.576 745.326 516.075C745.326 514.574 744.109 513.357 742.609 513.357C741.108 513.357 739.891 514.574 739.891 516.075C739.891 517.576 741.108 518.792 742.609 518.792Z" fill="#E21A1A"/>
<path fill-rule="evenodd" clip-rule="evenodd" d="M742.609 513.857C741.384 513.857 740.391 514.85 740.391 516.075C740.391 517.299 741.384 518.292 742.609 518.292C743.833 518.292 744.826 517.3 744.826 516.075C744.826 514.85 743.833 513.857 742.609 513.857ZM739.391 516.075C739.391 514.298 740.832 512.857 742.609 512.857C744.386 512.857 745.826 514.298 745.826 516.075C745.826 517.852 744.386 519.292 742.609 519.292C740.832 519.292 739.391 517.852 739.391 516.075Z" fill="white"/>
<path d="M807.31 503.653C808.811 503.653 810.027 502.436 810.027 500.935C810.027 499.434 808.811 498.218 807.31 498.218C805.809 498.218 804.592 499.434 804.592 500.935C804.592 502.436 805.809 503.653 807.31 503.653Z" fill="#E21A1A"/>
<path fill-rule="evenodd" clip-rule="evenodd" d="M807.31 498.718C806.085 498.718 805.092 499.711 805.092 500.935C805.092 502.16 806.085 503.153 807.31 503.153C808.534 503.153 809.527 502.16 809.527 500.935C809.527 499.711 808.534 498.718 807.31 498.718ZM804.092 500.935C804.092 499.158 805.533 497.718 807.31 497.718C809.087 497.718 810.527 499.158 810.527 500.935C810.527 502.712 809.087 504.153 807.31 504.153C805.533 504.153 804.092 502.712 804.092 500.935Z" fill="white"/>
<path d="M983.945 475.442C985.445 475.442 986.662 474.226 986.662 472.725C986.662 471.224 985.445 470.008 983.945 470.008C982.444 470.008 981.227 471.224 981.227 472.725C981.227 474.226 982.444 475.442 983.945 475.442Z" fill="#E21A1A"/>
<path fill-rule="evenodd" clip-rule="evenodd" d="M983.945 470.508C982.72 470.508 981.727 471.5 981.727 472.725C981.727 473.95 982.72 474.942 983.945 474.942C985.169 474.942 986.162 473.95 986.162 472.725C986.162 471.5 985.169 470.508 983.945 470.508ZM980.727 472.725C980.727 470.948 982.168 469.508 983.945 469.508C985.722 469.508 987.162 470.948 987.162 472.725C987.162 474.502 985.722 475.942 983.945 475.942C982.168 475.942 980.727 474.502 980.727 472.725Z" fill="white"/>
<path d="M1077.37 480.36C1078.87 480.36 1080.09 479.143 1080.09 477.642C1080.09 476.142 1078.87 474.925 1077.37 474.925C1075.87 474.925 1074.66 476.142 1074.66 477.642C1074.66 479.143 1075.87 480.36 1077.37 480.36Z" fill="#E21A1A"/>
<path fill-rule="evenodd" clip-rule="evenodd" d="M1077.37 475.425C1076.15 475.425 1075.16 476.418 1075.16 477.642C1075.16 478.867 1076.15 479.86 1077.37 479.86C1078.6 479.86 1079.59 478.867 1079.59 477.642C1079.59 476.418 1078.6 475.425 1077.37 475.425ZM1074.16 477.642C1074.16 475.866 1075.6 474.425 1077.37 474.425C1079.15 474.425 1080.59 475.866 1080.59 477.642C1080.59 479.419 1079.15 480.86 1077.37 480.86C1075.6 480.86 1074.16 479.419 1074.16 477.642Z" fill="white"/>
<path d="M1086.43 572.883C1087.93 572.883 1089.15 571.666 1089.15 570.165C1089.15 568.664 1087.93 567.448 1086.43 567.448C1084.93 567.448 1083.71 568.664 1083.71 570.165C1083.71 571.666 1084.93 572.883 1086.43 572.883Z" fill="#E21A1A"/>
<path fill-rule="evenodd" clip-rule="evenodd" d="M1086.43 567.948C1085.21 567.948 1084.21 568.941 1084.21 570.165C1084.21 571.39 1085.21 572.383 1086.43 572.383C1087.66 572.383 1088.65 571.39 1088.65 570.165C1088.65 568.941 1087.66 567.948 1086.43 567.948ZM1083.21 570.165C1083.21 568.388 1084.65 566.948 1086.43 566.948C1088.21 566.948 1089.65 568.388 1089.65 570.165C1089.65 571.942 1088.21 573.383 1086.43 573.383C1084.65 573.383 1083.21 571.942 1083.21 570.165Z" fill="white"/>
<path d="M1089.67 587.117C1091.17 587.117 1092.38 585.9 1092.38 584.4C1092.38 582.899 1091.17 581.682 1089.67 581.682C1088.17 581.682 1086.95 582.899 1086.95 584.4C1086.95 585.9 1088.17 587.117 1089.67 587.117Z" fill="#E21A1A"/>
<path fill-rule="evenodd" clip-rule="evenodd" d="M1089.67 582.182C1088.44 582.182 1087.45 583.175 1087.45 584.4C1087.45 585.624 1088.44 586.617 1089.67 586.617C1090.89 586.617 1091.88 585.624 1091.88 584.4C1091.88 583.175 1090.89 582.182 1089.67 582.182ZM1086.45 584.4C1086.45 582.623 1087.89 581.182 1089.67 581.182C1091.44 581.182 1092.88 582.623 1092.88 584.4C1092.88 586.177 1091.44 587.617 1089.67 587.617C1087.89 587.617 1086.45 586.176 1086.45 584.4Z" fill="white"/>
<path d="M910.444 438.951C911.945 438.951 913.161 437.734 913.161 436.234C913.161 434.733 911.945 433.516 910.444 433.516C908.943 433.516 907.727 434.733 907.727 436.234C907.727 437.734 908.943 438.951 910.444 438.951Z" fill="#E21A1A"/>
<path fill-rule="evenodd" clip-rule="evenodd" d="M910.444 434.016C909.219 434.016 908.227 435.009 908.227 436.234C908.227 437.458 909.219 438.451 910.444 438.451C911.669 438.451 912.661 437.458 912.661 436.234C912.661 435.009 911.669 434.016 910.444 434.016ZM907.227 436.234C907.227 434.457 908.667 433.016 910.444 433.016C912.221 433.016 913.661 434.457 913.661 436.234C913.661 438.011 912.221 439.451 910.444 439.451C908.667 439.451 907.227 438.01 907.227 436.234Z" fill="white"/>
<path d="M696.282 517.498C697.783 517.498 699 516.282 699 514.781C699 513.28 697.783 512.063 696.282 512.063C694.782 512.063 693.565 513.28 693.565 514.781C693.565 516.282 694.782 517.498 696.282 517.498Z" fill="#E21A1A"/>
<path fill-rule="evenodd" clip-rule="evenodd" d="M696.282 512.563C695.058 512.563 694.065 513.556 694.065 514.781C694.065 516.006 695.058 516.998 696.282 516.998C697.507 516.998 698.5 516.006 698.5 514.781C698.5 513.556 697.507 512.563 696.282 512.563ZM693.065 514.781C693.065 513.004 694.505 511.563 696.282 511.563C698.059 511.563 699.5 513.004 699.5 514.781C699.5 516.558 698.059 517.998 696.282 517.998C694.505 517.998 693.065 516.558 693.065 514.781Z" fill="white"/>
<path d="M627.44 446.974C628.941 446.974 630.158 445.758 630.158 444.257C630.158 442.756 628.941 441.539 627.44 441.539C625.939 441.539 624.723 442.756 624.723 444.257C624.723 445.758 625.939 446.974 627.44 446.974Z" fill="#E21A1A"/>
<path fill-rule="evenodd" clip-rule="evenodd" d="M627.44 442.039C626.215 442.039 625.223 443.032 625.223 444.257C625.223 445.481 626.215 446.474 627.44 446.474C628.665 446.474 629.658 445.481 629.658 444.257C629.658 443.032 628.665 442.039 627.44 442.039ZM624.223 444.257C624.223 442.48 625.663 441.039 627.44 441.039C629.217 441.039 630.658 442.48 630.658 444.257C630.658 446.034 629.217 447.474 627.44 447.474C625.663 447.474 624.223 446.034 624.223 444.257Z" fill="white"/>
<path d="M664.579 446.068C666.08 446.068 667.296 444.851 667.296 443.35C667.296 441.85 666.08 440.633 664.579 440.633C663.078 440.633 661.861 441.85 661.861 443.35C661.861 444.851 663.078 446.068 664.579 446.068Z" fill="#696872"/>
<path fill-rule="evenodd" clip-rule="evenodd" d="M664.579 441.133C663.354 441.133 662.361 442.126 662.361 443.35C662.361 444.575 663.354 445.568 664.579 445.568C665.803 445.568 666.796 444.575 666.796 443.35C666.796 442.126 665.803 441.133 664.579 441.133ZM661.361 443.35C661.361 441.574 662.802 440.133 664.579 440.133C666.356 440.133 667.796 441.574 667.796 443.35C667.796 445.127 666.356 446.568 664.579 446.568C662.802 446.568 661.361 445.127 661.361 443.35Z" fill="white"/>
<path d="M719.963 431.187C721.464 431.187 722.681 429.97 722.681 428.469C722.681 426.969 721.464 425.752 719.963 425.752C718.462 425.752 717.246 426.969 717.246 428.469C717.246 429.97 718.462 431.187 719.963 431.187Z" fill="#696872"/>
<path fill-rule="evenodd" clip-rule="evenodd" d="M719.963 426.252C718.738 426.252 717.746 427.245 717.746 428.469C717.746 429.694 718.738 430.687 719.963 430.687C721.188 430.687 722.181 429.694 722.181 428.469C722.181 427.245 721.188 426.252 719.963 426.252ZM716.746 428.469C716.746 426.692 718.186 425.252 719.963 425.252C721.74 425.252 723.181 426.692 723.181 428.469C723.181 430.246 721.74 431.687 719.963 431.687C718.186 431.687 716.746 430.246 716.746 428.469Z" fill="white"/>
<path d="M901.127 386.543C902.627 386.543 903.844 385.326 903.844 383.826C903.844 382.325 902.627 381.108 901.127 381.108C899.626 381.108 898.409 382.325 898.409 383.826C898.409 385.326 899.626 386.543 901.127 386.543Z" fill="#696872"/>
<path fill-rule="evenodd" clip-rule="evenodd" d="M901.127 381.608C899.902 381.608 898.909 382.601 898.909 383.826C898.909 385.05 899.902 386.043 901.127 386.043C902.351 386.043 903.344 385.05 903.344 383.826C903.344 382.601 902.351 381.608 901.127 381.608ZM897.909 383.826C897.909 382.049 899.35 380.608 901.127 380.608C902.904 380.608 904.344 382.049 904.344 383.826C904.344 385.603 902.904 387.043 901.127 387.043C899.35 387.043 897.909 385.603 897.909 383.826Z" fill="white"/>
<path d="M1075.82 431.446C1077.32 431.446 1078.54 430.229 1078.54 428.728C1078.54 427.227 1077.32 426.011 1075.82 426.011C1074.32 426.011 1073.1 427.227 1073.1 428.728C1073.1 430.229 1074.32 431.446 1075.82 431.446Z" fill="#696872"/>
<path fill-rule="evenodd" clip-rule="evenodd" d="M1075.82 426.511C1074.6 426.511 1073.6 427.504 1073.6 428.728C1073.6 429.953 1074.6 430.946 1075.82 430.946C1077.05 430.946 1078.04 429.953 1078.04 428.728C1078.04 427.504 1077.05 426.511 1075.82 426.511ZM1072.6 428.728C1072.6 426.951 1074.04 425.511 1075.82 425.511C1077.6 425.511 1079.04 426.951 1079.04 428.728C1079.04 430.505 1077.6 431.946 1075.82 431.946C1074.04 431.946 1072.6 430.505 1072.6 428.728Z" fill="white"/>
<path d="M914.067 415.011C915.568 415.011 916.785 413.795 916.785 412.294C916.785 410.793 915.568 409.576 914.067 409.576C912.566 409.576 911.35 410.793 911.35 412.294C911.35 413.795 912.566 415.011 914.067 415.011Z" fill="#696872"/>
<path fill-rule="evenodd" clip-rule="evenodd" d="M914.067 410.076C912.842 410.076 911.85 411.069 911.85 412.294C911.85 413.519 912.842 414.511 914.067 414.511C915.292 414.511 916.285 413.519 916.285 412.294C916.285 411.069 915.292 410.076 914.067 410.076ZM910.85 412.294C910.85 410.517 912.29 409.076 914.067 409.076C915.844 409.076 917.285 410.517 917.285 412.294C917.285 414.071 915.844 415.511 914.067 415.511C912.29 415.511 910.85 414.071 910.85 412.294Z" fill="white"/>
<path d="M1126.29 435.974C1127.79 435.974 1129.01 434.758 1129.01 433.257C1129.01 431.756 1127.79 430.54 1126.29 430.54C1124.79 430.54 1123.57 431.756 1123.57 433.257C1123.57 434.758 1124.79 435.974 1126.29 435.974Z" fill="#696872"/>
<path fill-rule="evenodd" clip-rule="evenodd" d="M1126.29 431.04C1125.06 431.04 1124.07 432.032 1124.07 433.257C1124.07 434.482 1125.06 435.474 1126.29 435.474C1127.51 435.474 1128.51 434.482 1128.51 433.257C1128.51 432.032 1127.51 431.04 1126.29 431.04ZM1123.07 433.257C1123.07 431.48 1124.51 430.04 1126.29 430.04C1128.06 430.04 1129.51 431.48 1129.51 433.257C1129.51 435.034 1128.06 436.474 1126.29 436.474C1124.51 436.474 1123.07 435.034 1123.07 433.257Z" fill="white"/>
<path d="M463.746 443.61C465.247 443.61 466.463 442.393 466.463 440.892C466.463 439.391 465.247 438.175 463.746 438.175C462.245 438.175 461.028 439.391 461.028 440.892C461.028 442.393 462.245 443.61 463.746 443.61Z" fill="#E21A1A"/>
<path fill-rule="evenodd" clip-rule="evenodd" d="M463.746 438.675C462.521 438.675 461.528 439.668 461.528 440.892C461.528 442.117 462.521 443.11 463.746 443.11C464.97 443.11 465.963 442.117 465.963 440.892C465.963 439.668 464.97 438.675 463.746 438.675ZM460.528 440.892C460.528 439.115 461.969 437.675 463.746 437.675C465.523 437.675 466.963 439.115 466.963 440.892C466.963 442.669 465.523 444.11 463.746 444.11C461.969 444.11 460.528 442.669 460.528 440.892Z" fill="white"/>
<path d="M102.453 227.378C103.954 227.378 105.171 226.161 105.171 224.66C105.171 223.159 103.954 221.943 102.453 221.943C100.952 221.943 99.7358 223.159 99.7358 224.66C99.7358 226.161 100.952 227.378 102.453 227.378Z" fill="#E21A1A"/>
<path fill-rule="evenodd" clip-rule="evenodd" d="M102.453 222.443C101.229 222.443 100.236 223.435 100.236 224.66C100.236 225.885 101.229 226.878 102.453 226.878C103.678 226.878 104.671 225.885 104.671 224.66C104.671 223.435 103.678 222.443 102.453 222.443ZM99.2358 224.66C99.2358 222.883 100.676 221.443 102.453 221.443C104.23 221.443 105.671 222.883 105.671 224.66C105.671 226.437 104.23 227.878 102.453 227.878C100.676 227.878 99.2358 226.437 99.2358 224.66Z" fill="white"/>
<path d="M6 149V163.868H8.268V151.016H8.94C8.94 152.108 8.94 152.108 13.35 163.868H16.164C20.574 152.108 20.574 152.108 20.574 151.016H21.246V163.868H23.514V149H19.377C15.03 160.592 15.03 160.592 15.03 161.852H14.484C14.484 160.592 14.484 160.592 10.137 149H6Z" fill="#363636"/>
<path d="M29.2678 158.576C29.2678 155.048 29.2678 154.943 32.5438 154.943C35.8198 154.943 35.8198 155.048 35.8198 158.576C35.8198 162.104 35.8198 162.209 32.5438 162.209C29.2678 162.209 29.2678 162.104 29.2678 158.576ZM26.9998 159.08C26.9998 161.096 26.9998 164.12 32.0398 164.12H33.0478C38.0878 164.12 38.0878 161.096 38.0878 159.08V158.072C38.0878 156.056 38.0878 153.032 33.0478 153.032H32.0398C26.9998 153.032 26.9998 156.056 26.9998 158.072V159.08Z" fill="#363636"/>
<path d="M45.8651 164.12C46.6211 164.12 48.2591 164.12 50.2751 163.616V161.6H49.7711L47.7341 162.104H46.6211C42.9671 162.104 42.9671 162.104 42.9671 158.576C42.9671 155.048 42.9671 155.048 45.8651 155.048C48.2591 155.048 48.2591 155.048 48.7631 157.064L50.7791 156.56C50.7791 155.552 50.7791 153.032 46.3691 153.032H45.3611C40.6991 153.032 40.6991 155.804 40.6991 158.072V159.08C40.6991 161.348 40.6991 164.12 45.8651 164.12Z" fill="#363636"/>
<path d="M64.3408 153.872V153.284H61.9468C60.4348 155.3 59.5528 156.476 59.5528 157.568H55.7728V153.284H53.6308V163.868H55.7728V159.584H59.5528C59.5528 160.676 60.4348 161.852 61.9468 163.868H64.3408V163.28L60.7918 158.576L64.3408 153.872Z" fill="#363636"/>
<path d="M67.0634 163.868H71.9564C74.4764 163.868 77.0174 163.868 77.0174 161.222C77.0174 160.34 76.8074 159.206 74.7914 158.702V158.45C76.8074 157.946 76.8074 156.812 76.8074 155.93C76.8074 153.284 74.4764 153.284 71.9564 153.284H67.0634V163.868ZM72.7334 159.332C74.6024 159.332 74.6234 159.332 74.6234 160.718C74.6234 162.083 74.6234 162.104 72.7334 162.104H69.2054V159.332H72.7334ZM72.5234 155.048C74.3924 155.048 74.4134 155.048 74.4134 156.434C74.4134 157.799 74.4134 157.82 72.5234 157.82H69.2054V155.048H72.5234Z" fill="#363636"/>
<path d="M88.8629 164.12L90.4589 162.923C89.7029 161.915 89.7029 161.915 89.7029 159.836V158.072C89.7029 155.552 89.7029 153.032 84.7889 153.032C84.0329 153.032 82.3949 153.032 80.3789 153.536V155.552H80.8829L82.8989 155.048H84.7889C87.5609 155.048 87.5609 155.048 87.5609 157.694H84.7889C79.4969 157.694 79.4969 159.458 79.4969 161.096C79.4969 162.104 79.4969 164.12 83.2769 164.12C85.8809 164.12 87.2879 163.07 87.7919 162.692L88.8629 164.12ZM81.8909 160.844C81.8909 159.332 81.8909 159.332 84.7889 159.332H87.5609V161.348L84.5369 162.104H83.4029C81.8909 162.104 81.8909 162.104 81.8909 160.844Z" fill="#363636"/>
<path d="M119.054 148.696H115.13C112.538 148.696 112.538 148.696 112.538 146.212C112.538 143.728 112.538 143.728 115.13 143.728H119.054V148.696ZM110 154.096V154.744H112.16C113.456 153.016 114.266 151.936 114.266 150.424H119.054V154.744H120.998V142H116.858C112.538 142 110.378 142 110.378 146.212C110.378 148.642 111.026 149.128 112.754 150.424L110 154.096Z" fill="#363636"/>
<path d="M124.424 145.672V158.416H126.26V154.528C127.124 154.744 127.988 154.96 129.608 154.96C133.712 154.96 133.712 152.152 133.712 150.64V149.776C133.712 148.048 133.712 145.456 129.824 145.456C127.664 145.456 126.476 146.356 126.044 146.68L125.288 145.672H124.424ZM131.768 150.208C131.768 153.214 131.768 153.232 128.852 153.232C128.204 153.232 127.124 153.232 126.26 153.016V147.832L128.852 147.184H129.158C131.768 147.184 131.768 147.292 131.768 150.208Z" fill="#363636"/>
<path d="M137.889 150.208C137.889 147.184 137.889 147.094 140.697 147.094C143.505 147.094 143.505 147.184 143.505 150.208C143.505 153.232 143.505 153.322 140.697 153.322C137.889 153.322 137.889 153.232 137.889 150.208ZM135.945 150.64C135.945 152.368 135.945 154.96 140.265 154.96H141.129C145.449 154.96 145.449 152.368 145.449 150.64V149.776C145.449 148.048 145.449 145.456 141.129 145.456H140.265C135.945 145.456 135.945 148.048 135.945 149.776V150.64Z" fill="#363636"/>
<path d="M152.115 154.96C152.763 154.96 154.167 154.96 155.895 154.528V152.8H155.463L153.717 153.232H152.763C149.631 153.232 149.631 153.232 149.631 150.208C149.631 147.184 149.631 147.184 152.115 147.184C154.167 147.184 154.167 147.184 154.599 148.912L156.327 148.48C156.327 147.616 156.327 145.456 152.547 145.456H151.683C147.687 145.456 147.687 147.832 147.687 149.776V150.64C147.687 152.584 147.687 154.96 152.115 154.96Z" fill="#363636"/>
<path d="M165.593 147.274V154.744H167.429V145.672H160.103C160.049 147.544 159.941 149.092 159.617 151.432C159.401 152.998 159.221 153.304 157.673 153.304V154.78C160.589 154.78 160.895 154.438 161.255 151.756C161.525 149.776 161.651 148.39 161.687 147.274H165.593Z" fill="#363636"/>
<path d="M178.019 154.96L179.387 153.934C178.739 153.07 178.739 153.07 178.739 151.288V149.776C178.739 147.616 178.739 145.456 174.527 145.456C173.879 145.456 172.475 145.456 170.747 145.888V147.616H171.179L172.907 147.184H174.527C176.903 147.184 176.903 147.184 176.903 149.452H174.527C169.991 149.452 169.991 150.964 169.991 152.368C169.991 153.232 169.991 154.96 173.231 154.96C175.463 154.96 176.669 154.06 177.101 153.736L178.019 154.96ZM172.043 152.152C172.043 150.856 172.043 150.856 174.527 150.856H176.903V152.584L174.311 153.232H173.339C172.043 153.232 172.043 153.232 172.043 152.152Z" fill="#363636"/>
<path d="M181.728 154.744H185.922C188.082 154.744 190.26 154.744 190.26 152.476C190.26 151.72 190.08 150.748 188.352 150.316V150.1C190.08 149.668 190.08 148.696 190.08 147.94C190.08 145.672 188.082 145.672 185.922 145.672H181.728V154.744ZM186.588 150.856C188.19 150.856 188.208 150.856 188.208 152.044C188.208 153.214 188.208 153.232 186.588 153.232H183.564V150.856H186.588ZM186.408 147.184C188.01 147.184 188.028 147.184 188.028 148.372C188.028 149.542 188.028 149.56 186.408 149.56H183.564V147.184H186.408Z" fill="#363636"/>
<path d="M199.748 147.274V154.744H201.584V145.672H194.258C194.204 147.544 194.096 149.092 193.772 151.432C193.556 152.998 193.376 153.304 191.828 153.304V154.78C194.744 154.78 195.05 154.438 195.41 151.756C195.68 149.776 195.806 148.39 195.842 147.274H199.748Z" fill="#363636"/>
<path d="M209.005 154.744C211.165 154.744 213.109 154.744 213.109 151.72C213.109 150.64 213.109 148.48 209.221 148.48C208.357 148.48 207.385 148.588 206.521 148.804V145.672H204.685V154.744H209.005ZM209.221 150.208C211.165 150.208 211.165 150.208 211.165 151.72C211.165 153.232 211.165 153.232 209.221 153.232H206.521V150.208H209.221Z" fill="#363636"/>
<path d="M212.944 214.504V214H210.964L209.92 215.332C207.814 218.032 207.508 218.806 207.508 219.328H203.944V214H202V226.744H203.944V221.056H207.508C207.508 221.614 207.994 222.424 210.01 225.358L210.964 226.744H213.124V225.952L208.822 220.048L212.944 214.504Z" fill="#363636"/>
<path d="M217.854 226.744C222.552 220.498 222.552 220.174 222.552 219.22H223.02V226.744H224.856V217.672H222.372C217.674 223.918 217.674 224.242 217.674 225.196H217.188V217.672H215.352V226.744H217.854Z" fill="#363636"/>
<path d="M227.955 217.672V230.416H229.791V226.528C230.655 226.744 231.519 226.96 233.139 226.96C237.243 226.96 237.243 224.152 237.243 222.64V221.776C237.243 220.048 237.243 217.456 233.355 217.456C231.195 217.456 230.007 218.356 229.575 218.68L228.819 217.672H227.955ZM235.299 222.208C235.299 225.214 235.299 225.232 232.383 225.232C231.735 225.232 230.655 225.232 229.791 225.016V219.832L232.383 219.184H232.689C235.299 219.184 235.299 219.292 235.299 222.208Z" fill="#363636"/>
<path d="M241.42 222.208C241.42 219.184 241.42 219.094 244.228 219.094C247.036 219.094 247.036 219.184 247.036 222.208C247.036 225.232 247.036 225.322 244.228 225.322C241.42 225.322 241.42 225.232 241.42 222.208ZM239.476 222.64C239.476 224.368 239.476 226.96 243.796 226.96H244.66C248.98 226.96 248.98 224.368 248.98 222.64V221.776C248.98 220.048 248.98 217.456 244.66 217.456H243.796C239.476 217.456 239.476 220.048 239.476 221.776V222.64Z" fill="#363636"/>
<path d="M251.651 226.744H255.845C258.005 226.744 260.183 226.744 260.183 224.476C260.183 223.72 260.003 222.748 258.275 222.316V222.1C260.003 221.668 260.003 220.696 260.003 219.94C260.003 217.672 258.005 217.672 255.845 217.672H251.651V226.744ZM256.511 222.856C258.113 222.856 258.131 222.856 258.131 224.044C258.131 225.214 258.131 225.232 256.511 225.232H253.487V222.856H256.511ZM256.331 219.184C257.933 219.184 257.951 219.184 257.951 220.372C257.951 221.542 257.951 221.56 256.331 221.56H253.487V219.184H256.331Z" fill="#363636"/>
<path d="M248 263V275.744H249.944V264.728H256.856V275.744H258.8V263H248Z" fill="#363636"/>
<path d="M266.209 274.232C263.725 274.232 263.725 274.232 263.725 271.964H266.209C268.801 271.964 269.233 271.964 270.205 271.748L270.637 271.64V270.776C270.637 269.048 270.637 266.456 266.641 266.456H265.777C261.781 266.456 261.781 269.048 261.781 270.776V271.64C261.781 273.584 261.781 275.96 266.209 275.96C266.965 275.96 268.261 275.96 269.989 275.528V273.8H269.557L267.829 274.232H266.209ZM263.725 270.56C263.725 268.184 263.725 268.184 266.209 268.184C268.693 268.184 268.693 268.184 268.693 270.56H263.725Z" fill="#363636"/>
<path d="M273.305 266.672V279.416H275.141V275.528C276.005 275.744 276.869 275.96 278.489 275.96C282.593 275.96 282.593 273.152 282.593 271.64V270.776C282.593 269.048 282.593 266.456 278.705 266.456C276.545 266.456 275.357 267.356 274.925 267.68L274.169 266.672H273.305ZM280.649 271.208C280.649 274.214 280.649 274.232 277.733 274.232C277.085 274.232 276.005 274.232 275.141 274.016V268.832L277.733 268.184H278.039C280.649 268.184 280.649 268.292 280.649 271.208Z" fill="#363636"/>
<path d="M285.258 266.672V275.744H287.094V268.292H287.562C287.562 268.724 287.562 268.724 290.37 275.744H292.782C295.59 268.724 295.59 268.724 295.59 268.184H296.058V275.744H297.894V266.672H294.618C291.81 273.422 291.81 273.422 291.81 274.232H291.342C291.342 273.422 291.342 273.422 288.534 266.672H285.258Z" fill="#363636"/>
<path d="M305.31 275.744C307.47 275.744 309.414 275.744 309.414 272.72C309.414 271.64 309.414 269.48 305.526 269.48C304.662 269.48 303.69 269.588 302.826 269.804V266.672H300.99V275.744H305.31ZM305.526 271.208C307.47 271.208 307.47 271.208 307.47 272.72C307.47 274.232 307.47 274.232 305.526 274.232H302.826V271.208H305.526Z" fill="#363636"/>
<path d="M277 311.284H286.324V309.556H278.944V305.596H285.136V303.868H278.944V300.268H286.324V298.54H277V311.284Z" fill="#363636"/>
<path d="M298.161 302.716V302.212H296.109C294.813 303.94 294.057 304.948 294.057 305.884H290.817V302.212H288.981V311.284H290.817V307.612H294.057C294.057 308.548 294.813 309.556 296.109 311.284H298.161V310.78L295.119 306.748L298.161 302.716Z" fill="#363636"/>
<path d="M307.982 311.5L309.35 310.474C308.702 309.61 308.702 309.61 308.702 307.828V306.316C308.702 304.156 308.702 301.996 304.49 301.996C303.842 301.996 302.438 301.996 300.71 302.428V304.156H301.142L302.87 303.724H304.49C306.866 303.724 306.866 303.724 306.866 305.992H304.49C299.954 305.992 299.954 307.504 299.954 308.908C299.954 309.772 299.954 311.5 303.194 311.5C305.426 311.5 306.632 310.6 307.064 310.276L307.982 311.5ZM302.006 308.692C302.006 307.396 302.006 307.396 304.49 307.396H306.866V309.124L304.274 309.772H303.302C302.006 309.772 302.006 309.772 302.006 308.692Z" fill="#363636"/>
<path d="M319.846 302.212H310.774V303.796H314.356V311.284H316.264V303.796H319.846V302.212Z" fill="#363636"/>
<path d="M326.024 309.772C323.54 309.772 323.54 309.772 323.54 307.504H326.024C328.616 307.504 329.048 307.504 330.02 307.288L330.452 307.18V306.316C330.452 304.588 330.452 301.996 326.456 301.996H325.592C321.596 301.996 321.596 304.588 321.596 306.316V307.18C321.596 309.124 321.596 311.5 326.024 311.5C326.78 311.5 328.076 311.5 329.804 311.068V309.34H329.372L327.644 309.772H326.024ZM323.54 306.1C323.54 303.724 323.54 303.724 326.024 303.724C328.508 303.724 328.508 303.724 328.508 306.1H323.54Z" fill="#363636"/>
<path d="M333.119 302.212V314.956H334.955V311.068C335.819 311.284 336.683 311.5 338.303 311.5C342.407 311.5 342.407 308.692 342.407 307.18V306.316C342.407 304.588 342.407 301.996 338.519 301.996C336.359 301.996 335.171 302.896 334.739 303.22L333.983 302.212H333.119ZM340.463 306.748C340.463 309.754 340.463 309.772 337.547 309.772C336.899 309.772 335.819 309.772 334.955 309.556V304.372L337.547 303.724H337.853C340.463 303.724 340.463 303.832 340.463 306.748Z" fill="#363636"/>
<path d="M347.574 311.284C352.272 305.038 352.272 304.714 352.272 303.76H352.74V311.284H354.576V302.212H352.092C347.394 308.458 347.394 308.782 347.394 309.736H346.908V302.212H345.072V311.284H347.574Z" fill="#363636"/>
<path d="M364.804 302.212V305.866H359.512V302.212H357.676V311.284H359.512V307.45H364.804V311.284H366.64V302.212H364.804Z" fill="#363636"/>
<path d="M375.783 300.7C376.755 300.466 377.709 300.214 378.051 298.864L378.159 298.432L376.431 298C376.215 298.648 376.233 298.648 375.351 298.864L373.191 299.404C369.519 300.322 369.519 302.752 369.519 305.56V306.262C369.519 309.286 369.519 311.5 373.947 311.5H374.811C379.131 311.5 379.131 309.34 379.131 307.72V306.748C379.131 305.128 379.131 302.968 375.243 302.968C372.651 302.968 371.787 303.562 371.391 304.048L371.067 303.94C371.607 301.78 371.607 301.744 373.623 301.24L375.783 300.7ZM374.379 304.57C377.187 304.57 377.187 304.966 377.187 307.234C377.187 309.502 377.187 309.898 374.235 309.898C371.571 309.898 371.571 309.502 371.571 307.234C371.571 304.966 371.571 304.57 374.379 304.57Z" fill="#363636"/>
<path d="M384.588 309.34C384.588 308.692 384.588 308.692 382.734 303.832V302.212H380.79C380.79 304.102 380.79 304.102 383.67 310.852H385.488L384.84 312.58C384.498 313.444 384.354 313.444 383.328 313.444H381.906V315.172H382.842C384.246 315.172 385.65 315.118 386.46 313.156L389.448 305.11C389.862 304.102 389.862 304.102 389.862 302.572V302.212H387.972V303.832C386.262 308.728 386.28 308.728 386.28 309.34H384.588Z" fill="#363636"/>
<path d="M391.988 302.212V314.956H393.824V311.068C394.688 311.284 395.552 311.5 397.172 311.5C401.276 311.5 401.276 308.692 401.276 307.18V306.316C401.276 304.588 401.277 301.996 397.389 301.996C395.229 301.996 394.04 302.896 393.608 303.22L392.853 302.212H391.988ZM399.333 306.748C399.333 309.754 399.333 309.772 396.417 309.772C395.768 309.772 394.688 309.772 393.824 309.556V304.372L396.417 303.724H396.723C399.333 303.724 399.333 303.832 399.333 306.748Z" fill="#363636"/>
<path d="M411.25 302.212H403.942V311.284H405.778V303.796H411.25V302.212Z" fill="#363636"/>
<path d="M323 329V330.728H327.482V341.744H329.426V330.728H333.908V329H323Z" fill="#363636"/>
<path d="M335.434 332.672V341.744H337.27V337.964H340.078C340.078 339.584 340.078 341.96 344.398 341.96H345.262C349.582 341.96 349.582 339.584 349.582 337.64V336.776C349.582 334.832 349.582 332.456 345.262 332.456H344.398C340.078 332.456 340.078 334.832 340.078 336.452H337.27V332.672H335.434ZM342.022 337.208C342.022 334.184 342.022 334.184 344.83 334.184C347.638 334.184 347.638 334.184 347.638 337.208C347.638 340.232 347.638 340.232 344.83 340.232C342.022 340.232 342.022 340.232 342.022 337.208Z" fill="#363636"/>
<path d="M352.239 332.672V341.744H354.075V334.292H354.543C354.543 334.724 354.543 334.724 357.351 341.744H359.763C362.571 334.724 362.571 334.724 362.571 334.184H363.039V341.744H364.875V332.672H361.599C358.791 339.422 358.791 339.422 358.791 340.232H358.323C358.323 339.422 358.323 339.422 355.515 332.672H352.239Z" fill="#363636"/>
<path d="M371.967 340.232C369.483 340.232 369.483 340.232 369.483 337.964H371.967C374.559 337.964 374.991 337.964 375.963 337.748L376.395 337.64V336.776C376.395 335.048 376.395 332.456 372.399 332.456H371.535C367.539 332.456 367.539 335.048 367.539 336.776V337.64C367.539 339.584 367.539 341.96 371.967 341.96C372.723 341.96 374.019 341.96 375.747 341.528V339.8H375.315L373.587 340.232H371.967ZM369.483 336.56C369.483 334.184 369.483 334.184 371.967 334.184C374.451 334.184 374.451 334.184 374.451 336.56H369.483Z" fill="#363636"/>
<path d="M386.191 332.672V336.326H380.899V332.672H379.063V341.744H380.899V337.91H386.191V341.744H388.027V332.672H386.191Z" fill="#363636"/>
<path d="M395.442 341.744C397.602 341.744 399.546 341.744 399.546 338.72C399.546 337.64 399.546 335.48 395.658 335.48C394.794 335.48 393.822 335.588 392.958 335.804V332.672H391.122V341.744H395.442ZM395.658 337.208C397.602 337.208 397.602 337.208 397.602 338.72C397.602 340.232 397.602 340.232 395.658 340.232H392.958V337.208H395.658Z" fill="#363636"/>
<path d="M295.616 404C290 404 290 407.312 290 410.12V411.2C290 414.008 290 417.32 295.616 417.32H296.552C302.168 417.32 302.168 414.008 302.168 411.2V410.12C302.168 407.312 302.168 404 296.552 404H295.616ZM292.16 410.444C292.16 405.926 292.16 405.764 296.084 405.764C299.99 405.764 300.008 405.908 300.008 410.444V410.876C300.008 415.394 300.008 415.556 296.084 415.556C292.178 415.556 292.16 415.412 292.16 410.876V410.444Z" fill="#363636"/>
<path d="M305.052 407.96V417.032H306.888V409.58H307.356C307.356 410.012 307.356 410.012 310.164 417.032H312.576C315.384 410.012 315.384 410.012 315.384 409.472H315.852V417.032H317.688V407.96H314.412C311.604 414.71 311.604 414.71 311.604 415.52H311.136C311.136 414.71 311.136 414.71 308.328 407.96H305.052Z" fill="#363636"/>
<path d="M324.78 417.248C325.428 417.248 326.832 417.248 328.56 416.816V415.088H328.128L326.382 415.52H325.428C322.296 415.52 322.296 415.52 322.296 412.496C322.296 409.472 322.296 409.472 324.78 409.472C326.832 409.472 326.832 409.472 327.264 411.2L328.992 410.768C328.992 409.904 328.992 407.744 325.212 407.744H324.348C320.352 407.744 320.352 410.12 320.352 412.064V412.928C320.352 414.872 320.352 417.248 324.78 417.248Z" fill="#363636"/>
<path d="M340.617 408.464V407.96H338.565C337.269 409.688 336.513 410.696 336.513 411.632H333.273V407.96H331.437V417.032H333.273V413.36H336.513C336.513 414.296 337.269 415.304 338.565 417.032H340.617V416.528L337.575 412.496L340.617 408.464Z" fill="#363636"/>
<path d="M505.944 390.504V390H503.964L502.92 391.332C500.814 394.032 500.508 394.806 500.508 395.328H496.944V390H495V402.744H496.944V397.056H500.508C500.508 397.614 500.994 398.424 503.01 401.358L503.964 402.744H506.124V401.952L501.822 396.048L505.944 390.504Z" fill="#363636"/>
<path d="M508.352 393.672V406.416H510.188V402.528C511.052 402.744 511.916 402.96 513.536 402.96C517.64 402.96 517.64 400.152 517.64 398.64V397.776C517.64 396.048 517.64 393.456 513.752 393.456C511.592 393.456 510.404 394.356 509.972 394.68L509.216 393.672H508.352ZM515.696 398.208C515.696 401.214 515.696 401.232 512.78 401.232C512.132 401.232 511.052 401.232 510.188 401.016V395.832L512.78 395.184H513.086C515.696 395.184 515.696 395.292 515.696 398.208Z" fill="#363636"/>
<path d="M527.793 402.96L529.161 401.934C528.513 401.07 528.513 401.07 528.513 399.288V397.776C528.513 395.616 528.513 393.456 524.301 393.456C523.653 393.456 522.249 393.456 520.521 393.888V395.616H520.953L522.681 395.184H524.301C526.677 395.184 526.677 395.184 526.677 397.452H524.301C519.765 397.452 519.765 398.964 519.765 400.368C519.765 401.232 519.765 402.96 523.005 402.96C525.237 402.96 526.443 402.06 526.875 401.736L527.793 402.96ZM521.817 400.152C521.817 398.856 521.817 398.856 524.301 398.856H526.677V400.584L524.085 401.232H523.113C521.817 401.232 521.817 401.232 521.817 400.152Z" fill="#363636"/>
<path d="M535.498 402.96C536.146 402.96 537.55 402.96 539.278 402.528V400.8H538.846L537.1 401.232H536.146C533.014 401.232 533.014 401.232 533.014 398.208C533.014 395.184 533.014 395.184 535.498 395.184C537.55 395.184 537.55 395.184 537.982 396.912L539.71 396.48C539.71 395.616 539.71 393.456 535.93 393.456H535.066C531.07 393.456 531.07 395.832 531.07 397.776V398.64C531.07 400.584 531.07 402.96 535.498 402.96Z" fill="#363636"/>
<path d="M549.283 393.672V397.326H543.991V393.672H542.155V402.744H543.991V398.91H549.283V402.744H551.119V393.672H549.283Z" fill="#363636"/>
<path d="M555.725 398.208C555.725 395.184 555.725 395.094 558.533 395.094C561.341 395.094 561.341 395.184 561.341 398.208C561.341 401.232 561.341 401.322 558.533 401.322C555.725 401.322 555.725 401.232 555.725 398.208ZM553.781 398.64C553.781 400.368 553.781 402.96 558.101 402.96H558.965C563.285 402.96 563.285 400.368 563.285 398.64V397.776C563.285 396.048 563.285 393.456 558.965 393.456H558.101C553.781 393.456 553.781 396.048 553.781 397.776V398.64Z" fill="#363636"/>
<path d="M574.163 402.744V393.672H570.275C567.575 393.672 565.415 393.672 565.415 396.588C565.415 398.172 565.955 398.586 567.467 399.72L565.577 402.24V402.744H567.629C568.277 401.916 568.979 401.052 568.979 399.72H572.327V402.744H574.163ZM569.519 398.208C567.485 398.208 567.467 398.208 567.467 396.696C567.467 395.202 567.467 395.184 569.519 395.184H572.327V398.208H569.519Z" fill="#363636"/>
<path d="M577.258 393.672V406.416H579.094V402.528C579.958 402.744 580.822 402.96 582.442 402.96C586.546 402.96 586.546 400.152 586.546 398.64V397.776C586.546 396.048 586.546 393.456 582.658 393.456C580.498 393.456 579.31 394.356 578.878 394.68L578.122 393.672H577.258ZM584.602 398.208C584.602 401.214 584.602 401.232 581.686 401.232C581.038 401.232 579.958 401.232 579.094 401.016V395.832L581.686 395.184H581.992C584.602 395.184 584.602 395.292 584.602 398.208Z" fill="#363636"/>
<path d="M593.207 402.96C593.855 402.96 595.259 402.96 596.987 402.528V400.8H596.555L594.809 401.232H593.855C590.723 401.232 590.723 401.232 590.723 398.208C590.723 395.184 590.723 395.184 593.207 395.184C595.259 395.184 595.259 395.184 595.691 396.912L597.419 396.48C597.419 395.616 597.419 393.456 593.639 393.456H592.775C588.779 393.456 588.779 395.832 588.779 397.776V398.64C588.779 400.584 588.779 402.96 593.207 402.96Z" fill="#363636"/>
<path d="M609.043 394.176V393.672H606.991C605.695 395.4 604.939 396.408 604.939 397.344H601.699V393.672H599.863V402.744H601.699V399.072H604.939C604.939 400.008 605.695 401.016 606.991 402.744H609.043V402.24L606.001 398.208L609.043 394.176Z" fill="#363636"/>
<path d="M724.77 546.02C724.77 545.156 724.77 545.156 721.908 539H720V539.648L723.78 547.586H726.336L725.706 548.936C725.202 550.016 724.968 550.016 723.672 550.016H722.034V551.744H723.24C725.526 551.744 726.534 551.744 727.65 549.152L731.736 539.648V539H729.882C727.29 545.156 727.29 545.156 727.326 546.02H724.77Z" fill="#363636"/>
<path d="M739.517 544.274V551.744H741.353V542.672H734.027C733.973 544.544 733.865 546.092 733.541 548.432C733.325 549.998 733.145 550.304 731.597 550.304V551.78C734.513 551.78 734.819 551.438 735.179 548.756C735.449 546.776 735.575 545.39 735.611 544.274H739.517Z" fill="#363636"/>
<path d="M751.943 551.96L753.311 550.934C752.663 550.07 752.663 550.07 752.663 548.288V546.776C752.663 544.616 752.663 542.456 748.451 542.456C747.803 542.456 746.399 542.456 744.671 542.888V544.616H745.103L746.831 544.184H748.451C750.827 544.184 750.827 544.184 750.827 546.452H748.451C743.915 546.452 743.915 547.964 743.915 549.368C743.915 550.232 743.915 551.96 747.155 551.96C749.387 551.96 750.593 551.06 751.025 550.736L751.943 551.96ZM745.967 549.152C745.967 547.856 745.967 547.856 748.451 547.856H750.827V549.584L748.235 550.232H747.263C745.967 550.232 745.967 550.232 745.967 549.152Z" fill="#363636"/>
<path d="M762.78 542.672V546.326H757.488V542.672H755.652V551.744H757.488V547.91H762.78V551.744H764.616V542.672H762.78Z" fill="#363636"/>
<path d="M766.523 545.804V547.424H771.923V545.804H766.523Z" fill="#363636"/>
<path d="M777.241 546.02C777.241 545.156 777.241 545.156 774.379 539H772.471V539.648L776.251 547.586H778.807L778.177 548.936C777.673 550.016 777.439 550.016 776.143 550.016H774.505V551.744H775.711C777.997 551.744 779.005 551.744 780.121 549.152L784.207 539.648V539H782.353C779.761 545.156 779.761 545.156 779.797 546.02H777.241Z" fill="#363636"/>
<path d="M785.801 551.744H793.703V554.336H795.467V550.232H793.955V542.672H786.575V543.752C786.575 545.894 786.341 548.18 785.279 550.232H784.037V554.336H785.801V551.744ZM788.339 544.256H792.119V550.232H787.259C788.123 548.162 788.339 545.966 788.339 544.256Z" fill="#363636"/>
<path d="M805.315 546.776C805.315 544.832 805.315 542.456 801.103 542.456H800.779C800.131 542.456 798.835 542.456 797.107 542.888V544.616H797.539L799.267 544.184H800.887C803.371 544.184 803.371 544.184 803.371 546.452H799.267V547.964H803.371C803.371 550.232 803.371 550.232 800.887 550.232H799.267L797.539 549.8H797.107V551.528C798.835 551.96 800.131 551.96 800.779 551.96H801.103C805.315 551.96 805.315 549.584 805.315 547.64V546.776Z" fill="#363636"/>
<path d="M60.856 246.328H53.944V241H52V253.744H53.944V248.056H60.856V253.744H62.8V241H60.856V246.328Z" fill="#363636"/>
<path d="M68.7151 253.744C73.4131 247.498 73.4131 247.174 73.4131 246.22H73.8811V253.744H75.7171V244.672H73.2331C68.5351 250.918 68.5351 251.242 68.5351 252.196H68.0491V244.672H66.2131V253.744H68.7151Z" fill="#363636"/>
<path d="M84.6126 244.672V248.344H82.1646C82.1646 247.408 81.4086 246.4 80.1126 244.672H78.0606V245.176L81.0846 249.208L78.0606 253.24V253.744H80.1126C81.4086 252.016 82.1646 251.008 82.1646 250.072H84.6126V253.744H86.4486V250.072H88.8966C88.8966 251.008 89.6526 252.016 90.9486 253.744H93.0006V253.24L89.9586 249.208L93.0006 245.176V244.672H90.9486C89.6526 246.4 88.8966 247.408 88.8966 248.344H86.4486V244.672H84.6126Z" fill="#363636"/>
<path d="M102.468 244.672V248.326H97.1761V244.672H95.3401V253.744H97.1761V249.91H102.468V253.744H104.304V244.672H102.468Z" fill="#363636"/>
<path d="M109.901 253.744C114.599 247.498 114.599 247.174 114.599 246.22H115.067V253.744H116.903V244.672H114.419C109.721 250.918 109.721 251.242 109.721 252.196H109.235V244.672H107.399V253.744H109.901Z" fill="#363636"/>
<path d="M125.348 243.304C126.572 243.304 127.436 243.304 128.57 241.972L127.274 241C126.698 241.792 126.68 241.792 125.69 241.792H123.998C123.026 241.792 123.008 241.792 122.414 241L121.118 241.972C122.252 243.304 123.116 243.304 124.34 243.304H125.348ZM122.504 253.744C127.202 247.498 127.202 247.174 127.202 246.22H127.67V253.744H129.506V244.672H127.022C122.324 250.918 122.324 251.242 122.324 252.196H121.838V244.672H120.002V253.744H122.504Z" fill="#363636"/>
<path d="M60.856 267.328H53.944V262H52V274.744H53.944V269.056H60.856V274.744H62.8V262H60.856V267.328Z" fill="#363636"/>
<path d="M67.7251 270.208C67.7251 267.184 67.7251 267.094 70.5331 267.094C73.3411 267.094 73.3411 267.184 73.3411 270.208C73.3411 273.232 73.3411 273.322 70.5331 273.322C67.7251 273.322 67.7251 273.232 67.7251 270.208ZM65.7811 270.64C65.7811 272.368 65.7811 274.96 70.1011 274.96H70.9651C75.2851 274.96 75.2851 272.368 75.2851 270.64V269.776C75.2851 268.048 75.2851 265.456 70.9651 265.456H70.1011C65.7811 265.456 65.7811 268.048 65.7811 269.776V270.64Z" fill="#363636"/>
<path d="M77.9553 274.744H82.1493C84.3093 274.744 86.4873 274.744 86.4873 272.476C86.4873 271.72 86.3073 270.748 84.5793 270.316V270.1C86.3073 269.668 86.3073 268.696 86.3073 267.94C86.3073 265.672 84.3093 265.672 82.1493 265.672H77.9553V274.744ZM82.8153 270.856C84.4173 270.856 84.4353 270.856 84.4353 272.044C84.4353 273.214 84.4353 273.232 82.8153 273.232H79.7913V270.856H82.8153ZM82.6353 267.184C84.2373 267.184 84.2553 267.184 84.2553 268.372C84.2553 269.542 84.2553 269.56 82.6353 269.56H79.7913V267.184H82.6353Z" fill="#363636"/>
<path d="M96.4606 265.672H89.1526V274.744H90.9886V267.256H96.4606V265.672Z" fill="#363636"/>
<path d="M99.9634 270.208C99.9634 267.184 99.9634 267.094 102.771 267.094C105.579 267.094 105.579 267.184 105.579 270.208C105.579 273.232 105.579 273.322 102.771 273.322C99.9634 273.322 99.9634 273.232 99.9634 270.208ZM98.0194 270.64C98.0194 272.368 98.0194 274.96 102.339 274.96H103.203C107.523 274.96 107.523 272.368 107.523 270.64V269.776C107.523 268.048 107.523 265.456 103.203 265.456H102.339C98.0194 265.456 98.0194 268.048 98.0194 269.776V270.64Z" fill="#363636"/>
<path d="M110.194 265.672V278.416H112.03V274.528C112.894 274.744 113.758 274.96 115.378 274.96C119.482 274.96 119.482 272.152 119.482 270.64V269.776C119.482 268.048 119.482 265.456 115.594 265.456C113.434 265.456 112.246 266.356 111.814 266.68L111.058 265.672H110.194ZM117.538 270.208C117.538 273.214 117.538 273.232 114.622 273.232C113.974 273.232 112.894 273.232 112.03 273.016V267.832L114.622 267.184H114.928C117.538 267.184 117.538 267.292 117.538 270.208Z" fill="#363636"/>
<path d="M123.659 270.208C123.659 267.184 123.659 267.094 126.467 267.094C129.275 267.094 129.275 267.184 129.275 270.208C129.275 273.232 129.275 273.322 126.467 273.322C123.659 273.322 123.659 273.232 123.659 270.208ZM121.715 270.64C121.715 272.368 121.715 274.96 126.035 274.96H126.899C131.219 274.96 131.219 272.368 131.219 270.64V269.776C131.219 268.048 131.219 265.456 126.899 265.456H126.035C121.715 265.456 121.715 268.048 121.715 269.776V270.64Z" fill="#363636"/>
<path d="M134.735 274.744H142.637V277.336H144.401V273.232H142.889V265.672H135.509V266.752C135.509 268.894 135.275 271.18 134.213 273.232H132.971V277.336H134.735V274.744ZM137.273 267.256H141.053V273.232H136.193C137.057 271.162 137.273 268.966 137.273 267.256Z" fill="#363636"/>
<path d="M980.219 563.768C980.219 562.904 980.219 562.904 977.357 556.748H975.449V557.396L979.229 565.334H981.785L981.155 566.684C980.651 567.764 980.417 567.764 979.121 567.764H977.483V569.492H978.689C980.975 569.492 981.983 569.492 983.099 566.9L987.185 557.396V556.748H985.331C982.739 562.904 982.739 562.904 982.775 563.768H980.219Z" fill="#363636"/>
<path d="M991.929 569.708C992.577 569.708 993.981 569.708 995.709 569.276V567.548H995.277L993.531 567.98H992.577C989.445 567.98 989.445 567.98 989.445 564.956C989.445 561.932 989.445 561.932 991.929 561.932C993.981 561.932 993.981 561.932 994.413 563.66L996.141 563.228C996.141 562.364 996.141 560.204 992.361 560.204H991.497C987.501 560.204 987.501 562.58 987.501 564.524V565.388C987.501 567.332 987.501 569.708 991.929 569.708Z" fill="#363636"/>
<path d="M1002.58 569.708C1003.23 569.708 1004.63 569.708 1006.36 569.276V567.548H1005.93L1004.18 567.98H1003.23C1000.1 567.98 1000.1 567.98 1000.1 564.956C1000.1 561.932 1000.1 561.932 1002.58 561.932C1004.63 561.932 1004.63 561.932 1005.07 563.66L1006.79 563.228C1006.79 562.364 1006.79 560.204 1003.01 560.204H1002.15C998.153 560.204 998.153 562.58 998.153 564.524V565.388C998.153 567.332 998.153 569.708 1002.58 569.708Z" fill="#363636"/>
<path d="M1012.24 567.548C1012.24 566.9 1012.24 566.9 1010.39 562.04V560.42H1008.45C1008.45 562.31 1008.45 562.31 1011.33 569.06H1013.14L1012.5 570.788C1012.15 571.652 1012.01 571.652 1010.98 571.652H1009.56V573.38H1010.5C1011.9 573.38 1013.31 573.326 1014.12 571.364L1017.1 563.318C1017.52 562.31 1017.52 562.31 1017.52 560.78V560.42H1015.63V562.04C1013.92 566.936 1013.94 566.936 1013.94 567.548H1012.24Z" fill="#363636"/>
<path d="M1019.64 560.42V573.164H1021.48V569.276C1022.34 569.492 1023.21 569.708 1024.83 569.708C1028.93 569.708 1028.93 566.9 1028.93 565.388V564.524C1028.93 562.796 1028.93 560.204 1025.04 560.204C1022.88 560.204 1021.7 561.104 1021.26 561.428L1020.51 560.42H1019.64ZM1026.99 564.956C1026.99 567.962 1026.99 567.98 1024.07 567.98C1023.42 567.98 1022.34 567.98 1021.48 567.764V562.58L1024.07 561.932H1024.38C1026.99 561.932 1026.99 562.04 1026.99 564.956Z" fill="#363636"/>
<path d="M1034.1 569.492C1038.8 563.246 1038.8 562.922 1038.8 561.968H1039.27V569.492H1041.1V560.42H1038.62C1033.92 566.666 1033.92 566.99 1033.92 567.944H1033.43V560.42H1031.6V569.492H1034.1Z" fill="#363636"/>
<path d="M1049.55 559.052C1050.77 559.052 1051.63 559.052 1052.77 557.72L1051.47 556.748C1050.9 557.54 1050.88 557.54 1049.89 557.54H1048.2C1047.22 557.54 1047.21 557.54 1046.61 556.748L1045.32 557.72C1046.45 559.052 1047.31 559.052 1048.54 559.052H1049.55ZM1046.7 569.492C1051.4 563.246 1051.4 562.922 1051.4 561.968H1051.87V569.492H1053.7V560.42H1051.22C1046.52 566.666 1046.52 566.99 1046.52 567.944H1046.04V560.42H1044.2V569.492H1046.7Z" fill="#363636"/>
<path d="M1060.8 569.708C1061.45 569.708 1062.85 569.708 1064.58 569.276V567.548H1064.15L1062.4 567.98H1061.45C1058.32 567.98 1058.32 567.98 1058.32 564.956C1058.32 561.932 1058.32 561.932 1060.8 561.932C1062.85 561.932 1062.85 561.932 1063.28 563.66L1065.01 563.228C1065.01 562.364 1065.01 560.204 1061.23 560.204H1060.37C1056.37 560.204 1056.37 562.58 1056.37 564.524V565.388C1056.37 567.332 1056.37 569.708 1060.8 569.708Z" fill="#363636"/>
<path d="M1076.64 560.924V560.42H1074.58C1073.29 562.148 1072.53 563.156 1072.53 564.092H1069.29V560.42H1067.46V569.492H1069.29V565.82H1072.53C1072.53 566.756 1073.29 567.764 1074.58 569.492H1076.64V568.988L1073.59 564.956L1076.64 560.924Z" fill="#363636"/>
<path d="M966.023 588.655C967.967 588.655 967.967 588.745 967.967 590.635C967.967 592.525 967.967 592.615 966.023 592.615H961.487V588.655H966.023ZM965.843 583.327C967.787 583.327 967.787 583.345 967.787 585.127C967.787 586.909 967.787 586.927 965.843 586.927H961.487V583.327H965.843ZM964.619 594.343C967.967 594.343 970.127 594.253 970.127 590.797C970.127 590.365 969.947 588.367 968.363 587.971V587.611C969.947 587.215 969.947 585.397 969.947 584.965C969.947 581.617 967.787 581.599 964.439 581.599H959.543V594.343H964.619Z" fill="#363636"/>
<path d="M979.84 586.873V594.343H981.676V585.271H974.35C974.296 587.143 974.188 588.691 973.864 591.031C973.648 592.597 973.468 592.903 971.92 592.903V594.379C974.836 594.379 975.142 594.037 975.502 591.355C975.772 589.375 975.898 587.989 975.934 586.873H979.84Z" fill="#363636"/>
<path d="M992.266 594.559L993.634 593.533C992.986 592.669 992.986 592.669 992.986 590.887V589.375C992.986 587.215 992.986 585.055 988.774 585.055C988.126 585.055 986.722 585.055 984.994 585.487V587.215H985.426L987.154 586.783H988.774C991.15 586.783 991.15 586.783 991.15 589.051H988.774C984.238 589.051 984.238 590.563 984.238 591.967C984.238 592.831 984.238 594.559 987.478 594.559C989.71 594.559 990.916 593.659 991.348 593.335L992.266 594.559ZM986.29 591.751C986.29 590.455 986.29 590.455 988.774 590.455H991.15V592.183L988.558 592.831H987.586C986.29 592.831 986.29 592.831 986.29 591.751Z" fill="#363636"/>
<path d="M996.821 594.343H1004.72V596.935H1006.49V592.831H1004.97V585.271H997.595V586.351C997.595 588.493 997.361 590.779 996.299 592.831H995.057V596.935H996.821V594.343ZM999.359 586.855H1003.14V592.831H998.279C999.143 590.761 999.359 588.565 999.359 586.855Z" fill="#363636"/>
<path d="M1011.17 594.343C1015.87 588.097 1015.87 587.773 1015.87 586.819H1016.33V594.343H1018.17V585.271H1015.69C1010.99 591.517 1010.99 591.841 1010.99 592.795H1010.5V585.271H1008.67V594.343H1011.17Z" fill="#363636"/>
<path d="M1021.27 594.343H1025.46C1027.62 594.343 1029.8 594.343 1029.8 592.075C1029.8 591.319 1029.62 590.347 1027.89 589.915V589.699C1029.62 589.267 1029.62 588.295 1029.62 587.539C1029.62 585.271 1027.62 585.271 1025.46 585.271H1021.27V594.343ZM1026.13 590.455C1027.73 590.455 1027.75 590.455 1027.75 591.643C1027.75 592.813 1027.75 592.831 1026.13 592.831H1023.11V590.455H1026.13ZM1025.95 586.783C1027.55 586.783 1027.57 586.783 1027.57 587.971C1027.57 589.141 1027.57 589.159 1025.95 589.159H1023.11V586.783H1025.95Z" fill="#363636"/>
<path d="M1033.98 589.807C1033.98 586.783 1033.98 586.693 1036.79 586.693C1039.6 586.693 1039.6 586.783 1039.6 589.807C1039.6 592.831 1039.6 592.921 1036.79 592.921C1033.98 592.921 1033.98 592.831 1033.98 589.807ZM1032.04 590.239C1032.04 591.967 1032.04 594.559 1036.36 594.559H1037.22C1041.54 594.559 1041.54 591.967 1041.54 590.239V589.375C1041.54 587.647 1041.54 585.055 1037.22 585.055H1036.36C1032.04 585.055 1032.04 587.647 1032.04 589.375V590.239Z" fill="#363636"/>
<path d="M1048.21 594.559C1048.85 594.559 1050.26 594.559 1051.99 594.127V592.399H1051.55L1049.81 592.831H1048.85C1045.72 592.831 1045.72 592.831 1045.72 589.807C1045.72 586.783 1045.72 586.783 1048.21 586.783C1050.26 586.783 1050.26 586.783 1050.69 588.511L1052.42 588.079C1052.42 587.215 1052.42 585.055 1048.64 585.055H1047.77C1043.78 585.055 1043.78 587.431 1043.78 589.375V590.239C1043.78 592.183 1043.78 594.559 1048.21 594.559Z" fill="#363636"/>
<path d="M1063.02 585.271H1053.94V586.855H1057.53V594.343H1059.43V586.855H1063.02V585.271Z" fill="#363636"/>
<path d="M1066.71 589.807C1066.71 586.783 1066.71 586.693 1069.52 586.693C1072.33 586.693 1072.33 586.783 1072.33 589.807C1072.33 592.831 1072.33 592.921 1069.52 592.921C1066.71 592.921 1066.71 592.831 1066.71 589.807ZM1064.77 590.239C1064.77 591.967 1064.77 594.559 1069.09 594.559H1069.95C1074.27 594.559 1074.27 591.967 1074.27 590.239V589.375C1074.27 587.647 1074.27 585.055 1069.95 585.055H1069.09C1064.77 585.055 1064.77 587.647 1064.77 589.375V590.239Z" fill="#363636"/>
<path d="M1086.12 585.775V585.271H1084.07C1082.77 586.999 1082.02 588.007 1082.02 588.943H1078.78V585.271H1076.94V594.343H1078.78V590.671H1082.02C1082.02 591.607 1082.77 592.615 1084.07 594.343H1086.12V593.839L1083.08 589.807L1086.12 585.775Z" fill="#363636"/>
<path d="M786.016 435.032C786.016 433.772 786.016 431 780.94 431H780.292C775 431 775 434.312 775 437.12V438.2C775 441.224 775 444.32 780.616 444.32C781.696 444.32 782.956 444.32 785.692 443.636V441.764H785.044L782.452 442.412H781.696C777.16 442.412 777.16 442.412 777.16 437.984V437.336C777.16 432.908 777.16 432.908 780.616 432.908C783.496 432.908 783.496 432.908 784.144 435.5L786.016 435.032Z" fill="#363636"/>
<path d="M797.65 435.464V434.96H795.598C794.302 436.688 793.546 437.696 793.546 438.632H790.306V434.96H788.47V444.032H790.306V440.36H793.546C793.546 441.296 794.302 442.304 795.598 444.032H797.65V443.528L794.608 439.496L797.65 435.464Z" fill="#363636"/>
<path d="M801.39 439.496C801.39 436.472 801.39 436.382 804.198 436.382C807.006 436.382 807.006 436.472 807.006 439.496C807.006 442.52 807.006 442.61 804.198 442.61C801.39 442.61 801.39 442.52 801.39 439.496ZM799.446 439.928C799.446 441.656 799.446 444.248 803.766 444.248H804.63C808.95 444.248 808.95 441.656 808.95 439.928V439.064C808.95 437.336 808.95 434.744 804.63 434.744H803.766C799.446 434.744 799.446 437.336 799.446 439.064V439.928Z" fill="#363636"/>
<path d="M811.62 444.032H815.814C817.974 444.032 820.152 444.032 820.152 441.764C820.152 441.008 819.972 440.036 818.244 439.604V439.388C819.972 438.956 819.972 437.984 819.972 437.228C819.972 434.96 817.974 434.96 815.814 434.96H811.62V444.032ZM816.48 440.144C818.082 440.144 818.1 440.144 818.1 441.332C818.1 442.502 818.1 442.52 816.48 442.52H813.456V440.144H816.48ZM816.3 436.472C817.902 436.472 817.92 436.472 817.92 437.66C817.92 438.83 817.92 438.848 816.3 438.848H813.456V436.472H816.3Z" fill="#363636"/>
<path d="M824.33 439.496C824.33 436.472 824.33 436.382 827.138 436.382C829.946 436.382 829.946 436.472 829.946 439.496C829.946 442.52 829.946 442.61 827.138 442.61C824.33 442.61 824.33 442.52 824.33 439.496ZM822.386 439.928C822.386 441.656 822.386 444.248 826.706 444.248H827.57C831.89 444.248 831.89 441.656 831.89 439.928V439.064C831.89 437.336 831.89 434.744 827.57 434.744H826.706C822.386 434.744 822.386 437.336 822.386 439.064V439.928Z" fill="#363636"/>
<path d="M834.56 434.96V447.704H836.396V443.816C837.26 444.032 838.124 444.248 839.744 444.248C843.848 444.248 843.848 441.44 843.848 439.928V439.064C843.848 437.336 843.848 434.744 839.96 434.744C837.8 434.744 836.612 435.644 836.18 435.968L835.424 434.96H834.56ZM841.904 439.496C841.904 442.502 841.904 442.52 838.988 442.52C838.34 442.52 837.26 442.52 836.396 442.304V437.12L838.988 436.472H839.294C841.904 436.472 841.904 436.58 841.904 439.496Z" fill="#363636"/>
<path d="M848.025 439.496C848.025 436.472 848.025 436.382 850.833 436.382C853.641 436.382 853.641 436.472 853.641 439.496C853.641 442.52 853.641 442.61 850.833 442.61C848.025 442.61 848.025 442.52 848.025 439.496ZM846.081 439.928C846.081 441.656 846.081 444.248 850.401 444.248H851.265C855.585 444.248 855.585 441.656 855.585 439.928V439.064C855.585 437.336 855.585 434.744 851.265 434.744H850.401C846.081 434.744 846.081 437.336 846.081 439.064V439.928Z" fill="#363636"/>
<path d="M859.101 444.032H867.003V446.624H868.767V442.52H867.255V434.96H859.875V436.04C859.875 438.182 859.641 440.468 858.579 442.52H857.337V446.624H859.101V444.032ZM861.639 436.544H865.419V442.52H860.559C861.423 440.45 861.639 438.254 861.639 436.544Z" fill="#363636"/>
<path d="M873.448 444.032C878.146 437.786 878.146 437.462 878.146 436.508H878.614V444.032H880.45V434.96H877.966C873.268 441.206 873.268 441.53 873.268 442.484H872.782V434.96H870.946V444.032H873.448Z" fill="#363636"/>
<path d="M890.678 434.96V438.614H885.386V434.96H883.55V444.032H885.386V440.198H890.678V444.032H892.514V434.96H890.678Z" fill="#363636"/>
<path d="M897.121 439.496C897.121 436.472 897.121 436.382 899.929 436.382C902.737 436.382 902.737 436.472 902.737 439.496C902.737 442.52 902.737 442.61 899.929 442.61C897.121 442.61 897.121 442.52 897.121 439.496ZM895.177 439.928C895.177 441.656 895.177 444.248 899.497 444.248H900.361C904.681 444.248 904.681 441.656 904.681 439.928V439.064C904.681 437.336 904.681 434.744 900.361 434.744H899.497C895.177 434.744 895.177 437.336 895.177 439.064V439.928Z" fill="#363636"/>
<path d="M358.856 462.868H351.944V457.54H350V470.284H351.944V464.596H358.856V470.284H360.8V457.54H358.856V462.868Z" fill="#363636"/>
<path d="M365.725 465.748C365.725 462.724 365.725 462.634 368.533 462.634C371.341 462.634 371.341 462.724 371.341 465.748C371.341 468.772 371.341 468.862 368.533 468.862C365.725 468.862 365.725 468.772 365.725 465.748ZM363.781 466.18C363.781 467.908 363.781 470.5 368.101 470.5H368.965C373.285 470.5 373.285 467.908 373.285 466.18V465.316C373.285 463.588 373.285 460.996 368.965 460.996H368.101C363.781 460.996 363.781 463.588 363.781 465.316V466.18Z" fill="#363636"/>
<path d="M375.955 470.284H380.149C382.309 470.284 384.487 470.284 384.487 468.016C384.487 467.26 384.307 466.288 382.579 465.856V465.64C384.307 465.208 384.307 464.236 384.307 463.48C384.307 461.212 382.309 461.212 380.149 461.212H375.955V470.284ZM380.815 466.396C382.417 466.396 382.435 466.396 382.435 467.584C382.435 468.754 382.435 468.772 380.815 468.772H377.791V466.396H380.815ZM380.635 462.724C382.237 462.724 382.255 462.724 382.255 463.912C382.255 465.082 382.255 465.1 380.635 465.1H377.791V462.724H380.635Z" fill="#363636"/>
<path d="M388.665 465.748C388.665 462.724 388.665 462.634 391.473 462.634C394.281 462.634 394.281 462.724 394.281 465.748C394.281 468.772 394.281 468.862 391.473 468.862C388.665 468.862 388.665 468.772 388.665 465.748ZM386.721 466.18C386.721 467.908 386.721 470.5 391.041 470.5H391.905C396.225 470.5 396.225 467.908 396.225 466.18V465.316C396.225 463.588 396.225 460.996 391.905 460.996H391.041C386.721 460.996 386.721 463.588 386.721 465.316V466.18Z" fill="#363636"/>
<path d="M402.891 470.5C403.539 470.5 404.943 470.5 406.671 470.068V468.34H406.239L404.493 468.772H403.539C400.407 468.772 400.407 468.772 400.407 465.748C400.407 462.724 400.407 462.724 402.891 462.724C404.943 462.724 404.943 462.724 405.375 464.452L407.103 464.02C407.103 463.156 407.103 460.996 403.323 460.996H402.459C398.463 460.996 398.463 463.372 398.463 465.316V466.18C398.463 468.124 398.463 470.5 402.891 470.5Z" fill="#363636"/>
<path d="M412.049 470.284C416.747 464.038 416.747 463.714 416.747 462.76H417.215V470.284H419.051V461.212H416.567C411.869 467.458 411.869 467.782 411.869 468.736H411.383V461.212H409.547V470.284H412.049Z" fill="#363636"/>
<path d="M428.199 459.7C429.171 459.466 430.125 459.214 430.467 457.864L430.575 457.432L428.847 457C428.631 457.648 428.649 457.648 427.767 457.864L425.607 458.404C421.935 459.322 421.935 461.752 421.935 464.56V465.262C421.935 468.286 421.935 470.5 426.363 470.5H427.227C431.547 470.5 431.547 468.34 431.547 466.72V465.748C431.547 464.128 431.547 461.968 427.659 461.968C425.067 461.968 424.203 462.562 423.807 463.048L423.483 462.94C424.023 460.78 424.023 460.744 426.039 460.24L428.199 459.7ZM426.795 463.57C429.603 463.57 429.603 463.966 429.603 466.234C429.603 468.502 429.603 468.898 426.651 468.898C423.987 468.898 423.987 468.502 423.987 466.234C423.987 463.966 423.987 463.57 426.795 463.57Z" fill="#363636"/>
<path d="M436.606 470.284C441.304 464.038 441.304 463.714 441.304 462.76H441.772V470.284H443.608V461.212H441.124C436.426 467.458 436.426 467.782 436.426 468.736H435.94V461.212H434.104V470.284H436.606Z" fill="#363636"/>
<path d="M446.707 461.212V473.956H448.543V470.068C449.407 470.284 450.271 470.5 451.891 470.5C455.995 470.5 455.995 467.692 455.995 466.18V465.316C455.995 463.588 455.995 460.996 452.107 460.996C449.947 460.996 448.759 461.896 448.327 462.22L447.571 461.212H446.707ZM454.051 465.748C454.051 468.754 454.051 468.772 451.135 468.772C450.487 468.772 449.407 468.772 448.543 468.556V463.372L451.135 462.724H451.441C454.051 462.724 454.051 462.832 454.051 465.748Z" fill="#363636"/>
<path d="M462.656 470.5C463.304 470.5 464.708 470.5 466.436 470.068V468.34H466.004L464.258 468.772H463.304C460.172 468.772 460.172 468.772 460.172 465.748C460.172 462.724 460.172 462.724 462.656 462.724C464.708 462.724 464.708 462.724 465.14 464.452L466.868 464.02C466.868 463.156 466.868 460.996 463.088 460.996H462.224C458.228 460.996 458.228 463.372 458.228 465.316V466.18C458.228 468.124 458.228 470.5 462.656 470.5Z" fill="#363636"/>
<path d="M478.493 461.716V461.212H476.441C475.145 462.94 474.389 463.948 474.389 464.884H471.149V461.212H469.313V470.284H471.149V466.612H474.389C474.389 467.548 475.145 468.556 476.441 470.284H478.493V469.78L475.451 465.748L478.493 461.716Z" fill="#363636"/>
<path d="M879.473 479.877V476.565H887.033V474.837H877.529V487.581H882.065C886.061 487.581 888.113 487.491 888.113 483.729C888.113 479.967 886.061 479.877 882.065 479.877H879.473ZM879.473 481.605H883.361C886.025 481.605 886.061 481.605 886.061 483.729C886.061 485.817 886.061 485.853 883.361 485.853H879.473V481.605Z" fill="#363636"/>
<path d="M894.561 486.069C892.077 486.069 892.077 486.069 892.077 483.801H894.561C897.153 483.801 897.585 483.801 898.557 483.585L898.989 483.477V482.613C898.989 480.885 898.989 478.293 894.993 478.293H894.129C890.133 478.293 890.133 480.885 890.133 482.613V483.477C890.133 485.421 890.133 487.797 894.561 487.797C895.317 487.797 896.613 487.797 898.341 487.365V485.637H897.909L896.181 486.069H894.561ZM892.077 482.397C892.077 480.021 892.077 480.021 894.561 480.021C897.045 480.021 897.045 480.021 897.045 482.397H892.077Z" fill="#363636"/>
<path d="M908.478 480.111V487.581H910.314V478.509H902.988C902.934 480.381 902.826 481.929 902.502 484.269C902.286 485.835 902.106 486.141 900.558 486.141V487.617C903.474 487.617 903.78 487.275 904.14 484.593C904.41 482.613 904.536 481.227 904.572 480.111H908.478Z" fill="#363636"/>
<path d="M914.928 483.045C914.928 480.021 914.928 479.931 917.736 479.931C920.544 479.931 920.544 480.021 920.544 483.045C920.544 486.069 920.544 486.159 917.736 486.159C914.928 486.159 914.928 486.069 914.928 483.045ZM912.984 483.477C912.984 485.205 912.984 487.797 917.304 487.797H918.168C922.488 487.797 922.488 485.205 922.488 483.477V482.613C922.488 480.885 922.488 478.293 918.168 478.293H917.304C912.984 478.293 912.984 480.885 912.984 482.613V483.477Z" fill="#363636"/>
<path d="M932.466 478.509H925.158V487.581H926.994V480.093H932.466V478.509Z" fill="#363636"/>
<path d="M935.969 483.045C935.969 480.021 935.969 479.931 938.777 479.931C941.585 479.931 941.585 480.021 941.585 483.045C941.585 486.069 941.585 486.159 938.777 486.159C935.969 486.159 935.969 486.069 935.969 483.045ZM934.025 483.477C934.025 485.205 934.025 487.797 938.345 487.797H939.209C943.529 487.797 943.529 485.205 943.529 483.477V482.613C943.529 480.885 943.529 478.293 939.209 478.293H938.345C934.025 478.293 934.025 480.885 934.025 482.613V483.477Z" fill="#363636"/>
<path d="M946.199 478.509V491.253H948.035V487.365C948.899 487.581 949.763 487.797 951.383 487.797C955.487 487.797 955.487 484.989 955.487 483.477V482.613C955.487 480.885 955.487 478.293 951.599 478.293C949.439 478.293 948.251 479.193 947.819 479.517L947.063 478.509H946.199ZM953.543 483.045C953.543 486.051 953.543 486.069 950.627 486.069C949.979 486.069 948.899 486.069 948.035 485.853V480.669L950.627 480.021H950.933C953.543 480.021 953.543 480.129 953.543 483.045Z" fill="#363636"/>
<path d="M962.149 487.797C962.797 487.797 964.201 487.797 965.929 487.365V485.637H965.497L963.751 486.069H962.797C959.665 486.069 959.665 486.069 959.665 483.045C959.665 480.021 959.665 480.021 962.149 480.021C964.201 480.021 964.201 480.021 964.633 481.749L966.361 481.317C966.361 480.453 966.361 478.293 962.581 478.293H961.717C957.721 478.293 957.721 480.669 957.721 482.613V483.477C957.721 485.421 957.721 487.797 962.149 487.797Z" fill="#363636"/>
<path d="M977.985 479.013V478.509H975.933C974.637 480.237 973.881 481.245 973.881 482.181H970.641V478.509H968.805V487.581H970.641V483.909H973.881C973.881 484.845 974.637 485.853 975.933 487.581H977.985V487.077L974.943 483.045L977.985 479.013Z" fill="#363636"/>
<path d="M967.581 510.712V511.36H969.741C972.009 508.336 973.197 506.752 973.197 505.852H974.709C974.709 506.752 975.897 508.336 978.165 511.36H980.325V510.712L976.023 504.988L980.325 499.264V498.616H978.165C975.897 501.64 974.709 503.224 974.709 504.124H973.197C973.197 503.224 972.009 501.64 969.741 498.616H967.581V499.264L971.883 504.988L967.581 510.712Z" fill="#363636"/>
<path d="M990.048 511.576L991.416 510.55C990.768 509.686 990.768 509.686 990.768 507.904V506.392C990.768 504.232 990.768 502.072 986.556 502.072C985.908 502.072 984.504 502.072 982.776 502.504V504.232H983.208L984.936 503.8H986.556C988.932 503.8 988.932 503.8 988.932 506.068H986.556C982.02 506.068 982.02 507.58 982.02 508.984C982.02 509.848 982.02 511.576 985.26 511.576C987.492 511.576 988.698 510.676 989.13 510.352L990.048 511.576ZM984.072 508.768C984.072 507.472 984.072 507.472 986.556 507.472H988.932V509.2L986.34 509.848H985.368C984.072 509.848 984.072 509.848 984.072 508.768Z" fill="#363636"/>
<path d="M999.806 500.776C1000.78 500.542 1001.73 500.29 1002.07 498.94L1002.18 498.508L1000.45 498.076C1000.24 498.724 1000.26 498.724 999.374 498.94L997.214 499.48C993.542 500.398 993.542 502.828 993.542 505.636V506.338C993.542 509.362 993.542 511.576 997.97 511.576H998.834C1003.15 511.576 1003.15 509.416 1003.15 507.796V506.824C1003.15 505.204 1003.15 503.044 999.266 503.044C996.674 503.044 995.81 503.638 995.414 504.124L995.09 504.016C995.63 501.856 995.63 501.82 997.646 501.316L999.806 500.776ZM998.402 504.646C1001.21 504.646 1001.21 505.042 1001.21 507.31C1001.21 509.578 1001.21 509.974 998.258 509.974C995.594 509.974 995.594 509.578 995.594 507.31C995.594 505.042 995.594 504.646 998.402 504.646Z" fill="#363636"/>
<path d="M1013.2 511.576L1014.57 510.55C1013.92 509.686 1013.92 509.686 1013.92 507.904V506.392C1013.92 504.232 1013.92 502.072 1009.71 502.072C1009.06 502.072 1007.65 502.072 1005.93 502.504V504.232H1006.36L1008.09 503.8H1009.71C1012.08 503.8 1012.08 503.8 1012.08 506.068H1009.71C1005.17 506.068 1005.17 507.58 1005.17 508.984C1005.17 509.848 1005.17 511.576 1008.41 511.576C1010.64 511.576 1011.85 510.676 1012.28 510.352L1013.2 511.576ZM1007.22 508.768C1007.22 507.472 1007.22 507.472 1009.71 507.472H1012.08V509.2L1009.49 509.848H1008.52C1007.22 509.848 1007.22 509.848 1007.22 508.768Z" fill="#363636"/>
<path d="M1016.91 502.288V515.032H1018.74V511.144C1019.61 511.36 1020.47 511.576 1022.09 511.576C1026.2 511.576 1026.2 508.768 1026.2 507.256V506.392C1026.2 504.664 1026.2 502.072 1022.31 502.072C1020.15 502.072 1018.96 502.972 1018.53 503.296L1017.77 502.288H1016.91ZM1024.25 506.824C1024.25 509.83 1024.25 509.848 1021.34 509.848C1020.69 509.848 1019.61 509.848 1018.74 509.632V504.448L1021.34 503.8H1021.64C1024.25 503.8 1024.25 503.908 1024.25 506.824Z" fill="#363636"/>
<path d="M1030.37 506.824C1030.37 503.8 1030.37 503.71 1033.18 503.71C1035.99 503.71 1035.99 503.8 1035.99 506.824C1035.99 509.848 1035.99 509.938 1033.18 509.938C1030.37 509.938 1030.37 509.848 1030.37 506.824ZM1028.43 507.256C1028.43 508.984 1028.43 511.576 1032.75 511.576H1033.61C1037.93 511.576 1037.93 508.984 1037.93 507.256V506.392C1037.93 504.664 1037.93 502.072 1033.61 502.072H1032.75C1028.43 502.072 1028.43 504.664 1028.43 506.392V507.256Z" fill="#363636"/>
<path d="M1040.6 511.36H1044.8C1046.96 511.36 1049.14 511.36 1049.14 509.092C1049.14 508.336 1048.96 507.364 1047.23 506.932V506.716C1048.96 506.284 1048.96 505.312 1048.96 504.556C1048.96 502.288 1046.96 502.288 1044.8 502.288H1040.6V511.36ZM1045.46 507.472C1047.07 507.472 1047.08 507.472 1047.08 508.66C1047.08 509.83 1047.08 509.848 1045.46 509.848H1042.44V507.472H1045.46ZM1045.28 503.8C1046.89 503.8 1046.9 503.8 1046.9 504.988C1046.9 506.158 1046.9 506.176 1045.28 506.176H1042.44V503.8H1045.28Z" fill="#363636"/>
<path d="M1055.8 511.576C1056.44 511.576 1057.85 511.576 1059.58 511.144V509.416H1059.14L1057.4 509.848H1056.44C1053.31 509.848 1053.31 509.848 1053.31 506.824C1053.31 503.8 1053.31 503.8 1055.8 503.8C1057.85 503.8 1057.85 503.8 1058.28 505.528L1060.01 505.096C1060.01 504.232 1060.01 502.072 1056.23 502.072H1055.36C1051.37 502.072 1051.37 504.448 1051.37 506.392V507.256C1051.37 509.2 1051.37 511.576 1055.8 511.576Z" fill="#363636"/>
<path d="M1071.63 502.792V502.288H1069.58C1068.28 504.016 1067.53 505.024 1067.53 505.96H1064.29V502.288H1062.45V511.36H1064.29V507.688H1067.53C1067.53 508.624 1068.28 509.632 1069.58 511.36H1071.63V510.856L1068.59 506.824L1071.63 502.792Z" fill="#363636"/>
<path d="M770.835 481.172V487.652L768.243 488.3H767.487C764.247 488.3 764.247 488.3 764.247 485.06V481.172H762.303V485.06C762.303 487.652 762.303 490.244 766.407 490.244C767.811 490.244 769.107 489.92 770.835 489.488V493.916H772.779V481.172H770.835Z" fill="#363636"/>
<path d="M778.697 493.916C783.395 487.67 783.395 487.346 783.395 486.392H783.863V493.916H785.699V484.844H783.215C778.517 491.09 778.517 491.414 778.517 492.368H778.031V484.844H776.195V493.916H778.697Z" fill="#363636"/>
<path d="M796.952 484.844H787.88V486.428H791.462V493.916H793.37V486.428H796.952V484.844Z" fill="#363636"/>
<path d="M806.622 494.132L807.99 493.106C807.342 492.242 807.342 492.242 807.342 490.46V488.948C807.342 486.788 807.342 484.628 803.13 484.628C802.482 484.628 801.078 484.628 799.35 485.06V486.788H799.782L801.51 486.356H803.13C805.506 486.356 805.506 486.356 805.506 488.624H803.13C798.594 488.624 798.594 490.136 798.594 491.54C798.594 492.404 798.594 494.132 801.834 494.132C804.066 494.132 805.272 493.232 805.704 492.908L806.622 494.132ZM800.646 491.324C800.646 490.028 800.646 490.028 803.13 490.028H805.506V491.756L802.914 492.404H801.942C800.646 492.404 800.646 492.404 800.646 491.324Z" fill="#363636"/>
<path d="M604.944 516.368V506H603V518.744H605.34L610.686 510.932C611.586 509.618 611.658 508.988 611.658 508.376H612.216V518.744H614.16V506H611.82L606.258 514.19C605.538 515.252 605.502 515.81 605.502 516.368H604.944Z" fill="#363636"/>
<path d="M617.582 509.672V522.416H619.418V518.528C620.282 518.744 621.146 518.96 622.766 518.96C626.87 518.96 626.87 516.152 626.87 514.64V513.776C626.87 512.048 626.87 509.456 622.982 509.456C620.822 509.456 619.634 510.356 619.202 510.68L618.446 509.672H617.582ZM624.926 514.208C624.926 517.214 624.926 517.232 622.01 517.232C621.362 517.232 620.282 517.232 619.418 517.016V511.832L622.01 511.184H622.316C624.926 511.184 624.926 511.292 624.926 514.208Z" fill="#363636"/>
<path d="M638.715 510.176V509.672H636.663C635.367 511.4 634.611 512.408 634.611 513.344H631.371V509.672H629.535V518.744H631.371V515.072H634.611C634.611 516.008 635.367 517.016 636.663 518.744H638.715V518.24L635.673 514.208L638.715 510.176Z" fill="#363636"/>
<path d="M644.055 516.8C644.055 516.152 644.055 516.152 642.201 511.292V509.672H640.257C640.257 511.562 640.257 511.562 643.137 518.312H644.955L644.307 520.04C643.965 520.904 643.821 520.904 642.795 520.904H641.373V522.632H642.309C643.713 522.632 645.117 522.578 645.927 520.616L648.915 512.57C649.329 511.562 649.329 511.562 649.329 510.032V509.672H647.439V511.292C645.729 516.188 645.747 516.188 645.747 516.8H644.055Z" fill="#363636"/>
<path d="M659.609 509.672H650.537V511.256H654.119V518.744H656.027V511.256H659.609V509.672Z" fill="#363636"/>
<path d="M665.787 518.96C666.435 518.96 667.839 518.96 669.567 518.528V516.8H669.135L667.389 517.232H666.435C663.303 517.232 663.303 517.232 663.303 514.208C663.303 511.184 663.303 511.184 665.787 511.184C667.839 511.184 667.839 511.184 668.271 512.912L669.999 512.48C669.999 511.616 669.999 509.456 666.219 509.456H665.355C661.359 509.456 661.359 511.832 661.359 513.776V514.64C661.359 516.584 661.359 518.96 665.787 518.96Z" fill="#363636"/>
<path d="M681.624 510.176V509.672H679.572C678.276 511.4 677.52 512.408 677.52 513.344H674.28V509.672H672.444V518.744H674.28V515.072H677.52C677.52 516.008 678.276 517.016 679.572 518.744H681.624V518.24L678.582 514.208L681.624 510.176Z" fill="#363636"/>
<path d="M554 457V458.728H558.482V469.744H560.426V458.728H564.908V457H554Z" fill="#363636"/>
<path d="M573.5 469.96L574.868 468.934C574.22 468.07 574.22 468.07 574.22 466.288V464.776C574.22 462.616 574.22 460.456 570.008 460.456C569.36 460.456 567.956 460.456 566.228 460.888V462.616H566.66L568.388 462.184H570.008C572.384 462.184 572.384 462.184 572.384 464.452H570.008C565.472 464.452 565.472 465.964 565.472 467.368C565.472 468.232 565.472 469.96 568.712 469.96C570.944 469.96 572.15 469.06 572.582 468.736L573.5 469.96ZM567.524 467.152C567.524 465.856 567.524 465.856 570.008 465.856H572.384V467.584L569.792 468.232H568.82C567.524 468.232 567.524 468.232 567.524 467.152Z" fill="#363636"/>
<path d="M582.556 459.304C583.78 459.304 584.644 459.304 585.778 457.972L584.482 457C583.906 457.792 583.888 457.792 582.898 457.792H581.206C580.234 457.792 580.216 457.792 579.622 457L578.326 457.972C579.46 459.304 580.324 459.304 581.548 459.304H582.556ZM579.712 469.744C584.41 463.498 584.41 463.174 584.41 462.22H584.878V469.744H586.714V460.672H584.23C579.532 466.918 579.532 467.242 579.532 468.196H579.046V460.672H577.21V469.744H579.712Z" fill="#363636"/>
<path d="M602.413 468.232H597.949V460.672H596.113V468.232H591.649V460.672H589.813V469.744H604.249V460.672H602.413V468.232Z" fill="#363636"/>
<path d="M611.335 468.232C608.851 468.232 608.851 468.232 608.851 465.964H611.335C613.927 465.964 614.359 465.964 615.331 465.748L615.763 465.64V464.776C615.763 463.048 615.763 460.456 611.767 460.456H610.903C606.907 460.456 606.907 463.048 606.907 464.776V465.64C606.907 467.584 606.907 469.96 611.335 469.96C612.091 469.96 613.387 469.96 615.115 469.528V467.8H614.683L612.955 468.232H611.335ZM608.851 464.56C608.851 462.184 608.851 462.184 611.335 462.184C613.819 462.184 613.819 462.184 613.819 464.56H608.851Z" fill="#363636"/>
<path d="M626.584 460.672H617.512V462.256H621.094V469.744H623.002V462.256H626.584V460.672Z" fill="#363636"/>
<path d="M672.944 455.04V451.728H680.504V450H671V462.744H675.536C679.532 462.744 681.584 462.654 681.584 458.892C681.584 455.13 679.532 455.04 675.536 455.04H672.944ZM672.944 456.768H676.832C679.496 456.768 679.532 456.768 679.532 458.892C679.532 460.98 679.532 461.016 676.832 461.016H672.944V456.768Z" fill="#363636"/>
<path d="M684.035 453.672V466.416H685.871V462.528C686.735 462.744 687.599 462.96 689.219 462.96C693.323 462.96 693.323 460.152 693.323 458.64V457.776C693.323 456.048 693.323 453.456 689.435 453.456C687.275 453.456 686.087 454.356 685.655 454.68L684.899 453.672H684.035ZM691.379 458.208C691.379 461.214 691.379 461.232 688.463 461.232C687.815 461.232 686.735 461.232 685.871 461.016V455.832L688.463 455.184H688.769C691.379 455.184 691.379 455.292 691.379 458.208Z" fill="#363636"/>
<path d="M703.477 462.96L704.845 461.934C704.197 461.07 704.197 461.07 704.197 459.288V457.776C704.197 455.616 704.197 453.456 699.985 453.456C699.337 453.456 697.933 453.456 696.205 453.888V455.616H696.637L698.365 455.184H699.985C702.361 455.184 702.361 455.184 702.361 457.452H699.985C695.449 457.452 695.449 458.964 695.449 460.368C695.449 461.232 695.449 462.96 698.689 462.96C700.921 462.96 702.127 462.06 702.559 461.736L703.477 462.96ZM697.501 460.152C697.501 458.856 697.501 458.856 699.985 458.856H702.361V460.584L699.769 461.232H698.797C697.501 461.232 697.501 461.232 697.501 460.152Z" fill="#363636"/>
<path d="M715.34 453.672H706.268V455.256H709.85V462.744H711.758V455.256H715.34V453.672Z" fill="#363636"/>
<path d="M721.518 462.96C722.166 462.96 723.57 462.96 725.298 462.528V460.8H724.866L723.12 461.232H722.166C719.034 461.232 719.034 461.232 719.034 458.208C719.034 455.184 719.034 455.184 721.518 455.184C723.57 455.184 723.57 455.184 724.002 456.912L725.73 456.48C725.73 455.616 725.73 453.456 721.95 453.456H721.086C717.09 453.456 717.09 455.832 717.09 457.776V458.64C717.09 460.584 717.09 462.96 721.518 462.96Z" fill="#363636"/>
<path d="M737.354 454.176V453.672H735.302C734.006 455.4 733.25 456.408 733.25 457.344H730.01V453.672H728.174V462.744H730.01V459.072H733.25C733.25 460.008 734.006 461.016 735.302 462.744H737.354V462.24L734.312 458.208L737.354 454.176Z" fill="#363636"/>
<path d="M729.77 415.02C729.77 414.156 729.77 414.156 726.908 408H725V408.648L728.78 416.586H731.336L730.706 417.936C730.202 419.016 729.968 419.016 728.672 419.016H727.034V420.744H728.24C730.526 420.744 731.534 420.744 732.65 418.152L736.736 408.648V408H734.882C732.29 414.156 732.29 414.156 732.326 415.02H729.77Z" fill="#363636"/>
<path d="M741.48 420.96C742.128 420.96 743.532 420.96 745.26 420.528V418.8H744.828L743.082 419.232H742.128C738.996 419.232 738.996 419.232 738.996 416.208C738.996 413.184 738.996 413.184 741.48 413.184C743.532 413.184 743.532 413.184 743.964 414.912L745.692 414.48C745.692 413.616 745.692 411.456 741.912 411.456H741.048C737.052 411.456 737.052 413.832 737.052 415.776V416.64C737.052 418.584 737.052 420.96 741.48 420.96Z" fill="#363636"/>
<path d="M756.291 411.672H747.219V413.256H750.801V420.744H752.709V413.256H756.291V411.672Z" fill="#363636"/>
<path d="M762.793 420.744C764.953 420.744 766.897 420.744 766.897 417.72C766.897 416.64 766.897 414.48 763.009 414.48C762.145 414.48 761.173 414.588 760.309 414.804V411.672H758.473V420.744H762.793ZM763.009 416.208C764.953 416.208 764.953 416.208 764.953 417.72C764.953 419.232 764.953 419.232 763.009 419.232H760.309V416.208H763.009Z" fill="#363636"/>
<path d="M768.148 414.804V416.424H773.548V414.804H768.148Z" fill="#363636"/>
<path d="M786.721 408.504V408H784.741L783.697 409.332C781.591 412.032 781.285 412.806 781.285 413.328H777.721V408H775.777V420.744H777.721V415.056H781.285C781.285 415.614 781.771 416.424 783.787 419.358L784.741 420.744H786.901V419.952L782.599 414.048L786.721 408.504Z" fill="#363636"/>
<path d="M791.695 418.8C791.695 418.152 791.695 418.152 789.841 413.292V411.672H787.897C787.897 413.562 787.897 413.562 790.777 420.312H792.595L791.947 422.04C791.605 422.904 791.461 422.904 790.435 422.904H789.013V424.632H789.949C791.353 424.632 792.757 424.578 793.567 422.616L796.555 414.57C796.969 413.562 796.969 413.562 796.969 412.032V411.672H795.079V413.292C793.369 418.188 793.387 418.188 793.387 418.8H791.695Z" fill="#363636"/>
<path d="M807.25 411.672H798.178V413.256H801.76V420.744H803.668V413.256H807.25V411.672Z" fill="#363636"/>
<path d="M909.856 364.328H902.944V359H901V371.744H902.944V366.056H909.856V371.744H911.8V359H909.856V364.328Z" fill="#363636"/>
<path d="M919.209 370.232C916.725 370.232 916.725 370.232 916.725 367.964H919.209C921.801 367.964 922.233 367.964 923.205 367.748L923.637 367.64V366.776C923.637 365.048 923.637 362.456 919.641 362.456H918.777C914.781 362.456 914.781 365.048 914.781 366.776V367.64C914.781 369.584 914.781 371.96 919.209 371.96C919.965 371.96 921.261 371.96 922.989 371.528V369.8H922.557L920.829 370.232H919.209ZM916.725 366.56C916.725 364.184 916.725 364.184 919.209 364.184C921.693 364.184 921.693 364.184 921.693 366.56H916.725Z" fill="#363636"/>
<path d="M926.305 362.672V375.416H928.141V371.528C929.005 371.744 929.869 371.96 931.489 371.96C935.593 371.96 935.593 369.152 935.593 367.64V366.776C935.593 365.048 935.593 362.456 931.705 362.456C929.545 362.456 928.357 363.356 927.925 363.68L927.169 362.672H926.305ZM933.649 367.208C933.649 370.214 933.649 370.232 930.733 370.232C930.085 370.232 929.005 370.232 928.141 370.016V364.832L930.733 364.184H931.039C933.649 364.184 933.649 364.292 933.649 367.208Z" fill="#363636"/>
<path d="M938.258 362.672V371.744H940.094V367.964H942.902C942.902 369.584 942.902 371.96 947.222 371.96H948.086C952.406 371.96 952.406 369.584 952.406 367.64V366.776C952.406 364.832 952.406 362.456 948.086 362.456H947.222C942.902 362.456 942.902 364.832 942.902 366.452H940.094V362.672H938.258ZM944.846 367.208C944.846 364.184 944.846 364.184 947.654 364.184C950.462 364.184 950.462 364.184 950.462 367.208C950.462 370.232 950.462 370.232 947.654 370.232C944.846 370.232 944.846 370.232 944.846 367.208Z" fill="#363636"/>
<path d="M962.191 362.672V366.326H956.899V362.672H955.063V371.744H956.899V367.91H962.191V371.744H964.027V362.672H962.191Z" fill="#363636"/>
<path d="M974.429 362.672H967.121V371.744H968.957V364.256H974.429V362.672Z" fill="#363636"/>
<path d="M976.42 362.672V375.416H978.256V371.528C979.12 371.744 979.984 371.96 981.604 371.96C985.708 371.96 985.708 369.152 985.708 367.64V366.776C985.708 365.048 985.708 362.456 981.82 362.456C979.66 362.456 978.472 363.356 978.04 363.68L977.284 362.672H976.42ZM983.764 367.208C983.764 370.214 983.764 370.232 980.848 370.232C980.2 370.232 979.12 370.232 978.256 370.016V364.832L980.848 364.184H981.154C983.764 364.184 983.764 364.292 983.764 367.208Z" fill="#363636"/>
<path d="M990.875 371.744C995.573 365.498 995.573 365.174 995.573 364.22H996.041V371.744H997.877V362.672H995.393C990.695 368.918 990.695 369.242 990.695 370.196H990.209V362.672H988.373V371.744H990.875Z" fill="#363636"/>
<path d="M1001.14 382.752V382.248H999.155L998.111 383.58C996.005 386.28 995.699 387.054 995.699 387.576H992.135V382.248H990.191V394.992H992.135V389.304H995.699C995.699 389.862 996.185 390.672 998.201 393.606L999.155 394.992H1001.32V394.2L997.013 388.296L1001.14 382.752Z" fill="#363636"/>
<path d="M1004.84 390.456C1004.84 387.432 1004.84 387.342 1007.65 387.342C1010.46 387.342 1010.46 387.432 1010.46 390.456C1010.46 393.48 1010.46 393.57 1007.65 393.57C1004.84 393.57 1004.84 393.48 1004.84 390.456ZM1002.9 390.888C1002.9 392.616 1002.9 395.208 1007.22 395.208H1008.08C1012.4 395.208 1012.4 392.616 1012.4 390.888V390.024C1012.4 388.296 1012.4 385.704 1008.08 385.704H1007.22C1002.9 385.704 1002.9 388.296 1002.9 390.024V390.888Z" fill="#363636"/>
<path d="M1015.07 385.92V394.992H1016.91V387.54H1017.38C1017.38 387.972 1017.38 387.972 1020.19 394.992H1022.6C1025.41 387.972 1025.41 387.972 1025.41 387.432H1025.87V394.992H1027.71V385.92H1024.43C1021.63 392.67 1021.63 392.67 1021.63 393.48H1021.16C1021.16 392.67 1021.16 392.67 1018.35 385.92H1015.07Z" fill="#363636"/>
<path d="M1034.8 395.208C1035.45 395.208 1036.85 395.208 1038.58 394.776V393.048H1038.15L1036.4 393.48H1035.45C1032.32 393.48 1032.32 393.48 1032.32 390.456C1032.32 387.432 1032.32 387.432 1034.8 387.432C1036.85 387.432 1036.85 387.432 1037.29 389.16L1039.01 388.728C1039.01 387.864 1039.01 385.704 1035.23 385.704H1034.37C1030.37 385.704 1030.37 388.08 1030.37 390.024V390.888C1030.37 392.832 1030.37 395.208 1034.8 395.208Z" fill="#363636"/>
<path d="M1042.97 390.456C1042.97 387.432 1042.97 387.342 1045.78 387.342C1048.59 387.342 1048.59 387.432 1048.59 390.456C1048.59 393.48 1048.59 393.57 1045.78 393.57C1042.97 393.57 1042.97 393.48 1042.97 390.456ZM1041.03 390.888C1041.03 392.616 1041.03 395.208 1045.35 395.208H1046.21C1050.53 395.208 1050.53 392.616 1050.53 390.888V390.024C1050.53 388.296 1050.53 385.704 1046.21 385.704H1045.35C1041.03 385.704 1041.03 388.296 1041.03 390.024V390.888Z" fill="#363636"/>
<path d="M1053.2 385.92V394.992H1055.04V387.54H1055.51C1055.51 387.972 1055.51 387.972 1058.31 394.992H1060.73C1063.53 387.972 1063.53 387.972 1063.53 387.432H1064V394.992H1065.84V385.92H1062.56C1059.75 392.67 1059.75 392.67 1059.75 393.48H1059.29C1059.29 392.67 1059.29 392.67 1056.48 385.92H1053.2Z" fill="#363636"/>
<path d="M1070.45 390.456C1070.45 387.432 1070.45 387.342 1073.25 387.342C1076.06 387.342 1076.06 387.432 1076.06 390.456C1076.06 393.48 1076.06 393.57 1073.25 393.57C1070.45 393.57 1070.45 393.48 1070.45 390.456ZM1068.5 390.888C1068.5 392.616 1068.5 395.208 1072.82 395.208H1073.69C1078.01 395.208 1078.01 392.616 1078.01 390.888V390.024C1078.01 388.296 1078.01 385.704 1073.69 385.704H1072.82C1068.5 385.704 1068.5 388.296 1068.5 390.024V390.888Z" fill="#363636"/>
<path d="M1087.5 387.522V394.992H1089.33V385.92H1082.01C1081.95 387.792 1081.85 389.34 1081.52 391.68C1081.31 393.246 1081.13 393.552 1079.58 393.552V395.028C1082.49 395.028 1082.8 394.686 1083.16 392.004C1083.43 390.024 1083.56 388.638 1083.59 387.522H1087.5Z" fill="#363636"/>
<path d="M1096.76 394.992C1098.92 394.992 1100.86 394.992 1100.86 391.968C1100.86 390.888 1100.86 388.728 1096.97 388.728C1096.11 388.728 1095.14 388.836 1094.27 389.052V385.92H1092.44V394.992H1096.76ZM1096.97 390.456C1098.92 390.456 1098.92 390.456 1098.92 391.968C1098.92 393.48 1098.92 393.48 1096.97 393.48H1094.27V390.456H1096.97Z" fill="#363636"/>
<path d="M1107.29 395.208C1107.94 395.208 1109.35 395.208 1111.07 394.776V393.048H1110.64L1108.9 393.48H1107.94C1104.81 393.48 1104.81 393.48 1104.81 390.456C1104.81 387.432 1104.81 387.432 1107.29 387.432C1109.35 387.432 1109.35 387.432 1109.78 389.16L1111.51 388.728C1111.51 387.864 1111.51 385.704 1107.73 385.704H1106.86C1102.87 385.704 1102.87 388.08 1102.87 390.024V390.888C1102.87 392.832 1102.87 395.208 1107.29 395.208Z" fill="#363636"/>
<path d="M1123.13 386.424V385.92H1121.08C1119.78 387.648 1119.03 388.656 1119.03 389.592H1115.79V385.92H1113.95V394.992H1115.79V391.32H1119.03C1119.03 392.256 1119.78 393.264 1121.08 394.992H1123.13V394.488L1120.09 390.456L1123.13 386.424Z" fill="#363636"/>
<path d="M1124.28 389.052V390.672H1129.68V389.052H1124.28Z" fill="#363636"/>
<path d="M996.995 406.92V410.574H991.703V406.92H989.867V415.992H991.703V412.158H996.995V415.992H998.831V406.92H996.995Z" fill="#363636"/>
<path d="M1009.41 416.208L1010.78 415.182C1010.13 414.318 1010.13 414.318 1010.13 412.536V411.024C1010.13 408.864 1010.13 406.704 1005.92 406.704C1005.27 406.704 1003.87 406.704 1002.14 407.136V408.864H1002.57L1004.3 408.432H1005.92C1008.3 408.432 1008.3 408.432 1008.3 410.7H1005.92C1001.39 410.7 1001.39 412.212 1001.39 413.616C1001.39 414.48 1001.39 416.208 1004.63 416.208C1006.86 416.208 1008.06 415.308 1008.5 414.984L1009.41 416.208ZM1003.44 413.4C1003.44 412.104 1003.44 412.104 1005.92 412.104H1008.3V413.832L1005.71 414.48H1004.73C1003.44 414.48 1003.44 414.48 1003.44 413.4Z" fill="#363636"/>
<path d="M1011.94 410.052V411.672H1017.34V410.052H1011.94Z" fill="#363636"/>
<path d="M1022.77 403.248L1017.94 415.308V415.992H1019.82L1021.11 412.752H1028.17L1029.46 415.992H1031.34V415.308L1026.51 403.248H1022.77ZM1023.7 404.976H1025.58C1025.58 406.272 1026.01 407.352 1027.52 411.132H1021.76C1023.27 407.352 1023.7 406.272 1023.7 404.976Z" fill="#363636"/>
<path d="M1033.21 406.92V415.992H1035.05V408.54H1035.52C1035.52 408.972 1035.52 408.972 1038.33 415.992H1040.74C1043.55 408.972 1043.55 408.972 1043.55 408.432H1044.01V415.992H1045.85V406.92H1042.57C1039.77 413.67 1039.77 413.67 1039.77 414.48H1039.3C1039.3 413.67 1039.3 413.67 1036.49 406.92H1033.21Z" fill="#363636"/>
<path d="M1051.95 414.048C1051.95 413.4 1051.95 413.4 1050.1 408.54V406.92H1048.16C1048.16 408.81 1048.16 408.81 1051.04 415.56H1052.85L1052.21 417.288C1051.86 418.152 1051.72 418.152 1050.69 418.152H1049.27V419.88H1050.21C1051.61 419.88 1053.02 419.826 1053.83 417.864L1056.81 409.818C1057.23 408.81 1057.23 408.81 1057.23 407.28V406.92H1055.34V408.54C1053.63 413.436 1053.65 413.436 1053.65 414.048H1051.95Z" fill="#363636"/>
<path d="M1059.35 406.92V419.664H1061.19V415.776C1062.05 415.992 1062.92 416.208 1064.54 416.208C1068.64 416.208 1068.64 413.4 1068.64 411.888V411.024C1068.64 409.296 1068.64 406.704 1064.75 406.704C1062.59 406.704 1061.41 407.604 1060.97 407.928L1060.22 406.92H1059.35ZM1066.7 411.456C1066.7 414.462 1066.7 414.48 1063.78 414.48C1063.13 414.48 1062.05 414.48 1061.19 414.264V409.08L1063.78 408.432H1064.09C1066.7 408.432 1066.7 408.54 1066.7 411.456Z" fill="#363636"/>
<path d="M1075.3 414.48C1072.82 414.48 1072.82 414.48 1072.82 412.212H1075.3C1077.89 412.212 1078.33 412.212 1079.3 411.996L1079.73 411.888V411.024C1079.73 409.296 1079.73 406.704 1075.73 406.704H1074.87C1070.87 406.704 1070.87 409.296 1070.87 411.024V411.888C1070.87 413.832 1070.87 416.208 1075.3 416.208C1076.06 416.208 1077.35 416.208 1079.08 415.776V414.048H1078.65L1076.92 414.48H1075.3ZM1072.82 410.808C1072.82 408.432 1072.82 408.432 1075.3 408.432C1077.79 408.432 1077.79 408.432 1077.79 410.808H1072.82Z" fill="#363636"/>
<path d="M917 387V388.728H921.482V399.744H923.426V388.728H927.908V387H917Z" fill="#363636"/>
<path d="M939.37 390.672V399.744H941.206V390.672H939.37ZM929.434 399.744H933.322C935.59 399.744 937.534 399.744 937.534 396.72C937.534 395.64 937.534 393.48 933.754 393.48C932.998 393.48 932.134 393.588 931.27 393.804V390.672H929.434V399.744ZM933.538 395.208C935.59 395.208 935.59 395.208 935.59 396.72C935.59 398.232 935.59 398.232 933.538 398.232H931.27V395.208H933.538Z" fill="#363636"/>
<path d="M951.433 390.672V394.326H946.141V390.672H944.305V399.744H946.141V395.91H951.433V399.744H953.269V390.672H951.433Z" fill="#363636"/>
<path d="M957.21 399.744H965.112V402.336H966.876V398.232H965.364V390.672H957.984V391.752C957.984 393.894 957.75 396.18 956.688 398.232H955.446V402.336H957.21V399.744ZM959.748 392.256H963.528V398.232H958.668C959.532 396.162 959.748 393.966 959.748 392.256Z" fill="#363636"/>
<path d="M976.543 399.96L977.911 398.934C977.263 398.07 977.263 398.07 977.263 396.288V394.776C977.263 392.616 977.263 390.456 973.051 390.456C972.403 390.456 970.999 390.456 969.271 390.888V392.616H969.703L971.431 392.184H973.051C975.427 392.184 975.427 392.184 975.427 394.452H973.051C968.515 394.452 968.515 395.964 968.515 397.368C968.515 398.232 968.515 399.96 971.755 399.96C973.987 399.96 975.193 399.06 975.625 398.736L976.543 399.96ZM970.567 397.152C970.567 395.856 970.567 395.856 973.051 395.856H975.427V397.584L972.835 398.232H971.863C970.567 398.232 970.567 398.232 970.567 397.152Z" fill="#363636"/>
<path d="M1060.6 442.554C1060.6 441.294 1060.6 438.522 1055.52 438.522H1054.87C1049.58 438.522 1049.58 441.834 1049.58 444.642V445.722C1049.58 448.746 1049.58 451.842 1055.2 451.842C1056.28 451.842 1057.54 451.842 1060.27 451.158V449.286H1059.63L1057.03 449.934H1056.28C1051.74 449.934 1051.74 449.934 1051.74 445.506V444.858C1051.74 440.43 1051.74 440.43 1055.2 440.43C1058.08 440.43 1058.08 440.43 1058.73 443.022L1060.6 442.554Z" fill="#363636"/>
<path d="M1064.56 447.018C1064.56 443.994 1064.56 443.904 1067.37 443.904C1070.18 443.904 1070.18 443.994 1070.18 447.018C1070.18 450.042 1070.18 450.132 1067.37 450.132C1064.56 450.132 1064.56 450.042 1064.56 447.018ZM1062.62 447.45C1062.62 449.178 1062.62 451.77 1066.94 451.77H1067.8C1072.12 451.77 1072.12 449.178 1072.12 447.45V446.586C1072.12 444.858 1072.12 442.266 1067.8 442.266H1066.94C1062.62 442.266 1062.62 444.858 1062.62 446.586V447.45Z" fill="#363636"/>
<path d="M1074.79 451.554H1078.99C1081.15 451.554 1083.33 451.554 1083.33 449.286C1083.33 448.53 1083.15 447.558 1081.42 447.126V446.91C1083.15 446.478 1083.15 445.506 1083.15 444.75C1083.15 442.482 1081.15 442.482 1078.99 442.482H1074.79V451.554ZM1079.65 447.666C1081.26 447.666 1081.27 447.666 1081.27 448.854C1081.27 450.024 1081.27 450.042 1079.65 450.042H1076.63V447.666H1079.65ZM1079.47 443.994C1081.08 443.994 1081.09 443.994 1081.09 445.182C1081.09 446.352 1081.09 446.37 1079.47 446.37H1076.63V443.994H1079.47Z" fill="#363636"/>
<path d="M1093.3 442.482H1085.99V451.554H1087.83V444.066H1093.3V442.482Z" fill="#363636"/>
<path d="M1102.78 451.77L1104.15 450.744C1103.5 449.88 1103.5 449.88 1103.5 448.098V446.586C1103.5 444.426 1103.5 442.266 1099.29 442.266C1098.64 442.266 1097.23 442.266 1095.51 442.698V444.426H1095.94L1097.67 443.994H1099.29C1101.66 443.994 1101.66 443.994 1101.66 446.262H1099.29C1094.75 446.262 1094.75 447.774 1094.75 449.178C1094.75 450.042 1094.75 451.77 1097.99 451.77C1100.22 451.77 1101.43 450.87 1101.86 450.546L1102.78 451.77ZM1096.8 448.962C1096.8 447.666 1096.8 447.666 1099.29 447.666H1101.66V449.394L1099.07 450.042H1098.1C1096.8 450.042 1096.8 450.042 1096.8 448.962Z" fill="#363636"/>
<path d="M1106.49 451.554H1110.68C1112.84 451.554 1115.02 451.554 1115.02 449.286C1115.02 448.53 1114.84 447.558 1113.11 447.126V446.91C1114.84 446.478 1114.84 445.506 1114.84 444.75C1114.84 442.482 1112.84 442.482 1110.68 442.482H1106.49V451.554ZM1111.35 447.666C1112.95 447.666 1112.97 447.666 1112.97 448.854C1112.97 450.024 1112.97 450.042 1111.35 450.042H1108.32V447.666H1111.35ZM1111.17 443.994C1112.77 443.994 1112.79 443.994 1112.79 445.182C1112.79 446.352 1112.79 446.37 1111.17 446.37H1108.32V443.994H1111.17Z" fill="#363636"/>
<path d="M1125.17 451.77L1126.54 450.744C1125.89 449.88 1125.89 449.88 1125.89 448.098V446.586C1125.89 444.426 1125.89 442.266 1121.68 442.266C1121.03 442.266 1119.63 442.266 1117.9 442.698V444.426H1118.33L1120.06 443.994H1121.68C1124.06 443.994 1124.06 443.994 1124.06 446.262H1121.68C1117.14 446.262 1117.14 447.774 1117.14 449.178C1117.14 450.042 1117.14 451.77 1120.38 451.77C1122.62 451.77 1123.82 450.87 1124.25 450.546L1125.17 451.77ZM1119.2 448.962C1119.2 447.666 1119.2 447.666 1121.68 447.666H1124.06V449.394L1121.46 450.042H1120.49C1119.2 450.042 1119.2 450.042 1119.2 448.962Z" fill="#363636"/>
<path d="M1136.01 442.482V446.136H1130.72V442.482H1128.88V451.554H1130.72V447.72H1136.01V451.554H1137.85V442.482H1136.01Z" fill="#363636"/>
<path d="M1145.26 451.554C1147.42 451.554 1149.36 451.554 1149.36 448.53C1149.36 447.45 1149.36 445.29 1145.48 445.29C1144.61 445.29 1143.64 445.398 1142.78 445.614V442.482H1140.94V451.554H1145.26ZM1145.48 447.018C1147.42 447.018 1147.42 447.018 1147.42 448.53C1147.42 450.042 1147.42 450.042 1145.48 450.042H1142.78V447.018H1145.48Z" fill="#363636"/>
</svg>
