<svg width="1152" height="620" viewBox="0 0 1152 620" fill="none" xmlns="http://www.w3.org/2000/svg">
<path d="M644.329 599.145V606.225H646.069V600.825H646.429C646.429 602.025 646.429 602.025 647.689 606.225H649.369C650.629 602.025 650.629 602.025 650.629 600.825H650.989V606.225H652.729V599.145H649.789C648.709 602.745 648.709 602.745 648.709 603.945H648.349C648.349 602.745 648.349 602.745 647.269 599.145H644.329Z" fill="#CBCDD5"/>
<path d="M657.149 600.645C658.349 600.645 658.349 600.645 658.349 602.625V602.745C658.349 604.725 658.349 604.725 657.149 604.725C655.949 604.725 655.949 604.725 655.949 602.745V602.625C655.949 600.645 655.949 600.645 657.149 600.645ZM656.969 598.945C654.029 598.945 654.029 601.545 654.029 602.385V602.985C654.029 603.825 654.029 606.425 656.969 606.425H657.329C660.269 606.425 660.269 603.825 660.269 602.985V602.385C660.269 601.545 660.269 598.945 657.329 598.945H656.969Z" fill="#CBCDD5"/>
<path d="M663.365 599.145H661.565V606.225H663.365V603.465H665.405V606.225H667.205V599.145H665.405V601.905H663.365V599.145Z" fill="#CBCDD5"/>
<path d="M670.601 600.705H673.121V599.145H668.801V606.225H670.601V600.705Z" fill="#CBCDD5"/>
<path d="M676.826 600.645C678.026 600.645 678.026 600.645 678.026 602.625V602.745C678.026 604.725 678.026 604.725 676.826 604.725C675.626 604.725 675.626 604.725 675.626 602.745V602.625C675.626 600.645 675.626 600.645 676.826 600.645ZM676.646 598.945C673.706 598.945 673.706 601.545 673.706 602.385V602.985C673.706 603.825 673.706 606.425 676.646 606.425H677.006C679.946 606.425 679.946 603.825 679.946 602.985V602.385C679.946 601.545 679.946 598.945 677.006 598.945H676.646Z" fill="#CBCDD5"/>
<path d="M681.997 599.145C681.967 601.035 681.947 602.125 681.657 604.115C681.537 604.935 681.237 604.955 680.367 604.955V606.245C682.867 606.245 683.067 606.025 683.287 604.325C683.507 602.575 683.547 601.535 683.567 600.705H684.937V606.225H686.737V599.145H681.997Z" fill="#CBCDD5"/>
<path d="M690.013 603.705V599.145H688.333V606.225H690.493C691.753 603.705 692.293 602.625 692.293 601.665H692.653V606.225H694.333V599.145H692.173C690.913 601.665 690.373 602.745 690.373 603.705H690.013Z" fill="#CBCDD5"/>
<path d="M699.35 602.685H698.21C697.55 602.685 697.55 602.685 697.55 601.705C697.55 600.705 697.55 600.705 698.21 600.705H699.35V602.685ZM695.53 605.625V606.225H697.45C697.96 605.545 698.26 605.145 698.26 604.245H699.35V606.225H701.15V599.145H698.69C697.55 599.145 695.63 599.145 695.63 601.485C695.63 602.825 696.07 603.155 696.91 603.785L695.53 605.625Z" fill="#CBCDD5"/>
<path d="M950.363 576.611V576.011H948.443C947.603 577.131 947.003 577.931 947.003 578.771H946.343V576.011H944.543V583.091H946.343V580.331H947.003C947.003 581.171 947.603 581.971 948.443 583.091H950.363V582.491L948.143 579.551L950.363 576.611Z" fill="#CBCDD5"/>
<path d="M952.981 580.571V576.011H951.301V583.091H953.461C954.721 580.571 955.261 579.491 955.261 578.531H955.621V583.091H957.301V576.011H955.141C953.881 578.531 953.341 579.611 953.341 580.571H952.981Z" fill="#CBCDD5"/>
<path d="M958.179 576.011V577.571H960.099V583.091H961.899V577.571H963.819V576.011H958.179Z" fill="#CBCDD5"/>
<path d="M965.603 576.011L963.443 582.491V583.091H965.123L965.623 581.591H967.983L968.483 583.091H970.223V582.491L968.063 576.011H965.603ZM967.063 577.691C967.063 578.831 967.303 579.551 967.483 580.091H966.123C966.303 579.551 966.543 578.831 966.543 577.691H967.063Z" fill="#CBCDD5"/>
<path d="M972.786 580.571V576.011H971.106V583.091H973.266C974.526 580.571 975.066 579.491 975.066 578.531H975.426V583.091H977.106V576.011H974.946C973.686 578.531 973.146 579.611 973.146 580.571H972.786ZM973.746 574.331C973.156 574.331 973.156 574.331 972.886 573.971L972.086 574.571C972.806 575.531 973.286 575.531 974.046 575.531H974.166C974.926 575.531 975.406 575.531 976.126 574.581L975.326 573.971C975.056 574.331 975.056 574.331 974.466 574.331H973.746Z" fill="#CBCDD5"/>
<path d="M251.589 492.068V491.468H249.669C248.829 492.588 248.229 493.388 248.229 494.228H247.569V491.468H245.769V498.548H247.569V495.788H248.229C248.229 496.628 248.829 497.428 249.669 498.548H251.589V497.948L249.369 495.008L251.589 492.068Z" fill="#CBCDD5"/>
<path d="M253.966 491.468L251.806 497.948V498.548H253.486L253.986 497.048H256.346L256.846 498.548H258.586V497.948L256.426 491.468H253.966ZM255.426 493.148C255.426 494.288 255.666 495.008 255.846 495.548H254.486C254.666 495.008 254.906 494.288 254.906 493.148H255.426Z" fill="#CBCDD5"/>
<path d="M261.53 498.748C264.41 498.748 264.41 497.168 264.41 496.748C264.41 496.388 264.41 495.428 263.21 495.128V494.888C264.41 494.588 264.41 493.628 264.41 493.268C264.41 492.848 264.41 491.268 261.53 491.268C261.05 491.268 260.63 491.268 259.11 491.648V493.308H259.59L260.93 492.948H261.77C262.37 492.948 262.37 492.948 262.37 493.588C262.37 494.228 262.37 494.228 261.77 494.228H260.67V495.788H261.77C262.37 495.788 262.37 495.788 262.37 496.428C262.37 497.068 262.37 497.068 261.77 497.068H260.93L259.59 496.708H259.11V498.368C260.63 498.748 261.05 498.748 261.53 498.748Z" fill="#CBCDD5"/>
<path d="M267.15 491.468L264.99 497.948V498.548H266.67L267.17 497.048H269.53L270.03 498.548H271.77V497.948L269.61 491.468H267.15ZM268.61 493.148C268.61 494.288 268.85 495.008 269.03 495.548H267.67C267.85 495.008 268.09 494.288 268.09 493.148H268.61Z" fill="#CBCDD5"/>
<path d="M278.473 497.958L276.703 495.008L278.473 492.058V491.468H276.613C275.893 492.668 275.533 493.268 275.533 494.228H275.053C275.053 493.268 274.693 492.668 273.973 491.468H272.113V492.058L273.883 495.008L272.113 497.958V498.548H273.973C274.693 497.348 275.053 496.748 275.053 495.788H275.533C275.533 496.748 275.893 497.348 276.613 498.548H278.473V497.958Z" fill="#CBCDD5"/>
<path d="M281.941 491.268C279.121 491.268 279.121 493.808 279.121 494.708V495.308C279.121 496.448 279.121 498.748 282.121 498.748C282.601 498.748 283.121 498.748 284.641 498.368V496.708H284.161L282.721 497.068H282.361C281.041 497.068 281.041 497.068 281.041 495.188V494.828C281.041 492.948 281.041 492.948 282.061 492.948C282.701 492.948 282.701 492.948 283.021 494.228L284.821 493.778C284.821 493.268 284.821 491.268 282.181 491.268H281.941Z" fill="#CBCDD5"/>
<path d="M285.283 491.468V493.028H287.203V498.548H289.003V493.028H290.923V491.468H285.283Z" fill="#CBCDD5"/>
<path d="M292.707 491.468L290.547 497.948V498.548H292.227L292.727 497.048H295.087L295.587 498.548H297.327V497.948L295.167 491.468H292.707ZM294.167 493.148C294.167 494.288 294.407 495.008 294.587 495.548H293.227C293.407 495.008 293.647 494.288 293.647 493.148H294.167Z" fill="#CBCDD5"/>
<path d="M300.01 491.468H298.21V498.548H300.01V495.788H302.05V498.548H303.85V491.468H302.05V494.228H300.01V491.468Z" fill="#CBCDD5"/>
<path d="M403.571 237.554H411.131C416.675 237.554 416.747 237.554 416.747 242.954C416.747 248.282 416.747 248.354 411.131 248.354H403.571V237.554ZM399.683 259.586H403.571V251.81H408.539C416.747 251.81 420.851 251.81 420.851 242.954C420.851 234.098 416.747 234.098 408.539 234.098H399.683V259.586Z" fill="#CBCDD5"/>
<path d="M436.764 233.522C425.532 233.522 425.532 240.146 425.532 245.762V247.922C425.532 253.538 425.532 260.162 436.764 260.162H438.636C449.868 260.162 449.868 253.538 449.868 247.922V245.762C449.868 240.146 449.868 233.522 438.636 233.522H436.764ZM429.852 246.41C429.852 237.374 429.852 237.05 437.7 237.05C445.512 237.05 445.548 237.338 445.548 246.41V247.274C445.548 256.31 445.548 256.634 437.7 256.634C429.888 256.634 429.852 256.346 429.852 247.274V246.41Z" fill="#CBCDD5"/>
<path d="M477.236 241.586C477.236 239.066 477.236 233.522 467.084 233.522H465.788C455.204 233.522 455.204 240.146 455.204 245.762V247.922C455.204 253.97 455.204 260.162 466.436 260.162C468.596 260.162 471.116 260.162 476.588 258.794V255.05H475.292L470.108 256.346H468.596C459.524 256.346 459.524 256.346 459.524 247.49V246.194C459.524 237.338 459.524 237.338 466.436 237.338C472.196 237.338 472.196 237.338 473.492 242.522L477.236 241.586Z" fill="#CBCDD5"/>
<path d="M503.744 241.586C503.744 239.066 503.744 233.522 493.592 233.522H492.296C481.712 233.522 481.712 240.146 481.712 245.762V247.922C481.712 253.97 481.712 260.162 492.944 260.162C495.104 260.162 497.624 260.162 503.096 258.794V255.05H501.8L496.616 256.346H495.104C486.032 256.346 486.032 256.346 486.032 247.49V246.194C486.032 237.338 486.032 237.338 492.944 237.338C498.704 237.338 498.704 237.338 500 242.522L503.744 241.586Z" fill="#CBCDD5"/>
<path d="M513.188 254.834V234.098H509.3V259.586H513.98L524.672 243.962C526.472 241.334 526.616 240.074 526.616 238.85H527.732V259.586H531.62V234.098H526.94L515.816 250.478C514.376 252.602 514.304 253.718 514.304 254.834H513.188Z" fill="#CBCDD5"/>
<path d="M555.744 247.49H547.896C542.712 247.49 542.712 247.49 542.712 242.522C542.712 237.554 542.712 237.554 547.896 237.554H555.744V247.49ZM537.636 258.29V259.586H541.956C544.548 256.13 546.168 253.97 546.168 250.946H555.744V259.586H559.632V234.098H551.352C542.712 234.098 538.392 234.098 538.392 242.522C538.392 247.382 539.688 248.354 543.144 250.946L537.636 258.29Z" fill="#CBCDD5"/>
</svg>
