<svg width="1152" height="620" viewBox="0 0 1152 620" fill="none" xmlns="http://www.w3.org/2000/svg">
<path fill-rule="evenodd" clip-rule="evenodd" d="M68.5784 184.471C68.6339 184.529 68.6635 184.547 68.6635 184.547C68.6634 184.547 68.6637 184.547 68.6635 184.547C70.8657 185.843 76.7955 189.323 81.5561 191.896L81.5637 191.9L81.5713 191.905C84.0528 193.283 86.1018 195.192 87.9512 196.915L88.0281 196.987C89.9525 198.78 91.646 200.341 93.5642 201.329C96.3007 202.739 97.6109 205.715 98.6718 208.994C99.0894 210.285 99.4729 211.635 99.8783 213.061C100.573 215.507 101.332 218.178 102.437 221.164C103.203 223.236 104.16 223.952 105.011 224.191C105.973 224.46 107.251 224.256 108.873 223.57C110.468 222.896 112.145 221.869 113.825 220.814C113.958 220.731 114.091 220.648 114.224 220.564C115.715 219.626 117.244 218.663 118.559 218.104C121.238 216.966 125.939 215.424 130.757 214.122C135.55 212.827 140.618 211.724 144.016 211.518C147.806 211.22 150.777 212.997 153.524 214.822C153.858 215.044 154.19 215.268 154.522 215.491C157.003 217.163 159.468 218.823 162.646 219.724C166.215 220.735 168.911 220.335 170.681 219.731C171.575 219.426 172.245 219.065 172.682 218.789C172.9 218.651 173.059 218.535 173.156 218.46C173.205 218.422 173.239 218.395 173.256 218.38L173.27 218.368L173.267 218.371L173.265 218.373L173.264 218.374C173.263 218.374 173.263 218.375 174.272 219.485C175.281 220.595 175.28 220.595 175.279 220.596L175.278 220.597L175.275 220.6L175.267 220.607L175.247 220.625C175.231 220.638 175.211 220.655 175.187 220.676C175.139 220.717 175.073 220.77 174.99 220.834C174.823 220.963 174.588 221.133 174.284 221.325C173.677 221.708 172.795 222.18 171.65 222.57C169.344 223.357 166.024 223.799 161.828 222.61C158.157 221.57 155.284 219.629 152.827 217.969C152.499 217.747 152.178 217.53 151.863 217.321C149.114 215.493 146.914 214.296 144.24 214.51L144.226 214.511L144.211 214.512C141.139 214.696 136.315 215.728 131.54 217.018C126.781 218.304 122.23 219.804 119.733 220.865C118.651 221.325 117.325 222.158 115.747 223.15C115.64 223.218 115.531 223.286 115.421 223.355C113.764 224.395 111.891 225.552 110.041 226.334C108.218 227.104 106.155 227.627 104.202 227.08C102.137 226.501 100.603 224.856 99.6228 222.205C98.4933 219.151 97.6514 216.2 96.9263 213.658C96.5312 212.273 96.1708 211.01 95.8175 209.918C94.7433 206.597 93.7242 204.786 92.1904 203.996C89.8627 202.797 87.8852 200.954 86.0411 199.236L85.9832 199.182C84.0698 197.4 82.2611 195.721 80.1218 194.531C75.3079 191.929 69.3383 188.425 67.142 187.133C66.5988 186.813 66.1887 186.336 65.8813 185.885C65.5641 185.419 65.2899 184.883 65.0521 184.333C64.5765 183.235 64.1857 181.944 63.8779 180.746C63.5678 179.539 63.3304 178.38 63.1708 177.526C63.0908 177.098 63.0299 176.744 62.9888 176.496C62.9682 176.372 62.9525 176.274 62.9419 176.206L62.9297 176.128L62.9265 176.106L62.9253 176.098C62.9253 176.098 62.9251 176.097 64.4087 175.876C65.8923 175.655 65.8922 175.654 65.8922 175.654L65.8928 175.658L65.8952 175.674L65.9056 175.741C65.915 175.801 65.9293 175.891 65.9484 176.006C65.9867 176.237 66.044 176.57 66.1197 176.975C66.2716 177.788 66.4952 178.877 66.7835 179.999C67.0742 181.131 67.4194 182.25 67.8051 183.141C67.9979 183.587 68.1858 183.939 68.3604 184.196C68.4465 184.322 68.5202 184.411 68.5784 184.471Z" fill="#E21A1A"/>
<path fill-rule="evenodd" clip-rule="evenodd" d="M124.357 165.555C122.887 165.704 121.359 165.859 119.923 165.859C117.137 165.859 115.206 166.167 113.538 166.522C113.1 166.615 112.661 166.717 112.217 166.82C111.027 167.095 109.805 167.379 108.47 167.529C108.05 167.591 107.595 167.66 107.114 167.732C103.656 168.252 98.8377 168.976 95.9136 169.093C93.6956 169.182 92.2012 169.774 90.8222 170.321C90.366 170.502 89.9225 170.678 89.4696 170.829C89.4011 170.852 89.327 170.876 89.2477 170.903C88.4415 171.173 87.1003 171.621 85.7007 172.002C84.2256 172.402 82.4506 172.796 81.1376 172.714C79.3183 172.601 77.125 173.071 75.82 173.724C75.3638 173.952 74.7953 174.038 74.3576 174.085C73.8618 174.138 73.2816 174.163 72.6696 174.169C71.442 174.182 69.9788 174.123 68.591 174.041C67.1979 173.959 65.857 173.853 64.866 173.767C64.3699 173.724 63.9604 173.687 63.6743 173.659C63.5312 173.646 63.4189 173.635 63.3421 173.627L63.254 173.619L63.2232 173.616C63.223 173.616 63.2224 173.616 63.3735 172.123L63.5247 170.631L63.5519 170.634L63.6354 170.642C63.7091 170.649 63.8179 170.66 63.9574 170.673C64.2364 170.699 64.6377 170.736 65.1243 170.778C66.0985 170.863 67.4104 170.966 68.7671 171.046C70.1291 171.126 71.5128 171.181 72.6387 171.169C73.2034 171.163 73.6766 171.141 74.0372 171.102C74.373 171.066 74.4977 171.026 74.4988 171.029C74.499 171.03 74.4967 171.031 74.4923 171.033C76.2931 170.137 79.009 169.576 81.3247 169.72C82.0821 169.768 83.4128 169.515 84.914 169.107C86.2254 168.75 87.4878 168.328 88.2978 168.057C88.3766 168.031 88.4511 168.006 88.521 167.983C88.7861 167.894 89.1019 167.768 89.4671 167.622C90.87 167.06 93.002 166.207 95.7937 166.095C98.5358 165.986 103.155 165.292 106.648 164.768C107.143 164.694 107.615 164.623 108.056 164.557L108.083 164.553L108.111 164.55C109.271 164.421 110.251 164.194 111.381 163.932C111.857 163.822 112.359 163.705 112.914 163.587C114.74 163.198 116.885 162.859 119.923 162.859C121.2 162.859 122.582 162.719 124.095 162.566C124.196 162.556 124.298 162.545 124.4 162.535C125.997 162.374 127.72 162.21 129.416 162.245C132.85 162.314 136.402 163.207 138.986 166.702L138.993 166.711L138.999 166.72C143.332 172.76 148.166 181.514 150.532 186.771C151.701 189.303 152.807 191.668 153.869 193.544C154.4 194.48 154.9 195.258 155.369 195.856C155.851 196.469 156.233 196.804 156.502 196.955C157.195 197.345 158.175 198.178 159.186 199.103C160.242 200.07 161.466 201.266 162.687 202.495C165.129 204.953 167.605 207.591 168.787 208.905C169.437 209.627 170.271 210.768 171.166 212.022C171.441 212.407 171.723 212.806 172.013 213.216C172.693 214.175 173.412 215.19 174.155 216.204C175.213 217.646 176.289 219.043 177.311 220.196C178.358 221.378 179.251 222.192 179.933 222.582L179.95 222.592L179.967 222.602C183.498 224.746 190.405 227.947 192.472 228.851C192.664 228.935 192.881 229.027 193.118 229.128C194.074 229.534 195.351 230.076 196.609 230.773C198.187 231.648 199.888 232.844 201.107 234.519C201.404 234.928 201.746 235.4 202.117 235.912C203.043 237.189 204.15 238.717 205.21 240.157C206.719 242.207 208.056 243.975 208.638 244.615C209.402 245.455 210.472 247.063 211.429 248.797C212.391 250.538 213.337 252.58 213.771 254.318C214.159 255.869 214.728 258.08 215.418 260.102C215.763 261.113 216.128 262.047 216.502 262.812C216.891 263.608 217.231 264.094 217.478 264.323C217.787 264.611 218.379 265.008 219.252 265.48C220.1 265.94 221.129 266.426 222.245 266.909C224.477 267.874 226.987 268.796 228.952 269.43L228.973 269.437L228.993 269.444C229.589 269.655 230.204 269.847 230.869 270.054C231.31 270.192 231.772 270.336 232.265 270.497C233.443 270.882 234.703 271.338 235.851 271.939C238.168 273.151 240.299 275.126 240.214 278.53C240.085 283.662 240.473 293.95 240.595 295.165C240.621 295.424 240.686 295.557 240.908 295.728C241.224 295.971 241.851 296.267 243.09 296.577L243.099 296.579L243.107 296.581C244.566 296.965 246.553 297.942 248.374 299.33C250.196 300.718 252.011 302.638 252.924 304.996L252.927 305.003L252.93 305.011C253.535 306.626 254.499 307.399 255.791 308.131C256.068 308.287 256.379 308.45 256.713 308.624C257.884 309.234 259.337 309.991 260.584 311.181L260.596 311.193L260.609 311.206C261.171 311.767 262.249 312.51 263.754 313.383C265.225 314.237 266.988 315.15 268.824 316.068C269.868 316.59 270.943 317.117 271.998 317.634C274.589 318.903 277.063 320.115 278.669 321.058C279.929 321.762 281.521 322.627 283.257 323.571C287.484 325.868 292.566 328.631 295.803 330.666C296.037 330.813 296.277 330.964 296.523 331.118C298.651 332.455 301.191 334.05 303.496 335.568C306.018 337.227 308.387 338.875 309.603 340.015C309.856 340.24 310.125 340.468 310.403 340.704C312.454 342.443 314.99 344.594 315.137 348.682C315.267 350.61 315.489 351.086 315.727 351.37C315.869 351.539 316.094 351.728 316.559 352.026C316.825 352.197 317.074 352.346 317.367 352.522C317.662 352.699 318.001 352.902 318.445 353.18C318.818 353.413 319.329 353.729 319.941 354.107C321.842 355.283 324.723 357.064 327.521 358.868C329.372 360.062 331.205 361.277 332.711 362.345C334.156 363.369 335.44 364.354 336.095 365.084C337.253 366.313 339.77 369.324 342.322 372.62C344.879 375.921 347.564 379.625 348.984 382.195C350.288 384.553 352.236 387.261 354.131 389.804C354.504 390.305 354.878 390.802 355.244 391.29C356.691 393.217 358.026 394.994 358.787 396.245L358.8 396.266L358.812 396.287C359.021 396.657 359.255 397.081 359.512 397.547C360.327 399.027 361.371 400.92 362.554 402.767C363.327 403.974 364.137 405.123 364.948 406.084C365.768 407.054 366.528 407.757 367.19 408.152C370.728 410.172 376.125 412.545 380.689 413.409C385.428 414.305 391.768 414.929 394.447 414.808C395.869 414.743 398.11 414.644 400.328 414.677C402.48 414.709 404.845 414.864 406.398 415.408C409.024 416.327 413.921 418.307 417.418 420.457C417.422 420.459 417.426 420.461 417.429 420.464L417.797 420.681C421.106 422.643 422.192 423.287 423.695 423.489C424.359 423.57 425.101 423.503 426.041 423.418C426.278 423.396 426.527 423.373 426.791 423.352C427.96 423.256 429.453 423.179 430.787 423.713C431.865 424.144 434.672 425.62 437.349 427.111C440.014 428.595 442.819 430.242 443.838 431.043C444.185 431.315 444.903 431.757 445.914 432.314C446.898 432.856 448.078 433.465 449.289 434.066C451.715 435.271 454.208 436.421 455.399 436.922L455.512 436.97L455.616 437.035L455.617 437.036L455.626 437.041L455.667 437.067C455.694 437.083 455.731 437.106 455.778 437.134C455.797 437.145 455.819 437.158 455.842 437.172C455.998 437.264 456.228 437.396 456.515 437.553C457.093 437.866 457.89 438.268 458.779 438.63C459.674 438.994 460.62 439.3 461.502 439.445C462.402 439.593 463.104 439.552 463.595 439.363C466.798 438.131 474.047 433.944 477.101 431.783C479.011 430.379 481.627 430.173 483.72 430.125C484.268 430.112 484.811 430.111 485.321 430.11C485.838 430.109 486.318 430.109 486.77 430.098C487.706 430.076 488.37 430.011 488.807 429.88C489.63 429.633 490.462 429.286 491.418 428.887C491.871 428.697 492.352 428.497 492.873 428.289C494.418 427.675 496.183 427.066 498.13 426.85C499.997 426.642 503.659 426.647 507.361 426.744C511.099 426.842 515.01 427.037 517.44 427.234C519.959 427.438 522.867 428.205 525.439 428.884L525.546 428.912C528.272 429.631 530.502 430.205 531.941 430.205C533.312 430.205 534.419 429.71 535.837 429.051L535.919 429.013C537.268 428.385 538.918 427.617 540.999 427.617C542.971 427.617 545.826 428.219 548.549 429.039C551.289 429.865 554.104 430.974 555.998 432.097L556.015 432.107L556.033 432.118C556.949 432.695 557.742 433.26 558.453 433.777C559.176 434.303 559.785 434.756 560.397 435.162C561.572 435.94 562.652 436.469 564.097 436.687C565.39 436.831 566.547 436.919 567.653 437.003C568.006 437.03 568.353 437.057 568.698 437.084C570.117 437.199 571.483 437.333 572.867 437.61C573.697 437.776 574.534 438.123 575.315 438.483C575.677 438.649 576.051 438.83 576.422 439.009L576.534 439.064C576.946 439.263 577.361 439.462 577.788 439.656C579.5 440.435 581.305 441.075 583.314 441.075C584.978 441.075 586.205 441.196 587.11 441.285C587.483 441.322 587.801 441.353 588.073 441.368C589.005 441.421 589.925 441.361 591.937 440.751C592.912 440.456 593.861 440.059 594.872 439.609C595.102 439.507 595.338 439.401 595.578 439.293C596.367 438.937 597.203 438.56 598.064 438.22C600.361 437.311 602.983 436.595 606.314 436.808C612.75 437.219 616.361 439.174 620.825 441.8L620.833 441.805L620.842 441.81C622.705 442.939 624.395 443.231 625.951 443.433C626.07 443.448 626.192 443.464 626.315 443.479C626.965 443.561 627.665 443.649 628.285 443.802C629.058 443.993 629.884 444.321 630.571 445.008C630.786 445.223 630.962 445.307 631.191 445.386C631.217 445.394 631.261 445.407 631.318 445.424C631.576 445.502 632.11 445.661 632.522 445.891C633.828 446.62 634.588 448.092 635.242 450.905C635.876 453.632 636.723 456.444 637.804 458.867C638.895 461.315 640.157 463.212 641.544 464.283C644.681 466.602 647.292 466.966 651.54 467.481C652.86 467.607 654.46 468.168 656.076 468.895C657.737 469.643 659.547 470.63 661.314 471.703C664.822 473.834 668.301 476.397 670.168 478.265C671.951 480.047 674.882 483.401 677.759 486.695L677.807 486.749C680.738 490.103 683.607 493.385 685.308 495.087C687.256 497.034 687.928 498.563 688.362 500.131C688.456 500.469 688.536 500.79 688.613 501.103C688.876 502.162 689.119 503.14 689.832 504.482C690.275 505.259 690.934 506 691.733 506.759C692.23 507.231 692.694 507.634 693.173 508.049C693.524 508.353 693.882 508.664 694.267 509.013C695.079 509.752 695.933 510.603 696.472 511.575C697.051 512.62 697.29 513.851 696.779 515.184C696.359 516.31 695.365 517.639 694.461 518.832C694.354 518.973 694.247 519.114 694.139 519.256C693.263 520.408 692.387 521.561 691.714 522.686C690.928 523.998 690.62 524.956 690.682 525.587C690.708 525.846 690.797 526.066 690.999 526.284C691.22 526.523 691.632 526.816 692.387 527.086C699.468 529.615 707.489 530.718 714.638 525.118C717.134 523.163 719.362 521.254 721.401 519.507C722.527 518.542 723.596 517.626 724.62 516.78C726.031 515.614 727.353 514.584 728.567 513.807C729.757 513.046 730.975 512.439 732.166 512.263L732.193 512.259L732.22 512.256C734.003 512.058 735.786 511.941 737.66 512.25C739.558 512.563 741.47 513.298 743.57 514.698C745.276 515.835 746.671 516.904 747.878 517.829C748.079 517.983 748.276 518.133 748.467 518.279C749.828 519.316 750.925 520.109 752.079 520.686C753.267 521.281 753.749 522.323 753.971 523.17C754.079 523.585 754.139 523.998 754.183 524.333C754.193 524.413 754.203 524.488 754.212 524.558C754.244 524.81 754.269 525.005 754.305 525.191C754.314 525.243 754.324 525.287 754.333 525.324C754.534 525.297 754.928 525.207 755.609 524.918C757.492 524.118 758.752 522.835 760.201 521.36C760.484 521.072 760.773 520.777 761.076 520.477C762.89 518.68 765.063 516.878 768.652 516.649C771.093 516.493 772.713 516.6 773.867 516.677C774.199 516.699 774.493 516.718 774.757 516.728C775.334 516.75 775.759 516.728 776.208 516.628C776.666 516.525 777.221 516.324 778.021 515.909L778.041 515.898L778.061 515.889C779.351 515.268 780.818 514.24 782.446 513.099C782.848 512.817 783.261 512.528 783.683 512.237C785.677 510.86 787.952 509.38 790.033 508.918C791.511 508.589 793.207 508.512 794.681 508.444C795.101 508.425 795.504 508.406 795.878 508.383C796.773 508.328 797.531 508.249 798.148 508.103C798.751 507.961 799.093 507.784 799.28 507.619C799.472 507.416 799.743 506.951 800.089 506.133C800.305 505.621 800.503 505.09 800.715 504.525C800.844 504.181 800.978 503.823 801.124 503.448C801.481 502.532 801.902 501.535 802.421 500.754C802.898 500.037 803.759 499.047 805.11 499.047C807.564 499.047 811.366 499.506 815.229 503.369C816.775 504.915 817.849 505.151 818.677 505.031C819.661 504.889 820.762 504.196 822.242 502.909C823.222 502.057 824.67 501.44 826.119 500.944C827.56 500.451 829.206 500.013 830.784 499.593L830.945 499.551C832.6 499.11 834.168 498.689 835.482 498.224C836.849 497.739 837.694 497.287 838.082 496.899C838.882 496.099 839.703 495.612 840.414 495.234C840.607 495.131 840.782 495.04 840.944 494.957C841.416 494.713 841.771 494.529 842.128 494.271C842.864 493.736 843.706 492.792 844.126 489.61C844.534 486.517 844.479 484.145 844.43 482.067C844.427 481.929 844.424 481.792 844.421 481.656C844.373 479.512 844.353 477.491 845.112 475.44C845.444 474.545 845.813 473.772 846.39 473.258C847.076 472.647 847.828 472.598 848.228 472.572L848.233 472.571L848.328 472.565C848.674 472.544 848.925 472.528 849.285 472.408C849.683 472.276 850.281 471.988 851.146 471.296L851.158 471.286L851.171 471.276C852.92 469.935 854.526 467.929 856.133 465.663C856.644 464.942 857.162 464.184 857.683 463.422C858.738 461.879 859.807 460.315 860.866 458.99C861.501 458.161 862.057 457.376 862.581 456.635L862.787 456.344C863.362 455.533 863.923 454.751 864.486 454.098C865.612 452.794 867.055 451.65 869.128 451.961C869.493 452.016 869.879 452.082 870.281 452.151C871.451 452.351 872.755 452.575 874.072 452.608C875.878 452.655 877.096 452.31 877.727 451.567C878.206 451.004 878.725 450.355 879.292 449.647L879.482 449.409C880.117 448.617 880.803 447.765 881.517 446.935C882.923 445.3 884.54 443.624 886.242 442.588L886.263 442.575L886.284 442.563C887.961 441.615 889.973 441.336 891.746 441.091C891.866 441.074 891.985 441.057 892.103 441.041C894.065 440.765 895.883 440.467 897.558 439.578C899.676 438.381 901.998 437.697 904.066 437.16C904.513 437.044 904.943 436.935 905.356 436.831C906.936 436.433 908.26 436.099 909.328 435.635C912.763 434.142 916.284 434.223 921.168 435.985C923.312 436.737 926.328 436.967 929.337 437.031C930.386 437.054 931.399 437.057 932.354 437.059C932.754 437.06 933.145 437.061 933.524 437.063C934.765 437.071 935.926 437.094 936.777 437.205C938.277 437.401 939.837 437.646 941.374 438.275C942.942 438.918 944.427 439.934 945.867 441.591C946.599 442.432 947.136 443.27 947.606 444.038C947.695 444.183 947.78 444.323 947.863 444.46C948.235 445.073 948.566 445.619 948.968 446.166C949.887 447.414 951.19 448.672 953.993 449.865C956.16 450.787 958.465 451.654 960.768 452.521C961.661 452.857 962.553 453.193 963.438 453.532C966.555 454.728 969.574 455.963 971.894 457.328L971.903 457.333L971.911 457.338C976.466 460.098 980.12 464.593 982.403 468.622C983.316 470.233 984.771 471.453 986.714 472.507C988.676 473.572 991.018 474.408 993.628 475.321C998.951 477.185 1006.83 481.525 1009.79 483.196C1010.68 483.699 1011.45 484.348 1012.14 484.955C1012.29 485.086 1012.43 485.214 1012.57 485.34C1013.12 485.827 1013.63 486.283 1014.2 486.716C1015.57 487.744 1017.2 488.566 1019.79 488.566C1020.44 488.566 1021.09 488.57 1021.73 488.574C1024.19 488.59 1026.62 488.605 1028.89 488.394C1031.76 488.127 1034.1 487.513 1035.7 486.287C1036.05 486.02 1036.39 485.755 1036.72 485.495C1038.14 484.386 1039.44 483.371 1040.84 482.685C1042.69 481.778 1044.69 481.434 1047.5 481.715C1048.64 481.828 1049.76 481.965 1050.86 482.099C1052.41 482.287 1053.92 482.472 1055.41 482.585C1057.97 482.781 1059.88 482.701 1060.99 482.22C1061.68 481.92 1062.62 481.437 1063.76 480.852C1064.87 480.279 1066.14 479.624 1067.41 479.021C1068.68 478.42 1069.99 477.851 1071.2 477.457C1072.36 477.078 1073.63 476.789 1074.72 476.932C1075.06 476.977 1075.53 476.865 1076.38 476.573C1076.45 476.55 1076.52 476.524 1076.59 476.498C1077.27 476.258 1078.25 475.917 1079.19 475.917C1079.76 475.917 1080.38 476.038 1080.98 476.388C1081.57 476.734 1082.04 477.248 1082.41 477.882C1083.12 479.098 1083.55 480.914 1083.78 483.46C1084.43 490.515 1084.17 495.522 1083.96 499.585C1083.87 501.297 1083.79 502.841 1083.79 504.3C1083.79 506.754 1084.51 512.454 1085.38 518.316C1086.23 524.124 1087.2 529.933 1087.65 532.51C1088.12 535.216 1088.45 540.065 1088.55 544.772C1088.64 549.451 1088.52 554.228 1088.03 556.736C1087.6 559.052 1087.28 561.996 1087.07 564.392C1086.96 565.585 1086.89 566.63 1086.84 567.377C1086.81 567.75 1086.79 568.048 1086.78 568.252C1086.78 568.273 1086.78 568.293 1086.78 568.312C1086.8 568.389 1086.83 568.482 1086.86 568.59C1086.96 568.927 1087.09 569.411 1087.26 570.005C1087.59 571.192 1088.03 572.818 1088.47 574.572C1088.91 576.324 1089.35 578.217 1089.69 579.934C1090.02 581.62 1090.26 583.24 1090.26 584.4H1087.26C1087.26 583.555 1087.07 582.182 1086.74 580.508C1086.42 578.864 1085.99 577.029 1085.56 575.303C1085.13 573.58 1084.69 571.979 1084.37 570.808C1084.21 570.223 1084.07 569.746 1083.98 569.416L1083.9 569.148L1083.87 569.036L1083.84 568.938L1083.83 568.914L1083.83 568.908L1083.83 568.906L1083.76 568.66L1083.77 568.403L1085.27 568.484C1083.77 568.403 1083.77 568.404 1083.77 568.403L1083.77 568.402L1083.77 568.317C1083.78 568.261 1083.78 568.179 1083.79 568.074C1083.8 567.863 1083.82 567.557 1083.85 567.176C1083.9 566.414 1083.97 565.349 1084.08 564.132C1084.29 561.71 1084.62 558.641 1085.09 556.17L1085.09 556.163C1085.51 554.012 1085.64 549.536 1085.55 544.834C1085.45 540.159 1085.13 535.498 1084.7 533.027C1084.24 530.428 1083.27 524.591 1082.41 518.753C1081.56 512.969 1080.79 507.022 1080.79 504.3C1080.79 502.622 1080.88 500.962 1080.97 499.178C1081.18 495.187 1081.42 490.572 1080.8 483.731C1080.58 481.295 1080.18 480.022 1079.82 479.394C1079.65 479.105 1079.52 479.009 1079.46 478.975C1079.41 478.945 1079.34 478.917 1079.19 478.917C1078.78 478.917 1078.3 479.085 1077.43 479.384L1077.36 479.409C1076.61 479.667 1075.48 480.056 1074.33 479.907C1073.94 479.855 1073.21 479.955 1072.13 480.308C1071.1 480.645 1069.92 481.152 1068.7 481.732C1067.53 482.288 1066.35 482.892 1065.26 483.453L1065.13 483.52C1064.03 484.088 1062.98 484.624 1062.18 484.971C1060.31 485.784 1057.7 485.769 1055.18 485.576C1053.67 485.461 1051.99 485.258 1050.36 485.061C1049.27 484.929 1048.19 484.799 1047.2 484.7C1044.83 484.463 1043.41 484.766 1042.16 485.379C1041.06 485.915 1040.07 486.685 1038.69 487.767C1038.33 488.046 1037.94 488.346 1037.52 488.668C1035.24 490.419 1032.21 491.099 1029.16 491.381C1026.73 491.607 1024.11 491.59 1021.64 491.574C1021.01 491.57 1020.39 491.566 1019.79 491.566C1016.42 491.566 1014.17 490.447 1012.4 489.113C1011.72 488.598 1011.09 488.039 1010.53 487.544C1010.4 487.427 1010.28 487.314 1010.15 487.206C1009.48 486.612 1008.91 486.145 1008.31 485.807C1005.31 484.114 997.665 479.913 992.637 478.153C990.07 477.255 987.495 476.344 985.283 475.144C983.053 473.934 981.079 472.371 979.793 470.101C977.677 466.368 974.347 462.325 970.365 459.909C968.286 458.687 965.485 457.53 962.363 456.333C961.518 456.009 960.649 455.682 959.769 455.351C957.446 454.476 955.048 453.574 952.818 452.625C949.539 451.23 947.801 449.641 946.552 447.945C946.062 447.279 945.649 446.596 945.274 445.978C945.197 445.85 945.122 445.725 945.047 445.604C944.599 444.872 944.166 444.206 943.604 443.559C942.456 442.24 941.353 441.509 940.236 441.051C939.088 440.581 937.865 440.373 936.389 440.18C935.752 440.097 934.778 440.072 933.504 440.063C933.147 440.061 932.77 440.06 932.377 440.059C931.411 440.057 930.351 440.054 929.272 440.031C926.265 439.966 922.813 439.743 920.169 438.814L920.157 438.81C915.729 437.21 913.04 437.292 910.524 438.386C909.208 438.959 907.566 439.371 905.958 439.775C905.575 439.871 905.194 439.966 904.82 440.064C902.784 440.593 900.779 441.201 899.019 442.198L899.003 442.207L898.986 442.216C896.783 443.391 894.466 443.738 892.52 444.012L892.408 444.028C890.418 444.307 888.942 444.514 887.781 445.163C886.513 445.941 885.16 447.3 883.792 448.891C883.115 449.678 882.458 450.492 881.824 451.285C881.196 452.069 880.58 452.842 880.012 453.51C878.444 455.356 875.974 455.658 873.995 455.607C872.436 455.567 870.805 455.287 869.609 455.082C869.259 455.021 868.946 454.968 868.683 454.928C868.168 454.851 867.67 455.001 866.758 456.058C866.302 456.586 865.82 457.253 865.234 458.079L865.03 458.368C864.506 459.109 863.914 459.946 863.238 460.828L863.228 460.84L863.219 460.852C862.224 462.095 861.267 463.496 860.252 464.982C859.715 465.767 859.163 466.576 858.58 467.398C856.955 469.689 855.136 472.013 853.009 473.647C851.938 474.502 851.035 474.988 850.231 475.255C849.488 475.502 848.888 475.538 848.525 475.559C848.491 475.561 848.458 475.563 848.428 475.565C848.391 475.567 848.36 475.57 848.335 475.572C848.265 475.684 848.125 475.942 847.925 476.482C847.391 477.925 847.371 479.397 847.42 481.589C847.423 481.728 847.426 481.869 847.43 482.013C847.479 484.098 847.54 486.674 847.1 490.003C846.615 493.68 845.515 495.518 843.89 496.698C843.331 497.104 842.705 497.426 842.193 497.69C842.061 497.758 841.937 497.822 841.823 497.882C841.219 498.204 840.698 498.526 840.204 499.02C839.298 499.925 837.878 500.557 836.484 501.051C835.035 501.565 833.345 502.017 831.716 502.45L831.606 502.479C829.988 502.909 828.43 503.324 827.091 503.782C825.681 504.265 824.719 504.731 824.211 505.173C822.715 506.474 821.034 507.722 819.106 508.001C817.022 508.302 815.055 507.437 813.108 505.49C810.039 502.422 807.162 502.06 805.218 502.048C805.167 502.091 805.067 502.194 804.92 502.415C804.597 502.9 804.275 503.625 803.92 504.537C803.805 504.832 803.684 505.154 803.56 505.485C803.33 506.097 803.088 506.74 802.852 507.299C802.498 508.14 802.032 509.111 801.383 509.76L801.363 509.78L801.343 509.799C800.62 510.47 799.703 510.819 798.836 511.023C797.962 511.229 796.996 511.32 796.064 511.378C795.576 511.408 795.097 511.43 794.629 511.452C793.207 511.518 791.883 511.58 790.683 511.846C789.27 512.16 787.469 513.268 785.387 514.706C785.023 514.957 784.65 515.219 784.273 515.484C782.638 516.631 780.911 517.843 779.383 518.582C778.445 519.067 777.646 519.38 776.864 519.555C776.068 519.733 775.361 519.753 774.644 519.726C774.301 519.713 773.956 519.69 773.586 519.666C772.44 519.591 771.067 519.501 768.843 519.643C766.351 519.802 764.836 520.976 763.188 522.608C762.944 522.85 762.695 523.106 762.436 523.371C760.99 524.854 759.264 526.624 756.783 527.679C755.467 528.238 754.169 528.574 753.07 528.134C751.799 527.624 751.481 526.398 751.358 525.756C751.303 525.468 751.263 525.153 751.23 524.89C751.222 524.832 751.215 524.776 751.208 524.723C751.166 524.403 751.126 524.149 751.069 523.931C750.959 523.512 750.843 523.423 750.737 523.37C749.303 522.653 748.006 521.7 746.649 520.666C746.449 520.513 746.248 520.359 746.043 520.202C744.836 519.278 743.523 518.273 741.906 517.194C740.123 516.006 738.607 515.447 737.172 515.21C735.723 514.971 734.28 515.046 732.582 515.234C732.027 515.322 731.247 515.654 730.184 516.334C729.128 517.01 727.919 517.945 726.531 519.092C725.585 519.874 724.552 520.759 723.443 521.708C721.366 523.487 719.024 525.493 716.488 527.479C708.11 534.043 698.79 532.558 691.378 529.911C690.321 529.533 689.443 529.018 688.799 528.323C688.136 527.607 687.784 526.769 687.697 525.882C687.533 524.22 688.308 522.533 689.14 521.144C689.905 519.867 690.889 518.573 691.75 517.441C691.859 517.298 691.966 517.157 692.07 517.02C693.072 515.697 693.74 514.751 693.97 514.131L693.973 514.122L693.977 514.114C694.11 513.767 694.089 513.464 693.848 513.03C693.567 512.522 693.038 511.95 692.249 511.233C691.981 510.989 691.658 510.708 691.314 510.409C690.771 509.936 690.177 509.419 689.667 508.934C688.777 508.088 687.87 507.104 687.213 505.945L687.204 505.929L687.195 505.912C686.282 504.201 685.938 502.8 685.666 501.695C685.599 501.423 685.537 501.168 685.471 500.932C685.161 499.814 684.734 498.755 683.187 497.208C681.405 495.426 678.474 492.071 675.596 488.778L675.548 488.723C672.618 485.37 669.749 482.088 668.047 480.386C666.421 478.76 663.17 476.341 659.756 474.267C658.061 473.237 656.362 472.314 654.844 471.631C653.291 470.931 652.054 470.541 651.244 470.467L651.221 470.465L651.199 470.462C646.924 469.944 643.587 469.529 639.746 466.684L639.735 466.676L639.725 466.668C637.75 465.15 636.234 462.714 635.064 460.089C633.879 457.433 632.98 454.422 632.32 451.585C631.686 448.859 631.156 448.564 631.063 448.512L631.06 448.511C630.952 448.45 630.893 448.433 630.755 448.393C630.646 448.362 630.488 448.316 630.22 448.224C629.693 448.043 629.076 447.756 628.45 447.129C628.296 446.975 628.054 446.835 627.566 446.714C627.132 446.607 626.643 446.545 625.992 446.463C625.857 446.445 625.715 446.427 625.564 446.408C623.887 446.19 621.699 445.835 619.296 444.381C614.964 441.833 611.846 440.167 606.122 439.802C603.371 439.626 601.205 440.204 599.167 441.01C598.378 441.322 597.629 441.659 596.854 442.008C596.603 442.121 596.35 442.235 596.091 442.35C595.056 442.81 593.967 443.271 592.807 443.622C590.548 444.307 589.269 444.441 587.904 444.364C587.441 444.338 587.031 444.296 586.6 444.253C585.758 444.168 584.841 444.075 583.314 444.075C580.664 444.075 578.393 443.227 576.546 442.388C576.084 442.177 575.641 441.964 575.228 441.764L575.114 441.71C574.74 441.528 574.394 441.361 574.061 441.208C573.314 440.864 572.744 440.645 572.279 440.552C571.075 440.311 569.854 440.187 568.458 440.075C568.134 440.049 567.801 440.023 567.457 439.997C566.334 439.911 565.098 439.817 563.738 439.666L563.71 439.663L563.683 439.659C561.648 439.357 560.146 438.594 558.74 437.663C558.174 437.288 557.606 436.873 557.039 436.459C556.922 436.374 556.805 436.289 556.689 436.204C555.997 435.701 555.275 435.187 554.451 434.668C552.851 433.723 550.304 432.701 547.684 431.912C545.036 431.114 542.521 430.617 540.999 430.617C539.628 430.617 538.521 431.112 537.103 431.771L537.021 431.809C535.672 432.437 534.021 433.205 531.941 433.205C530.056 433.205 527.441 432.515 524.941 431.855L524.781 431.813C522.105 431.107 519.431 430.405 517.197 430.224C514.839 430.033 510.986 429.84 507.283 429.743C503.544 429.646 500.089 429.651 498.462 429.831C496.915 430.003 495.446 430.495 493.982 431.077C493.581 431.237 493.166 431.41 492.745 431.585C491.713 432.016 490.647 432.46 489.669 432.754C488.812 433.011 487.793 433.075 486.841 433.097C486.363 433.109 485.862 433.109 485.368 433.11L485.325 433.11C484.811 433.111 484.3 433.112 483.789 433.124C481.649 433.173 479.936 433.418 478.871 434.205L478.859 434.214L478.847 434.223C475.683 436.464 468.194 440.809 464.672 442.163C463.482 442.621 462.178 442.597 461.015 442.405C459.835 442.211 458.662 441.821 457.648 441.409C456.628 440.994 455.727 440.539 455.084 440.189C454.76 440.013 454.499 439.863 454.316 439.755C454.239 439.709 454.175 439.671 454.127 439.642C452.826 439.088 450.345 437.94 447.954 436.753C446.723 436.141 445.501 435.512 444.466 434.942C443.46 434.387 442.545 433.842 441.985 433.402C441.193 432.78 438.628 431.257 435.89 429.732C433.165 428.214 430.537 426.844 429.673 426.498C429.067 426.256 428.231 426.244 427.037 426.342C426.855 426.357 426.662 426.375 426.459 426.394C425.497 426.484 424.338 426.592 423.315 426.465L423.303 426.463C421.168 426.178 419.527 425.202 416.654 423.492C416.405 423.344 416.147 423.191 415.878 423.031L415.868 423.025L415.857 423.019C412.626 421.03 407.954 419.131 405.407 418.24C404.372 417.877 402.467 417.709 400.284 417.677C398.167 417.645 396.008 417.74 394.583 417.805C391.568 417.942 384.968 417.272 380.131 416.357C375.124 415.409 369.399 412.869 365.691 410.75L365.68 410.744L365.67 410.738C364.588 410.097 363.572 409.103 362.656 408.02C361.729 406.922 360.84 405.653 360.028 404.385C358.785 402.445 357.668 400.418 356.85 398.933C356.61 398.499 356.396 398.111 356.212 397.785C355.532 396.672 354.331 395.072 352.907 393.175C352.527 392.669 352.131 392.142 351.726 391.597C349.836 389.061 347.773 386.204 346.358 383.646C345.061 381.299 342.506 377.756 339.951 374.457C337.403 371.167 334.948 368.238 333.899 367.128L333.884 367.111L333.869 367.094C333.484 366.661 332.48 365.858 330.976 364.792C329.522 363.761 327.732 362.574 325.895 361.39C323.125 359.604 320.289 357.85 318.387 356.674C317.765 356.289 317.243 355.966 316.855 355.724C316.538 355.526 316.197 355.32 315.875 355.126C315.519 354.911 315.187 354.71 314.94 354.552C314.402 354.207 313.867 353.821 313.426 353.296C312.501 352.19 312.271 350.792 312.142 348.858L312.14 348.833L312.139 348.808C312.049 346.103 310.581 344.833 308.517 343.049C308.221 342.793 307.913 342.527 307.595 342.244L307.579 342.23L307.564 342.215C306.575 341.285 304.425 339.771 301.847 338.073C299.57 336.574 297.058 334.997 294.926 333.658C294.681 333.504 294.44 333.353 294.206 333.206C291.054 331.224 286.141 328.554 281.946 326.274C280.17 325.308 278.522 324.413 277.192 323.669L277.177 323.661L277.163 323.653C275.661 322.769 273.355 321.64 270.814 320.395C269.732 319.865 268.607 319.314 267.483 318.752C265.631 317.826 263.802 316.879 262.249 315.978C260.736 315.1 259.362 314.197 258.5 313.339C257.593 312.478 256.661 311.99 255.577 311.422C255.178 311.213 254.758 310.994 254.312 310.741C252.694 309.824 251.071 308.592 250.123 306.072C249.482 304.421 248.129 302.914 246.556 301.716C244.985 300.519 243.354 299.75 242.352 299.485C241.007 299.148 239.891 298.732 239.076 298.104C238.166 297.402 237.713 296.5 237.61 295.464C237.473 294.091 237.084 283.674 237.215 278.455C237.259 276.682 236.284 275.551 234.46 274.597C233.538 274.114 232.468 273.72 231.333 273.349C230.93 273.217 230.502 273.083 230.071 272.948C229.36 272.726 228.64 272.501 228.011 272.278C225.968 271.619 223.376 270.667 221.054 269.662C219.889 269.158 218.774 268.634 217.823 268.118C216.897 267.617 216.032 267.075 215.436 266.522C214.777 265.91 214.243 265.021 213.807 264.131C213.357 263.209 212.945 262.145 212.579 261.07C211.845 258.919 211.25 256.601 210.861 255.046C210.519 253.679 209.718 251.903 208.803 250.247C207.885 248.584 206.948 247.216 206.418 246.633C205.706 245.85 204.262 243.93 202.794 241.935C201.727 240.486 200.608 238.941 199.68 237.662C199.312 237.153 198.973 236.686 198.68 236.283C197.828 235.112 196.554 234.173 195.155 233.397C194.049 232.784 192.962 232.322 192.013 231.918C191.754 231.808 191.505 231.702 191.269 231.599C189.198 230.693 182.147 227.432 178.427 225.176C177.303 224.529 176.149 223.408 175.066 222.186C173.953 220.929 172.813 219.447 171.736 217.978C170.977 216.943 170.234 215.894 169.549 214.926C169.263 214.523 168.987 214.133 168.724 213.764C167.807 212.479 167.072 211.484 166.557 210.912C165.411 209.638 162.969 207.036 160.558 204.609C159.353 203.396 158.167 202.237 157.16 201.316C156.109 200.353 155.374 199.763 155.032 199.57C154.266 199.139 153.596 198.455 153.011 197.709C152.412 196.948 151.829 196.027 151.259 195.023C150.123 193.018 148.965 190.533 147.806 188.021L147.803 188.015L147.8 188.008C145.508 182.915 140.771 174.339 136.568 168.477C134.752 166.027 132.29 165.304 129.355 165.244C127.864 165.214 126.311 165.357 124.701 165.52C124.587 165.531 124.472 165.543 124.357 165.555Z" fill="#E21A1A"/>
</svg>
