<svg width="1152" height="620" viewBox="0 0 1152 620" fill="none" xmlns="http://www.w3.org/2000/svg">
<path fill-rule="evenodd" clip-rule="evenodd" d="M1073.59 428.671C1073.59 428.671 1073.59 428.671 1074.4 428.082C1075.2 427.493 1075.21 427.493 1075.21 427.493L1075.21 427.496L1075.21 427.501L1075.22 427.518C1075.23 427.533 1075.25 427.553 1075.27 427.58C1075.3 427.632 1075.36 427.708 1075.42 427.806C1075.55 428 1075.73 428.283 1075.95 428.641C1076.38 429.358 1076.95 430.383 1077.5 431.627C1078.58 434.099 1079.62 437.515 1079.27 441.118C1078.92 444.753 1076.91 448.175 1074.96 451.204C1074.67 451.66 1074.38 452.106 1074.09 452.544C1073.41 453.593 1072.75 454.596 1072.17 455.579C1071.35 456.968 1070.74 458.228 1070.45 459.381C1069.82 461.893 1069.12 467.256 1068.56 472.064C1068.29 474.452 1068.06 476.68 1067.89 478.31C1067.81 479.126 1067.74 479.791 1067.7 480.253C1067.67 480.484 1067.66 480.664 1067.65 480.786L1067.63 480.971C1067.63 480.971 1067.63 480.972 1066.63 480.878C1065.64 480.785 1065.64 480.785 1065.64 480.785L1065.66 480.596C1065.67 480.473 1065.68 480.292 1065.71 480.06C1065.75 479.596 1065.82 478.927 1065.9 478.108C1066.07 476.472 1066.3 474.235 1066.58 471.835C1067.13 467.067 1067.84 461.561 1068.51 458.896C1068.87 457.461 1069.6 456.004 1070.45 454.562C1071.05 453.538 1071.75 452.474 1072.44 451.408C1072.73 450.979 1073.01 450.549 1073.28 450.122C1075.25 447.069 1076.99 444.021 1077.28 440.927C1077.58 437.801 1076.68 434.747 1075.67 432.431C1075.16 431.281 1074.64 430.333 1074.24 429.674C1074.04 429.345 1073.87 429.09 1073.76 428.919C1073.7 428.833 1073.66 428.769 1073.63 428.727C1073.61 428.706 1073.6 428.691 1073.6 428.682L1073.59 428.672L1073.59 428.671Z" fill="#696872"/>
<path fill-rule="evenodd" clip-rule="evenodd" d="M858.509 399.014C857.648 399.383 856.668 399.69 855.577 399.69C854.184 399.69 851.638 400.187 848.926 400.973C846.234 401.754 843.619 402.749 842.092 403.63C841.409 404.024 840.169 405.043 838.489 406.535C837.45 407.458 836.303 408.508 835.087 409.619C834.38 410.266 833.649 410.934 832.904 411.61C830.895 413.433 828.799 415.297 826.856 416.871C824.938 418.425 823.074 419.778 821.542 420.507C818.661 421.879 814.526 422.947 810.982 423.813C810.516 423.927 810.06 424.037 809.617 424.144C808.341 424.453 807.169 424.737 806.162 425.006C804.742 425.385 803.883 425.68 803.541 425.881C802.214 426.662 800.259 427.217 798.305 427.611C796.307 428.014 794.14 428.28 792.276 428.413C790.791 428.519 789.376 429.134 787.75 429.955C787.528 430.067 787.301 430.184 787.068 430.303C785.684 431.015 784.119 431.819 782.453 432.251C780.525 432.751 778.112 432.913 775.701 432.962C774.143 432.994 772.504 432.978 770.943 432.963C770.093 432.954 769.266 432.946 768.489 432.946C764.067 432.946 760.018 433.715 757.403 435.42C755.832 436.445 753.995 437.044 752.252 437.612C752.121 437.655 751.989 437.698 751.859 437.74C749.941 438.369 748.024 439.034 746.122 440.223C742.396 442.568 736.542 444.675 729.822 442.995C726.133 442.073 724.231 439.646 722.96 437.139C722.459 436.151 722.034 435.105 721.642 434.142C721.551 433.918 721.462 433.699 721.374 433.486C720.891 432.314 720.437 431.303 719.879 430.467C719.272 429.556 718.824 429.062 718.463 428.776C718.138 428.519 717.846 428.399 717.464 428.326C717.061 428.248 716.609 428.228 715.901 428.198C715.811 428.194 715.717 428.19 715.619 428.185C714.786 428.148 713.757 428.088 712.476 427.88C710.234 427.517 708.69 427.595 707.296 428.001C705.865 428.418 704.473 429.212 702.549 430.494C700.417 431.916 697.619 432.938 695.034 433.751C693.938 434.095 692.901 434.397 691.94 434.677C690.528 435.088 689.282 435.451 688.262 435.829C687.192 436.226 685.926 436.408 684.678 436.499C683.414 436.591 682.064 436.594 680.793 436.586C680.56 436.584 680.331 436.582 680.106 436.581C679.074 436.572 678.116 436.565 677.258 436.595C676.181 436.633 675.452 436.729 675.038 436.874C674.68 436.999 674.142 437.35 673.406 437.999C672.697 438.626 671.934 439.411 671.111 440.266C671.049 440.33 670.988 440.394 670.926 440.459C670.174 441.241 669.378 442.069 668.594 442.798C667.756 443.577 666.845 444.327 665.919 444.811C663.826 445.902 661.406 445.366 659.547 444.656C657.809 443.992 656.168 443.02 655.087 442.379C654.971 442.31 654.862 442.246 654.76 442.186C654.184 441.847 653.482 441.828 652.415 442.127C651.883 442.276 651.335 442.482 650.719 442.714L650.681 442.729C650.1 442.948 649.45 443.194 648.804 443.373C646.234 444.087 641.507 444.334 636.93 444.072C634.943 443.959 632.727 444.475 630.935 445.067C630.054 445.358 629.307 445.657 628.781 445.882C628.519 445.995 628.314 446.088 628.177 446.152C628.108 446.185 628.056 446.209 628.023 446.225L627.988 446.243L627.981 446.246C627.981 446.246 627.981 446.246 627.31 444.904C626.64 443.563 626.64 443.562 626.64 443.562L626.647 443.559L626.663 443.551L626.716 443.525C626.761 443.503 626.825 443.473 626.907 443.434C627.07 443.358 627.305 443.251 627.598 443.125C628.185 442.874 629.015 442.542 629.994 442.218C631.922 441.581 634.559 440.932 637.101 441.077C641.583 441.333 645.914 441.063 648.002 440.483C648.506 440.342 649.039 440.142 649.658 439.908L649.679 439.9C650.267 439.678 650.932 439.426 651.606 439.238C652.964 438.858 654.657 438.644 656.281 439.6C656.387 439.662 656.497 439.727 656.61 439.794C657.713 440.446 659.134 441.287 660.617 441.853C662.315 442.502 663.648 442.612 664.532 442.151C665.094 441.858 665.768 441.33 666.551 440.601C667.27 439.932 668.009 439.164 668.776 438.366C668.833 438.307 668.891 438.247 668.948 438.187C669.759 437.344 670.605 436.471 671.42 435.751C672.209 435.054 673.111 434.37 674.047 434.042C674.927 433.734 676.058 433.635 677.152 433.597C678.081 433.564 679.121 433.572 680.155 433.581C680.374 433.583 680.594 433.584 680.812 433.586C682.08 433.594 683.326 433.589 684.461 433.507C685.61 433.423 686.544 433.266 687.221 433.016C688.317 432.61 689.761 432.188 691.278 431.744C692.224 431.468 693.198 431.183 694.134 430.889C696.692 430.084 699.135 429.165 700.885 427.998C702.843 426.693 704.557 425.675 706.457 425.121C708.395 424.557 710.411 424.506 712.956 424.919C714.069 425.099 714.965 425.153 715.754 425.188C715.846 425.192 715.939 425.196 716.033 425.2C716.698 425.228 717.393 425.257 718.029 425.379C718.828 425.533 719.579 425.833 720.326 426.425C721.037 426.988 721.689 427.772 722.375 428.803C723.112 429.907 723.661 431.161 724.148 432.342C724.248 432.586 724.346 432.825 724.442 433.062C724.83 434.016 725.197 434.917 725.636 435.782C726.694 437.869 728.027 439.454 730.549 440.084C736.25 441.51 741.264 439.736 744.526 437.682L744.531 437.68C746.769 436.281 748.992 435.523 750.924 434.89C751.017 434.859 751.109 434.829 751.2 434.799C753.062 434.19 754.538 433.707 755.764 432.907C759.102 430.73 763.852 429.946 768.489 429.946C769.329 429.946 770.185 429.955 771.047 429.963C772.573 429.978 774.12 429.994 775.64 429.963C778.017 429.915 780.133 429.753 781.7 429.347C783.017 429.006 784.247 428.376 785.646 427.66C785.891 427.534 786.141 427.406 786.398 427.277C788.04 426.448 789.925 425.574 792.063 425.421C793.822 425.295 795.86 425.044 797.712 424.67C799.608 424.288 801.147 423.808 802.02 423.295C802.778 422.849 804.054 422.464 805.388 422.108C806.432 421.829 807.654 421.533 808.942 421.221C809.379 421.115 809.823 421.008 810.27 420.899C813.875 420.018 817.698 419.015 820.252 417.799C821.438 417.234 823.067 416.08 824.967 414.54C826.841 413.021 828.886 411.205 830.888 409.388C831.612 408.731 832.333 408.072 833.038 407.428C834.266 406.305 835.444 405.228 836.497 404.293C838.116 402.854 839.593 401.608 840.593 401.031C842.43 399.971 845.316 398.896 848.091 398.092C850.846 397.293 853.735 396.69 855.577 396.69C856.103 396.69 856.66 396.543 857.327 396.257C857.816 396.047 858.281 395.803 858.811 395.525C859.044 395.403 859.288 395.274 859.554 395.139C861.2 394.299 863.294 393.386 865.939 393.867C866.489 393.967 867.079 394.068 867.7 394.175C871.753 394.869 877.15 395.794 881.638 398.156C883.553 399.164 885.983 400.495 888.507 401.877C892.592 404.114 896.922 406.485 899.711 407.84C901.948 408.926 903.539 409.594 905.113 410.044C906.681 410.491 908.288 410.739 910.568 410.929C912.499 411.09 914.773 410.332 917.219 409.363C917.529 409.241 917.844 409.114 918.159 408.987C919.025 408.638 919.898 408.286 920.704 408.005C921.795 407.625 922.957 407.301 924.031 407.301C925.537 407.301 928.174 406.993 931.265 406.632C934.292 406.277 937.68 405.882 940.525 405.75C942.512 405.657 944.396 405.328 946.282 404.998C946.932 404.884 947.582 404.771 948.236 404.667C950.682 404.278 953.241 404.016 955.562 404.79C956.757 405.188 958.122 406.029 959.473 406.987C960.854 407.966 962.344 409.159 963.804 410.36C964.384 410.837 964.956 411.311 965.514 411.774C967.838 413.704 969.924 415.436 971.388 416.314C973.081 417.33 975.335 418.202 977.792 419.153C977.952 419.214 978.113 419.277 978.275 419.34C980.833 420.331 983.58 421.421 985.682 422.822C987.716 424.178 991.664 427.409 995.386 430.694C999.079 433.953 1002.77 437.455 1004.17 439.353C1005.32 440.901 1008.13 443.441 1011.59 445.781C1015.04 448.119 1018.88 450.086 1022.01 450.677C1025.49 451.333 1027.3 451.612 1028.69 451.542C1029.96 451.478 1030.92 451.118 1032.67 450.181C1034.75 449.064 1036.69 448.781 1038.61 448.695C1039.32 448.663 1039.99 448.656 1040.66 448.65C1041.89 448.637 1043.12 448.624 1044.6 448.46C1046.94 448.2 1047.95 447.748 1048.44 447.025C1048.97 446.243 1049.24 444.613 1048.47 440.943C1047.7 437.291 1047.05 433.639 1047.48 430.619C1047.71 429.072 1048.22 427.609 1049.21 426.376C1050.2 425.135 1051.59 424.233 1053.37 423.674C1059.7 421.698 1066.75 421.134 1071.74 424.51C1073.76 425.871 1075.85 426.627 1077.85 427.207C1078.46 427.383 1079.02 427.53 1079.56 427.676C1079.96 427.781 1080.36 427.886 1080.77 428.002C1081.69 428.259 1082.61 428.542 1083.43 428.916C1084.76 429.523 1086.32 430.011 1087.71 430.011C1089.03 430.011 1090.11 429.585 1090.87 428.426C1092.18 426.419 1093.8 425.391 1095.69 424.913C1097.31 424.504 1099.13 424.507 1100.95 424.511C1101.12 424.511 1101.28 424.511 1101.44 424.511C1103.38 424.511 1105.54 424.207 1107.71 423.881C1107.85 423.859 1108 423.837 1108.14 423.815C1110.1 423.519 1112.1 423.217 1113.74 423.217C1115.58 423.217 1118.08 423.753 1120.15 424.483C1121.2 424.851 1122.21 425.294 1123.01 425.79C1123.4 426.037 1123.79 426.323 1124.12 426.652C1124.43 426.969 1124.77 427.419 1124.9 428.003C1124.94 428.174 1125.11 428.55 1125.45 429.12C1125.78 429.652 1126.19 430.237 1126.6 430.792C1127.01 431.343 1127.41 431.846 1127.71 432.213C1127.86 432.396 1127.99 432.543 1128.07 432.645C1128.1 432.678 1128.12 432.707 1128.14 432.73L1128.17 432.76L1128.2 432.796C1128.2 432.796 1128.2 432.796 1127.06 433.776C1125.93 434.755 1125.93 434.755 1125.93 434.755L1125.93 434.754L1125.92 434.751L1125.92 434.741L1125.89 434.706C1125.86 434.676 1125.82 434.633 1125.78 434.577C1125.68 434.467 1125.55 434.308 1125.39 434.113C1125.07 433.723 1124.64 433.183 1124.2 432.586C1123.75 431.992 1123.28 431.324 1122.89 430.679C1122.54 430.105 1122.18 429.426 1122.01 428.787C1122 428.777 1121.99 428.765 1121.97 428.752C1121.88 428.652 1121.7 428.511 1121.43 428.34C1120.87 427.999 1120.09 427.64 1119.16 427.313C1117.28 426.652 1115.13 426.217 1113.74 426.217C1112.33 426.217 1110.55 426.486 1108.49 426.796L1108.15 426.848C1106.01 427.169 1103.64 427.511 1101.44 427.511L1101.08 427.511C1099.11 427.51 1097.66 427.509 1096.42 427.822C1095.24 428.12 1094.27 428.709 1093.38 430.067C1091.94 432.273 1089.78 433.011 1087.71 433.011C1085.7 433.011 1083.7 432.334 1082.19 431.647C1081.59 431.374 1080.85 431.14 1079.96 430.891C1079.63 430.799 1079.26 430.699 1078.86 430.594C1078.27 430.436 1077.63 430.266 1077.02 430.089C1074.89 429.472 1072.45 428.61 1070.06 426.995C1066.25 424.418 1060.37 424.631 1054.27 426.537C1052.95 426.949 1052.11 427.551 1051.55 428.251C1050.98 428.959 1050.62 429.874 1050.45 431.044C1050.11 433.459 1050.62 436.601 1051.41 440.325C1052.19 444.031 1052.21 446.801 1050.92 448.703C1049.6 450.665 1047.25 451.184 1044.93 451.442C1043.32 451.621 1041.79 451.639 1040.48 451.654C1039.85 451.662 1039.27 451.669 1038.75 451.692C1037.05 451.768 1035.62 452.002 1034.08 452.826C1032.21 453.83 1030.78 454.441 1028.84 454.538C1027.03 454.63 1024.83 454.263 1021.45 453.625C1017.72 452.921 1013.47 450.683 1009.91 448.265C1006.34 445.85 1003.2 443.085 1001.76 441.138C1000.58 439.542 997.148 436.25 993.401 432.943C989.682 429.661 985.867 426.551 984.018 425.318C982.238 424.131 979.809 423.151 977.191 422.137C977.005 422.065 976.819 421.993 976.631 421.92C974.26 421.004 971.77 420.042 969.844 418.886C968.162 417.877 965.827 415.937 963.493 413.997C962.959 413.553 962.425 413.109 961.899 412.677C960.448 411.484 959.026 410.348 957.738 409.434C956.42 408.5 955.36 407.885 954.613 407.636C953.052 407.115 951.147 407.242 948.707 407.629C948.145 407.719 947.555 407.822 946.942 407.93C945.013 408.267 942.859 408.644 940.664 408.746C937.945 408.873 934.668 409.254 931.614 409.611L931.424 409.633C928.501 409.976 925.723 410.301 924.031 410.301C923.488 410.301 922.725 410.478 921.692 410.838C920.958 411.094 920.186 411.405 919.346 411.743C919.016 411.876 918.676 412.013 918.323 412.153C915.948 413.093 913.047 414.146 910.319 413.919C907.94 413.721 906.119 413.451 904.289 412.928C902.467 412.407 900.693 411.652 898.401 410.538C895.564 409.16 891.071 406.701 886.923 404.431C884.426 403.064 882.053 401.765 880.241 400.811C876.213 398.691 871.347 397.851 867.257 397.144C866.618 397.034 865.997 396.927 865.402 396.819C863.776 396.523 862.441 397.034 860.917 397.811C860.726 397.909 860.524 398.015 860.314 398.125C859.741 398.426 859.113 398.755 858.509 399.014Z" fill="#696872"/>
<path fill-rule="evenodd" clip-rule="evenodd" d="M900.637 385.136L901.386 384.473C902.134 383.81 902.134 383.81 902.134 383.81L902.142 383.819L902.165 383.845L902.251 383.943C902.327 384.029 902.437 384.156 902.577 384.318C902.857 384.642 903.257 385.11 903.738 385.686C904.7 386.837 905.989 388.424 907.297 390.164C908.602 391.902 909.937 393.808 910.983 395.596C912.007 397.344 912.837 399.114 912.991 400.541C913.221 402.67 913.635 404.695 914.027 406.616C914.065 406.804 914.103 406.992 914.141 407.178C914.558 409.23 914.938 411.206 914.938 412.941C914.938 414.641 914.669 416.969 914.292 419.101C913.919 421.205 913.417 423.262 912.903 424.364C912.836 424.506 912.74 424.807 912.627 425.288C912.518 425.75 912.407 426.322 912.297 426.97C912.076 428.264 911.864 429.819 911.679 431.326C911.494 432.83 911.337 434.275 911.226 435.344C911.171 435.879 911.127 436.319 911.097 436.626C911.082 436.779 911.071 436.898 911.063 436.98L911.051 437.103L910.056 437.01C909.06 436.918 909.06 436.918 909.06 436.918L909.072 436.79C909.08 436.707 909.091 436.586 909.107 436.431C909.137 436.121 909.181 435.677 909.237 435.138C909.348 434.061 909.507 432.602 909.694 431.081C909.881 429.563 910.097 427.972 910.325 426.634C910.439 425.965 910.558 425.349 910.68 424.831C910.797 424.332 910.931 423.86 911.09 423.518C911.482 422.678 911.95 420.854 912.322 418.752C912.689 416.678 912.938 414.477 912.938 412.941C912.938 411.442 912.605 409.665 912.181 407.576C912.143 407.389 912.105 407.2 912.066 407.009C911.675 405.099 911.243 402.983 911.002 400.756C910.898 399.788 910.272 398.339 909.257 396.606C908.265 394.912 906.98 393.074 905.697 391.366C904.417 389.661 903.15 388.102 902.203 386.968C901.73 386.402 901.337 385.942 901.063 385.625C900.927 385.467 900.819 385.344 900.747 385.261L900.664 385.167L900.644 385.143L900.637 385.136Z" fill="#696872"/>
</svg>
