<svg width="1152" height="620" viewBox="0 0 1152 620" fill="none" xmlns="http://www.w3.org/2000/svg">
<path d="M178.144 165.328V168.698H182.291V180.621H186.179V168.698H190.326V165.328H178.144Z" fill="#E21A1A"/>
<path d="M196.117 168.698H198.45C200.005 168.698 200.005 168.698 200.005 171.117C200.005 173.493 200.005 173.493 198.45 173.493H196.117V168.698ZM192.229 180.621H196.117V176.862H197.413C200.005 176.862 204.152 176.862 204.152 171.117C204.152 165.328 200.005 165.328 197.413 165.328H192.229V180.621Z" fill="#E21A1A"/>
<path d="M208.776 165.328L204.11 179.325V180.621H207.739L208.819 177.381H213.917L214.997 180.621H218.755V179.325L214.09 165.328H208.776ZM211.93 168.957C211.93 171.419 212.448 172.974 212.837 174.141H209.899C210.288 172.974 210.806 171.419 210.806 168.957H211.93Z" fill="#E21A1A"/>
<path d="M224.551 165.328H220.663V180.621H224.551V174.659H228.958V180.621H232.846V165.328H228.958V171.29H224.551V165.328Z" fill="#E21A1A"/>
<path d="M241.737 164.896C235.646 164.896 235.646 170.382 235.646 172.326V173.622C235.646 176.085 235.646 181.053 242.126 181.053C243.163 181.053 244.286 181.053 247.569 180.232V176.646H246.532L243.422 177.424H242.644C239.793 177.424 239.793 177.424 239.793 173.363V172.586C239.793 168.525 239.793 168.525 241.996 168.525C243.379 168.525 243.379 168.525 244.07 171.29L247.958 170.318C247.958 169.216 247.958 164.896 242.255 164.896H241.737Z" fill="#E21A1A"/>
<path d="M255.954 164.896C249.863 164.896 249.863 170.382 249.863 172.326V173.622C249.863 176.085 249.863 181.053 256.343 181.053C257.38 181.053 258.503 181.053 261.786 180.232V176.646H260.749L257.639 177.424H256.861C254.01 177.424 254.01 177.424 254.01 173.363V172.586C254.01 168.525 254.01 168.525 256.213 168.525C257.596 168.525 257.596 168.525 258.287 171.29L262.175 170.318C262.175 169.216 262.175 164.896 256.473 164.896H255.954Z" fill="#E21A1A"/>
<path d="M268.357 175.178V165.328H264.728V180.621H269.394C272.115 175.178 273.282 172.845 273.282 170.771H274.059V180.621H277.688V165.328H273.023C270.301 170.771 269.135 173.104 269.135 175.178H268.357Z" fill="#E21A1A"/>
<path d="M285.027 177.251V174.443H287.36C288.656 174.443 288.656 174.465 288.656 175.847C288.656 177.251 288.656 177.251 287.36 177.251H285.027ZM285.027 171.074V168.698H291.507V165.328H281.139V180.621H286.193C288.656 180.621 292.803 180.621 292.803 175.826C292.803 171.074 288.656 171.074 286.193 171.074H285.027Z" fill="#E21A1A"/>
<path d="M187.437 188.32H186.746C181.677 188.32 181.677 191.162 181.677 192.774V193.235C181.677 195.078 181.677 197.613 186.285 197.613H186.746C189.165 197.613 189.933 197.056 190.317 196.768V196.922C190.317 200.608 190.317 200.608 186.515 200.608H185.594L182.829 199.917H182.138V201.798C185.056 202.528 186.4 202.528 186.976 202.528C192.506 202.528 192.506 199.456 192.506 195.539V194.368C192.506 190.931 192.506 188.32 187.437 188.32ZM186.631 195.77C183.751 195.77 183.751 195.77 183.751 193.005C183.751 190.24 183.751 190.24 187.091 190.24C190.317 190.24 190.317 190.24 190.317 193.005C190.317 195.77 190.317 195.77 186.631 195.77Z" fill="#E21A1A"/>
<path d="M206.027 188.32C200.882 188.32 200.882 191.392 200.882 192.314V192.429L202.648 192.89C203.339 190.24 203.339 190.24 206.027 190.24C209.138 190.24 209.138 190.24 209.138 192.314C209.138 194.272 209.138 194.464 206.258 195.194L203.954 195.77C200.958 196.518 200.958 198.112 200.958 199.494V202.221H211.096V200.378H202.802V199.494C202.802 197.997 202.802 197.997 204.184 197.651L207.41 196.845C211.326 195.866 211.326 194.157 211.326 192.333C211.326 190.701 211.326 188.32 206.027 188.32Z" fill="#E21A1A"/>
<path d="M222.504 194.925C224.962 194.31 224.962 192.774 224.962 191.853C224.962 190.701 224.962 188.32 219.548 188.32C214.133 188.32 214.133 190.701 214.133 192.314C214.133 193.005 214.133 194.848 216.591 195.462V195.923C214.133 196.538 214.133 198.074 214.133 198.995C214.133 200.147 214.133 202.528 219.548 202.528C224.962 202.528 224.962 200.147 224.962 198.534C224.962 197.843 224.962 196 222.504 195.386V194.925ZM217.589 193.888C216.207 193.542 216.207 193.542 216.207 191.968C216.207 190.24 216.207 190.24 219.548 190.24C222.888 190.24 222.888 190.24 222.888 191.968C222.888 193.139 222.888 193.139 221.736 194.003L220.815 194.694L217.589 193.888ZM221.506 196.96C222.888 197.306 222.888 197.306 222.888 198.88C222.888 200.608 222.888 200.608 219.548 200.608C216.207 200.608 216.207 200.608 216.207 198.88C216.207 197.709 216.207 197.709 217.359 196.845L218.28 196.154L221.506 196.96Z" fill="#E21A1A"/>
<path d="M235.948 194.925C238.406 194.31 238.406 192.774 238.406 191.853C238.406 190.701 238.406 188.32 232.991 188.32C227.577 188.32 227.577 190.701 227.577 192.314C227.577 193.005 227.577 194.848 230.035 195.462V195.923C227.577 196.538 227.577 198.074 227.577 198.995C227.577 200.147 227.577 202.528 232.991 202.528C238.406 202.528 238.406 200.147 238.406 198.534C238.406 197.843 238.406 196 235.948 195.386V194.925ZM231.033 193.888C229.651 193.542 229.651 193.542 229.651 191.968C229.651 190.24 229.651 190.24 232.991 190.24C236.332 190.24 236.332 190.24 236.332 191.968C236.332 193.139 236.332 193.139 235.18 194.003L234.259 194.694L231.033 193.888ZM234.95 196.96C236.332 197.306 236.332 197.306 236.332 198.88C236.332 200.608 236.332 200.608 232.991 200.608C229.651 200.608 229.651 200.608 229.651 198.88C229.651 197.709 229.651 197.709 230.803 196.845L231.724 196.154L234.95 196.96Z" fill="#E21A1A"/>
<path d="M256.727 193.082V192.544H254.538C253.156 194.387 252.349 195.462 252.349 196.461H248.893V192.544H246.935V202.221H248.893V198.304H252.349C252.349 199.302 253.156 200.378 254.538 202.221H256.727V201.683L253.482 197.382L256.727 193.082Z" fill="#E21A1A"/>
<path d="M259.216 192.544V202.221H261.175V194.272H261.674C261.674 194.733 261.674 194.733 264.669 202.221H267.242C270.237 194.733 270.237 194.733 270.237 194.157H270.736V202.221H272.695V192.544H269.2C266.205 199.744 266.205 199.744 266.205 200.608H265.706C265.706 199.744 265.706 199.744 262.711 192.544H259.216Z" fill="#E21A1A"/>
<path d="M705.619 386.256V389.021H707.577V386.256H709.651V384.528H707.577V379.459H707.001L705.619 379.805V384.528H700.32V384.067L703.315 380.074C704.582 378.384 705.273 377.463 705.273 375.888V375.427H703.084V375.658C703.084 377.347 703.084 377.347 700.204 381.187L698.131 383.952V386.256H705.619Z" fill="#696872"/>
<path d="M723.249 382.915C725.899 382.915 725.899 382.915 725.899 385.104C725.899 387.408 725.899 387.408 722.788 387.408H721.175L718.411 386.717H717.719V388.599C720.638 389.328 722.097 389.328 723.019 389.328C728.087 389.328 728.087 386.371 728.087 385.335V384.874C728.087 381.418 725.553 381.418 724.324 381.418H723.71V380.995L724.785 380.189C727.627 378.058 727.627 378.058 727.627 377.04V375.427H717.719V379.114H719.447V377.271H725.476V377.712L720.023 381.802L721.291 383.491C722.059 382.915 722.788 382.915 723.249 382.915Z" fill="#696872"/>
<path d="M736.117 375.12C733.352 375.12 730.702 375.197 730.702 381.648V382.8C730.702 389.328 733.352 389.328 736.117 389.328H736.578C739.342 389.328 741.992 389.328 741.992 382.8V381.648C741.992 375.197 739.342 375.12 736.578 375.12H736.117ZM732.891 381.994C732.891 377.04 732.891 377.04 736.347 377.04C739.803 377.04 739.803 377.04 739.803 381.994V382.455C739.803 387.408 739.803 387.408 736.347 387.408C732.891 387.408 732.891 387.408 732.891 382.455V381.994Z" fill="#696872"/>
<path d="M749.56 375.12C746.796 375.12 744.146 375.197 744.146 381.648V382.8C744.146 389.328 746.796 389.328 749.56 389.328H750.021C752.786 389.328 755.436 389.328 755.436 382.8V381.648C755.436 375.197 752.786 375.12 750.021 375.12H749.56ZM746.335 381.994C746.335 377.04 746.335 377.04 749.791 377.04C753.247 377.04 753.247 377.04 753.247 381.994V382.455C753.247 387.408 753.247 387.408 749.791 387.408C746.335 387.408 746.335 387.408 746.335 382.455V381.994Z" fill="#696872"/>
<path d="M773.527 379.882V379.344H771.338C769.955 381.187 769.149 382.263 769.149 383.261H765.693V379.344H763.735V389.021H765.693V385.104H769.149C769.149 386.103 769.955 387.178 771.338 389.021H773.527V388.483L770.282 384.183L773.527 379.882Z" fill="#696872"/>
<path d="M776.016 379.344V389.021H777.974V381.072H778.473C778.473 381.533 778.473 381.533 781.469 389.021H784.041C787.037 381.533 787.037 381.533 787.037 380.957H787.536V389.021H789.494V379.344H786C783.005 386.544 783.005 386.544 783.005 387.408H782.505C782.505 386.544 782.505 386.544 779.51 379.344H776.016Z" fill="#696872"/>
<path d="M703.987 359.251V356.443H706.32C707.616 356.443 707.616 356.465 707.616 357.847C707.616 359.251 707.616 359.251 706.32 359.251H703.987ZM703.987 353.074V350.698H710.467V347.328H700.099V362.621H705.154C707.616 362.621 711.763 362.621 711.763 357.826C711.763 353.074 707.616 353.074 705.154 353.074H703.987Z" fill="#696872"/>
<path d="M717.427 347.328L712.761 361.325V362.621H716.39L717.47 359.381H722.568L723.648 362.621H727.406V361.325L722.74 347.328H717.427ZM720.58 350.957C720.58 353.419 721.099 354.975 721.488 356.141H718.55C718.939 354.975 719.457 353.419 719.457 350.957H720.58Z" fill="#696872"/>
<path d="M729.314 347.328V362.621H733.072V350.957H733.85C733.85 353.549 733.85 353.549 736.572 362.621H740.2C742.922 353.549 742.922 353.549 742.922 350.957H743.7V362.621H747.458V347.328H741.108C738.775 355.104 738.775 355.104 738.775 357.696H737.997C737.997 355.104 737.997 355.104 735.664 347.328H729.314Z" fill="#696872"/>
</svg>
