<svg width="176" height="159" viewBox="0 0 176 159" fill="none" xmlns="http://www.w3.org/2000/svg">
<path d="M84.9317 6.50722C86.2523 4.12384 89.6792 4.12385 90.9999 6.50722L172.229 153.101C173.51 155.413 171.838 158.251 169.195 158.251H6.73646C4.09327 158.251 2.42127 155.413 3.70237 153.101L84.9317 6.50722Z" stroke="#273339" stroke-linecap="round" stroke-linejoin="bevel"/>
<path d="M48.6759 42.7636L6.18604 118.891M52.1259 36.5823L55.6667 30.2383" stroke="#273339" stroke-linecap="round" stroke-linejoin="bevel"/>
<path d="M127.257 42.7636L169.747 118.891M123.807 36.5823L120.266 30.2383" stroke="#273339" stroke-linecap="round" stroke-linejoin="bevel"/>
<path d="M84.895 30.2888C86.1945 27.814 89.7375 27.814 91.0371 30.2887L149.07 140.798C150.283 143.108 148.608 145.88 145.999 145.88H29.9331C27.3242 145.88 25.6491 143.108 26.862 140.798L84.895 30.2888Z" fill="url(#paint0_linear)" stroke="#273339" stroke-linecap="round" stroke-linejoin="bevel"/>
<rect x="80.9048" y="56.8535" width="14.1191" height="49.1679" rx="7.05955" fill="url(#paint1_linear)" stroke="#273339"/>
<path d="M97.7747 122.67C97.7747 127.881 93.3994 132.135 87.9662 132.135C82.533 132.135 78.1577 127.881 78.1577 122.67C78.1577 117.458 82.533 113.205 87.9662 113.205C93.3994 113.205 97.7747 117.458 97.7747 122.67Z" fill="url(#paint2_linear)" stroke="#273339"/>
<defs>
<linearGradient id="paint0_linear" x1="135.895" y1="40.0052" x2="35.074" y2="145.421" gradientUnits="userSpaceOnUse">
<stop offset="0.215875" stop-color="#FEFEFE"/>
<stop offset="1" stop-color="#D1D1D1"/>
</linearGradient>
<linearGradient id="paint1_linear" x1="87.9643" y1="56.3535" x2="87.9643" y2="106.521" gradientUnits="userSpaceOnUse">
<stop offset="0.161458" stop-color="#FFF6EB"/>
<stop offset="0.786458" stop-color="#FFE3C3"/>
</linearGradient>
<linearGradient id="paint2_linear" x1="87.9662" y1="112.705" x2="87.9662" y2="132.635" gradientUnits="userSpaceOnUse">
<stop offset="0.161458" stop-color="#FFF6EB"/>
<stop offset="0.786458" stop-color="#FFE3C3"/>
</linearGradient>
</defs>
</svg>
