<svg width="79" height="48" viewBox="0 0 79 48" fill="none" xmlns="http://www.w3.org/2000/svg">
<path d="M7.04 35.696V38H8.672V35.696H10.4V34.256H8.672V30.032H8.192L7.04 30.32V34.256H2.624V33.872L5.12 30.544C6.176 29.136 6.752 28.368 6.752 27.056V26.672H4.928V26.864C4.928 28.272 4.928 28.272 2.528 31.472L0.8 33.776V35.696H7.04ZM21.7318 32.912C23.9398 32.912 23.9398 32.912 23.9398 34.736C23.9398 36.656 23.9398 36.656 21.3478 36.656H20.0038L17.6998 36.08H17.1238V37.648C19.5558 38.256 20.7718 38.256 21.5398 38.256C25.7638 38.256 25.7638 35.792 25.7638 34.928V34.544C25.7638 31.664 23.6518 31.664 22.6278 31.664H22.1158V31.312L23.0118 30.64C25.3798 28.864 25.3798 28.864 25.3798 28.016V26.672H17.1238V29.744H18.5638V28.208H23.5878V28.576L19.0438 31.984L20.0998 33.392C20.7398 32.912 21.3478 32.912 21.7318 32.912ZM32.4549 26.416C30.1509 26.416 27.9429 26.48 27.9429 31.856V32.816C27.9429 38.256 30.1509 38.256 32.4549 38.256H32.8389C35.1429 38.256 37.3509 38.256 37.3509 32.816V31.856C37.3509 26.48 35.1429 26.416 32.8389 26.416H32.4549ZM29.7669 32.144C29.7669 28.016 29.7669 28.016 32.6469 28.016C35.5269 28.016 35.5269 28.016 35.5269 32.144V32.528C35.5269 36.656 35.5269 36.656 32.6469 36.656C29.7669 36.656 29.7669 36.656 29.7669 32.528V32.144ZM43.658 26.416C41.354 26.416 39.146 26.48 39.146 31.856V32.816C39.146 38.256 41.354 38.256 43.658 38.256H44.042C46.346 38.256 48.554 38.256 48.554 32.816V31.856C48.554 26.48 46.346 26.416 44.042 26.416H43.658ZM40.97 32.144C40.97 28.016 40.97 28.016 43.85 28.016C46.73 28.016 46.73 28.016 46.73 32.144V32.528C46.73 36.656 46.73 36.656 43.85 36.656C40.97 36.656 40.97 36.656 40.97 32.528V32.144ZM63.6298 30.384V29.936H61.8058C60.6538 31.472 59.9818 32.368 59.9818 33.2H57.1018V29.936H55.4698V38H57.1018V34.736H59.9818C59.9818 35.568 60.6538 36.464 61.8058 38H63.6298V37.552L60.9258 33.968L63.6298 30.384ZM65.7041 29.936V38H67.3361V31.376H67.7521C67.7521 31.76 67.7521 31.76 70.2481 38H72.3921C74.8881 31.76 74.8881 31.76 74.8881 31.28H75.3041V38H76.9361V29.936H74.0241C71.5281 35.936 71.5281 35.936 71.5281 36.656H71.1121C71.1121 35.936 71.1121 35.936 68.6161 29.936H65.7041Z" fill="#696872"/>
<path d="M5.68 13.192V10.852H7.624C8.704 10.852 8.704 10.87 8.704 12.022C8.704 13.192 8.704 13.192 7.624 13.192H5.68ZM5.68 8.044V6.064H11.08V3.256H2.44V16H6.652C8.704 16 12.16 16 12.16 12.004C12.16 8.044 8.704 8.044 6.652 8.044H5.68ZM16.8797 3.256L12.9917 14.92V16H16.0157L16.9157 13.3H21.1637L22.0637 16H25.1957V14.92L21.3077 3.256H16.8797ZM19.5077 6.28C19.5077 8.332 19.9397 9.628 20.2637 10.6H17.8157C18.1397 9.628 18.5717 8.332 18.5717 6.28H19.5077ZM26.7857 3.256V16H29.9177V6.28H30.5657C30.5657 8.44 30.5657 8.44 32.8337 16H35.8577C38.1257 8.44 38.1257 8.44 38.1257 6.28H38.7737V16H41.9057V3.256H36.6137C34.6697 9.736 34.6697 9.736 34.6697 11.896H34.0217C34.0217 9.736 34.0217 9.736 32.0777 3.256H26.7857Z" fill="#696872"/>
</svg>
