<svg width="40" height="147" viewBox="0 0 40 147" fill="none" xmlns="http://www.w3.org/2000/svg">
<g filter="url(#filter0_d)">
<path d="M6.83886 123.403V123.403L6.83681 111.978C6.83681 111.977 6.83681 111.977 6.83681 111.977C6.83684 111.853 6.93586 111.754 7.06025 111.754C7.18465 111.754 7.28368 111.853 7.28368 111.978V111.978L7.28573 123.403C7.28573 123.403 7.28573 123.404 7.28573 123.404C7.2857 123.528 7.18667 123.627 7.06229 123.627C6.93789 123.627 6.83886 123.528 6.83886 123.403ZM22.2866 123.403V123.403L22.2845 111.978C22.2845 111.977 22.2845 111.977 22.2845 111.977C22.2846 111.853 22.3836 111.754 22.508 111.754C22.6324 111.754 22.7314 111.853 22.7314 111.978V111.978L22.7334 123.403C22.7334 123.403 22.7334 123.404 22.7334 123.404C22.7334 123.528 22.6344 123.627 22.51 123.627C22.3856 123.627 22.2866 123.528 22.2866 123.403ZM26.149 123.403V123.403L26.147 111.978C26.147 111.977 26.147 111.977 26.147 111.977C26.147 111.853 26.246 111.754 26.3704 111.754C26.4948 111.754 26.5939 111.853 26.5939 111.978V111.978L26.5959 123.403C26.5959 123.403 26.5959 123.404 26.5959 123.404C26.5959 123.528 26.4968 123.627 26.3725 123.627C26.2481 123.627 26.149 123.528 26.149 123.403ZM30.0115 123.403V123.403L30.0094 111.978C30.0094 111.977 30.0094 111.977 30.0094 111.977C30.0095 111.853 30.1085 111.754 30.2329 111.754C30.3573 111.754 30.4563 111.853 30.4563 111.978V111.978L30.4583 123.403C30.4583 123.403 30.4583 123.404 30.4583 123.404C30.4583 123.528 30.3593 123.627 30.2349 123.627C30.1105 123.627 30.0115 123.528 30.0115 123.403ZM33.8739 123.403V123.403L33.8719 111.978C33.8719 111.977 33.8719 111.977 33.8719 111.977C33.8719 111.854 33.972 111.754 34.0953 111.754C34.2197 111.754 34.3187 111.853 34.3187 111.978V111.978L34.3208 123.403C34.3208 123.403 34.3208 123.404 34.3208 123.404C34.3207 123.528 34.2217 123.627 34.0973 123.627C33.9729 123.627 33.8739 123.528 33.8739 123.403ZM38.6582 110.868C38.6582 109.564 37.5944 108.5 36.2904 108.5H4.86786C3.5638 108.5 2.5 109.564 2.5 110.868V124.511C2.5 125.815 3.5638 126.879 4.86786 126.879H36.2904C37.5944 126.879 38.6582 125.815 38.6582 124.511V110.868ZM11.1461 123.403C11.1461 123.528 11.0471 123.627 10.9227 123.627C10.7983 123.627 10.6993 123.528 10.6993 123.403V111.978C10.6993 111.854 10.7994 111.754 10.9227 111.754C11.0471 111.754 11.1461 111.853 11.1461 111.978V123.403ZM15.0086 123.403C15.0086 123.527 14.9084 123.627 14.7851 123.627C14.6607 123.627 14.5617 123.528 14.5617 123.403V111.978C14.5617 111.853 14.6607 111.754 14.7851 111.754C14.9095 111.754 15.0086 111.853 15.0086 111.978V123.403ZM18.871 123.403C18.871 123.528 18.772 123.627 18.6476 123.627C18.5232 123.627 18.4241 123.528 18.4241 123.403V111.978C18.4241 111.854 18.5243 111.754 18.6476 111.754C18.772 111.754 18.871 111.853 18.871 111.978V123.403Z" fill="#E21A1A" stroke="white"/>
<path d="M4.8679 127.328H4.86786C3.5638 127.328 2.5 128.392 2.5 129.696V143.339C2.5 144.643 3.5638 145.707 4.86786 145.707H36.2904C37.5944 145.707 38.6582 144.643 38.6582 143.339V129.698C38.6582 128.394 37.5944 127.33 36.2904 127.33L4.8679 127.328ZM6.83886 142.231V142.231L6.83681 130.805C6.83681 130.805 6.83681 130.805 6.83681 130.805C6.83684 130.681 6.93586 130.582 7.06025 130.582C7.18465 130.582 7.28368 130.681 7.28368 130.805V130.805L7.28573 142.231C7.28573 142.231 7.28573 142.231 7.28573 142.231C7.2857 142.356 7.18668 142.455 7.06229 142.455C6.93789 142.455 6.83886 142.356 6.83886 142.231ZM22.2866 142.231V142.231L22.2845 130.805C22.2845 130.805 22.2845 130.805 22.2845 130.805C22.2846 130.681 22.3836 130.582 22.508 130.582C22.6324 130.582 22.7314 130.681 22.7314 130.805V130.805L22.7334 142.231C22.7334 142.231 22.7334 142.231 22.7334 142.231C22.7334 142.356 22.6344 142.455 22.51 142.455C22.3856 142.455 22.2866 142.356 22.2866 142.231ZM26.149 142.231V142.231L26.147 130.805C26.147 130.805 26.147 130.805 26.147 130.805C26.147 130.681 26.246 130.582 26.3704 130.582C26.4948 130.582 26.5939 130.681 26.5939 130.805V130.805L26.5959 142.231C26.5959 142.231 26.5959 142.231 26.5959 142.231C26.5959 142.356 26.4968 142.455 26.3725 142.455C26.2481 142.455 26.149 142.356 26.149 142.231ZM30.0115 142.231V142.231L30.0094 130.805C30.0094 130.805 30.0094 130.805 30.0094 130.805C30.0095 130.681 30.1085 130.582 30.2329 130.582C30.3573 130.582 30.4563 130.681 30.4563 130.805V130.805L30.4583 142.231C30.4583 142.231 30.4583 142.231 30.4583 142.231C30.4583 142.356 30.3593 142.455 30.2349 142.455C30.1105 142.455 30.0115 142.356 30.0115 142.231ZM33.8739 142.231V142.231L33.8719 130.805C33.8719 130.805 33.8719 130.805 33.8719 130.805C33.8719 130.682 33.972 130.582 34.0953 130.582C34.2197 130.582 34.3187 130.681 34.3187 130.805V130.805L34.3208 142.231C34.3208 142.231 34.3208 142.231 34.3208 142.231C34.3207 142.356 34.2217 142.455 34.0973 142.455C33.9729 142.455 33.8739 142.356 33.8739 142.231ZM11.1461 142.231C11.1461 142.356 11.0471 142.455 10.9227 142.455C10.7983 142.455 10.6993 142.356 10.6993 142.231V130.805C10.6993 130.682 10.7994 130.582 10.9227 130.582C11.0471 130.582 11.1461 130.681 11.1461 130.805V142.231ZM15.0086 142.231C15.0086 142.355 14.9084 142.455 14.7851 142.455C14.6607 142.455 14.5617 142.356 14.5617 142.231V130.805C14.5617 130.681 14.6607 130.582 14.7851 130.582C14.9095 130.582 15.0086 130.681 15.0086 130.805V142.231ZM18.871 142.231C18.871 142.356 18.772 142.455 18.6476 142.455C18.5232 142.455 18.4241 142.356 18.4241 142.231V130.805C18.4241 130.682 18.5243 130.582 18.6476 130.582C18.772 130.582 18.871 130.681 18.871 130.805V142.231Z" fill="#E21A1A" stroke="white"/>
</g>
<g filter="url(#filter1_d)">
<path d="M6.83886 87.4035V87.4034L6.83681 75.9775C6.83681 75.9775 6.83681 75.9775 6.83681 75.9774C6.83684 75.8531 6.93586 75.7541 7.06025 75.7541C7.18465 75.7541 7.28368 75.8531 7.28368 75.9775V75.9776L7.28573 87.4035C7.28573 87.4035 7.28573 87.4035 7.28573 87.4035C7.2857 87.5279 7.18667 87.6269 7.06229 87.6269C6.93789 87.6269 6.83886 87.5279 6.83886 87.4035ZM22.2866 87.4035V87.4034L22.2845 75.9775C22.2845 75.9775 22.2845 75.9775 22.2845 75.9774C22.2846 75.8531 22.3836 75.7541 22.508 75.7541C22.6324 75.7541 22.7314 75.8531 22.7314 75.9775V75.9776L22.7334 87.4035C22.7334 87.4035 22.7334 87.4035 22.7334 87.4035C22.7334 87.5279 22.6344 87.6269 22.51 87.6269C22.3856 87.6269 22.2866 87.5279 22.2866 87.4035ZM26.149 87.4035V87.4034L26.147 75.9775C26.147 75.9775 26.147 75.9775 26.147 75.9774C26.147 75.8531 26.246 75.7541 26.3704 75.7541C26.4948 75.7541 26.5939 75.8531 26.5939 75.9775V75.9776L26.5959 87.4035C26.5959 87.4035 26.5959 87.4035 26.5959 87.4035C26.5959 87.5279 26.4968 87.6269 26.3725 87.6269C26.2481 87.6269 26.149 87.5279 26.149 87.4035ZM30.0115 87.4035V87.4034L30.0094 75.9775C30.0094 75.9775 30.0094 75.9775 30.0094 75.9774C30.0095 75.8531 30.1085 75.7541 30.2329 75.7541C30.3573 75.7541 30.4563 75.8531 30.4563 75.9775V75.9776L30.4583 87.4035C30.4583 87.4035 30.4583 87.4035 30.4583 87.4035C30.4583 87.5279 30.3593 87.6269 30.2349 87.6269C30.1105 87.6269 30.0115 87.5279 30.0115 87.4035ZM33.8739 87.4035V87.4034L33.8719 75.9775C33.8719 75.9775 33.8719 75.9775 33.8719 75.9774C33.8719 75.854 33.972 75.7541 34.0953 75.7541C34.2197 75.7541 34.3187 75.8531 34.3187 75.9775V75.9776L34.3208 87.4035C34.3208 87.4035 34.3208 87.4035 34.3208 87.4035C34.3207 87.5279 34.2217 87.6269 34.0973 87.6269C33.9729 87.6269 33.8739 87.5279 33.8739 87.4035ZM38.6582 74.8679C38.6582 73.5638 37.5944 72.5 36.2904 72.5H4.86786C3.5638 72.5 2.5 73.5638 2.5 74.8679V88.511C2.5 89.8151 3.5638 90.8789 4.86786 90.8789H36.2904C37.5944 90.8789 38.6582 89.8151 38.6582 88.511V74.8679ZM11.1461 87.4035C11.1461 87.5279 11.0471 87.6269 10.9227 87.6269C10.7983 87.6269 10.6993 87.5279 10.6993 87.4035V75.9775C10.6993 75.854 10.7994 75.7541 10.9227 75.7541C11.0471 75.7541 11.1461 75.8531 11.1461 75.9775V87.4035ZM15.0086 87.4035C15.0086 87.527 14.9084 87.6269 14.7851 87.6269C14.6607 87.6269 14.5617 87.5279 14.5617 87.4035V75.9775C14.5617 75.8531 14.6607 75.7541 14.7851 75.7541C14.9095 75.7541 15.0086 75.8531 15.0086 75.9775V87.4035ZM18.871 87.4035C18.871 87.5279 18.772 87.6269 18.6476 87.6269C18.5232 87.6269 18.4241 87.5279 18.4241 87.4035V75.9775C18.4241 75.854 18.5243 75.7541 18.6476 75.7541C18.772 75.7541 18.871 75.8531 18.871 75.9775V87.4035Z" fill="#E21A1A" stroke="white"/>
<path d="M4.8679 91.3278H4.86786C3.5638 91.3278 2.5 92.3916 2.5 93.6957V107.339C2.5 108.643 3.5638 109.707 4.86786 109.707H36.2904C37.5944 109.707 38.6582 108.643 38.6582 107.339V93.6977C38.6582 92.3937 37.5944 91.3298 36.2904 91.3298L4.8679 91.3278ZM6.83886 106.231V106.231L6.83681 94.8053C6.83681 94.8052 6.83681 94.8052 6.83681 94.8052C6.83684 94.6808 6.93586 94.5818 7.06025 94.5818C7.18465 94.5818 7.28368 94.6809 7.28368 94.8053V94.8053L7.28573 106.231C7.28573 106.231 7.28573 106.231 7.28573 106.231C7.2857 106.356 7.18668 106.455 7.06229 106.455C6.93789 106.455 6.83886 106.356 6.83886 106.231ZM22.2866 106.231V106.231L22.2845 94.8053C22.2845 94.8052 22.2845 94.8052 22.2845 94.8052C22.2846 94.6808 22.3836 94.5818 22.508 94.5818C22.6324 94.5818 22.7314 94.6809 22.7314 94.8053V94.8053L22.7334 106.231C22.7334 106.231 22.7334 106.231 22.7334 106.231C22.7334 106.356 22.6344 106.455 22.51 106.455C22.3856 106.455 22.2866 106.356 22.2866 106.231ZM26.149 106.231V106.231L26.147 94.8053C26.147 94.8052 26.147 94.8052 26.147 94.8052C26.147 94.6808 26.246 94.5818 26.3704 94.5818C26.4948 94.5818 26.5939 94.6809 26.5939 94.8053V94.8053L26.5959 106.231C26.5959 106.231 26.5959 106.231 26.5959 106.231C26.5959 106.356 26.4968 106.455 26.3725 106.455C26.2481 106.455 26.149 106.356 26.149 106.231ZM30.0115 106.231V106.231L30.0094 94.8053C30.0094 94.8052 30.0094 94.8052 30.0094 94.8052C30.0095 94.6808 30.1085 94.5818 30.2329 94.5818C30.3573 94.5818 30.4563 94.6809 30.4563 94.8053V94.8053L30.4583 106.231C30.4583 106.231 30.4583 106.231 30.4583 106.231C30.4583 106.356 30.3593 106.455 30.2349 106.455C30.1105 106.455 30.0115 106.356 30.0115 106.231ZM33.8739 106.231V106.231L33.8719 94.8053C33.8719 94.8052 33.8719 94.8052 33.8719 94.8052C33.8719 94.6817 33.972 94.5818 34.0953 94.5818C34.2197 94.5818 34.3187 94.6809 34.3187 94.8053V94.8053L34.3208 106.231C34.3208 106.231 34.3208 106.231 34.3208 106.231C34.3207 106.356 34.2217 106.455 34.0973 106.455C33.9729 106.455 33.8739 106.356 33.8739 106.231ZM11.1461 106.231C11.1461 106.356 11.0471 106.455 10.9227 106.455C10.7983 106.455 10.6993 106.356 10.6993 106.231V94.8053C10.6993 94.6818 10.7994 94.5818 10.9227 94.5818C11.0471 94.5818 11.1461 94.6809 11.1461 94.8053V106.231ZM15.0086 106.231C15.0086 106.355 14.9084 106.455 14.7851 106.455C14.6607 106.455 14.5617 106.356 14.5617 106.231V94.8053C14.5617 94.6809 14.6607 94.5818 14.7851 94.5818C14.9095 94.5818 15.0086 94.6809 15.0086 94.8053V106.231ZM18.871 106.231C18.871 106.356 18.772 106.455 18.6476 106.455C18.5232 106.455 18.4241 106.356 18.4241 106.231V94.8053C18.4241 94.6818 18.5243 94.5818 18.6476 94.5818C18.772 94.5818 18.871 94.6809 18.871 94.8053V106.231Z" fill="#E21A1A" stroke="white"/>
</g>
<g filter="url(#filter2_d)">
<path d="M6.83886 51.4035V51.4034L6.83681 39.9775C6.83681 39.9775 6.83681 39.9775 6.83681 39.9774C6.83684 39.8531 6.93586 39.7541 7.06025 39.7541C7.18465 39.7541 7.28368 39.8531 7.28368 39.9775V39.9776L7.28573 51.4035C7.28573 51.4035 7.28573 51.4035 7.28573 51.4035C7.2857 51.5279 7.18667 51.6269 7.06229 51.6269C6.93789 51.6269 6.83886 51.5279 6.83886 51.4035ZM22.2866 51.4035V51.4034L22.2845 39.9775C22.2845 39.9775 22.2845 39.9775 22.2845 39.9774C22.2846 39.8531 22.3836 39.7541 22.508 39.7541C22.6324 39.7541 22.7314 39.8531 22.7314 39.9775V39.9776L22.7334 51.4035C22.7334 51.4035 22.7334 51.4035 22.7334 51.4035C22.7334 51.5279 22.6344 51.6269 22.51 51.6269C22.3856 51.6269 22.2866 51.5279 22.2866 51.4035ZM26.149 51.4035V51.4034L26.147 39.9775C26.147 39.9775 26.147 39.9775 26.147 39.9774C26.147 39.8531 26.246 39.7541 26.3704 39.7541C26.4948 39.7541 26.5939 39.8531 26.5939 39.9775V39.9776L26.5959 51.4035C26.5959 51.4035 26.5959 51.4035 26.5959 51.4035C26.5959 51.5279 26.4968 51.6269 26.3725 51.6269C26.2481 51.6269 26.149 51.5279 26.149 51.4035ZM30.0115 51.4035V51.4034L30.0094 39.9775C30.0094 39.9775 30.0094 39.9775 30.0094 39.9774C30.0095 39.8531 30.1085 39.7541 30.2329 39.7541C30.3573 39.7541 30.4563 39.8531 30.4563 39.9775V39.9776L30.4583 51.4035C30.4583 51.4035 30.4583 51.4035 30.4583 51.4035C30.4583 51.5279 30.3593 51.6269 30.2349 51.6269C30.1105 51.6269 30.0115 51.5279 30.0115 51.4035ZM33.8739 51.4035V51.4034L33.8719 39.9775C33.8719 39.9775 33.8719 39.9775 33.8719 39.9774C33.8719 39.854 33.972 39.7541 34.0953 39.7541C34.2197 39.7541 34.3187 39.8531 34.3187 39.9775V39.9776L34.3208 51.4035C34.3208 51.4035 34.3208 51.4035 34.3208 51.4035C34.3207 51.5279 34.2217 51.6269 34.0973 51.6269C33.9729 51.6269 33.8739 51.5279 33.8739 51.4035ZM38.6582 38.8679C38.6582 37.5638 37.5944 36.5 36.2904 36.5H4.86786C3.5638 36.5 2.5 37.5638 2.5 38.8679V52.511C2.5 53.8151 3.5638 54.8789 4.86786 54.8789H36.2904C37.5944 54.8789 38.6582 53.8151 38.6582 52.511V38.8679ZM11.1461 51.4035C11.1461 51.5279 11.0471 51.6269 10.9227 51.6269C10.7983 51.6269 10.6993 51.5279 10.6993 51.4035V39.9775C10.6993 39.854 10.7994 39.7541 10.9227 39.7541C11.0471 39.7541 11.1461 39.8531 11.1461 39.9775V51.4035ZM15.0086 51.4035C15.0086 51.527 14.9084 51.6269 14.7851 51.6269C14.6607 51.6269 14.5617 51.5279 14.5617 51.4035V39.9775C14.5617 39.8531 14.6607 39.7541 14.7851 39.7541C14.9095 39.7541 15.0086 39.8531 15.0086 39.9775V51.4035ZM18.871 51.4035C18.871 51.5279 18.772 51.6269 18.6476 51.6269C18.5232 51.6269 18.4241 51.5279 18.4241 51.4035V39.9775C18.4241 39.854 18.5243 39.7541 18.6476 39.7541C18.772 39.7541 18.871 39.8531 18.871 39.9775V51.4035Z" fill="#E21A1A" stroke="white"/>
<path d="M4.8679 55.3278H4.86786C3.5638 55.3278 2.5 56.3916 2.5 57.6957V71.3388C2.5 72.6429 3.5638 73.7067 4.86786 73.7067H36.2904C37.5944 73.7067 38.6582 72.6429 38.6582 71.3388V57.6977C38.6582 56.3937 37.5944 55.3298 36.2904 55.3298L4.8679 55.3278ZM6.83886 70.2312V70.2311L6.83681 58.8053C6.83681 58.8052 6.83681 58.8052 6.83681 58.8052C6.83684 58.6808 6.93586 58.5818 7.06025 58.5818C7.18465 58.5818 7.28368 58.6809 7.28368 58.8053V58.8053L7.28573 70.2312C7.28573 70.2313 7.28573 70.2313 7.28573 70.2313C7.2857 70.3557 7.18668 70.4547 7.06229 70.4547C6.93789 70.4547 6.83886 70.3556 6.83886 70.2312ZM22.2866 70.2312V70.2311L22.2845 58.8053C22.2845 58.8052 22.2845 58.8052 22.2845 58.8052C22.2846 58.6808 22.3836 58.5818 22.508 58.5818C22.6324 58.5818 22.7314 58.6809 22.7314 58.8053V58.8053L22.7334 70.2312C22.7334 70.2313 22.7334 70.2313 22.7334 70.2313C22.7334 70.3557 22.6344 70.4547 22.51 70.4547C22.3856 70.4547 22.2866 70.3556 22.2866 70.2312ZM26.149 70.2312V70.2311L26.147 58.8053C26.147 58.8052 26.147 58.8052 26.147 58.8052C26.147 58.6808 26.246 58.5818 26.3704 58.5818C26.4948 58.5818 26.5939 58.6809 26.5939 58.8053V58.8053L26.5959 70.2312C26.5959 70.2313 26.5959 70.2313 26.5959 70.2313C26.5959 70.3557 26.4968 70.4547 26.3725 70.4547C26.2481 70.4547 26.149 70.3556 26.149 70.2312ZM30.0115 70.2312V70.2311L30.0094 58.8053C30.0094 58.8052 30.0094 58.8052 30.0094 58.8052C30.0095 58.6808 30.1085 58.5818 30.2329 58.5818C30.3573 58.5818 30.4563 58.6809 30.4563 58.8053V58.8053L30.4583 70.2312C30.4583 70.2313 30.4583 70.2313 30.4583 70.2313C30.4583 70.3557 30.3593 70.4547 30.2349 70.4547C30.1105 70.4547 30.0115 70.3556 30.0115 70.2312ZM33.8739 70.2312V70.2311L33.8719 58.8053C33.8719 58.8052 33.8719 58.8052 33.8719 58.8052C33.8719 58.6817 33.972 58.5818 34.0953 58.5818C34.2197 58.5818 34.3187 58.6809 34.3187 58.8053V58.8053L34.3208 70.2312C34.3208 70.2313 34.3208 70.2313 34.3208 70.2313C34.3207 70.3557 34.2217 70.4547 34.0973 70.4547C33.9729 70.4547 33.8739 70.3556 33.8739 70.2312ZM11.1461 70.2312C11.1461 70.3556 11.0471 70.4547 10.9227 70.4547C10.7983 70.4547 10.6993 70.3556 10.6993 70.2312V58.8053C10.6993 58.6818 10.7994 58.5818 10.9227 58.5818C11.0471 58.5818 11.1461 58.6809 11.1461 58.8053V70.2312ZM15.0086 70.2312C15.0086 70.3547 14.9084 70.4547 14.7851 70.4547C14.6607 70.4547 14.5617 70.3556 14.5617 70.2312V58.8053C14.5617 58.6809 14.6607 58.5818 14.7851 58.5818C14.9095 58.5818 15.0086 58.6809 15.0086 58.8053V70.2312ZM18.871 70.2312C18.871 70.3556 18.772 70.4547 18.6476 70.4547C18.5232 70.4547 18.4241 70.3556 18.4241 70.2312V58.8053C18.4241 58.6818 18.5243 58.5818 18.6476 58.5818C18.772 58.5818 18.871 58.6809 18.871 58.8053V70.2312Z" fill="#E21A1A" stroke="white"/>
</g>
<g filter="url(#filter3_d)">
<path d="M6.83886 15.4035V15.4034L6.83681 3.9775C6.83681 3.97749 6.83681 3.97747 6.83681 3.97745C6.83684 3.85307 6.93586 3.75407 7.06025 3.75407C7.18465 3.75407 7.28368 3.8531 7.28368 3.9775V3.97759L7.28573 15.4035C7.28573 15.4035 7.28573 15.4035 7.28573 15.4035C7.2857 15.5279 7.18667 15.6269 7.06229 15.6269C6.93789 15.6269 6.83886 15.5279 6.83886 15.4035ZM22.2866 15.4035V15.4034L22.2845 3.9775C22.2845 3.97749 22.2845 3.97747 22.2845 3.97745C22.2846 3.85307 22.3836 3.75407 22.508 3.75407C22.6324 3.75407 22.7314 3.8531 22.7314 3.9775V3.97759L22.7334 15.4035C22.7334 15.4035 22.7334 15.4035 22.7334 15.4035C22.7334 15.5279 22.6344 15.6269 22.51 15.6269C22.3856 15.6269 22.2866 15.5279 22.2866 15.4035ZM26.149 15.4035V15.4034L26.147 3.9775C26.147 3.97749 26.147 3.97747 26.147 3.97745C26.147 3.85307 26.246 3.75407 26.3704 3.75407C26.4948 3.75407 26.5939 3.8531 26.5939 3.9775V3.97759L26.5959 15.4035C26.5959 15.4035 26.5959 15.4035 26.5959 15.4035C26.5959 15.5279 26.4968 15.6269 26.3725 15.6269C26.2481 15.6269 26.149 15.5279 26.149 15.4035ZM30.0115 15.4035V15.4034L30.0094 3.9775C30.0094 3.97749 30.0094 3.97747 30.0094 3.97745C30.0095 3.85307 30.1085 3.75407 30.2329 3.75407C30.3573 3.75407 30.4563 3.8531 30.4563 3.9775V3.97759L30.4583 15.4035C30.4583 15.4035 30.4583 15.4035 30.4583 15.4035C30.4583 15.5279 30.3593 15.6269 30.2349 15.6269C30.1105 15.6269 30.0115 15.5279 30.0115 15.4035ZM33.8739 15.4035V15.4034L33.8719 3.9775C33.8719 3.97749 33.8719 3.97747 33.8719 3.97745C33.8719 3.85398 33.972 3.75407 34.0953 3.75407C34.2197 3.75407 34.3187 3.8531 34.3187 3.9775V3.97759L34.3208 15.4035C34.3208 15.4035 34.3208 15.4035 34.3208 15.4035C34.3207 15.5279 34.2217 15.6269 34.0973 15.6269C33.9729 15.6269 33.8739 15.5279 33.8739 15.4035ZM38.6582 2.86786C38.6582 1.5638 37.5944 0.5 36.2904 0.5H4.86786C3.5638 0.5 2.5 1.5638 2.5 2.86786V16.511C2.5 17.8151 3.5638 18.8789 4.86786 18.8789H36.2904C37.5944 18.8789 38.6582 17.8151 38.6582 16.511V2.86786ZM11.1461 15.4035C11.1461 15.5279 11.0471 15.6269 10.9227 15.6269C10.7983 15.6269 10.6993 15.5279 10.6993 15.4035V3.9775C10.6993 3.85402 10.7994 3.75407 10.9227 3.75407C11.0471 3.75407 11.1461 3.8531 11.1461 3.9775V15.4035ZM15.0086 15.4035C15.0086 15.527 14.9084 15.6269 14.7851 15.6269C14.6607 15.6269 14.5617 15.5279 14.5617 15.4035V3.9775C14.5617 3.8531 14.6607 3.75407 14.7851 3.75407C14.9095 3.75407 15.0086 3.8531 15.0086 3.9775V15.4035ZM18.871 15.4035C18.871 15.5279 18.772 15.6269 18.6476 15.6269C18.5232 15.6269 18.4241 15.5279 18.4241 15.4035V3.9775C18.4241 3.85402 18.5243 3.75407 18.6476 3.75407C18.772 3.75407 18.871 3.8531 18.871 3.9775V15.4035Z" fill="#E21A1A" stroke="white"/>
<path d="M4.8679 19.3278H4.86786C3.5638 19.3278 2.5 20.3916 2.5 21.6957V35.3388C2.5 36.6429 3.5638 37.7067 4.86786 37.7067H36.2904C37.5944 37.7067 38.6582 36.6429 38.6582 35.3388V21.6977C38.6582 20.3937 37.5944 19.3299 36.2904 19.3299L4.8679 19.3278ZM6.83886 34.2313V34.2312L6.83681 22.8053C6.83681 22.8053 6.83681 22.8052 6.83681 22.8052C6.83684 22.6808 6.93586 22.5818 7.06025 22.5818C7.18465 22.5818 7.28368 22.6809 7.28368 22.8053V22.8054L7.28573 34.2313C7.28573 34.2313 7.28573 34.2313 7.28573 34.2313C7.2857 34.3557 7.18668 34.4547 7.06229 34.4547C6.93789 34.4547 6.83886 34.3557 6.83886 34.2313ZM22.2866 34.2313V34.2312L22.2845 22.8053C22.2845 22.8053 22.2845 22.8052 22.2845 22.8052C22.2846 22.6808 22.3836 22.5818 22.508 22.5818C22.6324 22.5818 22.7314 22.6809 22.7314 22.8053V22.8054L22.7334 34.2313C22.7334 34.2313 22.7334 34.2313 22.7334 34.2313C22.7334 34.3557 22.6344 34.4547 22.51 34.4547C22.3856 34.4547 22.2866 34.3557 22.2866 34.2313ZM26.149 34.2313V34.2312L26.147 22.8053C26.147 22.8053 26.147 22.8052 26.147 22.8052C26.147 22.6808 26.246 22.5818 26.3704 22.5818C26.4948 22.5818 26.5939 22.6809 26.5939 22.8053V22.8054L26.5959 34.2313C26.5959 34.2313 26.5959 34.2313 26.5959 34.2313C26.5959 34.3557 26.4968 34.4547 26.3725 34.4547C26.2481 34.4547 26.149 34.3557 26.149 34.2313ZM30.0115 34.2313V34.2312L30.0094 22.8053C30.0094 22.8053 30.0094 22.8052 30.0094 22.8052C30.0095 22.6808 30.1085 22.5818 30.2329 22.5818C30.3573 22.5818 30.4563 22.6809 30.4563 22.8053V22.8054L30.4583 34.2313C30.4583 34.2313 30.4583 34.2313 30.4583 34.2313C30.4583 34.3557 30.3593 34.4547 30.2349 34.4547C30.1105 34.4547 30.0115 34.3557 30.0115 34.2313ZM33.8739 34.2313V34.2312L33.8719 22.8053C33.8719 22.8053 33.8719 22.8052 33.8719 22.8052C33.8719 22.6818 33.972 22.5818 34.0953 22.5818C34.2197 22.5818 34.3187 22.6809 34.3187 22.8053V22.8054L34.3208 34.2313C34.3208 34.2313 34.3208 34.2313 34.3208 34.2313C34.3207 34.3557 34.2217 34.4547 34.0973 34.4547C33.9729 34.4547 33.8739 34.3557 33.8739 34.2313ZM11.1461 34.2313C11.1461 34.3557 11.0471 34.4547 10.9227 34.4547C10.7983 34.4547 10.6993 34.3556 10.6993 34.2313V22.8053C10.6993 22.6818 10.7994 22.5818 10.9227 22.5818C11.0471 22.5818 11.1461 22.6809 11.1461 22.8053V34.2313ZM15.0086 34.2313C15.0086 34.3547 14.9084 34.4547 14.7851 34.4547C14.6607 34.4547 14.5617 34.3557 14.5617 34.2313V22.8053C14.5617 22.6809 14.6607 22.5818 14.7851 22.5818C14.9095 22.5818 15.0086 22.6809 15.0086 22.8053V34.2313ZM18.871 34.2313C18.871 34.3557 18.772 34.4547 18.6476 34.4547C18.5232 34.4547 18.4241 34.3556 18.4241 34.2313V22.8053C18.4241 22.6818 18.5243 22.5818 18.6476 22.5818C18.772 22.5818 18.871 22.6809 18.871 22.8053V34.2313Z" fill="#E21A1A" stroke="white"/>
</g>
<defs>
<filter id="filter0_d" x="0" y="108" width="39.1582" height="38.2067" filterUnits="userSpaceOnUse" color-interpolation-filters="sRGB">
<feFlood flood-opacity="0" result="BackgroundImageFix"/>
<feColorMatrix in="SourceAlpha" type="matrix" values="0 0 0 0 0 0 0 0 0 0 0 0 0 0 0 0 0 0 127 0"/>
<feOffset dx="-2"/>
<feColorMatrix type="matrix" values="0 0 0 0 1 0 0 0 0 1 0 0 0 0 1 0 0 0 1 0"/>
<feBlend mode="normal" in2="BackgroundImageFix" result="effect1_dropShadow"/>
<feBlend mode="normal" in="SourceGraphic" in2="effect1_dropShadow" result="shape"/>
</filter>
<filter id="filter1_d" x="0" y="72" width="39.1582" height="38.2067" filterUnits="userSpaceOnUse" color-interpolation-filters="sRGB">
<feFlood flood-opacity="0" result="BackgroundImageFix"/>
<feColorMatrix in="SourceAlpha" type="matrix" values="0 0 0 0 0 0 0 0 0 0 0 0 0 0 0 0 0 0 127 0"/>
<feOffset dx="-2"/>
<feColorMatrix type="matrix" values="0 0 0 0 1 0 0 0 0 1 0 0 0 0 1 0 0 0 1 0"/>
<feBlend mode="normal" in2="BackgroundImageFix" result="effect1_dropShadow"/>
<feBlend mode="normal" in="SourceGraphic" in2="effect1_dropShadow" result="shape"/>
</filter>
<filter id="filter2_d" x="0" y="36" width="39.1582" height="38.2067" filterUnits="userSpaceOnUse" color-interpolation-filters="sRGB">
<feFlood flood-opacity="0" result="BackgroundImageFix"/>
<feColorMatrix in="SourceAlpha" type="matrix" values="0 0 0 0 0 0 0 0 0 0 0 0 0 0 0 0 0 0 127 0"/>
<feOffset dx="-2"/>
<feColorMatrix type="matrix" values="0 0 0 0 1 0 0 0 0 1 0 0 0 0 1 0 0 0 1 0"/>
<feBlend mode="normal" in2="BackgroundImageFix" result="effect1_dropShadow"/>
<feBlend mode="normal" in="SourceGraphic" in2="effect1_dropShadow" result="shape"/>
</filter>
<filter id="filter3_d" x="0" y="0" width="39.1582" height="38.2067" filterUnits="userSpaceOnUse" color-interpolation-filters="sRGB">
<feFlood flood-opacity="0" result="BackgroundImageFix"/>
<feColorMatrix in="SourceAlpha" type="matrix" values="0 0 0 0 0 0 0 0 0 0 0 0 0 0 0 0 0 0 127 0"/>
<feOffset dx="-2"/>
<feColorMatrix type="matrix" values="0 0 0 0 1 0 0 0 0 1 0 0 0 0 1 0 0 0 1 0"/>
<feBlend mode="normal" in2="BackgroundImageFix" result="effect1_dropShadow"/>
<feBlend mode="normal" in="SourceGraphic" in2="effect1_dropShadow" result="shape"/>
</filter>
</defs>
</svg>
