<svg width="1136" height="449" viewBox="0 0 1136 449" fill="none" xmlns="http://www.w3.org/2000/svg">
<path d="M53.6676 33.2046C55.8831 33.2046 57.6791 31.4086 57.6791 29.1931C57.6791 26.9777 55.8831 25.1816 53.6676 25.1816C51.4521 25.1816 49.6561 26.9777 49.6561 29.1931C49.6561 31.4086 51.4521 33.2046 53.6676 33.2046Z" fill="#E21A1A" stroke="white" stroke-miterlimit="10"/>
<path d="M2.36225 10.5404V20.4524H3.87425V11.8844H4.32225C4.32225 12.6124 4.32225 12.6124 7.26225 20.4524H9.13825C12.0783 12.6124 12.0783 12.6124 12.0783 11.8844H12.5263V20.4524H14.0383V10.5404H11.2803C8.38225 18.2684 8.38225 18.2684 8.38225 19.1084H8.01825C8.01825 18.2684 8.01825 18.2684 5.12025 10.5404H2.36225ZM17.8741 16.9244C17.8741 14.5724 17.8741 14.5024 20.0581 14.5024C22.2421 14.5024 22.2421 14.5724 22.2421 16.9244C22.2421 19.2764 22.2421 19.3464 20.0581 19.3464C17.8741 19.3464 17.8741 19.2764 17.8741 16.9244ZM16.3621 17.2604C16.3621 18.6044 16.3621 20.6204 19.7221 20.6204H20.3941C23.7541 20.6204 23.7541 18.6044 23.7541 17.2604V16.5884C23.7541 15.2444 23.7541 13.2284 20.3941 13.2284H19.7221C16.3621 13.2284 16.3621 15.2444 16.3621 16.5884V17.2604ZM28.939 20.6204C29.443 20.6204 30.535 20.6204 31.879 20.2844V18.9404H31.543L30.185 19.2764H29.443C27.007 19.2764 27.007 19.2764 27.007 16.9244C27.007 14.5724 27.007 14.5724 28.939 14.5724C30.535 14.5724 30.535 14.5724 30.871 15.9164L32.215 15.5804C32.215 14.9084 32.215 13.2284 29.275 13.2284H28.603C25.495 13.2284 25.495 15.0764 25.495 16.5884V17.2604C25.495 18.7724 25.495 20.6204 28.939 20.6204ZM41.2561 13.7884V13.3964H39.6601C38.6521 14.7404 38.0641 15.5244 38.0641 16.2524H35.5441V13.3964H34.1161V20.4524H35.5441V17.5964H38.0641C38.0641 18.3244 38.6521 19.1084 39.6601 20.4524H41.2561V20.0604L38.8901 16.9244L41.2561 13.7884ZM43.0712 20.4524H46.3332C48.0132 20.4524 49.7072 20.4524 49.7072 18.6884C49.7072 18.1004 49.5672 17.3444 48.2232 17.0084V16.8404C49.5672 16.5044 49.5672 15.7484 49.5672 15.1604C49.5672 13.3964 48.0132 13.3964 46.3332 13.3964H43.0712V20.4524ZM46.8512 17.4284C48.0972 17.4284 48.1112 17.4284 48.1112 18.3524C48.1112 19.2624 48.1112 19.2764 46.8512 19.2764H44.4992V17.4284H46.8512ZM46.7112 14.5724C47.9572 14.5724 47.9712 14.5724 47.9712 15.4964C47.9712 16.4064 47.9712 16.4204 46.7112 16.4204H44.4992V14.5724H46.7112ZM57.6042 20.6204L58.6682 19.8224C58.1642 19.1504 58.1642 19.1504 58.1642 17.7644V16.5884C58.1642 14.9084 58.1642 13.2284 54.8882 13.2284C54.3842 13.2284 53.2922 13.2284 51.9482 13.5644V14.9084H52.2842L53.6282 14.5724H54.8882C56.7362 14.5724 56.7362 14.5724 56.7362 16.3364H54.8882C51.3602 16.3364 51.3602 17.5124 51.3602 18.6044C51.3602 19.2764 51.3602 20.6204 53.8802 20.6204C55.6162 20.6204 56.5542 19.9204 56.8902 19.6684L57.6042 20.6204ZM52.9562 18.4364C52.9562 17.4284 52.9562 17.4284 54.8882 17.4284H56.7362V18.7724L54.7202 19.2764H53.9642C52.9562 19.2764 52.9562 19.2764 52.9562 18.4364Z" fill="#363636"/>
<path d="M100.123 22.7231C101.624 22.7231 102.841 21.5065 102.841 20.0057C102.841 18.5048 101.624 17.2882 100.123 17.2882C98.6224 17.2882 97.4058 18.5048 97.4058 20.0057C97.4058 21.5065 98.6224 22.7231 100.123 22.7231Z" fill="#E21A1A" stroke="white" stroke-miterlimit="10"/>
<path d="M98.7095 6.48021H96.0935C94.3655 6.48021 94.3655 6.48021 94.3655 4.82421C94.3655 3.16821 94.3655 3.16821 96.0935 3.16821H98.7095V6.48021ZM92.6735 10.0802V10.5122H94.1135C94.9775 9.36021 95.5175 8.64021 95.5175 7.63221H98.7095V10.5122H100.006V2.01621H97.2455C94.3655 2.01621 92.9255 2.01621 92.9255 4.82421C92.9255 6.44421 93.3575 6.76821 94.5095 7.63221L92.6735 10.0802ZM102.289 4.46421V12.9602H103.513V10.3682C104.089 10.5122 104.665 10.6562 105.745 10.6562C108.481 10.6562 108.481 8.78421 108.481 7.77621V7.20021C108.481 6.04821 108.481 4.32021 105.889 4.32021C104.449 4.32021 103.657 4.92021 103.369 5.13621L102.865 4.46421H102.289ZM107.185 7.48821C107.185 9.49221 107.185 9.50421 105.241 9.50421C104.809 9.50421 104.089 9.50421 103.513 9.36021V5.90421L105.241 5.47221H105.445C107.185 5.47221 107.185 5.54421 107.185 7.48821ZM111.266 7.48821C111.266 5.47221 111.266 5.41221 113.138 5.41221C115.01 5.41221 115.01 5.47221 115.01 7.48821C115.01 9.50421 115.01 9.56421 113.138 9.56421C111.266 9.56421 111.266 9.50421 111.266 7.48821ZM109.97 7.77621C109.97 8.92821 109.97 10.6562 112.85 10.6562H113.426C116.306 10.6562 116.306 8.92821 116.306 7.77621V7.20021C116.306 6.04821 116.306 4.32021 113.426 4.32021H112.85C109.97 4.32021 109.97 6.04821 109.97 7.20021V7.77621ZM120.75 10.6562C121.182 10.6562 122.118 10.6562 123.27 10.3682V9.21621H122.982L121.818 9.50421H121.182C119.094 9.50421 119.094 9.50421 119.094 7.48821C119.094 5.47221 119.094 5.47221 120.75 5.47221C122.118 5.47221 122.118 5.47221 122.406 6.62421L123.558 6.33621C123.558 5.76021 123.558 4.32021 121.038 4.32021H120.462C117.798 4.32021 117.798 5.90421 117.798 7.20021V7.77621C117.798 9.07221 117.798 10.6562 120.75 10.6562ZM129.736 5.53221V10.5122H130.96V4.46421H126.076C126.04 5.71221 125.968 6.74421 125.752 8.30421C125.608 9.34821 125.488 9.55221 124.456 9.55221V10.5362C126.4 10.5362 126.604 10.3082 126.844 8.52021C127.024 7.20021 127.108 6.27621 127.132 5.53221H129.736ZM138.02 10.6562L138.932 9.97221C138.5 9.39621 138.5 9.39621 138.5 8.20821V7.20021C138.5 5.76021 138.5 4.32021 135.692 4.32021C135.26 4.32021 134.324 4.32021 133.172 4.60821V5.76021H133.46L134.612 5.47221H135.692C137.276 5.47221 137.276 5.47221 137.276 6.98421H135.692C132.668 6.98421 132.668 7.99221 132.668 8.92821C132.668 9.50421 132.668 10.6562 134.828 10.6562C136.316 10.6562 137.12 10.0562 137.408 9.84021L138.02 10.6562ZM134.036 8.78421C134.036 7.92021 134.036 7.92021 135.692 7.92021H137.276V9.07221L135.548 9.50421H134.9C134.036 9.50421 134.036 9.50421 134.036 8.78421ZM140.493 10.5122H143.289C144.729 10.5122 146.181 10.5122 146.181 9.00021C146.181 8.49621 146.061 7.84821 144.909 7.56021V7.41621C146.061 7.12821 146.061 6.48021 146.061 5.97621C146.061 4.46421 144.729 4.46421 143.289 4.46421H140.493V10.5122ZM143.733 7.92021C144.801 7.92021 144.813 7.92021 144.813 8.71221C144.813 9.49221 144.813 9.50421 143.733 9.50421H141.717V7.92021H143.733ZM143.613 5.47221C144.681 5.47221 144.693 5.47221 144.693 6.26421C144.693 7.04421 144.693 7.05621 143.613 7.05621H141.717V5.47221H143.613ZM152.505 5.53221V10.5122H153.729V4.46421H148.845C148.809 5.71221 148.737 6.74421 148.521 8.30421C148.377 9.34821 148.257 9.55221 147.225 9.55221V10.5362C149.169 10.5362 149.373 10.3082 149.613 8.52021C149.793 7.20021 149.877 6.27621 149.901 5.53221H152.505ZM158.677 10.5122C160.117 10.5122 161.413 10.5122 161.413 8.49621C161.413 7.77621 161.413 6.33621 158.821 6.33621C158.245 6.33621 157.597 6.40821 157.021 6.55221V4.46421H155.797V10.5122H158.677ZM158.821 7.48821C160.117 7.48821 160.117 7.48821 160.117 8.49621C160.117 9.50421 160.117 9.50421 158.821 9.50421H157.021V7.48821H158.821Z" fill="#363636"/>
<path d="M181 87.8126C182.501 87.8126 183.717 86.596 183.717 85.0952C183.717 83.5943 182.501 82.3777 181 82.3777C179.499 82.3777 178.282 83.5943 178.282 85.0952C178.282 86.596 179.499 87.8126 181 87.8126Z" fill="#E21A1A" stroke="white" stroke-miterlimit="10"/>
<path d="M195.981 75.2887V74.9527H194.661L193.965 75.8407C192.561 77.6407 192.357 78.1567 192.357 78.5047H189.981V74.9527H188.685V83.4487H189.981V79.6567H192.357C192.357 80.0287 192.681 80.5687 194.025 82.5247L194.661 83.4487H196.101V82.9207L193.233 78.9847L195.981 75.2887ZM199.255 83.4487C202.387 79.2847 202.387 79.0687 202.387 78.4327H202.699V83.4487H203.923V77.4007H202.267C199.135 81.5647 199.135 81.7807 199.135 82.4167H198.811V77.4007H197.587V83.4487H199.255ZM205.989 77.4007V85.8967H207.213V83.3047C207.789 83.4487 208.365 83.5927 209.445 83.5927C212.181 83.5927 212.181 81.7207 212.181 80.7127V80.1367C212.181 78.9847 212.181 77.2567 209.589 77.2567C208.149 77.2567 207.357 77.8567 207.069 78.0727L206.565 77.4007H205.989ZM210.885 80.4247C210.885 82.4287 210.885 82.4407 208.941 82.4407C208.509 82.4407 207.789 82.4407 207.213 82.2967V78.8407L208.941 78.4087H209.145C210.885 78.4087 210.885 78.4807 210.885 80.4247ZM214.966 80.4247C214.966 78.4087 214.966 78.3487 216.838 78.3487C218.71 78.3487 218.71 78.4087 218.71 80.4247C218.71 82.4407 218.71 82.5007 216.838 82.5007C214.966 82.5007 214.966 82.4407 214.966 80.4247ZM213.67 80.7127C213.67 81.8647 213.67 83.5927 216.55 83.5927H217.126C220.006 83.5927 220.006 81.8647 220.006 80.7127V80.1367C220.006 78.9847 220.006 77.2567 217.126 77.2567H216.55C213.67 77.2567 213.67 78.9847 213.67 80.1367V80.7127ZM221.786 83.4487H224.582C226.022 83.4487 227.474 83.4487 227.474 81.9367C227.474 81.4327 227.354 80.7847 226.202 80.4967V80.3527C227.354 80.0647 227.354 79.4167 227.354 78.9127C227.354 77.4007 226.022 77.4007 224.582 77.4007H221.786V83.4487ZM225.026 80.8567C226.094 80.8567 226.106 80.8567 226.106 81.6487C226.106 82.4287 226.106 82.4407 225.026 82.4407H223.01V80.8567H225.026ZM224.906 78.4087C225.974 78.4087 225.986 78.4087 225.986 79.2007C225.986 79.9807 225.986 79.9927 224.906 79.9927H223.01V78.4087H224.906Z" fill="#363636"/>
<path d="M227.714 136.597C229.215 136.597 230.432 135.381 230.432 133.88C230.432 132.379 229.215 131.162 227.714 131.162C226.213 131.162 224.997 132.379 224.997 133.88C224.997 135.381 226.213 136.597 227.714 136.597Z" fill="#E21A1A" stroke="white" stroke-miterlimit="10"/>
<path d="M235.486 123.694V132.19H236.782V124.846H241.39V132.19H242.686V123.694H235.486ZM247.626 131.182C245.97 131.182 245.97 131.182 245.97 129.67H247.626C249.354 129.67 249.642 129.67 250.29 129.526L250.578 129.454V128.878C250.578 127.726 250.578 125.998 247.914 125.998H247.338C244.674 125.998 244.674 127.726 244.674 128.878V129.454C244.674 130.75 244.674 132.334 247.626 132.334C248.13 132.334 248.994 132.334 250.146 132.046V130.894H249.858L248.706 131.182H247.626ZM245.97 128.734C245.97 127.15 245.97 127.15 247.626 127.15C249.282 127.15 249.282 127.15 249.282 128.734H245.97ZM252.356 126.142V134.638H253.58V132.046C254.156 132.19 254.732 132.334 255.812 132.334C258.548 132.334 258.548 130.462 258.548 129.454V128.878C258.548 127.726 258.548 125.998 255.956 125.998C254.516 125.998 253.724 126.598 253.436 126.814L252.932 126.142H252.356ZM257.252 129.166C257.252 131.17 257.252 131.182 255.308 131.182C254.876 131.182 254.156 131.182 253.58 131.038V127.582L255.308 127.15H255.512C257.252 127.15 257.252 127.222 257.252 129.166ZM260.325 126.142V132.19H261.549V127.222H261.861C261.861 127.51 261.861 127.51 263.733 132.19H265.341C267.213 127.51 267.213 127.51 267.213 127.15H267.525V132.19H268.749V126.142H266.565C264.693 130.642 264.693 130.642 264.693 131.182H264.381C264.381 130.642 264.381 130.642 262.509 126.142H260.325ZM273.693 132.19C275.133 132.19 276.429 132.19 276.429 130.174C276.429 129.454 276.429 128.014 273.837 128.014C273.261 128.014 272.613 128.086 272.037 128.23V126.142H270.813V132.19H273.693ZM273.837 129.166C275.133 129.166 275.133 129.166 275.133 130.174C275.133 131.182 275.133 131.182 273.837 131.182H272.037V129.166H273.837Z" fill="#363636"/>
<path d="M252.171 172.572C253.672 172.572 254.889 171.355 254.889 169.854C254.889 168.353 253.672 167.137 252.171 167.137C250.671 167.137 249.454 168.353 249.454 169.854C249.454 171.355 250.671 172.572 252.171 172.572Z" fill="#E21A1A" stroke="white" stroke-miterlimit="10"/>
<path d="M259.857 168.207H266.073V167.055H261.153V164.415H265.281V163.263H261.153V160.863H266.073V159.711H259.857V168.207ZM273.964 162.495V162.159H272.596C271.732 163.311 271.228 163.983 271.228 164.607H269.068V162.159H267.844V168.207H269.068V165.759H271.228C271.228 166.383 271.732 167.055 272.596 168.207H273.964V167.871L271.936 165.183L273.964 162.495ZM280.512 168.351L281.424 167.667C280.992 167.091 280.992 167.091 280.992 165.903V164.895C280.992 163.455 280.992 162.015 278.184 162.015C277.752 162.015 276.816 162.015 275.664 162.303V163.455H275.952L277.104 163.167H278.184C279.768 163.167 279.768 163.167 279.768 164.679H278.184C275.16 164.679 275.16 165.687 275.16 166.623C275.16 167.199 275.16 168.351 277.32 168.351C278.808 168.351 279.612 167.751 279.9 167.535L280.512 168.351ZM276.528 166.479C276.528 165.615 276.528 165.615 278.184 165.615H279.768V166.767L278.04 167.199H277.392C276.528 167.199 276.528 167.199 276.528 166.479ZM288.421 162.159H282.373V163.215H284.761V168.207H286.033V163.215H288.421V162.159ZM292.539 167.199C290.883 167.199 290.883 167.199 290.883 165.687H292.539C294.267 165.687 294.555 165.687 295.203 165.543L295.491 165.471V164.895C295.491 163.743 295.491 162.015 292.827 162.015H292.251C289.587 162.015 289.587 163.743 289.587 164.895V165.471C289.587 166.767 289.587 168.351 292.539 168.351C293.043 168.351 293.907 168.351 295.059 168.063V166.911H294.771L293.619 167.199H292.539ZM290.883 164.751C290.883 163.167 290.883 163.167 292.539 163.167C294.195 163.167 294.195 163.167 294.195 164.751H290.883ZM297.27 162.159V170.655H298.494V168.063C299.07 168.207 299.646 168.351 300.726 168.351C303.462 168.351 303.462 166.479 303.462 165.471V164.895C303.462 163.743 303.462 162.015 300.87 162.015C299.43 162.015 298.638 162.615 298.35 162.831L297.846 162.159H297.27ZM302.166 165.183C302.166 167.187 302.166 167.199 300.222 167.199C299.79 167.199 299.07 167.199 298.494 167.055V163.599L300.222 163.167H300.426C302.166 163.167 302.166 163.239 302.166 165.183ZM306.907 168.207C310.039 164.043 310.039 163.827 310.039 163.191H310.351V168.207H311.575V162.159H309.919C306.787 166.323 306.787 166.539 306.787 167.175H306.463V162.159H305.239V168.207H306.907ZM318.393 162.159V164.595H314.865V162.159H313.641V168.207H314.865V165.651H318.393V168.207H319.617V162.159H318.393ZM325.712 161.151C326.36 160.995 326.996 160.827 327.224 159.927L327.296 159.639L326.144 159.351C326 159.783 326.012 159.783 325.424 159.927L323.984 160.287C321.536 160.899 321.536 162.519 321.536 164.391V164.859C321.536 166.875 321.536 168.351 324.488 168.351H325.064C327.944 168.351 327.944 166.911 327.944 165.831V165.183C327.944 164.103 327.944 162.663 325.352 162.663C323.624 162.663 323.048 163.059 322.784 163.383L322.568 163.311C322.928 161.871 322.928 161.847 324.272 161.511L325.712 161.151ZM324.776 163.731C326.648 163.731 326.648 163.995 326.648 165.507C326.648 167.019 326.648 167.283 324.68 167.283C322.904 167.283 322.904 167.019 322.904 165.507C322.904 163.995 322.904 163.731 324.776 163.731ZM331.582 166.911C331.582 166.479 331.582 166.479 330.346 163.239V162.159H329.05C329.05 163.419 329.05 163.419 330.97 167.919H332.182L331.75 169.071C331.522 169.647 331.426 169.647 330.742 169.647H329.794V170.799H330.418C331.354 170.799 332.29 170.763 332.83 169.455L334.822 164.091C335.098 163.419 335.098 163.419 335.098 162.399V162.159H333.838V163.239C332.698 166.503 332.71 166.503 332.71 166.911H331.582ZM336.516 162.159V170.655H337.74V168.063C338.316 168.207 338.892 168.351 339.972 168.351C342.708 168.351 342.708 166.479 342.708 165.471V164.895C342.708 163.743 342.708 162.015 340.116 162.015C338.676 162.015 337.884 162.615 337.596 162.831L337.092 162.159H336.516ZM341.412 165.183C341.412 167.187 341.412 167.199 339.468 167.199C339.036 167.199 338.316 167.199 337.74 167.055V163.599L339.468 163.167H339.672C341.412 163.167 341.412 163.239 341.412 165.183ZM349.357 162.159H344.485V168.207H345.709V163.215H349.357V162.159Z" fill="#363636"/>
<path d="M294.874 196.77C296.375 196.77 297.592 195.553 297.592 194.052C297.592 192.551 296.375 191.335 294.874 191.335C293.373 191.335 292.157 192.551 292.157 194.052C292.157 195.553 293.373 196.77 294.874 196.77Z" fill="#E21A1A" stroke="white" stroke-miterlimit="10"/>
<path d="M301.66 183.867V185.019H304.648V192.363H305.944V185.019H308.932V183.867H301.66ZM309.949 186.315V192.363H311.173V189.843H313.045C313.045 190.923 313.045 192.507 315.925 192.507H316.501C319.381 192.507 319.381 190.923 319.381 189.627V189.051C319.381 187.755 319.381 186.171 316.501 186.171H315.925C313.045 186.171 313.045 187.755 313.045 188.835H311.173V186.315H309.949ZM314.341 189.339C314.341 187.323 314.341 187.323 316.213 187.323C318.085 187.323 318.085 187.323 318.085 189.339C318.085 191.355 318.085 191.355 316.213 191.355C314.341 191.355 314.341 191.355 314.341 189.339ZM321.152 186.315V192.363H322.376V187.395H322.688C322.688 187.683 322.688 187.683 324.56 192.363H326.168C328.04 187.683 328.04 187.683 328.04 187.323H328.352V192.363H329.576V186.315H327.392C325.52 190.815 325.52 190.815 325.52 191.355H325.208C325.208 190.815 325.208 190.815 323.336 186.315H321.152ZM334.305 191.355C332.649 191.355 332.649 191.355 332.649 189.843H334.305C336.033 189.843 336.321 189.843 336.969 189.699L337.257 189.627V189.051C337.257 187.899 337.257 186.171 334.593 186.171H334.017C331.353 186.171 331.353 187.899 331.353 189.051V189.627C331.353 190.923 331.353 192.507 334.305 192.507C334.809 192.507 335.673 192.507 336.825 192.219V191.067H336.537L335.385 191.355H334.305ZM332.649 188.907C332.649 187.323 332.649 187.323 334.305 187.323C335.961 187.323 335.961 187.323 335.961 188.907H332.649ZM343.787 186.315V188.751H340.259V186.315H339.035V192.363H340.259V189.807H343.787V192.363H345.011V186.315H343.787ZM349.954 192.363C351.394 192.363 352.69 192.363 352.69 190.347C352.69 189.627 352.69 188.187 350.098 188.187C349.522 188.187 348.874 188.259 348.298 188.403V186.315H347.074V192.363H349.954ZM350.098 189.339C351.394 189.339 351.394 189.339 351.394 190.347C351.394 191.355 351.394 191.355 350.098 191.355H348.298V189.339H350.098Z" fill="#363636"/>
<path d="M352.2 264.318C353.701 264.318 354.917 263.101 354.917 261.601C354.917 260.1 353.701 258.883 352.2 258.883C350.699 258.883 349.482 260.1 349.482 261.601C349.482 263.101 350.699 264.318 352.2 264.318Z" fill="#E21A1A" stroke="white" stroke-miterlimit="10"/>
<path d="M363.312 251.18C359.568 251.18 359.568 253.388 359.568 255.26V255.98C359.568 257.852 359.568 260.06 363.312 260.06H363.936C367.68 260.06 367.68 257.852 367.68 255.98V255.26C367.68 253.388 367.68 251.18 363.936 251.18H363.312ZM361.008 255.476C361.008 252.464 361.008 252.356 363.624 252.356C366.228 252.356 366.24 252.452 366.24 255.476V255.764C366.24 258.776 366.24 258.884 363.624 258.884C361.02 258.884 361.008 258.788 361.008 255.764V255.476ZM369.603 253.82V259.868H370.827V254.9H371.139C371.139 255.188 371.139 255.188 373.011 259.868H374.619C376.491 255.188 376.491 255.188 376.491 254.828H376.803V259.868H378.027V253.82H375.843C373.971 258.32 373.971 258.32 373.971 258.86H373.659C373.659 258.32 373.659 258.32 371.787 253.82H369.603ZM382.755 260.012C383.187 260.012 384.123 260.012 385.275 259.724V258.572H384.987L383.823 258.86H383.187C381.099 258.86 381.099 258.86 381.099 256.844C381.099 254.828 381.099 254.828 382.755 254.828C384.123 254.828 384.123 254.828 384.411 255.98L385.563 255.692C385.563 255.116 385.563 253.676 383.043 253.676H382.467C379.803 253.676 379.803 255.26 379.803 256.556V257.132C379.803 258.428 379.803 260.012 382.755 260.012ZM393.313 254.156V253.82H391.945C391.081 254.972 390.577 255.644 390.577 256.268H388.417V253.82H387.193V259.868H388.417V257.42H390.577C390.577 258.044 391.081 258.716 391.945 259.868H393.313V259.532L391.285 256.844L393.313 254.156Z" fill="#363636"/>
<path d="M555.621 296.151C557.122 296.151 558.338 294.934 558.338 293.434C558.338 291.933 557.122 290.716 555.621 290.716C554.12 290.716 552.903 291.933 552.903 293.434C552.903 294.934 554.12 296.151 555.621 296.151Z" fill="#E21A1A" stroke="white" stroke-miterlimit="10"/>
<path d="M539.544 307.84V307.504H538.224L537.528 308.392C536.124 310.192 535.92 310.708 535.92 311.056H533.544V307.504H532.248V316H533.544V312.208H535.92C535.92 312.58 536.244 313.12 537.588 315.076L538.224 316H539.664V315.472L536.796 311.536L539.544 307.84ZM541.149 309.952V318.448H542.373V315.856C542.949 316 543.525 316.144 544.605 316.144C547.341 316.144 547.341 314.272 547.341 313.264V312.688C547.341 311.536 547.341 309.808 544.749 309.808C543.309 309.808 542.517 310.408 542.229 310.624L541.725 309.952H541.149ZM546.045 312.976C546.045 314.98 546.045 314.992 544.101 314.992C543.669 314.992 542.949 314.992 542.373 314.848V311.392L544.101 310.96H544.305C546.045 310.96 546.045 311.032 546.045 312.976ZM554.11 316.144L555.022 315.46C554.59 314.884 554.59 314.884 554.59 313.696V312.688C554.59 311.248 554.59 309.808 551.782 309.808C551.35 309.808 550.414 309.808 549.262 310.096V311.248H549.55L550.702 310.96H551.782C553.366 310.96 553.366 310.96 553.366 312.472H551.782C548.758 312.472 548.758 313.48 548.758 314.416C548.758 314.992 548.758 316.144 550.918 316.144C552.406 316.144 553.21 315.544 553.498 315.328L554.11 316.144ZM550.126 314.272C550.126 313.408 550.126 313.408 551.782 313.408H553.366V314.56L551.638 314.992H550.99C550.126 314.992 550.126 314.992 550.126 314.272ZM559.247 316.144C559.679 316.144 560.615 316.144 561.767 315.856V314.704H561.479L560.315 314.992H559.679C557.591 314.992 557.591 314.992 557.591 312.976C557.591 310.96 557.591 310.96 559.247 310.96C560.615 310.96 560.615 310.96 560.903 312.112L562.055 311.824C562.055 311.248 562.055 309.808 559.535 309.808H558.959C556.295 309.808 556.295 311.392 556.295 312.688V313.264C556.295 314.56 556.295 316.144 559.247 316.144ZM568.436 309.952V312.388H564.908V309.952H563.684V316H564.908V313.444H568.436V316H569.66V309.952H568.436ZM572.731 312.976C572.731 310.96 572.731 310.9 574.603 310.9C576.475 310.9 576.475 310.96 576.475 312.976C576.475 314.992 576.475 315.052 574.603 315.052C572.731 315.052 572.731 314.992 572.731 312.976ZM571.435 313.264C571.435 314.416 571.435 316.144 574.315 316.144H574.891C577.771 316.144 577.771 314.416 577.771 313.264V312.688C577.771 311.536 577.771 309.808 574.891 309.808H574.315C571.435 309.808 571.435 311.536 571.435 312.688V313.264ZM585.024 316V309.952H582.432C580.632 309.952 579.192 309.952 579.192 311.896C579.192 312.952 579.552 313.228 580.56 313.984L579.3 315.664V316H580.668C581.1 315.448 581.568 314.872 581.568 313.984H583.8V316H585.024ZM581.928 312.976C580.572 312.976 580.56 312.976 580.56 311.968C580.56 310.972 580.56 310.96 581.928 310.96H583.8V312.976H581.928ZM587.087 309.952V318.448H588.311V315.856C588.887 316 589.463 316.144 590.543 316.144C593.279 316.144 593.279 314.272 593.279 313.264V312.688C593.279 311.536 593.279 309.808 590.687 309.808C589.247 309.808 588.455 310.408 588.167 310.624L587.663 309.952H587.087ZM591.983 312.976C591.983 314.98 591.983 314.992 590.039 314.992C589.607 314.992 588.887 314.992 588.311 314.848V311.392L590.039 310.96H590.243C591.983 310.96 591.983 311.032 591.983 312.976ZM597.719 316.144C598.151 316.144 599.087 316.144 600.239 315.856V314.704H599.951L598.787 314.992H598.151C596.063 314.992 596.063 314.992 596.063 312.976C596.063 310.96 596.063 310.96 597.719 310.96C599.087 310.96 599.087 310.96 599.375 312.112L600.527 311.824C600.527 311.248 600.527 309.808 598.007 309.808H597.431C594.767 309.808 594.767 311.392 594.767 312.688V313.264C594.767 314.56 594.767 316.144 597.719 316.144ZM608.277 310.288V309.952H606.909C606.045 311.104 605.541 311.776 605.541 312.4H603.381V309.952H602.157V316H603.381V313.552H605.541C605.541 314.176 606.045 314.848 606.909 316H608.277V315.664L606.249 312.976L608.277 310.288Z" fill="#363636"/>
<path d="M731.608 373.793C733.109 373.793 734.326 372.576 734.326 371.075C734.326 369.574 733.109 368.358 731.608 368.358C730.108 368.358 728.891 369.574 728.891 371.075C728.891 372.576 730.108 373.793 731.608 373.793Z" fill="#E21A1A" stroke="white" stroke-miterlimit="10"/>
<path d="M723.666 355.005C723.666 354.429 723.666 354.429 721.758 350.325H720.486V350.757L723.006 356.049H724.71L724.29 356.949C723.954 357.669 723.798 357.669 722.934 357.669H721.842V358.821H722.646C724.17 358.821 724.842 358.821 725.586 357.093L728.31 350.757V350.325H727.074C725.346 354.429 725.346 354.429 725.37 355.005H723.666ZM733.498 353.841V358.821H734.722V352.773H729.838C729.802 354.021 729.73 355.053 729.514 356.613C729.37 357.657 729.25 357.861 728.218 357.861V358.845C730.162 358.845 730.366 358.617 730.606 356.829C730.786 355.509 730.87 354.585 730.894 353.841H733.498ZM741.782 358.965L742.694 358.281C742.262 357.705 742.262 357.705 742.262 356.517V355.509C742.262 354.069 742.262 352.629 739.454 352.629C739.022 352.629 738.086 352.629 736.934 352.917V354.069H737.222L738.374 353.781H739.454C741.038 353.781 741.038 353.781 741.038 355.293H739.454C736.43 355.293 736.43 356.301 736.43 357.237C736.43 357.813 736.43 358.965 738.59 358.965C740.078 358.965 740.882 358.365 741.17 358.149L741.782 358.965ZM737.798 357.093C737.798 356.229 737.798 356.229 739.454 356.229H741.038V357.381L739.31 357.813H738.662C737.798 357.813 737.798 357.813 737.798 357.093ZM749.006 352.773V355.209H745.478V352.773H744.254V358.821H745.478V356.265H749.006V358.821H750.23V352.773H749.006ZM751.502 354.861V355.941H755.102V354.861H751.502ZM758.647 355.005C758.647 354.429 758.647 354.429 756.739 350.325H755.467V350.757L757.987 356.049H759.691L759.271 356.949C758.935 357.669 758.779 357.669 757.915 357.669H756.823V358.821H757.627C759.151 358.821 759.823 358.821 760.567 357.093L763.291 350.757V350.325H762.055C760.327 354.429 760.327 354.429 760.351 355.005H758.647ZM764.354 358.821H769.622V360.549H770.798V357.813H769.79V352.773H764.87V353.493C764.87 354.921 764.714 356.445 764.006 357.813H763.178V360.549H764.354V358.821ZM766.046 353.829H768.566V357.813H765.326C765.902 356.433 766.046 354.969 766.046 353.829ZM777.363 355.509C777.363 354.213 777.363 352.629 774.555 352.629H774.339C773.907 352.629 773.043 352.629 771.891 352.917V354.069H772.179L773.331 353.781H774.411C776.067 353.781 776.067 353.781 776.067 355.293H773.331V356.301H776.067C776.067 357.813 776.067 357.813 774.411 357.813H773.331L772.179 357.525H771.891V358.677C773.043 358.965 773.907 358.965 774.339 358.965H774.555C777.363 358.965 777.363 357.381 777.363 356.085V355.509Z" fill="#363636"/>
<path d="M796.31 358.653C797.811 358.653 799.027 357.436 799.027 355.935C799.027 354.434 797.811 353.218 796.31 353.218C794.809 353.218 793.592 354.434 793.592 355.935C793.592 357.436 794.809 358.653 796.31 358.653Z" fill="#E21A1A" stroke="white" stroke-miterlimit="10"/>
<path d="M801.344 340.12V344.44L799.616 344.872H799.112C796.952 344.872 796.952 344.872 796.952 342.712V340.12H795.656V342.712C795.656 344.44 795.656 346.168 798.392 346.168C799.328 346.168 800.192 345.952 801.344 345.664V348.616H802.64V340.12H801.344ZM806.585 348.616C809.717 344.452 809.717 344.236 809.717 343.6H810.029V348.616H811.253V342.568H809.597C806.465 346.732 806.465 346.948 806.465 347.584H806.141V342.568H804.917V348.616H806.585ZM818.755 342.568H812.707V343.624H815.095V348.616H816.367V343.624H818.755V342.568ZM825.202 348.76L826.114 348.076C825.682 347.5 825.682 347.5 825.682 346.312V345.304C825.682 343.864 825.682 342.424 822.874 342.424C822.442 342.424 821.506 342.424 820.354 342.712V343.864H820.642L821.794 343.576H822.874C824.458 343.576 824.458 343.576 824.458 345.088H822.874C819.85 345.088 819.85 346.096 819.85 347.032C819.85 347.608 819.85 348.76 822.01 348.76C823.498 348.76 824.302 348.16 824.59 347.944L825.202 348.76ZM821.218 346.888C821.218 346.024 821.218 346.024 822.874 346.024H824.458V347.176L822.73 347.608H822.082C821.218 347.608 821.218 347.608 821.218 346.888Z" fill="#363636"/>
<path d="M972.945 330.443C974.445 330.443 975.662 329.226 975.662 327.725C975.662 326.224 974.445 325.008 972.945 325.008C971.444 325.008 970.227 326.224 970.227 327.725C970.227 329.226 971.444 330.443 972.945 330.443Z" fill="#E21A1A" stroke="white" stroke-miterlimit="10"/>
<path d="M979.769 317.923V315.715H984.809V314.563H978.473V323.059H981.497C984.161 323.059 985.529 322.999 985.529 320.491C985.529 317.983 984.161 317.923 981.497 317.923H979.769ZM979.769 319.075H982.361C984.137 319.075 984.161 319.075 984.161 320.491C984.161 321.883 984.161 321.907 982.361 321.907H979.769V319.075ZM989.828 322.051C988.172 322.051 988.172 322.051 988.172 320.539H989.828C991.556 320.539 991.844 320.539 992.492 320.395L992.78 320.323V319.747C992.78 318.595 992.78 316.867 990.116 316.867H989.54C986.876 316.867 986.876 318.595 986.876 319.747V320.323C986.876 321.619 986.876 323.203 989.828 323.203C990.332 323.203 991.196 323.203 992.348 322.915V321.763H992.06L990.908 322.051H989.828ZM988.172 319.603C988.172 318.019 988.172 318.019 989.828 318.019C991.484 318.019 991.484 318.019 991.484 319.603H988.172ZM999.106 318.079V323.059H1000.33V317.011H995.446C995.41 318.259 995.338 319.291 995.122 320.851C994.978 321.895 994.858 322.099 993.826 322.099V323.083C995.77 323.083 995.974 322.855 996.214 321.067C996.394 319.747 996.478 318.823 996.502 318.079H999.106ZM1003.41 320.035C1003.41 318.019 1003.41 317.959 1005.28 317.959C1007.15 317.959 1007.15 318.019 1007.15 320.035C1007.15 322.051 1007.15 322.111 1005.28 322.111C1003.41 322.111 1003.41 322.051 1003.41 320.035ZM1002.11 320.323C1002.11 321.475 1002.11 323.203 1004.99 323.203H1005.57C1008.45 323.203 1008.45 321.475 1008.45 320.323V319.747C1008.45 318.595 1008.45 316.867 1005.57 316.867H1004.99C1002.11 316.867 1002.11 318.595 1002.11 319.747V320.323ZM1015.1 317.011H1010.23V323.059H1011.45V318.067H1015.1V317.011ZM1017.43 320.035C1017.43 318.019 1017.43 317.959 1019.31 317.959C1021.18 317.959 1021.18 318.019 1021.18 320.035C1021.18 322.051 1021.18 322.111 1019.31 322.111C1017.43 322.111 1017.43 322.051 1017.43 320.035ZM1016.14 320.323C1016.14 321.475 1016.14 323.203 1019.02 323.203H1019.59C1022.47 323.203 1022.47 321.475 1022.47 320.323V319.747C1022.47 318.595 1022.47 316.867 1019.59 316.867H1019.02C1016.14 316.867 1016.14 318.595 1016.14 319.747V320.323ZM1024.25 317.011V325.507H1025.48V322.915C1026.05 323.059 1026.63 323.203 1027.71 323.203C1030.45 323.203 1030.45 321.331 1030.45 320.323V319.747C1030.45 318.595 1030.45 316.867 1027.85 316.867C1026.41 316.867 1025.62 317.467 1025.33 317.683L1024.83 317.011H1024.25ZM1029.15 320.035C1029.15 322.039 1029.15 322.051 1027.21 322.051C1026.77 322.051 1026.05 322.051 1025.48 321.907V318.451L1027.21 318.019H1027.41C1029.15 318.019 1029.15 318.091 1029.15 320.035ZM1034.89 323.203C1035.32 323.203 1036.25 323.203 1037.41 322.915V321.763H1037.12L1035.95 322.051H1035.32C1033.23 322.051 1033.23 322.051 1033.23 320.035C1033.23 318.019 1033.23 318.019 1034.89 318.019C1036.25 318.019 1036.25 318.019 1036.54 319.171L1037.69 318.883C1037.69 318.307 1037.69 316.867 1035.17 316.867H1034.6C1031.93 316.867 1031.93 318.451 1031.93 319.747V320.323C1031.93 321.619 1031.93 323.203 1034.89 323.203ZM1045.44 317.347V317.011H1044.08C1043.21 318.163 1042.71 318.835 1042.71 319.459H1040.55V317.011H1039.32V323.059H1040.55V320.611H1042.71C1042.71 321.235 1043.21 321.907 1044.08 323.059H1045.44V322.723L1043.42 320.035L1045.44 317.347Z" fill="#363636"/>
<path d="M1066.37 335.36C1067.87 335.36 1069.09 334.143 1069.09 332.642C1069.09 331.142 1067.87 329.925 1066.37 329.925C1064.87 329.925 1063.66 331.142 1063.66 332.642C1063.66 334.143 1064.87 335.36 1066.37 335.36Z" fill="#E21A1A" stroke="white" stroke-miterlimit="10"/>
<path d="M1065.17 324.48V324.912H1066.61C1068.13 322.896 1068.92 321.84 1068.92 321.24H1069.93C1069.93 321.84 1070.72 322.896 1072.23 324.912H1073.67V324.48L1070.8 320.664L1073.67 316.848V316.416H1072.23C1070.72 318.432 1069.93 319.488 1069.93 320.088H1068.92C1068.92 319.488 1068.13 318.432 1066.61 316.416H1065.17V316.848L1068.04 320.664L1065.17 324.48ZM1080.15 325.056L1081.07 324.372C1080.63 323.796 1080.63 323.796 1080.63 322.608V321.6C1080.63 320.16 1080.63 318.72 1077.83 318.72C1077.39 318.72 1076.46 318.72 1075.31 319.008V320.16H1075.59L1076.75 319.872H1077.83C1079.41 319.872 1079.41 319.872 1079.41 321.384H1077.83C1074.8 321.384 1074.8 322.392 1074.8 323.328C1074.8 323.904 1074.8 325.056 1076.96 325.056C1078.45 325.056 1079.25 324.456 1079.54 324.24L1080.15 325.056ZM1076.17 323.184C1076.17 322.32 1076.17 322.32 1077.83 322.32H1079.41V323.472L1077.68 323.904H1077.03C1076.17 323.904 1076.17 323.904 1076.17 323.184ZM1086.66 317.856C1087.31 317.7 1087.94 317.532 1088.17 316.632L1088.24 316.344L1087.09 316.056C1086.95 316.488 1086.96 316.488 1086.37 316.632L1084.93 316.992C1082.48 317.604 1082.48 319.224 1082.48 321.096V321.564C1082.48 323.58 1082.48 325.056 1085.43 325.056H1086.01C1088.89 325.056 1088.89 323.616 1088.89 322.536V321.888C1088.89 320.808 1088.89 319.368 1086.3 319.368C1084.57 319.368 1083.99 319.764 1083.73 320.088L1083.51 320.016C1083.87 318.576 1083.87 318.552 1085.22 318.216L1086.66 317.856ZM1085.72 320.436C1087.59 320.436 1087.59 320.7 1087.59 322.212C1087.59 323.724 1087.59 323.988 1085.63 323.988C1083.85 323.988 1083.85 323.724 1083.85 322.212C1083.85 320.7 1083.85 320.436 1085.72 320.436ZM1095.59 325.056L1096.5 324.372C1096.07 323.796 1096.07 323.796 1096.07 322.608V321.6C1096.07 320.16 1096.07 318.72 1093.26 318.72C1092.83 318.72 1091.89 318.72 1090.74 319.008V320.16H1091.03L1092.18 319.872H1093.26C1094.84 319.872 1094.84 319.872 1094.84 321.384H1093.26C1090.23 321.384 1090.23 322.392 1090.23 323.328C1090.23 323.904 1090.23 325.056 1092.39 325.056C1093.88 325.056 1094.69 324.456 1094.97 324.24L1095.59 325.056ZM1091.6 323.184C1091.6 322.32 1091.6 322.32 1093.26 322.32H1094.84V323.472L1093.11 323.904H1092.47C1091.6 323.904 1091.6 323.904 1091.6 323.184ZM1098.06 318.864V327.36H1099.28V324.768C1099.86 324.912 1100.44 325.056 1101.52 325.056C1104.25 325.056 1104.25 323.184 1104.25 322.176V321.6C1104.25 320.448 1104.25 318.72 1101.66 318.72C1100.22 318.72 1099.43 319.32 1099.14 319.536L1098.64 318.864H1098.06ZM1102.96 321.888C1102.96 323.892 1102.96 323.904 1101.01 323.904C1100.58 323.904 1099.86 323.904 1099.28 323.76V320.304L1101.01 319.872H1101.22C1102.96 319.872 1102.96 319.944 1102.96 321.888ZM1107.04 321.888C1107.04 319.872 1107.04 319.812 1108.91 319.812C1110.78 319.812 1110.78 319.872 1110.78 321.888C1110.78 323.904 1110.78 323.964 1108.91 323.964C1107.04 323.964 1107.04 323.904 1107.04 321.888ZM1105.74 322.176C1105.74 323.328 1105.74 325.056 1108.62 325.056H1109.2C1112.08 325.056 1112.08 323.328 1112.08 322.176V321.6C1112.08 320.448 1112.08 318.72 1109.2 318.72H1108.62C1105.74 318.72 1105.74 320.448 1105.74 321.6V322.176ZM1113.86 324.912H1116.65C1118.09 324.912 1119.54 324.912 1119.54 323.4C1119.54 322.896 1119.42 322.248 1118.27 321.96V321.816C1119.42 321.528 1119.42 320.88 1119.42 320.376C1119.42 318.864 1118.09 318.864 1116.65 318.864H1113.86V324.912ZM1117.1 322.32C1118.16 322.32 1118.18 322.32 1118.18 323.112C1118.18 323.892 1118.18 323.904 1117.1 323.904H1115.08V322.32H1117.1ZM1116.98 319.872C1118.04 319.872 1118.06 319.872 1118.06 320.664C1118.06 321.444 1118.06 321.456 1116.98 321.456H1115.08V319.872H1116.98ZM1123.99 325.056C1124.42 325.056 1125.35 325.056 1126.51 324.768V323.616H1126.22L1125.05 323.904H1124.42C1122.33 323.904 1122.33 323.904 1122.33 321.888C1122.33 319.872 1122.33 319.872 1123.99 319.872C1125.35 319.872 1125.35 319.872 1125.64 321.024L1126.79 320.736C1126.79 320.16 1126.79 318.72 1124.27 318.72H1123.7C1121.03 318.72 1121.03 320.304 1121.03 321.6V322.176C1121.03 323.472 1121.03 325.056 1123.99 325.056ZM1134.54 319.2V318.864H1133.17C1132.31 320.016 1131.81 320.688 1131.81 321.312H1129.65V318.864H1128.42V324.912H1129.65V322.464H1131.81C1131.81 323.088 1132.31 323.76 1133.17 324.912H1134.54V324.576L1132.51 321.888L1134.54 319.2Z" fill="#363636"/>
<path d="M1075.43 427.883C1076.93 427.883 1078.15 426.666 1078.15 425.165C1078.15 423.665 1076.93 422.448 1075.43 422.448C1073.93 422.448 1072.71 423.665 1072.71 425.165C1072.71 426.666 1073.93 427.883 1075.43 427.883Z" fill="#E21A1A" stroke="white" stroke-miterlimit="10"/>
<path d="M1005.6 425.184C1005.6 424.608 1005.6 424.608 1003.69 420.504H1002.42V420.936L1004.94 426.228H1006.64L1006.22 427.128C1005.89 427.848 1005.73 427.848 1004.87 427.848H1003.78V429H1004.58C1006.1 429 1006.78 429 1007.52 427.272L1010.24 420.936V420.504H1009.01C1007.28 424.608 1007.28 424.608 1007.3 425.184H1005.6ZM1013.41 429.144C1013.84 429.144 1014.77 429.144 1015.93 428.856V427.704H1015.64L1014.47 427.992H1013.84C1011.75 427.992 1011.75 427.992 1011.75 425.976C1011.75 423.96 1011.75 423.96 1013.41 423.96C1014.77 423.96 1014.77 423.96 1015.06 425.112L1016.21 424.824C1016.21 424.248 1016.21 422.808 1013.69 422.808H1013.12C1010.45 422.808 1010.45 424.392 1010.45 425.688V426.264C1010.45 427.56 1010.45 429.144 1013.41 429.144ZM1020.51 429.144C1020.94 429.144 1021.88 429.144 1023.03 428.856V427.704H1022.74L1021.58 427.992H1020.94C1018.85 427.992 1018.85 427.992 1018.85 425.976C1018.85 423.96 1018.85 423.96 1020.51 423.96C1021.88 423.96 1021.88 423.96 1022.16 425.112L1023.32 424.824C1023.32 424.248 1023.32 422.808 1020.8 422.808H1020.22C1017.56 422.808 1017.56 424.392 1017.56 425.688V426.264C1017.56 427.56 1017.56 429.144 1020.51 429.144ZM1026.95 427.704C1026.95 427.272 1026.95 427.272 1025.71 424.032V422.952H1024.42C1024.42 424.212 1024.42 424.212 1026.34 428.712H1027.55L1027.12 429.864C1026.89 430.44 1026.79 430.44 1026.11 430.44H1025.16V431.592H1025.79C1026.72 431.592 1027.66 431.556 1028.2 430.248L1030.19 424.884C1030.47 424.212 1030.47 424.212 1030.47 423.192V422.952H1029.21V424.032C1028.07 427.296 1028.08 427.296 1028.08 427.704H1026.95ZM1031.88 422.952V431.448H1033.11V428.856C1033.68 429 1034.26 429.144 1035.34 429.144C1038.08 429.144 1038.08 427.272 1038.08 426.264V425.688C1038.08 424.536 1038.08 422.808 1035.48 422.808C1034.04 422.808 1033.25 423.408 1032.96 423.624L1032.46 422.952H1031.88ZM1036.78 425.976C1036.78 427.98 1036.78 427.992 1034.84 427.992C1034.4 427.992 1033.68 427.992 1033.11 427.848V424.392L1034.84 423.96H1035.04C1036.78 423.96 1036.78 424.032 1036.78 425.976ZM1041.52 429C1044.65 424.836 1044.65 424.62 1044.65 423.984H1044.96V429H1046.19V422.952H1044.53C1041.4 427.116 1041.4 427.332 1041.4 427.968H1041.08V422.952H1039.85V429H1041.52ZM1051.82 422.04C1052.63 422.04 1053.21 422.04 1053.97 421.152L1053.1 420.504C1052.72 421.032 1052.71 421.032 1052.05 421.032H1050.92C1050.27 421.032 1050.26 421.032 1049.86 420.504L1049 421.152C1049.75 422.04 1050.33 422.04 1051.15 422.04H1051.82ZM1049.92 429C1053.05 424.836 1053.05 424.62 1053.05 423.984H1053.37V429H1054.59V422.952H1052.93C1049.8 427.116 1049.8 427.332 1049.8 427.968H1049.48V422.952H1048.25V429H1049.92ZM1059.32 429.144C1059.75 429.144 1060.69 429.144 1061.84 428.856V427.704H1061.55L1060.39 427.992H1059.75C1057.67 427.992 1057.67 427.992 1057.67 425.976C1057.67 423.96 1057.67 423.96 1059.32 423.96C1060.69 423.96 1060.69 423.96 1060.98 425.112L1062.13 424.824C1062.13 424.248 1062.13 422.808 1059.61 422.808H1059.03C1056.37 422.808 1056.37 424.392 1056.37 425.688V426.264C1056.37 427.56 1056.37 429.144 1059.32 429.144ZM1069.88 423.288V422.952H1068.51C1067.65 424.104 1067.14 424.776 1067.14 425.4H1064.98V422.952H1063.76V429H1064.98V426.552H1067.14C1067.14 427.176 1067.65 427.848 1068.51 429H1069.88V428.664L1067.85 425.976L1069.88 423.288Z" fill="#363636"/>
<path d="M1078.67 442.117C1080.17 442.117 1081.38 440.9 1081.38 439.4C1081.38 437.899 1080.17 436.682 1078.67 436.682C1077.17 436.682 1075.95 437.899 1075.95 439.4C1075.95 440.9 1077.17 442.117 1078.67 442.117Z" fill="#E21A1A" stroke="white" stroke-miterlimit="10"/>
<path d="M990.803 440.442C992.099 440.442 992.099 440.502 992.099 441.762C992.099 443.022 992.099 443.082 990.803 443.082H987.779V440.442H990.803ZM990.683 436.89C991.979 436.89 991.979 436.902 991.979 438.09C991.979 439.278 991.979 439.29 990.683 439.29H987.779V436.89H990.683ZM989.867 444.234C992.099 444.234 993.539 444.174 993.539 441.87C993.539 441.582 993.419 440.25 992.363 439.986V439.746C993.419 439.482 993.419 438.27 993.419 437.982C993.419 435.75 991.979 435.738 989.747 435.738H986.483V444.234H989.867ZM1000.01 439.254V444.234H1001.24V438.186H996.354C996.318 439.434 996.246 440.466 996.03 442.026C995.886 443.07 995.766 443.274 994.734 443.274V444.258C996.678 444.258 996.882 444.03 997.122 442.242C997.302 440.922 997.386 439.998 997.41 439.254H1000.01ZM1008.3 444.378L1009.21 443.694C1008.78 443.118 1008.78 443.118 1008.78 441.93V440.922C1008.78 439.482 1008.78 438.042 1005.97 438.042C1005.54 438.042 1004.6 438.042 1003.45 438.33V439.482H1003.74L1004.89 439.194H1005.97C1007.55 439.194 1007.55 439.194 1007.55 440.706H1005.97C1002.95 440.706 1002.95 441.714 1002.95 442.65C1002.95 443.226 1002.95 444.378 1005.11 444.378C1006.59 444.378 1007.4 443.778 1007.69 443.562L1008.3 444.378ZM1004.31 442.506C1004.31 441.642 1004.31 441.642 1005.97 441.642H1007.55V442.794L1005.83 443.226H1005.18C1004.31 443.226 1004.31 443.226 1004.31 442.506ZM1011.33 444.234H1016.6V445.962H1017.78V443.226H1016.77V438.186H1011.85V438.906C1011.85 440.334 1011.69 441.858 1010.99 443.226H1010.16V445.962H1011.33V444.234ZM1013.03 439.242H1015.55V443.226H1012.31C1012.88 441.846 1013.03 440.382 1013.03 439.242ZM1020.9 444.234C1024.03 440.07 1024.03 439.854 1024.03 439.218H1024.34V444.234H1025.57V438.186H1023.91C1020.78 442.35 1020.78 442.566 1020.78 443.202H1020.46V438.186H1019.23V444.234H1020.9ZM1027.63 444.234H1030.43C1031.87 444.234 1033.32 444.234 1033.32 442.722C1033.32 442.218 1033.2 441.57 1032.05 441.282V441.138C1033.2 440.85 1033.2 440.202 1033.2 439.698C1033.2 438.186 1031.87 438.186 1030.43 438.186H1027.63V444.234ZM1030.87 441.642C1031.94 441.642 1031.95 441.642 1031.95 442.434C1031.95 443.214 1031.95 443.226 1030.87 443.226H1028.86V441.642H1030.87ZM1030.75 439.194C1031.82 439.194 1031.83 439.194 1031.83 439.986C1031.83 440.766 1031.83 440.778 1030.75 440.778H1028.86V439.194H1030.75ZM1036.11 441.21C1036.11 439.194 1036.11 439.134 1037.98 439.134C1039.85 439.134 1039.85 439.194 1039.85 441.21C1039.85 443.226 1039.85 443.286 1037.98 443.286C1036.11 443.286 1036.11 443.226 1036.11 441.21ZM1034.81 441.498C1034.81 442.65 1034.81 444.378 1037.69 444.378H1038.27C1041.15 444.378 1041.15 442.65 1041.15 441.498V440.922C1041.15 439.77 1041.15 438.042 1038.27 438.042H1037.69C1034.81 438.042 1034.81 439.77 1034.81 440.922V441.498ZM1045.59 444.378C1046.02 444.378 1046.96 444.378 1048.11 444.09V442.938H1047.82L1046.66 443.226H1046.02C1043.94 443.226 1043.94 443.226 1043.94 441.21C1043.94 439.194 1043.94 439.194 1045.59 439.194C1046.96 439.194 1046.96 439.194 1047.25 440.346L1048.4 440.058C1048.4 439.482 1048.4 438.042 1045.88 438.042H1045.3C1042.64 438.042 1042.64 439.626 1042.64 440.922V441.498C1042.64 442.794 1042.64 444.378 1045.59 444.378ZM1055.46 438.186H1049.42V439.242H1051.8V444.234H1053.08V439.242H1055.46V438.186ZM1057.93 441.21C1057.93 439.194 1057.93 439.134 1059.8 439.134C1061.67 439.134 1061.67 439.194 1061.67 441.21C1061.67 443.226 1061.67 443.286 1059.8 443.286C1057.93 443.286 1057.93 443.226 1057.93 441.21ZM1056.63 441.498C1056.63 442.65 1056.63 444.378 1059.51 444.378H1060.09C1062.97 444.378 1062.97 442.65 1062.97 441.498V440.922C1062.97 439.77 1062.97 438.042 1060.09 438.042H1059.51C1056.63 438.042 1056.63 439.77 1056.63 440.922V441.498ZM1070.87 438.522V438.186H1069.5C1068.64 439.338 1068.13 440.01 1068.13 440.634H1065.97V438.186H1064.75V444.234H1065.97V441.786H1068.13C1068.13 442.41 1068.64 443.082 1069.5 444.234H1070.87V443.898L1068.84 441.21L1070.87 438.522Z" fill="#363636"/>
<path d="M899.444 293.951C900.945 293.951 902.161 292.735 902.161 291.234C902.161 289.733 900.945 288.516 899.444 288.516C897.943 288.516 896.726 289.733 896.726 291.234C896.726 292.735 897.943 293.951 899.444 293.951Z" fill="#E21A1A" stroke="white" stroke-miterlimit="10"/>
<path d="M813.232 279C813.232 278.16 813.232 276.312 809.848 276.312H809.416C805.888 276.312 805.888 278.52 805.888 280.392V281.112C805.888 283.128 805.888 285.192 809.632 285.192C810.352 285.192 811.192 285.192 813.016 284.736V283.488H812.584L810.856 283.92H810.352C807.328 283.92 807.328 283.92 807.328 280.968V280.536C807.328 277.584 807.328 277.584 809.632 277.584C811.552 277.584 811.552 277.584 811.984 279.312L813.232 279ZM820.988 279.288V278.952H819.62C818.756 280.104 818.252 280.776 818.252 281.4H816.092V278.952H814.868V285H816.092V282.552H818.252C818.252 283.176 818.756 283.848 819.62 285H820.988V284.664L818.96 281.976L820.988 279.288ZM823.481 281.976C823.481 279.96 823.481 279.9 825.353 279.9C827.225 279.9 827.225 279.96 827.225 281.976C827.225 283.992 827.225 284.052 825.353 284.052C823.481 284.052 823.481 283.992 823.481 281.976ZM822.185 282.264C822.185 283.416 822.185 285.144 825.065 285.144H825.641C828.521 285.144 828.521 283.416 828.521 282.264V281.688C828.521 280.536 828.521 278.808 825.641 278.808H825.065C822.185 278.808 822.185 280.536 822.185 281.688V282.264ZM830.302 285H833.098C834.538 285 835.99 285 835.99 283.488C835.99 282.984 835.87 282.336 834.718 282.048V281.904C835.87 281.616 835.87 280.968 835.87 280.464C835.87 278.952 834.538 278.952 833.098 278.952H830.302V285ZM833.542 282.408C834.61 282.408 834.622 282.408 834.622 283.2C834.622 283.98 834.622 283.992 833.542 283.992H831.526V282.408H833.542ZM833.422 279.96C834.49 279.96 834.502 279.96 834.502 280.752C834.502 281.532 834.502 281.544 833.422 281.544H831.526V279.96H833.422ZM838.774 281.976C838.774 279.96 838.774 279.9 840.646 279.9C842.518 279.9 842.518 279.96 842.518 281.976C842.518 283.992 842.518 284.052 840.646 284.052C838.774 284.052 838.774 283.992 838.774 281.976ZM837.478 282.264C837.478 283.416 837.478 285.144 840.358 285.144H840.934C843.814 285.144 843.814 283.416 843.814 282.264V281.688C843.814 280.536 843.814 278.808 840.934 278.808H840.358C837.478 278.808 837.478 280.536 837.478 281.688V282.264ZM845.595 278.952V287.448H846.819V284.856C847.395 285 847.971 285.144 849.051 285.144C851.787 285.144 851.787 283.272 851.787 282.264V281.688C851.787 280.536 851.787 278.808 849.195 278.808C847.755 278.808 846.963 279.408 846.675 279.624L846.171 278.952H845.595ZM850.491 281.976C850.491 283.98 850.491 283.992 848.547 283.992C848.115 283.992 847.395 283.992 846.819 283.848V280.392L848.547 279.96H848.751C850.491 279.96 850.491 280.032 850.491 281.976ZM854.571 281.976C854.571 279.96 854.571 279.9 856.443 279.9C858.315 279.9 858.315 279.96 858.315 281.976C858.315 283.992 858.315 284.052 856.443 284.052C854.571 284.052 854.571 283.992 854.571 281.976ZM853.275 282.264C853.275 283.416 853.275 285.144 856.155 285.144H856.731C859.611 285.144 859.611 283.416 859.611 282.264V281.688C859.611 280.536 859.611 278.808 856.731 278.808H856.155C853.275 278.808 853.275 280.536 853.275 281.688V282.264ZM861.955 285H867.223V286.728H868.399V283.992H867.391V278.952H862.471V279.672C862.471 281.1 862.315 282.624 861.607 283.992H860.779V286.728H861.955V285ZM863.647 280.008H866.167V283.992H862.927C863.503 282.612 863.647 281.148 863.647 280.008ZM871.52 285C874.652 280.836 874.652 280.62 874.652 279.984H874.964V285H876.188V278.952H874.532C871.4 283.116 871.4 283.332 871.4 283.968H871.076V278.952H869.852V285H871.52ZM883.007 278.952V281.388H879.479V278.952H878.255V285H879.479V282.444H883.007V285H884.231V278.952H883.007ZM887.302 281.976C887.302 279.96 887.302 279.9 889.174 279.9C891.046 279.9 891.046 279.96 891.046 281.976C891.046 283.992 891.046 284.052 889.174 284.052C887.302 284.052 887.302 283.992 887.302 281.976ZM886.006 282.264C886.006 283.416 886.006 285.144 888.886 285.144H889.462C892.342 285.144 892.342 283.416 892.342 282.264V281.688C892.342 280.536 892.342 278.808 889.462 278.808H888.886C886.006 278.808 886.006 280.536 886.006 281.688V282.264Z" fill="#363636"/>
<path d="M685.282 372.498C686.783 372.498 688 371.282 688 369.781C688 368.28 686.783 367.063 685.282 367.063C683.781 367.063 682.565 368.28 682.565 369.781C682.565 371.282 683.781 372.498 685.282 372.498Z" fill="#E21A1A" stroke="white" stroke-miterlimit="10"/>
<path d="M622.544 371.416V364.504H621.248V373H622.808L626.372 367.792C626.972 366.916 627.02 366.496 627.02 366.088H627.392V373H628.688V364.504H627.128L623.42 369.964C622.94 370.672 622.916 371.044 622.916 371.416H622.544ZM630.97 366.952V375.448H632.194V372.856C632.77 373 633.346 373.144 634.426 373.144C637.162 373.144 637.162 371.272 637.162 370.264V369.688C637.162 368.536 637.162 366.808 634.57 366.808C633.13 366.808 632.338 367.408 632.05 367.624L631.546 366.952H630.97ZM635.866 369.976C635.866 371.98 635.866 371.992 633.922 371.992C633.49 371.992 632.77 371.992 632.194 371.848V368.392L633.922 367.96H634.126C635.866 367.96 635.866 368.032 635.866 369.976ZM645.058 367.288V366.952H643.69C642.826 368.104 642.322 368.776 642.322 369.4H640.162V366.952H638.938V373H640.162V370.552H642.322C642.322 371.176 642.826 371.848 643.69 373H645.058V372.664L643.03 369.976L645.058 367.288ZM648.618 371.704C648.618 371.272 648.618 371.272 647.382 368.032V366.952H646.086C646.086 368.212 646.086 368.212 648.006 372.712H649.218L648.786 373.864C648.558 374.44 648.462 374.44 647.778 374.44H646.83V375.592H647.454C648.39 375.592 649.326 375.556 649.866 374.248L651.858 368.884C652.134 368.212 652.134 368.212 652.134 367.192V366.952H650.874V368.032C649.734 371.296 649.746 371.296 649.746 371.704H648.618ZM658.988 366.952H652.94V368.008H655.328V373H656.6V368.008H658.988V366.952ZM663.106 373.144C663.538 373.144 664.474 373.144 665.626 372.856V371.704H665.338L664.174 371.992H663.538C661.45 371.992 661.45 371.992 661.45 369.976C661.45 367.96 661.45 367.96 663.106 367.96C664.474 367.96 664.474 367.96 664.762 369.112L665.914 368.824C665.914 368.248 665.914 366.808 663.394 366.808H662.818C660.154 366.808 660.154 368.392 660.154 369.688V370.264C660.154 371.56 660.154 373.144 663.106 373.144ZM673.664 367.288V366.952H672.296C671.432 368.104 670.928 368.776 670.928 369.4H668.768V366.952H667.544V373H668.768V370.552H670.928C670.928 371.176 671.432 371.848 672.296 373H673.664V372.664L671.636 369.976L673.664 367.288Z" fill="#363636"/>
<path d="M616.44 301.974C617.941 301.974 619.158 300.758 619.158 299.257C619.158 297.756 617.941 296.539 616.44 296.539C614.939 296.539 613.723 297.756 613.723 299.257C613.723 300.758 614.939 301.974 616.44 301.974Z" fill="#E21A1A" stroke="white" stroke-miterlimit="10"/>
<path d="M601.348 279.504V280.656H604.336V288H605.632V280.656H608.62V279.504H601.348ZM614.348 288.144L615.26 287.46C614.828 286.884 614.828 286.884 614.828 285.696V284.688C614.828 283.248 614.828 281.808 612.02 281.808C611.588 281.808 610.652 281.808 609.5 282.096V283.248H609.788L610.94 282.96H612.02C613.604 282.96 613.604 282.96 613.604 284.472H612.02C608.996 284.472 608.996 285.48 608.996 286.416C608.996 286.992 608.996 288.144 611.156 288.144C612.644 288.144 613.448 287.544 613.736 287.328L614.348 288.144ZM610.364 286.272C610.364 285.408 610.364 285.408 612.02 285.408H613.604V286.56L611.876 286.992H611.228C610.364 286.992 610.364 286.992 610.364 286.272ZM620.385 281.04C621.201 281.04 621.777 281.04 622.533 280.152L621.669 279.504C621.285 280.032 621.273 280.032 620.613 280.032H619.485C618.837 280.032 618.825 280.032 618.429 279.504L617.565 280.152C618.321 281.04 618.897 281.04 619.713 281.04H620.385ZM618.489 288C621.621 283.836 621.621 283.62 621.621 282.984H621.933V288H623.157V281.952H621.501C618.369 286.116 618.369 286.332 618.369 286.968H618.045V281.952H616.821V288H618.489ZM633.623 286.992H630.647V281.952H629.423V286.992H626.447V281.952H625.223V288H634.847V281.952H633.623V286.992ZM639.571 286.992C637.915 286.992 637.915 286.992 637.915 285.48H639.571C641.299 285.48 641.587 285.48 642.235 285.336L642.523 285.264V284.688C642.523 283.536 642.523 281.808 639.859 281.808H639.283C636.619 281.808 636.619 283.536 636.619 284.688V285.264C636.619 286.56 636.619 288.144 639.571 288.144C640.075 288.144 640.939 288.144 642.091 287.856V286.704H641.803L640.651 286.992H639.571ZM637.915 284.544C637.915 282.96 637.915 282.96 639.571 282.96C641.227 282.96 641.227 282.96 641.227 284.544H637.915ZM649.738 281.952H643.69V283.008H646.078V288H647.35V283.008H649.738V281.952Z" fill="#363636"/>
<path d="M653.579 301.068C655.079 301.068 656.296 299.852 656.296 298.351C656.296 296.85 655.079 295.633 653.579 295.633C652.078 295.633 650.861 296.85 650.861 298.351C650.861 299.852 652.078 301.068 653.579 301.068Z" fill="#696872" stroke="white" stroke-miterlimit="10"/>
<path d="M662.409 300.778V298.57H667.449V297.418H661.113V305.914H664.137C666.801 305.914 668.169 305.854 668.169 303.346C668.169 300.838 666.801 300.778 664.137 300.778H662.409ZM662.409 301.93H665.001C666.777 301.93 666.801 301.93 666.801 303.346C666.801 304.738 666.801 304.762 665.001 304.762H662.409V301.93ZM669.803 299.866V308.362H671.027V305.77C671.603 305.914 672.179 306.058 673.259 306.058C675.995 306.058 675.995 304.186 675.995 303.178V302.602C675.995 301.45 675.995 299.722 673.403 299.722C671.963 299.722 671.171 300.322 670.883 300.538L670.379 299.866H669.803ZM674.699 302.89C674.699 304.894 674.699 304.906 672.755 304.906C672.323 304.906 671.603 304.906 671.027 304.762V301.306L672.755 300.874H672.959C674.699 300.874 674.699 300.946 674.699 302.89ZM682.764 306.058L683.676 305.374C683.244 304.798 683.244 304.798 683.244 303.61V302.602C683.244 301.162 683.244 299.722 680.436 299.722C680.004 299.722 679.068 299.722 677.916 300.01V301.162H678.204L679.356 300.874H680.436C682.02 300.874 682.02 300.874 682.02 302.386H680.436C677.412 302.386 677.412 303.394 677.412 304.33C677.412 304.906 677.412 306.058 679.572 306.058C681.06 306.058 681.864 305.458 682.152 305.242L682.764 306.058ZM678.78 304.186C678.78 303.322 678.78 303.322 680.436 303.322H682.02V304.474L680.292 304.906H679.644C678.78 304.906 678.78 304.906 678.78 304.186ZM690.673 299.866H684.625V300.922H687.013V305.914H688.285V300.922H690.673V299.866ZM694.792 306.058C695.224 306.058 696.16 306.058 697.312 305.77V304.618H697.024L695.86 304.906H695.224C693.136 304.906 693.136 304.906 693.136 302.89C693.136 300.874 693.136 300.874 694.792 300.874C696.16 300.874 696.16 300.874 696.448 302.026L697.6 301.738C697.6 301.162 697.6 299.722 695.08 299.722H694.504C691.84 299.722 691.84 301.306 691.84 302.602V303.178C691.84 304.474 691.84 306.058 694.792 306.058ZM705.349 300.202V299.866H703.981C703.117 301.018 702.613 301.69 702.613 302.314H700.453V299.866H699.229V305.914H700.453V303.466H702.613C702.613 304.09 703.117 304.762 703.981 305.914H705.349V305.578L703.321 302.89L705.349 300.202Z" fill="#363636"/>
<path d="M708.963 286.187C710.464 286.187 711.68 284.97 711.68 283.47C711.68 281.969 710.464 280.752 708.963 280.752C707.462 280.752 706.246 281.969 706.246 283.47C706.246 284.97 707.462 286.187 708.963 286.187Z" fill="#696872" stroke="white" stroke-miterlimit="10"/>
<path d="M716.6 273.184C716.6 272.608 716.6 272.608 714.692 268.504H713.42V268.936L715.94 274.228H717.644L717.224 275.128C716.888 275.848 716.732 275.848 715.868 275.848H714.776V277H715.58C717.104 277 717.776 277 718.52 275.272L721.244 268.936V268.504H720.008C718.28 272.608 718.28 272.608 718.304 273.184H716.6ZM724.407 277.144C724.839 277.144 725.775 277.144 726.927 276.856V275.704H726.639L725.475 275.992H724.839C722.751 275.992 722.751 275.992 722.751 273.976C722.751 271.96 722.751 271.96 724.407 271.96C725.775 271.96 725.775 271.96 726.063 273.112L727.215 272.824C727.215 272.248 727.215 270.808 724.695 270.808H724.119C721.455 270.808 721.455 272.392 721.455 273.688V274.264C721.455 275.56 721.455 277.144 724.407 277.144ZM734.281 270.952H728.233V272.008H730.621V277H731.893V272.008H734.281V270.952ZM738.615 277C740.055 277 741.351 277 741.351 274.984C741.351 274.264 741.351 272.824 738.759 272.824C738.183 272.824 737.535 272.896 736.959 273.04V270.952H735.735V277H738.615ZM738.759 273.976C740.055 273.976 740.055 273.976 740.055 274.984C740.055 275.992 740.055 275.992 738.759 275.992H736.959V273.976H738.759ZM742.185 273.04V274.12H745.785V273.04H742.185ZM754.567 268.84V268.504H753.247L752.551 269.392C751.147 271.192 750.943 271.708 750.943 272.056H748.567V268.504H747.271V277H748.567V273.208H750.943C750.943 273.58 751.267 274.12 752.611 276.076L753.247 277H754.687V276.472L751.819 272.536L754.567 268.84ZM757.884 275.704C757.884 275.272 757.884 275.272 756.648 272.032V270.952H755.352C755.352 272.212 755.352 272.212 757.272 276.712H758.484L758.052 277.864C757.824 278.44 757.728 278.44 757.044 278.44H756.096V279.592H756.72C757.656 279.592 758.592 279.556 759.132 278.248L761.124 272.884C761.4 272.212 761.4 272.212 761.4 271.192V270.952H760.14V272.032C759 275.296 759.012 275.296 759.012 275.704H757.884ZM768.253 270.952H762.205V272.008H764.593V277H765.865V272.008H768.253V270.952Z" fill="#363636"/>
<path d="M890.127 241.543C891.628 241.543 892.844 240.327 892.844 238.826C892.844 237.325 891.628 236.108 890.127 236.108C888.626 236.108 887.409 237.325 887.409 238.826C887.409 240.327 888.626 241.543 890.127 241.543Z" fill="#696872" stroke="white" stroke-miterlimit="10"/>
<path d="M904.471 233.68H899.863V230.128H898.567V238.624H899.863V234.832H904.471V238.624H905.767V230.128H904.471V233.68ZM910.707 237.616C909.051 237.616 909.051 237.616 909.051 236.104H910.707C912.435 236.104 912.723 236.104 913.371 235.96L913.659 235.888V235.312C913.659 234.16 913.659 232.432 910.995 232.432H910.419C907.755 232.432 907.755 234.16 907.755 235.312V235.888C907.755 237.184 907.755 238.768 910.707 238.768C911.211 238.768 912.075 238.768 913.227 238.48V237.328H912.939L911.787 237.616H910.707ZM909.051 235.168C909.051 233.584 909.051 233.584 910.707 233.584C912.363 233.584 912.363 233.584 912.363 235.168H909.051ZM915.437 232.576V241.072H916.661V238.48C917.237 238.624 917.813 238.768 918.893 238.768C921.629 238.768 921.629 236.896 921.629 235.888V235.312C921.629 234.16 921.629 232.432 919.037 232.432C917.597 232.432 916.805 233.032 916.517 233.248L916.013 232.576H915.437ZM920.333 235.6C920.333 237.604 920.333 237.616 918.389 237.616C917.957 237.616 917.237 237.616 916.661 237.472V234.016L918.389 233.584H918.593C920.333 233.584 920.333 233.656 920.333 235.6ZM923.406 232.576V238.624H924.63V236.104H926.502C926.502 237.184 926.502 238.768 929.382 238.768H929.958C932.838 238.768 932.838 237.184 932.838 235.888V235.312C932.838 234.016 932.838 232.432 929.958 232.432H929.382C926.502 232.432 926.502 234.016 926.502 235.096H924.63V232.576H923.406ZM927.798 235.6C927.798 233.584 927.798 233.584 929.67 233.584C931.542 233.584 931.542 233.584 931.542 235.6C931.542 237.616 931.542 237.616 929.67 237.616C927.798 237.616 927.798 237.616 927.798 235.6ZM939.361 232.576V235.012H935.833V232.576H934.609V238.624H935.833V236.068H939.361V238.624H940.585V232.576H939.361ZM947.52 232.576H942.648V238.624H943.872V233.632H947.52V232.576ZM948.847 232.576V241.072H950.071V238.48C950.647 238.624 951.223 238.768 952.303 238.768C955.039 238.768 955.039 236.896 955.039 235.888V235.312C955.039 234.16 955.039 232.432 952.447 232.432C951.007 232.432 950.215 233.032 949.927 233.248L949.423 232.576H948.847ZM953.743 235.6C953.743 237.604 953.743 237.616 951.799 237.616C951.367 237.616 950.647 237.616 950.071 237.472V234.016L951.799 233.584H952.003C953.743 233.584 953.743 233.656 953.743 235.6ZM958.484 238.624C961.616 234.46 961.616 234.244 961.616 233.608H961.928V238.624H963.152V232.576H961.496C958.364 236.74 958.364 236.956 958.364 237.592H958.04V232.576H956.816V238.624H958.484Z" fill="#363636"/>
<path d="M1064.82 286.446C1066.32 286.446 1067.54 285.229 1067.54 283.728C1067.54 282.228 1066.32 281.011 1064.82 281.011C1063.32 281.011 1062.1 282.228 1062.1 283.728C1062.1 285.229 1063.32 286.446 1064.82 286.446Z" fill="#696872" stroke="white" stroke-miterlimit="10"/>
<path d="M1027.54 245.84V245.504H1026.22L1025.53 246.392C1024.12 248.192 1023.92 248.708 1023.92 249.056H1021.54V245.504H1020.25V254H1021.54V250.208H1023.92C1023.92 250.58 1024.24 251.12 1025.59 253.076L1026.22 254H1027.66V253.472L1024.8 249.536L1027.54 245.84ZM1030.02 250.976C1030.02 248.96 1030.02 248.9 1031.89 248.9C1033.76 248.9 1033.76 248.96 1033.76 250.976C1033.76 252.992 1033.76 253.052 1031.89 253.052C1030.02 253.052 1030.02 252.992 1030.02 250.976ZM1028.72 251.264C1028.72 252.416 1028.72 254.144 1031.6 254.144H1032.18C1035.06 254.144 1035.06 252.416 1035.06 251.264V250.688C1035.06 249.536 1035.06 247.808 1032.18 247.808H1031.6C1028.72 247.808 1028.72 249.536 1028.72 250.688V251.264ZM1036.84 247.952V254H1038.06V249.032H1038.37C1038.37 249.32 1038.37 249.32 1040.24 254H1041.85C1043.72 249.32 1043.72 249.32 1043.72 248.96H1044.04V254H1045.26V247.952H1043.08C1041.2 252.452 1041.2 252.452 1041.2 252.992H1040.89C1040.89 252.452 1040.89 252.452 1039.02 247.952H1036.84ZM1049.99 254.144C1050.42 254.144 1051.36 254.144 1052.51 253.856V252.704H1052.22L1051.06 252.992H1050.42C1048.33 252.992 1048.33 252.992 1048.33 250.976C1048.33 248.96 1048.33 248.96 1049.99 248.96C1051.36 248.96 1051.36 248.96 1051.64 250.112L1052.8 249.824C1052.8 249.248 1052.8 247.808 1050.28 247.808H1049.7C1047.04 247.808 1047.04 249.392 1047.04 250.688V251.264C1047.04 252.56 1047.04 254.144 1049.99 254.144ZM1055.43 250.976C1055.43 248.96 1055.43 248.9 1057.31 248.9C1059.18 248.9 1059.18 248.96 1059.18 250.976C1059.18 252.992 1059.18 253.052 1057.31 253.052C1055.43 253.052 1055.43 252.992 1055.43 250.976ZM1054.14 251.264C1054.14 252.416 1054.14 254.144 1057.02 254.144H1057.59C1060.47 254.144 1060.47 252.416 1060.47 251.264V250.688C1060.47 249.536 1060.47 247.808 1057.59 247.808H1057.02C1054.14 247.808 1054.14 249.536 1054.14 250.688V251.264ZM1062.25 247.952V254H1063.48V249.032H1063.79C1063.79 249.32 1063.79 249.32 1065.66 254H1067.27C1069.14 249.32 1069.14 249.32 1069.14 248.96H1069.45V254H1070.68V247.952H1068.49C1066.62 252.452 1066.62 252.452 1066.62 252.992H1066.31C1066.31 252.452 1066.31 252.452 1064.44 247.952H1062.25ZM1073.75 250.976C1073.75 248.96 1073.75 248.9 1075.62 248.9C1077.49 248.9 1077.49 248.96 1077.49 250.976C1077.49 252.992 1077.49 253.052 1075.62 253.052C1073.75 253.052 1073.75 252.992 1073.75 250.976ZM1072.45 251.264C1072.45 252.416 1072.45 254.144 1075.33 254.144H1075.91C1078.79 254.144 1078.79 252.416 1078.79 251.264V250.688C1078.79 249.536 1078.79 247.808 1075.91 247.808H1075.33C1072.45 247.808 1072.45 249.536 1072.45 250.688V251.264ZM1085.12 249.02V254H1086.34V247.952H1081.46C1081.42 249.2 1081.35 250.232 1081.14 251.792C1080.99 252.836 1080.87 253.04 1079.84 253.04V254.024C1081.78 254.024 1081.99 253.796 1082.23 252.008C1082.41 250.688 1082.49 249.764 1082.52 249.02H1085.12ZM1091.29 254C1092.73 254 1094.03 254 1094.03 251.984C1094.03 251.264 1094.03 249.824 1091.43 249.824C1090.86 249.824 1090.21 249.896 1089.63 250.04V247.952H1088.41V254H1091.29ZM1091.43 250.976C1092.73 250.976 1092.73 250.976 1092.73 251.984C1092.73 252.992 1092.73 252.992 1091.43 252.992H1089.63V250.976H1091.43ZM1098.32 254.144C1098.75 254.144 1099.69 254.144 1100.84 253.856V252.704H1100.55L1099.39 252.992H1098.75C1096.66 252.992 1096.66 252.992 1096.66 250.976C1096.66 248.96 1096.66 248.96 1098.32 248.96C1099.69 248.96 1099.69 248.96 1099.97 250.112L1101.13 249.824C1101.13 249.248 1101.13 247.808 1098.61 247.808H1098.03C1095.37 247.808 1095.37 249.392 1095.37 250.688V251.264C1095.37 252.56 1095.37 254.144 1098.32 254.144ZM1108.87 248.288V247.952H1107.51C1106.64 249.104 1106.14 249.776 1106.14 250.4H1103.98V247.952H1102.75V254H1103.98V251.552H1106.14C1106.14 252.176 1106.64 252.848 1107.51 254H1108.87V253.664L1106.85 250.976L1108.87 248.288ZM1109.64 250.04V251.12H1113.24V250.04H1109.64ZM1024.78 261.952V264.388H1021.26V261.952H1020.03V268H1021.26V265.444H1024.78V268H1026.01V261.952H1024.78ZM1033.06 268.144L1033.98 267.46C1033.54 266.884 1033.54 266.884 1033.54 265.696V264.688C1033.54 263.248 1033.54 261.808 1030.74 261.808C1030.3 261.808 1029.37 261.808 1028.22 262.096V263.248H1028.5L1029.66 262.96H1030.74C1032.32 262.96 1032.32 262.96 1032.32 264.472H1030.74C1027.71 264.472 1027.71 265.48 1027.71 266.416C1027.71 266.992 1027.71 268.144 1029.87 268.144C1031.36 268.144 1032.16 267.544 1032.45 267.328L1033.06 268.144ZM1029.08 266.272C1029.08 265.408 1029.08 265.408 1030.74 265.408H1032.32V266.56L1030.59 266.992H1029.94C1029.08 266.992 1029.08 266.992 1029.08 266.272ZM1034.74 264.04V265.12H1038.34V264.04H1034.74ZM1041.97 259.504L1038.75 267.544V268H1040L1040.86 265.84H1045.57L1046.43 268H1047.68V267.544L1044.46 259.504H1041.97ZM1042.59 260.656H1043.84C1043.84 261.52 1044.13 262.24 1045.13 264.76H1041.29C1042.3 262.24 1042.59 261.52 1042.59 260.656ZM1048.93 261.952V268H1050.15V263.032H1050.47C1050.47 263.32 1050.47 263.32 1052.34 268H1053.95C1055.82 263.32 1055.82 263.32 1055.82 262.96H1056.13V268H1057.35V261.952H1055.17C1053.3 266.452 1053.3 266.452 1053.3 266.992H1052.99C1052.99 266.452 1052.99 266.452 1051.11 261.952H1048.93ZM1061.42 266.704C1061.42 266.272 1061.42 266.272 1060.19 263.032V261.952H1058.89C1058.89 263.212 1058.89 263.212 1060.81 267.712H1062.02L1061.59 268.864C1061.36 269.44 1061.27 269.44 1060.58 269.44H1059.63V270.592H1060.26C1061.19 270.592 1062.13 270.556 1062.67 269.248L1064.66 263.884C1064.94 263.212 1064.94 263.212 1064.94 262.192V261.952H1063.68V263.032C1062.54 266.296 1062.55 266.296 1062.55 266.704H1061.42ZM1066.36 261.952V270.448H1067.58V267.856C1068.16 268 1068.73 268.144 1069.81 268.144C1072.55 268.144 1072.55 266.272 1072.55 265.264V264.688C1072.55 263.536 1072.55 261.808 1069.96 261.808C1068.52 261.808 1067.72 262.408 1067.44 262.624L1066.93 261.952H1066.36ZM1071.25 264.976C1071.25 266.98 1071.25 266.992 1069.31 266.992C1068.88 266.992 1068.16 266.992 1067.58 266.848V263.392L1069.31 262.96H1069.51C1071.25 262.96 1071.25 263.032 1071.25 264.976ZM1076.99 266.992C1075.33 266.992 1075.33 266.992 1075.33 265.48H1076.99C1078.72 265.48 1079 265.48 1079.65 265.336L1079.94 265.264V264.688C1079.94 263.536 1079.94 261.808 1077.28 261.808H1076.7C1074.04 261.808 1074.04 263.536 1074.04 264.688V265.264C1074.04 266.56 1074.04 268.144 1076.99 268.144C1077.49 268.144 1078.36 268.144 1079.51 267.856V266.704H1079.22L1078.07 266.992H1076.99ZM1075.33 264.544C1075.33 262.96 1075.33 262.96 1076.99 262.96C1078.64 262.96 1078.64 262.96 1078.64 264.544H1075.33Z" fill="#363636"/>
<path d="M903.067 270.012C904.568 270.012 905.785 268.795 905.785 267.294C905.785 265.793 904.568 264.577 903.067 264.577C901.566 264.577 900.35 265.793 900.35 267.294C900.35 268.795 901.566 270.012 903.067 270.012Z" fill="#696872" stroke="white" stroke-miterlimit="10"/>
<path d="M908.667 267.008V268.16H911.655V275.504H912.951V268.16H915.939V267.008H908.667ZM923.58 269.456V275.504H924.804V269.456H923.58ZM916.956 275.504H919.548C921.06 275.504 922.356 275.504 922.356 273.488C922.356 272.768 922.356 271.328 919.836 271.328C919.332 271.328 918.756 271.4 918.18 271.544V269.456H916.956V275.504ZM919.692 272.48C921.06 272.48 921.06 272.48 921.06 273.488C921.06 274.496 921.06 274.496 919.692 274.496H918.18V272.48H919.692ZM931.622 269.456V271.892H928.094V269.456H926.87V275.504H928.094V272.948H931.622V275.504H932.846V269.456H931.622ZM935.473 275.504H940.741V277.232H941.917V274.496H940.909V269.456H935.989V270.176C935.989 271.604 935.833 273.128 935.125 274.496H934.297V277.232H935.473V275.504ZM937.165 270.512H939.685V274.496H936.445C937.021 273.116 937.165 271.652 937.165 270.512ZM948.362 275.648L949.274 274.964C948.842 274.388 948.842 274.388 948.842 273.2V272.192C948.842 270.752 948.842 269.312 946.034 269.312C945.602 269.312 944.666 269.312 943.514 269.6V270.752H943.802L944.954 270.464H946.034C947.618 270.464 947.618 270.464 947.618 271.976H946.034C943.01 271.976 943.01 272.984 943.01 273.92C943.01 274.496 943.01 275.648 945.17 275.648C946.658 275.648 947.462 275.048 947.75 274.832L948.362 275.648ZM944.378 273.776C944.378 272.912 944.378 272.912 946.034 272.912H947.618V274.064L945.89 274.496H945.242C944.378 274.496 944.378 274.496 944.378 273.776Z" fill="#363636"/>
<path d="M1115.29 290.975C1116.79 290.975 1118 289.758 1118 288.257C1118 286.756 1116.79 285.54 1115.29 285.54C1113.79 285.54 1112.57 286.756 1112.57 288.257C1112.57 289.758 1113.79 290.975 1115.29 290.975Z" fill="#696872" stroke="white" stroke-miterlimit="10"/>
<path d="M1075.19 295.708C1075.19 294.868 1075.19 293.02 1071.8 293.02H1071.37C1067.84 293.02 1067.84 295.228 1067.84 297.1V297.82C1067.84 299.836 1067.84 301.9 1071.59 301.9C1072.31 301.9 1073.15 301.9 1074.97 301.444V300.196H1074.54L1072.81 300.628H1072.31C1069.28 300.628 1069.28 300.628 1069.28 297.676V297.244C1069.28 294.292 1069.28 294.292 1071.59 294.292C1073.51 294.292 1073.51 294.292 1073.94 296.02L1075.19 295.708ZM1077.83 298.684C1077.83 296.668 1077.83 296.608 1079.7 296.608C1081.57 296.608 1081.57 296.668 1081.57 298.684C1081.57 300.7 1081.57 300.76 1079.7 300.76C1077.83 300.76 1077.83 300.7 1077.83 298.684ZM1076.53 298.972C1076.53 300.124 1076.53 301.852 1079.41 301.852H1079.99C1082.87 301.852 1082.87 300.124 1082.87 298.972V298.396C1082.87 297.244 1082.87 295.516 1079.99 295.516H1079.41C1076.53 295.516 1076.53 297.244 1076.53 298.396V298.972ZM1084.65 301.708H1087.45C1088.89 301.708 1090.34 301.708 1090.34 300.196C1090.34 299.692 1090.22 299.044 1089.07 298.756V298.612C1090.22 298.324 1090.22 297.676 1090.22 297.172C1090.22 295.66 1088.89 295.66 1087.45 295.66H1084.65V301.708ZM1087.89 299.116C1088.96 299.116 1088.97 299.116 1088.97 299.908C1088.97 300.688 1088.97 300.7 1087.89 300.7H1085.87V299.116H1087.89ZM1087.77 296.668C1088.84 296.668 1088.85 296.668 1088.85 297.46C1088.85 298.24 1088.85 298.252 1087.77 298.252H1085.87V296.668H1087.77ZM1096.99 295.66H1092.11V301.708H1093.34V296.716H1096.99V295.66ZM1103.31 301.852L1104.22 301.168C1103.79 300.592 1103.79 300.592 1103.79 299.404V298.396C1103.79 296.956 1103.79 295.516 1100.98 295.516C1100.55 295.516 1099.61 295.516 1098.46 295.804V296.956H1098.75L1099.9 296.668H1100.98C1102.56 296.668 1102.56 296.668 1102.56 298.18H1100.98C1097.95 298.18 1097.95 299.188 1097.95 300.124C1097.95 300.7 1097.95 301.852 1100.11 301.852C1101.6 301.852 1102.41 301.252 1102.69 301.036L1103.31 301.852ZM1099.32 299.98C1099.32 299.116 1099.32 299.116 1100.98 299.116H1102.56V300.268L1100.83 300.7H1100.19C1099.32 300.7 1099.32 300.7 1099.32 299.98ZM1105.78 301.708H1108.57C1110.01 301.708 1111.47 301.708 1111.47 300.196C1111.47 299.692 1111.35 299.044 1110.19 298.756V298.612C1111.35 298.324 1111.35 297.676 1111.35 297.172C1111.35 295.66 1110.01 295.66 1108.57 295.66H1105.78V301.708ZM1109.02 299.116C1110.09 299.116 1110.1 299.116 1110.1 299.908C1110.1 300.688 1110.1 300.7 1109.02 300.7H1107V299.116H1109.02ZM1108.9 296.668C1109.97 296.668 1109.98 296.668 1109.98 297.46C1109.98 298.24 1109.98 298.252 1108.9 298.252H1107V296.668H1108.9ZM1118.24 301.852L1119.15 301.168C1118.72 300.592 1118.72 300.592 1118.72 299.404V298.396C1118.72 296.956 1118.72 295.516 1115.91 295.516C1115.48 295.516 1114.54 295.516 1113.39 295.804V296.956H1113.68L1114.83 296.668H1115.91C1117.49 296.668 1117.49 296.668 1117.49 298.18H1115.91C1112.88 298.18 1112.88 299.188 1112.88 300.124C1112.88 300.7 1112.88 301.852 1115.04 301.852C1116.53 301.852 1117.34 301.252 1117.62 301.036L1118.24 301.852ZM1114.25 299.98C1114.25 299.116 1114.25 299.116 1115.91 299.116H1117.49V300.268L1115.76 300.7H1115.12C1114.25 300.7 1114.25 300.7 1114.25 299.98ZM1125.46 295.66V298.096H1121.93V295.66H1120.71V301.708H1121.93V299.152H1125.46V301.708H1126.68V295.66H1125.46ZM1131.63 301.708C1133.07 301.708 1134.36 301.708 1134.36 299.692C1134.36 298.972 1134.36 297.532 1131.77 297.532C1131.2 297.532 1130.55 297.604 1129.97 297.748V295.66H1128.75V301.708H1131.63ZM1131.77 298.684C1133.07 298.684 1133.07 298.684 1133.07 299.692C1133.07 300.7 1133.07 300.7 1131.77 300.7H1129.97V298.684H1131.77Z" fill="#363636"/>
<path d="M452.746 298.61C454.246 298.61 455.463 297.393 455.463 295.892C455.463 294.392 454.246 293.175 452.746 293.175C451.245 293.175 450.028 294.392 450.028 295.892C450.028 297.393 451.245 298.61 452.746 298.61Z" fill="#E21A1A" stroke="white" stroke-miterlimit="10"/>
<path d="M393.152 305.056H388.544V301.504H387.248V310H388.544V306.208H393.152V310H394.448V301.504H393.152V305.056ZM397.731 306.976C397.731 304.96 397.731 304.9 399.603 304.9C401.475 304.9 401.475 304.96 401.475 306.976C401.475 308.992 401.475 309.052 399.603 309.052C397.731 309.052 397.731 308.992 397.731 306.976ZM396.435 307.264C396.435 308.416 396.435 310.144 399.315 310.144H399.891C402.771 310.144 402.771 308.416 402.771 307.264V306.688C402.771 305.536 402.771 303.808 399.891 303.808H399.315C396.435 303.808 396.435 305.536 396.435 306.688V307.264ZM404.552 310H407.348C408.788 310 410.24 310 410.24 308.488C410.24 307.984 410.12 307.336 408.968 307.048V306.904C410.12 306.616 410.12 305.968 410.12 305.464C410.12 303.952 408.788 303.952 407.348 303.952H404.552V310ZM407.792 307.408C408.86 307.408 408.872 307.408 408.872 308.2C408.872 308.98 408.872 308.992 407.792 308.992H405.776V307.408H407.792ZM407.672 304.96C408.74 304.96 408.752 304.96 408.752 305.752C408.752 306.532 408.752 306.544 407.672 306.544H405.776V304.96H407.672ZM413.024 306.976C413.024 304.96 413.024 304.9 414.896 304.9C416.768 304.9 416.768 304.96 416.768 306.976C416.768 308.992 416.768 309.052 414.896 309.052C413.024 309.052 413.024 308.992 413.024 306.976ZM411.728 307.264C411.728 308.416 411.728 310.144 414.608 310.144H415.184C418.064 310.144 418.064 308.416 418.064 307.264V306.688C418.064 305.536 418.064 303.808 415.184 303.808H414.608C411.728 303.808 411.728 305.536 411.728 306.688V307.264ZM422.509 310.144C422.941 310.144 423.877 310.144 425.029 309.856V308.704H424.741L423.577 308.992H422.941C420.853 308.992 420.853 308.992 420.853 306.976C420.853 304.96 420.853 304.96 422.509 304.96C423.877 304.96 423.877 304.96 424.165 306.112L425.317 305.824C425.317 305.248 425.317 303.808 422.797 303.808H422.221C419.557 303.808 419.557 305.392 419.557 306.688V307.264C419.557 308.56 419.557 310.144 422.509 310.144ZM428.614 310C431.746 305.836 431.746 305.62 431.746 304.984H432.058V310H433.282V303.952H431.626C428.494 308.116 428.494 308.332 428.494 308.968H428.17V303.952H426.946V310H428.614ZM439.38 302.944C440.028 302.788 440.664 302.62 440.892 301.72L440.964 301.432L439.812 301.144C439.668 301.576 439.68 301.576 439.092 301.72L437.652 302.08C435.204 302.692 435.204 304.312 435.204 306.184V306.652C435.204 308.668 435.204 310.144 438.156 310.144H438.732C441.612 310.144 441.612 308.704 441.612 307.624V306.976C441.612 305.896 441.612 304.456 439.02 304.456C437.292 304.456 436.716 304.852 436.452 305.176L436.236 305.104C436.596 303.664 436.596 303.64 437.94 303.304L439.38 302.944ZM438.444 305.524C440.316 305.524 440.316 305.788 440.316 307.3C440.316 308.812 440.316 309.076 438.348 309.076C436.572 309.076 436.572 308.812 436.572 307.3C436.572 305.788 436.572 305.524 438.444 305.524ZM444.985 310C448.117 305.836 448.117 305.62 448.117 304.984H448.429V310H449.653V303.952H447.997C444.865 308.116 444.865 308.332 444.865 308.968H444.541V303.952H443.317V310H444.985ZM451.72 303.952V312.448H452.944V309.856C453.52 310 454.096 310.144 455.176 310.144C457.912 310.144 457.912 308.272 457.912 307.264V306.688C457.912 305.536 457.912 303.808 455.32 303.808C453.88 303.808 453.088 304.408 452.8 304.624L452.296 303.952H451.72ZM456.616 306.976C456.616 308.98 456.616 308.992 454.672 308.992C454.24 308.992 453.52 308.992 452.944 308.848V305.392L454.672 304.96H454.876C456.616 304.96 456.616 305.032 456.616 306.976ZM462.352 310.144C462.784 310.144 463.72 310.144 464.872 309.856V308.704H464.584L463.42 308.992H462.784C460.696 308.992 460.696 308.992 460.696 306.976C460.696 304.96 460.696 304.96 462.352 304.96C463.72 304.96 463.72 304.96 464.008 306.112L465.16 305.824C465.16 305.248 465.16 303.808 462.64 303.808H462.064C459.4 303.808 459.4 305.392 459.4 306.688V307.264C459.4 308.56 459.4 310.144 462.352 310.144ZM472.91 304.288V303.952H471.542C470.678 305.104 470.174 305.776 470.174 306.4H468.014V303.952H466.79V310H468.014V307.552H470.174C470.174 308.176 470.678 308.848 471.542 310H472.91V309.664L470.882 306.976L472.91 304.288Z" fill="#363636"/>
<path d="M91.4532 82.3776C92.954 82.3776 94.1707 81.161 94.1707 79.6602C94.1707 78.1594 92.954 76.9427 91.4532 76.9427C89.9524 76.9427 88.7358 78.1594 88.7358 79.6602C88.7358 81.161 89.9524 82.3776 91.4532 82.3776Z" fill="#E21A1A" stroke="white" stroke-miterlimit="10"/>
<path d="M95.152 88.056H90.544V84.504H89.248V93H90.544V89.208H95.152V93H96.448V84.504H95.152V88.056ZM100.391 93C103.523 88.836 103.523 88.62 103.523 87.984H103.835V93H105.059V86.952H103.403C100.271 91.116 100.271 91.332 100.271 91.968H99.9474V86.952H98.7234V93H100.391ZM110.99 86.952V89.4H109.358C109.358 88.776 108.854 88.104 107.99 86.952H106.622V87.288L108.638 89.976L106.622 92.664V93H107.99C108.854 91.848 109.358 91.176 109.358 90.552H110.99V93H112.214V90.552H113.846C113.846 91.176 114.35 91.848 115.214 93H116.582V92.664L114.554 89.976L116.582 87.288V86.952H115.214C114.35 88.104 113.846 88.776 113.846 89.4H112.214V86.952H110.99ZM122.893 86.952V89.388H119.365V86.952H118.141V93H119.365V90.444H122.893V93H124.117V86.952H122.893ZM127.848 93C130.98 88.836 130.98 88.62 130.98 87.984H131.292V93H132.516V86.952H130.86C127.728 91.116 127.728 91.332 127.728 91.968H127.404V86.952H126.18V93H127.848ZM138.147 86.04C138.963 86.04 139.539 86.04 140.295 85.152L139.431 84.504C139.047 85.032 139.035 85.032 138.375 85.032H137.247C136.599 85.032 136.587 85.032 136.191 84.504L135.327 85.152C136.083 86.04 136.659 86.04 137.475 86.04H138.147ZM136.251 93C139.383 88.836 139.383 88.62 139.383 87.984H139.695V93H140.919V86.952H139.263C136.131 91.116 136.131 91.332 136.131 91.968H135.807V86.952H134.583V93H136.251ZM95.152 102.056H90.544V98.504H89.248V107H90.544V103.208H95.152V107H96.448V98.504H95.152V102.056ZM99.7314 103.976C99.7314 101.96 99.7314 101.9 101.603 101.9C103.475 101.9 103.475 101.96 103.475 103.976C103.475 105.992 103.475 106.052 101.603 106.052C99.7314 106.052 99.7314 105.992 99.7314 103.976ZM98.4354 104.264C98.4354 105.416 98.4354 107.144 101.315 107.144H101.891C104.771 107.144 104.771 105.416 104.771 104.264V103.688C104.771 102.536 104.771 100.808 101.891 100.808H101.315C98.4354 100.808 98.4354 102.536 98.4354 103.688V104.264ZM106.552 107H109.348C110.788 107 112.24 107 112.24 105.488C112.24 104.984 112.12 104.336 110.968 104.048V103.904C112.12 103.616 112.12 102.968 112.12 102.464C112.12 100.952 110.788 100.952 109.348 100.952H106.552V107ZM109.792 104.408C110.86 104.408 110.872 104.408 110.872 105.2C110.872 105.98 110.872 105.992 109.792 105.992H107.776V104.408H109.792ZM109.672 101.96C110.74 101.96 110.752 101.96 110.752 102.752C110.752 103.532 110.752 103.544 109.672 103.544H107.776V101.96H109.672ZM118.888 100.952H114.016V107H115.24V102.008H118.888V100.952ZM121.224 103.976C121.224 101.96 121.224 101.9 123.096 101.9C124.968 101.9 124.968 101.96 124.968 103.976C124.968 105.992 124.968 106.052 123.096 106.052C121.224 106.052 121.224 105.992 121.224 103.976ZM119.928 104.264C119.928 105.416 119.928 107.144 122.808 107.144H123.384C126.264 107.144 126.264 105.416 126.264 104.264V103.688C126.264 102.536 126.264 100.808 123.384 100.808H122.808C119.928 100.808 119.928 102.536 119.928 103.688V104.264ZM128.044 100.952V109.448H129.268V106.856C129.844 107 130.42 107.144 131.5 107.144C134.236 107.144 134.236 105.272 134.236 104.264V103.688C134.236 102.536 134.236 100.808 131.644 100.808C130.204 100.808 129.412 101.408 129.124 101.624L128.62 100.952H128.044ZM132.94 103.976C132.94 105.98 132.94 105.992 130.996 105.992C130.564 105.992 129.844 105.992 129.268 105.848V102.392L130.996 101.96H131.2C132.94 101.96 132.94 102.032 132.94 103.976ZM137.02 103.976C137.02 101.96 137.02 101.9 138.892 101.9C140.764 101.9 140.764 101.96 140.764 103.976C140.764 105.992 140.764 106.052 138.892 106.052C137.02 106.052 137.02 105.992 137.02 103.976ZM135.724 104.264C135.724 105.416 135.724 107.144 138.604 107.144H139.18C142.06 107.144 142.06 105.416 142.06 104.264V103.688C142.06 102.536 142.06 100.808 139.18 100.808H138.604C135.724 100.808 135.724 102.536 135.724 103.688V104.264ZM144.405 107H149.673V108.728H150.849V105.992H149.841V100.952H144.921V101.672C144.921 103.1 144.765 104.624 144.057 105.992H143.229V108.728H144.405V107ZM146.097 102.008H148.617V105.992H145.377C145.953 104.612 146.097 103.148 146.097 102.008Z" fill="#363636"/>
</svg>
