<svg width="154" height="154" viewBox="0 0 154 154" fill="none" xmlns="http://www.w3.org/2000/svg">
<path d="M52.6223 81.5218C51.2677 80.1672 49.0714 80.1672 47.7168 81.5218L44.7542 84.4844C44.1529 85.0857 44.1529 86.0606 44.7542 86.6618C45.7459 87.6536 45.746 89.2616 44.7542 90.2534L6.97181 128.036C5.61718 129.39 5.61718 131.587 6.97181 132.941L21.1384 147.108C22.493 148.463 24.6893 148.463 26.044 147.108L63.8263 109.326C64.8181 108.334 66.4261 108.334 67.4179 109.326C68.0192 109.927 68.994 109.927 69.5953 109.326L72.5579 106.363C73.9125 105.008 73.9125 102.812 72.5579 101.457L52.6223 81.5218Z" stroke="#273339"/>
<path d="M49.7336 109.061C51.0176 107.777 51.0176 105.695 49.7336 104.411C48.4496 103.127 46.3679 103.127 45.0839 104.411L22.2141 127.281C20.9301 128.565 20.9301 130.647 22.2141 131.931C23.4981 133.215 25.5799 133.215 26.8639 131.931L49.7336 109.061Z" stroke="#273339"/>
<path d="M72.3193 116.992L94.8801 139.553" stroke="#273339" stroke-linecap="round"/>
<path d="M97.7651 142.438L100.856 145.528" stroke="#273339" stroke-linecap="round"/>
<path d="M83.6509 29.4277L61.0902 6.86701" stroke="#273339" stroke-linecap="round"/>
<path d="M58.2056 3.98242L55.1151 0.891912" stroke="#273339" stroke-linecap="round"/>
<path d="M24.208 28.2949L39.1455 43.2324" stroke="#273339" stroke-linecap="round"/>
<path d="M24.208 43.2324L39.1455 28.295" stroke="#273339" stroke-linecap="round"/>
<path d="M53.7552 56.6632C53.5742 57.3386 53.0468 57.866 52.3715 58.047L32.0435 63.4938C31.3682 63.6748 30.6476 63.4817 30.1533 62.9874L10.8987 43.7328C10.3778 43.2119 9.48845 43.4502 9.29779 44.1617L6.69951 53.8587C6.61104 54.1889 6.70543 54.5412 6.94717 54.783L31.3058 79.1416C31.5476 79.3834 31.8999 79.4778 32.2301 79.3893L49.5804 74.7403C50.2557 74.5594 50.9763 74.7524 51.4706 75.2468L99.6302 123.406C100.003 123.78 100.203 124.282 100.211 124.795C100.264 127.806 100.558 130.466 101.425 132.965C102.291 135.457 103.735 137.813 106.12 140.198C115.307 149.385 129.44 150.026 137.69 141.776C145.94 133.526 145.299 119.393 136.112 110.206C133.676 107.77 131.254 106.299 128.695 105.433C126.128 104.565 123.398 104.295 120.329 104.294C119.803 104.294 119.287 104.095 118.905 103.713L70.9548 55.7625C70.4604 55.2681 70.2673 54.5476 70.4483 53.8723L75.0972 36.5222C75.1857 36.192 75.0913 35.8397 74.8495 35.598L50.4909 11.2393C50.2491 10.9975 49.8968 10.9031 49.5666 10.9916L39.8701 13.5898C39.1586 13.7804 38.9203 14.6698 39.4412 15.1907L58.6956 34.4451C59.1899 34.9394 59.383 35.66 59.202 36.3353L53.7552 56.6632ZM131.392 135.478C126.588 140.282 118.8 140.282 113.996 135.478C109.192 130.674 109.192 122.886 113.996 118.082C118.8 113.278 126.588 113.278 131.392 118.082C136.196 122.886 136.196 130.674 131.392 135.478ZM73.717 73.0638C74.4812 72.2996 75.7203 72.2996 76.4845 73.0638L103.475 100.054C104.239 100.818 104.239 102.058 103.475 102.822L98.5301 107.767C97.7659 108.531 96.5269 108.531 95.7627 107.767L68.7722 80.7761C68.008 80.0119 68.008 78.7728 68.7722 78.0086L73.717 73.0638Z" fill="url(#paint0_linear)" stroke="#273339"/>
<path fill-rule="evenodd" clip-rule="evenodd" d="M141.376 19.4239C142.901 20.9486 143.084 23.358 141.807 25.0957L137.341 31.1752C137.187 30.9404 137.029 30.7084 136.867 30.4792L141.168 24.6257C142.212 23.204 142.062 21.2326 140.815 19.9852L134.715 13.8849C133.467 12.6374 131.496 12.4876 130.074 13.5321L120.901 20.2714C120.536 20.2053 120.168 20.1472 119.798 20.0972L129.604 12.8924C131.342 11.6158 133.751 11.799 135.276 13.3236L141.376 19.4239ZM92.4237 51.9177C92.3383 51.6259 92.2579 51.332 92.1829 51.0359L81.8267 61.3922L82.3879 61.9535L92.4237 51.9177ZM100.722 64.336C100.93 64.5034 101.14 64.6676 101.353 64.8285L93.3077 72.8733L92.7465 72.312L100.722 64.336Z" fill="#273339"/>
<circle cx="131.527" cy="63.9489" r="21.3532" fill="url(#paint1_linear)" stroke="#273339" stroke-linecap="round"/>
<circle cx="131.526" cy="63.9494" r="16.9826" stroke="#273339" stroke-linecap="round"/>
<path d="M128.611 55.791V72.1081" stroke="#273339" stroke-linecap="round"/>
<path d="M128.759 65.9892H133.69C136.518 65.9892 138.811 63.7062 138.811 60.8901C138.811 58.074 136.518 55.791 133.69 55.791H128.759" stroke="#273339" stroke-linecap="round"/>
<path d="M126.864 69.4863H133.857" stroke="#273339" stroke-linecap="round"/>
<circle cx="116.445" cy="44.8981" r="21.3532" fill="url(#paint2_linear)" stroke="#273339" stroke-linecap="round"/>
<circle cx="116.446" cy="44.8986" r="16.9826" stroke="#273339" stroke-linecap="round"/>
<path d="M113.532 36.7402V53.0573" stroke="#273339" stroke-linecap="round"/>
<path d="M113.679 46.9384H118.611C121.439 46.9384 123.732 44.6555 123.732 41.8393C123.732 39.0232 121.439 36.7402 118.611 36.7402H113.679" stroke="#273339" stroke-linecap="round"/>
<path d="M111.785 50.4355H118.778" stroke="#273339" stroke-linecap="round"/>
<defs>
<linearGradient id="paint0_linear" x1="23.9473" y1="29.0711" x2="136.829" y2="141.615" gradientUnits="userSpaceOnUse">
<stop offset="0.215875" stop-color="#FEFEFE"/>
<stop offset="1" stop-color="#D1D1D1"/>
</linearGradient>
<linearGradient id="paint1_linear" x1="131.527" y1="42.0957" x2="131.527" y2="85.8021" gradientUnits="userSpaceOnUse">
<stop stop-color="#FFF6EB"/>
<stop offset="1" stop-color="#FFE3C3"/>
</linearGradient>
<linearGradient id="paint2_linear" x1="116.445" y1="23.0449" x2="116.445" y2="66.7513" gradientUnits="userSpaceOnUse">
<stop offset="0.161458" stop-color="#FFF6EB"/>
<stop offset="0.786458" stop-color="#FFE3C3"/>
</linearGradient>
</defs>
</svg>
