<svg width="503" height="98" viewBox="0 0 503 98" fill="none" xmlns="http://www.w3.org/2000/svg">
<path d="M448.397 45.0819C448.397 45.0819 452.926 51.2932 452.279 58.0222C451.632 64.7511 444.774 70.9625 443.48 76.1386C442.186 81.3147 440.633 97.8782 440.633 97.8782" stroke="#696872" stroke-width="2" stroke-miterlimit="10"/>
<path d="M1.31061 61.9043C1.31061 61.9043 6.48672 59.3163 11.0158 59.5751C15.5449 59.8339 20.074 59.5751 22.4032 58.9281C24.7325 58.2811 27.3205 56.5988 29.5204 57.8928C31.7202 59.1868 36.2493 62.0337 39.2256 60.4809C42.2019 58.928 45.9546 53.3637 48.5426 52.4579C51.1307 51.5521 58.2478 52.7167 61.7417 51.4227C65.2356 50.1287 71.8351 48.8346 75.7172 46.2466C79.5993 43.6585 81.9285 42.6233 86.7164 43.3997C91.5043 44.1762 92.5395 42.7527 95.1276 46.6348C97.7156 50.5169 97.9744 56.987 104.186 58.5398C110.397 60.0927 115.832 58.1516 119.326 55.9518C123.467 53.3637 127.608 53.1049 130.584 51.1639C133.56 49.2229 137.96 48.4464 142.489 48.4464C147.018 48.4464 152.582 48.7052 156.076 47.7994C159.57 46.8936 162.546 44.1761 166.17 43.9173C169.793 43.6585 174.581 42.8821 176.781 41.5881C178.981 40.294 189.462 38.7412 194.897 36.1532C200.332 33.5651 211.978 21.2719 215.343 19.3308C218.707 17.3898 226.342 15.1899 229.577 15.1899C232.812 15.1899 235.4 11.5667 239.67 12.3431C243.941 13.1195 250.023 13.8959 254.94 16.4839C259.857 19.072 268.527 23.9893 273.056 26.1891C277.585 28.389 279.785 29.036 284.444 29.4242C289.102 29.8124 294.796 25.801 298.031 25.801C301.266 25.801 309.03 24.5069 314.595 24.2481C320.159 23.9893 325.206 21.9189 329.088 23.2129C332.97 24.5069 340.734 32.2711 344.616 34.6003C348.498 36.9296 354.968 38.4824 358.85 41.0705C362.732 43.6585 374.379 53.7519 376.967 57.2458C379.555 60.7397 388.872 67.8568 395.73 69.1509C402.588 70.4449 403.753 70.4449 407.376 68.5039C411 66.5628 414.105 67.4686 418.764 66.951C423.422 66.4334 425.493 65.01 423.94 57.634C422.387 50.2581 421.611 44.0467 427.822 42.1057C434.033 40.1647 440.503 39.7765 444.903 42.7527C449.303 45.729 453.961 45.9878 456.808 47.2818C459.655 48.5758 463.925 49.611 466.125 46.2466C468.325 42.8821 471.301 43.0115 475.442 43.0115C479.583 43.0115 484.5 41.7175 487.736 41.7175C490.971 41.7175 497.053 43.6585 497.441 45.3408C497.829 47.023 501.064 50.7757 501.064 50.7757" stroke="#696872" stroke-width="3" stroke-miterlimit="10"/>
<path d="M275.386 1.4729C275.386 1.4729 285.479 12.8603 285.997 17.6482C286.514 22.4361 287.938 26.7064 287.938 29.9415C287.938 33.1766 286.902 38.9997 285.997 40.9407C285.091 42.8818 284.056 54.0104 284.056 54.0104" stroke="#696872" stroke-width="2" stroke-miterlimit="10"/>
</svg>
