<svg width="301" height="375" viewBox="0 0 301 375" fill="none" xmlns="http://www.w3.org/2000/svg">
<path d="M134.482 311.98C134.081 310.176 132.478 309.893 131.727 309.976L104.68 278.422L143.998 233.594L139.741 185.761L222.134 151.201L238.663 155.709V159.215C238.746 160.55 238.863 163.322 238.663 163.722C238.462 164.123 239.581 164.557 240.165 164.724C240.082 165.309 240.065 166.828 240.666 168.23C241.267 169.633 241.417 167.646 241.417 166.477H243.671C243.755 167.312 244.072 169.232 244.673 170.234C245.424 171.486 246.176 172.237 246.176 173.239C246.176 174.241 246.176 175.743 247.678 176.745C249.181 177.747 248.179 178.999 247.678 179.5C247.278 179.901 248.68 181.169 249.431 181.754C249.348 182.422 249.331 183.807 249.932 184.008C250.684 184.258 254.44 185.26 255.191 185.761C255.792 186.161 256.944 187.263 257.445 187.764C256.944 188.015 255.642 188.616 254.44 189.016C252.937 189.517 253.939 190.769 254.44 193.023C254.941 195.277 255.442 195.277 255.943 194.275C256.343 193.474 257.111 194.609 257.445 195.277C257.779 194.693 258.497 193.424 258.697 193.023C258.948 192.522 260.951 191.521 262.204 190.769C263.205 190.168 264.29 190.519 264.708 190.769C265.71 191.437 267.713 193.524 267.713 196.529C267.713 199.535 268.548 199.451 268.965 199.034C269.633 198.366 271.219 196.93 272.221 196.529C273.223 196.129 273.974 197.197 274.224 197.782C274.475 198.867 274.976 201.187 274.976 201.788C274.976 202.39 275.477 203.041 275.727 203.291V205.795C275.727 206.547 275.727 207.548 274.976 209.302C274.375 210.704 274.725 211.555 274.976 211.806C275.226 211.388 275.927 210.654 276.729 211.054C277.731 211.555 276.729 212.557 276.729 213.308C276.729 214.06 278.231 214.06 279.233 215.312C280.235 216.564 279.984 217.315 278.231 217.315C276.478 217.315 277.23 217.566 276.729 217.315C276.228 217.065 274.976 217.315 274.976 218.067C274.976 218.818 276.478 220.07 276.729 221.322C276.979 222.574 275.727 222.574 275.727 223.827C275.727 225.079 277.48 225.329 278.231 225.329C278.983 225.329 279.734 226.581 279.984 227.583C280.235 228.585 280.485 230.588 280.736 231.34C280.936 231.941 282.656 233.093 283.491 233.594C283.073 234.011 282.038 234.846 281.237 234.846C280.235 234.846 275.727 238.101 274.976 238.352C274.224 238.602 270.969 238.352 269.967 238.853C268.965 239.354 269.967 240.606 268.965 241.608C267.964 242.609 267.713 244.112 266.211 245.114C265.008 245.915 264.708 247.785 264.708 248.62V251.374H267.713C268.381 251.458 269.967 251.775 270.969 252.376C272.221 253.128 270.969 255.381 270.969 256.133C270.969 256.884 272.471 257.385 272.972 259.138C273.473 260.891 271.971 263.896 270.969 264.898C269.967 265.9 267.713 270.658 267.713 271.91C267.713 273.162 265.459 278.672 264.708 280.174C263.957 281.677 263.456 282.178 263.456 284.682C263.456 287.187 263.456 288.439 260.951 290.192C258.447 291.945 262.454 293.448 263.456 295.952C264.457 298.456 262.454 299.959 260.951 300.961C259.749 301.762 258.113 302.797 257.445 303.214C256.444 303.882 254.14 305.518 252.937 306.721C251.435 308.223 251.184 309.976 248.43 311.98C245.675 313.983 241.918 311.98 239.664 309.976C237.41 307.973 234.656 307.472 232.903 306.721C231.15 305.969 229.897 305.218 227.894 305.218C225.89 305.218 224.889 309.976 223.136 309.976C221.383 309.976 217.877 307.472 214.37 305.218C210.864 302.964 211.115 303.966 208.861 303.214C206.607 302.463 205.605 305.218 204.353 305.218C203.101 305.218 198.843 309.976 197.09 309.976C195.337 309.976 194.837 314.484 190.078 317.239H187.824C186.823 317.907 184.469 319.543 183.066 320.745C181.313 322.248 179.56 320.745 177.056 320.745H175.052L172.548 322.748C171.379 323.5 168.791 325.002 167.79 325.002C166.788 325.002 164.2 323.5 163.031 322.748L159.776 325.002C158.941 324.251 156.42 323.199 153.014 325.002C151.511 325.253 151.01 324.001 149.257 322.748C147.855 321.747 147.337 322.331 147.254 322.748H143.998C142.996 322.414 140.743 321.546 139.741 320.745C138.489 319.743 138.238 318.992 136.736 317.239C135.269 315.528 134.995 314.294 134.517 312.141L134.482 311.98Z" fill="#F2F4F7" stroke="#CBCDD5"/>
<path d="M47.0799 249.371C48.282 249.371 49.5843 248.035 50.0852 247.367L56.346 263.145L81.8904 290.442H97.1669L106.433 278.421L142.746 239.854L198.593 191.52L210.614 182.505C211.783 182.922 214.32 183.907 215.122 184.508C216.124 185.26 216.124 184.508 218.127 184.508C220.13 184.508 219.63 184.759 220.631 184.508C221.433 184.308 222.301 183.089 222.635 182.505C222.802 182.004 223.386 180.902 224.388 180.501C225.64 180 224.638 182.004 226.141 182.505C227.644 183.006 226.892 182.004 227.393 181.002C227.894 180 227.393 177.997 227.393 177.496C227.393 176.995 227.894 175.994 227.894 174.741C227.894 173.489 227.894 173.489 227.393 173.74C226.892 173.99 226.141 174.491 225.39 174.741C224.638 174.992 224.638 173.489 224.638 172.237C224.638 170.985 223.136 169.733 223.136 168.981C223.136 168.23 222.134 168.48 221.383 168.23C220.631 167.98 220.631 167.228 221.383 164.974C222.134 164.724 223.136 162.971 222.635 161.218C222.134 159.465 223.887 159.465 223.136 157.461C222.134 156.96 223.136 155.708 223.136 154.957C223.136 154.206 224.638 154.957 226.141 154.957C227.644 154.957 227.393 154.456 230.649 154.957C232.402 155.708 232.402 156.71 235.407 155.708C235.808 154.907 237.577 155.374 238.412 155.708C237.995 154.623 237.11 152.302 236.91 151.701C236.659 150.95 236.91 150.449 235.908 150.449C234.906 150.449 234.405 150.449 233.153 149.197C231.901 147.945 233.153 146.192 233.153 144.689V142.435C233.153 141.684 231.65 141.434 231.65 140.432C231.65 139.43 231.4 139.68 231.65 138.929C231.901 138.178 232.652 136.675 232.402 135.423C232.151 134.171 230.398 134.672 228.896 134.672C227.393 134.672 227.894 133.92 227.894 133.169C227.894 132.418 225.39 132.668 224.638 133.169C223.887 133.67 223.887 135.423 223.136 135.423C222.384 135.423 222.134 134.421 221.383 134.672C220.631 134.922 220.381 135.423 219.63 135.423H217.125C216.374 135.423 216.124 131.917 216.124 131.166C216.124 130.565 215.456 129.58 215.122 129.162V126.157C215.122 125.406 212.868 124.404 212.367 123.653C211.866 122.901 209.612 121.148 209.111 121.148H206.607C205.355 121.148 204.604 120.397 203.602 119.646C202.6 118.894 201.097 119.395 200.597 119.646C200.096 119.896 198.844 119.896 197.341 121.9C197.09 122.651 196.84 123.653 196.339 124.404C195.838 125.155 194.837 125.406 193.584 126.157C192.332 126.908 193.835 129.914 192.583 129.914C191.33 129.914 190.83 132.919 188.826 135.423C188.075 136.675 187.073 136.425 186.322 137.427C185.57 138.428 186.071 139.931 185.32 140.432C184.569 140.933 183.817 143.187 184.068 143.187C184.318 143.187 183.567 144.689 179.81 146.192C177.807 146.192 178.809 147.694 178.308 148.195C177.807 148.696 177.807 149.698 177.557 150.449C177.306 151.2 176.805 151.451 176.054 151.701C175.303 151.952 175.052 149.698 175.052 148.195C175.052 146.693 176.054 146.192 176.805 146.192C177.557 146.192 177.056 144.189 176.805 143.187L176.805 143.187C176.555 142.185 175.553 144.188 175.052 144.188C174.652 144.188 174.217 143.02 174.05 142.435C173.633 141.767 172.648 140.632 172.047 141.434C171.296 142.435 171.546 142.686 169.793 144.188C168.791 144.188 168.541 144.689 167.79 146.192C167.038 147.694 164.784 144.689 163.031 144.689C161.278 144.689 160.777 144.689 157.021 150.449C157.021 151.952 153.515 150.449 151.261 150.449C149.007 150.449 148.757 148.947 148.005 146.192C147.254 143.437 147.254 144.439 145.25 143.187C143.247 141.934 147.254 141.434 148.005 140.432C148.757 139.43 149.257 136.675 149.257 134.171V129.914C149.925 128.578 151.261 125.456 151.261 123.653C151.261 121.849 152.763 121.733 153.515 121.9C153.932 120.898 154.767 118.594 154.767 117.392C154.767 116.19 156.27 112.884 157.021 111.381H154.767L151.261 109.628V104.62L149.257 102.866C149.09 101.698 148.857 98.8094 149.257 96.6056C149.758 93.8508 151.261 95.103 151.261 93.8509V89.5934H148.757L145.25 88.0909L147.254 85.336L148.757 81.5795L147.254 78.0734L145.25 74.0664V72.5638L143.998 67.5552H139.991H136.736V66.0525C137.821 65.3847 140.242 63.6985 141.243 62.296C142.245 60.8935 141.661 60.5429 141.243 60.543L139.991 57.5377C138.823 56.8699 136.535 56.2856 136.736 59.2908C136.936 62.296 135.483 60.543 134.732 59.2908C133.647 59.7082 131.326 60.8936 130.725 62.296C130.124 63.6984 129.306 62.8803 128.972 62.296L126.217 60.543H124.715V66.0525V72.5638C124.715 73.816 122.21 72.5638 122.21 74.0664C122.21 75.569 122.21 76.8212 120.958 78.0734C119.957 79.0751 120.541 80.8282 120.958 81.5795C121.376 82.3308 122.711 84.1339 124.715 85.336C127.219 86.8386 124.715 88.0908 124.715 89.5934C124.715 91.096 123.463 91.3465 122.21 92.3482C121.209 93.1496 121.793 95.5204 122.21 96.6056C121.125 97.1899 118.805 98.559 118.203 99.3604C117.452 100.362 117.703 101.865 116.701 102.866C115.699 103.868 113.195 105.12 111.943 106.122C110.941 106.924 109.355 107.959 108.687 108.376V111.381C107.435 112.466 104.93 115.488 104.93 118.894C104.93 120.146 105.181 121.9 104.93 123.653C104.73 125.055 107.351 126.908 108.687 127.66C109.271 127.576 110.991 127.459 113.195 127.66C115.399 127.86 114.113 129.246 113.195 129.914C113.362 130.832 113.595 132.969 113.195 134.171C112.794 135.373 111.191 134.672 110.44 134.171C109.856 134.171 108.236 135.072 106.433 138.679C106.433 140.933 107.685 140.432 108.687 141.434C109.689 142.435 110.44 143.187 110.44 148.947C109.188 151.701 108.437 148.947 106.433 150.449C104.83 151.651 105.765 153.621 106.433 154.456C105.682 154.957 103.879 155.959 102.676 155.959C101.474 155.959 101.007 154.957 100.923 154.456L98.1687 152.954C98.4191 152.202 98.5694 150.65 97.1669 150.449C95.4139 150.199 94.1617 149.698 93.16 148.947C92.1582 148.195 92.4087 146.192 88.6521 143.187C86.6487 142.686 84.1443 144.689 84.1443 146.192C84.1443 147.694 84.6452 150.199 84.1443 152.202C83.6434 154.206 82.8921 154.707 81.8904 155.959C80.8887 157.211 79.8869 156.96 77.633 158.213C75.3791 159.465 74.8782 160.467 72.8747 161.468C70.8713 162.47 72.3739 164.473 71.1217 164.473C70.1199 164.473 68.2 166.477 67.3652 167.479V171.736L65.3617 173.99C64.7773 173.656 63.3582 172.738 62.3565 171.736C61.1043 170.484 61.1043 169.983 62.3565 167.479C63.6086 164.974 61.6052 165.976 61.1043 164.473C60.6034 162.971 61.6052 162.47 54.8434 167.479C53.5912 170.484 50.0852 166.727 47.0799 165.976C44.6758 165.375 40.4017 164.724 38.5652 164.473L31.0521 176.494L34.8086 178.247C34.3078 178.999 33.6065 180.601 34.8086 181.002C36.0107 181.403 35.3095 182.672 34.8086 183.256C35.4764 184.174 36.4114 186.462 34.8086 188.265C33.306 188.265 32.8051 191.771 31.0521 193.524C29.2991 195.277 27.7964 193.774 22.5373 198.783C18.7808 200.786 22.5373 200.786 22.5373 203.291C22.5373 205.795 20.2834 206.546 18.0295 216.313C17.6288 218.718 16.8608 218.985 16.5269 218.818C15.3582 218.651 11.969 219.118 7.76166 222.324C6.50948 224.578 8.51296 224.578 11.5182 228.585C13.9224 231.79 14.8573 233.927 15.0243 234.595C15.8591 234.428 18.5304 234.895 22.5373 238.101C26.2938 240.355 24.5408 240.856 26.2938 242.358C28.0469 243.861 28.5478 243.36 31.0521 245.614C33.5565 247.868 32.0538 247.367 38.5652 249.371C38.5652 250.973 40.0678 251.374 40.8191 251.374C42.4052 250.706 45.8779 249.371 47.0799 249.371Z" fill="#F2F4F7" stroke="#CBCDD5"/>
<path d="M50.0852 274.164C48.833 273.997 46.2785 274.164 46.0782 276.168C45.8278 278.672 46.0782 279.674 46.0782 283.681C46.0782 287.688 47.0799 291.695 43.5738 292.696C40.0678 293.698 32.3043 291.945 30.8017 295.201C29.2991 298.456 27.546 304.968 28.2973 307.472C29.0486 309.976 27.7964 313.733 30.8017 314.985C33.8069 316.237 38.3147 318.992 34.5582 319.994C30.8017 320.995 25.793 319.994 22.7877 319.994C19.7825 319.994 15.5251 318.491 10.266 322.749C5.00686 327.006 0.749467 329.761 4.50599 334.519C8.26252 339.277 14.273 340.029 16.5269 340.279C18.7808 340.529 20.2834 341.782 21.5356 344.536C22.7877 347.291 27.0451 348.042 30.8017 350.296C34.5582 352.55 33.306 355.806 36.8121 357.559C40.3182 359.312 42.5721 358.811 50.0852 359.562C57.5982 360.314 74.3773 362.067 80.1374 362.317C85.8974 362.568 88.6521 361.566 90.6556 359.562C92.6591 357.559 91.9078 355.806 89.4034 353.051C86.8991 350.296 87.1495 349.044 88.9026 348.794C90.6556 348.543 92.4087 348.293 92.1582 347.041C91.9078 345.789 95.6643 345.789 97.1669 344.536C98.6695 343.284 98.6695 341.531 100.172 340.279C101.675 339.027 104.43 339.778 104.68 341.782C104.93 343.785 106.433 344.536 109.438 344.536C112.443 344.536 115.95 345.288 118.704 343.535C121.459 341.782 123.463 339.277 124.715 338.526C125.967 337.775 130.224 338.526 133.23 338.526C136.235 338.526 140.242 336.773 141.243 336.022C142.245 335.27 147.504 327.757 148.256 326.755C148.857 325.954 150.009 323.416 150.51 322.248" stroke="#7684FF" stroke-width="2"/>
<path d="M37.5633 268.404C36.1609 266.801 33.4729 264.23 32.3042 263.145C32.8051 262.31 34.0572 260.641 35.059 260.641C36.0607 260.641 35.4764 258.47 35.059 257.385C35.8938 255.966 38.0642 253.578 40.0677 255.382C42.0712 257.185 40.9025 254.63 40.0677 253.128C40.652 251.875 42.2715 249.371 44.0746 249.371C46.3286 249.371 47.0799 247.618 48.5825 247.618C50.0851 247.618 50.3355 246.366 51.5877 245.114C52.5894 244.112 53.3407 244.696 53.5912 245.114C54.1755 245.948 54.9936 247.969 53.5912 249.371C51.8381 251.124 55.3442 251.375 55.3442 253.128C55.3442 254.881 57.5981 255.382 59.1007 257.385C60.6034 259.388 61.6051 260.641 64.8607 263.145C68.1164 265.649 70.8712 266.401 76.1303 270.908C78.3842 273.413 78.1338 274.164 80.1373 275.166C82.1408 276.168 81.3895 280.175 87.3999 285.684C86.899 287.688 87.6503 289.19 89.1529 289.19C90.6556 289.19 91.4069 285.684 92.659 285.684H97.4173C99.4208 285.684 98.2521 285.016 97.4173 284.682L99.4208 281.928C101.341 280.175 106.233 276.168 110.44 274.164C115.699 271.66 123.463 263.145 127.469 258.888C131.476 254.63 133.73 251.375 138.99 245.114C144.249 238.853 142.496 227.583 142.496 225.58C142.496 223.977 141.828 221.907 141.494 221.072C141.744 220.488 142.245 218.417 142.245 214.811C142.045 213.409 142.329 211.555 142.496 210.804L144.75 206.046L147.254 204.794C146.419 204.126 144.75 202.59 144.75 201.788C144.75 200.787 141.494 198.533 144.75 192.021C146.553 191.42 150.009 190.936 151.511 190.769C152.513 189.183 154.767 186.011 155.769 186.011C157.021 186.011 158.273 186.011 161.278 188.515C164.283 191.02 163.031 188.515 164.784 188.515C166.537 188.515 167.038 186.011 167.038 184.258C167.038 182.856 168.207 183.674 168.791 184.258L171.045 186.011H176.555H181.313C183.116 186.011 182.064 187.681 181.313 188.515C182.148 189.267 184.068 190.769 185.07 190.769H189.327C191.08 190.769 191.581 191.27 192.833 190.769C194.085 190.268 195.337 189.016 197.341 188.515C199.344 188.015 201.598 186.762 201.598 186.011C201.598 185.26 203.351 183.256 203.351 181.754C203.351 180.551 204.687 179.75 205.355 179.5C205.856 179.667 207.108 179.9 208.11 179.5C209.362 178.999 210.113 177.747 210.113 176.494C210.113 175.493 212.45 176.912 213.619 177.747C213.035 178.748 211.515 180.952 210.113 181.754C208.36 182.755 208.11 186.011 211.866 196.529C212.066 197.731 213.118 199.534 213.619 200.286V204.794C213.619 207.048 213.619 209.552 215.623 210.804C217.626 212.056 217.877 209.301 220.631 209.552C223.386 209.802 221.883 212.557 222.635 213.559C223.386 214.561 225.64 217.315 225.89 221.072C226.141 224.828 222.384 224.828 220.631 225.58C218.878 226.331 215.623 227.082 213.619 227.583C211.616 228.084 211.616 230.338 210.113 231.34C208.61 232.342 206.357 236.849 205.355 238.102C204.353 239.354 203.602 240.606 199.595 240.606C196.389 240.606 196.757 242.609 197.341 243.611C197.09 244.362 196.74 246.216 197.341 247.618C198.092 249.371 199.595 251.375 201.598 255.382C201.348 257.135 201.598 258.888 199.595 260.641C197.591 262.394 197.591 262.394 195.337 263.646C193.083 264.898 192.332 265.649 189.327 266.401C186.322 267.152 184.068 268.154 179.059 269.656C177.056 271.159 176.304 273.162 174.802 274.164C173.299 275.166 172.798 275.917 171.045 276.668C169.292 277.42 169.543 278.171 167.038 280.175C164.534 282.178 163.783 283.43 163.031 283.681C162.28 283.931 162.28 282.178 161.278 282.178C160.276 282.178 158.523 281.928 157.021 282.178C155.518 282.428 155.017 284.182 154.516 284.682C154.016 285.183 152.012 284.682 151.511 284.682C151.01 284.682 149.508 286.686 147.254 285.684C146.503 285.434 145.501 284.682 144.75 284.682H142.496C141.911 285.016 140.743 285.885 140.743 286.686C140.743 287.487 139.574 288.689 138.99 289.19L141.494 289.942C140.826 290.275 139.39 291.394 138.99 293.197C138.489 295.451 137.988 295.451 136.485 296.703C134.983 297.955 138.99 299.208 140.743 299.208C142.496 299.208 142.496 302.213 140.743 302.213C138.99 302.213 136.986 303.715 135.233 305.469C133.831 306.871 132.478 308.891 131.977 309.726C130.892 309.893 128.471 310.127 127.469 309.726C126.217 309.225 123.212 306.721 121.96 306.721C120.708 306.721 119.956 304.968 117.953 303.715C115.949 302.463 113.946 303.715 110.44 302.213C106.934 300.71 105.682 301.712 103.177 302.213C100.673 302.714 96.9164 303.215 94.9129 303.715C92.9095 304.216 89.1529 307.222 85.8973 306.721C82.6416 306.22 75.6295 300.46 73.8764 299.208C72.1234 297.955 71.1216 292.195 70.8712 290.943C70.6208 289.691 69.619 286.936 69.3686 285.684C69.1181 284.432 69.3686 283.18 67.1147 281.928C64.8607 280.675 65.1112 281.677 61.6051 280.675C58.099 279.674 57.5981 277.169 55.3442 275.166C53.0903 273.162 52.5894 275.166 48.5825 275.166C45.3769 275.166 44.2416 272.328 44.0746 270.908C42.4886 270.742 38.9658 270.007 37.5633 268.404Z" fill="#F2F4F7" stroke="#CBCDD5"/>
<path d="M134.983 316.487C134.181 315.486 133.981 313.232 133.981 312.23C133.952 311.479 131.477 310.978 130.475 310.978C129.473 310.978 129.974 310.978 129.223 310.727C128.471 310.477 128.722 310.226 127.97 309.726C127.219 309.225 126.468 309.475 125.466 309.475C124.464 309.475 124.464 308.223 123.963 307.472C123.463 306.72 122.21 305.719 120.958 304.717C119.706 303.715 118.955 303.966 118.203 303.966C117.452 303.966 116.45 304.717 115.449 304.717C114.447 304.717 114.197 303.966 113.445 303.465C112.694 302.964 111.191 302.713 110.69 302.463C110.19 302.213 108.437 302.463 107.184 302.463C105.932 302.463 105.682 301.461 104.68 301.461C103.678 301.461 103.428 302.213 102.426 302.713C101.424 303.214 100.172 302.463 99.4209 302.463C98.6695 302.463 99.1704 303.214 97.9182 303.465C96.6661 303.715 94.913 303.715 93.9113 303.966C92.9095 304.216 92.9095 305.218 92.6591 305.969C92.4087 306.72 91.1565 306.47 90.1548 306.47C89.153 306.47 88.1513 305.468 87.4 305.468C86.6487 305.468 86.6487 305.969 85.6469 305.969C84.6452 305.969 83.6434 305.468 82.8921 305.468C82.1409 305.468 81.64 305.468 81.64 304.717C81.64 303.966 80.6382 302.713 80.1374 302.463C79.6365 302.213 79.1356 302.713 78.3843 302.713C77.633 302.713 76.8817 302.463 76.3808 302.213C75.88 301.962 75.3791 300.96 74.8782 300.46C74.3774 299.959 72.6243 297.705 72.3739 297.204C72.1234 296.703 70.8713 294.95 70.3704 294.7C69.8695 294.449 69.8695 293.197 69.6191 292.446C69.4187 291.845 69.3687 290.025 69.3687 289.19C69.5356 289.524 70.0699 289.891 70.8713 288.689C71.873 287.186 72.8747 287.938 74.3774 288.689C75.88 289.44 75.3791 289.19 77.3826 288.689C79.3861 288.188 79.1356 287.437 79.8869 289.19C80.6382 290.943 82.3913 289.941 82.3913 289.19V285.934C82.3913 284.933 83.6434 284.682 83.6434 283.68C83.6434 282.879 82.3078 281.677 81.64 281.176C81.8904 280.592 82.3913 279.072 82.3913 277.67C82.3913 275.917 79.8869 275.416 79.1356 274.665C78.3843 273.913 78.1339 272.16 76.8817 271.409C75.6295 270.658 74.3773 268.404 75.3791 267.152C76.3808 265.899 78.1339 267.653 78.1339 267.152C78.1339 266.651 78.1339 265.148 79.1356 264.397C80.1373 263.646 79.8869 261.893 79.8869 261.392C79.8869 260.891 78.1339 258.887 78.1339 256.633C78.1339 254.379 79.6365 253.127 79.8869 251.625C80.1373 250.122 81.64 251.625 82.3913 251.625C83.1426 251.625 83.1426 250.623 83.6434 249.872C84.1443 249.12 85.6469 250.623 85.6469 249.872C85.6469 249.12 85.8974 247.868 85.6469 247.117C85.3965 246.366 86.6487 245.364 87.4 244.863C88.1513 244.362 87.9008 243.611 88.1513 242.359C88.4017 241.106 89.153 242.359 90.1548 241.106C91.1565 239.854 93.6608 239.353 95.6643 238.101C97.6678 236.849 97.9182 238.602 97.4174 239.103C96.9165 239.604 97.1669 241.106 97.9182 242.359C98.6695 243.611 99.6713 242.108 100.673 241.106C101.675 240.105 101.675 241.357 102.426 241.106C103.177 240.856 104.179 240.355 103.428 239.353C102.676 238.352 103.428 237.099 103.428 236.599C103.428 236.098 105.682 234.846 106.433 233.844C107.184 232.842 110.19 229.837 111.191 229.837C112.193 229.837 113.696 230.338 114.447 229.837C115.048 229.436 115.031 227.166 114.948 226.08C115.532 225.663 116.851 224.778 117.452 224.578C118.203 224.327 118.704 222.825 121.459 221.573C123.663 220.571 121.877 217.649 120.708 216.313C120.875 215.813 121.359 214.711 121.96 214.31C122.711 213.809 123.212 210.303 123.212 209.301C123.212 208.299 122.962 205.294 123.212 204.543C123.463 203.792 124.965 200.536 126.969 199.033C128.972 197.531 132.478 198.032 133.981 198.032C135.483 198.032 137.487 198.032 141.243 199.033C145 200.035 145.25 199.033 148.005 200.536C150.209 201.738 148.923 199.367 148.005 198.032C148.423 197.698 149.358 197.03 149.758 197.03H153.014C154.266 197.03 157.271 199.033 158.523 199.033C159.776 199.033 162.28 199.785 165.035 199.785C167.79 199.785 167.79 196.028 168.791 195.026C169.793 194.025 171.045 191.27 171.797 191.27C172.548 191.27 179.059 190.519 181.313 190.519C183.567 190.519 189.077 190.769 190.078 190.519C191.08 190.268 190.83 193.524 190.078 194.025C189.477 194.425 190.83 194.859 191.581 195.026C191.414 195.444 190.88 196.429 190.078 197.03C189.077 197.781 187.073 198.783 186.071 199.785C185.07 200.786 186.071 202.289 184.819 203.291C183.567 204.293 181.313 204.293 180.311 205.294C179.31 206.296 179.059 208.049 179.81 209.552C180.412 210.754 182.732 213.225 183.817 214.31L182.565 215.312C182.148 214.978 181.113 214.31 180.311 214.31C179.31 214.31 178.809 214.06 177.807 214.31C176.805 214.56 176.304 215.813 175.052 217.065C173.8 218.317 173.299 221.072 173.299 222.825V228.084C173.299 229.586 171.045 231.34 169.793 232.592C168.541 233.844 169.543 235.096 169.793 236.348C170.044 237.6 168.791 239.103 168.791 240.856C168.791 242.609 168.791 244.112 166.788 245.614C164.784 247.117 164.033 249.12 164.033 250.373C164.033 251.625 163.282 253.628 161.278 254.38C159.275 255.131 162.28 256.133 163.282 256.633C164.083 257.034 164.117 258.303 164.033 258.887C165.035 259.806 167.389 262.043 168.791 263.646C170.544 265.649 171.045 266.651 173.299 266.651C175.553 266.651 176.304 264.898 177.056 264.647C177.657 264.447 179.477 263.896 180.311 263.646C180.395 264.146 180.512 265.449 180.311 266.651C180.061 268.153 180.812 269.406 182.565 269.907C183.968 270.307 184.652 268.571 184.819 267.652H187.073C187.741 267.652 189.277 267.452 190.078 266.651C190.88 265.849 192.082 265.816 192.583 265.899L193.584 267.652L192.583 268.404C191.664 269.239 189.678 271.108 189.077 271.91C188.476 272.711 187.49 275.082 187.073 276.167C186.99 276.835 186.672 278.271 186.071 278.672C185.32 279.172 182.816 281.927 181.313 282.929C179.81 283.931 177.056 286.686 176.304 287.437C175.553 288.188 172.548 289.19 171.797 289.691C171.045 290.192 171.797 291.945 171.797 292.946C171.797 293.948 171.045 295.701 171.045 298.456C171.045 301.211 170.795 302.713 169.793 304.466C168.791 306.219 169.292 307.973 169.793 309.475C170.294 310.978 168.541 310.978 167.038 311.479C165.536 311.979 164.534 312.981 163.532 315.736C162.53 318.491 161.028 318.491 160.026 318.992C159.225 319.392 158.023 318.157 157.522 317.489C156.937 317.406 155.568 317.088 154.767 316.487C153.765 315.736 155.017 318.992 154.767 320.244C154.517 321.496 152.763 320.244 152.263 320.244C151.762 320.244 150.51 322.999 149.758 322.999C149.007 322.999 145.501 323.249 142.746 322.999C139.991 322.748 140.242 321.246 139.24 320.244C138.238 319.242 135.984 317.739 134.983 316.487Z" fill="#D8F0D4" fill-opacity="0.3" stroke="#76D33D" stroke-width="2" stroke-linecap="round"/>
<path d="M93.9113 282.679C92.7092 282.278 89.2365 280.174 87.6504 279.173C86.8991 277.42 93.9113 277.169 95.1635 277.169C96.4156 277.169 97.9182 277.169 98.6695 276.668C99.2706 276.268 100.423 276.835 100.923 277.169C101.591 276.835 103.177 276.117 104.179 275.917C105.431 275.667 105.932 274.414 106.683 273.663C107.435 272.912 109.939 268.154 111.191 267.152C112.443 266.15 116.951 263.646 118.203 262.894C119.456 262.143 120.457 259.889 122.711 258.387C124.514 257.184 122.461 256.383 121.209 256.133C122.127 255.548 124.114 254.229 124.715 253.628C125.466 252.877 126.468 251.124 127.97 251.124C129.173 251.124 129.473 249.121 129.473 248.119C129.974 247.534 131.176 246.216 131.977 245.615C132.979 244.863 135.984 241.607 136.736 241.107C137.487 240.606 137.237 239.855 137.487 238.853C137.687 238.051 138.071 237.016 138.238 236.599C138.656 236.098 139.591 234.946 139.991 234.345C140.492 233.594 140.743 231.59 141.494 230.088C142.245 228.585 144.75 223.326 144.75 222.574C144.75 221.823 145.25 220.07 146.503 219.068C147.755 218.067 147.003 217.065 147.254 216.564C147.504 216.063 148.005 213.809 148.005 211.054C149.007 210.553 149.007 209.552 150.259 208.801C151.511 208.049 151.762 208.55 152.763 208.801C153.765 209.051 152.763 210.804 152.763 211.555C152.763 212.307 154.266 212.808 154.016 213.809C153.765 214.811 153.765 215.813 152.763 217.065C151.762 218.317 153.014 219.068 152.763 220.821C152.513 222.575 152.513 223.576 151.762 224.828C151.01 226.081 151.762 226.832 151.762 230.088C151.762 232.091 150.51 230.839 150.259 232.842C150.059 234.445 151.177 236.015 151.762 236.599C151.261 237.267 150.009 238.853 149.007 239.855C147.755 241.107 148.506 241.607 148.005 242.609C147.504 243.611 147.755 243.861 147.003 245.615C146.402 247.017 146.419 245.698 146.503 244.863C146.586 244.195 146.803 242.609 147.003 241.607C147.204 240.606 145.584 241.19 144.75 241.607C144.416 242.025 143.598 243.06 142.997 243.861C142.395 244.663 140.743 247.034 139.991 248.119L141.494 246.366H144.75C145.751 246.366 145.25 247.117 145.25 248.119C145.25 249.121 146.503 250.122 145.25 251.124C144.249 251.925 143.831 252.46 143.748 252.627C143.414 252.46 142.496 252.226 141.494 252.627C140.242 253.127 138.99 254.38 138.238 255.131C137.637 255.732 137.988 256.049 138.238 256.133V258.387C137.821 258.72 136.786 259.488 135.984 259.889C134.983 260.39 134.482 261.392 133.73 262.143C132.979 262.894 131.977 262.143 127.97 263.646C126.718 264.898 125.717 264.898 123.963 265.9C122.21 266.901 123.212 268.154 121.209 268.154C120.708 268.154 119.957 267.903 118.704 268.154C117.452 268.404 117.452 268.654 116.951 270.157C116.45 271.66 116.45 272.161 115.449 273.663C114.447 275.166 114.197 276.919 113.445 278.421C112.694 279.924 112.193 279.173 111.191 279.924C110.39 280.525 108.186 281.51 107.184 281.927C106.266 282.178 104.129 282.679 102.927 282.679C101.424 282.679 101.174 283.681 100.172 283.681H97.9182C96.9165 283.681 95.4139 283.18 93.9113 282.679Z" fill="#96CDFF"/>
<path d="M238.412 155.708C240.583 156.877 247.027 158.513 249.431 155.708C257.445 148.696 258.447 148.696 262.955 148.195C278.482 142.686 277.981 144.188 281.988 140.682" stroke="#CBCDD5"/>
<path d="M50.968 189.152V181.088H49.456V191H51.276L55.434 184.924C56.134 183.902 56.19 183.412 56.19 182.936H56.624V191H58.136V181.088H56.316L51.99 187.458C51.43 188.284 51.402 188.718 51.402 189.152H50.968ZM60.7978 183.944V193.856H62.2258V190.832C62.8978 191 63.5698 191.168 64.8298 191.168C68.0218 191.168 68.0218 188.984 68.0218 187.808V187.136C68.0218 185.792 68.0218 183.776 64.9978 183.776C63.3178 183.776 62.3938 184.476 62.0578 184.728L61.4698 183.944H60.7978ZM66.5098 187.472C66.5098 189.81 66.5098 189.824 64.2418 189.824C63.7378 189.824 62.8978 189.824 62.2258 189.656V185.624L64.2418 185.12H64.4798C66.5098 185.12 66.5098 185.204 66.5098 187.472ZM77.2346 184.336V183.944H75.6386C74.6306 185.288 74.0426 186.072 74.0426 186.8H71.5226V183.944H70.0946V191H71.5226V188.144H74.0426C74.0426 188.872 74.6306 189.656 75.6386 191H77.2346V190.608L74.8686 187.472L77.2346 184.336ZM81.3877 189.488C81.3877 188.984 81.3877 188.984 79.9457 185.204V183.944H78.4337C78.4337 185.414 78.4337 185.414 80.6737 190.664H82.0877L81.5837 192.008C81.3177 192.68 81.2057 192.68 80.4077 192.68H79.3017V194.024H80.0297C81.1217 194.024 82.2137 193.982 82.8437 192.456L85.1677 186.198C85.4897 185.414 85.4897 185.414 85.4897 184.224V183.944H84.0197V185.204C82.6897 189.012 82.7037 189.012 82.7037 189.488H81.3877ZM93.4855 183.944H86.4295V185.176H89.2155V191H90.6995V185.176H93.4855V183.944ZM98.2905 191.168C98.7945 191.168 99.8865 191.168 101.231 190.832V189.488H100.895L99.5365 189.824H98.7945C96.3585 189.824 96.3585 189.824 96.3585 187.472C96.3585 185.12 96.3585 185.12 98.2905 185.12C99.8865 185.12 99.8865 185.12 100.223 186.464L101.567 186.128C101.567 185.456 101.567 183.776 98.6265 183.776H97.9545C94.8465 183.776 94.8465 185.624 94.8465 187.136V187.808C94.8465 189.32 94.8465 191.168 98.2905 191.168ZM110.608 184.336V183.944H109.012C108.004 185.288 107.416 186.072 107.416 186.8H104.896V183.944H103.468V191H104.896V188.144H107.416C107.416 188.872 108.004 189.656 109.012 191H110.608V190.608L108.242 187.472L110.608 184.336ZM118.247 191.168L119.311 190.37C118.807 189.698 118.807 189.698 118.807 188.312V187.136C118.807 185.456 118.807 183.776 115.531 183.776C115.027 183.776 113.935 183.776 112.591 184.112V185.456H112.927L114.271 185.12H115.531C117.379 185.12 117.379 185.12 117.379 186.884H115.531C112.003 186.884 112.003 188.06 112.003 189.152C112.003 189.824 112.003 191.168 114.523 191.168C116.259 191.168 117.197 190.468 117.533 190.216L118.247 191.168ZM113.599 188.984C113.599 187.976 113.599 187.976 115.531 187.976H117.379V189.32L115.363 189.824H114.607C113.599 189.824 113.599 189.824 113.599 188.984ZM127.516 191V183.944H124.492C122.392 183.944 120.712 183.944 120.712 186.212C120.712 187.444 121.132 187.766 122.308 188.648L120.838 190.608V191H122.434C122.938 190.356 123.484 189.684 123.484 188.648H126.088V191H127.516ZM123.904 187.472C122.322 187.472 122.308 187.472 122.308 186.296C122.308 185.134 122.308 185.12 123.904 185.12H126.088V187.472H123.904ZM50.38 204.472C50.38 202.12 50.38 202.05 52.564 202.05C54.748 202.05 54.748 202.12 54.748 204.472C54.748 206.824 54.748 206.894 52.564 206.894C50.38 206.894 50.38 206.824 50.38 204.472ZM48.868 204.808C48.868 206.152 48.868 208.168 52.228 208.168H52.9C56.26 208.168 56.26 206.152 56.26 204.808V204.136C56.26 202.792 56.26 200.776 52.9 200.776H52.228C48.868 200.776 48.868 202.792 48.868 204.136V204.808ZM63.0408 199.768C63.7968 199.586 64.5388 199.39 64.8048 198.34L64.8888 198.004L63.5448 197.668C63.3768 198.172 63.3908 198.172 62.7048 198.34L61.0248 198.76C58.1688 199.474 58.1688 201.364 58.1688 203.548V204.094C58.1688 206.446 58.1688 208.168 61.6128 208.168H62.2848C65.6448 208.168 65.6448 206.488 65.6448 205.228V204.472C65.6448 203.212 65.6448 201.532 62.6208 201.532C60.6048 201.532 59.9328 201.994 59.6248 202.372L59.3728 202.288C59.7928 200.608 59.7928 200.58 61.3608 200.188L63.0408 199.768ZM61.9488 202.778C64.1328 202.778 64.1328 203.086 64.1328 204.85C64.1328 206.614 64.1328 206.922 61.8368 206.922C59.7648 206.922 59.7648 206.614 59.7648 204.85C59.7648 203.086 59.7648 202.778 61.9488 202.778ZM72.9397 202.19V208H74.3677V200.944H68.6697C68.6277 202.4 68.5437 203.604 68.2917 205.424C68.1237 206.642 67.9837 206.88 66.7797 206.88V208.028C69.0477 208.028 69.2857 207.762 69.5657 205.676C69.7757 204.136 69.8737 203.058 69.9017 202.19H72.9397ZM82.6042 208.168L83.6682 207.37C83.1642 206.698 83.1642 206.698 83.1642 205.312V204.136C83.1642 202.456 83.1642 200.776 79.8882 200.776C79.3842 200.776 78.2922 200.776 76.9482 201.112V202.456H77.2842L78.6282 202.12H79.8882C81.7362 202.12 81.7362 202.12 81.7362 203.884H79.8882C76.3602 203.884 76.3602 205.06 76.3602 206.152C76.3602 206.824 76.3602 208.168 78.8802 208.168C80.6162 208.168 81.5542 207.468 81.8902 207.216L82.6042 208.168ZM77.9562 205.984C77.9562 204.976 77.9562 204.976 79.8882 204.976H81.7362V206.32L79.7202 206.824H78.9642C77.9562 206.824 77.9562 206.824 77.9562 205.984ZM88.5972 208.168C89.1012 208.168 90.1932 208.168 91.5372 207.832V206.488H91.2012L89.8432 206.824H89.1012C86.6652 206.824 86.6652 206.824 86.6652 204.472C86.6652 202.12 86.6652 202.12 88.5972 202.12C90.1932 202.12 90.1932 202.12 90.5292 203.464L91.8732 203.128C91.8732 202.456 91.8732 200.776 88.9332 200.776H88.2612C85.1532 200.776 85.1532 202.624 85.1532 204.136V204.808C85.1532 206.32 85.1532 208.168 88.5972 208.168ZM100.116 200.944H93.0603V202.176H95.8463V208H97.3303V202.176H100.116V200.944ZM105.173 208C106.853 208 108.365 208 108.365 205.648C108.365 204.808 108.365 203.128 105.341 203.128C104.669 203.128 103.913 203.212 103.241 203.38V200.944H101.813V208H105.173ZM105.341 204.472C106.853 204.472 106.853 204.472 106.853 205.648C106.853 206.824 106.853 206.824 105.341 206.824H103.241V204.472H105.341Z" fill="#363636"/>
<path d="M206.672 232.088V237.128L204.656 237.632H204.068C201.548 237.632 201.548 237.632 201.548 235.112V232.088H200.036V235.112C200.036 237.128 200.036 239.144 203.228 239.144C204.32 239.144 205.328 238.892 206.672 238.556V242H208.184V232.088H206.672ZM212.787 242C216.441 237.142 216.441 236.89 216.441 236.148H216.805V242H218.233V234.944H216.301C212.647 239.802 212.647 240.054 212.647 240.796H212.269V234.944H210.841V242H212.787ZM226.985 234.944H219.929V236.176H222.715V242H224.199V236.176H226.985V234.944ZM230.629 242C234.283 237.142 234.283 236.89 234.283 236.148H234.647V242H236.075V234.944H234.143C230.489 239.802 230.489 240.054 230.489 240.796H230.111V234.944H228.683V242H230.629ZM244.029 234.944V237.786H239.913V234.944H238.485V242H239.913V239.018H244.029V242H245.457V234.944H244.029ZM250.972 242.168C251.476 242.168 252.568 242.168 253.912 241.832V240.488H253.576L252.218 240.824H251.476C249.04 240.824 249.04 240.824 249.04 238.472C249.04 236.12 249.04 236.12 250.972 236.12C252.568 236.12 252.568 236.12 252.904 237.464L254.248 237.128C254.248 236.456 254.248 234.776 251.308 234.776H250.636C247.528 234.776 247.528 236.624 247.528 238.136V238.808C247.528 240.32 247.528 242.168 250.972 242.168ZM263.289 235.336V234.944H261.693C260.685 236.288 260.097 237.072 260.097 237.8H257.577V234.944H256.149V242H257.577V239.144H260.097C260.097 239.872 260.685 240.656 261.693 242H263.289V241.608L260.923 238.472L263.289 235.336ZM270.928 242.168L271.992 241.37C271.488 240.698 271.488 240.698 271.488 239.312V238.136C271.488 236.456 271.488 234.776 268.212 234.776C267.708 234.776 266.616 234.776 265.272 235.112V236.456H265.608L266.952 236.12H268.212C270.06 236.12 270.06 236.12 270.06 237.884H268.212C264.684 237.884 264.684 239.06 264.684 240.152C264.684 240.824 264.684 242.168 267.204 242.168C268.94 242.168 269.878 241.468 270.214 241.216L270.928 242.168ZM266.28 239.984C266.28 238.976 266.28 238.976 268.212 238.976H270.06V240.32L268.044 240.824H267.288C266.28 240.824 266.28 240.824 266.28 239.984ZM280.197 242V234.944H277.173C275.073 234.944 273.393 234.944 273.393 237.212C273.393 238.444 273.813 238.766 274.989 239.648L273.519 241.608V242H275.115C275.619 241.356 276.165 240.684 276.165 239.648H278.769V242H280.197ZM276.585 238.472C275.003 238.472 274.989 238.472 274.989 237.296C274.989 236.134 274.989 236.12 276.585 236.12H278.769V238.472H276.585ZM201.38 255.472C201.38 253.12 201.38 253.05 203.564 253.05C205.748 253.05 205.748 253.12 205.748 255.472C205.748 257.824 205.748 257.894 203.564 257.894C201.38 257.894 201.38 257.824 201.38 255.472ZM199.868 255.808C199.868 257.152 199.868 259.168 203.228 259.168H203.9C207.26 259.168 207.26 257.152 207.26 255.808V255.136C207.26 253.792 207.26 251.776 203.9 251.776H203.228C199.868 251.776 199.868 253.792 199.868 255.136V255.808ZM214.041 250.768C214.797 250.586 215.539 250.39 215.805 249.34L215.889 249.004L214.545 248.668C214.377 249.172 214.391 249.172 213.705 249.34L212.025 249.76C209.169 250.474 209.169 252.364 209.169 254.548V255.094C209.169 257.446 209.169 259.168 212.613 259.168H213.285C216.645 259.168 216.645 257.488 216.645 256.228V255.472C216.645 254.212 216.645 252.532 213.621 252.532C211.605 252.532 210.933 252.994 210.625 253.372L210.373 253.288C210.793 251.608 210.793 251.58 212.361 251.188L214.041 250.768ZM212.949 253.778C215.133 253.778 215.133 254.086 215.133 255.85C215.133 257.614 215.133 257.922 212.837 257.922C210.765 257.922 210.765 257.614 210.765 255.85C210.765 254.086 210.765 253.778 212.949 253.778ZM223.94 253.19V259H225.368V251.944H219.67C219.628 253.4 219.544 254.604 219.292 256.424C219.124 257.642 218.984 257.88 217.78 257.88V259.028C220.048 259.028 220.286 258.762 220.566 256.676C220.776 255.136 220.874 254.058 220.902 253.19H223.94ZM233.604 259.168L234.668 258.37C234.164 257.698 234.164 257.698 234.164 256.312V255.136C234.164 253.456 234.164 251.776 230.888 251.776C230.384 251.776 229.292 251.776 227.948 252.112V253.456H228.284L229.628 253.12H230.888C232.736 253.12 232.736 253.12 232.736 254.884H230.888C227.36 254.884 227.36 256.06 227.36 257.152C227.36 257.824 227.36 259.168 229.88 259.168C231.616 259.168 232.554 258.468 232.89 258.216L233.604 259.168ZM228.956 256.984C228.956 255.976 228.956 255.976 230.888 255.976H232.736V257.32L230.72 257.824H229.964C228.956 257.824 228.956 257.824 228.956 256.984ZM239.597 259.168C240.101 259.168 241.193 259.168 242.537 258.832V257.488H242.201L240.843 257.824H240.101C237.665 257.824 237.665 257.824 237.665 255.472C237.665 253.12 237.665 253.12 239.597 253.12C241.193 253.12 241.193 253.12 241.529 254.464L242.873 254.128C242.873 253.456 242.873 251.776 239.933 251.776H239.261C236.153 251.776 236.153 253.624 236.153 255.136V255.808C236.153 257.32 236.153 259.168 239.597 259.168ZM251.116 251.944H244.06V253.176H246.846V259H248.33V253.176H251.116V251.944ZM256.173 259C257.853 259 259.365 259 259.365 256.648C259.365 255.808 259.365 254.128 256.341 254.128C255.669 254.128 254.913 254.212 254.241 254.38V251.944H252.813V259H256.173ZM256.341 255.472C257.853 255.472 257.853 255.472 257.853 256.648C257.853 257.824 257.853 257.824 256.341 257.824H254.241V255.472H256.341Z" fill="#363636"/>
<path d="M206.516 266.485V271.525L204.5 272.029H203.912C201.392 272.029 201.392 272.029 201.392 269.509V266.485H199.88V269.509C199.88 271.525 199.88 273.541 203.072 273.541C204.164 273.541 205.172 273.289 206.516 272.953V276.397H208.028V266.485H206.516ZM212.63 276.397C216.284 271.539 216.284 271.287 216.284 270.545H216.648V276.397H218.076V269.341H216.144C212.49 274.199 212.49 274.451 212.49 275.193H212.112V269.341H210.684V276.397H212.63ZM226.829 269.341H219.773V270.573H222.559V276.397H224.043V270.573H226.829V269.341ZM234.35 276.565L235.414 275.767C234.91 275.095 234.91 275.095 234.91 273.709V272.533C234.91 270.853 234.91 269.173 231.634 269.173C231.13 269.173 230.038 269.173 228.694 269.509V270.853H229.03L230.374 270.517H231.634C233.482 270.517 233.482 270.517 233.482 272.281H231.634C228.106 272.281 228.106 273.457 228.106 274.549C228.106 275.221 228.106 276.565 230.626 276.565C232.362 276.565 233.3 275.865 233.636 275.613L234.35 276.565ZM229.702 274.381C229.702 273.373 229.702 273.373 231.634 273.373H233.482V274.717L231.466 275.221H230.71C229.702 275.221 229.702 275.221 229.702 274.381Z" fill="#363636"/>
<path d="M139.433 288.456C139.433 287.784 139.433 287.784 137.207 282.996H135.723V283.5L138.663 289.674H140.651L140.161 290.724C139.769 291.564 139.587 291.564 138.579 291.564H137.305V292.908H138.243C140.021 292.908 140.805 292.908 141.673 290.892L144.851 283.5V282.996H143.409C141.393 287.784 141.393 287.784 141.421 288.456H139.433ZM150.903 287.098V292.908H152.331V285.852H146.633C146.591 287.308 146.507 288.512 146.255 290.332C146.087 291.55 145.947 291.788 144.743 291.788V292.936C147.011 292.936 147.249 292.67 147.529 290.584C147.739 289.044 147.837 287.966 147.865 287.098H150.903ZM160.568 293.076L161.632 292.278C161.128 291.606 161.128 291.606 161.128 290.22V289.044C161.128 287.364 161.128 285.684 157.852 285.684C157.348 285.684 156.256 285.684 154.912 286.02V287.364H155.248L156.592 287.028H157.852C159.7 287.028 159.7 287.028 159.7 288.792H157.852C154.324 288.792 154.324 289.968 154.324 291.06C154.324 291.732 154.324 293.076 156.844 293.076C158.58 293.076 159.518 292.376 159.854 292.124L160.568 293.076ZM155.92 290.892C155.92 289.884 155.92 289.884 157.852 289.884H159.7V291.228L157.684 291.732H156.928C155.92 291.732 155.92 291.732 155.92 290.892ZM168.997 285.852V288.694H164.881V285.852H163.453V292.908H164.881V289.926H168.997V292.908H170.425V285.852H168.997ZM171.908 288.288V289.548H176.108V288.288H171.908ZM180.244 288.456C180.244 287.784 180.244 287.784 178.018 282.996H176.534V283.5L179.474 289.674H181.462L180.972 290.724C180.58 291.564 180.398 291.564 179.39 291.564H178.116V292.908H179.054C180.832 292.908 181.616 292.908 182.484 290.892L185.662 283.5V282.996H184.22C182.204 287.784 182.204 287.784 182.232 288.456H180.244ZM186.902 292.908H193.048V294.924H194.42V291.732H193.244V285.852H187.504V286.692C187.504 288.358 187.322 290.136 186.496 291.732H185.53V294.924H186.902V292.908ZM188.876 287.084H191.816V291.732H188.036C188.708 290.122 188.876 288.414 188.876 287.084ZM202.079 289.044C202.079 287.532 202.079 285.684 198.803 285.684H198.551C198.047 285.684 197.039 285.684 195.695 286.02V287.364H196.031L197.375 287.028H198.635C200.567 287.028 200.567 287.028 200.567 288.792H197.375V289.968H200.567C200.567 291.732 200.567 291.732 198.635 291.732H197.375L196.031 291.396H195.695V292.74C197.039 293.076 198.047 293.076 198.551 293.076H198.803C202.079 293.076 202.079 291.228 202.079 289.716V289.044Z" fill="#363636"/>
<path d="M138.431 345.055C138.431 344.383 138.431 344.383 136.205 339.595H134.721V340.099L137.661 346.273H139.649L139.159 347.323C138.767 348.163 138.585 348.163 137.577 348.163H136.303V349.507H137.241C139.019 349.507 139.803 349.507 140.671 347.491L143.849 340.099V339.595H142.407C140.391 344.383 140.391 344.383 140.419 345.055H138.431ZM149.902 343.697V349.507H151.33V342.451H145.632C145.59 343.907 145.506 345.111 145.254 346.931C145.086 348.149 144.946 348.387 143.742 348.387V349.535C146.01 349.535 146.248 349.269 146.528 347.183C146.738 345.643 146.836 344.565 146.864 343.697H149.902ZM159.566 349.675L160.63 348.877C160.126 348.205 160.126 348.205 160.126 346.819V345.643C160.126 343.963 160.126 342.283 156.85 342.283C156.346 342.283 155.254 342.283 153.91 342.619V343.963H154.246L155.59 343.627H156.85C158.698 343.627 158.698 343.627 158.698 345.391H156.85C153.322 345.391 153.322 346.567 153.322 347.659C153.322 348.331 153.322 349.675 155.842 349.675C157.578 349.675 158.516 348.975 158.852 348.723L159.566 349.675ZM154.918 347.491C154.918 346.483 154.918 346.483 156.85 346.483H158.698V347.827L156.682 348.331H155.926C154.918 348.331 154.918 348.331 154.918 347.491ZM167.995 342.451V345.293H163.879V342.451H162.451V349.507H163.879V346.525H167.995V349.507H169.423V342.451H167.995ZM170.906 344.887V346.147H175.106V344.887H170.906ZM178.352 343.515V340.939H184.232V339.595H176.84V349.507H180.368C183.476 349.507 185.072 349.437 185.072 346.511C185.072 343.585 183.476 343.515 180.368 343.515H178.352ZM178.352 344.859H181.376C183.448 344.859 183.476 344.859 183.476 346.511C183.476 348.135 183.476 348.163 181.376 348.163H178.352V344.859ZM192.802 349.675L193.866 348.877C193.362 348.205 193.362 348.205 193.362 346.819V345.643C193.362 343.963 193.362 342.283 190.086 342.283C189.582 342.283 188.49 342.283 187.146 342.619V343.963H187.482L188.826 343.627H190.086C191.934 343.627 191.934 343.627 191.934 345.391H190.086C186.558 345.391 186.558 346.567 186.558 347.659C186.558 348.331 186.558 349.675 189.078 349.675C190.814 349.675 191.752 348.975 192.088 348.723L192.802 349.675ZM188.154 347.491C188.154 346.483 188.154 346.483 190.086 346.483H191.934V347.827L189.918 348.331H189.162C188.154 348.331 188.154 348.331 188.154 347.491ZM202.029 342.451H194.973V343.683H197.759V349.507H199.243V343.683H202.029V342.451ZM204.902 345.979C204.902 343.627 204.902 343.557 207.086 343.557C209.27 343.557 209.27 343.627 209.27 345.979C209.27 348.331 209.27 348.401 207.086 348.401C204.902 348.401 204.902 348.331 204.902 345.979ZM203.39 346.315C203.39 347.659 203.39 349.675 206.75 349.675H207.422C210.782 349.675 210.782 347.659 210.782 346.315V345.643C210.782 344.299 210.782 342.283 207.422 342.283H206.75C203.39 342.283 203.39 344.299 203.39 345.643V346.315ZM212.859 342.451V352.363H214.287V349.339C214.959 349.507 215.631 349.675 216.891 349.675C220.083 349.675 220.083 347.491 220.083 346.315V345.643C220.083 344.299 220.083 342.283 217.059 342.283C215.379 342.283 214.455 342.983 214.119 343.235L213.531 342.451H212.859ZM218.571 345.979C218.571 348.317 218.571 348.331 216.303 348.331C215.799 348.331 214.959 348.331 214.287 348.163V344.131L216.303 343.627H216.541C218.571 343.627 218.571 343.711 218.571 345.979Z" fill="#363636"/>
<path d="M95.6272 270.041V261.977H94.1152V271.889H95.9352L100.093 265.813C100.793 264.791 100.849 264.301 100.849 263.825H101.283V271.889H102.795V261.977H100.975L96.6492 268.347C96.0892 269.173 96.0612 269.607 96.0612 270.041H95.6272ZM105.457 264.833V274.745H106.885V271.721C107.557 271.889 108.229 272.057 109.489 272.057C112.681 272.057 112.681 269.873 112.681 268.697V268.025C112.681 266.681 112.681 264.665 109.657 264.665C107.977 264.665 107.053 265.365 106.717 265.617L106.129 264.833H105.457ZM111.169 268.361C111.169 270.699 111.169 270.713 108.901 270.713C108.397 270.713 107.557 270.713 106.885 270.545V266.513L108.901 266.009H109.139C111.169 266.009 111.169 266.093 111.169 268.361ZM121.894 265.225V264.833H120.298C119.29 266.177 118.702 266.961 118.702 267.689H116.182V264.833H114.754V271.889H116.182V269.033H118.702C118.702 269.761 119.29 270.545 120.298 271.889H121.894V271.497L119.528 268.361L121.894 265.225ZM126.047 270.377C126.047 269.873 126.047 269.873 124.605 266.093V264.833H123.093C123.093 266.303 123.093 266.303 125.333 271.553H126.747L126.243 272.897C125.977 273.569 125.865 273.569 125.067 273.569H123.961V274.913H124.689C125.781 274.913 126.873 274.871 127.503 273.345L129.827 267.087C130.149 266.303 130.149 266.303 130.149 265.113V264.833H128.679V266.093C127.349 269.901 127.363 269.901 127.363 270.377H126.047ZM138.145 264.833H131.089V266.065H133.875V271.889H135.359V266.065H138.145V264.833ZM142.95 272.057C143.454 272.057 144.546 272.057 145.89 271.721V270.377H145.554L144.196 270.713H143.454C141.018 270.713 141.018 270.713 141.018 268.361C141.018 266.009 141.018 266.009 142.95 266.009C144.546 266.009 144.546 266.009 144.882 267.353L146.226 267.017C146.226 266.345 146.226 264.665 143.286 264.665H142.614C139.506 264.665 139.506 266.513 139.506 268.025V268.697C139.506 270.209 139.506 272.057 142.95 272.057ZM155.267 265.225V264.833H153.671C152.663 266.177 152.075 266.961 152.075 267.689H149.555V264.833H148.127V271.889H149.555V269.033H152.075C152.075 269.761 152.663 270.545 153.671 271.889H155.267V271.497L152.901 268.361L155.267 265.225Z" fill="#363636"/>
<path d="M168.968 199.432H171.908C174.064 199.432 174.092 199.432 174.092 201.532C174.092 203.604 174.092 203.632 171.908 203.632H168.968V199.432ZM167.456 208H168.968V204.976H170.9C174.092 204.976 175.688 204.976 175.688 201.532C175.688 198.088 174.092 198.088 170.9 198.088H167.456V208ZM180.621 206.824C178.689 206.824 178.689 206.824 178.689 205.06H180.621C182.637 205.06 182.973 205.06 183.729 204.892L184.065 204.808V204.136C184.065 202.792 184.065 200.776 180.957 200.776H180.285C177.177 200.776 177.177 202.792 177.177 204.136V204.808C177.177 206.32 177.177 208.168 180.621 208.168C181.209 208.168 182.217 208.168 183.561 207.832V206.488H183.225L181.881 206.824H180.621ZM178.689 203.968C178.689 202.12 178.689 202.12 180.621 202.12C182.553 202.12 182.553 202.12 182.553 203.968H178.689ZM189.248 208.168C189.752 208.168 190.844 208.168 192.188 207.832V206.488H191.852L190.494 206.824H189.752C187.316 206.824 187.316 206.824 187.316 204.472C187.316 202.12 187.316 202.12 189.248 202.12C190.844 202.12 190.844 202.12 191.18 203.464L192.524 203.128C192.524 202.456 192.524 200.776 189.584 200.776H188.912C185.804 200.776 185.804 202.624 185.804 204.136V204.808C185.804 206.32 185.804 208.168 189.248 208.168ZM199.969 200.944H194.425V208H195.853V202.176H199.969V208H201.397V200.944H199.969ZM206.142 206.488C206.142 205.984 206.142 205.984 204.7 202.204V200.944H203.188C203.188 202.414 203.188 202.414 205.428 207.664H206.842L206.338 209.008C206.072 209.68 205.96 209.68 205.162 209.68H204.056V211.024H204.784C205.876 211.024 206.968 210.982 207.598 209.456L209.922 203.198C210.244 202.414 210.244 202.414 210.244 201.224V200.944H208.774V202.204C207.444 206.012 207.458 206.012 207.458 206.488H206.142ZM216.601 199.768C217.357 199.586 218.099 199.39 218.365 198.34L218.449 198.004L217.105 197.668C216.937 198.172 216.951 198.172 216.265 198.34L214.585 198.76C211.729 199.474 211.729 201.364 211.729 203.548V204.094C211.729 206.446 211.729 208.168 215.173 208.168H215.845C219.205 208.168 219.205 206.488 219.205 205.228V204.472C219.205 203.212 219.205 201.532 216.181 201.532C214.165 201.532 213.493 201.994 213.185 202.372L212.933 202.288C213.353 200.608 213.353 200.58 214.921 200.188L216.601 199.768ZM215.509 202.778C217.693 202.778 217.693 203.086 217.693 204.85C217.693 206.614 217.693 206.922 215.397 206.922C213.325 206.922 213.325 206.614 213.325 204.85C213.325 203.086 213.325 202.778 215.509 202.778ZM226.5 202.19V208H227.928V200.944H222.23C222.188 202.4 222.104 203.604 221.852 205.424C221.684 206.642 221.544 206.88 220.34 206.88V208.028C222.608 208.028 222.846 207.762 223.126 205.676C223.336 204.136 223.434 203.058 223.462 202.19H226.5ZM232.287 208C235.941 203.142 235.941 202.89 235.941 202.148H236.305V208H237.733V200.944H235.801C232.147 205.802 232.147 206.054 232.147 206.796H231.769V200.944H230.341V208H232.287ZM247.283 201.336V200.944H245.687C244.679 202.288 244.091 203.072 244.091 203.8H241.571V200.944H240.143V208H241.571V205.144H244.091C244.091 205.872 244.679 206.656 245.687 208H247.283V207.608L244.917 204.472L247.283 201.336ZM254.923 208.168L255.987 207.37C255.483 206.698 255.483 206.698 255.483 205.312V204.136C255.483 202.456 255.483 200.776 252.207 200.776C251.703 200.776 250.611 200.776 249.267 201.112V202.456H249.603L250.947 202.12H252.207C254.055 202.12 254.055 202.12 254.055 203.884H252.207C248.679 203.884 248.679 205.06 248.679 206.152C248.679 206.824 248.679 208.168 251.199 208.168C252.935 208.168 253.873 207.468 254.209 207.216L254.923 208.168ZM250.275 205.984C250.275 204.976 250.275 204.976 252.207 204.976H254.055V206.32L252.039 206.824H251.283C250.275 206.824 250.275 206.824 250.275 205.984ZM168.968 219.008V216.432H174.848V215.088H167.456V225H170.984C174.092 225 175.688 224.93 175.688 222.004C175.688 219.078 174.092 219.008 170.984 219.008H168.968ZM168.968 220.352H171.992C174.064 220.352 174.092 220.352 174.092 222.004C174.092 223.628 174.092 223.656 171.992 223.656H168.968V220.352ZM179.933 223.488C179.933 222.984 179.933 222.984 178.491 219.204V217.944H176.979C176.979 219.414 176.979 219.414 179.219 224.664H180.633L180.129 226.008C179.863 226.68 179.751 226.68 178.953 226.68H177.847V228.024H178.575C179.667 228.024 180.759 227.982 181.389 226.456L183.713 220.198C184.035 219.414 184.035 219.414 184.035 218.224V217.944H182.565V219.204C181.235 223.012 181.249 223.012 181.249 223.488H179.933ZM185.688 217.944V227.856H187.116V224.832C187.788 225 188.46 225.168 189.72 225.168C192.912 225.168 192.912 222.984 192.912 221.808V221.136C192.912 219.792 192.912 217.776 189.888 217.776C188.208 217.776 187.284 218.476 186.948 218.728L186.36 217.944H185.688ZM191.4 221.472C191.4 223.81 191.4 223.824 189.132 223.824C188.628 223.824 187.788 223.824 187.116 223.656V219.624L189.132 219.12H189.37C191.4 219.12 191.4 219.204 191.4 221.472ZM201.369 225V217.944H198.345C196.245 217.944 194.565 217.944 194.565 220.212C194.565 221.444 194.985 221.766 196.161 222.648L194.691 224.608V225H196.287C196.791 224.356 197.337 223.684 197.337 222.648H199.941V225H201.369ZM197.757 221.472C196.175 221.472 196.161 221.472 196.161 220.296C196.161 219.134 196.161 219.12 197.757 219.12H199.941V221.472H197.757ZM210.118 217.944H203.062V219.176H205.848V225H207.332V219.176H210.118V217.944ZM213.761 225C217.415 220.142 217.415 219.89 217.415 219.148H217.779V225H219.207V217.944H217.275C213.621 222.802 213.621 223.054 213.621 223.796H213.243V217.944H211.815V225H213.761ZM228.002 225V217.944H224.978C222.878 217.944 221.198 217.944 221.198 220.212C221.198 221.444 221.618 221.766 222.794 222.648L221.324 224.608V225H222.92C223.424 224.356 223.97 223.684 223.97 222.648H226.574V225H228.002ZM224.39 221.472C222.808 221.472 222.794 221.472 222.794 220.296C222.794 219.134 222.794 219.12 224.39 219.12H226.574V221.472H224.39Z" fill="#363636"/>
<path d="M101.137 360.473H104.077C106.233 360.473 106.261 360.473 106.261 362.573C106.261 364.645 106.261 364.673 104.077 364.673H101.137V360.473ZM99.6249 369.041H101.137V366.017H103.069C106.261 366.017 107.857 366.017 107.857 362.573C107.857 359.129 106.261 359.129 103.069 359.129H99.6249V369.041ZM112.79 367.865C110.858 367.865 110.858 367.865 110.858 366.101H112.79C114.806 366.101 115.142 366.101 115.898 365.933L116.234 365.849V365.177C116.234 363.833 116.234 361.817 113.126 361.817H112.454C109.346 361.817 109.346 363.833 109.346 365.177V365.849C109.346 367.361 109.346 369.209 112.79 369.209C113.378 369.209 114.386 369.209 115.73 368.873V367.529H115.394L114.05 367.865H112.79ZM110.858 365.009C110.858 363.161 110.858 363.161 112.79 363.161C114.722 363.161 114.722 363.161 114.722 365.009H110.858ZM121.416 369.209C121.92 369.209 123.012 369.209 124.356 368.873V367.529H124.02L122.662 367.865H121.92C119.484 367.865 119.484 367.865 119.484 365.513C119.484 363.161 119.484 363.161 121.416 363.161C123.012 363.161 123.012 363.161 123.348 364.505L124.692 364.169C124.692 363.497 124.692 361.817 121.752 361.817H121.08C117.972 361.817 117.972 363.665 117.972 365.177V365.849C117.972 367.361 117.972 369.209 121.416 369.209ZM132.138 361.985H126.594V369.041H128.022V363.217H132.138V369.041H133.566V361.985H132.138ZM138.311 367.529C138.311 367.025 138.311 367.025 136.869 363.245V361.985H135.357C135.357 363.455 135.357 363.455 137.597 368.705H139.011L138.507 370.049C138.241 370.721 138.129 370.721 137.331 370.721H136.225V372.065H136.953C138.045 372.065 139.137 372.023 139.767 370.497L142.091 364.239C142.413 363.455 142.413 363.455 142.413 362.265V361.985H140.943V363.245C139.613 367.053 139.627 367.053 139.627 367.529H138.311ZM148.77 360.809C149.526 360.627 150.268 360.431 150.534 359.381L150.618 359.045L149.274 358.709C149.106 359.213 149.12 359.213 148.434 359.381L146.754 359.801C143.898 360.515 143.898 362.405 143.898 364.589V365.135C143.898 367.487 143.898 369.209 147.342 369.209H148.014C151.374 369.209 151.374 367.529 151.374 366.269V365.513C151.374 364.253 151.374 362.573 148.35 362.573C146.334 362.573 145.662 363.035 145.354 363.413L145.102 363.329C145.522 361.649 145.522 361.621 147.09 361.229L148.77 360.809ZM147.678 363.819C149.862 363.819 149.862 364.127 149.862 365.891C149.862 367.655 149.862 367.963 147.566 367.963C145.494 367.963 145.494 367.655 145.494 365.891C145.494 364.127 145.494 363.819 147.678 363.819ZM158.669 363.231V369.041H160.097V361.985H154.399C154.357 363.441 154.273 364.645 154.021 366.465C153.853 367.683 153.713 367.921 152.509 367.921V369.069C154.777 369.069 155.015 368.803 155.295 366.717C155.505 365.177 155.603 364.099 155.631 363.231H158.669ZM164.456 369.041C168.11 364.183 168.11 363.931 168.11 363.189H168.474V369.041H169.902V361.985H167.97C164.316 366.843 164.316 367.095 164.316 367.837H163.938V361.985H162.51V369.041H164.456ZM179.452 362.377V361.985H177.856C176.848 363.329 176.26 364.113 176.26 364.841H173.74V361.985H172.312V369.041H173.74V366.185H176.26C176.26 366.913 176.848 367.697 177.856 369.041H179.452V368.649L177.086 365.513L179.452 362.377ZM187.091 369.209L188.155 368.411C187.651 367.739 187.651 367.739 187.651 366.353V365.177C187.651 363.497 187.651 361.817 184.375 361.817C183.871 361.817 182.779 361.817 181.435 362.153V363.497H181.771L183.115 363.161H184.375C186.223 363.161 186.223 363.161 186.223 364.925H184.375C180.847 364.925 180.847 366.101 180.847 367.193C180.847 367.865 180.847 369.209 183.367 369.209C185.103 369.209 186.041 368.509 186.377 368.257L187.091 369.209ZM182.443 367.025C182.443 366.017 182.443 366.017 184.375 366.017H186.223V367.361L184.207 367.865H183.451C182.443 367.865 182.443 367.865 182.443 367.025ZM194.289 359.129V369.041H195.801V360.473H196.249C196.249 361.201 196.249 361.201 199.189 369.041H201.065C204.005 361.201 204.005 361.201 204.005 360.473H204.453V369.041H205.965V359.129H203.207C200.309 366.857 200.309 366.857 200.309 367.697H199.945C199.945 366.857 199.945 366.857 197.047 359.129H194.289ZM209.801 365.513C209.801 363.161 209.801 363.091 211.985 363.091C214.169 363.091 214.169 363.161 214.169 365.513C214.169 367.865 214.169 367.935 211.985 367.935C209.801 367.935 209.801 367.865 209.801 365.513ZM208.289 365.849C208.289 367.193 208.289 369.209 211.649 369.209H212.321C215.681 369.209 215.681 367.193 215.681 365.849V365.177C215.681 363.833 215.681 361.817 212.321 361.817H211.649C208.289 361.817 208.289 363.833 208.289 365.177V365.849ZM223.302 361.985V364.827H219.186V361.985H217.758V369.041H219.186V366.059H223.302V369.041H224.73V361.985H223.302ZM232.821 361.985H227.137V369.041H228.565V363.217H232.821V361.985ZM235.545 365.513C235.545 363.161 235.545 363.091 237.729 363.091C239.913 363.091 239.913 363.161 239.913 365.513C239.913 367.865 239.913 367.935 237.729 367.935C235.545 367.935 235.545 367.865 235.545 365.513ZM234.033 365.849C234.033 367.193 234.033 369.209 237.393 369.209H238.065C241.425 369.209 241.425 367.193 241.425 365.849V365.177C241.425 363.833 241.425 361.817 238.065 361.817H237.393C234.033 361.817 234.033 363.833 234.033 365.177V365.849ZM248.808 363.231V369.041H250.236V361.985H244.538C244.496 363.441 244.412 364.645 244.16 366.465C243.992 367.683 243.852 367.921 242.648 367.921V369.069C244.916 369.069 245.154 368.803 245.434 366.717C245.644 365.177 245.742 364.099 245.77 363.231H248.808ZM254.594 369.041C258.248 364.183 258.248 363.931 258.248 363.189H258.612V369.041H260.04V361.985H258.108C254.454 366.843 254.454 367.095 254.454 367.837H254.076V361.985H252.648V369.041H254.594ZM268.835 369.041V361.985H265.811C263.711 361.985 262.031 361.985 262.031 364.253C262.031 365.485 262.451 365.807 263.627 366.689L262.157 368.649V369.041H263.753C264.257 368.397 264.803 367.725 264.803 366.689H267.407V369.041H268.835ZM265.223 365.513C263.641 365.513 263.627 365.513 263.627 364.337C263.627 363.175 263.627 363.161 265.223 363.161H267.407V365.513H265.223Z" fill="#363636"/>
<path d="M113.571 243.819C113.571 241.467 113.571 241.397 115.755 241.397C117.939 241.397 117.939 241.467 117.939 243.819C117.939 246.171 117.939 246.241 115.755 246.241C113.571 246.241 113.571 246.171 113.571 243.819ZM112.059 244.155C112.059 245.499 112.059 247.515 115.419 247.515H116.091C119.451 247.515 119.451 245.499 119.451 244.155V243.483C119.451 242.139 119.451 240.123 116.091 240.123H115.419C112.059 240.123 112.059 242.139 112.059 243.483V244.155ZM122.788 246.171L121.444 245.835H121.108V247.179C122.452 247.515 123.53 247.515 124.034 247.515C127.212 247.515 127.366 246.171 127.366 245.499C127.366 245.163 127.366 244.239 126.022 243.903V243.735C127.366 243.399 127.366 242.475 127.366 242.139C127.366 241.467 127.226 240.123 124.034 240.123C123.53 240.123 122.452 240.123 121.108 240.459V241.803H121.444L122.788 241.467H124.51C125.77 241.467 125.77 241.467 125.77 242.363C125.77 243.231 125.77 243.231 124.51 243.231H122.788V244.407H124.51C125.77 244.407 125.77 244.407 125.77 245.275C125.77 246.171 125.77 246.171 124.51 246.171H122.788ZM130.173 245.331C129.333 245.331 129.333 245.835 129.333 246.171V246.507C129.333 246.843 129.333 247.347 130.173 247.347H130.845C131.685 247.347 131.685 246.843 131.685 246.507V246.171C131.685 245.835 131.685 245.331 130.845 245.331H130.173ZM139.999 241.355V238.779H145.879V237.435H138.487V247.347H142.015C145.123 247.347 146.719 247.277 146.719 244.351C146.719 241.425 145.123 241.355 142.015 241.355H139.999ZM139.999 242.699H143.023C145.095 242.699 145.123 242.699 145.123 244.351C145.123 245.975 145.123 246.003 143.023 246.003H139.999V242.699ZM154.45 247.515L155.514 246.717C155.01 246.045 155.01 246.045 155.01 244.659V243.483C155.01 241.803 155.01 240.123 151.734 240.123C151.23 240.123 150.138 240.123 148.794 240.459V241.803H149.13L150.474 241.467H151.734C153.582 241.467 153.582 241.467 153.582 243.231H151.734C148.206 243.231 148.206 244.407 148.206 245.499C148.206 246.171 148.206 247.515 150.726 247.515C152.462 247.515 153.4 246.815 153.736 246.563L154.45 247.515ZM149.802 245.331C149.802 244.323 149.802 244.323 151.734 244.323H153.582V245.667L151.566 246.171H150.81C149.802 246.171 149.802 246.171 149.802 245.331ZM161.493 239.227C162.445 239.227 163.117 239.227 163.999 238.191L162.991 237.435C162.543 238.051 162.529 238.051 161.759 238.051H160.443C159.687 238.051 159.673 238.051 159.211 237.435L158.203 238.191C159.085 239.227 159.757 239.227 160.709 239.227H161.493ZM159.281 247.347C162.935 242.489 162.935 242.237 162.935 241.495H163.299V247.347H164.727V240.291H162.795C159.141 245.149 159.141 245.401 159.141 246.143H158.763V240.291H157.335V247.347H159.281ZM174.278 240.683V240.291H172.682C171.674 241.635 171.086 242.419 171.086 243.147H168.566V240.291H167.138V247.347H168.566V244.491H171.086C171.086 245.219 171.674 246.003 172.682 247.347H174.278V246.955L171.912 243.819L174.278 240.683ZM181.917 247.515L182.981 246.717C182.477 246.045 182.477 246.045 182.477 244.659V243.483C182.477 241.803 182.477 240.123 179.201 240.123C178.697 240.123 177.605 240.123 176.261 240.459V241.803H176.597L177.941 241.467H179.201C181.049 241.467 181.049 241.467 181.049 243.231H179.201C175.673 243.231 175.673 244.407 175.673 245.499C175.673 246.171 175.673 247.515 178.193 247.515C179.929 247.515 180.867 246.815 181.203 246.563L181.917 247.515ZM177.269 245.331C177.269 244.323 177.269 244.323 179.201 244.323H181.049V245.667L179.033 246.171H178.277C177.269 246.171 177.269 246.171 177.269 245.331ZM190.108 241.537V247.347H191.536V240.291H185.838C185.796 241.747 185.712 242.951 185.46 244.771C185.292 245.989 185.152 246.227 183.948 246.227V247.375C186.216 247.375 186.454 247.109 186.734 245.023C186.944 243.483 187.042 242.405 187.07 241.537H190.108Z" fill="#4560EA"/>
<path d="M87.9009 277.921C88.7357 277.67 90.8059 277.169 92.4087 277.169C94.4122 277.169 96.1652 277.169 96.9165 277.169C97.5176 277.169 98.6696 276.668 99.1705 276.418" stroke="black"/>
<path d="M1 182.254L21.5357 200.286L27.0452 203.291C30.5513 204.126 38.2647 205.996 41.0696 206.797C44.5757 207.799 56.5966 214.31 59.6018 218.067C62.607 221.823 62.1061 221.322 63.6087 225.329C65.1114 229.336 66.1131 230.588 67.6157 233.844C69.1183 237.1 77.6331 244.362 80.3879 246.867C83.1427 249.371 82.8922 250.874 82.8922 252.126C82.8922 253.378 84.1444 257.134 85.1461 259.388C85.9475 261.191 91.8244 268.654 94.6627 272.161C94.4122 272.661 93.8112 273.763 93.4105 274.164C92.9096 274.665 90.1548 276.919 89.1531 277.169C88.1514 277.42 87.4001 278.171 87.4001 279.173C87.4001 280.174 90.6557 281.427 92.4088 282.428C94.1618 283.43 98.4192 284.432 99.6714 284.432C100.673 284.432 101.758 283.096 102.176 282.428C103.094 282.428 105.181 282.428 106.183 282.428C107.435 282.428 110.19 281.427 110.691 280.675C111.191 279.924 112.193 279.674 112.944 279.674C113.696 279.674 118.454 278.672 120.958 278.171C123.463 277.67 126.969 274.414 128.221 274.665C129.223 274.865 130.976 279.256 131.727 281.427C133.397 282.595 137.287 285.083 139.491 285.684C142.245 286.435 142.997 287.187 146.252 287.187C149.508 287.187 153.264 285.684 155.018 285.684C156.771 285.684 156.019 285.684 159.776 285.684C163.532 285.684 161.278 286.936 167.539 285.684C173.8 284.432 179.059 279.173 181.313 279.173C183.116 279.173 191.581 275.834 195.588 274.164C198.677 275.5 205.555 278.171 208.36 278.171C211.866 278.171 217.376 278.672 220.631 279.674C223.887 280.675 233.654 282.428 239.164 282.428C244.673 282.428 247.678 280.425 250.934 282.428C253.539 284.031 260.033 286.268 262.955 287.187L270.969 289.691H284.492" stroke="black"/>
<path d="M131.978 281.677C130.976 285.1 129.273 292.396 130.475 294.199C131.978 296.453 134.983 297.455 134.231 300.209C133.48 302.964 130.475 305.719 130.475 307.222C130.475 308.724 128.972 309.726 130.475 312.23C131.978 314.735 131.978 318.241 131.978 319.994C131.978 321.396 130.976 332.265 130.475 337.524" stroke="black"/>
<path d="M87.9009 277.921C88.7357 277.67 90.8059 277.169 92.4087 277.169C94.4122 277.169 96.1652 277.169 96.9165 277.169C97.5176 277.169 98.6696 276.668 99.1705 276.418" stroke="white" stroke-dasharray="3 3"/>
<path d="M1 182.254L21.5357 200.286L27.0452 203.291C30.5513 204.126 38.2647 205.996 41.0696 206.797C44.5757 207.799 56.5966 214.31 59.6018 218.067C62.607 221.823 62.1061 221.322 63.6087 225.329C65.1114 229.336 66.1131 230.588 67.6157 233.844C69.1183 237.1 77.6331 244.362 80.3879 246.867C83.1427 249.371 82.8922 250.874 82.8922 252.126C82.8922 253.378 84.1444 257.134 85.1461 259.388C85.9475 261.191 91.8244 268.654 94.6627 272.161C94.4122 272.661 93.8112 273.763 93.4105 274.164C92.9096 274.665 90.1548 276.919 89.1531 277.169C88.1514 277.42 87.4001 278.171 87.4001 279.173C87.4001 280.174 90.6557 281.427 92.4088 282.428C94.1618 283.43 98.4192 284.432 99.6714 284.432C100.673 284.432 101.758 283.096 102.176 282.428C103.094 282.428 105.181 282.428 106.183 282.428C107.435 282.428 110.19 281.427 110.691 280.675C111.191 279.924 112.193 279.674 112.944 279.674C113.696 279.674 118.454 278.672 120.958 278.171C123.463 277.67 126.969 274.414 128.221 274.665C129.223 274.865 130.976 279.256 131.727 281.427C133.397 282.595 137.287 285.083 139.491 285.684C142.245 286.435 142.997 287.187 146.252 287.187C149.508 287.187 153.264 285.684 155.018 285.684C156.771 285.684 156.019 285.684 159.776 285.684C163.532 285.684 161.278 286.936 167.539 285.684C173.8 284.432 179.059 279.173 181.313 279.173C183.116 279.173 191.581 275.834 195.588 274.164C198.677 275.5 205.555 278.171 208.36 278.171C211.866 278.171 217.376 278.672 220.631 279.674C223.887 280.675 233.654 282.428 239.164 282.428C244.673 282.428 247.678 280.425 250.934 282.428C253.539 284.031 260.033 286.268 262.955 287.187L270.969 289.691H284.492" stroke="white" stroke-dasharray="3 3"/>
<path d="M131.978 281.677C130.976 285.1 129.273 292.396 130.475 294.199C131.978 296.453 134.983 297.455 134.231 300.209C133.48 302.964 130.475 305.719 130.475 307.222C130.475 308.724 128.972 309.726 130.475 312.23C131.978 314.735 131.978 318.241 131.978 319.994C131.978 321.396 130.976 332.265 130.475 337.524" stroke="white" stroke-dasharray="3 3"/>
<circle cx="195.338" cy="274.915" r="1.50261" fill="#E21A1A"/>
<circle cx="94.6625" cy="271.91" r="1.50261" fill="#E21A1A"/>
<circle cx="130.726" cy="338.025" r="1.50261" fill="#E21A1A"/>
<circle cx="131.727" cy="281.426" r="1.50261" fill="#E21A1A"/>
<rect opacity="0.1" x="246" width="55" height="55" fill="#E21A1A"/>
<path d="M5.194 27.732V24.492H7.678C8.92 24.492 8.92 24.6 8.92 26.112C8.92 27.642 8.92 27.732 7.678 27.732H5.194ZM5.194 22.224V19.524H10.648V17.256H2.602V30H6.598C8.92 30 11.674 29.91 11.674 26.112C11.674 22.314 8.92 22.224 6.598 22.224H5.194ZM20.0017 30.27L21.7297 28.974C21.1357 28.182 21.1357 28.182 21.1357 26.418V24.708C21.1357 23.196 21.0817 20.712 17.1937 20.712C16.7617 20.712 15.7897 20.712 14.0617 21.144V23.088H14.5477L16.2757 22.656H16.9237C18.7597 22.656 18.7597 22.656 18.7597 24.654H17.4097C13.2517 24.654 13.2517 26.49 13.2517 27.624C13.2517 28.326 13.2517 30.216 15.6817 30.216C17.2117 30.216 18.2557 29.442 18.9757 28.902L20.0017 30.27ZM15.7357 27.354C15.7357 26.166 15.7357 26.166 17.4097 26.166H18.7597V27.786L16.8157 28.272C15.7357 28.272 15.7357 28.272 15.7357 27.354ZM27.7214 18.102C26.6774 18.102 26.6774 17.922 26.1374 17.202L24.7694 18.228C25.9754 19.848 26.8574 19.848 28.1534 19.848H28.3694C29.6654 19.848 30.5294 19.848 31.7534 18.246C31.2854 17.904 30.8354 17.544 30.3854 17.202C29.8454 17.922 29.8454 18.102 28.8014 18.102H27.7214ZM27.0014 30C29.9714 24.168 29.9714 24.168 29.9714 23.232H30.4754V30H32.8334V20.928H29.4134C26.5334 26.49 26.5334 26.49 26.5334 27.714H26.0474V20.928H23.6894V30H27.0014ZM37.8779 24.438V20.928H35.5019V30H37.8779V26.49H39.4979C39.4979 27.624 40.1459 28.488 41.2799 30H43.8179V29.316L40.9199 25.464L43.7819 21.612V20.928H41.2439C40.1099 22.44 39.4979 23.304 39.4979 24.438H37.8779ZM51.8181 30.27L53.5461 28.974C52.9521 28.182 52.9521 28.182 52.9521 26.418V24.708C52.9521 23.196 52.8981 20.712 49.0101 20.712C48.5781 20.712 47.6061 20.712 45.8781 21.144V23.088H46.3641L48.0921 22.656H48.7401C50.5761 22.656 50.5761 22.656 50.5761 24.654H49.2261C45.0681 24.654 45.0681 26.49 45.0681 27.624C45.0681 28.326 45.0681 30.216 47.4981 30.216C49.0281 30.216 50.0721 29.442 50.7921 28.902L51.8181 30.27ZM47.5521 27.354C47.5521 26.166 47.5521 26.166 49.2261 26.166H50.5761V27.786L48.6321 28.272C47.5521 28.272 47.5521 28.272 47.5521 27.354ZM58.7818 22.926H61.1758V30H63.5518V20.928H56.7658C56.7118 22.746 56.6218 24.222 56.2978 26.472C56.0638 27.984 55.8838 28.29 54.4078 28.29V30.036C57.6838 30.036 58.0078 29.694 58.3678 27.012C58.6018 25.248 58.7278 23.97 58.7818 22.926ZM69.7749 30C71.8269 30 73.8789 30 73.8789 26.868C73.8789 25.842 73.8789 23.628 70.7469 23.628C69.8829 23.628 69.0189 23.844 68.5869 23.952V20.928H66.2109V30H69.7749ZM69.9369 25.464C71.3949 25.464 71.3949 25.464 71.3949 26.868C71.3949 28.272 71.3949 28.272 69.9369 28.272H68.5869V25.464H69.9369ZM79.517 30.216C80.111 30.216 81.137 30.216 82.865 29.784V27.84H82.379L80.633 28.272H80.219C77.843 28.272 77.843 28.272 77.843 25.464C77.843 22.656 77.843 22.656 79.409 22.656C80.633 22.656 80.633 22.656 81.065 24.384L83.189 23.862C83.189 22.98 83.189 20.712 79.517 20.712H79.247C75.359 20.712 75.359 23.574 75.359 25.032V25.896C75.359 27.462 75.359 30.216 79.517 30.216ZM87.5185 24.438V20.928H85.1425V30H87.5185V26.49H89.1385C89.1385 27.624 89.7865 28.488 90.9205 30H93.4585V29.316L90.5605 25.464L93.4225 21.612V20.928H90.8845C89.7505 22.44 89.1385 23.304 89.1385 24.438H87.5185ZM101.459 30.27L103.187 28.974C102.593 28.182 102.593 28.182 102.593 26.418V24.708C102.593 23.196 102.539 20.712 98.6507 20.712C98.2187 20.712 97.2467 20.712 95.5187 21.144V23.088H96.0047L97.7327 22.656H98.3807C100.217 22.656 100.217 22.656 100.217 24.654H98.8667C94.7087 24.654 94.7087 26.49 94.7087 27.624C94.7087 28.326 94.7087 30.216 97.1387 30.216C98.6687 30.216 99.7127 29.442 100.433 28.902L101.459 30.27ZM97.1927 27.354C97.1927 26.166 97.1927 26.166 98.8667 26.166H100.217V27.786L98.2727 28.272C97.1927 28.272 97.1927 28.272 97.1927 27.354ZM112.544 20.928H109.628C107.198 20.928 104.606 20.928 104.606 23.844C104.606 25.41 105.128 25.806 106.604 26.904L104.786 29.316V30H107.324C107.918 29.226 108.494 28.506 108.494 27.192H110.168V30H112.544V20.928ZM110.168 25.464H108.98C107.27 25.464 107.198 25.464 107.198 24.06C107.198 22.71 107.198 22.656 108.98 22.656H110.168V25.464ZM120.598 20.928V30H122.974V22.908H126.322V30H128.698V20.928H120.598ZM131.355 20.928V33.672H133.731V29.82C134.325 29.964 135.351 30.216 136.215 30.216C139.725 30.216 139.725 27.03 139.725 25.788V25.032C139.725 23.736 139.725 20.712 136.647 20.712C135.171 20.712 134.163 21.45 133.371 22.044L132.543 20.928H131.355ZM137.241 25.464C137.241 28.218 137.241 28.218 135.405 28.218C135.135 28.218 134.595 28.218 133.731 28.002V23.34L135.675 22.872C137.241 22.872 137.241 22.872 137.241 25.464ZM145.267 30C148.237 24.168 148.237 24.168 148.237 23.232H148.741V30H151.099V20.928H147.679C144.799 26.49 144.799 26.49 144.799 27.714H144.313V20.928H141.955V30H145.267ZM153.768 20.928V33.672H156.144V29.82C156.738 29.964 157.764 30.216 158.628 30.216C162.138 30.216 162.138 27.03 162.138 25.788V25.032C162.138 23.736 162.138 20.712 159.06 20.712C157.584 20.712 156.576 21.45 155.784 22.044L154.956 20.928H153.768ZM159.654 25.464C159.654 28.218 159.654 28.218 157.818 28.218C157.548 28.218 157.008 28.218 156.144 28.002V23.34L158.088 22.872C159.654 22.872 159.654 22.872 159.654 25.464ZM168.201 22.764C169.983 22.764 169.983 22.764 169.983 25.464C169.983 28.164 169.983 28.164 168.201 28.164C166.419 28.164 166.419 28.164 166.419 25.464C166.419 22.764 166.419 22.764 168.201 22.764ZM168.093 20.712C163.935 20.712 163.935 23.628 163.935 25.032V25.896C163.935 27.3 163.935 30.216 168.093 30.216H168.309C172.467 30.216 172.467 27.3 172.467 25.896V25.032C172.467 23.628 172.467 20.712 168.309 20.712H168.093ZM176.089 20.928V21.954C176.089 23.97 175.873 26.13 174.865 28.056H173.713V32.592H175.999V30H182.209V32.592H184.495V28.056H182.983V20.928H176.089ZM180.607 22.908V28.056H177.385C178.123 26.31 178.339 24.474 178.375 22.98V22.908H180.607ZM191.888 20.928V24.438H188.54V20.928H186.164V30H188.54V26.418H191.888V30H194.264V20.928H191.888ZM203.078 30.27L204.806 28.974C204.212 28.182 204.212 28.182 204.212 26.418V24.708C204.212 23.196 204.158 20.712 200.27 20.712C199.838 20.712 198.866 20.712 197.138 21.144V23.088H197.624L199.352 22.656H200C201.836 22.656 201.836 22.656 201.836 24.654H200.486C196.328 24.654 196.328 26.49 196.328 27.624C196.328 28.326 196.328 30.216 198.758 30.216C200.288 30.216 201.332 29.442 202.052 28.902L203.078 30.27ZM198.812 27.354C198.812 26.166 198.812 26.166 200.486 26.166H201.836V27.786L199.892 28.272C198.812 28.272 198.812 28.272 198.812 27.354ZM214.164 20.928H211.248C208.818 20.928 206.226 20.928 206.226 23.844C206.226 25.41 206.748 25.806 208.224 26.904L206.406 29.316V30H208.944C209.538 29.226 210.114 28.506 210.114 27.192H211.788V30H214.164V20.928ZM211.788 25.464H210.6C208.89 25.464 208.818 25.464 208.818 24.06C208.818 22.71 208.818 22.656 210.6 22.656H211.788V25.464ZM1.378 45.928V47.908H4.24V55H6.616V47.908H9.478V45.928H1.378ZM14.773 51.274C16.717 51.274 17.257 51.292 18.175 51.058L18.823 50.896V50.014C18.823 48.574 18.823 45.712 14.935 45.712H14.665C10.777 45.712 10.777 48.574 10.777 50.032V50.896C10.777 52.462 10.777 55.216 14.935 55.216C15.529 55.216 16.555 55.216 18.283 54.784V52.84H17.797L16.069 53.272H14.935C13.261 53.272 13.261 53.272 13.261 51.274H14.773ZM14.791 47.602C16.339 47.602 16.339 47.602 16.339 49.762H13.261C13.261 47.602 13.261 47.602 14.791 47.602ZM21 45.928V58.672H23.376V54.82C23.97 54.964 24.996 55.216 25.86 55.216C29.37 55.216 29.37 52.03 29.37 50.788V50.032C29.37 48.736 29.37 45.712 26.292 45.712C24.816 45.712 23.808 46.45 23.016 47.044L22.188 45.928H21ZM26.886 50.464C26.886 53.218 26.886 53.218 25.05 53.218C24.78 53.218 24.24 53.218 23.376 53.002V48.34L25.32 47.872C26.886 47.872 26.886 47.872 26.886 50.464ZM31.5996 45.928V58.672H33.9756V54.82C34.5696 54.964 35.5956 55.216 36.4596 55.216C39.9696 55.216 39.9696 52.03 39.9696 50.788V50.032C39.9696 48.736 39.9696 45.712 36.8916 45.712C35.4156 45.712 34.4076 46.45 33.6156 47.044L32.7876 45.928H31.5996ZM37.4856 50.464C37.4856 53.218 37.4856 53.218 35.6496 53.218C35.3796 53.218 34.8396 53.218 33.9756 53.002V48.34L35.9196 47.872C37.4856 47.872 37.4856 47.872 37.4856 50.464ZM45.5112 55C48.4812 49.168 48.4812 49.168 48.4812 48.232H48.9852V55H51.3432V45.928H47.9232C45.0432 51.49 45.0432 51.49 45.0432 52.714H44.5572V45.928H42.1992V55H45.5112ZM53.0577 45.928V47.908H55.9197V55H58.2957V47.908H61.1577V45.928H53.0577ZM66.7226 47.764C68.5046 47.764 68.5046 47.764 68.5046 50.464C68.5046 53.164 68.5046 53.164 66.7226 53.164C64.9406 53.164 64.9406 53.164 64.9406 50.464C64.9406 47.764 64.9406 47.764 66.7226 47.764ZM66.6146 45.712C62.4566 45.712 62.4566 48.628 62.4566 50.032V50.896C62.4566 52.3 62.4566 55.216 66.6146 55.216H66.8306C70.9886 55.216 70.9886 52.3 70.9886 50.896V50.032C70.9886 48.628 70.9886 45.712 66.8306 45.712H66.6146ZM73.2246 45.928V58.672H75.6006V54.82C76.1946 54.964 77.2206 55.216 78.0846 55.216C81.5946 55.216 81.5946 52.03 81.5946 50.788V50.032C81.5946 48.736 81.5946 45.712 78.5166 45.712C77.0406 45.712 76.0326 46.45 75.2406 47.044L74.4126 45.928H73.2246ZM79.1106 50.464C79.1106 53.218 79.1106 53.218 77.2746 53.218C77.0046 53.218 76.4646 53.218 75.6006 53.002V48.34L77.5446 47.872C79.1106 47.872 79.1106 47.872 79.1106 50.464ZM87.1362 55C90.1062 49.168 90.1062 49.168 90.1062 48.232H90.6102V55H92.9682V45.928H89.5482C86.6682 51.49 86.6682 51.49 86.6682 52.714H86.1822V45.928H83.8242V55H87.1362ZM103.035 45.928H100.119C97.6887 45.928 95.0967 45.928 95.0967 48.844C95.0967 50.41 95.6187 50.806 97.0947 51.904L95.2767 54.316V55H97.8147C98.4087 54.226 98.9847 53.506 98.9847 52.192H100.659V55H103.035V45.928ZM100.659 50.464H99.4707C97.7607 50.464 97.6887 50.464 97.6887 49.06C97.6887 47.71 97.6887 47.656 99.4707 47.656H100.659V50.464Z" fill="#363636"/>
</svg>
