<svg width="311" height="385" viewBox="0 0 311 385" fill="none" xmlns="http://www.w3.org/2000/svg">
<path d="M134.482 321.979C134.081 320.176 132.478 319.892 131.727 319.976L104.68 288.421L143.998 243.593L139.741 195.76L222.134 161.2L238.663 165.708V169.214C238.746 170.55 238.863 173.321 238.663 173.722C238.462 174.123 239.581 174.557 240.165 174.724C240.082 175.308 240.065 176.828 240.666 178.23C241.267 179.632 241.417 177.646 241.417 176.477H243.671C243.755 177.312 244.072 179.232 244.673 180.233C245.424 181.486 246.176 182.237 246.176 183.239C246.176 184.24 246.176 185.743 247.678 186.745C249.181 187.747 248.179 188.999 247.678 189.5C247.278 189.9 248.68 191.169 249.431 191.754C249.348 192.421 249.331 193.807 249.932 194.007C250.684 194.258 254.44 195.26 255.191 195.76C255.792 196.161 256.944 197.263 257.445 197.764C256.944 198.014 255.642 198.615 254.44 199.016C252.937 199.517 253.939 200.769 254.44 203.023C254.941 205.277 255.442 205.277 255.943 204.275C256.343 203.474 257.111 204.609 257.445 205.277C257.779 204.693 258.497 203.424 258.697 203.023C258.948 202.522 260.951 201.52 262.204 200.769C263.205 200.168 264.29 200.519 264.708 200.769C265.71 201.437 267.713 203.524 267.713 206.529C267.713 209.534 268.548 209.451 268.965 209.034C269.633 208.366 271.219 206.93 272.221 206.529C273.223 206.128 273.974 207.197 274.224 207.781C274.475 208.866 274.976 211.187 274.976 211.788C274.976 212.389 275.477 213.04 275.727 213.291V215.795C275.727 216.546 275.727 217.548 274.976 219.301C274.375 220.704 274.725 221.555 274.976 221.806C275.226 221.388 275.927 220.654 276.729 221.054C277.731 221.555 276.729 222.557 276.729 223.308C276.729 224.059 278.231 224.059 279.233 225.312C280.235 226.564 279.984 227.315 278.231 227.315C276.478 227.315 277.23 227.566 276.729 227.315C276.228 227.065 274.976 227.315 274.976 228.066C274.976 228.818 276.478 230.07 276.729 231.322C276.979 232.574 275.727 232.574 275.727 233.826C275.727 235.079 277.48 235.329 278.231 235.329C278.983 235.329 279.734 236.581 279.984 237.583C280.235 238.585 280.485 240.588 280.736 241.339C280.936 241.94 282.656 243.092 283.491 243.593C283.073 244.011 282.038 244.846 281.237 244.846C280.235 244.846 275.727 248.101 274.976 248.352C274.224 248.602 270.969 248.352 269.967 248.853C268.965 249.353 269.967 250.606 268.965 251.607C267.964 252.609 267.713 254.112 266.211 255.113C265.008 255.915 264.708 257.785 264.708 258.619V261.374H267.713C268.381 261.458 269.967 261.775 270.969 262.376C272.221 263.127 270.969 265.381 270.969 266.133C270.969 266.884 272.471 267.385 272.972 269.138C273.473 270.891 271.971 273.896 270.969 274.898C269.967 275.899 267.713 280.658 267.713 281.91C267.713 283.162 265.459 288.672 264.708 290.174C263.957 291.677 263.456 292.178 263.456 294.682C263.456 297.186 263.456 298.439 260.951 300.192C258.447 301.945 262.454 303.447 263.456 305.952C264.457 308.456 262.454 309.959 260.951 310.96C259.749 311.762 258.113 312.797 257.445 313.214C256.444 313.882 254.14 315.518 252.937 316.72C251.435 318.223 251.184 319.976 248.43 321.979C245.675 323.983 241.918 321.979 239.664 319.976C237.41 317.972 234.656 317.472 232.903 316.72C231.15 315.969 229.897 315.218 227.894 315.218C225.89 315.218 224.889 319.976 223.136 319.976C221.383 319.976 217.877 317.472 214.37 315.218C210.864 312.964 211.115 313.966 208.861 313.214C206.607 312.463 205.605 315.218 204.353 315.218C203.101 315.218 198.843 319.976 197.09 319.976C195.337 319.976 194.837 324.484 190.078 327.239H187.824C186.823 327.906 184.469 329.543 183.066 330.745C181.313 332.247 179.56 330.745 177.056 330.745H175.052L172.548 332.748C171.379 333.499 168.791 335.002 167.79 335.002C166.788 335.002 164.2 333.499 163.031 332.748L159.776 335.002C158.941 334.251 156.42 333.199 153.014 335.002C151.511 335.253 151.01 334 149.257 332.748C147.855 331.746 147.337 332.331 147.254 332.748H143.998C142.996 332.414 140.743 331.546 139.741 330.745C138.489 329.743 138.238 328.992 136.736 327.239C135.269 325.528 134.995 324.294 134.517 322.14L134.482 321.979Z" fill="#F2F4F7" stroke="#CBCDD5"/>
<path d="M47.0799 259.371C48.282 259.371 49.5843 258.035 50.0852 257.367L56.346 273.145L81.8904 300.442H97.1669L106.433 288.421L142.746 249.854L198.593 201.52L210.614 192.505C211.783 192.922 214.32 193.907 215.122 194.508C216.124 195.26 216.124 194.508 218.127 194.508C220.13 194.508 219.63 194.759 220.631 194.508C221.433 194.308 222.301 193.089 222.635 192.505C222.802 192.004 223.386 190.902 224.388 190.501C225.64 190 224.638 192.004 226.141 192.505C227.644 193.006 226.892 192.004 227.393 191.002C227.894 190 227.393 187.997 227.393 187.496C227.393 186.995 227.894 185.994 227.894 184.741C227.894 183.489 227.894 183.489 227.393 183.74C226.892 183.99 226.141 184.491 225.39 184.741C224.638 184.992 224.638 183.489 224.638 182.237C224.638 180.985 223.136 179.733 223.136 178.981C223.136 178.23 222.134 178.48 221.383 178.23C220.631 177.98 220.631 177.228 221.383 174.974C222.134 174.724 223.136 172.971 222.635 171.218C222.134 169.465 223.887 169.465 223.136 167.461C222.134 166.96 223.136 165.708 223.136 164.957C223.136 164.206 224.638 164.957 226.141 164.957C227.644 164.957 227.393 164.456 230.649 164.957C232.402 165.708 232.402 166.71 235.407 165.708C235.808 164.907 237.577 165.374 238.412 165.708C237.995 164.623 237.11 162.302 236.91 161.701C236.659 160.95 236.91 160.449 235.908 160.449C234.906 160.449 234.405 160.449 233.153 159.197C231.901 157.945 233.153 156.192 233.153 154.689V152.435C233.153 151.684 231.65 151.434 231.65 150.432C231.65 149.43 231.4 149.68 231.65 148.929C231.901 148.178 232.652 146.675 232.402 145.423C232.151 144.171 230.398 144.672 228.896 144.672C227.393 144.672 227.894 143.92 227.894 143.169C227.894 142.418 225.39 142.668 224.638 143.169C223.887 143.67 223.887 145.423 223.136 145.423C222.384 145.423 222.134 144.421 221.383 144.672C220.631 144.922 220.381 145.423 219.63 145.423H217.125C216.374 145.423 216.124 141.917 216.124 141.166C216.124 140.565 215.456 139.58 215.122 139.162V136.157C215.122 135.406 212.868 134.404 212.367 133.653C211.866 132.901 209.612 131.148 209.111 131.148H206.607C205.355 131.148 204.604 130.397 203.602 129.646C202.6 128.894 201.097 129.395 200.597 129.646C200.096 129.896 198.844 129.896 197.341 131.9C197.09 132.651 196.84 133.653 196.339 134.404C195.838 135.155 194.837 135.406 193.584 136.157C192.332 136.908 193.835 139.914 192.583 139.914C191.33 139.914 190.83 142.919 188.826 145.423C188.075 146.675 187.073 146.425 186.322 147.427C185.57 148.428 186.071 149.931 185.32 150.432C184.569 150.933 183.817 153.187 184.068 153.187C184.318 153.187 183.567 154.689 179.81 156.192C177.807 156.192 178.809 157.694 178.308 158.195C177.807 158.696 177.807 159.698 177.557 160.449C177.306 161.2 176.805 161.451 176.054 161.701C175.303 161.952 175.052 159.698 175.052 158.195C175.052 156.693 176.054 156.192 176.805 156.192C177.557 156.192 177.056 154.189 176.805 153.187L176.805 153.187C176.555 152.185 175.553 154.188 175.052 154.188C174.652 154.188 174.217 153.02 174.05 152.435C173.633 151.767 172.648 150.632 172.047 151.434C171.296 152.435 171.546 152.686 169.793 154.188C168.791 154.188 168.541 154.689 167.79 156.192C167.038 157.694 164.784 154.689 163.031 154.689C161.278 154.689 160.777 154.689 157.021 160.449C157.021 161.952 153.515 160.449 151.261 160.449C149.007 160.449 148.757 158.947 148.005 156.192C147.254 153.437 147.254 154.439 145.25 153.187C143.247 151.934 147.254 151.434 148.005 150.432C148.757 149.43 149.257 146.675 149.257 144.171V139.914C149.925 138.578 151.261 135.456 151.261 133.653C151.261 131.849 152.763 131.733 153.515 131.9C153.932 130.898 154.767 128.594 154.767 127.392C154.767 126.19 156.27 122.884 157.021 121.381H154.767L151.261 119.628V114.62L149.257 112.866C149.09 111.698 148.857 108.809 149.257 106.606C149.758 103.851 151.261 105.103 151.261 103.851V99.5934H148.757L145.25 98.0909L147.254 95.336L148.757 91.5795L147.254 88.0734L145.25 84.0664V82.5638L143.998 77.5552H139.991H136.736V76.0525C137.821 75.3847 140.242 73.6985 141.243 72.296C142.245 70.8935 141.661 70.5429 141.243 70.543L139.991 67.5377C138.823 66.8699 136.535 66.2856 136.736 69.2908C136.936 72.296 135.483 70.543 134.732 69.2908C133.647 69.7082 131.326 70.8936 130.725 72.296C130.124 73.6984 129.306 72.8803 128.972 72.296L126.217 70.543H124.715V76.0525V82.5638C124.715 83.816 122.21 82.5638 122.21 84.0664C122.21 85.569 122.21 86.8212 120.958 88.0734C119.957 89.0751 120.541 90.8282 120.958 91.5795C121.376 92.3308 122.711 94.1339 124.715 95.336C127.219 96.8386 124.715 98.0908 124.715 99.5934C124.715 101.096 123.463 101.346 122.21 102.348C121.209 103.15 121.793 105.52 122.21 106.606C121.125 107.19 118.805 108.559 118.203 109.36C117.452 110.362 117.703 111.865 116.701 112.866C115.699 113.868 113.195 115.12 111.943 116.122C110.941 116.924 109.355 117.959 108.687 118.376V121.381C107.435 122.466 104.93 125.488 104.93 128.894C104.93 130.146 105.181 131.9 104.93 133.653C104.73 135.055 107.351 136.908 108.687 137.66C109.271 137.576 110.991 137.459 113.195 137.66C115.399 137.86 114.113 139.246 113.195 139.914C113.362 140.832 113.595 142.969 113.195 144.171C112.794 145.373 111.191 144.672 110.44 144.171C109.856 144.171 108.236 145.072 106.433 148.679C106.433 150.933 107.685 150.432 108.687 151.434C109.689 152.435 110.44 153.187 110.44 158.947C109.188 161.701 108.437 158.947 106.433 160.449C104.83 161.651 105.765 163.621 106.433 164.456C105.682 164.957 103.879 165.959 102.676 165.959C101.474 165.959 101.007 164.957 100.923 164.456L98.1687 162.954C98.4191 162.202 98.5694 160.65 97.1669 160.449C95.4139 160.199 94.1617 159.698 93.16 158.947C92.1582 158.195 92.4087 156.192 88.6521 153.187C86.6487 152.686 84.1443 154.689 84.1443 156.192C84.1443 157.694 84.6452 160.199 84.1443 162.202C83.6434 164.206 82.8921 164.707 81.8904 165.959C80.8887 167.211 79.8869 166.96 77.633 168.213C75.3791 169.465 74.8782 170.467 72.8747 171.468C70.8713 172.47 72.3739 174.473 71.1217 174.473C70.1199 174.473 68.2 176.477 67.3652 177.479V181.736L65.3617 183.99C64.7773 183.656 63.3582 182.738 62.3565 181.736C61.1043 180.484 61.1043 179.983 62.3565 177.479C63.6086 174.974 61.6052 175.976 61.1043 174.473C60.6034 172.971 61.6052 172.47 54.8434 177.479C53.5912 180.484 50.0852 176.727 47.0799 175.976C44.6758 175.375 40.4017 174.724 38.5652 174.473L31.0521 186.494L34.8086 188.247C34.3078 188.999 33.6065 190.601 34.8086 191.002C36.0107 191.403 35.3095 192.672 34.8086 193.256C35.4764 194.174 36.4114 196.462 34.8086 198.265C33.306 198.265 32.8051 201.771 31.0521 203.524C29.2991 205.277 27.7964 203.774 22.5373 208.783C18.7808 210.786 22.5373 210.786 22.5373 213.291C22.5373 215.795 20.2834 216.546 18.0295 226.313C17.6288 228.718 16.8608 228.985 16.5269 228.818C15.3582 228.651 11.969 229.118 7.76166 232.324C6.50948 234.578 8.51296 234.578 11.5182 238.585C13.9224 241.79 14.8573 243.927 15.0243 244.595C15.8591 244.428 18.5304 244.895 22.5373 248.101C26.2938 250.355 24.5408 250.856 26.2938 252.358C28.0469 253.861 28.5478 253.36 31.0521 255.614C33.5565 257.868 32.0538 257.367 38.5652 259.371C38.5652 260.973 40.0678 261.374 40.8191 261.374C42.4052 260.706 45.8779 259.371 47.0799 259.371Z" fill="#F2F4F7" stroke="#CBCDD5"/>
<path d="M50.0852 284.164C48.833 283.997 46.2785 284.164 46.0782 286.168C45.8278 288.672 46.0782 289.674 46.0782 293.681C46.0782 297.688 47.0799 301.695 43.5738 302.696C40.0678 303.698 32.3043 301.945 30.8017 305.201C29.2991 308.456 27.546 314.968 28.2973 317.472C29.0486 319.976 27.7964 323.733 30.8017 324.985C33.8069 326.237 38.3147 328.992 34.5582 329.994C30.8017 330.995 25.793 329.994 22.7877 329.994C19.7825 329.994 15.5251 328.491 10.266 332.749C5.00686 337.006 0.749467 339.761 4.50599 344.519C8.26252 349.277 14.273 350.029 16.5269 350.279C18.7808 350.529 20.2834 351.782 21.5356 354.536C22.7877 357.291 27.0451 358.042 30.8017 360.296C34.5582 362.55 33.306 365.806 36.8121 367.559C40.3182 369.312 42.5721 368.811 50.0852 369.562C57.5982 370.314 74.3773 372.067 80.1374 372.317C85.8974 372.568 88.6521 371.566 90.6556 369.562C92.6591 367.559 91.9078 365.806 89.4034 363.051C86.8991 360.296 87.1495 359.044 88.9026 358.794C90.6556 358.543 92.4087 358.293 92.1582 357.041C91.9078 355.789 95.6643 355.789 97.1669 354.536C98.6695 353.284 98.6695 351.531 100.172 350.279C101.675 349.027 104.43 349.778 104.68 351.782C104.93 353.785 106.433 354.536 109.438 354.536C112.443 354.536 115.95 355.288 118.704 353.535C121.459 351.782 123.463 349.277 124.715 348.526C125.967 347.775 130.224 348.526 133.23 348.526C136.235 348.526 140.242 346.773 141.243 346.022C142.245 345.27 147.504 337.757 148.256 336.755C148.857 335.954 150.009 333.416 150.51 332.248" stroke="#7684FF" stroke-width="2"/>
<path d="M37.5633 278.404C36.1609 276.801 33.4729 274.23 32.3042 273.145C32.8051 272.31 34.0572 270.641 35.059 270.641C36.0607 270.641 35.4764 268.47 35.059 267.385C35.8938 265.966 38.0642 263.578 40.0677 265.382C42.0712 267.185 40.9025 264.63 40.0677 263.128C40.652 261.875 42.2715 259.371 44.0746 259.371C46.3286 259.371 47.0799 257.618 48.5825 257.618C50.0851 257.618 50.3355 256.366 51.5877 255.114C52.5894 254.112 53.3407 254.696 53.5912 255.114C54.1755 255.948 54.9936 257.969 53.5912 259.371C51.8381 261.124 55.3442 261.375 55.3442 263.128C55.3442 264.881 57.5981 265.382 59.1007 267.385C60.6034 269.388 61.6051 270.641 64.8607 273.145C68.1164 275.649 70.8712 276.401 76.1303 280.908C78.3842 283.413 78.1338 284.164 80.1373 285.166C82.1408 286.168 81.3895 290.175 87.3999 295.684C86.899 297.688 87.6503 299.19 89.1529 299.19C90.6556 299.19 91.4069 295.684 92.659 295.684H97.4173C99.4208 295.684 98.2521 295.016 97.4173 294.682L99.4208 291.928C101.341 290.175 106.233 286.168 110.44 284.164C115.699 281.66 123.463 273.145 127.469 268.888C131.476 264.63 133.73 261.375 138.99 255.114C144.249 248.853 142.496 237.583 142.496 235.58C142.496 233.977 141.828 231.907 141.494 231.072C141.744 230.488 142.245 228.417 142.245 224.811C142.045 223.409 142.329 221.555 142.496 220.804L144.75 216.046L147.254 214.794C146.419 214.126 144.75 212.59 144.75 211.788C144.75 210.787 141.494 208.533 144.75 202.021C146.553 201.42 150.009 200.936 151.511 200.769C152.513 199.183 154.767 196.011 155.769 196.011C157.021 196.011 158.273 196.011 161.278 198.515C164.283 201.02 163.031 198.515 164.784 198.515C166.537 198.515 167.038 196.011 167.038 194.258C167.038 192.856 168.207 193.674 168.791 194.258L171.045 196.011H176.555H181.313C183.116 196.011 182.064 197.681 181.313 198.515C182.148 199.267 184.068 200.769 185.07 200.769H189.327C191.08 200.769 191.581 201.27 192.833 200.769C194.085 200.268 195.337 199.016 197.341 198.515C199.344 198.015 201.598 196.762 201.598 196.011C201.598 195.26 203.351 193.256 203.351 191.754C203.351 190.551 204.687 189.75 205.355 189.5C205.856 189.667 207.108 189.9 208.11 189.5C209.362 188.999 210.113 187.747 210.113 186.494C210.113 185.493 212.45 186.912 213.619 187.747C213.035 188.748 211.515 190.952 210.113 191.754C208.36 192.755 208.11 196.011 211.866 206.529C212.066 207.731 213.118 209.534 213.619 210.286V214.794C213.619 217.048 213.619 219.552 215.623 220.804C217.626 222.056 217.877 219.301 220.631 219.552C223.386 219.802 221.883 222.557 222.635 223.559C223.386 224.561 225.64 227.315 225.89 231.072C226.141 234.828 222.384 234.828 220.631 235.58C218.878 236.331 215.623 237.082 213.619 237.583C211.616 238.084 211.616 240.338 210.113 241.34C208.61 242.342 206.357 246.849 205.355 248.102C204.353 249.354 203.602 250.606 199.595 250.606C196.389 250.606 196.757 252.609 197.341 253.611C197.09 254.362 196.74 256.216 197.341 257.618C198.092 259.371 199.595 261.375 201.598 265.382C201.348 267.135 201.598 268.888 199.595 270.641C197.591 272.394 197.591 272.394 195.337 273.646C193.083 274.898 192.332 275.649 189.327 276.401C186.322 277.152 184.068 278.154 179.059 279.656C177.056 281.159 176.304 283.162 174.802 284.164C173.299 285.166 172.798 285.917 171.045 286.668C169.292 287.42 169.543 288.171 167.038 290.175C164.534 292.178 163.783 293.43 163.031 293.681C162.28 293.931 162.28 292.178 161.278 292.178C160.276 292.178 158.523 291.928 157.021 292.178C155.518 292.428 155.017 294.182 154.516 294.682C154.016 295.183 152.012 294.682 151.511 294.682C151.01 294.682 149.508 296.686 147.254 295.684C146.503 295.434 145.501 294.682 144.75 294.682H142.496C141.911 295.016 140.743 295.885 140.743 296.686C140.743 297.487 139.574 298.689 138.99 299.19L141.494 299.942C140.826 300.275 139.39 301.394 138.99 303.197C138.489 305.451 137.988 305.451 136.485 306.703C134.983 307.955 138.99 309.208 140.743 309.208C142.496 309.208 142.496 312.213 140.743 312.213C138.99 312.213 136.986 313.715 135.233 315.469C133.831 316.871 132.478 318.891 131.977 319.726C130.892 319.893 128.471 320.127 127.469 319.726C126.217 319.225 123.212 316.721 121.96 316.721C120.708 316.721 119.956 314.968 117.953 313.715C115.949 312.463 113.946 313.715 110.44 312.213C106.934 310.71 105.682 311.712 103.177 312.213C100.673 312.714 96.9164 313.215 94.9129 313.715C92.9095 314.216 89.1529 317.222 85.8973 316.721C82.6416 316.22 75.6295 310.46 73.8764 309.208C72.1234 307.955 71.1216 302.195 70.8712 300.943C70.6208 299.691 69.619 296.936 69.3686 295.684C69.1181 294.432 69.3686 293.18 67.1147 291.928C64.8607 290.675 65.1112 291.677 61.6051 290.675C58.099 289.674 57.5981 287.169 55.3442 285.166C53.0903 283.162 52.5894 285.166 48.5825 285.166C45.3769 285.166 44.2416 282.328 44.0746 280.908C42.4886 280.742 38.9658 280.007 37.5633 278.404Z" fill="#F2F4F7" stroke="#CBCDD5"/>
<path d="M134.983 326.488C134.181 325.486 133.981 323.232 133.981 322.23C133.952 321.479 131.477 320.978 130.475 320.978C129.473 320.978 129.974 320.978 129.223 320.728C128.471 320.477 128.722 320.227 127.97 319.726C127.219 319.225 126.468 319.475 125.466 319.475C124.464 319.475 124.464 318.223 123.963 317.472C123.463 316.721 122.21 315.719 120.958 314.717C119.706 313.715 118.955 313.966 118.203 313.966C117.452 313.966 116.45 314.717 115.449 314.717C114.447 314.717 114.197 313.966 113.445 313.465C112.694 312.964 111.191 312.714 110.69 312.463C110.19 312.213 108.437 312.463 107.184 312.463C105.932 312.463 105.682 311.462 104.68 311.462C103.678 311.462 103.428 312.213 102.426 312.714C101.424 313.215 100.172 312.463 99.4209 312.463C98.6695 312.463 99.1704 313.215 97.9182 313.465C96.6661 313.715 94.913 313.715 93.9113 313.966C92.9095 314.216 92.9095 315.218 92.6591 315.969C92.4087 316.721 91.1565 316.47 90.1548 316.47C89.153 316.47 88.1513 315.468 87.4 315.468C86.6487 315.468 86.6487 315.969 85.6469 315.969C84.6452 315.969 83.6434 315.468 82.8921 315.468C82.1409 315.468 81.64 315.468 81.64 314.717C81.64 313.966 80.6382 312.714 80.1374 312.463C79.6365 312.213 79.1356 312.714 78.3843 312.714C77.633 312.714 76.8817 312.463 76.3808 312.213C75.88 311.962 75.3791 310.961 74.8782 310.46C74.3774 309.959 72.6243 307.705 72.3739 307.204C72.1234 306.703 70.8713 304.95 70.3704 304.7C69.8695 304.449 69.8695 303.197 69.6191 302.446C69.4187 301.845 69.3687 300.025 69.3687 299.19C69.5356 299.524 70.0699 299.891 70.8713 298.689C71.873 297.187 72.8747 297.938 74.3774 298.689C75.88 299.441 75.3791 299.19 77.3826 298.689C79.3861 298.188 79.1356 297.437 79.8869 299.19C80.6382 300.943 82.3913 299.941 82.3913 299.19V295.935C82.3913 294.933 83.6434 294.682 83.6434 293.681C83.6434 292.879 82.3078 291.677 81.64 291.176C81.8904 290.592 82.3913 289.073 82.3913 287.67C82.3913 285.917 79.8869 285.416 79.1356 284.665C78.3843 283.914 78.1339 282.161 76.8817 281.409C75.6295 280.658 74.3773 278.404 75.3791 277.152C76.3808 275.9 78.1339 277.653 78.1339 277.152C78.1339 276.651 78.1339 275.148 79.1356 274.397C80.1373 273.646 79.8869 271.893 79.8869 271.392C79.8869 270.891 78.1339 268.888 78.1339 266.634C78.1339 264.38 79.6365 263.128 79.8869 261.625C80.1373 260.122 81.64 261.625 82.3913 261.625C83.1426 261.625 83.1426 260.623 83.6434 259.872C84.1443 259.121 85.6469 260.623 85.6469 259.872C85.6469 259.121 85.8974 257.868 85.6469 257.117C85.3965 256.366 86.6487 255.364 87.4 254.863C88.1513 254.362 87.9008 253.611 88.1513 252.359C88.4017 251.107 89.153 252.359 90.1548 251.107C91.1565 249.855 93.6608 249.354 95.6643 248.101C97.6678 246.849 97.9182 248.602 97.4174 249.103C96.9165 249.604 97.1669 251.107 97.9182 252.359C98.6695 253.611 99.6713 252.108 100.673 251.107C101.675 250.105 101.675 251.357 102.426 251.107C103.177 250.856 104.179 250.355 103.428 249.354C102.676 248.352 103.428 247.1 103.428 246.599C103.428 246.098 105.682 244.846 106.433 243.844C107.184 242.842 110.19 239.837 111.191 239.837C112.193 239.837 113.696 240.338 114.447 239.837C115.048 239.436 115.031 237.166 114.948 236.081C115.532 235.663 116.851 234.778 117.452 234.578C118.203 234.328 118.704 232.825 121.459 231.573C123.663 230.571 121.877 227.649 120.708 226.314C120.875 225.813 121.359 224.711 121.96 224.31C122.711 223.809 123.212 220.303 123.212 219.301C123.212 218.3 122.962 215.295 123.212 214.543C123.463 213.792 124.965 210.536 126.969 209.034C128.972 207.531 132.478 208.032 133.981 208.032C135.483 208.032 137.487 208.032 141.243 209.034C145 210.035 145.25 209.034 148.005 210.536C150.209 211.738 148.923 209.368 148.005 208.032C148.423 207.698 149.358 207.03 149.758 207.03H153.014C154.266 207.03 157.271 209.034 158.523 209.034C159.776 209.034 162.28 209.785 165.035 209.785C167.79 209.785 167.79 206.028 168.791 205.027C169.793 204.025 171.045 201.27 171.797 201.27C172.548 201.27 179.059 200.519 181.313 200.519C183.567 200.519 189.077 200.769 190.078 200.519C191.08 200.268 190.83 203.524 190.078 204.025C189.477 204.426 190.83 204.86 191.581 205.027C191.414 205.444 190.88 206.429 190.078 207.03C189.077 207.781 187.073 208.783 186.071 209.785C185.07 210.787 186.071 212.289 184.819 213.291C183.567 214.293 181.313 214.293 180.311 215.295C179.31 216.296 179.059 218.049 179.81 219.552C180.412 220.754 182.732 223.225 183.817 224.31L182.565 225.312C182.148 224.978 181.113 224.31 180.311 224.31C179.31 224.31 178.809 224.06 177.807 224.31C176.805 224.561 176.304 225.813 175.052 227.065C173.8 228.317 173.299 231.072 173.299 232.825V238.084C173.299 239.587 171.045 241.34 169.793 242.592C168.541 243.844 169.543 245.096 169.793 246.348C170.044 247.601 168.791 249.103 168.791 250.856C168.791 252.609 168.791 254.112 166.788 255.615C164.784 257.117 164.033 259.121 164.033 260.373C164.033 261.625 163.282 263.628 161.278 264.38C159.275 265.131 162.28 266.133 163.282 266.634C164.083 267.034 164.117 268.303 164.033 268.888C165.035 269.806 167.389 272.043 168.791 273.646C170.544 275.649 171.045 276.651 173.299 276.651C175.553 276.651 176.304 274.898 177.056 274.648C177.657 274.447 179.477 273.896 180.311 273.646C180.395 274.147 180.512 275.449 180.311 276.651C180.061 278.153 180.812 279.406 182.565 279.907C183.968 280.307 184.652 278.571 184.819 277.653H187.073C187.741 277.653 189.277 277.452 190.078 276.651C190.88 275.85 192.082 275.816 192.583 275.9L193.584 277.653L192.583 278.404C191.664 279.239 189.678 281.109 189.077 281.91C188.476 282.712 187.49 285.082 187.073 286.168C186.99 286.835 186.672 288.271 186.071 288.672C185.32 289.173 182.816 291.928 181.313 292.929C179.81 293.931 177.056 296.686 176.304 297.437C175.553 298.188 172.548 299.19 171.797 299.691C171.045 300.192 171.797 301.945 171.797 302.947C171.797 303.948 171.045 305.701 171.045 308.456C171.045 311.211 170.795 312.714 169.793 314.467C168.791 316.22 169.292 317.973 169.793 319.475C170.294 320.978 168.541 320.978 167.038 321.479C165.536 321.98 164.534 322.981 163.532 325.736C162.53 328.491 161.028 328.491 160.026 328.992C159.225 329.393 158.023 328.157 157.522 327.489C156.937 327.406 155.568 327.089 154.767 326.488C153.765 325.736 155.017 328.992 154.767 330.244C154.517 331.496 152.763 330.244 152.263 330.244C151.762 330.244 150.51 332.999 149.758 332.999C149.007 332.999 145.501 333.249 142.746 332.999C139.991 332.748 140.242 331.246 139.24 330.244C138.238 329.242 135.984 327.74 134.983 326.488Z" fill="#D8F0D4" fill-opacity="0.3" stroke="#76D33D" stroke-width="2" stroke-linecap="round"/>
<path d="M93.9113 292.679C92.7092 292.278 89.2365 290.174 87.6504 289.173C86.8991 287.42 93.9113 287.169 95.1635 287.169C96.4156 287.169 97.9182 287.169 98.6695 286.668C99.2706 286.268 100.423 286.835 100.923 287.169C101.591 286.835 103.177 286.117 104.179 285.917C105.431 285.667 105.932 284.414 106.683 283.663C107.435 282.912 109.939 278.154 111.191 277.152C112.443 276.15 116.951 273.646 118.203 272.894C119.456 272.143 120.457 269.889 122.711 268.387C124.514 267.184 122.461 266.383 121.209 266.133C122.127 265.548 124.114 264.229 124.715 263.628C125.466 262.877 126.468 261.124 127.97 261.124C129.173 261.124 129.473 259.121 129.473 258.119C129.974 257.534 131.176 256.216 131.977 255.615C132.979 254.863 135.984 251.607 136.736 251.107C137.487 250.606 137.237 249.855 137.487 248.853C137.687 248.051 138.071 247.016 138.238 246.599C138.656 246.098 139.591 244.946 139.991 244.345C140.492 243.594 140.743 241.59 141.494 240.088C142.245 238.585 144.75 233.326 144.75 232.574C144.75 231.823 145.25 230.07 146.503 229.068C147.755 228.067 147.003 227.065 147.254 226.564C147.504 226.063 148.005 223.809 148.005 221.054C149.007 220.553 149.007 219.552 150.259 218.801C151.511 218.049 151.762 218.55 152.763 218.801C153.765 219.051 152.763 220.804 152.763 221.555C152.763 222.307 154.266 222.808 154.016 223.809C153.765 224.811 153.765 225.813 152.763 227.065C151.762 228.317 153.014 229.068 152.763 230.821C152.513 232.575 152.513 233.576 151.762 234.828C151.01 236.081 151.762 236.832 151.762 240.088C151.762 242.091 150.51 240.839 150.259 242.842C150.059 244.445 151.177 246.015 151.762 246.599C151.261 247.267 150.009 248.853 149.007 249.855C147.755 251.107 148.506 251.607 148.005 252.609C147.504 253.611 147.755 253.861 147.003 255.615C146.402 257.017 146.419 255.698 146.503 254.863C146.586 254.195 146.803 252.609 147.003 251.607C147.204 250.606 145.584 251.19 144.75 251.607C144.416 252.025 143.598 253.06 142.997 253.861C142.395 254.663 140.743 257.034 139.991 258.119L141.494 256.366H144.75C145.751 256.366 145.25 257.117 145.25 258.119C145.25 259.121 146.503 260.122 145.25 261.124C144.249 261.925 143.831 262.46 143.748 262.627C143.414 262.46 142.496 262.226 141.494 262.627C140.242 263.127 138.99 264.38 138.238 265.131C137.637 265.732 137.988 266.049 138.238 266.133V268.387C137.821 268.72 136.786 269.488 135.984 269.889C134.983 270.39 134.482 271.392 133.73 272.143C132.979 272.894 131.977 272.143 127.97 273.646C126.718 274.898 125.717 274.898 123.963 275.9C122.21 276.901 123.212 278.154 121.209 278.154C120.708 278.154 119.957 277.903 118.704 278.154C117.452 278.404 117.452 278.654 116.951 280.157C116.45 281.66 116.45 282.161 115.449 283.663C114.447 285.166 114.197 286.919 113.445 288.421C112.694 289.924 112.193 289.173 111.191 289.924C110.39 290.525 108.186 291.51 107.184 291.927C106.266 292.178 104.129 292.679 102.927 292.679C101.424 292.679 101.174 293.681 100.172 293.681H97.9182C96.9165 293.681 95.4139 293.18 93.9113 292.679Z" fill="#96CDFF"/>
<path d="M238.412 165.708C240.583 166.877 247.027 168.513 249.431 165.708C257.445 158.696 258.447 158.696 262.955 158.195C278.482 152.686 277.981 154.188 281.988 150.682" stroke="#CBCDD5"/>
<path d="M50.968 199.152V191.088H49.456V201H51.276L55.434 194.924C56.134 193.902 56.19 193.412 56.19 192.936H56.624V201H58.136V191.088H56.316L51.99 197.458C51.43 198.284 51.402 198.718 51.402 199.152H50.968ZM60.7978 193.944V203.856H62.2258V200.832C62.8978 201 63.5698 201.168 64.8298 201.168C68.0218 201.168 68.0218 198.984 68.0218 197.808V197.136C68.0218 195.792 68.0218 193.776 64.9978 193.776C63.3178 193.776 62.3938 194.476 62.0578 194.728L61.4698 193.944H60.7978ZM66.5098 197.472C66.5098 199.81 66.5098 199.824 64.2418 199.824C63.7378 199.824 62.8978 199.824 62.2258 199.656V195.624L64.2418 195.12H64.4798C66.5098 195.12 66.5098 195.204 66.5098 197.472ZM77.2346 194.336V193.944H75.6386C74.6306 195.288 74.0426 196.072 74.0426 196.8H71.5226V193.944H70.0946V201H71.5226V198.144H74.0426C74.0426 198.872 74.6306 199.656 75.6386 201H77.2346V200.608L74.8686 197.472L77.2346 194.336ZM81.3877 199.488C81.3877 198.984 81.3877 198.984 79.9457 195.204V193.944H78.4337C78.4337 195.414 78.4337 195.414 80.6737 200.664H82.0877L81.5837 202.008C81.3177 202.68 81.2057 202.68 80.4077 202.68H79.3017V204.024H80.0297C81.1217 204.024 82.2137 203.982 82.8437 202.456L85.1677 196.198C85.4897 195.414 85.4897 195.414 85.4897 194.224V193.944H84.0197V195.204C82.6897 199.012 82.7037 199.012 82.7037 199.488H81.3877ZM93.4855 193.944H86.4295V195.176H89.2155V201H90.6995V195.176H93.4855V193.944ZM98.2905 201.168C98.7945 201.168 99.8865 201.168 101.231 200.832V199.488H100.895L99.5365 199.824H98.7945C96.3585 199.824 96.3585 199.824 96.3585 197.472C96.3585 195.12 96.3585 195.12 98.2905 195.12C99.8865 195.12 99.8865 195.12 100.223 196.464L101.567 196.128C101.567 195.456 101.567 193.776 98.6265 193.776H97.9545C94.8465 193.776 94.8465 195.624 94.8465 197.136V197.808C94.8465 199.32 94.8465 201.168 98.2905 201.168ZM110.608 194.336V193.944H109.012C108.004 195.288 107.416 196.072 107.416 196.8H104.896V193.944H103.468V201H104.896V198.144H107.416C107.416 198.872 108.004 199.656 109.012 201H110.608V200.608L108.242 197.472L110.608 194.336ZM118.247 201.168L119.311 200.37C118.807 199.698 118.807 199.698 118.807 198.312V197.136C118.807 195.456 118.807 193.776 115.531 193.776C115.027 193.776 113.935 193.776 112.591 194.112V195.456H112.927L114.271 195.12H115.531C117.379 195.12 117.379 195.12 117.379 196.884H115.531C112.003 196.884 112.003 198.06 112.003 199.152C112.003 199.824 112.003 201.168 114.523 201.168C116.259 201.168 117.197 200.468 117.533 200.216L118.247 201.168ZM113.599 198.984C113.599 197.976 113.599 197.976 115.531 197.976H117.379V199.32L115.363 199.824H114.607C113.599 199.824 113.599 199.824 113.599 198.984ZM127.516 201V193.944H124.492C122.392 193.944 120.712 193.944 120.712 196.212C120.712 197.444 121.132 197.766 122.308 198.648L120.838 200.608V201H122.434C122.938 200.356 123.484 199.684 123.484 198.648H126.088V201H127.516ZM123.904 197.472C122.322 197.472 122.308 197.472 122.308 196.296C122.308 195.134 122.308 195.12 123.904 195.12H126.088V197.472H123.904ZM50.38 214.472C50.38 212.12 50.38 212.05 52.564 212.05C54.748 212.05 54.748 212.12 54.748 214.472C54.748 216.824 54.748 216.894 52.564 216.894C50.38 216.894 50.38 216.824 50.38 214.472ZM48.868 214.808C48.868 216.152 48.868 218.168 52.228 218.168H52.9C56.26 218.168 56.26 216.152 56.26 214.808V214.136C56.26 212.792 56.26 210.776 52.9 210.776H52.228C48.868 210.776 48.868 212.792 48.868 214.136V214.808ZM63.0408 209.768C63.7968 209.586 64.5388 209.39 64.8048 208.34L64.8888 208.004L63.5448 207.668C63.3768 208.172 63.3908 208.172 62.7048 208.34L61.0248 208.76C58.1688 209.474 58.1688 211.364 58.1688 213.548V214.094C58.1688 216.446 58.1688 218.168 61.6128 218.168H62.2848C65.6448 218.168 65.6448 216.488 65.6448 215.228V214.472C65.6448 213.212 65.6448 211.532 62.6208 211.532C60.6048 211.532 59.9328 211.994 59.6248 212.372L59.3728 212.288C59.7928 210.608 59.7928 210.58 61.3608 210.188L63.0408 209.768ZM61.9488 212.778C64.1328 212.778 64.1328 213.086 64.1328 214.85C64.1328 216.614 64.1328 216.922 61.8368 216.922C59.7648 216.922 59.7648 216.614 59.7648 214.85C59.7648 213.086 59.7648 212.778 61.9488 212.778ZM72.9397 212.19V218H74.3677V210.944H68.6697C68.6277 212.4 68.5437 213.604 68.2917 215.424C68.1237 216.642 67.9837 216.88 66.7797 216.88V218.028C69.0477 218.028 69.2857 217.762 69.5657 215.676C69.7757 214.136 69.8737 213.058 69.9017 212.19H72.9397ZM82.6042 218.168L83.6682 217.37C83.1642 216.698 83.1642 216.698 83.1642 215.312V214.136C83.1642 212.456 83.1642 210.776 79.8882 210.776C79.3842 210.776 78.2922 210.776 76.9482 211.112V212.456H77.2842L78.6282 212.12H79.8882C81.7362 212.12 81.7362 212.12 81.7362 213.884H79.8882C76.3602 213.884 76.3602 215.06 76.3602 216.152C76.3602 216.824 76.3602 218.168 78.8802 218.168C80.6162 218.168 81.5542 217.468 81.8902 217.216L82.6042 218.168ZM77.9562 215.984C77.9562 214.976 77.9562 214.976 79.8882 214.976H81.7362V216.32L79.7202 216.824H78.9642C77.9562 216.824 77.9562 216.824 77.9562 215.984ZM88.5972 218.168C89.1012 218.168 90.1932 218.168 91.5372 217.832V216.488H91.2012L89.8432 216.824H89.1012C86.6652 216.824 86.6652 216.824 86.6652 214.472C86.6652 212.12 86.6652 212.12 88.5972 212.12C90.1932 212.12 90.1932 212.12 90.5292 213.464L91.8732 213.128C91.8732 212.456 91.8732 210.776 88.9332 210.776H88.2612C85.1532 210.776 85.1532 212.624 85.1532 214.136V214.808C85.1532 216.32 85.1532 218.168 88.5972 218.168ZM100.116 210.944H93.0603V212.176H95.8463V218H97.3303V212.176H100.116V210.944ZM105.173 218C106.853 218 108.365 218 108.365 215.648C108.365 214.808 108.365 213.128 105.341 213.128C104.669 213.128 103.913 213.212 103.241 213.38V210.944H101.813V218H105.173ZM105.341 214.472C106.853 214.472 106.853 214.472 106.853 215.648C106.853 216.824 106.853 216.824 105.341 216.824H103.241V214.472H105.341Z" fill="#363636"/>
<path d="M206.672 242.088V247.128L204.656 247.632H204.068C201.548 247.632 201.548 247.632 201.548 245.112V242.088H200.036V245.112C200.036 247.128 200.036 249.144 203.228 249.144C204.32 249.144 205.328 248.892 206.672 248.556V252H208.184V242.088H206.672ZM212.787 252C216.441 247.142 216.441 246.89 216.441 246.148H216.805V252H218.233V244.944H216.301C212.647 249.802 212.647 250.054 212.647 250.796H212.269V244.944H210.841V252H212.787ZM226.985 244.944H219.929V246.176H222.715V252H224.199V246.176H226.985V244.944ZM230.629 252C234.283 247.142 234.283 246.89 234.283 246.148H234.647V252H236.075V244.944H234.143C230.489 249.802 230.489 250.054 230.489 250.796H230.111V244.944H228.683V252H230.629ZM244.029 244.944V247.786H239.913V244.944H238.485V252H239.913V249.018H244.029V252H245.457V244.944H244.029ZM250.972 252.168C251.476 252.168 252.568 252.168 253.912 251.832V250.488H253.576L252.218 250.824H251.476C249.04 250.824 249.04 250.824 249.04 248.472C249.04 246.12 249.04 246.12 250.972 246.12C252.568 246.12 252.568 246.12 252.904 247.464L254.248 247.128C254.248 246.456 254.248 244.776 251.308 244.776H250.636C247.528 244.776 247.528 246.624 247.528 248.136V248.808C247.528 250.32 247.528 252.168 250.972 252.168ZM263.289 245.336V244.944H261.693C260.685 246.288 260.097 247.072 260.097 247.8H257.577V244.944H256.149V252H257.577V249.144H260.097C260.097 249.872 260.685 250.656 261.693 252H263.289V251.608L260.923 248.472L263.289 245.336ZM270.928 252.168L271.992 251.37C271.488 250.698 271.488 250.698 271.488 249.312V248.136C271.488 246.456 271.488 244.776 268.212 244.776C267.708 244.776 266.616 244.776 265.272 245.112V246.456H265.608L266.952 246.12H268.212C270.06 246.12 270.06 246.12 270.06 247.884H268.212C264.684 247.884 264.684 249.06 264.684 250.152C264.684 250.824 264.684 252.168 267.204 252.168C268.94 252.168 269.878 251.468 270.214 251.216L270.928 252.168ZM266.28 249.984C266.28 248.976 266.28 248.976 268.212 248.976H270.06V250.32L268.044 250.824H267.288C266.28 250.824 266.28 250.824 266.28 249.984ZM280.197 252V244.944H277.173C275.073 244.944 273.393 244.944 273.393 247.212C273.393 248.444 273.813 248.766 274.989 249.648L273.519 251.608V252H275.115C275.619 251.356 276.165 250.684 276.165 249.648H278.769V252H280.197ZM276.585 248.472C275.003 248.472 274.989 248.472 274.989 247.296C274.989 246.134 274.989 246.12 276.585 246.12H278.769V248.472H276.585ZM201.38 265.472C201.38 263.12 201.38 263.05 203.564 263.05C205.748 263.05 205.748 263.12 205.748 265.472C205.748 267.824 205.748 267.894 203.564 267.894C201.38 267.894 201.38 267.824 201.38 265.472ZM199.868 265.808C199.868 267.152 199.868 269.168 203.228 269.168H203.9C207.26 269.168 207.26 267.152 207.26 265.808V265.136C207.26 263.792 207.26 261.776 203.9 261.776H203.228C199.868 261.776 199.868 263.792 199.868 265.136V265.808ZM214.041 260.768C214.797 260.586 215.539 260.39 215.805 259.34L215.889 259.004L214.545 258.668C214.377 259.172 214.391 259.172 213.705 259.34L212.025 259.76C209.169 260.474 209.169 262.364 209.169 264.548V265.094C209.169 267.446 209.169 269.168 212.613 269.168H213.285C216.645 269.168 216.645 267.488 216.645 266.228V265.472C216.645 264.212 216.645 262.532 213.621 262.532C211.605 262.532 210.933 262.994 210.625 263.372L210.373 263.288C210.793 261.608 210.793 261.58 212.361 261.188L214.041 260.768ZM212.949 263.778C215.133 263.778 215.133 264.086 215.133 265.85C215.133 267.614 215.133 267.922 212.837 267.922C210.765 267.922 210.765 267.614 210.765 265.85C210.765 264.086 210.765 263.778 212.949 263.778ZM223.94 263.19V269H225.368V261.944H219.67C219.628 263.4 219.544 264.604 219.292 266.424C219.124 267.642 218.984 267.88 217.78 267.88V269.028C220.048 269.028 220.286 268.762 220.566 266.676C220.776 265.136 220.874 264.058 220.902 263.19H223.94ZM233.604 269.168L234.668 268.37C234.164 267.698 234.164 267.698 234.164 266.312V265.136C234.164 263.456 234.164 261.776 230.888 261.776C230.384 261.776 229.292 261.776 227.948 262.112V263.456H228.284L229.628 263.12H230.888C232.736 263.12 232.736 263.12 232.736 264.884H230.888C227.36 264.884 227.36 266.06 227.36 267.152C227.36 267.824 227.36 269.168 229.88 269.168C231.616 269.168 232.554 268.468 232.89 268.216L233.604 269.168ZM228.956 266.984C228.956 265.976 228.956 265.976 230.888 265.976H232.736V267.32L230.72 267.824H229.964C228.956 267.824 228.956 267.824 228.956 266.984ZM239.597 269.168C240.101 269.168 241.193 269.168 242.537 268.832V267.488H242.201L240.843 267.824H240.101C237.665 267.824 237.665 267.824 237.665 265.472C237.665 263.12 237.665 263.12 239.597 263.12C241.193 263.12 241.193 263.12 241.529 264.464L242.873 264.128C242.873 263.456 242.873 261.776 239.933 261.776H239.261C236.153 261.776 236.153 263.624 236.153 265.136V265.808C236.153 267.32 236.153 269.168 239.597 269.168ZM251.116 261.944H244.06V263.176H246.846V269H248.33V263.176H251.116V261.944ZM256.173 269C257.853 269 259.365 269 259.365 266.648C259.365 265.808 259.365 264.128 256.341 264.128C255.669 264.128 254.913 264.212 254.241 264.38V261.944H252.813V269H256.173ZM256.341 265.472C257.853 265.472 257.853 265.472 257.853 266.648C257.853 267.824 257.853 267.824 256.341 267.824H254.241V265.472H256.341Z" fill="#363636"/>
<path d="M206.516 276.485V281.525L204.5 282.029H203.912C201.392 282.029 201.392 282.029 201.392 279.509V276.485H199.88V279.509C199.88 281.525 199.88 283.541 203.072 283.541C204.164 283.541 205.172 283.289 206.516 282.953V286.397H208.028V276.485H206.516ZM212.63 286.397C216.284 281.539 216.284 281.287 216.284 280.545H216.648V286.397H218.076V279.341H216.144C212.49 284.199 212.49 284.451 212.49 285.193H212.112V279.341H210.684V286.397H212.63ZM226.829 279.341H219.773V280.573H222.559V286.397H224.043V280.573H226.829V279.341ZM234.35 286.565L235.414 285.767C234.91 285.095 234.91 285.095 234.91 283.709V282.533C234.91 280.853 234.91 279.173 231.634 279.173C231.13 279.173 230.038 279.173 228.694 279.509V280.853H229.03L230.374 280.517H231.634C233.482 280.517 233.482 280.517 233.482 282.281H231.634C228.106 282.281 228.106 283.457 228.106 284.549C228.106 285.221 228.106 286.565 230.626 286.565C232.362 286.565 233.3 285.865 233.636 285.613L234.35 286.565ZM229.702 284.381C229.702 283.373 229.702 283.373 231.634 283.373H233.482V284.717L231.466 285.221H230.71C229.702 285.221 229.702 285.221 229.702 284.381Z" fill="#363636"/>
<path d="M139.433 298.456C139.433 297.784 139.433 297.784 137.207 292.996H135.723V293.5L138.663 299.674H140.651L140.161 300.724C139.769 301.564 139.587 301.564 138.579 301.564H137.305V302.908H138.243C140.021 302.908 140.805 302.908 141.673 300.892L144.851 293.5V292.996H143.409C141.393 297.784 141.393 297.784 141.421 298.456H139.433ZM150.903 297.098V302.908H152.331V295.852H146.633C146.591 297.308 146.507 298.512 146.255 300.332C146.087 301.55 145.947 301.788 144.743 301.788V302.936C147.011 302.936 147.249 302.67 147.529 300.584C147.739 299.044 147.837 297.966 147.865 297.098H150.903ZM160.568 303.076L161.632 302.278C161.128 301.606 161.128 301.606 161.128 300.22V299.044C161.128 297.364 161.128 295.684 157.852 295.684C157.348 295.684 156.256 295.684 154.912 296.02V297.364H155.248L156.592 297.028H157.852C159.7 297.028 159.7 297.028 159.7 298.792H157.852C154.324 298.792 154.324 299.968 154.324 301.06C154.324 301.732 154.324 303.076 156.844 303.076C158.58 303.076 159.518 302.376 159.854 302.124L160.568 303.076ZM155.92 300.892C155.92 299.884 155.92 299.884 157.852 299.884H159.7V301.228L157.684 301.732H156.928C155.92 301.732 155.92 301.732 155.92 300.892ZM168.997 295.852V298.694H164.881V295.852H163.453V302.908H164.881V299.926H168.997V302.908H170.425V295.852H168.997ZM171.908 298.288V299.548H176.108V298.288H171.908ZM180.244 298.456C180.244 297.784 180.244 297.784 178.018 292.996H176.534V293.5L179.474 299.674H181.462L180.972 300.724C180.58 301.564 180.398 301.564 179.39 301.564H178.116V302.908H179.054C180.832 302.908 181.616 302.908 182.484 300.892L185.662 293.5V292.996H184.22C182.204 297.784 182.204 297.784 182.232 298.456H180.244ZM186.902 302.908H193.048V304.924H194.42V301.732H193.244V295.852H187.504V296.692C187.504 298.358 187.322 300.136 186.496 301.732H185.53V304.924H186.902V302.908ZM188.876 297.084H191.816V301.732H188.036C188.708 300.122 188.876 298.414 188.876 297.084ZM202.079 299.044C202.079 297.532 202.079 295.684 198.803 295.684H198.551C198.047 295.684 197.039 295.684 195.695 296.02V297.364H196.031L197.375 297.028H198.635C200.567 297.028 200.567 297.028 200.567 298.792H197.375V299.968H200.567C200.567 301.732 200.567 301.732 198.635 301.732H197.375L196.031 301.396H195.695V302.74C197.039 303.076 198.047 303.076 198.551 303.076H198.803C202.079 303.076 202.079 301.228 202.079 299.716V299.044Z" fill="#363636"/>
<path d="M138.431 355.055C138.431 354.383 138.431 354.383 136.205 349.595H134.721V350.099L137.661 356.273H139.649L139.159 357.323C138.767 358.163 138.585 358.163 137.577 358.163H136.303V359.507H137.241C139.019 359.507 139.803 359.507 140.671 357.491L143.849 350.099V349.595H142.407C140.391 354.383 140.391 354.383 140.419 355.055H138.431ZM149.902 353.697V359.507H151.33V352.451H145.632C145.59 353.907 145.506 355.111 145.254 356.931C145.086 358.149 144.946 358.387 143.742 358.387V359.535C146.01 359.535 146.248 359.269 146.528 357.183C146.738 355.643 146.836 354.565 146.864 353.697H149.902ZM159.566 359.675L160.63 358.877C160.126 358.205 160.126 358.205 160.126 356.819V355.643C160.126 353.963 160.126 352.283 156.85 352.283C156.346 352.283 155.254 352.283 153.91 352.619V353.963H154.246L155.59 353.627H156.85C158.698 353.627 158.698 353.627 158.698 355.391H156.85C153.322 355.391 153.322 356.567 153.322 357.659C153.322 358.331 153.322 359.675 155.842 359.675C157.578 359.675 158.516 358.975 158.852 358.723L159.566 359.675ZM154.918 357.491C154.918 356.483 154.918 356.483 156.85 356.483H158.698V357.827L156.682 358.331H155.926C154.918 358.331 154.918 358.331 154.918 357.491ZM167.995 352.451V355.293H163.879V352.451H162.451V359.507H163.879V356.525H167.995V359.507H169.423V352.451H167.995ZM170.906 354.887V356.147H175.106V354.887H170.906ZM178.352 353.515V350.939H184.232V349.595H176.84V359.507H180.368C183.476 359.507 185.072 359.437 185.072 356.511C185.072 353.585 183.476 353.515 180.368 353.515H178.352ZM178.352 354.859H181.376C183.448 354.859 183.476 354.859 183.476 356.511C183.476 358.135 183.476 358.163 181.376 358.163H178.352V354.859ZM192.802 359.675L193.866 358.877C193.362 358.205 193.362 358.205 193.362 356.819V355.643C193.362 353.963 193.362 352.283 190.086 352.283C189.582 352.283 188.49 352.283 187.146 352.619V353.963H187.482L188.826 353.627H190.086C191.934 353.627 191.934 353.627 191.934 355.391H190.086C186.558 355.391 186.558 356.567 186.558 357.659C186.558 358.331 186.558 359.675 189.078 359.675C190.814 359.675 191.752 358.975 192.088 358.723L192.802 359.675ZM188.154 357.491C188.154 356.483 188.154 356.483 190.086 356.483H191.934V357.827L189.918 358.331H189.162C188.154 358.331 188.154 358.331 188.154 357.491ZM202.029 352.451H194.973V353.683H197.759V359.507H199.243V353.683H202.029V352.451ZM204.902 355.979C204.902 353.627 204.902 353.557 207.086 353.557C209.27 353.557 209.27 353.627 209.27 355.979C209.27 358.331 209.27 358.401 207.086 358.401C204.902 358.401 204.902 358.331 204.902 355.979ZM203.39 356.315C203.39 357.659 203.39 359.675 206.75 359.675H207.422C210.782 359.675 210.782 357.659 210.782 356.315V355.643C210.782 354.299 210.782 352.283 207.422 352.283H206.75C203.39 352.283 203.39 354.299 203.39 355.643V356.315ZM212.859 352.451V362.363H214.287V359.339C214.959 359.507 215.631 359.675 216.891 359.675C220.083 359.675 220.083 357.491 220.083 356.315V355.643C220.083 354.299 220.083 352.283 217.059 352.283C215.379 352.283 214.455 352.983 214.119 353.235L213.531 352.451H212.859ZM218.571 355.979C218.571 358.317 218.571 358.331 216.303 358.331C215.799 358.331 214.959 358.331 214.287 358.163V354.131L216.303 353.627H216.541C218.571 353.627 218.571 353.711 218.571 355.979Z" fill="#363636"/>
<path d="M95.6272 280.041V271.977H94.1152V281.889H95.9352L100.093 275.813C100.793 274.791 100.849 274.301 100.849 273.825H101.283V281.889H102.795V271.977H100.975L96.6492 278.347C96.0892 279.173 96.0612 279.607 96.0612 280.041H95.6272ZM105.457 274.833V284.745H106.885V281.721C107.557 281.889 108.229 282.057 109.489 282.057C112.681 282.057 112.681 279.873 112.681 278.697V278.025C112.681 276.681 112.681 274.665 109.657 274.665C107.977 274.665 107.053 275.365 106.717 275.617L106.129 274.833H105.457ZM111.169 278.361C111.169 280.699 111.169 280.713 108.901 280.713C108.397 280.713 107.557 280.713 106.885 280.545V276.513L108.901 276.009H109.139C111.169 276.009 111.169 276.093 111.169 278.361ZM121.894 275.225V274.833H120.298C119.29 276.177 118.702 276.961 118.702 277.689H116.182V274.833H114.754V281.889H116.182V279.033H118.702C118.702 279.761 119.29 280.545 120.298 281.889H121.894V281.497L119.528 278.361L121.894 275.225ZM126.047 280.377C126.047 279.873 126.047 279.873 124.605 276.093V274.833H123.093C123.093 276.303 123.093 276.303 125.333 281.553H126.747L126.243 282.897C125.977 283.569 125.865 283.569 125.067 283.569H123.961V284.913H124.689C125.781 284.913 126.873 284.871 127.503 283.345L129.827 277.087C130.149 276.303 130.149 276.303 130.149 275.113V274.833H128.679V276.093C127.349 279.901 127.363 279.901 127.363 280.377H126.047ZM138.145 274.833H131.089V276.065H133.875V281.889H135.359V276.065H138.145V274.833ZM142.95 282.057C143.454 282.057 144.546 282.057 145.89 281.721V280.377H145.554L144.196 280.713H143.454C141.018 280.713 141.018 280.713 141.018 278.361C141.018 276.009 141.018 276.009 142.95 276.009C144.546 276.009 144.546 276.009 144.882 277.353L146.226 277.017C146.226 276.345 146.226 274.665 143.286 274.665H142.614C139.506 274.665 139.506 276.513 139.506 278.025V278.697C139.506 280.209 139.506 282.057 142.95 282.057ZM155.267 275.225V274.833H153.671C152.663 276.177 152.075 276.961 152.075 277.689H149.555V274.833H148.127V281.889H149.555V279.033H152.075C152.075 279.761 152.663 280.545 153.671 281.889H155.267V281.497L152.901 278.361L155.267 275.225Z" fill="#363636"/>
<path d="M168.968 209.432H171.908C174.064 209.432 174.092 209.432 174.092 211.532C174.092 213.604 174.092 213.632 171.908 213.632H168.968V209.432ZM167.456 218H168.968V214.976H170.9C174.092 214.976 175.688 214.976 175.688 211.532C175.688 208.088 174.092 208.088 170.9 208.088H167.456V218ZM180.621 216.824C178.689 216.824 178.689 216.824 178.689 215.06H180.621C182.637 215.06 182.973 215.06 183.729 214.892L184.065 214.808V214.136C184.065 212.792 184.065 210.776 180.957 210.776H180.285C177.177 210.776 177.177 212.792 177.177 214.136V214.808C177.177 216.32 177.177 218.168 180.621 218.168C181.209 218.168 182.217 218.168 183.561 217.832V216.488H183.225L181.881 216.824H180.621ZM178.689 213.968C178.689 212.12 178.689 212.12 180.621 212.12C182.553 212.12 182.553 212.12 182.553 213.968H178.689ZM189.248 218.168C189.752 218.168 190.844 218.168 192.188 217.832V216.488H191.852L190.494 216.824H189.752C187.316 216.824 187.316 216.824 187.316 214.472C187.316 212.12 187.316 212.12 189.248 212.12C190.844 212.12 190.844 212.12 191.18 213.464L192.524 213.128C192.524 212.456 192.524 210.776 189.584 210.776H188.912C185.804 210.776 185.804 212.624 185.804 214.136V214.808C185.804 216.32 185.804 218.168 189.248 218.168ZM199.969 210.944H194.425V218H195.853V212.176H199.969V218H201.397V210.944H199.969ZM206.142 216.488C206.142 215.984 206.142 215.984 204.7 212.204V210.944H203.188C203.188 212.414 203.188 212.414 205.428 217.664H206.842L206.338 219.008C206.072 219.68 205.96 219.68 205.162 219.68H204.056V221.024H204.784C205.876 221.024 206.968 220.982 207.598 219.456L209.922 213.198C210.244 212.414 210.244 212.414 210.244 211.224V210.944H208.774V212.204C207.444 216.012 207.458 216.012 207.458 216.488H206.142ZM216.601 209.768C217.357 209.586 218.099 209.39 218.365 208.34L218.449 208.004L217.105 207.668C216.937 208.172 216.951 208.172 216.265 208.34L214.585 208.76C211.729 209.474 211.729 211.364 211.729 213.548V214.094C211.729 216.446 211.729 218.168 215.173 218.168H215.845C219.205 218.168 219.205 216.488 219.205 215.228V214.472C219.205 213.212 219.205 211.532 216.181 211.532C214.165 211.532 213.493 211.994 213.185 212.372L212.933 212.288C213.353 210.608 213.353 210.58 214.921 210.188L216.601 209.768ZM215.509 212.778C217.693 212.778 217.693 213.086 217.693 214.85C217.693 216.614 217.693 216.922 215.397 216.922C213.325 216.922 213.325 216.614 213.325 214.85C213.325 213.086 213.325 212.778 215.509 212.778ZM226.5 212.19V218H227.928V210.944H222.23C222.188 212.4 222.104 213.604 221.852 215.424C221.684 216.642 221.544 216.88 220.34 216.88V218.028C222.608 218.028 222.846 217.762 223.126 215.676C223.336 214.136 223.434 213.058 223.462 212.19H226.5ZM232.287 218C235.941 213.142 235.941 212.89 235.941 212.148H236.305V218H237.733V210.944H235.801C232.147 215.802 232.147 216.054 232.147 216.796H231.769V210.944H230.341V218H232.287ZM247.283 211.336V210.944H245.687C244.679 212.288 244.091 213.072 244.091 213.8H241.571V210.944H240.143V218H241.571V215.144H244.091C244.091 215.872 244.679 216.656 245.687 218H247.283V217.608L244.917 214.472L247.283 211.336ZM254.923 218.168L255.987 217.37C255.483 216.698 255.483 216.698 255.483 215.312V214.136C255.483 212.456 255.483 210.776 252.207 210.776C251.703 210.776 250.611 210.776 249.267 211.112V212.456H249.603L250.947 212.12H252.207C254.055 212.12 254.055 212.12 254.055 213.884H252.207C248.679 213.884 248.679 215.06 248.679 216.152C248.679 216.824 248.679 218.168 251.199 218.168C252.935 218.168 253.873 217.468 254.209 217.216L254.923 218.168ZM250.275 215.984C250.275 214.976 250.275 214.976 252.207 214.976H254.055V216.32L252.039 216.824H251.283C250.275 216.824 250.275 216.824 250.275 215.984ZM168.968 229.008V226.432H174.848V225.088H167.456V235H170.984C174.092 235 175.688 234.93 175.688 232.004C175.688 229.078 174.092 229.008 170.984 229.008H168.968ZM168.968 230.352H171.992C174.064 230.352 174.092 230.352 174.092 232.004C174.092 233.628 174.092 233.656 171.992 233.656H168.968V230.352ZM179.933 233.488C179.933 232.984 179.933 232.984 178.491 229.204V227.944H176.979C176.979 229.414 176.979 229.414 179.219 234.664H180.633L180.129 236.008C179.863 236.68 179.751 236.68 178.953 236.68H177.847V238.024H178.575C179.667 238.024 180.759 237.982 181.389 236.456L183.713 230.198C184.035 229.414 184.035 229.414 184.035 228.224V227.944H182.565V229.204C181.235 233.012 181.249 233.012 181.249 233.488H179.933ZM185.688 227.944V237.856H187.116V234.832C187.788 235 188.46 235.168 189.72 235.168C192.912 235.168 192.912 232.984 192.912 231.808V231.136C192.912 229.792 192.912 227.776 189.888 227.776C188.208 227.776 187.284 228.476 186.948 228.728L186.36 227.944H185.688ZM191.4 231.472C191.4 233.81 191.4 233.824 189.132 233.824C188.628 233.824 187.788 233.824 187.116 233.656V229.624L189.132 229.12H189.37C191.4 229.12 191.4 229.204 191.4 231.472ZM201.369 235V227.944H198.345C196.245 227.944 194.565 227.944 194.565 230.212C194.565 231.444 194.985 231.766 196.161 232.648L194.691 234.608V235H196.287C196.791 234.356 197.337 233.684 197.337 232.648H199.941V235H201.369ZM197.757 231.472C196.175 231.472 196.161 231.472 196.161 230.296C196.161 229.134 196.161 229.12 197.757 229.12H199.941V231.472H197.757ZM210.118 227.944H203.062V229.176H205.848V235H207.332V229.176H210.118V227.944ZM213.761 235C217.415 230.142 217.415 229.89 217.415 229.148H217.779V235H219.207V227.944H217.275C213.621 232.802 213.621 233.054 213.621 233.796H213.243V227.944H211.815V235H213.761ZM228.002 235V227.944H224.978C222.878 227.944 221.198 227.944 221.198 230.212C221.198 231.444 221.618 231.766 222.794 232.648L221.324 234.608V235H222.92C223.424 234.356 223.97 233.684 223.97 232.648H226.574V235H228.002ZM224.39 231.472C222.808 231.472 222.794 231.472 222.794 230.296C222.794 229.134 222.794 229.12 224.39 229.12H226.574V231.472H224.39Z" fill="#363636"/>
<path d="M101.137 370.473H104.077C106.233 370.473 106.261 370.473 106.261 372.573C106.261 374.645 106.261 374.673 104.077 374.673H101.137V370.473ZM99.6249 379.041H101.137V376.017H103.069C106.261 376.017 107.857 376.017 107.857 372.573C107.857 369.129 106.261 369.129 103.069 369.129H99.6249V379.041ZM112.79 377.865C110.858 377.865 110.858 377.865 110.858 376.101H112.79C114.806 376.101 115.142 376.101 115.898 375.933L116.234 375.849V375.177C116.234 373.833 116.234 371.817 113.126 371.817H112.454C109.346 371.817 109.346 373.833 109.346 375.177V375.849C109.346 377.361 109.346 379.209 112.79 379.209C113.378 379.209 114.386 379.209 115.73 378.873V377.529H115.394L114.05 377.865H112.79ZM110.858 375.009C110.858 373.161 110.858 373.161 112.79 373.161C114.722 373.161 114.722 373.161 114.722 375.009H110.858ZM121.416 379.209C121.92 379.209 123.012 379.209 124.356 378.873V377.529H124.02L122.662 377.865H121.92C119.484 377.865 119.484 377.865 119.484 375.513C119.484 373.161 119.484 373.161 121.416 373.161C123.012 373.161 123.012 373.161 123.348 374.505L124.692 374.169C124.692 373.497 124.692 371.817 121.752 371.817H121.08C117.972 371.817 117.972 373.665 117.972 375.177V375.849C117.972 377.361 117.972 379.209 121.416 379.209ZM132.138 371.985H126.594V379.041H128.022V373.217H132.138V379.041H133.566V371.985H132.138ZM138.311 377.529C138.311 377.025 138.311 377.025 136.869 373.245V371.985H135.357C135.357 373.455 135.357 373.455 137.597 378.705H139.011L138.507 380.049C138.241 380.721 138.129 380.721 137.331 380.721H136.225V382.065H136.953C138.045 382.065 139.137 382.023 139.767 380.497L142.091 374.239C142.413 373.455 142.413 373.455 142.413 372.265V371.985H140.943V373.245C139.613 377.053 139.627 377.053 139.627 377.529H138.311ZM148.77 370.809C149.526 370.627 150.268 370.431 150.534 369.381L150.618 369.045L149.274 368.709C149.106 369.213 149.12 369.213 148.434 369.381L146.754 369.801C143.898 370.515 143.898 372.405 143.898 374.589V375.135C143.898 377.487 143.898 379.209 147.342 379.209H148.014C151.374 379.209 151.374 377.529 151.374 376.269V375.513C151.374 374.253 151.374 372.573 148.35 372.573C146.334 372.573 145.662 373.035 145.354 373.413L145.102 373.329C145.522 371.649 145.522 371.621 147.09 371.229L148.77 370.809ZM147.678 373.819C149.862 373.819 149.862 374.127 149.862 375.891C149.862 377.655 149.862 377.963 147.566 377.963C145.494 377.963 145.494 377.655 145.494 375.891C145.494 374.127 145.494 373.819 147.678 373.819ZM158.669 373.231V379.041H160.097V371.985H154.399C154.357 373.441 154.273 374.645 154.021 376.465C153.853 377.683 153.713 377.921 152.509 377.921V379.069C154.777 379.069 155.015 378.803 155.295 376.717C155.505 375.177 155.603 374.099 155.631 373.231H158.669ZM164.456 379.041C168.11 374.183 168.11 373.931 168.11 373.189H168.474V379.041H169.902V371.985H167.97C164.316 376.843 164.316 377.095 164.316 377.837H163.938V371.985H162.51V379.041H164.456ZM179.452 372.377V371.985H177.856C176.848 373.329 176.26 374.113 176.26 374.841H173.74V371.985H172.312V379.041H173.74V376.185H176.26C176.26 376.913 176.848 377.697 177.856 379.041H179.452V378.649L177.086 375.513L179.452 372.377ZM187.091 379.209L188.155 378.411C187.651 377.739 187.651 377.739 187.651 376.353V375.177C187.651 373.497 187.651 371.817 184.375 371.817C183.871 371.817 182.779 371.817 181.435 372.153V373.497H181.771L183.115 373.161H184.375C186.223 373.161 186.223 373.161 186.223 374.925H184.375C180.847 374.925 180.847 376.101 180.847 377.193C180.847 377.865 180.847 379.209 183.367 379.209C185.103 379.209 186.041 378.509 186.377 378.257L187.091 379.209ZM182.443 377.025C182.443 376.017 182.443 376.017 184.375 376.017H186.223V377.361L184.207 377.865H183.451C182.443 377.865 182.443 377.865 182.443 377.025ZM194.289 369.129V379.041H195.801V370.473H196.249C196.249 371.201 196.249 371.201 199.189 379.041H201.065C204.005 371.201 204.005 371.201 204.005 370.473H204.453V379.041H205.965V369.129H203.207C200.309 376.857 200.309 376.857 200.309 377.697H199.945C199.945 376.857 199.945 376.857 197.047 369.129H194.289ZM209.801 375.513C209.801 373.161 209.801 373.091 211.985 373.091C214.169 373.091 214.169 373.161 214.169 375.513C214.169 377.865 214.169 377.935 211.985 377.935C209.801 377.935 209.801 377.865 209.801 375.513ZM208.289 375.849C208.289 377.193 208.289 379.209 211.649 379.209H212.321C215.681 379.209 215.681 377.193 215.681 375.849V375.177C215.681 373.833 215.681 371.817 212.321 371.817H211.649C208.289 371.817 208.289 373.833 208.289 375.177V375.849ZM223.302 371.985V374.827H219.186V371.985H217.758V379.041H219.186V376.059H223.302V379.041H224.73V371.985H223.302ZM232.821 371.985H227.137V379.041H228.565V373.217H232.821V371.985ZM235.545 375.513C235.545 373.161 235.545 373.091 237.729 373.091C239.913 373.091 239.913 373.161 239.913 375.513C239.913 377.865 239.913 377.935 237.729 377.935C235.545 377.935 235.545 377.865 235.545 375.513ZM234.033 375.849C234.033 377.193 234.033 379.209 237.393 379.209H238.065C241.425 379.209 241.425 377.193 241.425 375.849V375.177C241.425 373.833 241.425 371.817 238.065 371.817H237.393C234.033 371.817 234.033 373.833 234.033 375.177V375.849ZM248.808 373.231V379.041H250.236V371.985H244.538C244.496 373.441 244.412 374.645 244.16 376.465C243.992 377.683 243.852 377.921 242.648 377.921V379.069C244.916 379.069 245.154 378.803 245.434 376.717C245.644 375.177 245.742 374.099 245.77 373.231H248.808ZM254.594 379.041C258.248 374.183 258.248 373.931 258.248 373.189H258.612V379.041H260.04V371.985H258.108C254.454 376.843 254.454 377.095 254.454 377.837H254.076V371.985H252.648V379.041H254.594ZM268.835 379.041V371.985H265.811C263.711 371.985 262.031 371.985 262.031 374.253C262.031 375.485 262.451 375.807 263.627 376.689L262.157 378.649V379.041H263.753C264.257 378.397 264.803 377.725 264.803 376.689H267.407V379.041H268.835ZM265.223 375.513C263.641 375.513 263.627 375.513 263.627 374.337C263.627 373.175 263.627 373.161 265.223 373.161H267.407V375.513H265.223Z" fill="#363636"/>
<path d="M113.571 253.819C113.571 251.467 113.571 251.397 115.755 251.397C117.939 251.397 117.939 251.467 117.939 253.819C117.939 256.171 117.939 256.241 115.755 256.241C113.571 256.241 113.571 256.171 113.571 253.819ZM112.059 254.155C112.059 255.499 112.059 257.515 115.419 257.515H116.091C119.451 257.515 119.451 255.499 119.451 254.155V253.483C119.451 252.139 119.451 250.123 116.091 250.123H115.419C112.059 250.123 112.059 252.139 112.059 253.483V254.155ZM122.788 256.171L121.444 255.835H121.108V257.179C122.452 257.515 123.53 257.515 124.034 257.515C127.212 257.515 127.366 256.171 127.366 255.499C127.366 255.163 127.366 254.239 126.022 253.903V253.735C127.366 253.399 127.366 252.475 127.366 252.139C127.366 251.467 127.226 250.123 124.034 250.123C123.53 250.123 122.452 250.123 121.108 250.459V251.803H121.444L122.788 251.467H124.51C125.77 251.467 125.77 251.467 125.77 252.363C125.77 253.231 125.77 253.231 124.51 253.231H122.788V254.407H124.51C125.77 254.407 125.77 254.407 125.77 255.275C125.77 256.171 125.77 256.171 124.51 256.171H122.788ZM130.173 255.331C129.333 255.331 129.333 255.835 129.333 256.171V256.507C129.333 256.843 129.333 257.347 130.173 257.347H130.845C131.685 257.347 131.685 256.843 131.685 256.507V256.171C131.685 255.835 131.685 255.331 130.845 255.331H130.173ZM139.999 251.355V248.779H145.879V247.435H138.487V257.347H142.015C145.123 257.347 146.719 257.277 146.719 254.351C146.719 251.425 145.123 251.355 142.015 251.355H139.999ZM139.999 252.699H143.023C145.095 252.699 145.123 252.699 145.123 254.351C145.123 255.975 145.123 256.003 143.023 256.003H139.999V252.699ZM154.45 257.515L155.514 256.717C155.01 256.045 155.01 256.045 155.01 254.659V253.483C155.01 251.803 155.01 250.123 151.734 250.123C151.23 250.123 150.138 250.123 148.794 250.459V251.803H149.13L150.474 251.467H151.734C153.582 251.467 153.582 251.467 153.582 253.231H151.734C148.206 253.231 148.206 254.407 148.206 255.499C148.206 256.171 148.206 257.515 150.726 257.515C152.462 257.515 153.4 256.815 153.736 256.563L154.45 257.515ZM149.802 255.331C149.802 254.323 149.802 254.323 151.734 254.323H153.582V255.667L151.566 256.171H150.81C149.802 256.171 149.802 256.171 149.802 255.331ZM161.493 249.227C162.445 249.227 163.117 249.227 163.999 248.191L162.991 247.435C162.543 248.051 162.529 248.051 161.759 248.051H160.443C159.687 248.051 159.673 248.051 159.211 247.435L158.203 248.191C159.085 249.227 159.757 249.227 160.709 249.227H161.493ZM159.281 257.347C162.935 252.489 162.935 252.237 162.935 251.495H163.299V257.347H164.727V250.291H162.795C159.141 255.149 159.141 255.401 159.141 256.143H158.763V250.291H157.335V257.347H159.281ZM174.278 250.683V250.291H172.682C171.674 251.635 171.086 252.419 171.086 253.147H168.566V250.291H167.138V257.347H168.566V254.491H171.086C171.086 255.219 171.674 256.003 172.682 257.347H174.278V256.955L171.912 253.819L174.278 250.683ZM181.917 257.515L182.981 256.717C182.477 256.045 182.477 256.045 182.477 254.659V253.483C182.477 251.803 182.477 250.123 179.201 250.123C178.697 250.123 177.605 250.123 176.261 250.459V251.803H176.597L177.941 251.467H179.201C181.049 251.467 181.049 251.467 181.049 253.231H179.201C175.673 253.231 175.673 254.407 175.673 255.499C175.673 256.171 175.673 257.515 178.193 257.515C179.929 257.515 180.867 256.815 181.203 256.563L181.917 257.515ZM177.269 255.331C177.269 254.323 177.269 254.323 179.201 254.323H181.049V255.667L179.033 256.171H178.277C177.269 256.171 177.269 256.171 177.269 255.331ZM190.108 251.537V257.347H191.536V250.291H185.838C185.796 251.747 185.712 252.951 185.46 254.771C185.292 255.989 185.152 256.227 183.948 256.227V257.375C186.216 257.375 186.454 257.109 186.734 255.023C186.944 253.483 187.042 252.405 187.07 251.537H190.108Z" fill="#4560EA"/>
<path d="M87.9009 287.921C88.7357 287.67 90.8059 287.169 92.4087 287.169C94.4122 287.169 96.1652 287.169 96.9165 287.169C97.5176 287.169 98.6696 286.668 99.1705 286.418" stroke="black"/>
<path d="M1 192.254L21.5357 210.285L27.0452 213.291C30.5513 214.125 38.2647 215.995 41.0696 216.797C44.5757 217.799 56.5966 224.31 59.6018 228.066C62.607 231.823 62.1061 231.322 63.6087 235.329C65.1114 239.336 66.1131 240.588 67.6157 243.844C69.1183 247.099 77.6331 254.362 80.3879 256.866C83.1427 259.371 82.8922 260.873 82.8922 262.125C82.8922 263.378 84.1444 267.134 85.1461 269.388C85.9475 271.191 91.8244 278.654 94.6627 282.16C94.4122 282.661 93.8112 283.763 93.4105 284.164C92.9096 284.665 90.1548 286.919 89.1531 287.169C88.1514 287.419 87.4001 288.171 87.4001 289.172C87.4001 290.174 90.6557 291.426 92.4088 292.428C94.1618 293.43 98.4192 294.432 99.6714 294.432C100.673 294.432 101.758 293.096 102.176 292.428C103.094 292.428 105.181 292.428 106.183 292.428C107.435 292.428 110.19 291.426 110.691 290.675C111.191 289.924 112.193 289.673 112.944 289.673C113.696 289.673 118.454 288.672 120.958 288.171C123.463 287.67 126.969 284.414 128.221 284.665C129.223 284.865 130.976 289.256 131.727 291.426C133.397 292.595 137.287 295.083 139.491 295.684C142.245 296.435 142.997 297.186 146.252 297.186C149.508 297.186 153.264 295.684 155.018 295.684C156.771 295.684 156.019 295.684 159.776 295.684C163.532 295.684 161.278 296.936 167.539 295.684C173.8 294.432 179.059 289.172 181.313 289.172C183.116 289.172 191.581 285.833 195.588 284.164C198.677 285.499 205.555 288.171 208.36 288.171C211.866 288.171 217.376 288.672 220.631 289.673C223.887 290.675 233.654 292.428 239.164 292.428C244.673 292.428 247.678 290.425 250.934 292.428C253.539 294.031 260.033 296.268 262.955 297.186L270.969 299.691H284.492" stroke="black"/>
<path d="M131.978 291.677C130.976 295.1 129.273 302.396 130.475 304.199C131.978 306.453 134.983 307.454 134.231 310.209C133.48 312.964 130.475 315.719 130.475 317.221C130.475 318.724 128.972 319.726 130.475 322.23C131.978 324.734 131.978 328.241 131.978 329.994C131.978 331.396 130.976 342.265 130.475 347.524" stroke="black"/>
<path d="M87.9009 287.921C88.7357 287.67 90.8059 287.169 92.4087 287.169C94.4122 287.169 96.1652 287.169 96.9165 287.169C97.5176 287.169 98.6696 286.668 99.1705 286.418" stroke="white" stroke-dasharray="3 3"/>
<path d="M1 192.254L21.5357 210.285L27.0452 213.291C30.5513 214.125 38.2647 215.995 41.0696 216.797C44.5757 217.799 56.5966 224.31 59.6018 228.066C62.607 231.823 62.1061 231.322 63.6087 235.329C65.1114 239.336 66.1131 240.588 67.6157 243.844C69.1183 247.099 77.6331 254.362 80.3879 256.866C83.1427 259.371 82.8922 260.873 82.8922 262.125C82.8922 263.378 84.1444 267.134 85.1461 269.388C85.9475 271.191 91.8244 278.654 94.6627 282.16C94.4122 282.661 93.8112 283.763 93.4105 284.164C92.9096 284.665 90.1548 286.919 89.1531 287.169C88.1514 287.419 87.4001 288.171 87.4001 289.172C87.4001 290.174 90.6557 291.426 92.4088 292.428C94.1618 293.43 98.4192 294.432 99.6714 294.432C100.673 294.432 101.758 293.096 102.176 292.428C103.094 292.428 105.181 292.428 106.183 292.428C107.435 292.428 110.19 291.426 110.691 290.675C111.191 289.924 112.193 289.673 112.944 289.673C113.696 289.673 118.454 288.672 120.958 288.171C123.463 287.67 126.969 284.414 128.221 284.665C129.223 284.865 130.976 289.256 131.727 291.426C133.397 292.595 137.287 295.083 139.491 295.684C142.245 296.435 142.997 297.186 146.252 297.186C149.508 297.186 153.264 295.684 155.018 295.684C156.771 295.684 156.019 295.684 159.776 295.684C163.532 295.684 161.278 296.936 167.539 295.684C173.8 294.432 179.059 289.172 181.313 289.172C183.116 289.172 191.581 285.833 195.588 284.164C198.677 285.499 205.555 288.171 208.36 288.171C211.866 288.171 217.376 288.672 220.631 289.673C223.887 290.675 233.654 292.428 239.164 292.428C244.673 292.428 247.678 290.425 250.934 292.428C253.539 294.031 260.033 296.268 262.955 297.186L270.969 299.691H284.492" stroke="white" stroke-dasharray="3 3"/>
<path d="M131.978 291.677C130.976 295.1 129.273 302.396 130.475 304.199C131.978 306.453 134.983 307.454 134.231 310.209C133.48 312.964 130.475 315.719 130.475 317.221C130.475 318.724 128.972 319.726 130.475 322.23C131.978 324.734 131.978 328.241 131.978 329.994C131.978 331.396 130.976 342.265 130.475 347.524" stroke="white" stroke-dasharray="3 3"/>
<circle cx="195.338" cy="284.915" r="1.50261" fill="#E21A1A"/>
<circle cx="94.6625" cy="281.91" r="1.50261" fill="#E21A1A"/>
<circle cx="130.726" cy="348.025" r="1.50261" fill="#E21A1A"/>
<circle cx="131.727" cy="291.427" r="1.50261" fill="#E21A1A"/>
<rect opacity="0.1" x="186" width="100" height="100" fill="#E21A1A"/>
<path d="M5.194 47.732V44.492H7.678C8.92 44.492 8.92 44.6 8.92 46.112C8.92 47.642 8.92 47.732 7.678 47.732H5.194ZM5.194 42.224V39.524H10.648V37.256H2.602V50H6.598C8.92 50 11.674 49.91 11.674 46.112C11.674 42.314 8.92 42.224 6.598 42.224H5.194ZM20.0017 50.27L21.7297 48.974C21.1357 48.182 21.1357 48.182 21.1357 46.418V44.708C21.1357 43.196 21.0817 40.712 17.1937 40.712C16.7617 40.712 15.7897 40.712 14.0617 41.144V43.088H14.5477L16.2757 42.656H16.9237C18.7597 42.656 18.7597 42.656 18.7597 44.654H17.4097C13.2517 44.654 13.2517 46.49 13.2517 47.624C13.2517 48.326 13.2517 50.216 15.6817 50.216C17.2117 50.216 18.2557 49.442 18.9757 48.902L20.0017 50.27ZM15.7357 47.354C15.7357 46.166 15.7357 46.166 17.4097 46.166H18.7597V47.786L16.8157 48.272C15.7357 48.272 15.7357 48.272 15.7357 47.354ZM27.7214 38.102C26.6774 38.102 26.6774 37.922 26.1374 37.202L24.7694 38.228C25.9754 39.848 26.8574 39.848 28.1534 39.848H28.3694C29.6654 39.848 30.5294 39.848 31.7534 38.246C31.2854 37.904 30.8354 37.544 30.3854 37.202C29.8454 37.922 29.8454 38.102 28.8014 38.102H27.7214ZM27.0014 50C29.9714 44.168 29.9714 44.168 29.9714 43.232H30.4754V50H32.8334V40.928H29.4134C26.5334 46.49 26.5334 46.49 26.5334 47.714H26.0474V40.928H23.6894V50H27.0014ZM37.8779 44.438V40.928H35.5019V50H37.8779V46.49H39.4979C39.4979 47.624 40.1459 48.488 41.2799 50H43.8179V49.316L40.9199 45.464L43.7819 41.612V40.928H41.2439C40.1099 42.44 39.4979 43.304 39.4979 44.438H37.8779ZM51.8181 50.27L53.5461 48.974C52.9521 48.182 52.9521 48.182 52.9521 46.418V44.708C52.9521 43.196 52.8981 40.712 49.0101 40.712C48.5781 40.712 47.6061 40.712 45.8781 41.144V43.088H46.3641L48.0921 42.656H48.7401C50.5761 42.656 50.5761 42.656 50.5761 44.654H49.2261C45.0681 44.654 45.0681 46.49 45.0681 47.624C45.0681 48.326 45.0681 50.216 47.4981 50.216C49.0281 50.216 50.0721 49.442 50.7921 48.902L51.8181 50.27ZM47.5521 47.354C47.5521 46.166 47.5521 46.166 49.2261 46.166H50.5761V47.786L48.6321 48.272C47.5521 48.272 47.5521 48.272 47.5521 47.354ZM58.7818 42.926H61.1758V50H63.5518V40.928H56.7658C56.7118 42.746 56.6218 44.222 56.2978 46.472C56.0638 47.984 55.8838 48.29 54.4078 48.29V50.036C57.6838 50.036 58.0078 49.694 58.3678 47.012C58.6018 45.248 58.7278 43.97 58.7818 42.926ZM69.7749 50C71.8269 50 73.8789 50 73.8789 46.868C73.8789 45.842 73.8789 43.628 70.7469 43.628C69.8829 43.628 69.0189 43.844 68.5869 43.952V40.928H66.2109V50H69.7749ZM69.9369 45.464C71.3949 45.464 71.3949 45.464 71.3949 46.868C71.3949 48.272 71.3949 48.272 69.9369 48.272H68.5869V45.464H69.9369ZM79.517 50.216C80.111 50.216 81.137 50.216 82.865 49.784V47.84H82.379L80.633 48.272H80.219C77.843 48.272 77.843 48.272 77.843 45.464C77.843 42.656 77.843 42.656 79.409 42.656C80.633 42.656 80.633 42.656 81.065 44.384L83.189 43.862C83.189 42.98 83.189 40.712 79.517 40.712H79.247C75.359 40.712 75.359 43.574 75.359 45.032V45.896C75.359 47.462 75.359 50.216 79.517 50.216ZM87.5185 44.438V40.928H85.1425V50H87.5185V46.49H89.1385C89.1385 47.624 89.7865 48.488 90.9205 50H93.4585V49.316L90.5605 45.464L93.4225 41.612V40.928H90.8845C89.7505 42.44 89.1385 43.304 89.1385 44.438H87.5185ZM101.459 50.27L103.187 48.974C102.593 48.182 102.593 48.182 102.593 46.418V44.708C102.593 43.196 102.539 40.712 98.6507 40.712C98.2187 40.712 97.2467 40.712 95.5187 41.144V43.088H96.0047L97.7327 42.656H98.3807C100.217 42.656 100.217 42.656 100.217 44.654H98.8667C94.7087 44.654 94.7087 46.49 94.7087 47.624C94.7087 48.326 94.7087 50.216 97.1387 50.216C98.6687 50.216 99.7127 49.442 100.433 48.902L101.459 50.27ZM97.1927 47.354C97.1927 46.166 97.1927 46.166 98.8667 46.166H100.217V47.786L98.2727 48.272C97.1927 48.272 97.1927 48.272 97.1927 47.354ZM112.544 40.928H109.628C107.198 40.928 104.606 40.928 104.606 43.844C104.606 45.41 105.128 45.806 106.604 46.904L104.786 49.316V50H107.324C107.918 49.226 108.494 48.506 108.494 47.192H110.168V50H112.544V40.928ZM110.168 45.464H108.98C107.27 45.464 107.198 45.464 107.198 44.06C107.198 42.71 107.198 42.656 108.98 42.656H110.168V45.464ZM120.598 40.928V50H122.974V42.908H126.322V50H128.698V40.928H120.598ZM131.355 40.928V53.672H133.731V49.82C134.325 49.964 135.351 50.216 136.215 50.216C139.725 50.216 139.725 47.03 139.725 45.788V45.032C139.725 43.736 139.725 40.712 136.647 40.712C135.171 40.712 134.163 41.45 133.371 42.044L132.543 40.928H131.355ZM137.241 45.464C137.241 48.218 137.241 48.218 135.405 48.218C135.135 48.218 134.595 48.218 133.731 48.002V43.34L135.675 42.872C137.241 42.872 137.241 42.872 137.241 45.464ZM145.267 50C148.237 44.168 148.237 44.168 148.237 43.232H148.741V50H151.099V40.928H147.679C144.799 46.49 144.799 46.49 144.799 47.714H144.313V40.928H141.955V50H145.267ZM153.768 40.928V53.672H156.144V49.82C156.738 49.964 157.764 50.216 158.628 50.216C162.138 50.216 162.138 47.03 162.138 45.788V45.032C162.138 43.736 162.138 40.712 159.06 40.712C157.584 40.712 156.576 41.45 155.784 42.044L154.956 40.928H153.768ZM159.654 45.464C159.654 48.218 159.654 48.218 157.818 48.218C157.548 48.218 157.008 48.218 156.144 48.002V43.34L158.088 42.872C159.654 42.872 159.654 42.872 159.654 45.464ZM168.201 42.764C169.983 42.764 169.983 42.764 169.983 45.464C169.983 48.164 169.983 48.164 168.201 48.164C166.419 48.164 166.419 48.164 166.419 45.464C166.419 42.764 166.419 42.764 168.201 42.764ZM168.093 40.712C163.935 40.712 163.935 43.628 163.935 45.032V45.896C163.935 47.3 163.935 50.216 168.093 50.216H168.309C172.467 50.216 172.467 47.3 172.467 45.896V45.032C172.467 43.628 172.467 40.712 168.309 40.712H168.093ZM176.089 40.928V41.954C176.089 43.97 175.873 46.13 174.865 48.056H173.713V52.592H175.999V50H182.209V52.592H184.495V48.056H182.983V40.928H176.089ZM180.607 42.908V48.056H177.385C178.123 46.31 178.339 44.474 178.375 42.98V42.908H180.607ZM191.888 40.928V44.438H188.54V40.928H186.164V50H188.54V46.418H191.888V50H194.264V40.928H191.888ZM203.078 50.27L204.806 48.974C204.212 48.182 204.212 48.182 204.212 46.418V44.708C204.212 43.196 204.158 40.712 200.27 40.712C199.838 40.712 198.866 40.712 197.138 41.144V43.088H197.624L199.352 42.656H200C201.836 42.656 201.836 42.656 201.836 44.654H200.486C196.328 44.654 196.328 46.49 196.328 47.624C196.328 48.326 196.328 50.216 198.758 50.216C200.288 50.216 201.332 49.442 202.052 48.902L203.078 50.27ZM198.812 47.354C198.812 46.166 198.812 46.166 200.486 46.166H201.836V47.786L199.892 48.272C198.812 48.272 198.812 48.272 198.812 47.354ZM214.164 40.928H211.248C208.818 40.928 206.226 40.928 206.226 43.844C206.226 45.41 206.748 45.806 208.224 46.904L206.406 49.316V50H208.944C209.538 49.226 210.114 48.506 210.114 47.192H211.788V50H214.164V40.928ZM211.788 45.464H210.6C208.89 45.464 208.818 45.464 208.818 44.06C208.818 42.71 208.818 42.656 210.6 42.656H211.788V45.464ZM1.378 65.928V67.908H4.24V75H6.616V67.908H9.478V65.928H1.378ZM14.773 71.274C16.717 71.274 17.257 71.292 18.175 71.058L18.823 70.896V70.014C18.823 68.574 18.823 65.712 14.935 65.712H14.665C10.777 65.712 10.777 68.574 10.777 70.032V70.896C10.777 72.462 10.777 75.216 14.935 75.216C15.529 75.216 16.555 75.216 18.283 74.784V72.84H17.797L16.069 73.272H14.935C13.261 73.272 13.261 73.272 13.261 71.274H14.773ZM14.791 67.602C16.339 67.602 16.339 67.602 16.339 69.762H13.261C13.261 67.602 13.261 67.602 14.791 67.602ZM21 65.928V78.672H23.376V74.82C23.97 74.964 24.996 75.216 25.86 75.216C29.37 75.216 29.37 72.03 29.37 70.788V70.032C29.37 68.736 29.37 65.712 26.292 65.712C24.816 65.712 23.808 66.45 23.016 67.044L22.188 65.928H21ZM26.886 70.464C26.886 73.218 26.886 73.218 25.05 73.218C24.78 73.218 24.24 73.218 23.376 73.002V68.34L25.32 67.872C26.886 67.872 26.886 67.872 26.886 70.464ZM31.5996 65.928V78.672H33.9756V74.82C34.5696 74.964 35.5956 75.216 36.4596 75.216C39.9696 75.216 39.9696 72.03 39.9696 70.788V70.032C39.9696 68.736 39.9696 65.712 36.8916 65.712C35.4156 65.712 34.4076 66.45 33.6156 67.044L32.7876 65.928H31.5996ZM37.4856 70.464C37.4856 73.218 37.4856 73.218 35.6496 73.218C35.3796 73.218 34.8396 73.218 33.9756 73.002V68.34L35.9196 67.872C37.4856 67.872 37.4856 67.872 37.4856 70.464ZM45.5112 75C48.4812 69.168 48.4812 69.168 48.4812 68.232H48.9852V75H51.3432V65.928H47.9232C45.0432 71.49 45.0432 71.49 45.0432 72.714H44.5572V65.928H42.1992V75H45.5112ZM53.0577 65.928V67.908H55.9197V75H58.2957V67.908H61.1577V65.928H53.0577ZM66.7226 67.764C68.5046 67.764 68.5046 67.764 68.5046 70.464C68.5046 73.164 68.5046 73.164 66.7226 73.164C64.9406 73.164 64.9406 73.164 64.9406 70.464C64.9406 67.764 64.9406 67.764 66.7226 67.764ZM66.6146 65.712C62.4566 65.712 62.4566 68.628 62.4566 70.032V70.896C62.4566 72.3 62.4566 75.216 66.6146 75.216H66.8306C70.9886 75.216 70.9886 72.3 70.9886 70.896V70.032C70.9886 68.628 70.9886 65.712 66.8306 65.712H66.6146ZM73.2246 65.928V78.672H75.6006V74.82C76.1946 74.964 77.2206 75.216 78.0846 75.216C81.5946 75.216 81.5946 72.03 81.5946 70.788V70.032C81.5946 68.736 81.5946 65.712 78.5166 65.712C77.0406 65.712 76.0326 66.45 75.2406 67.044L74.4126 65.928H73.2246ZM79.1106 70.464C79.1106 73.218 79.1106 73.218 77.2746 73.218C77.0046 73.218 76.4646 73.218 75.6006 73.002V68.34L77.5446 67.872C79.1106 67.872 79.1106 67.872 79.1106 70.464ZM87.1362 75C90.1062 69.168 90.1062 69.168 90.1062 68.232H90.6102V75H92.9682V65.928H89.5482C86.6682 71.49 86.6682 71.49 86.6682 72.714H86.1822V65.928H83.8242V75H87.1362ZM103.035 65.928H100.119C97.6887 65.928 95.0967 65.928 95.0967 68.844C95.0967 70.41 95.6187 70.806 97.0947 71.904L95.2767 74.316V75H97.8147C98.4087 74.226 98.9847 73.506 98.9847 72.192H100.659V75H103.035V65.928ZM100.659 70.464H99.4707C97.7607 70.464 97.6887 70.464 97.6887 69.06C97.6887 67.71 97.6887 67.656 99.4707 67.656H100.659V70.464Z" fill="#363636"/>
</svg>
