<svg width="427" height="184" viewBox="0 0 427 184" fill="none" xmlns="http://www.w3.org/2000/svg">
<path d="M409.178 88.9434C409.178 88.9434 411.189 90.8016 411.172 93.0504C411.155 95.2993 408.663 97.641 408.335 99.4047C408.007 101.168 407.98 106.702 407.98 106.702" stroke="#696872" stroke-width="2" stroke-miterlimit="10"/>
<path d="M232.98 113.485C232.98 113.485 234.935 112.411 236.735 112.304C238.535 112.197 240.317 111.92 241.215 111.607C242.113 111.294 243.077 110.629 243.993 110.963C244.909 111.297 246.801 112.044 247.922 111.405C249.044 110.766 250.331 108.77 251.322 108.361C252.314 107.952 255.169 108.034 256.505 107.459C257.841 106.883 260.405 106.175 261.848 105.156C263.291 104.137 264.176 103.696 266.096 103.749C268.017 103.802 268.376 103.288 269.537 104.46C270.698 105.632 271.03 107.757 273.541 108.005C276.053 108.254 278.133 107.383 279.437 106.508C280.982 105.478 282.611 105.216 283.719 104.449C284.827 103.682 286.539 103.239 288.33 103.047C290.121 102.854 292.33 102.703 293.68 102.256C295.029 101.808 296.11 100.785 297.534 100.546C298.957 100.306 300.823 99.8467 301.647 99.326C302.471 98.8054 306.561 97.8476 308.618 96.7624C310.676 95.6772 314.845 91.1243 316.107 90.3407C317.368 89.557 320.309 88.5065 321.589 88.3691C322.868 88.2317 323.763 86.9257 325.479 87.0006C327.195 87.0756 329.628 87.0736 331.664 87.7191C333.7 88.3646 337.303 89.6197 339.172 90.1536C341.041 90.6874 341.934 90.8076 343.79 90.7379C345.646 90.6682 347.755 89.1021 349.034 88.9647C350.313 88.8273 353.338 88.0703 355.529 87.7486C357.72 87.4268 359.642 86.529 361.223 86.7913C362.804 87.0536 366.15 89.287 367.768 89.891C369.385 90.4951 371.999 90.7329 373.626 91.4224C375.253 92.1119 380.216 94.9493 381.363 95.9928C382.511 97.0363 386.447 98.9901 389.205 99.126C391.963 99.2619 392.424 99.2124 393.788 98.4178C395.151 97.6231 396.412 97.7902 398.235 97.4215C400.059 97.0528 400.828 96.4949 399.952 94.1259C399.076 91.7569 398.549 89.7394 400.937 88.8348C403.324 87.9302 405.869 87.5273 407.714 88.3229C409.559 89.1186 411.411 89.0062 412.582 89.3125C413.754 89.6187 415.479 89.7791 416.23 88.575C416.98 87.3709 418.162 87.2872 419.799 87.1113" stroke="#696872" stroke-width="2" stroke-miterlimit="10"/>
<path d="M0.306289 47.3859C0.306289 47.3859 4.38548 47.2934 4.972 46.9712C5.55852 46.6489 6.51241 46.3736 7.33573 46.3284C8.15905 46.2832 9.74604 45.6374 10.3417 45.4006C10.9374 45.1638 11.7149 44.6914 12.9895 44.5112C14.2642 44.3311 16.4836 43.7903 17.8469 43.471C19.2147 43.1945 20.0899 42.6684 22.3926 42.421C24.6953 42.1737 27.618 40.9524 29.5688 42.7306C31.4685 44.5142 33.6693 47.173 34.7738 48.7829C35.8739 50.35 36.9089 51.7944 37.769 52.0909C38.629 52.3875 41.8768 54.6745 42.8896 55.43C43.9024 56.1854 46.4331 59.0248 47.9393 59.5544C49.4501 60.1268 52.328 60.898 53.1788 61.1091C54.0297 61.3201 55.6153 61.6252 56.535 62.477C57.4546 63.3289 59.3543 65.1126 59.9165 65.5275C60.4787 65.9425 61.7138 67.3222 62.131 68.3145C62.5481 69.3068 63.3732 71.2059 64.1492 71.6843C64.9253 72.1627 67.4687 72.7105 69.1008 72.9673C70.7376 73.2669 73.2817 73.3393 73.414 75.0535C73.5464 76.7678 74.0669 80.1688 74.164 80.5905C74.261 81.0122 74.6468 81.23 75.6931 81.3337C76.6883 81.4428 78.6825 82.1793 79.4388 83.4376C80.1997 84.7387 81.6279 84.5421 82.85 85.3182C84.0767 86.1371 88.6425 87.2024 90.4741 87.8699C92.3011 88.4947 95.6762 89.5581 97.5682 90.3056C99.4601 91.053 102.324 92.1715 103.267 92.7615C104.261 93.3461 105.344 93.7915 105.533 95.0676C105.773 96.3382 106.024 96.268 107.321 96.7768C108.618 97.2857 113.69 99.204 114.591 99.885C115.544 100.561 118.953 103.392 120.202 104.9C121.451 106.408 123.77 108.233 124.591 109.138C125.362 110.05 127.108 112.325 128.563 112.86C130.069 113.39 132.356 113.965 134.282 114.061C136.207 114.157 138.789 114.095 139.91 113.932C141.031 113.768 143.376 113.43 144.431 113.619C145.487 113.808 147.449 114.245 148.853 114.786C150.308 115.321 150.903 115.56 151.68 115.563C152.507 115.56 153.55 115.146 154.345 115.32C155.14 115.494 158.845 116.738 159.612 117.131C160.379 117.524 163.526 118.395 164.535 118.633C164.535 118.633 167.022 119.619 168.307 119.049C169.591 118.479 172.357 116.756 173.507 115.898C174.606 115.045 176.903 115.23 177.899 114.864C178.895 114.498 180.008 113.773 181.375 113.497C182.743 113.22 187.004 112.892 188.911 112.817C190.818 112.742 193.469 113.321 194.799 113.179C196.181 113.03 196.908 112.088 198.289 111.939C199.671 111.791 202.614 112.21 204.069 112.745C205.529 113.322 206.268 113.934 207.668 113.957C209.063 113.937 210.086 113.827 211.128 113.888C212.17 113.949 213.657 114.783 215.499 114.585C217.341 114.387 217.425 114.681 219.067 114.072C220.71 113.464 221.986 112.333 224.405 112.203C226.824 112.072 228.219 112.528 230.05 113.195C231.831 113.868 233.166 113.292 233.891 113.776C234.616 114.26 235.054 113.522 235.763 115.304C236.472 117.086 237.558 119 238.98 119.712C240.453 120.417 241.644 120.419 243.351 120.409C245.053 120.356 249.223 122.068 250.728 123.073C252.234 124.078 255.806 126.979 257.312 127.984C258.817 128.989 258.365 129.599 259.322 130.793C260.329 131.981 262.761 132.454 262.369 133.62C261.981 134.828 258.521 137.792 261.478 138.339C264.435 138.886 267.91 138.945 270.764 136.607C273.619 134.27 275.608 132.068 276.971 131.749C278.339 131.472 279.516 131.346 281.143 132.035C282.77 132.725 283.718 133.358 284.787 133.675C285.856 133.992 284.863 135.827 286.832 134.881C288.801 133.935 289.115 132.043 291.506 131.657C293.898 131.271 294.097 131.681 295.414 130.935C296.736 130.231 298.422 128.581 299.777 128.176C301.131 127.771 303 127.83 303.657 127.198C304.263 126.571 304.391 124.396 305.261 124.303C306.131 124.209 307.475 124.195 308.981 125.2C310.486 126.205 311.464 125.668 312.549 124.687C313.634 123.706 317.696 122.967 318.627 122.003C319.559 121.039 320.782 121.34 320.897 119.037C321.012 116.734 320.376 115.636 320.764 114.428C321.152 113.219 321.416 114.228 322.841 113.038C324.27 111.891 325.245 109.885 326.336 108.471C327.375 107.063 327.781 106.026 328.818 106.044C329.856 106.062 331.948 106.269 332.726 105.322C333.505 104.374 334.53 102.838 335.643 102.113C336.76 101.432 338.527 101.501 339.989 100.653C341.446 99.7615 343.326 99.43 344.457 98.8764C345.588 98.3228 346.816 98.1909 348.718 98.5484C350.671 98.9004 353.867 98.2978 355.058 98.2996C356.248 98.3013 357.29 98.3623 358.419 99.2349C359.548 100.107 359.658 101.133 362.155 101.729C364.652 102.325 367.595 102.743 369.427 103.411C371.207 104.084 372.74 105.345 373.748 106.533C374.755 107.721 376.657 108.079 378.768 108.457C380.879 108.835 384.101 109.915 385.337 110.344C386.574 110.773 387.428 111.978 389.782 111.725C392.187 111.467 394.913 111.304 396.342 110.156C397.772 109.009 398.373 108.339 400.438 108.29C402.503 108.241 404.95 108.367 406.081 107.814C407.212 107.26 409.823 105.554 411.014 105.556C412.205 105.557 413.556 103.684 414.268 106.934C414.979 110.185 414.818 112.061 415.002 113.769C415.185 115.478 417.005 121.332 417.547 123.003C418.088 124.673 418.733 129.227 418.54 130.804C418.351 132.423 418.455 134.831 418.455 134.831C418.455 134.831 420.258 138.613 420.401 139.937L420.396 149.594L420.395 152.594" stroke="#E21A1A" stroke-width="2" stroke-miterlimit="10"/>
</svg>
