<svg width="1028" height="423" viewBox="0 0 1028 423" fill="none" xmlns="http://www.w3.org/2000/svg">
<path d="M0.373535 10.1232C0.373535 10.1232 10.5964 11.1584 12.1492 10.382C13.702 9.60555 16.1607 9.08794 18.2311 9.21735C20.3016 9.34675 24.4424 7.92333 25.9953 7.40572C27.5481 6.88811 29.6186 5.72347 32.8536 5.59407C36.0887 5.46466 41.7824 4.55885 45.2763 4.04124C48.7702 3.65303 51.0994 2.359 56.9225 2.359C62.7456 2.359 70.3804 -0.35846 74.7801 5.59407C79.0504 11.5466 83.8383 20.2166 86.1676 25.3927C88.4968 30.4394 90.6966 35.0979 92.7671 36.2625C94.8375 37.4271 102.343 45.3207 104.672 47.9088C107.001 50.4968 112.566 59.8138 116.189 61.8843C119.812 64.0841 126.8 67.3192 128.87 68.225C130.941 69.1308 134.823 70.5543 136.893 73.4011C138.964 76.248 143.234 82.2005 144.528 83.6239C145.822 85.0474 148.54 89.5764 149.316 92.6821C150.093 95.7878 151.645 101.74 153.457 103.423C155.269 105.105 161.48 107.563 165.491 108.857C169.503 110.281 175.844 111.316 175.714 116.492C175.585 121.668 175.973 132.021 176.102 133.315C176.232 134.609 177.138 135.385 179.726 136.032C182.184 136.679 186.972 139.526 188.525 143.537C190.078 147.678 193.701 147.549 196.548 150.266C199.395 153.113 210.524 157.772 214.923 160.36C219.323 162.818 227.475 167.089 232.004 169.936C236.534 172.782 243.392 177.053 245.592 179.123C247.921 181.194 250.509 182.876 250.638 186.758C250.897 190.64 251.544 190.511 254.65 192.452C257.756 194.393 269.919 201.769 271.99 204.098C274.19 206.427 281.954 216.003 284.671 220.92C287.389 225.838 292.694 232.049 294.506 235.025C296.188 238.001 299.941 245.377 303.435 247.448C307.058 249.518 312.622 251.977 317.41 252.883C322.198 253.789 328.668 254.436 331.515 254.306C334.362 254.177 340.315 253.918 342.903 254.824C345.491 255.73 350.279 257.671 353.643 259.741C357.137 261.812 358.56 262.717 360.501 262.976C362.572 263.235 365.289 262.329 367.23 263.106C369.171 263.882 378.1 268.799 379.912 270.223C381.723 271.646 389.358 275.269 391.817 276.305C391.817 276.305 397.769 280.057 401.134 278.763C404.498 277.469 411.874 273.199 414.98 270.999C417.956 268.799 423.65 270.093 426.238 269.317C428.826 268.54 431.802 266.729 435.296 266.341C438.79 265.952 449.53 266.341 454.318 266.729C459.106 267.117 465.576 269.705 468.941 269.705C472.435 269.705 474.505 267.117 477.999 267.117C481.493 267.117 488.739 269.317 492.233 271.387C495.727 273.587 497.409 275.658 500.903 276.175C504.397 276.563 506.985 276.563 509.573 277.081C512.161 277.599 515.655 280.575 520.314 280.575C524.972 280.575 525.102 281.481 529.372 280.187C533.642 278.893 537.136 275.916 543.218 276.305C549.3 276.693 552.664 278.504 557.064 281.093C561.334 283.681 564.828 282.387 566.51 284.069C568.193 285.751 569.487 283.681 570.781 289.245C572.075 294.809 574.275 300.891 577.639 303.479C581.133 306.067 584.109 306.455 588.38 306.973C592.65 307.361 602.614 313.831 606.108 317.325C609.602 320.819 617.754 330.654 621.248 334.148C624.742 337.642 623.448 339.324 625.518 343.206C627.718 347.088 633.671 349.288 632.377 352.652C631.082 356.146 621.636 363.91 628.883 366.498C636.129 369.086 644.799 370.38 652.563 364.298C660.327 358.217 665.892 352.264 669.386 351.746C672.88 351.358 675.856 351.358 679.738 353.946C683.62 356.534 685.82 358.734 688.408 360.028C690.996 361.322 688.02 366.498 693.196 364.298C698.372 362.099 699.666 356.534 705.748 356.146C711.83 355.758 712.218 357.052 715.712 355.24C719.206 353.558 723.864 349.158 727.358 348.382C730.852 347.605 735.51 348.382 737.322 346.7C739.004 345.017 739.91 338.547 742.11 338.547C744.31 338.547 747.674 338.936 751.168 342.429C754.662 345.923 757.25 344.629 760.226 342.041C763.203 339.453 773.555 338.547 776.143 335.959C778.731 333.371 781.707 334.665 782.613 327.807C783.519 320.949 782.225 317.455 783.519 313.961C784.813 310.467 785.201 313.573 789.083 310.467C792.965 307.491 795.942 301.797 799.047 297.915C802.023 294.033 803.317 291.057 805.906 291.445C808.494 291.833 813.67 293.127 815.87 290.539C818.069 287.951 821.046 283.681 824.022 281.869C826.998 280.187 831.398 280.963 835.28 278.893C839.162 276.693 843.95 276.305 846.926 275.011C849.902 273.717 853.008 273.717 857.667 275.399C862.455 277.081 870.607 276.305 873.583 276.693C876.559 277.081 879.147 277.599 881.736 280.575C884.324 283.551 884.324 286.657 890.406 289.245C896.487 291.833 903.734 294.033 908.134 296.621C912.404 299.209 915.898 303.479 918.098 307.361C920.298 311.243 924.956 312.926 930.132 314.737C935.308 316.549 943.072 320.819 946.049 322.501C949.025 324.184 950.837 328.066 956.789 328.066C962.871 328.066 969.729 328.454 973.611 325.478C977.494 322.501 979.176 320.69 984.352 321.207C989.528 321.725 995.61 322.89 998.586 321.596C1001.56 320.302 1008.55 316.031 1011.53 316.419C1014.5 316.808 1018.38 311.632 1019.29 321.596C1020.2 331.56 1019.29 337.124 1019.29 342.3C1019.29 347.476 1022.27 365.593 1023.17 370.769C1024.08 375.945 1024.47 389.791 1023.56 394.449C1022.66 399.237 1022.27 406.484 1022.27 406.484C1022.27 406.484 1025.76 418.389 1025.76 422.4" stroke="#E21A1A" stroke-width="3" stroke-miterlimit="10"/>
</svg>
