<svg width="979" height="620" viewBox="0 0 979 620" fill="none" xmlns="http://www.w3.org/2000/svg">
<path d="M168.144 172.256V175.064H171.6V185H174.84V175.064H178.296V172.256H168.144ZM183.121 175.064H185.065C186.361 175.064 186.361 175.064 186.361 177.08C186.361 179.06 186.361 179.06 185.065 179.06H183.121V175.064ZM179.881 185H183.121V181.868H184.201C186.361 181.868 189.817 181.868 189.817 177.08C189.817 172.256 186.361 172.256 184.201 172.256H179.881V185ZM193.671 172.256L189.783 183.92V185H192.807L193.707 182.3H197.955L198.855 185H201.987V183.92L198.099 172.256H193.671ZM196.299 175.28C196.299 177.332 196.731 178.628 197.055 179.6H194.607C194.931 178.628 195.363 177.332 195.363 175.28H196.299ZM206.817 172.256H203.577V185H206.817V180.032H210.489V185H213.729V172.256H210.489V177.224H206.817V172.256ZM221.138 171.896C216.062 171.896 216.062 176.468 216.062 178.088V179.168C216.062 181.22 216.062 185.36 221.462 185.36C222.326 185.36 223.262 185.36 225.998 184.676V181.688H225.134L222.542 182.336H221.894C219.518 182.336 219.518 182.336 219.518 178.952V178.304C219.518 174.92 219.518 174.92 221.354 174.92C222.506 174.92 222.506 174.92 223.082 177.224L226.322 176.414C226.322 175.496 226.322 171.896 221.57 171.896H221.138ZM232.986 171.896C227.91 171.896 227.91 176.468 227.91 178.088V179.168C227.91 181.22 227.91 185.36 233.31 185.36C234.174 185.36 235.11 185.36 237.846 184.676V181.688H236.982L234.39 182.336H233.742C231.366 182.336 231.366 182.336 231.366 178.952V178.304C231.366 174.92 231.366 174.92 233.202 174.92C234.354 174.92 234.354 174.92 234.93 177.224L238.17 176.414C238.17 175.496 238.17 171.896 233.418 171.896H232.986ZM243.321 180.464V172.256H240.297V185H244.185C246.453 180.464 247.425 178.52 247.425 176.792H248.073V185H251.097V172.256H247.209C244.941 176.792 243.969 178.736 243.969 180.464H243.321ZM257.213 182.192V179.852H259.157C260.237 179.852 260.237 179.87 260.237 181.022C260.237 182.192 260.237 182.192 259.157 182.192H257.213ZM257.213 177.044V175.064H262.613V172.256H253.973V185H258.185C260.237 185 263.693 185 263.693 181.004C263.693 177.044 260.237 177.044 258.185 177.044H257.213Z" fill="#E21A1A"/>
<path d="M175.888 191.416H175.312C171.088 191.416 171.088 193.784 171.088 195.128V195.512C171.088 197.048 171.088 199.16 174.928 199.16H175.312C177.328 199.16 177.968 198.696 178.288 198.456V198.584C178.288 201.656 178.288 201.656 175.12 201.656H174.352L172.048 201.08H171.472V202.648C173.904 203.256 175.024 203.256 175.504 203.256C180.112 203.256 180.112 200.696 180.112 197.432V196.456C180.112 193.592 180.112 191.416 175.888 191.416ZM175.216 197.624C172.816 197.624 172.816 197.624 172.816 195.32C172.816 193.016 172.816 193.016 175.6 193.016C178.288 193.016 178.288 193.016 178.288 195.32C178.288 197.624 178.288 197.624 175.216 197.624ZM191.38 191.416C187.092 191.416 187.092 193.976 187.092 194.744V194.84L188.564 195.224C189.14 193.016 189.14 193.016 191.38 193.016C193.972 193.016 193.972 193.016 193.972 194.744C193.972 196.376 193.972 196.536 191.572 197.144L189.652 197.624C187.156 198.248 187.156 199.576 187.156 200.728V203H195.604V201.464H188.692V200.728C188.692 199.48 188.692 199.48 189.844 199.192L192.532 198.52C195.796 197.704 195.796 196.28 195.796 194.76C195.796 193.4 195.796 191.416 191.38 191.416ZM205.111 196.92C207.159 196.408 207.159 195.128 207.159 194.36C207.159 193.4 207.159 191.416 202.647 191.416C198.135 191.416 198.135 193.4 198.135 194.744C198.135 195.32 198.135 196.856 200.183 197.368V197.752C198.135 198.264 198.135 199.544 198.135 200.312C198.135 201.272 198.135 203.256 202.647 203.256C207.159 203.256 207.159 201.272 207.159 199.928C207.159 199.352 207.159 197.816 205.111 197.304V196.92ZM201.015 196.056C199.863 195.768 199.863 195.768 199.863 194.456C199.863 193.016 199.863 193.016 202.647 193.016C205.431 193.016 205.431 193.016 205.431 194.456C205.431 195.432 205.431 195.432 204.471 196.152L203.703 196.728L201.015 196.056ZM204.279 198.616C205.431 198.904 205.431 198.904 205.431 200.216C205.431 201.656 205.431 201.656 202.647 201.656C199.863 201.656 199.863 201.656 199.863 200.216C199.863 199.24 199.863 199.24 200.823 198.52L201.591 197.944L204.279 198.616ZM216.314 196.92C218.362 196.408 218.362 195.128 218.362 194.36C218.362 193.4 218.362 191.416 213.85 191.416C209.338 191.416 209.338 193.4 209.338 194.744C209.338 195.32 209.338 196.856 211.386 197.368V197.752C209.338 198.264 209.338 199.544 209.338 200.312C209.338 201.272 209.338 203.256 213.85 203.256C218.362 203.256 218.362 201.272 218.362 199.928C218.362 199.352 218.362 197.816 216.314 197.304V196.92ZM212.218 196.056C211.066 195.768 211.066 195.768 211.066 194.456C211.066 193.016 211.066 193.016 213.85 193.016C216.634 193.016 216.634 193.016 216.634 194.456C216.634 195.432 216.634 195.432 215.674 196.152L214.906 196.728L212.218 196.056ZM215.482 198.616C216.634 198.904 216.634 198.904 216.634 200.216C216.634 201.656 216.634 201.656 213.85 201.656C211.066 201.656 211.066 201.656 211.066 200.216C211.066 199.24 211.066 199.24 212.026 198.52L212.794 197.944L215.482 198.616ZM233.63 195.384V194.936H231.806C230.654 196.472 229.982 197.368 229.982 198.2H227.102V194.936H225.47V203H227.102V199.736H229.982C229.982 200.568 230.654 201.464 231.806 203H233.63V202.552L230.926 198.968L233.63 195.384ZM235.704 194.936V203H237.336V196.376H237.752C237.752 196.76 237.752 196.76 240.248 203H242.392C244.888 196.76 244.888 196.76 244.888 196.28H245.304V203H246.936V194.936H244.024C241.528 200.936 241.528 200.936 241.528 201.656H241.112C241.112 200.936 241.112 200.936 238.616 194.936H235.704Z" fill="#E21A1A"/>
</svg>
