<svg width="567" height="618" viewBox="0 0 567 618" fill="none" xmlns="http://www.w3.org/2000/svg">
<path d="M267.5 509.999C266.7 506.399 263.5 505.833 262 505.999L208 443L286.5 353.5L278 258L442.5 189L475.5 198V205C475.667 207.667 475.9 213.2 475.5 214C475.1 214.8 477.333 215.667 478.5 216C478.333 217.167 478.3 220.2 479.5 223C480.7 225.8 481 221.833 481 219.5H485.5C485.667 221.167 486.3 225 487.5 227C489 229.5 490.5 231 490.5 233C490.5 235 490.5 238 493.5 240C496.5 242 494.5 244.5 493.5 245.5C492.7 246.3 495.5 248.833 497 250C496.833 251.333 496.8 254.1 498 254.5C499.5 255 507 257 508.5 258C509.7 258.8 512 261 513 262C512 262.5 509.4 263.7 507 264.5C504 265.5 506 268 507 272.5C508 277 509 277 510 275C510.8 273.4 512.333 275.667 513 277C513.667 275.833 515.1 273.3 515.5 272.5C516 271.5 520 269.5 522.5 268C524.5 266.8 526.667 267.5 527.5 268C529.5 269.333 533.5 273.5 533.5 279.5C533.5 285.5 535.167 285.333 536 284.5C537.333 283.167 540.5 280.3 542.5 279.5C544.5 278.7 546 280.833 546.5 282C547 284.167 548 288.8 548 290C548 291.2 549 292.5 549.5 293V298C549.5 299.5 549.5 301.5 548 305C546.8 307.8 547.5 309.5 548 310C548.5 309.166 549.9 307.7 551.5 308.5C553.5 309.5 551.5 311.5 551.5 313C551.5 314.5 554.5 314.5 556.5 317C558.5 319.5 558 321 554.5 321C551 321 552.5 321.5 551.5 321C550.5 320.5 548 321 548 322.5C548 324 551 326.5 551.5 329C552 331.5 549.5 331.5 549.5 334C549.5 336.5 553 337 554.5 337C556 337 557.5 339.5 558 341.5C558.5 343.5 559 347.5 559.5 349C559.9 350.2 563.333 352.5 565 353.5C564.167 354.333 562.1 356 560.5 356C558.5 356 549.5 362.5 548 363C546.5 363.5 540 363 538 364C536 365 538 367.5 536 369.5C534 371.5 533.5 374.5 530.5 376.5C528.1 378.1 527.5 381.833 527.5 383.5V389H533.5C534.833 389.166 538 389.8 540 391C542.5 392.5 540 397 540 398.5C540 400 543 401 544 404.5C545 408 542 414 540 416C538 418 533.5 427.5 533.5 430C533.5 432.5 529 443.5 527.5 446.5C526 449.5 525 450.5 525 455.5C525 460.5 525 463 520 466.5C515 470 523 473 525 478C527 483 523 486 520 488C517.6 489.6 514.333 491.666 513 492.5C511 493.833 506.4 497.1 504 499.5C501 502.5 500.5 505.999 495 509.999C489.5 513.999 482 509.999 477.5 505.999C473 501.999 467.5 501 464 499.5C460.5 498 458 496.5 454 496.5C450 496.5 448 505.999 444.5 505.999C441 505.999 434 501 427 496.5C420 491.999 420.5 494 416 492.5C411.5 491 409.5 496.5 407 496.5C404.5 496.5 396 505.999 392.5 505.999C389 505.999 388 515 378.5 520.5H374C372 521.833 367.3 525.1 364.5 527.5C361 530.5 357.5 527.5 352.5 527.5H348.5L343.5 531.5C341.167 533 336 536 334 536C332 536 326.833 533 324.5 531.5L318 536C316.333 534.5 311.3 532.4 304.5 536C301.5 536.5 300.5 534 297 531.5C294.2 529.5 293.167 530.666 293 531.5H286.5C284.5 530.833 280 529.1 278 527.5C275.5 525.5 275 524 272 520.5C269.072 517.084 268.526 514.62 267.571 510.321L267.5 509.999Z" fill="#F2F4F7" stroke="#CBCDD5"/>
<path d="M93 384.999C95.4 384.999 98 382.333 99 380.999L111.5 412.5L162.5 467H193L211.5 443L284 366L395.5 269.5L419.5 251.5C421.833 252.333 426.9 254.3 428.5 255.5C430.5 257 430.5 255.5 434.5 255.5C438.5 255.5 437.5 256 439.5 255.5C441.1 255.1 442.833 252.667 443.5 251.5C443.833 250.5 445 248.3 447 247.5C449.5 246.5 447.5 250.5 450.5 251.5C453.5 252.5 452 250.5 453 248.5C454 246.5 453 242.5 453 241.5C453 240.5 454 238.5 454 236C454 233.5 454 233.5 453 234C452 234.5 450.5 235.5 449 236C447.5 236.5 447.5 233.5 447.5 231C447.5 228.5 444.5 226 444.5 224.5C444.5 223 442.5 223.5 441 223C439.5 222.5 439.5 221 441 216.5C442.5 216 444.5 212.5 443.5 209C442.5 205.5 446 205.5 444.5 201.5C442.5 200.5 444.5 198 444.5 196.5C444.5 195 447.5 196.5 450.5 196.5C453.5 196.5 453 195.5 459.5 196.5C463 198 463 200 469 198C469.8 196.4 473.333 197.333 475 198C474.167 195.833 472.4 191.2 472 190C471.5 188.5 472 187.5 470 187.5C468 187.5 467 187.5 464.5 185C462 182.5 464.5 179 464.5 176V171.5C464.5 170 461.5 169.5 461.5 167.5C461.5 165.5 461 166 461.5 164.5C462 163 463.5 160 463 157.5C462.5 155 459 156 456 156C453 156 454 154.5 454 153C454 151.5 449 152 447.5 153C446 154 446 157.5 444.5 157.5C443 157.5 442.5 155.5 441 156C439.5 156.5 439 157.5 437.5 157.5H432.5C431 157.5 430.5 150.5 430.5 149C430.5 147.8 429.167 145.833 428.5 145V139C428.5 137.5 424 135.5 423 134C422 132.5 417.5 129 416.5 129H411.5C409 129 407.5 127.5 405.5 126C403.5 124.5 400.5 125.5 399.5 126C398.5 126.5 396 126.5 393 130.5C392.5 132 392 134 391 135.5C390 137 388 137.5 385.5 139C383 140.5 386 146.5 383.5 146.5C381 146.5 380 152.5 376 157.5C374.5 160 372.5 159.5 371 161.5C369.5 163.5 370.5 166.5 369 167.5C367.5 168.5 366 173 366.5 173C367 173 365.5 176 358 179C354 179 356 182 355 183C354 184 354 186 353.5 187.5C353 189 352 189.5 350.5 190C349 190.5 348.5 186 348.5 183C348.5 180 350.5 179 352 179C353.5 179 352.5 175 352 173L352 173C351.5 171 349.5 175 348.5 175C347.7 175 346.833 172.667 346.5 171.5C345.667 170.167 343.7 167.9 342.5 169.5C341 171.5 341.5 172 338 175C336 175 335.5 176 334 179C332.5 182 328 176 324.5 176C321 176 320 176 312.5 187.5C312.5 190.5 305.5 187.5 301 187.5C296.5 187.5 296 184.5 294.5 179C293 173.5 293 175.5 289 173C285 170.5 293 169.5 294.5 167.5C296 165.5 297 160 297 155V146.5C298.333 143.833 301 137.6 301 134C301 130.4 304 130.167 305.5 130.5C306.333 128.5 308 123.9 308 121.5C308 119.1 311 112.5 312.5 109.5H308L301 106V96L297 92.4999C296.667 90.1665 296.2 84.3999 297 79.9999C298 74.4999 301 77 301 74.5V65.9999H296L289 63L293 57.4999L296 49.9999L293 42.9999L289 34.9999V31.9999L286.5 22H278.5H272V18.9999C274.167 17.6666 279 14.3 281 11.4999C283 8.69977 281.833 7.99983 281 7.99987L278.5 1.99987C276.167 0.666537 271.6 -0.500129 272 5.49987C272.4 11.4999 269.5 7.99987 268 5.49987C265.833 6.3332 261.2 8.69987 260 11.4999C258.8 14.2999 257.167 12.6665 256.5 11.4999L251 7.99987H248V18.9999V31.9999C248 34.4999 243 31.9999 243 34.9999C243 37.9999 243 40.4999 240.5 42.9999C238.5 44.9999 239.667 48.4999 240.5 49.9999C241.333 51.4999 244 55.0999 248 57.4999C253 60.4999 248 62.9999 248 65.9999C248 68.9999 245.5 69.4999 243 71.4999C241 73.0999 242.167 77.8332 243 79.9999C240.833 81.1665 236.2 83.8999 235 85.4999C233.5 87.4999 234 90.4999 232 92.4999C230 94.4999 225 96.9999 222.5 98.9999C220.5 100.6 217.333 102.667 216 103.5V109.5C213.5 111.667 208.5 117.7 208.5 124.5C208.5 127 209 130.5 208.5 134C208.1 136.8 213.333 140.5 216 142C217.167 141.833 220.6 141.6 225 142C229.4 142.4 226.833 145.167 225 146.5C225.333 148.333 225.8 152.6 225 155C224.2 157.4 221 156 219.5 155C218.333 155 215.1 156.8 211.5 164C211.5 168.5 214 167.5 216 169.5C218 171.5 219.5 173 219.5 184.5C217 190 215.5 184.5 211.5 187.5C208.3 189.9 210.167 193.833 211.5 195.5C210 196.5 206.4 198.5 204 198.5C201.6 198.5 200.667 196.5 200.5 195.5L195 192.5C195.5 191 195.8 187.9 193 187.5C189.5 187 187 186 185 184.5C183 183 183.5 179 176 173C172 172 167 176 167 179C167 182 168 187 167 191C166 195 164.5 196 162.5 198.5C160.5 201 158.5 200.5 154 203C149.5 205.5 148.5 207.5 144.5 209.5C140.5 211.5 143.5 215.5 141 215.5C139 215.5 135.167 219.5 133.5 221.5V230L129.5 234.5C128.333 233.833 125.5 232 123.5 230C121 227.5 121 226.5 123.5 221.5C126 216.499 122 218.5 121 215.5C120 212.5 122 211.5 108.5 221.5C106 227.5 99 220 93 218.5C88.2 217.3 79.6667 216 76 215.5L61 239.5L68.5 243C67.5 244.5 66.1 247.7 68.5 248.5C70.9 249.3 69.5 251.833 68.5 253C69.8333 254.833 71.7 259.4 68.5 263C65.5 263 64.5 270 61 273.5C57.5 277 54.5 274 44 284C36.5 288 44 288 44 293C44 298 39.5 299.5 35 319C34.2 323.8 32.6667 324.333 32 324C29.6667 323.666 22.9 324.6 14.5 331C12 335.5 16 335.5 22 343.5C26.8 349.9 28.6667 354.166 29 355.499C30.6667 355.166 36 356.099 44 362.499C51.5 366.999 48 367.999 51.5 370.999C55 373.999 56 372.999 61 377.499C66 381.999 63 380.999 76 384.999C76 388.199 79 388.999 80.5 388.999C83.6667 387.666 90.6 384.999 93 384.999Z" fill="#F2F4F7" stroke="#CBCDD5"/>
<path d="M99 434.5C96.5 434.167 91.4 434.5 91 438.5C90.5 443.5 91 445.5 91 453.5C91 461.5 93 469.5 86 471.5C79 473.5 63.5 470 60.5 476.5C57.5 483 54 496 55.5 501C57 506 54.5 513.5 60.5 516C66.5 518.5 75.5 524 68 526C60.5 528 50.5 526 44.5 526C38.5 526 30 523 19.5 531.5C9 540 0.500001 545.5 8 555C15.5 564.5 27.5 566 32 566.5C36.5 567 39.5 569.5 42 575C44.5 580.5 53 582 60.5 586.5C68 591 65.5 597.5 72.5 601C79.5 604.5 84 603.5 99 605C114 606.5 147.5 610 159 610.5C170.5 611 176 609 180 605C184 601 182.5 597.5 177.5 592C172.5 586.5 173 584 176.5 583.5C180 583 183.5 582.5 183 580C182.5 577.5 190 577.5 193 575C196 572.5 196 569 199 566.5C202 564 207.5 565.5 208 569.5C208.5 573.5 211.5 575 217.5 575C223.5 575 230.5 576.5 236 573C241.5 569.5 245.5 564.5 248 563C250.5 561.5 259 563 265 563C271 563 279 559.5 281 558C283 556.5 293.5 541.5 295 539.5C296.2 537.9 298.5 532.833 299.5 530.5" stroke="#7684FF" stroke-width="2"/>
<path d="M74 423C71.2 419.8 65.8333 414.667 63.5 412.5C64.5 410.833 67 407.5 69 407.5C71 407.5 69.8333 403.167 69 401C70.6667 398.167 75 393.4 79 397C83 400.6 80.6667 395.5 79 392.5C80.1667 390 83.4 385 87 385C91.5 385 93 381.5 96 381.5C99 381.5 99.5 379 102 376.5C104 374.5 105.5 375.667 106 376.5C107.167 378.167 108.8 382.2 106 385C102.5 388.5 109.5 389 109.5 392.5C109.5 396 114 397 117 401C120 405 122 407.5 128.5 412.5C135 417.5 140.5 419 151 428C155.5 433 155 434.5 159 436.5C163 438.5 161.5 446.5 173.5 457.5C172.5 461.5 174 464.5 177 464.5C180 464.5 181.5 457.5 184 457.5H193.5C197.5 457.5 195.167 456.167 193.5 455.5L197.5 450C201.333 446.5 211.1 438.5 219.5 434.5C230 429.5 245.5 412.5 253.5 404C261.5 395.5 266 389 276.5 376.5C287 364 283.5 341.5 283.5 337.5C283.5 334.3 282.167 330.167 281.5 328.5C282 327.333 283 323.2 283 316C282.6 313.2 283.167 309.5 283.5 308L288 298.5L293 296C291.333 294.667 288 291.6 288 290C288 288 281.5 283.5 288 270.5C291.6 269.3 298.5 268.333 301.5 268C303.5 264.833 308 258.5 310 258.5C312.5 258.5 315 258.5 321 263.5C327 268.5 324.5 263.5 328 263.5C331.5 263.5 332.5 258.5 332.5 255C332.5 252.2 334.833 253.833 336 255L340.5 258.5H351.5H361C364.6 258.5 362.5 261.833 361 263.5C362.667 265 366.5 268 368.5 268H377C380.5 268 381.5 269 384 268C386.5 267 389 264.5 393 263.5C397 262.5 401.5 260 401.5 258.5C401.5 257 405 253 405 250C405 247.6 407.667 246 409 245.5C410 245.833 412.5 246.3 414.5 245.5C417 244.5 418.5 242 418.5 239.5C418.5 237.5 423.167 240.333 425.5 242C424.333 244 421.3 248.4 418.5 250C415 252 414.5 258.5 422 279.5C422.4 281.9 424.5 285.5 425.5 287V296C425.5 300.5 425.5 305.5 429.5 308C433.5 310.5 434 305 439.5 305.5C445 306 442 311.5 443.5 313.5C445 315.5 449.5 321 450 328.5C450.5 336 443 336 439.5 337.5C436 339 429.5 340.5 425.5 341.5C421.5 342.5 421.5 347 418.5 349C415.5 351 411 360 409 362.5C407 365 405.5 367.5 397.5 367.5C391.1 367.5 391.833 371.5 393 373.5C392.5 375 391.8 378.7 393 381.5C394.5 385 397.5 389 401.5 397C401 400.5 401.5 404 397.5 407.5C393.5 411 393.5 411 389 413.5C384.5 416 383 417.5 377 419C371 420.5 366.5 422.5 356.5 425.5C352.5 428.5 351 432.5 348 434.5C345 436.5 344 438 340.5 439.5C337 441 337.5 442.5 332.5 446.5C327.5 450.5 326 453 324.5 453.5C323 454 323 450.5 321 450.5C319 450.5 315.5 450 312.5 450.5C309.5 451 308.5 454.5 307.5 455.5C306.5 456.5 302.5 455.5 301.5 455.5C300.5 455.5 297.5 459.5 293 457.5C291.5 457 289.5 455.5 288 455.5H283.5C282.333 456.167 280 457.9 280 459.5C280 461.1 277.667 463.5 276.5 464.5L281.5 466C280.167 466.667 277.3 468.9 276.5 472.5C275.5 477 274.5 477 271.5 479.5C268.5 482 276.5 484.5 280 484.5C283.5 484.5 283.5 490.5 280 490.5C276.5 490.5 272.5 493.5 269 497C266.2 499.8 263.5 503.833 262.5 505.5C260.333 505.833 255.5 506.3 253.5 505.5C251 504.5 245 499.5 242.5 499.5C240 499.5 238.5 496 234.5 493.5C230.5 491 226.5 493.5 219.5 490.5C212.5 487.5 210 489.5 205 490.5C200 491.5 192.5 492.5 188.5 493.5C184.5 494.5 177 500.5 170.5 499.5C164 498.5 150 487 146.5 484.5C143 482 141 470.5 140.5 468C140 465.5 138 460 137.5 457.5C137 455 137.5 452.5 133 450C128.5 447.5 129 449.5 122 447.5C115 445.5 114 440.5 109.5 436.5C105 432.5 104 436.5 96 436.5C89.6 436.5 87.3333 430.833 87 428C83.8333 427.667 76.8 426.2 74 423Z" fill="#F2F4F7" stroke="#CBCDD5"/>
<path d="M268.5 519C266.9 517 266.5 512.5 266.5 510.5C266.443 509 261.5 508 259.5 508C257.5 508 258.5 508 257 507.5C255.5 507 256 506.5 254.5 505.5C253 504.5 251.5 505 249.5 505C247.5 505 247.5 502.5 246.5 501C245.5 499.5 243 497.5 240.5 495.5C238 493.5 236.5 494 235 494C233.5 494 231.5 495.5 229.5 495.5C227.5 495.5 227 494 225.5 493C224 492 221 491.5 220 491C219 490.5 215.5 491 213 491C210.5 491 210 489 208 489C206 489 205.5 490.5 203.5 491.5C201.5 492.5 199 491 197.5 491C196 491 197 492.5 194.5 493C192 493.5 188.5 493.5 186.5 494C184.5 494.5 184.5 496.5 184 498C183.5 499.5 181 499 179 499C177 499 175 497 173.5 497C172 497 172 498 170 498C168 498 166 497 164.5 497C163 497 162 497 162 495.5C162 494 160 491.5 159 491C158 490.5 157 491.5 155.5 491.5C154 491.5 152.5 491 151.5 490.5C150.5 490 149.5 488 148.5 487C147.5 486 144 481.5 143.5 480.5C143 479.5 140.5 476 139.5 475.5C138.5 475 138.5 472.5 138 471C137.6 469.8 137.5 466.167 137.5 464.5C137.833 465.167 138.9 465.9 140.5 463.5C142.5 460.5 144.5 462 147.5 463.5C150.5 465 149.5 464.5 153.5 463.5C157.5 462.5 157 461 158.5 464.5C160 468 163.5 466 163.5 464.5V458C163.5 456 166 455.5 166 453.5C166 451.9 163.333 449.5 162 448.5C162.5 447.333 163.5 444.3 163.5 441.5C163.5 438 158.5 437 157 435.5C155.5 434 155 430.5 152.5 429C150 427.5 147.5 423 149.5 420.5C151.5 418 155 421.5 155 420.5C155 419.5 155 416.5 157 415C159 413.5 158.5 410 158.5 409C158.5 408 155 404 155 399.5C155 395 158 392.5 158.5 389.5C159 386.5 162 389.5 163.5 389.5C165 389.5 165 387.5 166 386C167 384.5 170 387.5 170 386C170 384.5 170.5 382 170 380.5C169.5 379 172 377 173.5 376C175 375 174.5 373.5 175 371C175.5 368.5 177 371 179 368.5C181 366 186 365 190 362.5C194 360 194.5 363.5 193.5 364.5C192.5 365.5 193 368.5 194.5 371C196 373.5 198 370.5 200 368.5C202 366.5 202 369 203.5 368.5C205 368 207 367 205.5 365C204 363 205.5 360.5 205.5 359.5C205.5 358.5 210 356 211.5 354C213 352 219 346 221 346C223 346 226 347 227.5 346C228.7 345.2 228.667 340.667 228.5 338.5C229.667 337.667 232.3 335.9 233.5 335.5C235 335 236 332 241.5 329.5C245.9 327.5 242.333 321.667 240 319C240.333 318 241.3 315.8 242.5 315C244 314 245 307 245 305C245 303 244.5 297 245 295.5C245.5 294 248.5 287.5 252.5 284.5C256.5 281.5 263.5 282.5 266.5 282.5C269.5 282.5 273.5 282.5 281 284.5C288.5 286.5 289 284.5 294.5 287.5C298.9 289.9 296.333 285.167 294.5 282.5C295.333 281.833 297.2 280.5 298 280.5H304.5C307 280.5 313 284.5 315.5 284.5C318 284.5 323 286 328.5 286C334 286 334 278.5 336 276.5C338 274.5 340.5 269 342 269C343.5 269 356.5 267.5 361 267.5C365.5 267.5 376.5 268 378.5 267.5C380.5 267 380 273.5 378.5 274.5C377.3 275.3 380 276.167 381.5 276.5C381.167 277.333 380.1 279.3 378.5 280.5C376.5 282 372.5 284 370.5 286C368.5 288 370.5 291 368 293C365.5 295 361 295 359 297C357 299 356.5 302.5 358 305.5C359.2 307.9 363.833 312.833 366 315L363.5 317C362.667 316.333 360.6 315 359 315C357 315 356 314.5 354 315C352 315.5 351 318 348.5 320.5C346 323 345 328.5 345 332V342.5C345 345.5 340.5 349 338 351.5C335.5 354 337.5 356.5 338 359C338.5 361.5 336 364.5 336 368C336 371.5 336 374.5 332 377.5C328 380.5 326.5 384.5 326.5 387C326.5 389.5 325 393.5 321 395C317 396.5 323 398.5 325 399.5C326.6 400.3 326.667 402.833 326.5 404C328.5 405.833 333.2 410.3 336 413.5C339.5 417.5 340.5 419.5 345 419.5C349.5 419.5 351 416 352.5 415.5C353.7 415.1 357.333 414 359 413.5C359.167 414.5 359.4 417.1 359 419.5C358.5 422.5 360 425 363.5 426C366.3 426.8 367.667 423.333 368 421.5H372.5C373.833 421.5 376.9 421.1 378.5 419.5C380.1 417.9 382.5 417.833 383.5 418L385.5 421.5L383.5 423C381.667 424.667 377.7 428.4 376.5 430C375.3 431.6 373.333 436.333 372.5 438.5C372.333 439.833 371.7 442.7 370.5 443.5C369 444.5 364 450 361 452C358 454 352.5 459.5 351 461C349.5 462.5 343.5 464.5 342 465.5C340.5 466.5 342 470 342 472C342 474 340.5 477.5 340.5 483C340.5 488.5 340 491.5 338 495C336 498.5 337 502 338 505C339 508 335.5 508 332.5 509C329.5 510 327.5 512 325.5 517.5C323.5 523 320.5 523 318.5 524C316.9 524.8 314.5 522.333 313.5 521C312.333 520.833 309.6 520.2 308 519C306 517.5 308.5 524 308 526.5C307.5 529 304 526.5 303 526.5C302 526.5 299.5 532 298 532C296.5 532 289.5 532.5 284 532C278.5 531.5 279 528.5 277 526.5C275 524.5 270.5 521.5 268.5 519Z" fill="#D8F0D4" fill-opacity="0.3" stroke="#76D33D" stroke-width="2" stroke-linecap="round"/>
<path d="M186.5 451.5C184.1 450.7 177.167 446.5 174 444.5C172.5 441 186.5 440.5 189 440.5C191.5 440.5 194.5 440.5 196 439.5C197.2 438.7 199.5 439.833 200.5 440.5C201.833 439.833 205 438.4 207 438C209.5 437.5 210.5 435 212 433.5C213.5 432 218.5 422.5 221 420.5C223.5 418.5 232.5 413.5 235 412C237.5 410.5 239.5 406 244 403C247.6 400.6 243.5 399 241 398.5C242.833 397.333 246.8 394.7 248 393.5C249.5 392 251.5 388.5 254.5 388.5C256.9 388.5 257.5 384.5 257.5 382.5C258.5 381.333 260.9 378.7 262.5 377.5C264.5 376 270.5 369.5 272 368.5C273.5 367.5 273 366 273.5 364C273.9 362.4 274.667 360.333 275 359.5C275.833 358.5 277.7 356.2 278.5 355C279.5 353.5 280 349.5 281.5 346.5C283 343.5 288 333 288 331.5C288 330 289 326.5 291.5 324.5C294 322.5 292.5 320.5 293 319.5C293.5 318.5 294.5 314 294.5 308.5C296.5 307.5 296.5 305.5 299 304C301.5 302.5 302 303.5 304 304C306 304.5 304 308 304 309.5C304 311 307 312 306.5 314C306 316 306 318 304 320.5C302 323 304.5 324.5 304 328C303.5 331.5 303.5 333.5 302 336C300.5 338.5 302 340 302 346.5C302 350.5 299.5 348 299 352C298.6 355.2 300.833 358.334 302 359.5C301 360.834 298.5 364 296.5 366C294 368.5 295.5 369.5 294.5 371.5C293.5 373.5 294 374 292.5 377.5C291.3 380.3 291.333 377.667 291.5 376C291.667 374.667 292.1 371.5 292.5 369.5C292.9 367.5 289.667 368.667 288 369.5C287.333 370.333 285.7 372.4 284.5 374C283.3 375.6 280 380.333 278.5 382.5L281.5 379H288C290 379 289 380.5 289 382.5C289 384.5 291.5 386.5 289 388.5C287 390.1 286.167 391.167 286 391.5C285.333 391.167 283.5 390.7 281.5 391.5C279 392.5 276.5 395 275 396.5C273.8 397.7 274.5 398.333 275 398.5V403C274.167 403.667 272.1 405.2 270.5 406C268.5 407 267.5 409 266 410.5C264.5 412 262.5 410.5 254.5 413.5C252 416 250 416 246.5 418C243 420 245 422.5 241 422.5C240 422.5 238.5 422 236 422.5C233.5 423 233.5 423.5 232.5 426.5C231.5 429.5 231.5 430.5 229.5 433.5C227.5 436.5 227 440 225.5 443C224 446 223 444.5 221 446C219.4 447.2 215 449.167 213 450C211.167 450.5 206.9 451.5 204.5 451.5C201.5 451.5 201 453.5 199 453.5H194.5C192.5 453.5 189.5 452.5 186.5 451.5Z" fill="#96CDFF"/>
<path d="M475 198C479.333 200.333 492.2 203.6 497 198C513 184 515 184 524 183C555 172 554 175 562 168" stroke="#CBCDD5"/>
<path d="M77.392 275.888V266.672H75.664V278H77.744L82.496 271.056C83.296 269.888 83.36 269.328 83.36 268.784H83.856V278H85.584V266.672H83.504L78.56 273.952C77.92 274.896 77.888 275.392 77.888 275.888H77.392ZM88.626 269.936V281.264H90.258V277.808C91.026 278 91.794 278.192 93.234 278.192C96.882 278.192 96.882 275.696 96.882 274.352V273.584C96.882 272.048 96.882 269.744 93.426 269.744C91.506 269.744 90.45 270.544 90.066 270.832L89.394 269.936H88.626ZM95.154 273.968C95.154 276.64 95.154 276.656 92.562 276.656C91.986 276.656 91.026 276.656 90.258 276.464V271.856L92.562 271.28H92.834C95.154 271.28 95.154 271.376 95.154 273.968ZM107.411 270.384V269.936H105.587C104.435 271.472 103.763 272.368 103.763 273.2H100.883V269.936H99.251V278H100.883V274.736H103.763C103.763 275.568 104.435 276.464 105.587 278H107.411V277.552L104.707 273.968L107.411 270.384ZM112.157 276.272C112.157 275.696 112.157 275.696 110.509 271.376V269.936H108.781C108.781 271.616 108.781 271.616 111.341 277.616H112.957L112.381 279.152C112.077 279.92 111.949 279.92 111.037 279.92H109.773V281.456H110.605C111.853 281.456 113.101 281.408 113.821 279.664L116.477 272.512C116.845 271.616 116.845 271.616 116.845 270.256V269.936H115.165V271.376C113.645 275.728 113.661 275.728 113.661 276.272H112.157ZM125.983 269.936H117.919V271.344H121.103V278H122.799V271.344H125.983V269.936ZM131.475 278.192C132.051 278.192 133.299 278.192 134.835 277.808V276.272H134.451L132.899 276.656H132.051C129.267 276.656 129.267 276.656 129.267 273.968C129.267 271.28 129.267 271.28 131.475 271.28C133.299 271.28 133.299 271.28 133.683 272.816L135.219 272.432C135.219 271.664 135.219 269.744 131.859 269.744H131.091C127.539 269.744 127.539 271.856 127.539 273.584V274.352C127.539 276.08 127.539 278.192 131.475 278.192ZM145.552 270.384V269.936H143.728C142.576 271.472 141.904 272.368 141.904 273.2H139.024V269.936H137.392V278H139.024V274.736H141.904C141.904 275.568 142.576 276.464 143.728 278H145.552V277.552L142.848 273.968L145.552 270.384ZM154.282 278.192L155.498 277.28C154.922 276.512 154.922 276.512 154.922 274.928V273.584C154.922 271.664 154.922 269.744 151.178 269.744C150.602 269.744 149.354 269.744 147.818 270.128V271.664H148.202L149.738 271.28H151.178C153.29 271.28 153.29 271.28 153.29 273.296H151.178C147.146 273.296 147.146 274.64 147.146 275.888C147.146 276.656 147.146 278.192 150.026 278.192C152.01 278.192 153.082 277.392 153.466 277.104L154.282 278.192ZM148.97 275.696C148.97 274.544 148.97 274.544 151.178 274.544H153.29V276.08L150.986 276.656H150.122C148.97 276.656 148.97 276.656 148.97 275.696ZM164.875 278V269.936H161.419C159.019 269.936 157.099 269.936 157.099 272.528C157.099 273.936 157.579 274.304 158.923 275.312L157.243 277.552V278H159.067C159.643 277.264 160.267 276.496 160.267 275.312H163.243V278H164.875ZM160.747 273.968C158.939 273.968 158.923 273.968 158.923 272.624C158.923 271.296 158.923 271.28 160.747 271.28H163.243V273.968H160.747ZM173.611 273.968C173.611 271.28 173.611 271.2 176.107 271.2C178.603 271.2 178.603 271.28 178.603 273.968C178.603 276.656 178.603 276.736 176.107 276.736C173.611 276.736 173.611 276.656 173.611 273.968ZM171.883 274.352C171.883 275.888 171.883 278.192 175.723 278.192H176.491C180.331 278.192 180.331 275.888 180.331 274.352V273.584C180.331 272.048 180.331 269.744 176.491 269.744H175.723C171.883 269.744 171.883 272.048 171.883 273.584V274.352ZM188.08 268.592C188.944 268.384 189.792 268.16 190.096 266.96L190.192 266.576L188.656 266.192C188.464 266.768 188.48 266.768 187.696 266.96L185.776 267.44C182.512 268.256 182.512 270.416 182.512 272.912V273.536C182.512 276.224 182.512 278.192 186.448 278.192H187.216C191.056 278.192 191.056 276.272 191.056 274.832V273.968C191.056 272.528 191.056 270.608 187.6 270.608C185.296 270.608 184.528 271.136 184.176 271.568L183.888 271.472C184.368 269.552 184.368 269.52 186.16 269.072L188.08 268.592ZM186.832 272.032C189.328 272.032 189.328 272.384 189.328 274.4C189.328 276.416 189.328 276.768 186.704 276.768C184.336 276.768 184.336 276.416 184.336 274.4C184.336 272.384 184.336 272.032 186.832 272.032ZM199.393 271.36V278H201.025V269.936H194.513C194.465 271.6 194.369 272.976 194.081 275.056C193.889 276.448 193.729 276.72 192.353 276.72V278.032C194.945 278.032 195.217 277.728 195.537 275.344C195.777 273.584 195.889 272.352 195.921 271.36H199.393ZM210.438 278.192L211.654 277.28C211.078 276.512 211.078 276.512 211.078 274.928V273.584C211.078 271.664 211.078 269.744 207.334 269.744C206.758 269.744 205.51 269.744 203.974 270.128V271.664H204.358L205.894 271.28H207.334C209.446 271.28 209.446 271.28 209.446 273.296H207.334C203.302 273.296 203.302 274.64 203.302 275.888C203.302 276.656 203.302 278.192 206.182 278.192C208.166 278.192 209.238 277.392 209.622 277.104L210.438 278.192ZM205.126 275.696C205.126 274.544 205.126 274.544 207.334 274.544H209.446V276.08L207.142 276.656H206.278C205.126 276.656 205.126 276.656 205.126 275.696ZM217.287 278.192C217.863 278.192 219.111 278.192 220.647 277.808V276.272H220.263L218.711 276.656H217.863C215.079 276.656 215.079 276.656 215.079 273.968C215.079 271.28 215.079 271.28 217.287 271.28C219.111 271.28 219.111 271.28 219.495 272.816L221.031 272.432C221.031 271.664 221.031 269.744 217.671 269.744H216.903C213.351 269.744 213.351 271.856 213.351 273.584V274.352C213.351 276.08 213.351 278.192 217.287 278.192ZM230.452 269.936H222.388V271.344H225.572V278H227.268V271.344H230.452V269.936ZM236.232 278C238.152 278 239.88 278 239.88 275.312C239.88 274.352 239.88 272.432 236.424 272.432C235.656 272.432 234.792 272.528 234.024 272.72V269.936H232.392V278H236.232ZM236.424 273.968C238.152 273.968 238.152 273.968 238.152 275.312C238.152 276.656 238.152 276.656 236.424 276.656H234.024V273.968H236.424Z" fill="#363636"/>
<path d="M425.768 369.672V375.432L423.464 376.008H422.792C419.912 376.008 419.912 376.008 419.912 373.128V369.672H418.184V373.128C418.184 375.432 418.184 377.736 421.832 377.736C423.08 377.736 424.232 377.448 425.768 377.064V381H427.496V369.672H425.768ZM432.756 381C436.932 375.448 436.932 375.16 436.932 374.312H437.348V381H438.98V372.936H436.772C432.596 378.488 432.596 378.776 432.596 379.624H432.164V372.936H430.532V381H432.756ZM448.983 372.936H440.919V374.344H444.103V381H445.799V374.344H448.983V372.936ZM453.147 381C457.323 375.448 457.323 375.16 457.323 374.312H457.739V381H459.371V372.936H457.163C452.987 378.488 452.987 378.776 452.987 379.624H452.555V372.936H450.923V381H453.147ZM468.462 372.936V376.184H463.758V372.936H462.126V381H463.758V377.592H468.462V381H470.094V372.936H468.462ZM476.397 381.192C476.973 381.192 478.221 381.192 479.757 380.808V379.272H479.373L477.821 379.656H476.973C474.189 379.656 474.189 379.656 474.189 376.968C474.189 374.28 474.189 374.28 476.397 374.28C478.221 374.28 478.221 374.28 478.605 375.816L480.141 375.432C480.141 374.664 480.141 372.744 476.781 372.744H476.013C472.461 372.744 472.461 374.856 472.461 376.584V377.352C472.461 379.08 472.461 381.192 476.397 381.192ZM490.474 373.384V372.936H488.65C487.498 374.472 486.826 375.368 486.826 376.2H483.946V372.936H482.314V381H483.946V377.736H486.826C486.826 378.568 487.498 379.464 488.65 381H490.474V380.552L487.77 376.968L490.474 373.384ZM499.204 381.192L500.42 380.28C499.844 379.512 499.844 379.512 499.844 377.928V376.584C499.844 374.664 499.844 372.744 496.1 372.744C495.524 372.744 494.276 372.744 492.74 373.128V374.664H493.124L494.66 374.28H496.1C498.212 374.28 498.212 374.28 498.212 376.296H496.1C492.068 376.296 492.068 377.64 492.068 378.888C492.068 379.656 492.068 381.192 494.948 381.192C496.932 381.192 498.004 380.392 498.388 380.104L499.204 381.192ZM493.892 378.696C493.892 377.544 493.892 377.544 496.1 377.544H498.212V379.08L495.908 379.656H495.044C493.892 379.656 493.892 379.656 493.892 378.696ZM509.797 381V372.936H506.341C503.941 372.936 502.021 372.936 502.021 375.528C502.021 376.936 502.501 377.304 503.845 378.312L502.165 380.552V381H503.989C504.565 380.264 505.189 379.496 505.189 378.312H508.165V381H509.797ZM505.669 376.968C503.861 376.968 503.845 376.968 503.845 375.624C503.845 374.296 503.845 374.28 505.669 374.28H508.165V376.968H505.669ZM419.72 395.968C419.72 393.28 419.72 393.2 422.216 393.2C424.712 393.2 424.712 393.28 424.712 395.968C424.712 398.656 424.712 398.736 422.216 398.736C419.72 398.736 419.72 398.656 419.72 395.968ZM417.992 396.352C417.992 397.888 417.992 400.192 421.832 400.192H422.6C426.44 400.192 426.44 397.888 426.44 396.352V395.584C426.44 394.048 426.44 391.744 422.6 391.744H421.832C417.992 391.744 417.992 394.048 417.992 395.584V396.352ZM434.19 390.592C435.054 390.384 435.902 390.16 436.206 388.96L436.302 388.576L434.766 388.192C434.574 388.768 434.59 388.768 433.806 388.96L431.886 389.44C428.622 390.256 428.622 392.416 428.622 394.912V395.536C428.622 398.224 428.622 400.192 432.558 400.192H433.326C437.166 400.192 437.166 398.272 437.166 396.832V395.968C437.166 394.528 437.166 392.608 433.71 392.608C431.406 392.608 430.638 393.136 430.286 393.568L429.998 393.472C430.478 391.552 430.478 391.52 432.27 391.072L434.19 390.592ZM432.942 394.032C435.438 394.032 435.438 394.384 435.438 396.4C435.438 398.416 435.438 398.768 432.814 398.768C430.446 398.768 430.446 398.416 430.446 396.4C430.446 394.384 430.446 394.032 432.942 394.032ZM445.503 393.36V400H447.135V391.936H440.623C440.575 393.6 440.479 394.976 440.191 397.056C439.999 398.448 439.839 398.72 438.463 398.72V400.032C441.055 400.032 441.327 399.728 441.647 397.344C441.887 395.584 441.999 394.352 442.031 393.36H445.503ZM456.548 400.192L457.764 399.28C457.188 398.512 457.188 398.512 457.188 396.928V395.584C457.188 393.664 457.188 391.744 453.444 391.744C452.868 391.744 451.62 391.744 450.084 392.128V393.664H450.468L452.004 393.28H453.444C455.556 393.28 455.556 393.28 455.556 395.296H453.444C449.412 395.296 449.412 396.64 449.412 397.888C449.412 398.656 449.412 400.192 452.292 400.192C454.276 400.192 455.348 399.392 455.732 399.104L456.548 400.192ZM451.236 397.696C451.236 396.544 451.236 396.544 453.444 396.544H455.556V398.08L453.252 398.656H452.388C451.236 398.656 451.236 398.656 451.236 397.696ZM463.397 400.192C463.973 400.192 465.221 400.192 466.757 399.808V398.272H466.373L464.821 398.656H463.973C461.189 398.656 461.189 398.656 461.189 395.968C461.189 393.28 461.189 393.28 463.397 393.28C465.221 393.28 465.221 393.28 465.605 394.816L467.141 394.432C467.141 393.664 467.141 391.744 463.781 391.744H463.013C459.461 391.744 459.461 393.856 459.461 395.584V396.352C459.461 398.08 459.461 400.192 463.397 400.192ZM476.562 391.936H468.498V393.344H471.682V400H473.378V393.344H476.562V391.936ZM482.341 400C484.261 400 485.989 400 485.989 397.312C485.989 396.352 485.989 394.432 482.533 394.432C481.765 394.432 480.901 394.528 480.133 394.72V391.936H478.501V400H482.341ZM482.533 395.968C484.261 395.968 484.261 395.968 484.261 397.312C484.261 398.656 484.261 398.656 482.533 398.656H480.133V395.968H482.533Z" fill="#363636"/>
<path d="M404.768 417.672V423.432L402.464 424.008H401.792C398.912 424.008 398.912 424.008 398.912 421.128V417.672H397.184V421.128C397.184 423.432 397.184 425.736 400.832 425.736C402.08 425.736 403.232 425.448 404.768 425.064V429H406.496V417.672H404.768ZM411.756 429C415.932 423.448 415.932 423.16 415.932 422.312H416.348V429H417.98V420.936H415.772C411.596 426.488 411.596 426.776 411.596 427.624H411.164V420.936H409.532V429H411.756ZM427.983 420.936H419.919V422.344H423.103V429H424.799V422.344H427.983V420.936ZM436.579 429.192L437.795 428.28C437.219 427.512 437.219 427.512 437.219 425.928V424.584C437.219 422.664 437.219 420.744 433.475 420.744C432.899 420.744 431.651 420.744 430.115 421.128V422.664H430.499L432.035 422.28H433.475C435.587 422.28 435.587 422.28 435.587 424.296H433.475C429.443 424.296 429.443 425.64 429.443 426.888C429.443 427.656 429.443 429.192 432.323 429.192C434.307 429.192 435.379 428.392 435.763 428.104L436.579 429.192ZM431.267 426.696C431.267 425.544 431.267 425.544 433.475 425.544H435.587V427.08L433.283 427.656H432.419C431.267 427.656 431.267 427.656 431.267 426.696Z" fill="#363636"/>
<path d="M273.8 436.912C273.8 436.144 273.8 436.144 271.256 430.672H269.56V431.248L272.92 438.304H275.192L274.632 439.504C274.184 440.464 273.976 440.464 272.824 440.464H271.368V442H272.44C274.472 442 275.368 442 276.36 439.696L279.992 431.248V430.672H278.344C276.04 436.144 276.04 436.144 276.072 436.912H273.8ZM286.909 435.36V442H288.541V433.936H282.029C281.981 435.6 281.885 436.976 281.597 439.056C281.405 440.448 281.245 440.72 279.869 440.72V442.032C282.461 442.032 282.733 441.728 283.053 439.344C283.293 437.584 283.405 436.352 283.437 435.36H286.909ZM297.954 442.192L299.17 441.28C298.594 440.512 298.594 440.512 298.594 438.928V437.584C298.594 435.664 298.594 433.744 294.85 433.744C294.274 433.744 293.026 433.744 291.49 434.128V435.664H291.874L293.41 435.28H294.85C296.962 435.28 296.962 435.28 296.962 437.296H294.85C290.818 437.296 290.818 438.64 290.818 439.888C290.818 440.656 290.818 442.192 293.698 442.192C295.682 442.192 296.754 441.392 297.138 441.104L297.954 442.192ZM292.642 439.696C292.642 438.544 292.642 438.544 294.85 438.544H296.962V440.08L294.658 440.656H293.794C292.642 440.656 292.642 440.656 292.642 439.696ZM307.587 433.936V437.184H302.883V433.936H301.251V442H302.883V438.592H307.587V442H309.219V433.936H307.587ZM310.914 436.72V438.16H315.714V436.72H310.914ZM320.441 436.912C320.441 436.144 320.441 436.144 317.897 430.672H316.201V431.248L319.561 438.304H321.833L321.273 439.504C320.825 440.464 320.617 440.464 319.465 440.464H318.009V442H319.081C321.113 442 322.009 442 323.001 439.696L326.633 431.248V430.672H324.985C322.681 436.144 322.681 436.144 322.713 436.912H320.441ZM328.05 442H335.074V444.304H336.642V440.656H335.298V433.936H328.738V434.896C328.738 436.8 328.53 438.832 327.586 440.656H326.482V444.304H328.05V442ZM330.306 435.344H333.666V440.656H329.346C330.114 438.816 330.306 436.864 330.306 435.344ZM345.395 437.584C345.395 435.856 345.395 433.744 341.651 433.744H341.363C340.787 433.744 339.635 433.744 338.099 434.128V435.664H338.483L340.019 435.28H341.459C343.667 435.28 343.667 435.28 343.667 437.296H340.019V438.64H343.667C343.667 440.656 343.667 440.656 341.459 440.656H340.019L338.483 440.272H338.099V441.808C339.635 442.192 340.787 442.192 341.363 442.192H341.651C345.395 442.192 345.395 440.08 345.395 438.352V437.584Z" fill="#363636"/>
<path d="M271.8 549.912C271.8 549.144 271.8 549.144 269.256 543.672H267.56V544.248L270.92 551.304H273.192L272.632 552.504C272.184 553.464 271.976 553.464 270.824 553.464H269.368V555H270.44C272.472 555 273.368 555 274.36 552.696L277.992 544.248V543.672H276.344C274.04 549.144 274.04 549.144 274.072 549.912H271.8ZM284.909 548.36V555H286.541V546.936H280.029C279.981 548.6 279.885 549.976 279.597 552.056C279.405 553.448 279.245 553.72 277.869 553.72V555.032C280.461 555.032 280.733 554.728 281.053 552.344C281.293 550.584 281.405 549.352 281.437 548.36H284.909ZM295.954 555.192L297.17 554.28C296.594 553.512 296.594 553.512 296.594 551.928V550.584C296.594 548.664 296.594 546.744 292.85 546.744C292.274 546.744 291.026 546.744 289.49 547.128V548.664H289.874L291.41 548.28H292.85C294.962 548.28 294.962 548.28 294.962 550.296H292.85C288.818 550.296 288.818 551.64 288.818 552.888C288.818 553.656 288.818 555.192 291.698 555.192C293.682 555.192 294.754 554.392 295.138 554.104L295.954 555.192ZM290.642 552.696C290.642 551.544 290.642 551.544 292.85 551.544H294.962V553.08L292.658 553.656H291.794C290.642 553.656 290.642 553.656 290.642 552.696ZM305.587 546.936V550.184H300.883V546.936H299.251V555H300.883V551.592H305.587V555H307.219V546.936H305.587ZM308.914 549.72V551.16H313.714V549.72H308.914ZM317.423 548.152V545.208H324.143V543.672H315.695V555H319.727C323.279 555 325.103 554.92 325.103 551.576C325.103 548.232 323.279 548.152 319.727 548.152H317.423ZM317.423 549.688H320.879C323.247 549.688 323.279 549.688 323.279 551.576C323.279 553.432 323.279 553.464 320.879 553.464H317.423V549.688ZM333.938 555.192L335.154 554.28C334.578 553.512 334.578 553.512 334.578 551.928V550.584C334.578 548.664 334.578 546.744 330.834 546.744C330.258 546.744 329.01 546.744 327.474 547.128V548.664H327.858L329.394 548.28H330.834C332.946 548.28 332.946 548.28 332.946 550.296H330.834C326.802 550.296 326.802 551.64 326.802 552.888C326.802 553.656 326.802 555.192 329.682 555.192C331.666 555.192 332.738 554.392 333.122 554.104L333.938 555.192ZM328.626 552.696C328.626 551.544 328.626 551.544 330.834 551.544H332.946V553.08L330.642 553.656H329.778C328.626 553.656 328.626 553.656 328.626 552.696ZM344.483 546.936H336.419V548.344H339.603V555H341.299V548.344H344.483V546.936ZM347.767 550.968C347.767 548.28 347.767 548.2 350.263 548.2C352.759 548.2 352.759 548.28 352.759 550.968C352.759 553.656 352.759 553.736 350.263 553.736C347.767 553.736 347.767 553.656 347.767 550.968ZM346.039 551.352C346.039 552.888 346.039 555.192 349.879 555.192H350.647C354.487 555.192 354.487 552.888 354.487 551.352V550.584C354.487 549.048 354.487 546.744 350.647 546.744H349.879C346.039 546.744 346.039 549.048 346.039 550.584V551.352ZM356.86 546.936V558.264H358.492V554.808C359.26 555 360.028 555.192 361.468 555.192C365.116 555.192 365.116 552.696 365.116 551.352V550.584C365.116 549.048 365.116 546.744 361.66 546.744C359.74 546.744 358.684 547.544 358.3 547.832L357.628 546.936H356.86ZM363.388 550.968C363.388 553.64 363.388 553.656 360.796 553.656C360.22 553.656 359.26 553.656 358.492 553.464V548.856L360.796 548.28H361.068C363.388 548.28 363.388 548.376 363.388 550.968Z" fill="#363636"/>
<path d="M187.392 417.888V408.672H185.664V420H187.744L192.496 413.056C193.296 411.888 193.36 411.328 193.36 410.784H193.856V420H195.584V408.672H193.504L188.56 415.952C187.92 416.896 187.888 417.392 187.888 417.888H187.392ZM198.626 411.936V423.264H200.258V419.808C201.026 420 201.794 420.192 203.234 420.192C206.882 420.192 206.882 417.696 206.882 416.352V415.584C206.882 414.048 206.882 411.744 203.426 411.744C201.506 411.744 200.45 412.544 200.066 412.832L199.394 411.936H198.626ZM205.154 415.968C205.154 418.64 205.154 418.656 202.562 418.656C201.986 418.656 201.026 418.656 200.258 418.464V413.856L202.562 413.28H202.834C205.154 413.28 205.154 413.376 205.154 415.968ZM217.411 412.384V411.936H215.587C214.435 413.472 213.763 414.368 213.763 415.2H210.883V411.936H209.251V420H210.883V416.736H213.763C213.763 417.568 214.435 418.464 215.587 420H217.411V419.552L214.707 415.968L217.411 412.384ZM222.157 418.272C222.157 417.696 222.157 417.696 220.509 413.376V411.936H218.781C218.781 413.616 218.781 413.616 221.341 419.616H222.957L222.381 421.152C222.077 421.92 221.949 421.92 221.037 421.92H219.773V423.456H220.605C221.853 423.456 223.101 423.408 223.821 421.664L226.477 414.512C226.845 413.616 226.845 413.616 226.845 412.256V411.936H225.165V413.376C223.645 417.728 223.661 417.728 223.661 418.272H222.157ZM235.983 411.936H227.919V413.344H231.103V420H232.799V413.344H235.983V411.936ZM241.475 420.192C242.051 420.192 243.299 420.192 244.835 419.808V418.272H244.451L242.899 418.656H242.051C239.267 418.656 239.267 418.656 239.267 415.968C239.267 413.28 239.267 413.28 241.475 413.28C243.299 413.28 243.299 413.28 243.683 414.816L245.219 414.432C245.219 413.664 245.219 411.744 241.859 411.744H241.091C237.539 411.744 237.539 413.856 237.539 415.584V416.352C237.539 418.08 237.539 420.192 241.475 420.192ZM255.552 412.384V411.936H253.728C252.576 413.472 251.904 414.368 251.904 415.2H249.024V411.936H247.392V420H249.024V416.736H251.904C251.904 417.568 252.576 418.464 253.728 420H255.552V419.552L252.848 415.968L255.552 412.384Z" fill="#363636"/>
<path d="M333.392 322.208H336.752C339.216 322.208 339.248 322.208 339.248 324.608C339.248 326.976 339.248 327.008 336.752 327.008H333.392V322.208ZM331.664 332H333.392V328.544H335.6C339.248 328.544 341.072 328.544 341.072 324.608C341.072 320.672 339.248 320.672 335.6 320.672H331.664V332ZM346.709 330.656C344.501 330.656 344.501 330.656 344.501 328.64H346.709C349.013 328.64 349.397 328.64 350.261 328.448L350.645 328.352V327.584C350.645 326.048 350.645 323.744 347.093 323.744H346.325C342.773 323.744 342.773 326.048 342.773 327.584V328.352C342.773 330.08 342.773 332.192 346.709 332.192C347.381 332.192 348.533 332.192 350.069 331.808V330.272H349.685L348.149 330.656H346.709ZM344.501 327.392C344.501 325.28 344.501 325.28 346.709 325.28C348.917 325.28 348.917 325.28 348.917 327.392H344.501ZM356.569 332.192C357.145 332.192 358.393 332.192 359.929 331.808V330.272H359.545L357.993 330.656H357.145C354.361 330.656 354.361 330.656 354.361 327.968C354.361 325.28 354.361 325.28 356.569 325.28C358.393 325.28 358.393 325.28 358.777 326.816L360.313 326.432C360.313 325.664 360.313 323.744 356.953 323.744H356.185C352.633 323.744 352.633 325.856 352.633 327.584V328.352C352.633 330.08 352.633 332.192 356.569 332.192ZM368.821 323.936H362.485V332H364.117V325.344H368.821V332H370.453V323.936H368.821ZM375.876 330.272C375.876 329.696 375.876 329.696 374.228 325.376V323.936H372.5C372.5 325.616 372.5 325.616 375.06 331.616H376.676L376.1 333.152C375.796 333.92 375.668 333.92 374.756 333.92H373.492V335.456H374.324C375.572 335.456 376.82 335.408 377.54 333.664L380.196 326.512C380.564 325.616 380.564 325.616 380.564 324.256V323.936H378.884V325.376C377.364 329.728 377.38 329.728 377.38 330.272H375.876ZM387.83 322.592C388.694 322.384 389.542 322.16 389.846 320.96L389.942 320.576L388.406 320.192C388.214 320.768 388.23 320.768 387.446 320.96L385.526 321.44C382.262 322.256 382.262 324.416 382.262 326.912V327.536C382.262 330.224 382.262 332.192 386.198 332.192H386.966C390.806 332.192 390.806 330.272 390.806 328.832V327.968C390.806 326.528 390.806 324.608 387.35 324.608C385.046 324.608 384.278 325.136 383.926 325.568L383.638 325.472C384.118 323.552 384.118 323.52 385.91 323.072L387.83 322.592ZM386.582 326.032C389.078 326.032 389.078 326.384 389.078 328.4C389.078 330.416 389.078 330.768 386.454 330.768C384.086 330.768 384.086 330.416 384.086 328.4C384.086 326.384 384.086 326.032 386.582 326.032ZM399.143 325.36V332H400.775V323.936H394.263C394.215 325.6 394.119 326.976 393.831 329.056C393.639 330.448 393.479 330.72 392.103 330.72V332.032C394.695 332.032 394.967 331.728 395.287 329.344C395.527 327.584 395.639 326.352 395.671 325.36H399.143ZM405.756 332C409.932 326.448 409.932 326.16 409.932 325.312H410.348V332H411.98V323.936H409.772C405.596 329.488 405.596 329.776 405.596 330.624H405.164V323.936H403.532V332H405.756ZM422.895 324.384V323.936H421.071C419.919 325.472 419.247 326.368 419.247 327.2H416.367V323.936H414.735V332H416.367V328.736H419.247C419.247 329.568 419.919 330.464 421.071 332H422.895V331.552L420.191 327.968L422.895 324.384ZM431.626 332.192L432.842 331.28C432.266 330.512 432.266 330.512 432.266 328.928V327.584C432.266 325.664 432.266 323.744 428.522 323.744C427.946 323.744 426.698 323.744 425.162 324.128V325.664H425.546L427.082 325.28H428.522C430.634 325.28 430.634 325.28 430.634 327.296H428.522C424.49 327.296 424.49 328.64 424.49 329.888C424.49 330.656 424.49 332.192 427.37 332.192C429.354 332.192 430.426 331.392 430.81 331.104L431.626 332.192ZM426.314 329.696C426.314 328.544 426.314 328.544 428.522 328.544H430.634V330.08L428.33 330.656H427.466C426.314 330.656 426.314 330.656 426.314 329.696ZM333.392 344.152V341.208H340.112V339.672H331.664V351H335.696C339.248 351 341.072 350.92 341.072 347.576C341.072 344.232 339.248 344.152 335.696 344.152H333.392ZM333.392 345.688H336.848C339.216 345.688 339.248 345.688 339.248 347.576C339.248 349.432 339.248 349.464 336.848 349.464H333.392V345.688ZM345.923 349.272C345.923 348.696 345.923 348.696 344.275 344.376V342.936H342.547C342.547 344.616 342.547 344.616 345.107 350.616H346.723L346.147 352.152C345.843 352.92 345.715 352.92 344.803 352.92H343.539V354.456H344.371C345.619 354.456 346.867 354.408 347.587 352.664L350.243 345.512C350.611 344.616 350.611 344.616 350.611 343.256V342.936H348.931V344.376C347.411 348.728 347.427 348.728 347.427 349.272H345.923ZM352.501 342.936V354.264H354.133V350.808C354.901 351 355.669 351.192 357.109 351.192C360.757 351.192 360.757 348.696 360.757 347.352V346.584C360.757 345.048 360.757 342.744 357.301 342.744C355.381 342.744 354.325 343.544 353.941 343.832L353.269 342.936H352.501ZM359.029 346.968C359.029 349.64 359.029 349.656 356.437 349.656C355.861 349.656 354.901 349.656 354.133 349.464V344.856L356.437 344.28H356.709C359.029 344.28 359.029 344.376 359.029 346.968ZM370.422 351V342.936H366.966C364.566 342.936 362.646 342.936 362.646 345.528C362.646 346.936 363.126 347.304 364.47 348.312L362.79 350.552V351H364.614C365.19 350.264 365.814 349.496 365.814 348.312H368.79V351H370.422ZM366.294 346.968C364.486 346.968 364.47 346.968 364.47 345.624C364.47 344.296 364.47 344.28 366.294 344.28H368.79V346.968H366.294ZM380.421 342.936H372.357V344.344H375.541V351H377.237V344.344H380.421V342.936ZM384.584 351C388.76 345.448 388.76 345.16 388.76 344.312H389.176V351H390.808V342.936H388.6C384.424 348.488 384.424 348.776 384.424 349.624H383.992V342.936H382.36V351H384.584ZM400.86 351V342.936H397.404C395.004 342.936 393.084 342.936 393.084 345.528C393.084 346.936 393.564 347.304 394.908 348.312L393.228 350.552V351H395.052C395.628 350.264 396.252 349.496 396.252 348.312H399.228V351H400.86ZM396.732 346.968C394.924 346.968 394.908 346.968 394.908 345.624C394.908 344.296 394.908 344.28 396.732 344.28H399.228V346.968H396.732Z" fill="#363636"/>
<path d="M198.392 584.208H201.752C204.216 584.208 204.248 584.208 204.248 586.608C204.248 588.976 204.248 589.008 201.752 589.008H198.392V584.208ZM196.664 594H198.392V590.544H200.6C204.248 590.544 206.072 590.544 206.072 586.608C206.072 582.672 204.248 582.672 200.6 582.672H196.664V594ZM211.709 592.656C209.501 592.656 209.501 592.656 209.501 590.64H211.709C214.013 590.64 214.397 590.64 215.261 590.448L215.645 590.352V589.584C215.645 588.048 215.645 585.744 212.093 585.744H211.325C207.773 585.744 207.773 588.048 207.773 589.584V590.352C207.773 592.08 207.773 594.192 211.709 594.192C212.381 594.192 213.533 594.192 215.069 593.808V592.272H214.685L213.149 592.656H211.709ZM209.501 589.392C209.501 587.28 209.501 587.28 211.709 587.28C213.917 587.28 213.917 587.28 213.917 589.392H209.501ZM221.569 594.192C222.145 594.192 223.393 594.192 224.929 593.808V592.272H224.545L222.993 592.656H222.145C219.361 592.656 219.361 592.656 219.361 589.968C219.361 587.28 219.361 587.28 221.569 587.28C223.393 587.28 223.393 587.28 223.777 588.816L225.313 588.432C225.313 587.664 225.313 585.744 221.953 585.744H221.185C217.633 585.744 217.633 587.856 217.633 589.584V590.352C217.633 592.08 217.633 594.192 221.569 594.192ZM233.821 585.936H227.485V594H229.117V587.344H233.821V594H235.453V585.936H233.821ZM240.876 592.272C240.876 591.696 240.876 591.696 239.228 587.376V585.936H237.5C237.5 587.616 237.5 587.616 240.06 593.616H241.676L241.1 595.152C240.796 595.92 240.668 595.92 239.756 595.92H238.492V597.456H239.324C240.572 597.456 241.82 597.408 242.54 595.664L245.196 588.512C245.564 587.616 245.564 587.616 245.564 586.256V585.936H243.884V587.376C242.364 591.728 242.38 591.728 242.38 592.272H240.876ZM252.83 584.592C253.694 584.384 254.542 584.16 254.846 582.96L254.942 582.576L253.406 582.192C253.214 582.768 253.23 582.768 252.446 582.96L250.526 583.44C247.262 584.256 247.262 586.416 247.262 588.912V589.536C247.262 592.224 247.262 594.192 251.198 594.192H251.966C255.806 594.192 255.806 592.272 255.806 590.832V589.968C255.806 588.528 255.806 586.608 252.35 586.608C250.046 586.608 249.278 587.136 248.926 587.568L248.638 587.472C249.118 585.552 249.118 585.52 250.91 585.072L252.83 584.592ZM251.582 588.032C254.078 588.032 254.078 588.384 254.078 590.4C254.078 592.416 254.078 592.768 251.454 592.768C249.086 592.768 249.086 592.416 249.086 590.4C249.086 588.384 249.086 588.032 251.582 588.032ZM264.143 587.36V594H265.775V585.936H259.263C259.215 587.6 259.119 588.976 258.831 591.056C258.639 592.448 258.479 592.72 257.103 592.72V594.032C259.695 594.032 259.967 593.728 260.287 591.344C260.527 589.584 260.639 588.352 260.671 587.36H264.143ZM270.756 594C274.932 588.448 274.932 588.16 274.932 587.312H275.348V594H276.98V585.936H274.772C270.596 591.488 270.596 591.776 270.596 592.624H270.164V585.936H268.532V594H270.756ZM287.895 586.384V585.936H286.071C284.919 587.472 284.247 588.368 284.247 589.2H281.367V585.936H279.735V594H281.367V590.736H284.247C284.247 591.568 284.919 592.464 286.071 594H287.895V593.552L285.191 589.968L287.895 586.384ZM296.626 594.192L297.842 593.28C297.266 592.512 297.266 592.512 297.266 590.928V589.584C297.266 587.664 297.266 585.744 293.522 585.744C292.946 585.744 291.698 585.744 290.162 586.128V587.664H290.546L292.082 587.28H293.522C295.634 587.28 295.634 587.28 295.634 589.296H293.522C289.49 589.296 289.49 590.64 289.49 591.888C289.49 592.656 289.49 594.192 292.37 594.192C294.354 594.192 295.426 593.392 295.81 593.104L296.626 594.192ZM291.314 591.696C291.314 590.544 291.314 590.544 293.522 590.544H295.634V592.08L293.33 592.656H292.466C291.314 592.656 291.314 592.656 291.314 591.696ZM196.664 601.672V613H198.392V603.208H198.904C198.904 604.04 198.904 604.04 202.264 613H204.408C207.768 604.04 207.768 604.04 207.768 603.208H208.28V613H210.008V601.672H206.856C203.544 610.504 203.544 610.504 203.544 611.464H203.128C203.128 610.504 203.128 610.504 199.816 601.672H196.664ZM214.392 608.968C214.392 606.28 214.392 606.2 216.888 606.2C219.384 606.2 219.384 606.28 219.384 608.968C219.384 611.656 219.384 611.736 216.888 611.736C214.392 611.736 214.392 611.656 214.392 608.968ZM212.664 609.352C212.664 610.888 212.664 613.192 216.504 613.192H217.272C221.112 613.192 221.112 610.888 221.112 609.352V608.584C221.112 607.048 221.112 604.744 217.272 604.744H216.504C212.664 604.744 212.664 607.048 212.664 608.584V609.352ZM229.821 604.936V608.184H225.117V604.936H223.485V613H225.117V609.592H229.821V613H231.453V604.936H229.821ZM240.7 604.936H234.204V613H235.836V606.344H240.7V604.936ZM243.814 608.968C243.814 606.28 243.814 606.2 246.31 606.2C248.806 606.2 248.806 606.28 248.806 608.968C248.806 611.656 248.806 611.736 246.31 611.736C243.814 611.736 243.814 611.656 243.814 608.968ZM242.086 609.352C242.086 610.888 242.086 613.192 245.926 613.192H246.694C250.534 613.192 250.534 610.888 250.534 609.352V608.584C250.534 607.048 250.534 604.744 246.694 604.744H245.926C242.086 604.744 242.086 607.048 242.086 608.584V609.352ZM258.971 606.36V613H260.603V604.936H254.091C254.043 606.6 253.947 607.976 253.659 610.056C253.467 611.448 253.307 611.72 251.931 611.72V613.032C254.523 613.032 254.795 612.728 255.115 610.344C255.355 608.584 255.467 607.352 255.499 606.36H258.971ZM265.584 613C269.76 607.448 269.76 607.16 269.76 606.312H270.176V613H271.808V604.936H269.6C265.424 610.488 265.424 610.776 265.424 611.624H264.992V604.936H263.36V613H265.584ZM281.86 613V604.936H278.404C276.004 604.936 274.084 604.936 274.084 607.528C274.084 608.936 274.564 609.304 275.908 610.312L274.228 612.552V613H276.052C276.628 612.264 277.252 611.496 277.252 610.312H280.228V613H281.86ZM277.732 608.968C275.924 608.968 275.908 608.968 275.908 607.624C275.908 606.296 275.908 606.28 277.732 606.28H280.228V608.968H277.732Z" fill="#363636"/>
<path d="M223.72 366.968C223.72 364.28 223.72 364.2 226.216 364.2C228.712 364.2 228.712 364.28 228.712 366.968C228.712 369.656 228.712 369.736 226.216 369.736C223.72 369.736 223.72 369.656 223.72 366.968ZM221.992 367.352C221.992 368.888 221.992 371.192 225.832 371.192H226.6C230.44 371.192 230.44 368.888 230.44 367.352V366.584C230.44 365.048 230.44 362.744 226.6 362.744H225.832C221.992 362.744 221.992 365.048 221.992 366.584V367.352ZM234.254 369.656L232.718 369.272H232.334V370.808C233.87 371.192 235.102 371.192 235.678 371.192C239.31 371.192 239.486 369.656 239.486 368.888C239.486 368.504 239.486 367.448 237.95 367.064V366.872C239.486 366.488 239.486 365.432 239.486 365.048C239.486 364.28 239.326 362.744 235.678 362.744C235.102 362.744 233.87 362.744 232.334 363.128V364.664H232.718L234.254 364.28H236.222C237.662 364.28 237.662 364.28 237.662 365.304C237.662 366.296 237.662 366.296 236.222 366.296H234.254V367.64H236.222C237.662 367.64 237.662 367.64 237.662 368.632C237.662 369.656 237.662 369.656 236.222 369.656H234.254ZM242.693 368.696C241.733 368.696 241.733 369.272 241.733 369.656V370.04C241.733 370.424 241.733 371 242.693 371H243.461C244.421 371 244.421 370.424 244.421 370.04V369.656C244.421 369.272 244.421 368.696 243.461 368.696H242.693ZM253.923 364.152V361.208H260.643V359.672H252.195V371H256.227C259.779 371 261.603 370.92 261.603 367.576C261.603 364.232 259.779 364.152 256.227 364.152H253.923ZM253.923 365.688H257.379C259.747 365.688 259.779 365.688 259.779 367.576C259.779 369.432 259.779 369.464 257.379 369.464H253.923V365.688ZM270.438 371.192L271.654 370.28C271.078 369.512 271.078 369.512 271.078 367.928V366.584C271.078 364.664 271.078 362.744 267.334 362.744C266.758 362.744 265.51 362.744 263.974 363.128V364.664H264.358L265.894 364.28H267.334C269.446 364.28 269.446 364.28 269.446 366.296H267.334C263.302 366.296 263.302 367.64 263.302 368.888C263.302 369.656 263.302 371.192 266.182 371.192C268.166 371.192 269.238 370.392 269.622 370.104L270.438 371.192ZM265.126 368.696C265.126 367.544 265.126 367.544 267.334 367.544H269.446V369.08L267.142 369.656H266.278C265.126 369.656 265.126 369.656 265.126 368.696ZM278.487 361.72C279.575 361.72 280.343 361.72 281.351 360.536L280.199 359.672C279.687 360.376 279.671 360.376 278.791 360.376H277.287C276.423 360.376 276.407 360.376 275.879 359.672L274.727 360.536C275.735 361.72 276.503 361.72 277.591 361.72H278.487ZM275.959 371C280.135 365.448 280.135 365.16 280.135 364.312H280.551V371H282.183V362.936H279.975C275.799 368.488 275.799 368.776 275.799 369.624H275.367V362.936H273.735V371H275.959ZM293.099 363.384V362.936H291.275C290.123 364.472 289.451 365.368 289.451 366.2H286.571V362.936H284.939V371H286.571V367.736H289.451C289.451 368.568 290.123 369.464 291.275 371H293.099V370.552L290.395 366.968L293.099 363.384ZM301.829 371.192L303.045 370.28C302.469 369.512 302.469 369.512 302.469 367.928V366.584C302.469 364.664 302.469 362.744 298.725 362.744C298.149 362.744 296.901 362.744 295.365 363.128V364.664H295.749L297.285 364.28H298.725C300.837 364.28 300.837 364.28 300.837 366.296H298.725C294.693 366.296 294.693 367.64 294.693 368.888C294.693 369.656 294.693 371.192 297.573 371.192C299.557 371.192 300.629 370.392 301.013 370.104L301.829 371.192ZM296.517 368.696C296.517 367.544 296.517 367.544 298.725 367.544H300.837V369.08L298.533 369.656H297.669C296.517 369.656 296.517 369.656 296.517 368.696ZM311.19 364.36V371H312.822V362.936H306.31C306.262 364.6 306.166 365.976 305.878 368.056C305.686 369.448 305.526 369.72 304.15 369.72V371.032C306.742 371.032 307.014 370.728 307.334 368.344C307.574 366.584 307.686 365.352 307.718 364.36H311.19Z" fill="#4560EA"/>
<path d="M174.5 442C176.167 441.5 180.3 440.5 183.5 440.5C187.5 440.5 191 440.5 192.5 440.5C193.7 440.5 196 439.5 197 439" stroke="black"/>
<path d="M1 251L42 287L53 293C60 294.667 75.4 298.4 81 300C88 302 112 315 118 322.5C124 330 123 329 126 337C129 345 131 347.5 134 354C137 360.5 154 375 159.5 380C165 385 164.5 388 164.5 390.5C164.5 393 167 400.5 169 405C170.6 408.6 182.333 423.5 188 430.5C187.5 431.5 186.3 433.7 185.5 434.5C184.5 435.5 179 440 177 440.5C175 441 173.5 442.5 173.5 444.5C173.5 446.5 180 449 183.5 451C187 453 195.5 455 198 455C200 455 202.167 452.333 203 451C204.833 451 209 451 211 451C213.5 451 219 449 220 447.5C221 446 223 445.5 224.5 445.5C226 445.5 235.5 443.5 240.5 442.5C245.5 441.5 252.5 435 255 435.5C257 435.9 260.5 444.667 262 449C265.333 451.333 273.1 456.3 277.5 457.5C283 459 284.5 460.5 291 460.5C297.5 460.5 305 457.5 308.5 457.5C312 457.5 310.5 457.5 318 457.5C325.5 457.5 321 460 333.5 457.5C346 455 356.5 444.5 361 444.5C364.6 444.5 381.5 437.833 389.5 434.5C395.667 437.167 409.4 442.5 415 442.5C422 442.5 433 443.5 439.5 445.5C446 447.5 465.5 451 476.5 451C487.5 451 493.5 447 500 451C505.2 454.2 518.167 458.667 524 460.5L540 465.5H567" stroke="black"/>
<path d="M262.5 449.5C260.5 456.333 257.1 470.9 259.5 474.5C262.5 479 268.5 481 267 486.5C265.5 492 259.5 497.5 259.5 500.5C259.5 503.5 256.5 505.5 259.5 510.5C262.5 515.5 262.5 522.5 262.5 526C262.5 528.8 260.5 550.5 259.5 561" stroke="black"/>
<path d="M174.5 442C176.167 441.5 180.3 440.5 183.5 440.5C187.5 440.5 191 440.5 192.5 440.5C193.7 440.5 196 439.5 197 439" stroke="white" stroke-dasharray="3 3"/>
<path d="M1 251L42 287L53 293C60 294.667 75.4 298.4 81 300C88 302 112 315 118 322.5C124 330 123 329 126 337C129 345 131 347.5 134 354C137 360.5 154 375 159.5 380C165 385 164.5 388 164.5 390.5C164.5 393 167 400.5 169 405C170.6 408.6 182.333 423.5 188 430.5C187.5 431.5 186.3 433.7 185.5 434.5C184.5 435.5 179 440 177 440.5C175 441 173.5 442.5 173.5 444.5C173.5 446.5 180 449 183.5 451C187 453 195.5 455 198 455C200 455 202.167 452.333 203 451C204.833 451 209 451 211 451C213.5 451 219 449 220 447.5C221 446 223 445.5 224.5 445.5C226 445.5 235.5 443.5 240.5 442.5C245.5 441.5 252.5 435 255 435.5C257 435.9 260.5 444.667 262 449C265.333 451.333 273.1 456.3 277.5 457.5C283 459 284.5 460.5 291 460.5C297.5 460.5 305 457.5 308.5 457.5C312 457.5 310.5 457.5 318 457.5C325.5 457.5 321 460 333.5 457.5C346 455 356.5 444.5 361 444.5C364.6 444.5 381.5 437.833 389.5 434.5C395.667 437.167 409.4 442.5 415 442.5C422 442.5 433 443.5 439.5 445.5C446 447.5 465.5 451 476.5 451C487.5 451 493.5 447 500 451C505.2 454.2 518.167 458.667 524 460.5L540 465.5H567" stroke="white" stroke-dasharray="3 3"/>
<path d="M262.5 449.5C260.5 456.333 257.1 470.9 259.5 474.5C262.5 479 268.5 481 267 486.5C265.5 492 259.5 497.5 259.5 500.5C259.5 503.5 256.5 505.5 259.5 510.5C262.5 515.5 262.5 522.5 262.5 526C262.5 528.8 260.5 550.5 259.5 561" stroke="white" stroke-dasharray="3 3"/>
<circle cx="389" cy="436" r="3" fill="#E21A1A"/>
<circle cx="188" cy="430" r="3" fill="#E21A1A"/>
<circle cx="260" cy="562" r="3" fill="#E21A1A"/>
<circle cx="262" cy="449" r="3" fill="#E21A1A"/>
</svg>
